<svg xmlns="http://www.w3.org/2000/svg" xmlns:xlink="http://www.w3.org/1999/xlink" width="295" height="93" viewBox="0 0 295 93">
  <defs>
    <linearGradient id="linear-gradient" x1="-34.551" y1="0.5" x2="-33.551" y2="0.5" gradientUnits="objectBoundingBox">
      <stop offset="0"/>
      <stop offset="0.998" stop-color="#666"/>
    </linearGradient>
    <linearGradient id="linear-gradient-2" x1="-811.362" y1="-0.279" x2="-811.362" y2="0.737" gradientUnits="objectBoundingBox">
      <stop offset="0" stop-color="#f2f2f2"/>
      <stop offset="1" stop-color="gray"/>
    </linearGradient>
    <linearGradient id="linear-gradient-3" x1="-782.392" y1="-0.279" x2="-782.392" y2="0.737" xlink:href="#linear-gradient-2"/>
    <linearGradient id="linear-gradient-4" x1="-753.422" y1="-0.279" x2="-753.422" y2="0.737" xlink:href="#linear-gradient-2"/>
    <radialGradient id="radial-gradient" cx="0.5" cy="0.5" r="0.5" gradientTransform="matrix(-0.707, -0.707, -0.707, 0.707, -34.313, -14.213)" gradientUnits="objectBoundingBox">
      <stop offset="0.484" stop-color="#4d4d4d"/>
      <stop offset="0.66" stop-color="#8f8f8f"/>
      <stop offset="0.818" stop-color="#c4c4c4"/>
      <stop offset="0.935" stop-color="#e5e5e5"/>
      <stop offset="1" stop-color="#f2f2f2"/>
    </radialGradient>
    <radialGradient id="radial-gradient-2" cx="0.5" cy="0.5" r="0.5" gradientTransform="matrix(-1, 0, 0, 1, -56.633, 0)" gradientUnits="objectBoundingBox">
      <stop offset="0" stop-color="gray"/>
      <stop offset="1" stop-color="#f2f2f2"/>
    </radialGradient>
    <linearGradient id="linear-gradient-5" x1="-47.817" y1="0.5" x2="-46.817" y2="0.5" gradientTransform="matrix(1, 0, 0, 1, 0, 0)" xlink:href="#radial-gradient-2"/>
    <radialGradient id="radial-gradient-3" cx="0.5" cy="0.5" r="0.5" gradientTransform="matrix(-0.707, -0.707, -0.707, 0.707, -28.809, -11.933)" xlink:href="#radial-gradient"/>
    <radialGradient id="radial-gradient-4" cx="0.5" cy="0.5" r="0.5" gradientTransform="matrix(-1, 0, 0, 1, -47.703, 0)" xlink:href="#radial-gradient-2"/>
    <linearGradient id="linear-gradient-6" x1="-40.408" y1="0.5" x2="-39.408" y2="0.5" gradientTransform="matrix(1, 0, 0, 1, 0, 0)" xlink:href="#radial-gradient-2"/>
    <radialGradient id="radial-gradient-5" cx="0.5" cy="0.5" r="0.5" gradientTransform="matrix(-0.707, -0.707, -0.707, 0.707, -63.291, -26.216)" xlink:href="#radial-gradient"/>
    <radialGradient id="radial-gradient-6" cx="0.5" cy="0.5" r="0.5" gradientTransform="matrix(-1, 0, 0, 1, -103.651, 0)" xlink:href="#radial-gradient-2"/>
    <linearGradient id="linear-gradient-7" x1="-86.828" y1="0.5" x2="-85.828" y2="0.5" gradientTransform="matrix(1, 0, 0, 1, 0, 0)" xlink:href="#radial-gradient-2"/>
    <radialGradient id="radial-gradient-7" cx="0.5" cy="0.5" r="0.5" gradientTransform="matrix(-0.707, -0.707, -0.707, 0.707, -69.386, -28.74)" xlink:href="#radial-gradient"/>
    <radialGradient id="radial-gradient-8" cx="0.5" cy="0.5" r="0.5" gradientTransform="matrix(-1, 0, 0, 1, -113.54, 0)" xlink:href="#radial-gradient-2"/>
    <linearGradient id="linear-gradient-8" x1="-95.048" y1="0.5" x2="-94.048" y2="0.5" gradientTransform="matrix(1, 0, 0, 1, 0, 0)" xlink:href="#radial-gradient-2"/>
  </defs>
  <g id="Grupo_123153" data-name="Grupo 123153" transform="translate(-810 -5171)">
    <rect id="Rectángulo_42531" data-name="Rectángulo 42531" width="295" height="93" transform="translate(810 5171)" fill="#28acd3" opacity="0.25"/>
    <g id="Grupo_122664" data-name="Grupo 122664" transform="translate(7499.369 11704.65)">
      <g id="Grupo_122526" data-name="Grupo 122526" transform="translate(-7785.657 -6933.91)">
        <path id="Trazado_247127" data-name="Trazado 247127" d="M1195.587,426.865h13.418v2.32h-15.738A2.32,2.32,0,0,1,1195.587,426.865Z" fill="#1ba2c1" stroke="#12263f" stroke-miterlimit="10" stroke-width="1"/>
        <g id="Grupo_122514" data-name="Grupo 122514">
          <path id="Trazado_247128" data-name="Trazado 247128" d="M1198.084,422.76h1.638a1.6,1.6,0,0,1,1.6,1.461l.24,2.644h-4.686V423.97A1.21,1.21,0,0,1,1198.084,422.76Z" fill="#1ba2c1" stroke="#12263f" stroke-miterlimit="10" stroke-width="1"/>
          <rect id="Rectángulo_43489" data-name="Rectángulo 43489" width="0.871" height="2.643" transform="translate(1196.874 426.124) rotate(-180)" fill="#28acd3" stroke="#12263f" stroke-miterlimit="10" stroke-width="1"/>
        </g>
        <g id="Grupo_122515" data-name="Grupo 122515">
          <path id="Trazado_247129" data-name="Trazado 247129" d="M1246.343,465.167h-62v-5.432h62a2.716,2.716,0,0,1,2.716,2.716h0A2.716,2.716,0,0,1,1246.343,465.167Z" fill="#fff" stroke="#12263f" stroke-miterlimit="10" stroke-width="1"/>
          <g id="Rectángulo_43490" data-name="Rectángulo 43490" transform="translate(1214.497 461.337) rotate(-180)" fill="#12263f" stroke="#12263f" stroke-miterlimit="10" stroke-width="1">
            <rect width="24.341" height="1.673" stroke="none"/>
            <rect x="-0.5" y="-0.5" width="25.341" height="2.673" fill="none"/>
          </g>
        </g>
        <rect id="Rectángulo_43491" data-name="Rectángulo 43491" width="3.561" height="11.735" transform="translate(1164.313 471.538) rotate(-180)" fill="#fff" stroke="#12263f" stroke-miterlimit="10" stroke-width="1"/>
        <path id="Trazado_247130" data-name="Trazado 247130" d="M1138.037,443.461v16.053h41.291v.15h29.677V429.035h-24.054c-.181,0-.368.007-.559.022-2.634.2-4.677,1.554-5.168,3.2l-2.53,8.467c-.51,1.594-2.738,2.741-5.321,2.741Z" fill="#28acd3" stroke="#12263f" stroke-miterlimit="10" stroke-width="1"/>
        <g id="Grupo_122516" data-name="Grupo 122516">
          <path id="Trazado_247131" data-name="Trazado 247131" d="M1136.414,448.818v6.38a.4.4,0,0,0,.4.4h10.807a.4.4,0,0,0,.2-.747l-10.807-6.38A.4.4,0,0,0,1136.414,448.818Z" fill="#fff"/>
          <rect id="Rectángulo_43492" data-name="Rectángulo 43492" width="0.42" height="5.757" transform="translate(1136.414 448.962)" fill="#fff"/>
          <path id="Trazado_247132" data-name="Trazado 247132" d="M1137.863,452.618a1.348,1.348,0,1,0,1.348-1.348A1.347,1.347,0,0,0,1137.863,452.618Z" fill="#fece16"/>
        </g>
        <path id="Rectángulo_43493" data-name="Rectángulo 43493" d="M0,0H2A0,0,0,0,1,2,0V0A2,2,0,0,1,0,2H0A0,0,0,0,1,0,2V0A0,0,0,0,1,0,0Z" transform="translate(1164.313 459.807) rotate(-180)" fill="#fff"/>
        <path id="Trazado_247133" data-name="Trazado 247133" d="M1198.955,452.552V433.826a1.826,1.826,0,0,0-1.826-1.826h-7.177a1.825,1.825,0,0,0-1.718,1.208l-3.106,8.645a1.829,1.829,0,0,0-.108.617v10.082a1.826,1.826,0,0,0,1.826,1.825h10.283A1.826,1.826,0,0,0,1198.955,452.552Z" fill="#28acd3" stroke="#12263f" stroke-miterlimit="10" stroke-width="1"/>
        <rect id="Rectángulo_43494" data-name="Rectángulo 43494" width="0.41" height="15.152" transform="translate(1200.43 452.902) rotate(-180)" fill="#fff"/>
        <path id="Trazado_247134" data-name="Trazado 247134" d="M1189.035,441.146h7.2a1.2,1.2,0,0,0,.663-.2,1.166,1.166,0,0,0,.511-.964V435.12a1.173,1.173,0,0,0-1.174-1.174h-5.514a1.172,1.172,0,0,0-1.1.787l-1.692,4.859A1.169,1.169,0,0,0,1189.035,441.146Z" fill="url(#linear-gradient)"/>
        <rect id="Rectángulo_43495" data-name="Rectángulo 43495" width="1.018" height="8.823" rx="0.509" transform="translate(1187.351 433.341)" fill="#fff"/>
        <rect id="Rectángulo_43496" data-name="Rectángulo 43496" width="0.601" height="9.468" transform="translate(1160.752 470.037) rotate(-180)" fill="#fece16"/>
        <path id="Rectángulo_43497" data-name="Rectángulo 43497" d="M0,0H6.557a0,0,0,0,1,0,0V8.86a2.409,2.409,0,0,1-2.409,2.409H2.409A2.409,2.409,0,0,1,0,8.86V0A0,0,0,0,1,0,0Z" transform="translate(1214.497 459.664) rotate(-180)" fill="#12263f"/>
        <path id="Rectángulo_43498" data-name="Rectángulo 43498" d="M0,0H4.427a0,0,0,0,1,0,0V9.29a1.979,1.979,0,0,1-1.979,1.979H1.98A1.98,1.98,0,0,1,0,9.29V0A0,0,0,0,1,0,0Z" transform="translate(1213.432 448.477) rotate(-180)" fill="#12263f"/>
        <path id="Rectángulo_43499" data-name="Rectángulo 43499" d="M0,0H2.327a0,0,0,0,1,0,0V23.866A1.163,1.163,0,0,1,1.163,25.03h0A1.163,1.163,0,0,1,0,23.866V0A0,0,0,0,1,0,0Z" transform="translate(1212.382 437.29) rotate(-180)" fill="#12263f"/>
        <g id="Grupo_122517" data-name="Grupo 122517">
          <path id="Rectángulo_43500" data-name="Rectángulo 43500" d="M1.878,0H20.916a1.878,1.878,0,0,1,1.878,1.878V6.286a0,0,0,0,1,0,0H0a0,0,0,0,1,0,0V1.878A1.878,1.878,0,0,1,1.878,0Z" transform="translate(1239.496 466.103) rotate(-180)" fill="#12263f"/>
          <rect id="Rectángulo_43501" data-name="Rectángulo 43501" width="0.513" height="6.286" transform="translate(1236.038 466.103) rotate(-180)" fill="url(#linear-gradient-2)"/>
          <rect id="Rectángulo_43502" data-name="Rectángulo 43502" width="0.513" height="6.286" transform="translate(1228.612 466.103) rotate(-180)" fill="url(#linear-gradient-3)"/>
          <rect id="Rectángulo_43503" data-name="Rectángulo 43503" width="0.513" height="6.286" transform="translate(1221.185 466.103) rotate(-180)" fill="url(#linear-gradient-4)"/>
        </g>
        <path id="Rectángulo_43504" data-name="Rectángulo 43504" d="M0,0H1.749a0,0,0,0,1,0,0V14.234A1.749,1.749,0,0,1,0,15.983H0a0,0,0,0,1,0,0V0A0,0,0,0,1,0,0Z" transform="translate(1138.037 459.487) rotate(180)" fill="#fff" stroke="#12263f" stroke-miterlimit="10" stroke-width="1"/>
        <g id="Grupo_122521" data-name="Grupo 122521">
          <g id="Grupo_122520" data-name="Grupo 122520">
            <g id="Grupo_122519" data-name="Grupo 122519">
              <circle id="Elipse_6065" data-name="Elipse 6065" cx="10.97" cy="10.97" r="10.97" transform="translate(1161.962 460.681) rotate(-13.283)"/>
              <circle id="Elipse_6066" data-name="Elipse 6066" cx="7.094" cy="7.094" r="7.094" transform="translate(1165.241 468.837) rotate(-45)" fill="url(#radial-gradient)"/>
              <g id="Grupo_122518" data-name="Grupo 122518">
                <path id="Trazado_247135" data-name="Trazado 247135" d="M1170.152,468.837a5.122,5.122,0,1,0,5.122-5.123A5.122,5.122,0,0,0,1170.152,468.837Zm.918-1.793a.2.2,0,0,1,.114.251,4.457,4.457,0,0,0-.206.734.2.2,0,0,1-.192.158.217.217,0,0,1-.036,0,.2.2,0,0,1-.155-.228,4.878,4.878,0,0,1,.223-.8A.2.2,0,0,1,1171.07,467.044Zm2.057-2.014a4.27,4.27,0,0,0-.627.43.2.2,0,1,1-.248-.3,4.664,4.664,0,0,1,.682-.469.2.2,0,0,1,.193.34Zm1.588-.729a.193.193,0,0,1-.16.224,4.433,4.433,0,0,0-.737.19.206.206,0,0,1-.065.011.2.2,0,0,1-.065-.379,4.808,4.808,0,0,1,.8-.206A.2.2,0,0,1,1174.715,464.3Zm1.583.081a.2.2,0,0,1-.192.16l-.036,0a4.433,4.433,0,0,0-.757-.074.195.195,0,0,1,0-.389h0a4.708,4.708,0,0,1,.824.079A.2.2,0,0,1,1176.3,464.382Zm1.458.618a.194.194,0,0,1-.168.1.2.2,0,0,1-.1-.027,4.32,4.32,0,0,0-.685-.328.195.195,0,1,1,.136-.365,4.586,4.586,0,0,1,.748.357A.2.2,0,0,1,1177.756,465Zm1.161,1.078a.2.2,0,0,1-.276-.026,4.324,4.324,0,0,0-.533-.541.2.2,0,0,1,.253-.3,4.908,4.908,0,0,1,.582.59A.2.2,0,0,1,1178.917,466.078Zm.842,1.159a.2.2,0,0,1-.118.25.185.185,0,0,1-.065.011.194.194,0,0,1-.184-.129,4.372,4.372,0,0,0-.317-.692.193.193,0,0,1,.074-.265.2.2,0,0,1,.266.073A4.736,4.736,0,0,1,1179.759,467.237Zm.08,1.808a.207.207,0,0,1-.195-.208,4.422,4.422,0,0,0-.061-.732.195.195,0,0,1,.384-.066,4.8,4.8,0,0,1,.067.8v.027A.184.184,0,0,1,1179.839,469.045Zm-.35,1.559a.2.2,0,0,1-.115-.251,4.5,4.5,0,0,0,.2-.735.2.2,0,0,1,.384.071,4.852,4.852,0,0,1-.22.8.193.193,0,0,1-.182.128A.2.2,0,0,1,1179.489,470.6Zm-.88,1.057a4.2,4.2,0,0,0,.439-.619.2.2,0,0,1,.338.2,4.674,4.674,0,0,1-.479.676.2.2,0,0,1-.149.069.192.192,0,0,1-.126-.046A.2.2,0,0,1,1178.609,471.661Zm-1.164.968a4.342,4.342,0,0,0,.624-.433.195.195,0,1,1,.25.3,4.791,4.791,0,0,1-.68.474.2.2,0,1,1-.194-.34Zm-1.584.74a.194.194,0,0,1,.159-.225,4.348,4.348,0,0,0,.735-.194.2.2,0,1,1,.133.367,4.639,4.639,0,0,1-.8.211l-.033,0A.193.193,0,0,1,1175.861,473.369Zm-1.584-.073a.2.2,0,0,1,.227-.158,4.35,4.35,0,0,0,.758.069.195.195,0,1,1,0,.389h0a4.738,4.738,0,0,1-.825-.073A.2.2,0,0,1,1174.277,473.3Zm-1.462-.609a.2.2,0,0,1,.267-.071,4.213,4.213,0,0,0,.687.323.2.2,0,0,1-.135.367,4.684,4.684,0,0,1-.748-.352A.2.2,0,0,1,1172.815,472.687Zm-1.167-1.071a.2.2,0,0,1,.275.025,4.414,4.414,0,0,0,.537.539.2.2,0,0,1-.253.3,5.03,5.03,0,0,1-.583-.586A.2.2,0,0,1,1171.648,471.616Zm-.135-5.005a.2.2,0,0,1-.168.1.2.2,0,0,1-.1-.027.2.2,0,0,1-.068-.267,4.79,4.79,0,0,1,.483-.673.2.2,0,1,1,.3.254A4.487,4.487,0,0,0,1171.513,466.611Zm-.714,3.851a.2.2,0,1,1,.367-.134,4.253,4.253,0,0,0,.32.688.195.195,0,0,1-.169.293.2.2,0,0,1-.169-.1A4.689,4.689,0,0,1,1170.8,470.462Zm-.284-1.625v-.054a.195.195,0,1,1,.389,0v.054a4.45,4.45,0,0,0,.066.757.2.2,0,0,1-.158.226l-.034,0a.194.194,0,0,1-.192-.161A4.728,4.728,0,0,1,1170.515,468.837Z" fill="url(#radial-gradient-2)"/>
              </g>
              <path id="Trazado_247136" data-name="Trazado 247136" d="M1172.187,468.837a3.087,3.087,0,1,0,3.087-3.087A3.088,3.088,0,0,0,1172.187,468.837Z" fill="url(#linear-gradient-5)"/>
            </g>
          </g>
          <path id="Trazado_247137" data-name="Trazado 247137" d="M1160.534,467.48h4.209a10.45,10.45,0,0,1,20.748,0h4.216a14.64,14.64,0,0,0-29.173,0Z" fill="#28acd3" stroke="#12263f" stroke-miterlimit="10" stroke-width="1"/>
        </g>
        <g id="Grupo_122525" data-name="Grupo 122525">
          <g id="Grupo_122524" data-name="Grupo 122524">
            <g id="Grupo_122523" data-name="Grupo 122523">
              <circle id="Elipse_6067" data-name="Elipse 6067" cx="10.97" cy="10.97" r="10.97" transform="matrix(0.973, -0.23, 0.23, 0.973, 1139.09, 460.681)"/>
              <circle id="Elipse_6068" data-name="Elipse 6068" cx="7.094" cy="7.094" r="7.094" transform="translate(1142.37 468.837) rotate(-45)" fill="url(#radial-gradient-3)"/>
              <g id="Grupo_122522" data-name="Grupo 122522">
                <path id="Trazado_247138" data-name="Trazado 247138" d="M1147.28,468.837a5.122,5.122,0,1,0,5.123-5.123A5.123,5.123,0,0,0,1147.28,468.837Zm.918-1.793a.2.2,0,0,1,.114.251,4.568,4.568,0,0,0-.206.734.194.194,0,0,1-.191.158.216.216,0,0,1-.036,0,.194.194,0,0,1-.155-.228,4.77,4.77,0,0,1,.223-.8A.193.193,0,0,1,1148.2,467.044Zm2.057-2.014a4.323,4.323,0,0,0-.627.43.19.19,0,0,1-.123.044.195.195,0,0,1-.124-.345,4.612,4.612,0,0,1,.682-.469.2.2,0,0,1,.192.34Zm1.589-.729a.194.194,0,0,1-.16.224,4.407,4.407,0,0,0-.737.19.211.211,0,0,1-.065.011.193.193,0,0,1-.184-.13.2.2,0,0,1,.119-.249,4.808,4.808,0,0,1,.8-.206A.2.2,0,0,1,1151.844,464.3Zm1.582.081a.2.2,0,0,1-.192.16l-.035,0a4.442,4.442,0,0,0-.757-.074.195.195,0,0,1,0-.389h0a4.726,4.726,0,0,1,.824.079A.2.2,0,0,1,1153.426,464.382Zm1.458.618a.193.193,0,0,1-.168.1.2.2,0,0,1-.1-.027,4.324,4.324,0,0,0-.686-.328.195.195,0,1,1,.137-.365,4.63,4.63,0,0,1,.748.357A.194.194,0,0,1,1154.884,465Zm1.161,1.078a.192.192,0,0,1-.124.044.2.2,0,0,1-.151-.07,4.324,4.324,0,0,0-.533-.541.2.2,0,0,1-.023-.275.2.2,0,0,1,.276-.023,4.837,4.837,0,0,1,.581.59A.2.2,0,0,1,1156.045,466.078Zm.843,1.159a.2.2,0,0,1-.118.25.191.191,0,0,1-.066.011.193.193,0,0,1-.183-.129,4.461,4.461,0,0,0-.317-.692.194.194,0,0,1,.073-.265.2.2,0,0,1,.266.073A4.729,4.729,0,0,1,1156.888,467.237Zm.079,1.808a.207.207,0,0,1-.194-.208,4.332,4.332,0,0,0-.062-.732.195.195,0,1,1,.384-.066,4.684,4.684,0,0,1,.067.8v.027A.183.183,0,0,1,1156.967,469.045Zm-.349,1.559a.194.194,0,0,1-.116-.251,4.391,4.391,0,0,0,.2-.735.2.2,0,0,1,.385.071,4.95,4.95,0,0,1-.22.8.2.2,0,0,1-.183.128A.2.2,0,0,1,1156.618,470.6Zm-.88,1.057a4.349,4.349,0,0,0,.439-.619.2.2,0,0,1,.338.2,4.684,4.684,0,0,1-.479.676.2.2,0,0,1-.276.023A.2.2,0,0,1,1155.738,471.661Zm-1.164.968a4.4,4.4,0,0,0,.624-.433.195.195,0,1,1,.249.3,4.73,4.73,0,0,1-.68.474.2.2,0,0,1-.193-.34Zm-1.585.74a.2.2,0,0,1,.16-.225,4.376,4.376,0,0,0,.735-.194.194.194,0,0,1,.25.117.2.2,0,0,1-.117.25,4.677,4.677,0,0,1-.8.211l-.033,0A.2.2,0,0,1,1152.989,473.369Zm-1.583-.073a.2.2,0,0,1,.227-.158,4.339,4.339,0,0,0,.757.069.195.195,0,0,1,0,.389h0a4.738,4.738,0,0,1-.825-.073A.2.2,0,0,1,1151.406,473.3Zm-1.462-.609a.2.2,0,0,1,.266-.071,4.19,4.19,0,0,0,.688.323.2.2,0,0,1-.135.367,4.738,4.738,0,0,1-.749-.352A.2.2,0,0,1,1149.944,472.687Zm-1.168-1.071a.2.2,0,0,1,.276.025,4.405,4.405,0,0,0,.537.539.2.2,0,0,1-.127.344.192.192,0,0,1-.126-.046,5.05,5.05,0,0,1-.584-.586A.2.2,0,0,1,1148.776,471.616Zm-.135-5.005a.194.194,0,0,1-.168.1.2.2,0,0,1-.1-.027.194.194,0,0,1-.068-.267,4.721,4.721,0,0,1,.483-.673.193.193,0,0,1,.275-.021.2.2,0,0,1,.021.275A4.422,4.422,0,0,0,1148.641,466.611Zm-.714,3.851a.2.2,0,1,1,.367-.134,4.269,4.269,0,0,0,.321.688.2.2,0,0,1-.338.2A4.684,4.684,0,0,1,1147.927,470.462Zm-.284-1.625v-.054a.2.2,0,0,1,.39,0v.054a4.353,4.353,0,0,0,.066.757.2.2,0,0,1-.159.226.188.188,0,0,1-.034,0,.2.2,0,0,1-.192-.161A4.837,4.837,0,0,1,1147.643,468.837Z" fill="url(#radial-gradient-4)"/>
              </g>
              <path id="Trazado_247139" data-name="Trazado 247139" d="M1149.316,468.837a3.087,3.087,0,1,0,3.087-3.087A3.087,3.087,0,0,0,1149.316,468.837Z" fill="url(#linear-gradient-6)"/>
            </g>
          </g>
          <path id="Trazado_247140" data-name="Trazado 247140" d="M1137.662,467.48h4.21a10.449,10.449,0,0,1,20.747,0h4.217a14.641,14.641,0,0,0-29.174,0Z" fill="#28acd3" stroke="#12263f" stroke-miterlimit="10" stroke-width="1"/>
        </g>
      </g>
      <path id="Trazado_247141" data-name="Trazado 247141" d="M1215.74,460.755h135.351a1.193,1.193,0,0,0,1.017-1.312h0a1.192,1.192,0,0,0-1.017-1.311H1215.74Z" transform="translate(-7785.657 -6933.91)"/>
      <path id="Trazado_247142" data-name="Trazado 247142" d="M1350.582,460.755H1249.427c3.924,0,7.288,3.121,8.668,7.54h92.487Z" transform="translate(-7785.657 -6933.91)" fill="#12263f"/>
      <path id="Trazado_247143" data-name="Trazado 247143" d="M1258.075,460.755l.065.045c.328-.032.663-.045,1-.045Z" transform="translate(-7785.657 -6933.91)" fill="#b751bb"/>
      <g id="Grupo_122527" data-name="Grupo 122527" transform="translate(-7785.657 -6933.91)">
        <g id="Rectángulo_43505" data-name="Rectángulo 43505" transform="translate(1215.74 416.656)" fill="#fff" stroke="#12263f" stroke-miterlimit="10" stroke-width="2">
          <rect width="136.082" height="41.475" stroke="none"/>
          <rect x="1" y="1" width="134.082" height="39.475" fill="none"/>
        </g>
      </g>
      <g id="Grupo_122530" data-name="Grupo 122530" transform="translate(-7785.657 -6933.91)">
        <g id="Grupo_122529" data-name="Grupo 122529">
          <circle id="Elipse_6069" data-name="Elipse 6069" cx="10.97" cy="10.97" r="10.97" transform="translate(1282.386 460.681) rotate(-13.283)"/>
          <circle id="Elipse_6070" data-name="Elipse 6070" cx="7.094" cy="7.094" r="7.094" transform="translate(1285.666 468.837) rotate(-45)" fill="url(#radial-gradient-5)"/>
          <g id="Grupo_122528" data-name="Grupo 122528">
            <path id="Trazado_247144" data-name="Trazado 247144" d="M1290.576,468.837a5.122,5.122,0,1,0,5.123-5.123A5.123,5.123,0,0,0,1290.576,468.837Zm.918-1.793a.2.2,0,0,1,.114.251,4.568,4.568,0,0,0-.206.734.194.194,0,0,1-.191.158.216.216,0,0,1-.036,0,.194.194,0,0,1-.155-.228,4.77,4.77,0,0,1,.223-.8A.193.193,0,0,1,1291.494,467.044Zm2.057-2.014a4.324,4.324,0,0,0-.627.43.19.19,0,0,1-.123.044.195.195,0,0,1-.124-.345,4.612,4.612,0,0,1,.682-.469.2.2,0,0,1,.192.34Zm1.589-.729a.194.194,0,0,1-.16.224,4.4,4.4,0,0,0-.737.19.213.213,0,0,1-.065.011.193.193,0,0,1-.184-.13.2.2,0,0,1,.119-.249,4.8,4.8,0,0,1,.8-.206A.2.2,0,0,1,1295.14,464.3Zm1.582.081a.2.2,0,0,1-.192.16l-.035,0a4.444,4.444,0,0,0-.757-.074.195.195,0,0,1,0-.389h0a4.726,4.726,0,0,1,.824.079A.2.2,0,0,1,1296.722,464.382Zm1.458.618a.193.193,0,0,1-.168.1.2.2,0,0,1-.1-.027,4.324,4.324,0,0,0-.686-.328.195.195,0,1,1,.137-.365,4.591,4.591,0,0,1,.748.357A.194.194,0,0,1,1298.18,465Zm1.161,1.078a.192.192,0,0,1-.124.044.2.2,0,0,1-.151-.07,4.325,4.325,0,0,0-.533-.541.2.2,0,1,1,.253-.3,4.828,4.828,0,0,1,.581.59A.2.2,0,0,1,1299.341,466.078Zm.843,1.159a.2.2,0,0,1-.118.25.2.2,0,0,1-.249-.118,4.472,4.472,0,0,0-.317-.692.194.194,0,0,1,.073-.265.2.2,0,0,1,.266.073A4.74,4.74,0,0,1,1300.184,467.237Zm.079,1.808a.207.207,0,0,1-.194-.208,4.32,4.32,0,0,0-.062-.732.2.2,0,0,1,.385-.066,4.785,4.785,0,0,1,.066.8v.027A.183.183,0,0,1,1300.263,469.045Zm-.349,1.559a.2.2,0,0,1-.116-.251,4.391,4.391,0,0,0,.2-.735.2.2,0,0,1,.385.071,4.938,4.938,0,0,1-.22.8.194.194,0,0,1-.183.128A.2.2,0,0,1,1299.914,470.6Zm-.88,1.057a4.359,4.359,0,0,0,.439-.619.2.2,0,0,1,.338.2,4.693,4.693,0,0,1-.479.676.2.2,0,0,1-.149.069.192.192,0,0,1-.126-.046A.2.2,0,0,1,1299.034,471.661Zm-1.164.968a4.4,4.4,0,0,0,.624-.433.195.195,0,0,1,.249.3,4.73,4.73,0,0,1-.68.474.2.2,0,0,1-.193-.34Zm-1.585.74a.2.2,0,0,1,.16-.225,4.374,4.374,0,0,0,.735-.194.194.194,0,0,1,.25.117.2.2,0,0,1-.117.25,4.677,4.677,0,0,1-.8.211l-.033,0A.2.2,0,0,1,1296.285,473.369Zm-1.583-.073a.2.2,0,0,1,.227-.158,4.342,4.342,0,0,0,.757.069.195.195,0,0,1,0,.389h0a4.738,4.738,0,0,1-.825-.073A.2.2,0,0,1,1294.7,473.3Zm-1.462-.609a.2.2,0,0,1,.266-.071,4.19,4.19,0,0,0,.688.323.2.2,0,0,1-.135.367,4.733,4.733,0,0,1-.749-.352A.2.2,0,0,1,1293.24,472.687Zm-1.168-1.071a.2.2,0,0,1,.276.025,4.405,4.405,0,0,0,.537.539.2.2,0,0,1-.127.344.192.192,0,0,1-.126-.046,5.058,5.058,0,0,1-.584-.586A.2.2,0,0,1,1292.072,471.616Zm-.135-5.005a.194.194,0,0,1-.168.1.2.2,0,0,1-.1-.027.194.194,0,0,1-.068-.267,4.721,4.721,0,0,1,.483-.673.193.193,0,0,1,.275-.021.2.2,0,0,1,.021.275A4.412,4.412,0,0,0,1291.937,466.611Zm-.714,3.851a.2.2,0,1,1,.367-.134,4.269,4.269,0,0,0,.321.688.2.2,0,0,1-.338.2A4.684,4.684,0,0,1,1291.223,470.462Zm-.284-1.625v-.054a.2.2,0,0,1,.39,0v.054a4.341,4.341,0,0,0,.066.757.2.2,0,0,1-.159.226.188.188,0,0,1-.034,0,.2.2,0,0,1-.192-.161A4.837,4.837,0,0,1,1290.939,468.837Z" fill="url(#radial-gradient-6)"/>
          </g>
          <path id="Trazado_247145" data-name="Trazado 247145" d="M1292.612,468.837a3.087,3.087,0,1,0,3.087-3.087A3.087,3.087,0,0,0,1292.612,468.837Z" fill="url(#linear-gradient-7)"/>
        </g>
      </g>
      <path id="Trazado_247146" data-name="Trazado 247146" d="M1334.328,468.206l.944,5.1-.3,1.628-1.427-1.241-2.241-5.489Z" transform="translate(-7785.657 -6933.91)" fill="#12263f"/>
      <g id="Grupo_122533" data-name="Grupo 122533" transform="translate(-7785.657 -6933.91)">
        <g id="Grupo_122532" data-name="Grupo 122532">
          <circle id="Elipse_6071" data-name="Elipse 6071" cx="10.97" cy="10.97" r="10.97" transform="translate(1307.716 460.681) rotate(-13.283)"/>
          <circle id="Elipse_6072" data-name="Elipse 6072" cx="7.094" cy="7.094" r="7.094" transform="translate(1310.996 468.837) rotate(-45)" fill="url(#radial-gradient-7)"/>
          <g id="Grupo_122531" data-name="Grupo 122531">
            <path id="Trazado_247147" data-name="Trazado 247147" d="M1315.906,468.837a5.122,5.122,0,1,0,5.123-5.123A5.122,5.122,0,0,0,1315.906,468.837Zm.918-1.793a.2.2,0,0,1,.114.251,4.555,4.555,0,0,0-.206.734.194.194,0,0,1-.191.158l-.037,0a.194.194,0,0,1-.154-.228,4.679,4.679,0,0,1,.223-.8A.193.193,0,0,1,1316.824,467.044Zm2.057-2.014a4.323,4.323,0,0,0-.627.43.195.195,0,1,1-.247-.3,4.612,4.612,0,0,1,.682-.469.2.2,0,0,1,.192.34Zm1.589-.729a.194.194,0,0,1-.161.224,4.42,4.42,0,0,0-.736.19.216.216,0,0,1-.065.011.195.195,0,0,1-.065-.379,4.821,4.821,0,0,1,.8-.206A.2.2,0,0,1,1320.47,464.3Zm1.582.081a.2.2,0,0,1-.192.16l-.035,0a4.452,4.452,0,0,0-.757-.074.195.195,0,0,1,0-.389h0a4.728,4.728,0,0,1,.825.079A.2.2,0,0,1,1322.052,464.382Zm1.458.618a.193.193,0,0,1-.168.1.2.2,0,0,1-.1-.027,4.33,4.33,0,0,0-.686-.328.195.195,0,1,1,.137-.365,4.665,4.665,0,0,1,.748.357A.2.2,0,0,1,1323.51,465Zm1.161,1.078a.193.193,0,0,1-.125.044.2.2,0,0,1-.15-.07,4.324,4.324,0,0,0-.533-.541.2.2,0,1,1,.252-.3,4.837,4.837,0,0,1,.582.59A.2.2,0,0,1,1324.671,466.078Zm.842,1.159a.2.2,0,0,1-.117.25.19.19,0,0,1-.066.011.194.194,0,0,1-.184-.129,4.367,4.367,0,0,0-.316-.692.194.194,0,0,1,.073-.265.2.2,0,0,1,.266.073A4.629,4.629,0,0,1,1325.513,467.237Zm.08,1.808a.208.208,0,0,1-.2-.208,4.32,4.32,0,0,0-.061-.732.195.195,0,1,1,.384-.066,4.785,4.785,0,0,1,.067.8v.027A.184.184,0,0,1,1325.593,469.045Zm-.35,1.559a.2.2,0,0,1-.115-.251,4.5,4.5,0,0,0,.2-.735.2.2,0,0,1,.385.071,4.95,4.95,0,0,1-.22.8.2.2,0,0,1-.183.128A.2.2,0,0,1,1325.243,470.6Zm-.879,1.057a4.349,4.349,0,0,0,.439-.619.195.195,0,0,1,.337.2,4.593,4.593,0,0,1-.478.676.2.2,0,1,1-.3-.252Zm-1.165.968a4.351,4.351,0,0,0,.625-.433.195.195,0,1,1,.249.3,4.785,4.785,0,0,1-.68.474.2.2,0,0,1-.1.025.2.2,0,0,1-.169-.1A.2.2,0,0,1,1323.2,472.629Zm-1.584.74a.2.2,0,0,1,.159-.225,4.324,4.324,0,0,0,.735-.194.2.2,0,1,1,.134.367,4.674,4.674,0,0,1-.8.211l-.033,0A.2.2,0,0,1,1321.615,473.369Zm-1.583-.073a.2.2,0,0,1,.226-.158,4.35,4.35,0,0,0,.758.069.195.195,0,0,1,0,.389h0a4.74,4.74,0,0,1-.825-.073A.2.2,0,0,1,1320.032,473.3Zm-1.463-.609a.2.2,0,0,1,.267-.071,4.217,4.217,0,0,0,.687.323.2.2,0,0,1-.067.379.2.2,0,0,1-.068-.012,4.688,4.688,0,0,1-.748-.352A.2.2,0,0,1,1318.569,472.687Zm-1.167-1.071a.2.2,0,0,1,.276.025,4.476,4.476,0,0,0,.536.539.2.2,0,0,1,.023.275.2.2,0,0,1-.149.069.192.192,0,0,1-.126-.046,4.964,4.964,0,0,1-.584-.586A.2.2,0,0,1,1317.4,471.616Zm-.135-5.005a.194.194,0,0,1-.168.1.195.195,0,0,1-.168-.294,4.8,4.8,0,0,1,.483-.673.2.2,0,1,1,.3.254A4.5,4.5,0,0,0,1317.267,466.611Zm-.714,3.851a.2.2,0,1,1,.367-.134,4.338,4.338,0,0,0,.32.688.195.195,0,1,1-.337.2A4.611,4.611,0,0,1,1316.553,470.462Zm-.284-1.625v-.054a.2.2,0,0,1,.39,0v.054a4.449,4.449,0,0,0,.065.757.194.194,0,0,1-.158.226.2.2,0,0,1-.034,0,.2.2,0,0,1-.192-.161A4.74,4.74,0,0,1,1316.269,468.837Z" fill="url(#radial-gradient-8)"/>
          </g>
          <path id="Trazado_247148" data-name="Trazado 247148" d="M1317.942,468.837a3.086,3.086,0,1,0,3.087-3.087A3.088,3.088,0,0,0,1317.942,468.837Z" fill="url(#linear-gradient-8)"/>
        </g>
      </g>
    </g>
  </g>
</svg>
