<svg xmlns="http://www.w3.org/2000/svg" width="294" height="159.5" viewBox="0 0 294 159.5">
  <g id="Grupo_123154" data-name="Grupo 123154" transform="translate(-495 -3473.5)">
    <rect id="Rectángulo_42332" data-name="Rectángulo 42332" width="294" height="126.204" transform="translate(495 3473.5)" fill="#28acd3" opacity="0.25"/>
    <rect id="Rectángulo_42331" data-name="Rectángulo 42331" width="294" height="33" transform="translate(495 3600)" fill="#28acd3"/>
    <path id="Trazado_247612" data-name="Trazado 247612" d="M27.574,14.016A1.2,1.2,0,0,0,27.105,13a6.148,6.148,0,0,0-1.687-.75,11.963,11.963,0,0,1-1.93-.777,3.153,3.153,0,0,1-1.937-2.82A2.747,2.747,0,0,1,22.07,7a3.389,3.389,0,0,1,1.492-1.129,5.616,5.616,0,0,1,2.184-.406,5.112,5.112,0,0,1,2.172.441A3.458,3.458,0,0,1,29.4,7.156a3.261,3.261,0,0,1,.527,1.828H27.582A1.534,1.534,0,0,0,27.09,7.77a2.023,2.023,0,0,0-1.383-.434,2.162,2.162,0,0,0-1.336.363,1.146,1.146,0,0,0-.477.957,1.1,1.1,0,0,0,.559.93,6.311,6.311,0,0,0,1.645.7,7.106,7.106,0,0,1,2.914,1.492A2.972,2.972,0,0,1,29.926,14a2.737,2.737,0,0,1-1.117,2.316,4.891,4.891,0,0,1-3.008.84,5.808,5.808,0,0,1-2.391-.48,3.783,3.783,0,0,1-1.645-1.316,3.371,3.371,0,0,1-.566-1.937h2.352q0,1.883,2.25,1.883a2.189,2.189,0,0,0,1.3-.34A1.106,1.106,0,0,0,27.574,14.016Zm7.68,3.141a4.15,4.15,0,0,1-3.027-1.141,4.054,4.054,0,0,1-1.168-3.039v-.219a5.106,5.106,0,0,1,.492-2.277,3.612,3.612,0,0,1,1.395-1.547A3.914,3.914,0,0,1,35,8.391a3.508,3.508,0,0,1,2.73,1.094,4.444,4.444,0,0,1,1,3.1v.922H33.348a2.1,2.1,0,0,0,.66,1.328,2,2,0,0,0,1.395.5,2.437,2.437,0,0,0,2.039-.945l1.109,1.242a3.389,3.389,0,0,1-1.375,1.121A4.511,4.511,0,0,1,35.254,17.156ZM35,10.211a1.411,1.411,0,0,0-1.09.455,2.357,2.357,0,0,0-.535,1.3h3.141v-.181a1.681,1.681,0,0,0-.406-1.165A1.456,1.456,0,0,0,35,10.211Zm7.133-1.664.07.945a2.971,2.971,0,0,1,2.43-1.1A2.255,2.255,0,0,1,46.871,9.68,2.9,2.9,0,0,1,49.41,8.391a2.521,2.521,0,0,1,2.047.8,3.681,3.681,0,0,1,.672,2.41V17H49.863V11.609a1.61,1.61,0,0,0-.281-1.051,1.246,1.246,0,0,0-.992-.332,1.409,1.409,0,0,0-1.406.969l.008,5.8H44.934V11.617a1.59,1.59,0,0,0-.289-1.062,1.259,1.259,0,0,0-.984-.328,1.463,1.463,0,0,0-1.391.8V17H40.012V8.547ZM56.246,17H53.98V8.547h2.266Zm-2.4-10.641a1.112,1.112,0,0,1,.34-.836,1.465,1.465,0,0,1,1.848,0,1.105,1.105,0,0,1,.344.836,1.108,1.108,0,0,1-.348.844,1.448,1.448,0,0,1-1.836,0A1.108,1.108,0,0,1,53.848,6.359Zm9.008,4.3a6.134,6.134,0,0,0-.812-.062,1.654,1.654,0,0,0-1.68.867V17H58.105V8.547h2.133L60.3,9.555a2.092,2.092,0,0,1,1.883-1.164,2.366,2.366,0,0,1,.7.1Zm5.836,0a6.134,6.134,0,0,0-.812-.062,1.654,1.654,0,0,0-1.68.867V17H63.941V8.547h2.133l.063,1.008A2.092,2.092,0,0,1,68.02,8.391a2.366,2.366,0,0,1,.7.1Zm4.977,6.492a4.15,4.15,0,0,1-3.027-1.141,4.054,4.054,0,0,1-1.168-3.039v-.219a5.106,5.106,0,0,1,.492-2.277,3.612,3.612,0,0,1,1.395-1.547,3.914,3.914,0,0,1,2.059-.543,3.508,3.508,0,0,1,2.73,1.094,4.444,4.444,0,0,1,1,3.1v.922H71.762a2.1,2.1,0,0,0,.66,1.328,2,2,0,0,0,1.395.5,2.437,2.437,0,0,0,2.039-.945l1.109,1.242a3.389,3.389,0,0,1-1.375,1.121A4.511,4.511,0,0,1,73.668,17.156Zm-.258-6.945a1.411,1.411,0,0,0-1.09.455,2.357,2.357,0,0,0-.535,1.3h3.141v-.181a1.681,1.681,0,0,0-.406-1.165A1.456,1.456,0,0,0,73.41,10.211Zm7.133-1.664.07.945a2.971,2.971,0,0,1,2.43-1.1A2.255,2.255,0,0,1,85.285,9.68a2.9,2.9,0,0,1,2.539-1.289,2.521,2.521,0,0,1,2.047.8,3.681,3.681,0,0,1,.672,2.41V17H88.277V11.609A1.61,1.61,0,0,0,88,10.559,1.246,1.246,0,0,0,87,10.227,1.409,1.409,0,0,0,85.6,11.2l.008,5.8H83.348V11.617a1.59,1.59,0,0,0-.289-1.062,1.259,1.259,0,0,0-.984-.328,1.463,1.463,0,0,0-1.391.8V17H78.426V8.547ZM91.926,12.7a5.013,5.013,0,0,1,.484-2.242A3.546,3.546,0,0,1,93.8,8.93a4.069,4.069,0,0,1,2.113-.539,3.849,3.849,0,0,1,2.793,1.047,4.2,4.2,0,0,1,1.207,2.844l.016.578a4.418,4.418,0,0,1-1.086,3.121,4.209,4.209,0,0,1-5.832,0,4.5,4.5,0,0,1-1.09-3.187Zm2.258.16a3.16,3.16,0,0,0,.453,1.843,1.628,1.628,0,0,0,2.578.008,3.457,3.457,0,0,0,.461-2.015,3.128,3.128,0,0,0-.461-1.831,1.5,1.5,0,0,0-1.3-.649,1.474,1.474,0,0,0-1.281.646A3.516,3.516,0,0,0,94.184,12.856ZM103.707,17h-2.266V5h2.266Zm1.508-4.3a5.053,5.053,0,0,1,.887-3.148,2.9,2.9,0,0,1,2.434-1.156A2.6,2.6,0,0,1,110.7,9.43l.148-.883h1.984v11.7h-2.266V16.273a2.6,2.6,0,0,1-2.047.883,2.878,2.878,0,0,1-2.406-1.172A5.3,5.3,0,0,1,105.215,12.7Zm2.258.16A3.315,3.315,0,0,0,107.9,14.7a1.363,1.363,0,0,0,1.2.634,1.518,1.518,0,0,0,1.469-.829v-3.5a1.506,1.506,0,0,0-1.453-.8,1.38,1.38,0,0,0-1.211.634A3.661,3.661,0,0,0,107.473,12.856Zm12.2,3.285a2.831,2.831,0,0,1-2.312,1.016,2.67,2.67,0,0,1-2.074-.781,3.335,3.335,0,0,1-.73-2.289V8.547h2.258v5.467q0,1.322,1.2,1.322a1.63,1.63,0,0,0,1.578-.8V8.547h2.266V17H119.73Zm7.781,1.016a4.15,4.15,0,0,1-3.027-1.141,4.054,4.054,0,0,1-1.168-3.039v-.219a5.106,5.106,0,0,1,.492-2.277,3.612,3.612,0,0,1,1.395-1.547,3.914,3.914,0,0,1,2.059-.543,3.508,3.508,0,0,1,2.73,1.094,4.444,4.444,0,0,1,1,3.1v.922h-5.383a2.1,2.1,0,0,0,.66,1.328,2,2,0,0,0,1.395.5,2.437,2.437,0,0,0,2.039-.945l1.109,1.242a3.389,3.389,0,0,1-1.375,1.121A4.511,4.511,0,0,1,127.449,17.156Zm-.258-6.945a1.411,1.411,0,0,0-1.09.455,2.357,2.357,0,0,0-.535,1.3h3.141v-.181a1.681,1.681,0,0,0-.406-1.165A1.456,1.456,0,0,0,127.191,10.211Z" transform="translate(566 3607)" fill="#fff"/>
    <g id="Grupo_116569" data-name="Grupo 116569" transform="translate(523 3496.501)">
      <path id="Trazado_238003" data-name="Trazado 238003" d="M342.812,1340.122H574.479a2.334,2.334,0,0,0,2.334-2.334h0a2.334,2.334,0,0,0-2.334-2.334H342.812a2.334,2.334,0,0,0-2.334,2.334h0A2.334,2.334,0,0,0,342.812,1340.122Z" transform="translate(-340.478 -1265.554)" fill="#d4d7e3" style="mix-blend-mode: multiply;isolation: isolate"/>
      <g id="Grupo_116568" data-name="Grupo 116568" transform="translate(0.927 0)">
        <path id="Trazado_238004" data-name="Trazado 238004" d="M2548.708,1169.565h-26.389l19.284,7.36h14.209l19.285-7.36Z" transform="translate(-2513.811 -1112.904)" fill="#010101"/>
        <g id="Grupo_116530" data-name="Grupo 116530" transform="translate(120.668 54.523)">
          <path id="Trazado_238005" data-name="Trazado 238005" d="M931.357,1142.774l-1.294,5.25-.2,5.53H857.91v-10.78Z" transform="translate(-857.91 -1142.774)" fill="#36373c"/>
          <rect id="Rectángulo_42468" data-name="Rectángulo 42468" width="65.033" height="2.976" rx="1.488" transform="translate(3.468 2.571)" fill="#1e1f24"/>
          <rect id="Rectángulo_42469" data-name="Rectángulo 42469" width="65.033" height="0.893" rx="0.446" transform="translate(3.468 8.622)" fill="#1e1f24"/>
        </g>
        <g id="Grupo_116548" data-name="Grupo 116548" transform="translate(187.452 2.849)">
          <g id="Grupo_116541" data-name="Grupo 116541" transform="translate(0 13.021)">
            <path id="Trazado_238006" data-name="Trazado 238006" d="M352.813,694.9c0,3.739-.012,8.565-.012,8.565h36.772v-18c0-1.534-.907-4.381-2.339-7.636-2.377-5.4-6.2-11.922-9.722-15.417-.24-.24-.486-.5-.732-.769-.459-.5-.922-1.033-1.379-1.517-.882-.937-1.734-1.694-2.452-1.694H342.355c-.046.516-.088,1.082-.126,1.694q-.045.717-.083,1.517c-.367,7.581-.329,20.5-.425,33.253C342.733,694.9,352.084,694.9,352.813,694.9Z" transform="translate(-341.716 -658.435)" fill="#e7e7e7"/>
            <path id="Trazado_238007" data-name="Trazado 238007" d="M421.387,709a1.726,1.726,0,0,0-1.725,1.724v25.157a1.561,1.561,0,0,0,1.559,1.559l5.089.029a11.3,11.3,0,0,1,9.635,5.747,14.275,14.275,0,0,1,1.848,4.711.767.767,0,0,0,.748.622h7.119V726.885c0-3.089-7.074-17.886-12.554-17.886Z" transform="translate(-404.022 -704.963)" fill="#e7e7e7"/>
            <path id="Trazado_238008" data-name="Trazado 238008" d="M545.83,1103.448h14.279l6.49,9.511H545.961Z" transform="translate(-535.029 -1067.934)" fill="#252523"/>
            <path id="Trazado_238009" data-name="Trazado 238009" d="M531.542,1106.335a.23.23,0,0,0,.209-.222c0-.123.01-3.413.019-3.534a10.5,10.5,0,0,1,10.422-9.723c10.674-.12,10.889,7.073,10.567,8.791h2.255c.644-2.792-6.08-10.307-12.991-10.307-6.726,0-11.21,4.246-10.914,11.277,0,.117.071,3.37.079,3.488s.208.242.336.231Z" transform="translate(-522.311 -1056.793)" fill="#19242c"/>
            <path id="Trazado_238010" data-name="Trazado 238010" d="M325.014,1147.715l18.715.024a1.016,1.016,0,0,1,1.016,1.016v8.33a1.016,1.016,0,0,1-1.016,1.016H327.47Z" transform="translate(-295.554 -1108.668)" fill="#3a3a3a"/>
            <path id="Trazado_238011" data-name="Trazado 238011" d="M541.351,1076.65s4.437.048,9.325-.024c7.114-.1,10.554,9.534,10.7,11.651.141,1.992.327,4.407.246,4.407h-1.938c-.079,0-.362-2.766-.542-4.389-.154-1.387-2.728-8.472-9.651-8.584-3.777-.061-20.785,0-20.785,0,0-.709.022-2.247,0-3.068Z" transform="translate(-528.71 -1043.251)" fill="#2c3134"/>
            <g id="Grupo_116533" data-name="Grupo 116533" transform="translate(9.875 36.937)">
              <g id="Grupo_116532" data-name="Grupo 116532" transform="translate(0 0)">
                <ellipse id="Elipse_5525" data-name="Elipse 5525" cx="9.551" cy="9.755" rx="9.551" ry="9.755" transform="translate(0.531 0.326)" fill="#483e3f"/>
                <ellipse id="Elipse_5526" data-name="Elipse 5526" cx="9.151" cy="9.346" rx="9.151" ry="9.346" transform="translate(0.93 0.735)" fill="#2a2a2a"/>
                <g id="Grupo_116531" data-name="Grupo 116531">
                  <circle id="Elipse_5527" data-name="Elipse 5527" cx="7.128" cy="7.128" r="7.128" transform="translate(10.081 20.162) rotate(-135)" fill="#dfe0e4"/>
                  <circle id="Elipse_5528" data-name="Elipse 5528" cx="6.706" cy="6.706" r="6.706" transform="translate(10.081 19.565) rotate(-135)" fill="#88898d"/>
                  <circle id="Elipse_5529" data-name="Elipse 5529" cx="6.378" cy="6.378" r="6.378" transform="translate(10.081 19.101) rotate(-135)" fill="#dddee2"/>
                  <ellipse id="Elipse_5530" data-name="Elipse 5530" cx="5.698" cy="5.698" rx="5.698" ry="5.698" transform="matrix(-0.352, -0.936, 0.936, -0.352, 6.751, 17.419)" fill="#8e8f93"/>
                  <circle id="Elipse_5531" data-name="Elipse 5531" cx="4.742" cy="4.742" r="4.742" transform="translate(10.081 16.787) rotate(-135)" fill="#d9d9db"/>
                  <circle id="Elipse_5532" data-name="Elipse 5532" cx="2.532" cy="2.532" r="2.532" transform="translate(10.081 13.662) rotate(-135)" fill="#0b0400"/>
                  <path id="Trazado_238012" data-name="Trazado 238012" d="M668.9,1226.94a1.791,1.791,0,1,0,1.791-1.791A1.791,1.791,0,0,0,668.9,1226.94Z" transform="translate(-660.614 -1216.859)" fill="#6f7573"/>
                  <path id="Trazado_238013" data-name="Trazado 238013" d="M677.729,1235.06a1.086,1.086,0,1,0,1.087-1.086A1.087,1.087,0,0,0,677.729,1235.06Z" transform="translate(-668.734 -1224.979)" fill="#565251"/>
                  <path id="Trazado_238014" data-name="Trazado 238014" d="M683.312,1195.733a.641.641,0,1,0,.641-.641A.641.641,0,0,0,683.312,1195.733Z" transform="translate(-673.872 -1189.2)" fill="#0b0400"/>
                  <path id="Trazado_238015" data-name="Trazado 238015" d="M654.88,1205.723a.641.641,0,1,0,.9-.079A.641.641,0,0,0,654.88,1205.723Z" transform="translate(-643.009 -1198.772)" fill="#0b0400"/>
                  <path id="Trazado_238016" data-name="Trazado 238016" d="M640.05,1231.844a.641.641,0,1,0,.742.52A.641.641,0,0,0,640.05,1231.844Z" transform="translate(-626.586 -1223.01)" fill="#0b0400"/>
                  <path id="Trazado_238017" data-name="Trazado 238017" d="M645.764,1261.874a.641.641,0,1,0,.235.876A.641.641,0,0,0,645.764,1261.874Z" transform="translate(-632.289 -1250.573)" fill="#0b0400"/>
                  <path id="Trazado_238018" data-name="Trazado 238018" d="M669.345,1281.76a.641.641,0,1,0-.383.821A.641.641,0,0,0,669.345,1281.76Z" transform="translate(-657.448 -1268.564)" fill="#0b0400"/>
                  <path id="Trazado_238019" data-name="Trazado 238019" d="M699.761,1282.2a.641.641,0,1,0-.822.383A.641.641,0,0,0,699.761,1282.2Z" transform="translate(-690.291 -1268.564)" fill="#0b0400"/>
                  <path id="Trazado_238020" data-name="Trazado 238020" d="M722.78,1262.984a.641.641,0,1,0-.876-.234A.641.641,0,0,0,722.78,1262.984Z" transform="translate(-715.452 -1250.573)" fill="#0b0400"/>
                  <path id="Trazado_238021" data-name="Trazado 238021" d="M727.63,1233.107a.641.641,0,1,0-.52-.742A.641.641,0,0,0,727.63,1233.107Z" transform="translate(-721.154 -1223.01)" fill="#0b0400"/>
                  <path id="Trazado_238022" data-name="Trazado 238022" d="M712.043,1206.547a.641.641,0,1,0,.079-.9A.641.641,0,0,0,712.043,1206.547Z" transform="translate(-704.734 -1198.772)" fill="#0b0400"/>
                </g>
              </g>
            </g>
            <g id="Grupo_116534" data-name="Grupo 116534" transform="translate(33.541 40.311)">
              <path id="Trazado_238023" data-name="Trazado 238023" d="M374.8,1163.555H386.48v8.783H374.8Z" transform="translate(-374.804 -1163.555)" fill="#010100"/>
              <path id="Trazado_238024" data-name="Trazado 238024" d="M374.8,1244.564H386.48v2.318H374.8Z" transform="translate(-374.804 -1238.099)" fill="#666"/>
              <rect id="Rectángulo_42470" data-name="Rectángulo 42470" width="11.677" height="3.264" transform="translate(0)" fill="#3a3a3a"/>
            </g>
            <g id="Grupo_116540" data-name="Grupo 116540" transform="translate(19.956 3.813)">
              <g id="Grupo_116538" data-name="Grupo 116538" transform="translate(1.518 1.832)">
                <path id="Trazado_238025" data-name="Trazado 238025" d="M463.784,743.5a1.364,1.364,0,0,1-.119.2,1.252,1.252,0,0,1-1.387.551l-.4-.112-5.452-1.54-1.747-.492L452,741.341l-2.611-.737a5.262,5.262,0,0,1-3.451-5.251v-4.9a1.477,1.477,0,0,1,.095-.526,1.074,1.074,0,0,1,.968-.757h8.739c1.114,0,3.206,1.836,5.747,6.982l.044.09c.393.8.742,1.569,1.05,2.288.208.486.4.943.562,1.375l0,0c.312.792.56,1.484.751,2.044.007.025.017.049.022.074A1.935,1.935,0,0,1,463.784,743.5Z" transform="translate(-445.936 -729.175)" fill="#64afe0"/>
                <g id="Grupo_116535" data-name="Grupo 116535" transform="translate(0)" opacity="0.2">
                  <path id="Trazado_238026" data-name="Trazado 238026" d="M602.427,797.249l-2.611-.737a5.262,5.262,0,0,1-3.451-5.251v-1.33Z" transform="translate(-596.365 -785.082)" fill="#fff"/>
                  <path id="Trazado_238027" data-name="Trazado 238027" d="M551.326,751.316l-1.747-.492-8.747-10.658v-.985a1.477,1.477,0,0,1,.095-.526Z" transform="translate(-540.832 -737.898)" fill="#fff"/>
                  <path id="Trazado_238028" data-name="Trazado 238028" d="M457.715,743.5l-11.779-14.322h1.346l10.566,12.856A1.935,1.935,0,0,1,457.715,743.5Z" transform="translate(-439.867 -729.175)" fill="#fff"/>
                  <path id="Trazado_238029" data-name="Trazado 238029" d="M465.556,739.909l-8.814-10.734h1.374l5.784,6.982.044.09c.393.8.742,1.569,1.05,2.288C465.2,739.02,465.391,739.477,465.556,739.909Z" transform="translate(-448.351 -729.175)" fill="#fff"/>
                </g>
                <g id="Grupo_116537" data-name="Grupo 116537" transform="translate(15.02 7.236)">
                  <path id="Trazado_238030" data-name="Trazado 238030" d="M447.718,847.455a1.252,1.252,0,0,1-1.387.551l-.4-.112.436-5.959s.109.137.262.36c.588,1.372,1.022,2.556,1.317,3.423A1.937,1.937,0,0,1,447.718,847.455Z" transform="translate(-445.009 -840.172)" fill="#22273a"/>
                  <path id="Trazado_238031" data-name="Trazado 238031" d="M454.617,878.168l.194-.268-1.984-2.092-.194.268Z" transform="translate(-452.298 -871.342)" fill="#3d3d3d"/>
                  <path id="Trazado_238032" data-name="Trazado 238032" d="M453.4,864.6l.267-.152-1.24-3.168-.267.152Z" transform="translate(-451.121 -857.971)" fill="#3d3d3d"/>
                  <path id="Trazado_238033" data-name="Trazado 238033" d="M447.3,894.606a.574.574,0,1,0,.564-.681A.631.631,0,0,0,447.3,894.606Z" transform="translate(-445.492 -888.013)" fill="#4b4b4b"/>
                  <g id="Grupo_116536" data-name="Grupo 116536" transform="translate(0)">
                    <path id="Trazado_238034" data-name="Trazado 238034" d="M462.247,827.41h-1.022v-7.561h1.022c.456,0,.722,1.38.788,2.96C463.125,824.928,462.862,827.41,462.247,827.41Z" transform="translate(-461.225 -819.849)" fill="#131313"/>
                    <path id="Trazado_238035" data-name="Trazado 238035" d="M462.335,822.809a3.326,3.326,0,0,1-.9-2.454,4.227,4.227,0,0,1,.03-.506h.079C462,819.849,462.269,821.229,462.335,822.809Z" transform="translate(-460.525 -819.849)" fill="#2b2b29"/>
                  </g>
                </g>
              </g>
              <g id="Grupo_116539" data-name="Grupo 116539" transform="translate(1.335 1.611)">
                <path id="Trazado_238036" data-name="Trazado 238036" d="M461.673,741.284a2.191,2.191,0,0,0,.26-1.965,48.98,48.98,0,0,0-2.378-5.739c-2.6-5.294-4.778-7.181-5.949-7.181h-8.739a1.4,1.4,0,0,0-1.246,1.5v4.9a5.479,5.479,0,0,0,3.592,5.467l12.892,3.64a1.376,1.376,0,0,0,.374.053A1.466,1.466,0,0,0,461.673,741.284Zm-8.068-14.662c1.121,0,3.23,1.858,5.791,7.072a48.758,48.758,0,0,1,2.366,5.71,1.937,1.937,0,0,1-.23,1.737,1.251,1.251,0,0,1-1.387.55l-12.892-3.64a5.262,5.262,0,0,1-3.45-5.251v-4.9a1.189,1.189,0,0,1,1.062-1.282Z" transform="translate(-443.62 -726.4)" fill="#616161"/>
              </g>
              <path id="Trazado_238037" data-name="Trazado 238037" d="M438.783,724.324c0-1.437-1.432-5.954-3.487-10.138-1.462-2.977-4.328-7.97-7.1-7.97h-9.707a1.805,1.805,0,0,0-1.613,1.946v25.157a1.652,1.652,0,0,0,1.475,1.781l2.5.029c3.144,0,5.543,1.81,7.243,5.956h10.685Z" transform="translate(-416.879 -706.215)" fill="none" stroke="#636363" stroke-miterlimit="10" stroke-width="3.303"/>
            </g>
          </g>
          <g id="Grupo_116542" data-name="Grupo 116542" transform="translate(18.835 34.685)">
            <path id="Trazado_238038" data-name="Trazado 238038" d="M679.538,933.607v-3.129c0-.322-.178-.582-.4-.582H677.7c-.221,0-.4.261-.4.582v3.129c0,.321.179.582.4.582h1.443C679.36,934.189,679.538,933.928,679.538,933.607Z" transform="translate(-677.296 -929.896)" fill="#c2c2c2"/>
            <path id="Trazado_238039" data-name="Trazado 238039" d="M678.417,933.607v-3.129c0-.322-.178-.582-.4-.582H677.3v4.293h.722C678.239,934.189,678.417,933.928,678.417,933.607Z" transform="translate(-676.175 -929.896)" fill="#1a3327"/>
          </g>
          <g id="Grupo_116543" data-name="Grupo 116543" transform="translate(34.383 47.586)">
            <rect id="Rectángulo_42471" data-name="Rectángulo 42471" width="5.041" height="1.899" rx="0.949" transform="translate(0)" fill="#353535"/>
            <path id="Trazado_238040" data-name="Trazado 238040" d="M449.9,1094.281v1.051a.224.224,0,0,0,.224.224h4.193a.218.218,0,0,0,.14-.05.221.221,0,0,0,.084-.174v-1.051a.224.224,0,0,0-.224-.224h-4.193a.2.2,0,0,0-.071.013A.223.223,0,0,0,449.9,1094.281Z" transform="translate(-449.702 -1093.857)" fill="#b3490f"/>
            <path id="Trazado_238041" data-name="Trazado 238041" d="M449.9,1094.069l4.4,1.436a.221.221,0,0,0,.084-.174v-1.051a.224.224,0,0,0-.224-.224h-4.193A.2.2,0,0,0,449.9,1094.069Z" transform="translate(-449.549 -1093.857)" fill="#fff" opacity="0.2"/>
          </g>
          <g id="Grupo_116545" data-name="Grupo 116545" transform="translate(44.591 44.699)">
            <rect id="Rectángulo_42472" data-name="Rectángulo 42472" width="3.593" height="6.033" rx="1.797" transform="translate(0)" fill="#9fa9ab"/>
            <path id="Trazado_238042" data-name="Trazado 238042" d="M343.481,1058.121v5.173a.237.237,0,0,1-.242.228h-2.681a.237.237,0,0,1-.242-.228v-5.173a.261.261,0,0,1,0-.045v0a.241.241,0,0,1,.237-.181h2.681A.237.237,0,0,1,343.481,1058.121Z" transform="translate(-340.101 -1057.691)" fill="#f0f0f0"/>
            <path id="Trazado_238043" data-name="Trazado 238043" d="M343.481,1077.042v2.684a.237.237,0,0,1-.242.228H341.65c-.439-.3-.888-.584-1.335-.869V1075.8a4.135,4.135,0,0,0,.739.029,1.9,1.9,0,0,0,.389-.067c.109-.034.551.056.665.031.021.018.045.034.067.052l.01.007c.083.063.161.123.235.184.095.076.183.15.268.222.121.1.233.2.337.3A5.339,5.339,0,0,1,343.481,1077.042Z" transform="translate(-340.101 -1074.123)" fill="#8a9295"/>
            <g id="Grupo_116544" data-name="Grupo 116544" transform="translate(0.214 1.059)">
              <rect id="Rectángulo_42473" data-name="Rectángulo 42473" width="1.871" height="0.369" transform="translate(0 0.289)" fill="#606465"/>
              <rect id="Rectángulo_42474" data-name="Rectángulo 42474" width="2.71" height="0.828" transform="translate(0 0.658)" fill="#9fa9ab"/>
              <path id="Trazado_238044" data-name="Trazado 238044" d="M341.612,1068.641v.47h-1.3v-.474h1.292Z" transform="translate(-338.446 -1068.637)" fill="#656766"/>
              <rect id="Rectángulo_42475" data-name="Rectángulo 42475" width="1.297" height="0.374" transform="translate(1.869 0.475)" fill="#fefefe"/>
              <rect id="Rectángulo_42476" data-name="Rectángulo 42476" width="1.297" height="0.222" transform="translate(1.869 0.848)" fill="#656668"/>
            </g>
            <path id="Trazado_238045" data-name="Trazado 238045" d="M370.452,1063.809a2.145,2.145,0,0,1-.826-.112v-3.458a.259.259,0,0,1,0-.045,1.089,1.089,0,0,1,.4.148,1,1,0,0,1,.318.815c0,.018,0,.036,0,.054,0,.1.007.2.012.3v.016c.009.278.021.553.033.828C370.414,1062.84,370.433,1063.323,370.452,1063.809Z" transform="translate(-369.412 -1059.809)" fill="#cccacb"/>
            <path id="Trazado_238046" data-name="Trazado 238046" d="M343.481,1115.789v.781a.237.237,0,0,1-.242.228h-2.681a.236.236,0,0,1-.242-.228v-.781Z" transform="translate(-340.101 -1110.967)" fill="#cccacb"/>
          </g>
          <g id="Grupo_116546" data-name="Grupo 116546" transform="translate(34.838 17.001)">
            <path id="Trazado_238047" data-name="Trazado 238047" d="M381.714,723.723c-.933.128-2.028.163-2.3-.3-1.052-1.777-5.431-10.19-8.13-13.183a1.236,1.236,0,0,1,.548-1.865l.161-.074c.056.054.11.11.163.166,3.414,3.465,7.078,9.7,9.426,14.951Z" transform="translate(-371.034 -708.306)" fill="#616161"/>
            <path id="Trazado_238048" data-name="Trazado 238048" d="M382.946,725.333c-.316.036-.795.092-.947.092-.772,0-.938-.181-.972-.237-.215-.36-.571-1.005-1.023-1.822-1.737-3.145-4.974-9-7.141-11.405a.727.727,0,0,1-.157-.645,2.5,2.5,0,0,1,.813-.933C376.933,713.847,380.6,720.077,382.946,725.333Z" transform="translate(-372.398 -710.216)" fill="#64afe0"/>
          </g>
          <rect id="Rectángulo_42477" data-name="Rectángulo 42477" width="10.47" height="10.47" transform="translate(1.847 33.782)" fill="#e7e7e7"/>
          <rect id="Rectángulo_42478" data-name="Rectángulo 42478" width="12.571" height="10.715" rx="5.358" transform="translate(4.52 32.989)" fill="#dcdee0"/>
          <rect id="Rectángulo_42479" data-name="Rectángulo 42479" width="9.75" height="11.606" rx="4.875" transform="translate(16.608 33.472) rotate(90)" fill="#e7e7e7"/>
          <g id="Grupo_116547" data-name="Grupo 116547" transform="translate(4.52 18.626)">
            <path id="Trazado_238049" data-name="Trazado 238049" d="M723.712,808.355v.416a.269.269,0,0,0,.278.259h11.076a.269.269,0,0,0,.278-.259v-.416h.636v.714a.574.574,0,0,1-.594.552H723.67a.574.574,0,0,1-.594-.552v-.714Z" transform="translate(-723.076 -801.995)" fill="#c1c1c1"/>
            <path id="Trazado_238050" data-name="Trazado 238050" d="M723.712,788.433v.416a.269.269,0,0,0,.278.259h11.076a.269.269,0,0,0,.278-.259v-.416h.636v.714a.574.574,0,0,1-.594.552H723.67a.574.574,0,0,1-.594-.552v-.714Z" transform="translate(-723.076 -783.663)" fill="#c1c1c1"/>
            <path id="Trazado_238051" data-name="Trazado 238051" d="M723.712,768.51v.416a.269.269,0,0,0,.278.259h11.076a.269.269,0,0,0,.278-.259v-.416h.636v.714a.574.574,0,0,1-.594.552H723.67a.574.574,0,0,1-.594-.552v-.714Z" transform="translate(-723.076 -765.33)" fill="#c1c1c1"/>
            <path id="Trazado_238052" data-name="Trazado 238052" d="M723.712,748.588V749a.269.269,0,0,0,.278.259h11.076a.269.269,0,0,0,.278-.259v-.416h.636v.714a.574.574,0,0,1-.594.552H723.67a.574.574,0,0,1-.594-.552v-.714Z" transform="translate(-723.076 -746.998)" fill="#c1c1c1"/>
            <path id="Trazado_238053" data-name="Trazado 238053" d="M723.712,728.665v.416a.269.269,0,0,0,.278.259h11.076a.269.269,0,0,0,.278-.259v-.416h.636v.714a.574.574,0,0,1-.594.552H723.67a.574.574,0,0,1-.594-.552v-.714Z" transform="translate(-723.076 -728.665)" fill="#c1c1c1"/>
          </g>
          <path id="Trazado_238054" data-name="Trazado 238054" d="M502.026,681.183h34.635c-.459-.5-.922-1.033-1.379-1.517H502.109Q502.064,680.383,502.026,681.183Z" transform="translate(-501.596 -664.95)" fill="#3e403d"/>
          <path id="Trazado_238055" data-name="Trazado 238055" d="M593.864,507.258H564.512l1.066-11.986C580.553,495.272,593.864,507.258,593.864,507.258Z" transform="translate(-563.786 -495.272)" fill="#e7e7e7"/>
          <rect id="Rectángulo_42480" data-name="Rectángulo 42480" width="27.842" height="1.035" transform="translate(1.792 11.986)" fill="#c1c1c1"/>
          <path id="Trazado_238056" data-name="Trazado 238056" d="M782.419,1114.859l9.786-.02-3.748,6.509.31,6.607h-6.347Z" transform="translate(-779.517 -1065.395)" fill="#19242c"/>
        </g>
        <g id="Grupo_116550" data-name="Grupo 116550" transform="translate(41.406 50.297)">
          <g id="Grupo_116549" data-name="Grupo 116549" transform="translate(0)">
            <path id="Trazado_238057" data-name="Trazado 238057" d="M2625.149,1089.818l-10.894,8.4v-4.7l3.648-3.7Z" transform="translate(-2612.606 -1089.818)" fill="#43474a"/>
            <rect id="Rectángulo_42481" data-name="Rectángulo 42481" width="0.8" height="5.372" transform="translate(0.85 3.298)" fill="#43474a"/>
            <rect id="Rectángulo_42482" data-name="Rectángulo 42482" width="0.85" height="0.612" transform="translate(0 3.298)" fill="#43474a"/>
            <rect id="Rectángulo_42483" data-name="Rectángulo 42483" width="0.85" height="0.525" transform="translate(0 8.146)" fill="#43474a"/>
          </g>
        </g>
        <rect id="Rectángulo_42484" data-name="Rectángulo 42484" width="106.102" height="5.951" transform="translate(3.03 53.615)" fill="#010101"/>
        <rect id="Rectángulo_42485" data-name="Rectángulo 42485" width="106.102" height="6.492" transform="translate(3.03 47.123)" fill="#252e33"/>
        <path id="Trazado_238058" data-name="Trazado 238058" d="M2594.84,1116.459c-2.3-2.339-1.826-13.78-6.32-13.78h-37.614c-4.486,0-4.064,11.471-6.331,13.78-.073.074.044.2.148.2h.57c3.585,0-.619-12.51,12.8-12.51,1.993,0,24.12.212,25.785.212,8.156,0,7.67,12.3,9.923,12.3h.951A.117.117,0,0,0,2594.84,1116.459Z" transform="translate(-2535.362 -1051.356)" fill="#19242c"/>
        <g id="Grupo_116552" data-name="Grupo 116552" transform="translate(0.023 50.297)">
          <g id="Grupo_116551" data-name="Grupo 116551" transform="translate(0)">
            <path id="Trazado_238059" data-name="Trazado 238059" d="M3143.7,1089.818l-10.894,8.4v-4.7l3.648-3.7Z" transform="translate(-3131.161 -1089.818)" fill="#43474a"/>
            <rect id="Rectángulo_42486" data-name="Rectángulo 42486" width="0.8" height="5.372" transform="translate(0.85 3.298)" fill="#43474a"/>
            <rect id="Rectángulo_42487" data-name="Rectángulo 42487" width="0.85" height="0.612" transform="translate(0 3.298)" fill="#43474a"/>
            <rect id="Rectángulo_42488" data-name="Rectángulo 42488" width="0.85" height="0.525" transform="translate(0 8.146)" fill="#43474a"/>
          </g>
        </g>
        <g id="Grupo_116553" data-name="Grupo 116553" transform="translate(0.023 0)">
          <rect id="Rectángulo_42489" data-name="Rectángulo 42489" width="181.653" height="51.323" fill="#bfbfbf"/>
          <rect id="Rectángulo_42490" data-name="Rectángulo 42490" width="44.608" height="173.556" transform="translate(177.605 3.358) rotate(90)" fill="#ebebeb"/>
        </g>
        <g id="Grupo_116556" data-name="Grupo 116556" transform="translate(13.741 52.807)">
          <g id="Grupo_116555" data-name="Grupo 116555" transform="translate(0 0)">
            <ellipse id="Elipse_5533" data-name="Elipse 5533" cx="9.551" cy="9.755" rx="9.551" ry="9.755" transform="translate(0.531 0.326)" fill="#483e3f"/>
            <ellipse id="Elipse_5534" data-name="Elipse 5534" cx="9.151" cy="9.346" rx="9.151" ry="9.346" transform="translate(0.93 0.735)" fill="#2a2a2a"/>
            <g id="Grupo_116554" data-name="Grupo 116554">
              <circle id="Elipse_5535" data-name="Elipse 5535" cx="7.128" cy="7.128" r="7.128" transform="translate(10.081 20.162) rotate(-135)" fill="#dfe0e4"/>
              <ellipse id="Elipse_5536" data-name="Elipse 5536" cx="6.706" cy="6.706" rx="6.706" ry="6.706" transform="translate(13.08 19.079) rotate(-153.435)" fill="#88898d"/>
              <circle id="Elipse_5537" data-name="Elipse 5537" cx="6.378" cy="6.378" r="6.378" transform="translate(10.081 19.101) rotate(-135)" fill="#dddee2"/>
              <ellipse id="Elipse_5538" data-name="Elipse 5538" cx="5.698" cy="5.698" rx="5.698" ry="5.698" transform="matrix(-0.352, -0.936, 0.936, -0.352, 6.751, 17.419)" fill="#8e8f93"/>
              <circle id="Elipse_5539" data-name="Elipse 5539" cx="4.742" cy="4.742" r="4.742" transform="matrix(-0.615, -0.788, 0.788, -0.615, 9.262, 16.737)" fill="#d9d9db"/>
              <path id="Trazado_238060" data-name="Trazado 238060" d="M2960.036,1218.387a2.532,2.532,0,1,0,2.532-2.532A2.532,2.532,0,0,0,2960.036,1218.387Z" transform="translate(-2952.488 -1208.306)" fill="#0b0400"/>
              <path id="Trazado_238061" data-name="Trazado 238061" d="M2969.33,1226.94a1.791,1.791,0,1,0,1.791-1.791A1.791,1.791,0,0,0,2969.33,1226.94Z" transform="translate(-2961.04 -1216.859)" fill="#6f7573"/>
              <path id="Trazado_238062" data-name="Trazado 238062" d="M2978.155,1235.06a1.086,1.086,0,1,0,1.086-1.086A1.086,1.086,0,0,0,2978.155,1235.06Z" transform="translate(-2969.161 -1224.979)" fill="#565251"/>
              <path id="Trazado_238063" data-name="Trazado 238063" d="M2983.738,1195.733a.641.641,0,1,0,.641-.641A.641.641,0,0,0,2983.738,1195.733Z" transform="translate(-2974.298 -1189.2)" fill="#0b0400"/>
              <path id="Trazado_238064" data-name="Trazado 238064" d="M2955.306,1205.723a.641.641,0,1,0,.9-.079A.641.641,0,0,0,2955.306,1205.723Z" transform="translate(-2943.435 -1198.772)" fill="#0b0400"/>
              <path id="Trazado_238065" data-name="Trazado 238065" d="M2940.477,1231.844a.641.641,0,1,0,.742.52A.641.641,0,0,0,2940.477,1231.844Z" transform="translate(-2927.012 -1223.01)" fill="#0b0400"/>
              <path id="Trazado_238066" data-name="Trazado 238066" d="M2946.19,1261.874a.641.641,0,1,0,.235.876A.641.641,0,0,0,2946.19,1261.874Z" transform="translate(-2932.715 -1250.573)" fill="#0b0400"/>
              <path id="Trazado_238067" data-name="Trazado 238067" d="M2969.771,1281.76a.641.641,0,1,0-.383.821A.641.641,0,0,0,2969.771,1281.76Z" transform="translate(-2957.875 -1268.564)" fill="#0b0400"/>
              <path id="Trazado_238068" data-name="Trazado 238068" d="M3000.187,1282.2a.641.641,0,1,0-.822.383A.641.641,0,0,0,3000.187,1282.2Z" transform="translate(-2990.717 -1268.564)" fill="#0b0400"/>
              <path id="Trazado_238069" data-name="Trazado 238069" d="M3023.206,1262.984a.641.641,0,1,0-.876-.234A.641.641,0,0,0,3023.206,1262.984Z" transform="translate(-3015.877 -1250.573)" fill="#0b0400"/>
              <path id="Trazado_238070" data-name="Trazado 238070" d="M3028.055,1233.107a.641.641,0,1,0-.52-.742A.641.641,0,0,0,3028.055,1233.107Z" transform="translate(-3021.58 -1223.01)" fill="#0b0400"/>
              <path id="Trazado_238071" data-name="Trazado 238071" d="M3012.469,1206.547a.641.641,0,1,0,.079-.9A.641.641,0,0,0,3012.469,1206.547Z" transform="translate(-3005.16 -1198.772)" fill="#0b0400"/>
            </g>
          </g>
        </g>
        <g id="Grupo_116559" data-name="Grupo 116559" transform="translate(34.784 52.807)">
          <g id="Grupo_116558" data-name="Grupo 116558" transform="translate(0 0)">
            <ellipse id="Elipse_5540" data-name="Elipse 5540" cx="9.551" cy="9.755" rx="9.551" ry="9.755" transform="translate(0.531 0.326)" fill="#483e3f"/>
            <ellipse id="Elipse_5541" data-name="Elipse 5541" cx="9.151" cy="9.346" rx="9.151" ry="9.346" transform="translate(0.93 0.735)" fill="#2a2a2a"/>
            <g id="Grupo_116557" data-name="Grupo 116557">
              <circle id="Elipse_5542" data-name="Elipse 5542" cx="7.128" cy="7.128" r="7.128" transform="translate(10.081 20.162) rotate(-135)" fill="#dfe0e4"/>
              <ellipse id="Elipse_5543" data-name="Elipse 5543" cx="6.706" cy="6.706" rx="6.706" ry="6.706" transform="matrix(-0.891, -0.453, 0.453, -0.891, 13.018, 19.099)" fill="#88898d"/>
              <ellipse id="Elipse_5544" data-name="Elipse 5544" cx="6.378" cy="6.378" rx="6.378" ry="6.378" transform="translate(13.024 18.607) rotate(-154.045)" fill="#dddee2"/>
              <ellipse id="Elipse_5545" data-name="Elipse 5545" cx="5.698" cy="5.698" rx="5.698" ry="5.698" transform="matrix(-0.455, -0.891, 0.891, -0.455, 7.596, 17.746)" fill="#8e8f93"/>
              <ellipse id="Elipse_5546" data-name="Elipse 5546" cx="4.742" cy="4.742" rx="4.742" ry="4.742" transform="translate(9.215 16.731) rotate(-127.579)" fill="#d9d9db"/>
              <path id="Trazado_238072" data-name="Trazado 238072" d="M2696.354,1218.387a2.532,2.532,0,1,0,2.532-2.532A2.532,2.532,0,0,0,2696.354,1218.387Z" transform="translate(-2688.805 -1208.306)" fill="#0b0400"/>
              <path id="Trazado_238073" data-name="Trazado 238073" d="M2705.649,1226.94a1.791,1.791,0,1,0,1.791-1.791A1.791,1.791,0,0,0,2705.649,1226.94Z" transform="translate(-2697.359 -1216.859)" fill="#6f7573"/>
              <path id="Trazado_238074" data-name="Trazado 238074" d="M2714.472,1235.06a1.087,1.087,0,1,0,1.087-1.086A1.086,1.086,0,0,0,2714.472,1235.06Z" transform="translate(-2705.478 -1224.979)" fill="#565251"/>
              <path id="Trazado_238075" data-name="Trazado 238075" d="M2720.056,1195.733a.641.641,0,1,0,.641-.641A.641.641,0,0,0,2720.056,1195.733Z" transform="translate(-2710.616 -1189.2)" fill="#0b0400"/>
              <path id="Trazado_238076" data-name="Trazado 238076" d="M2691.624,1205.723a.641.641,0,1,0,.9-.079A.641.641,0,0,0,2691.624,1205.723Z" transform="translate(-2679.753 -1198.772)" fill="#0b0400"/>
              <path id="Trazado_238077" data-name="Trazado 238077" d="M2676.794,1231.844a.641.641,0,1,0,.742.52A.641.641,0,0,0,2676.794,1231.844Z" transform="translate(-2663.33 -1223.01)" fill="#0b0400"/>
              <path id="Trazado_238078" data-name="Trazado 238078" d="M2682.508,1261.874a.641.641,0,1,0,.235.876A.641.641,0,0,0,2682.508,1261.874Z" transform="translate(-2669.033 -1250.573)" fill="#0b0400"/>
              <path id="Trazado_238079" data-name="Trazado 238079" d="M2706.089,1281.76a.641.641,0,1,0-.383.821A.641.641,0,0,0,2706.089,1281.76Z" transform="translate(-2694.192 -1268.564)" fill="#0b0400"/>
              <path id="Trazado_238080" data-name="Trazado 238080" d="M2736.5,1282.2a.641.641,0,1,0-.822.383A.641.641,0,0,0,2736.5,1282.2Z" transform="translate(-2727.035 -1268.564)" fill="#0b0400"/>
              <path id="Trazado_238081" data-name="Trazado 238081" d="M2759.524,1262.984a.641.641,0,1,0-.875-.234A.641.641,0,0,0,2759.524,1262.984Z" transform="translate(-2752.195 -1250.573)" fill="#0b0400"/>
              <path id="Trazado_238082" data-name="Trazado 238082" d="M2764.374,1233.107a.641.641,0,1,0-.52-.742A.641.641,0,0,0,2764.374,1233.107Z" transform="translate(-2757.899 -1223.01)" fill="#0b0400"/>
              <path id="Trazado_238083" data-name="Trazado 238083" d="M2748.787,1206.547a.641.641,0,1,0,.079-.9A.641.641,0,0,0,2748.787,1206.547Z" transform="translate(-2741.478 -1198.772)" fill="#0b0400"/>
            </g>
          </g>
        </g>
        <rect id="Rectángulo_42491" data-name="Rectángulo 42491" width="0.895" height="3.134" transform="translate(0 54.836)" fill="#f59d00"/>
        <path id="Trazado_238084" data-name="Trazado 238084" d="M1499.5,1102.679c6.648.058,11.069,4.037,10.775,10.6-.005.109-.071,3.167-.079,3.278s-.209.228-.337.217l-.019,0a.222.222,0,0,1-.209-.209c0-.116-.01-3.207-.019-3.321-.366-5-4.727-8.924-10.112-9.128-5.385.2-9.746,4.126-10.112,9.128-.008.115-.015,3.206-.019,3.321a.222.222,0,0,1-.209.209l-.02,0c-.128.01-.328-.1-.337-.217s-.074-3.168-.079-3.278C1488.431,1106.716,1492.851,1102.737,1499.5,1102.679Z" transform="translate(-1366.514 -1051.356)" fill="#19242c"/>
        <g id="Grupo_116562" data-name="Grupo 116562" transform="translate(122.91 52.807)">
          <g id="Grupo_116561" data-name="Grupo 116561" transform="translate(0 0)">
            <ellipse id="Elipse_5547" data-name="Elipse 5547" cx="9.551" cy="9.755" rx="9.551" ry="9.755" transform="translate(0.531 0.326)" fill="#483e3f"/>
            <ellipse id="Elipse_5548" data-name="Elipse 5548" cx="9.151" cy="9.346" rx="9.151" ry="9.346" transform="translate(0.93 0.735)" fill="#2a2a2a"/>
            <g id="Grupo_116560" data-name="Grupo 116560">
              <circle id="Elipse_5549" data-name="Elipse 5549" cx="7.128" cy="7.128" r="7.128" transform="translate(10.081 20.162) rotate(-135)" fill="#dfe0e4"/>
              <circle id="Elipse_5550" data-name="Elipse 5550" cx="6.706" cy="6.706" r="6.706" transform="translate(10.081 19.565) rotate(-135)" fill="#88898d"/>
              <circle id="Elipse_5551" data-name="Elipse 5551" cx="6.378" cy="6.378" r="6.378" transform="translate(10.081 19.101) rotate(-135)" fill="#dddee2"/>
              <ellipse id="Elipse_5552" data-name="Elipse 5552" cx="5.698" cy="5.698" rx="5.698" ry="5.698" transform="matrix(-0.352, -0.936, 0.936, -0.352, 6.751, 17.419)" fill="#8e8f93"/>
              <ellipse id="Elipse_5553" data-name="Elipse 5553" cx="4.742" cy="4.742" rx="4.742" ry="4.742" transform="matrix(-0.851, -0.526, 0.526, -0.851, 11.622, 16.608)" fill="#d9d9db"/>
              <ellipse id="Elipse_5554" data-name="Elipse 5554" cx="2.532" cy="2.532" rx="2.532" ry="2.532" transform="translate(11.452 13.39) rotate(-157.5)" fill="#0b0400"/>
              <path id="Trazado_238085" data-name="Trazado 238085" d="M1601.381,1226.94a1.791,1.791,0,1,0,1.791-1.791A1.791,1.791,0,0,0,1601.381,1226.94Z" transform="translate(-1593.09 -1216.859)" fill="#6f7573"/>
              <path id="Trazado_238086" data-name="Trazado 238086" d="M1610.206,1235.06a1.086,1.086,0,1,0,1.087-1.086A1.086,1.086,0,0,0,1610.206,1235.06Z" transform="translate(-1601.211 -1224.979)" fill="#565251"/>
              <path id="Trazado_238087" data-name="Trazado 238087" d="M1615.789,1195.733a.641.641,0,1,0,.641-.641A.641.641,0,0,0,1615.789,1195.733Z" transform="translate(-1606.349 -1189.2)" fill="#0b0400"/>
              <path id="Trazado_238088" data-name="Trazado 238088" d="M1587.357,1205.723a.641.641,0,1,0,.9-.079A.641.641,0,0,0,1587.357,1205.723Z" transform="translate(-1575.486 -1198.772)" fill="#0b0400"/>
              <path id="Trazado_238089" data-name="Trazado 238089" d="M1572.528,1231.844a.641.641,0,1,0,.742.52A.641.641,0,0,0,1572.528,1231.844Z" transform="translate(-1559.063 -1223.01)" fill="#0b0400"/>
              <path id="Trazado_238090" data-name="Trazado 238090" d="M1578.241,1261.874a.641.641,0,1,0,.235.876A.641.641,0,0,0,1578.241,1261.874Z" transform="translate(-1564.766 -1250.573)" fill="#0b0400"/>
              <path id="Trazado_238091" data-name="Trazado 238091" d="M1601.822,1281.76a.641.641,0,1,0-.383.821A.641.641,0,0,0,1601.822,1281.76Z" transform="translate(-1589.925 -1268.564)" fill="#0b0400"/>
              <path id="Trazado_238092" data-name="Trazado 238092" d="M1632.238,1282.2a.641.641,0,1,0-.822.383A.641.641,0,0,0,1632.238,1282.2Z" transform="translate(-1622.768 -1268.564)" fill="#0b0400"/>
              <path id="Trazado_238093" data-name="Trazado 238093" d="M1655.257,1262.984a.641.641,0,1,0-.876-.234A.641.641,0,0,0,1655.257,1262.984Z" transform="translate(-1647.928 -1250.573)" fill="#0b0400"/>
              <path id="Trazado_238094" data-name="Trazado 238094" d="M1660.106,1233.107a.641.641,0,1,0-.52-.742A.641.641,0,0,0,1660.106,1233.107Z" transform="translate(-1653.631 -1223.01)" fill="#0b0400"/>
              <path id="Trazado_238095" data-name="Trazado 238095" d="M1644.52,1206.547a.641.641,0,1,0,.079-.9A.641.641,0,0,0,1644.52,1206.547Z" transform="translate(-1637.211 -1198.772)" fill="#0b0400"/>
            </g>
          </g>
        </g>
        <g id="Grupo_116563" data-name="Grupo 116563" transform="translate(157.051 51.323)">
          <rect id="Rectángulo_42492" data-name="Rectángulo 42492" width="11.733" height="1.828" transform="translate(0)" fill="#19242c"/>
          <rect id="Rectángulo_42493" data-name="Rectángulo 42493" width="7.469" height="1.371" transform="translate(2.095 1.828)" fill="#19242c"/>
        </g>
        <g id="Grupo_116564" data-name="Grupo 116564" transform="translate(149.362 54.758)">
          <rect id="Rectángulo_42494" data-name="Rectángulo 42494" width="26.696" height="11.832" rx="5.916" fill="#e1e6eb"/>
          <rect id="Rectángulo_42495" data-name="Rectángulo 42495" width="1.109" height="11.832" transform="translate(22.185)" fill="#36373c"/>
          <rect id="Rectángulo_42496" data-name="Rectángulo 42496" width="1.109" height="11.832" transform="translate(15.788)" fill="#36373c"/>
          <rect id="Rectángulo_42497" data-name="Rectángulo 42497" width="1.109" height="11.832" transform="translate(9.392)" fill="#36373c"/>
          <rect id="Rectángulo_42498" data-name="Rectángulo 42498" width="1.109" height="11.832" transform="translate(2.995)" fill="#36373c"/>
        </g>
        <g id="Grupo_116565" data-name="Grupo 116565" transform="translate(177.548 54.758)">
          <path id="Rectángulo_42499" data-name="Rectángulo 42499" d="M0,0H12.337a0,0,0,0,1,0,0V5.626a6.169,6.169,0,0,1-6.169,6.169h0A6.169,6.169,0,0,1,0,5.626V0A0,0,0,0,1,0,0Z" transform="translate(0)" fill="#e3e5e8"/>
          <path id="Rectángulo_42500" data-name="Rectángulo 42500" d="M2.366,0H3.55A2.366,2.366,0,0,1,5.916,2.366v0a0,0,0,0,1,0,0H0a0,0,0,0,1,0,0v0A2.366,2.366,0,0,1,2.366,0Z" transform="translate(4.942 9.429)" fill="#2e2e2c"/>
        </g>
        <rect id="Rectángulo_42501" data-name="Rectángulo 42501" width="0.98" height="3.215" transform="translate(119.688 54.523)" fill="#ff3f0a"/>
        <g id="Grupo_116566" data-name="Grupo 116566" transform="translate(99.045 59.55)">
          <rect id="Rectángulo_42502" data-name="Rectángulo 42502" width="5.018" height="4.926" transform="translate(1.749)" fill="#252e33"/>
          <rect id="Rectángulo_42503" data-name="Rectángulo 42503" width="3.71" height="3.071" transform="translate(2.402 4.805)" fill="#010101"/>
          <rect id="Rectángulo_42504" data-name="Rectángulo 42504" width="8.515" height="0.973" transform="translate(0 7.876)" fill="#252e33"/>
        </g>
        <g id="Grupo_116567" data-name="Grupo 116567" transform="translate(60.103 51.355)">
          <rect id="Rectángulo_42505" data-name="Rectángulo 42505" width="0.973" height="7.543" transform="translate(53.226)" fill="#c2cad1"/>
          <rect id="Rectángulo_42506" data-name="Rectángulo 42506" width="0.973" height="7.543" transform="translate(27.922)" fill="#c2cad1"/>
          <rect id="Rectángulo_42507" data-name="Rectángulo 42507" width="0.973" height="7.543" transform="translate(2.479)" fill="#c2cad1"/>
          <rect id="Rectángulo_42508" data-name="Rectángulo 42508" width="56.621" height="3.069" transform="translate(0 7.543)" fill="#e0e4e8"/>
          <rect id="Rectángulo_42509" data-name="Rectángulo 42509" width="56.621" height="3.069" transform="translate(0 1.96)" fill="#e0e4e8"/>
        </g>
      </g>
    </g>
  </g>
</svg>
