<svg xmlns="http://www.w3.org/2000/svg" xmlns:xlink="http://www.w3.org/1999/xlink" width="295" height="93" viewBox="0 0 295 93">
  <defs>
    <linearGradient id="linear-gradient" x1="-30.146" y1="0.5" x2="-29.146" y2="0.5" gradientUnits="objectBoundingBox">
      <stop offset="0"/>
      <stop offset="0.998" stop-color="#666"/>
    </linearGradient>
    <linearGradient id="linear-gradient-2" x1="-706.248" y1="-0.279" x2="-706.248" y2="0.737" gradientUnits="objectBoundingBox">
      <stop offset="0" stop-color="#f2f2f2"/>
      <stop offset="1" stop-color="gray"/>
    </linearGradient>
    <linearGradient id="linear-gradient-3" x1="-677.278" y1="-0.279" x2="-677.278" y2="0.737" xlink:href="#linear-gradient-2"/>
    <linearGradient id="linear-gradient-4" x1="-648.307" y1="-0.279" x2="-648.307" y2="0.737" xlink:href="#linear-gradient-2"/>
    <radialGradient id="radial-gradient" cx="0.5" cy="0.5" r="0.5" gradientTransform="matrix(-0.707, -0.707, -0.707, 0.707, -27.829, -11.527)" gradientUnits="objectBoundingBox">
      <stop offset="0.484" stop-color="#4d4d4d"/>
      <stop offset="0.66" stop-color="#8f8f8f"/>
      <stop offset="0.818" stop-color="#c4c4c4"/>
      <stop offset="0.935" stop-color="#e5e5e5"/>
      <stop offset="1" stop-color="#f2f2f2"/>
    </radialGradient>
    <radialGradient id="radial-gradient-2" cx="0.5" cy="0.5" r="0.5" gradientTransform="matrix(-1, 0, 0, 1, -46.112, 0)" gradientUnits="objectBoundingBox">
      <stop offset="0" stop-color="gray"/>
      <stop offset="1" stop-color="#f2f2f2"/>
    </radialGradient>
    <linearGradient id="linear-gradient-5" x1="-39.094" y1="0.5" x2="-38.094" y2="0.5" gradientTransform="matrix(1, 0, 0, 1, 0, 0)" xlink:href="#radial-gradient-2"/>
    <radialGradient id="radial-gradient-3" cx="0.5" cy="0.5" r="0.5" gradientTransform="matrix(-0.707, -0.707, -0.707, 0.707, -56.807, -23.53)" xlink:href="#radial-gradient"/>
    <radialGradient id="radial-gradient-4" cx="0.5" cy="0.5" r="0.5" gradientTransform="matrix(-1, 0, 0, 1, -93.13, 0)" xlink:href="#radial-gradient-2"/>
    <linearGradient id="linear-gradient-6" x1="-78.099" y1="0.5" x2="-77.099" y2="0.5" gradientTransform="matrix(1, 0, 0, 1, 0, 0)" xlink:href="#radial-gradient-2"/>
  </defs>
  <g id="Grupo_123171" data-name="Grupo 123171" transform="translate(-810 -4715)">
    <rect id="Rectángulo_42531" data-name="Rectángulo 42531" width="295" height="93" transform="translate(810 4715)" fill="#28acd3" opacity="0.25"/>
    <g id="Grupo_122660" data-name="Grupo 122660" transform="translate(7526.452 11695.123)">
      <g id="Grupo_122479" data-name="Grupo 122479" transform="translate(-7785.657 -6933.91)">
        <path id="Trazado_247073" data-name="Trazado 247073" d="M1168.642-20.608h13.417v2.32h-15.738A2.321,2.321,0,0,1,1168.642-20.608Z" fill="#1ba2c1" stroke="#12263f" stroke-miterlimit="10" stroke-width="1"/>
        <g id="Grupo_122471" data-name="Grupo 122471">
          <path id="Trazado_247074" data-name="Trazado 247074" d="M1171.138-24.713h1.638a1.606,1.606,0,0,1,1.6,1.461l.239,2.644h-4.686v-2.9A1.21,1.21,0,0,1,1171.138-24.713Z" fill="#1ba2c1" stroke="#12263f" stroke-miterlimit="10" stroke-width="1"/>
          <rect id="Rectángulo_43438" data-name="Rectángulo 43438" width="0.871" height="2.643" transform="translate(1169.928 -21.349) rotate(-180)" fill="#28acd3" stroke="#12263f" stroke-miterlimit="10" stroke-width="1"/>
        </g>
        <g id="Grupo_122472" data-name="Grupo 122472">
          <path id="Trazado_247075" data-name="Trazado 247075" d="M1219.4,17.695h-62V12.262h62a2.716,2.716,0,0,1,2.716,2.716h0A2.717,2.717,0,0,1,1219.4,17.695Z" fill="#fff" stroke="#12263f" stroke-miterlimit="10" stroke-width="1"/>
          <g id="Rectángulo_43439" data-name="Rectángulo 43439" transform="translate(1187.551 13.864) rotate(-180)" fill="#12263f" stroke="#12263f" stroke-miterlimit="10" stroke-width="1">
            <rect width="24.341" height="1.673" stroke="none"/>
            <rect x="-0.5" y="-0.5" width="25.341" height="2.673" fill="none"/>
          </g>
        </g>
        <rect id="Rectángulo_43440" data-name="Rectángulo 43440" width="3.561" height="11.735" transform="translate(1137.367 24.065) rotate(-180)" fill="#fff" stroke="#12263f" stroke-miterlimit="10" stroke-width="1"/>
        <path id="Trazado_247076" data-name="Trazado 247076" d="M1137.367-4.012V12.04h26v.151h18.689V-18.438h-15.148a3.061,3.061,0,0,0-.352.021,3.878,3.878,0,0,0-3.254,3.2l-1.594,8.467a3.419,3.419,0,0,1-3.35,2.741Z" fill="#28acd3" stroke="#12263f" stroke-miterlimit="10" stroke-width="1"/>
        <g id="Grupo_122473" data-name="Grupo 122473">
          <path id="Trazado_247077" data-name="Trazado 247077" d="M1135.745,1.345V7.726a.4.4,0,0,0,.4.4h10.806a.4.4,0,0,0,.2-.748L1136.348,1A.4.4,0,0,0,1135.745,1.345Z" fill="#fff"/>
          <rect id="Rectángulo_43441" data-name="Rectángulo 43441" width="0.42" height="5.757" transform="translate(1135.745 1.49)" fill="#fff"/>
          <path id="Trazado_247078" data-name="Trazado 247078" d="M1137.193,5.145a1.349,1.349,0,1,0,1.349-1.348A1.349,1.349,0,0,0,1137.193,5.145Z" fill="#fece16"/>
        </g>
        <path id="Rectángulo_43442" data-name="Rectángulo 43442" d="M0,0H2A0,0,0,0,1,2,0V0A2,2,0,0,1,0,2H0A0,0,0,0,1,0,2V0A0,0,0,0,1,0,0Z" transform="translate(1137.367 12.334) rotate(-180)" fill="#fff"/>
        <path id="Trazado_247079" data-name="Trazado 247079" d="M1177.92,5.079V-13.647a1.827,1.827,0,0,0-1.826-1.826h-7.177a1.825,1.825,0,0,0-1.718,1.209l-3.106,8.644a1.829,1.829,0,0,0-.108.617V5.079a1.825,1.825,0,0,0,1.826,1.825h10.283A1.826,1.826,0,0,0,1177.92,5.079Z" fill="#28acd3" stroke="#12263f" stroke-miterlimit="10" stroke-width="1"/>
        <rect id="Rectángulo_43443" data-name="Rectángulo 43443" width="0.41" height="15.152" transform="translate(1179.395 5.429) rotate(-180)" fill="#fff"/>
        <path id="Trazado_247080" data-name="Trazado 247080" d="M1168-6.327h7.2a1.205,1.205,0,0,0,.663-.2,1.166,1.166,0,0,0,.511-.964v-4.859a1.173,1.173,0,0,0-1.174-1.174h-5.514a1.146,1.146,0,0,0-.558.144,1.154,1.154,0,0,0-.544.643l-1.692,4.859A1.169,1.169,0,0,0,1168-6.327Z" fill="url(#linear-gradient)"/>
        <rect id="Rectángulo_43444" data-name="Rectángulo 43444" width="1.018" height="8.823" rx="0.509" transform="translate(1166.316 -14.132)" fill="#fff"/>
        <rect id="Rectángulo_43445" data-name="Rectángulo 43445" width="0.601" height="9.468" transform="translate(1133.806 22.564) rotate(-180)" fill="#fece16"/>
        <path id="Rectángulo_43446" data-name="Rectángulo 43446" d="M0,0H6.557a0,0,0,0,1,0,0V8.86a2.409,2.409,0,0,1-2.409,2.409H2.409A2.409,2.409,0,0,1,0,8.86V0A0,0,0,0,1,0,0Z" transform="translate(1187.551 12.191) rotate(-180)" fill="#12263f"/>
        <path id="Rectángulo_43447" data-name="Rectángulo 43447" d="M0,0H4.427a0,0,0,0,1,0,0V9.29a1.979,1.979,0,0,1-1.979,1.979H1.98A1.98,1.98,0,0,1,0,9.29V0A0,0,0,0,1,0,0Z" transform="translate(1186.486 1.004) rotate(-180)" fill="#12263f"/>
        <path id="Rectángulo_43448" data-name="Rectángulo 43448" d="M0,0H2.327a0,0,0,0,1,0,0V23.866A1.163,1.163,0,0,1,1.163,25.03h0A1.163,1.163,0,0,1,0,23.866V0A0,0,0,0,1,0,0Z" transform="translate(1185.436 -10.183) rotate(-180)" fill="#12263f"/>
        <g id="Grupo_122474" data-name="Grupo 122474">
          <path id="Rectángulo_43449" data-name="Rectángulo 43449" d="M1.878,0H20.916a1.878,1.878,0,0,1,1.878,1.878V6.286a0,0,0,0,1,0,0H0a0,0,0,0,1,0,0V1.878A1.878,1.878,0,0,1,1.878,0Z" transform="translate(1212.551 18.63) rotate(-180)" fill="#12263f"/>
          <rect id="Rectángulo_43450" data-name="Rectángulo 43450" width="0.513" height="6.286" transform="translate(1209.093 18.63) rotate(-180)" fill="url(#linear-gradient-2)"/>
          <rect id="Rectángulo_43451" data-name="Rectángulo 43451" width="0.513" height="6.286" transform="translate(1201.666 18.63) rotate(-180)" fill="url(#linear-gradient-3)"/>
          <rect id="Rectángulo_43452" data-name="Rectángulo 43452" width="0.513" height="6.286" transform="translate(1194.24 18.63) rotate(-180)" fill="url(#linear-gradient-4)"/>
        </g>
        <path id="Rectángulo_43453" data-name="Rectángulo 43453" d="M0,0H1.749a0,0,0,0,1,0,0V14.234A1.749,1.749,0,0,1,0,15.983H0a0,0,0,0,1,0,0V0A0,0,0,0,1,0,0Z" transform="translate(1137.367 12.014) rotate(-180)" fill="#fff" stroke="#12263f" stroke-miterlimit="10" stroke-width="1"/>
        <g id="Grupo_122478" data-name="Grupo 122478">
          <g id="Grupo_122477" data-name="Grupo 122477">
            <g id="Grupo_122476" data-name="Grupo 122476">
              <circle id="Elipse_6051" data-name="Elipse 6051" cx="10.97" cy="10.97" r="10.97" transform="matrix(0.973, -0.23, 0.23, 0.973, 1135.016, 13.208)"/>
              <circle id="Elipse_6052" data-name="Elipse 6052" cx="7.094" cy="7.094" r="7.094" transform="translate(1138.296 21.364) rotate(-45)" fill="url(#radial-gradient)"/>
              <g id="Grupo_122475" data-name="Grupo 122475">
                <path id="Trazado_247081" data-name="Trazado 247081" d="M1143.206,21.364a5.122,5.122,0,1,0,5.122-5.123A5.122,5.122,0,0,0,1143.206,21.364Zm.918-1.793a.2.2,0,0,1,.114.252,4.419,4.419,0,0,0-.206.733.2.2,0,0,1-.191.158.232.232,0,0,1-.037,0,.2.2,0,0,1-.155-.228,4.772,4.772,0,0,1,.224-.8A.2.2,0,0,1,1144.124,19.571Zm2.057-2.014a4.4,4.4,0,0,0-.627.43.195.195,0,0,1-.248-.3,4.666,4.666,0,0,1,.683-.468.193.193,0,0,1,.265.073A.2.2,0,0,1,1146.181,17.557Zm1.588-.729a.193.193,0,0,1-.16.224,4.419,4.419,0,0,0-.736.191.215.215,0,0,1-.065.01.195.195,0,0,1-.065-.379,4.787,4.787,0,0,1,.8-.206A.2.2,0,0,1,1147.769,16.828Zm1.583.081a.2.2,0,0,1-.192.16l-.036,0a4.433,4.433,0,0,0-.756-.074.195.195,0,0,1,0-.389h0a4.7,4.7,0,0,1,.824.079A.2.2,0,0,1,1149.352,16.909Zm1.458.618a.193.193,0,0,1-.168.1.2.2,0,0,1-.1-.027,4.268,4.268,0,0,0-.685-.327.2.2,0,0,1,.137-.366,4.753,4.753,0,0,1,.748.357A.2.2,0,0,1,1150.81,17.527Zm1.161,1.078a.2.2,0,0,1-.275-.026,4.333,4.333,0,0,0-.534-.541.2.2,0,0,1,.253-.3,4.837,4.837,0,0,1,.582.59A.2.2,0,0,1,1151.971,18.6Zm.842,1.16a.195.195,0,0,1-.367.131,4.3,4.3,0,0,0-.317-.692.2.2,0,0,1,.074-.265.2.2,0,0,1,.266.073A4.622,4.622,0,0,1,1152.813,19.765Zm.08,1.807a.207.207,0,0,1-.195-.208,4.423,4.423,0,0,0-.061-.732.195.195,0,0,1,.384-.066,4.8,4.8,0,0,1,.067.8v.027A.184.184,0,0,1,1152.893,21.572Zm-.35,1.559a.2.2,0,0,1-.115-.251,4.486,4.486,0,0,0,.2-.735.2.2,0,0,1,.384.071,4.813,4.813,0,0,1-.22.8.193.193,0,0,1-.182.128A.2.2,0,0,1,1152.543,23.131Zm-.879,1.057a4.349,4.349,0,0,0,.439-.619.195.195,0,1,1,.337.195,4.618,4.618,0,0,1-.479.677.2.2,0,0,1-.3-.253Zm-1.165.969a4.356,4.356,0,0,0,.624-.434.195.195,0,0,1,.25.3,4.786,4.786,0,0,1-.68.474.2.2,0,1,1-.194-.339Zm-1.584.739a.2.2,0,0,1,.159-.225,4.321,4.321,0,0,0,.735-.194.2.2,0,0,1,.134.367,4.678,4.678,0,0,1-.8.211l-.033,0A.194.194,0,0,1,1148.915,25.9Zm-1.584-.073a.2.2,0,0,1,.227-.157,4.452,4.452,0,0,0,.758.068.2.2,0,0,1,0,.39h0a4.839,4.839,0,0,1-.825-.074A.2.2,0,0,1,1147.331,25.823Zm-1.462-.609a.2.2,0,0,1,.267-.071,4.217,4.217,0,0,0,.687.323.2.2,0,0,1-.067.379.231.231,0,0,1-.068-.011,4.775,4.775,0,0,1-.748-.353A.2.2,0,0,1,1145.869,25.214Zm-1.167-1.07a.2.2,0,0,1,.275.024,4.541,4.541,0,0,0,.537.539.2.2,0,0,1-.253.3,4.963,4.963,0,0,1-.583-.586A.2.2,0,0,1,1144.7,24.144Zm-.135-5.006a.2.2,0,0,1-.168.095.2.2,0,0,1-.168-.294,4.8,4.8,0,0,1,.483-.673.2.2,0,1,1,.3.254A4.486,4.486,0,0,0,1144.567,19.138Zm-.714,3.851a.2.2,0,1,1,.367-.134,4.349,4.349,0,0,0,.32.689.195.195,0,0,1-.337.195A4.561,4.561,0,0,1,1143.853,22.989Zm-.284-1.625V21.31a.195.195,0,1,1,.389,0v.054a4.429,4.429,0,0,0,.066.757.2.2,0,0,1-.384.068A4.732,4.732,0,0,1,1143.569,21.364Z" fill="url(#radial-gradient-2)"/>
              </g>
              <path id="Trazado_247082" data-name="Trazado 247082" d="M1145.242,21.364a3.087,3.087,0,1,0,3.086-3.087A3.087,3.087,0,0,0,1145.242,21.364Z" fill="url(#linear-gradient-5)"/>
            </g>
          </g>
          <path id="Trazado_247083" data-name="Trazado 247083" d="M1133.588,20.007h4.21a10.449,10.449,0,0,1,20.747,0h4.216a14.64,14.64,0,0,0-29.173,0Z" fill="#28acd3" stroke="#12263f" stroke-miterlimit="10" stroke-width="1"/>
        </g>
      </g>
      <path id="Trazado_247084" data-name="Trazado 247084" d="M1188.794,13.281h110.392c.458,0,.83-.587.83-1.311h0c0-.724-.372-1.311-.83-1.311H1188.794Z" transform="translate(-7785.657 -6933.91)"/>
      <path id="Trazado_247085" data-name="Trazado 247085" d="M1298.771,13.281h-82.5c3.2,0,5.945,3.122,7.069,7.541h75.433Z" transform="translate(-7785.657 -6933.91)" fill="#12263f"/>
      <path id="Trazado_247086" data-name="Trazado 247086" d="M1231.129,13.282l.066.046a10.007,10.007,0,0,1,1-.046Z" transform="translate(-7785.657 -6933.91)" fill="#b751bb"/>
      <g id="Grupo_122480" data-name="Grupo 122480" transform="translate(-7785.657 -6933.91)">
        <g id="Rectángulo_43454" data-name="Rectángulo 43454" transform="translate(1188.794 -30.817)" fill="#fff" stroke="#12263f" stroke-miterlimit="10" stroke-width="2">
          <rect width="110.988" height="41.475" stroke="none"/>
          <rect x="1" y="1" width="108.988" height="39.475" fill="none"/>
        </g>
      </g>
      <path id="Trazado_247103" data-name="Trazado 247103" d="M1282.053,20.733l.944,5.1-.3,1.628-1.427-1.241-2.241-5.489Z" transform="translate(-7785.657 -6933.91)" fill="#12263f"/>
      <g id="Grupo_122496" data-name="Grupo 122496" transform="translate(-7785.657 -6933.91)">
        <g id="Grupo_122495" data-name="Grupo 122495">
          <circle id="Elipse_6057" data-name="Elipse 6057" cx="10.97" cy="10.97" r="10.97" transform="translate(1255.44 13.208) rotate(-13.283)"/>
          <circle id="Elipse_6058" data-name="Elipse 6058" cx="7.094" cy="7.094" r="7.094" transform="translate(1258.72 21.364) rotate(-45)" fill="url(#radial-gradient-3)"/>
          <g id="Grupo_122494" data-name="Grupo 122494">
            <path id="Trazado_247105" data-name="Trazado 247105" d="M1263.631,21.364a5.122,5.122,0,1,0,5.122-5.123A5.122,5.122,0,0,0,1263.631,21.364Zm.917-1.793a.2.2,0,0,1,.115.252,4.418,4.418,0,0,0-.206.733.2.2,0,0,1-.192.158.219.219,0,0,1-.036,0,.194.194,0,0,1-.155-.228,4.77,4.77,0,0,1,.223-.8A.2.2,0,0,1,1264.548,19.571Zm2.057-2.014a4.393,4.393,0,0,0-.626.43.2.2,0,1,1-.248-.3,4.605,4.605,0,0,1,.682-.468.195.195,0,1,1,.192.339Zm1.589-.729a.194.194,0,0,1-.16.224,4.435,4.435,0,0,0-.737.191.209.209,0,0,1-.065.01.2.2,0,0,1-.065-.379,4.8,4.8,0,0,1,.8-.206A.2.2,0,0,1,1268.194,16.828Zm1.583.081a.2.2,0,0,1-.193.16l-.035,0a4.442,4.442,0,0,0-.757-.074.195.195,0,0,1,0-.389h0a4.705,4.705,0,0,1,.824.079A.2.2,0,0,1,1269.777,16.909Zm1.458.618a.2.2,0,0,1-.168.1.2.2,0,0,1-.1-.027,4.285,4.285,0,0,0-.686-.327.2.2,0,0,1-.114-.251.193.193,0,0,1,.251-.115,4.673,4.673,0,0,1,.748.357A.2.2,0,0,1,1271.235,17.527ZM1272.4,18.6a.2.2,0,0,1-.276-.026,4.325,4.325,0,0,0-.533-.541.2.2,0,0,1-.023-.275.2.2,0,0,1,.276-.023,4.909,4.909,0,0,1,.582.59A.2.2,0,0,1,1272.4,18.6Zm.842,1.16a.194.194,0,0,1-.118.249.187.187,0,0,1-.066.011.193.193,0,0,1-.183-.129,4.372,4.372,0,0,0-.317-.692.193.193,0,0,1,.074-.265.2.2,0,0,1,.265.073A4.7,4.7,0,0,1,1273.238,19.765Zm.08,1.807a.207.207,0,0,1-.195-.208,4.32,4.32,0,0,0-.062-.732.2.2,0,0,1,.385-.066,4.8,4.8,0,0,1,.066.8v.027A.183.183,0,0,1,1273.318,21.572Zm-.35,1.559a.2.2,0,0,1-.115-.251,4.6,4.6,0,0,0,.2-.735.193.193,0,0,1,.227-.156.2.2,0,0,1,.157.227,4.922,4.922,0,0,1-.22.8.2.2,0,0,1-.183.128A.2.2,0,0,1,1272.968,23.131Zm-.88,1.057a4.271,4.271,0,0,0,.439-.619.2.2,0,0,1,.338.195,4.684,4.684,0,0,1-.479.677.2.2,0,0,1-.149.068.192.192,0,0,1-.126-.046A.2.2,0,0,1,1272.088,24.188Zm-1.164.969a4.4,4.4,0,0,0,.624-.434.195.195,0,1,1,.249.3,4.783,4.783,0,0,1-.679.474.2.2,0,0,1-.1.025.195.195,0,0,1-.1-.364Zm-1.585.739a.2.2,0,0,1,.16-.225,4.348,4.348,0,0,0,.735-.194.194.194,0,0,1,.25.117.2.2,0,0,1-.117.25,4.661,4.661,0,0,1-.8.211l-.033,0A.2.2,0,0,1,1269.339,25.9Zm-1.583-.073a.2.2,0,0,1,.227-.157,4.438,4.438,0,0,0,.757.068.2.2,0,0,1,0,.39h0a4.841,4.841,0,0,1-.825-.074A.2.2,0,0,1,1267.756,25.823Zm-1.462-.609a.2.2,0,0,1,.266-.071,4.222,4.222,0,0,0,.688.323.2.2,0,0,1-.068.379.223.223,0,0,1-.067-.011,4.775,4.775,0,0,1-.748-.353A.2.2,0,0,1,1266.294,25.214Zm-1.167-1.07a.2.2,0,0,1,.275.024,4.416,4.416,0,0,0,.537.539.2.2,0,0,1-.127.344.192.192,0,0,1-.126-.046,4.963,4.963,0,0,1-.584-.586A.2.2,0,0,1,1265.127,24.144Zm-.135-5.006a.2.2,0,0,1-.168.095.2.2,0,0,1-.1-.027.194.194,0,0,1-.068-.267,4.789,4.789,0,0,1,.483-.673.2.2,0,0,1,.3.254A4.406,4.406,0,0,0,1264.992,19.138Zm-.715,3.851a.2.2,0,1,1,.367-.134,4.269,4.269,0,0,0,.321.689.2.2,0,0,1-.338.195A4.738,4.738,0,0,1,1264.277,22.989Zm-.284-1.625V21.31a.2.2,0,0,1,.39,0v.054a4.441,4.441,0,0,0,.066.757.2.2,0,0,1-.159.226.185.185,0,0,1-.033,0,.2.2,0,0,1-.193-.161A4.828,4.828,0,0,1,1263.993,21.364Z" fill="url(#radial-gradient-4)"/>
          </g>
          <path id="Trazado_247106" data-name="Trazado 247106" d="M1265.666,21.364a3.087,3.087,0,1,0,3.087-3.087A3.087,3.087,0,0,0,1265.666,21.364Z" fill="url(#linear-gradient-6)"/>
        </g>
      </g>
    </g>
  </g>
</svg>
