<svg xmlns="http://www.w3.org/2000/svg" xmlns:xlink="http://www.w3.org/1999/xlink" width="295" height="93" viewBox="0 0 295 93">
  <defs>
    <linearGradient id="linear-gradient" x1="-30.146" y1="0.5" x2="-29.146" y2="0.5" gradientUnits="objectBoundingBox">
      <stop offset="0"/>
      <stop offset="0.998" stop-color="#666"/>
    </linearGradient>
    <linearGradient id="linear-gradient-2" x1="-706.248" y1="-0.279" x2="-706.248" y2="0.737" gradientUnits="objectBoundingBox">
      <stop offset="0" stop-color="#f2f2f2"/>
      <stop offset="1" stop-color="gray"/>
    </linearGradient>
    <linearGradient id="linear-gradient-3" x1="-677.278" y1="-0.279" x2="-677.278" y2="0.737" xlink:href="#linear-gradient-2"/>
    <linearGradient id="linear-gradient-4" x1="-648.307" y1="-0.279" x2="-648.307" y2="0.737" xlink:href="#linear-gradient-2"/>
    <radialGradient id="radial-gradient" cx="0.5" cy="0.5" r="0.5" gradientTransform="matrix(-0.707, -0.707, -0.707, 0.707, -27.829, -11.527)" gradientUnits="objectBoundingBox">
      <stop offset="0.484" stop-color="#4d4d4d"/>
      <stop offset="0.66" stop-color="#8f8f8f"/>
      <stop offset="0.818" stop-color="#c4c4c4"/>
      <stop offset="0.935" stop-color="#e5e5e5"/>
      <stop offset="1" stop-color="#f2f2f2"/>
    </radialGradient>
    <radialGradient id="radial-gradient-2" cx="0.5" cy="0.5" r="0.5" gradientTransform="matrix(-1, 0, 0, 1, -46.112, 0)" gradientUnits="objectBoundingBox">
      <stop offset="0" stop-color="gray"/>
      <stop offset="1" stop-color="#f2f2f2"/>
    </radialGradient>
    <linearGradient id="linear-gradient-5" x1="-39.094" y1="0.5" x2="-38.094" y2="0.5" gradientTransform="matrix(1, 0, 0, 1, 0, 0)" xlink:href="#radial-gradient-2"/>
    <radialGradient id="radial-gradient-3" cx="0.5" cy="0.5" r="0.5" gradientTransform="matrix(-0.707, -0.707, -0.707, 0.707, -58.607, -24.276)" xlink:href="#radial-gradient"/>
    <radialGradient id="radial-gradient-4" cx="0.5" cy="0.5" r="0.5" gradientTransform="matrix(-1, 0, 0, 1, -96.051, 0)" xlink:href="#radial-gradient-2"/>
    <linearGradient id="linear-gradient-6" x1="-80.523" y1="0.5" x2="-79.523" y2="0.5" gradientTransform="matrix(1, 0, 0, 1, 0, 0)" xlink:href="#radial-gradient-2"/>
    <radialGradient id="radial-gradient-5" cx="0.5" cy="0.5" r="0.5" gradientTransform="matrix(-0.707, -0.707, -0.707, 0.707, -64.69, -26.795)" xlink:href="#radial-gradient"/>
    <radialGradient id="radial-gradient-6" cx="0.5" cy="0.5" r="0.5" gradientTransform="matrix(-1, 0, 0, 1, -105.921, 0)" xlink:href="#radial-gradient-2"/>
    <linearGradient id="linear-gradient-7" x1="-88.71" y1="0.5" x2="-87.71" y2="0.5" gradientTransform="matrix(1, 0, 0, 1, 0, 0)" xlink:href="#radial-gradient-2"/>
  </defs>
  <g id="Grupo_123173" data-name="Grupo 123173" transform="translate(-810 -4943)">
    <rect id="Rectángulo_42531" data-name="Rectángulo 42531" width="295" height="93" transform="translate(810 4943)" fill="#28acd3" opacity="0.25"/>
    <g id="Grupo_122662" data-name="Grupo 122662" transform="translate(7509.452 11703.986)">
      <path id="Trazado_247151" data-name="Trazado 247151" d="M1188.794,233.418h145.177a1.217,1.217,0,0,0,1.092-1.311h0a1.217,1.217,0,0,0-1.092-1.311H1188.794Z" transform="translate(-7785.657 -6933.91)"/>
      <path id="Trazado_247152" data-name="Trazado 247152" d="M1231.129,233.419l.066.045c.327-.032.662-.045,1-.045Z" transform="translate(-7785.657 -6933.91)" fill="#b751bb"/>
      <g id="Grupo_122537" data-name="Grupo 122537" transform="translate(-7785.657 -6933.91)">
        <g id="Rectángulo_43506" data-name="Rectángulo 43506" transform="translate(1188.794 189.32)" fill="#fff" stroke="#12263f" stroke-miterlimit="10" stroke-width="2">
          <rect width="145.961" height="41.475" stroke="none"/>
          <rect x="1" y="1" width="143.961" height="39.475" fill="none"/>
        </g>
      </g>
      <rect id="Rectángulo_43507" data-name="Rectángulo 43507" width="109.582" height="7.541" transform="translate(-6561.814 -6700.492)" fill="#12263f"/>
      <g id="Grupo_122546" data-name="Grupo 122546" transform="translate(-7785.657 -6933.91)">
        <path id="Trazado_247153" data-name="Trazado 247153" d="M1168.642,199.529h13.417v2.32h-15.738A2.321,2.321,0,0,1,1168.642,199.529Z" fill="#1ba2c1" stroke="#12263f" stroke-miterlimit="10" stroke-width="1"/>
        <g id="Grupo_122538" data-name="Grupo 122538">
          <path id="Trazado_247154" data-name="Trazado 247154" d="M1171.138,195.424h1.638a1.606,1.606,0,0,1,1.6,1.461l.239,2.644h-4.686v-2.9A1.21,1.21,0,0,1,1171.138,195.424Z" fill="#1ba2c1" stroke="#12263f" stroke-miterlimit="10" stroke-width="1"/>
          <rect id="Rectángulo_43508" data-name="Rectángulo 43508" width="0.871" height="2.643" transform="translate(1169.928 198.788) rotate(-180)" fill="#28acd3" stroke="#12263f" stroke-miterlimit="10" stroke-width="1"/>
        </g>
        <g id="Grupo_122539" data-name="Grupo 122539">
          <path id="Trazado_247155" data-name="Trazado 247155" d="M1219.4,237.831h-62V232.4h62a2.716,2.716,0,0,1,2.716,2.716h0A2.716,2.716,0,0,1,1219.4,237.831Z" fill="#fff" stroke="#12263f" stroke-miterlimit="10" stroke-width="1"/>
          <g id="Rectángulo_43509" data-name="Rectángulo 43509" transform="translate(1187.551 234.001) rotate(-180)" fill="#12263f" stroke="#12263f" stroke-miterlimit="10" stroke-width="1">
            <rect width="24.341" height="1.673" stroke="none"/>
            <rect x="-0.5" y="-0.5" width="25.341" height="2.673" fill="none"/>
          </g>
        </g>
        <rect id="Rectángulo_43510" data-name="Rectángulo 43510" width="3.561" height="11.735" transform="translate(1137.367 244.202) rotate(-180)" fill="#fff" stroke="#12263f" stroke-miterlimit="10" stroke-width="1"/>
        <path id="Trazado_247156" data-name="Trazado 247156" d="M1137.367,216.125v16.052h26v.151h18.689V201.7h-15.148a3.059,3.059,0,0,0-.352.021,3.878,3.878,0,0,0-3.254,3.2l-1.594,8.467a3.419,3.419,0,0,1-3.35,2.741Z" fill="#28acd3" stroke="#12263f" stroke-miterlimit="10" stroke-width="1"/>
        <g id="Grupo_122540" data-name="Grupo 122540">
          <path id="Trazado_247157" data-name="Trazado 247157" d="M1135.745,221.482v6.38a.4.4,0,0,0,.4.4h10.806a.4.4,0,0,0,.2-.747l-10.806-6.38A.4.4,0,0,0,1135.745,221.482Z" fill="#fff"/>
          <rect id="Rectángulo_43511" data-name="Rectángulo 43511" width="0.42" height="5.757" transform="translate(1135.745 221.626)" fill="#fff"/>
          <path id="Trazado_247158" data-name="Trazado 247158" d="M1137.193,225.282a1.349,1.349,0,1,0,1.349-1.348A1.348,1.348,0,0,0,1137.193,225.282Z" fill="#fece16"/>
        </g>
        <path id="Rectángulo_43512" data-name="Rectángulo 43512" d="M0,0H2A0,0,0,0,1,2,0V0A2,2,0,0,1,0,2H0A0,0,0,0,1,0,2V0A0,0,0,0,1,0,0Z" transform="translate(1137.367 232.471) rotate(180)" fill="#fff"/>
        <path id="Trazado_247159" data-name="Trazado 247159" d="M1177.92,225.216V206.49a1.826,1.826,0,0,0-1.826-1.826h-7.177a1.825,1.825,0,0,0-1.718,1.208l-3.106,8.645a1.829,1.829,0,0,0-.108.617v10.082a1.825,1.825,0,0,0,1.826,1.825h10.283A1.826,1.826,0,0,0,1177.92,225.216Z" fill="#28acd3" stroke="#12263f" stroke-miterlimit="10" stroke-width="1"/>
        <rect id="Rectángulo_43513" data-name="Rectángulo 43513" width="0.41" height="15.152" transform="translate(1179.395 225.566) rotate(-180)" fill="#fff"/>
        <path id="Trazado_247160" data-name="Trazado 247160" d="M1168,213.81h7.2a1.205,1.205,0,0,0,.663-.2,1.166,1.166,0,0,0,.511-.964v-4.859a1.173,1.173,0,0,0-1.174-1.174h-5.514a1.172,1.172,0,0,0-1.1.787l-1.692,4.859A1.169,1.169,0,0,0,1168,213.81Z" fill="url(#linear-gradient)"/>
        <rect id="Rectángulo_43514" data-name="Rectángulo 43514" width="1.018" height="8.823" rx="0.509" transform="translate(1166.316 206.005)" fill="#fff"/>
        <rect id="Rectángulo_43515" data-name="Rectángulo 43515" width="0.601" height="9.468" transform="translate(1133.806 242.701) rotate(-180)" fill="#fece16"/>
        <path id="Rectángulo_43516" data-name="Rectángulo 43516" d="M0,0H6.557a0,0,0,0,1,0,0V8.86a2.409,2.409,0,0,1-2.409,2.409H2.409A2.409,2.409,0,0,1,0,8.86V0A0,0,0,0,1,0,0Z" transform="translate(1187.551 232.328) rotate(-180)" fill="#12263f"/>
        <path id="Rectángulo_43517" data-name="Rectángulo 43517" d="M0,0H4.427a0,0,0,0,1,0,0V9.29a1.979,1.979,0,0,1-1.979,1.979H1.98A1.98,1.98,0,0,1,0,9.29V0A0,0,0,0,1,0,0Z" transform="translate(1186.486 221.141) rotate(-180)" fill="#12263f"/>
        <path id="Rectángulo_43518" data-name="Rectángulo 43518" d="M0,0H2.327a0,0,0,0,1,0,0V23.866A1.163,1.163,0,0,1,1.163,25.03h0A1.163,1.163,0,0,1,0,23.866V0A0,0,0,0,1,0,0Z" transform="translate(1185.436 209.954) rotate(180)" fill="#12263f"/>
        <g id="Grupo_122541" data-name="Grupo 122541">
          <path id="Rectángulo_43519" data-name="Rectángulo 43519" d="M1.878,0H20.916a1.878,1.878,0,0,1,1.878,1.878V6.286a0,0,0,0,1,0,0H0a0,0,0,0,1,0,0V1.878A1.878,1.878,0,0,1,1.878,0Z" transform="translate(1212.551 238.767) rotate(-180)" fill="#12263f"/>
          <rect id="Rectángulo_43520" data-name="Rectángulo 43520" width="0.513" height="6.286" transform="translate(1209.093 238.767) rotate(-180)" fill="url(#linear-gradient-2)"/>
          <rect id="Rectángulo_43521" data-name="Rectángulo 43521" width="0.513" height="6.286" transform="translate(1201.666 238.767) rotate(-180)" fill="url(#linear-gradient-3)"/>
          <rect id="Rectángulo_43522" data-name="Rectángulo 43522" width="0.513" height="6.286" transform="translate(1194.24 238.767) rotate(-180)" fill="url(#linear-gradient-4)"/>
        </g>
        <path id="Rectángulo_43523" data-name="Rectángulo 43523" d="M0,0H1.749a0,0,0,0,1,0,0V14.234A1.749,1.749,0,0,1,0,15.983H0a0,0,0,0,1,0,0V0A0,0,0,0,1,0,0Z" transform="translate(1137.367 232.151) rotate(180)" fill="#fff" stroke="#12263f" stroke-miterlimit="10" stroke-width="1"/>
        <g id="Grupo_122545" data-name="Grupo 122545">
          <g id="Grupo_122544" data-name="Grupo 122544">
            <g id="Grupo_122543" data-name="Grupo 122543">
              <circle id="Elipse_6075" data-name="Elipse 6075" cx="10.97" cy="10.97" r="10.97" transform="matrix(0.973, -0.23, 0.23, 0.973, 1135.016, 233.345)"/>
              <circle id="Elipse_6076" data-name="Elipse 6076" cx="7.094" cy="7.094" r="7.094" transform="translate(1138.296 241.501) rotate(-45)" fill="url(#radial-gradient)"/>
              <g id="Grupo_122542" data-name="Grupo 122542">
                <path id="Trazado_247161" data-name="Trazado 247161" d="M1143.206,241.5a5.122,5.122,0,1,0,5.122-5.123A5.122,5.122,0,0,0,1143.206,241.5Zm.918-1.793a.2.2,0,0,1,.114.251,4.458,4.458,0,0,0-.206.734.2.2,0,0,1-.191.158.232.232,0,0,1-.037,0,.2.2,0,0,1-.155-.228,4.772,4.772,0,0,1,.224-.8A.193.193,0,0,1,1144.124,239.708Zm2.057-2.014a4.322,4.322,0,0,0-.627.43.2.2,0,0,1-.274-.027.194.194,0,0,1,.026-.274,4.672,4.672,0,0,1,.683-.469.2.2,0,0,1,.192.34Zm1.588-.729a.193.193,0,0,1-.16.224,4.324,4.324,0,0,0-.736.191.252.252,0,0,1-.065.01.195.195,0,0,1-.065-.379,4.788,4.788,0,0,1,.8-.206A.2.2,0,0,1,1147.769,236.965Zm1.583.081a.2.2,0,0,1-.192.16l-.036,0a4.433,4.433,0,0,0-.756-.074.194.194,0,0,1,0-.389h0a4.7,4.7,0,0,1,.824.079A.2.2,0,0,1,1149.352,237.046Zm1.458.618a.193.193,0,0,1-.168.1.2.2,0,0,1-.1-.027,4.359,4.359,0,0,0-.685-.328.195.195,0,0,1,.137-.365,4.666,4.666,0,0,1,.748.357A.2.2,0,0,1,1150.81,237.664Zm1.161,1.078a.2.2,0,0,1-.275-.026,4.333,4.333,0,0,0-.534-.541.2.2,0,0,1,.253-.3,4.838,4.838,0,0,1,.582.59A.2.2,0,0,1,1151.971,238.742Zm.842,1.159a.195.195,0,1,1-.367.132,4.3,4.3,0,0,0-.317-.692.2.2,0,0,1,.074-.265.2.2,0,0,1,.266.073A4.65,4.65,0,0,1,1152.813,239.9Zm.08,1.808a.207.207,0,0,1-.195-.208,4.423,4.423,0,0,0-.061-.732.195.195,0,0,1,.384-.066,4.8,4.8,0,0,1,.067.8v.027A.184.184,0,0,1,1152.893,241.709Zm-.35,1.559a.2.2,0,0,1-.115-.251,4.486,4.486,0,0,0,.2-.735.2.2,0,0,1,.384.071,4.84,4.84,0,0,1-.22.8.193.193,0,0,1-.182.128A.2.2,0,0,1,1152.543,243.268Zm-.879,1.057a4.348,4.348,0,0,0,.439-.619.195.195,0,1,1,.337.2,4.609,4.609,0,0,1-.479.676.195.195,0,1,1-.3-.252Zm-1.165.968a4.348,4.348,0,0,0,.624-.433.195.195,0,0,1,.25.3,4.785,4.785,0,0,1-.68.474.2.2,0,0,1-.194-.34Zm-1.584.74a.2.2,0,0,1,.159-.225,4.321,4.321,0,0,0,.735-.194.2.2,0,0,1,.134.367,4.679,4.679,0,0,1-.8.211l-.033,0A.194.194,0,0,1,1148.915,246.033Zm-1.584-.073a.2.2,0,0,1,.227-.158,4.354,4.354,0,0,0,.758.069.194.194,0,1,1,0,.389h0a4.738,4.738,0,0,1-.825-.073A.2.2,0,0,1,1147.331,245.96Zm-1.462-.609a.2.2,0,0,1,.267-.071,4.217,4.217,0,0,0,.687.323.2.2,0,0,1-.067.379.2.2,0,0,1-.068-.012,4.682,4.682,0,0,1-.748-.352A.2.2,0,0,1,1145.869,245.351Zm-1.167-1.071a.2.2,0,0,1,.275.025,4.541,4.541,0,0,0,.537.539.2.2,0,0,1-.253.3,5.04,5.04,0,0,1-.583-.586A.2.2,0,0,1,1144.7,244.28Zm-.135-5.005a.2.2,0,0,1-.168.1.2.2,0,0,1-.168-.294,4.8,4.8,0,0,1,.483-.673.2.2,0,1,1,.3.254A4.487,4.487,0,0,0,1144.567,239.275Zm-.714,3.851a.2.2,0,1,1,.367-.134,4.339,4.339,0,0,0,.32.688.195.195,0,1,1-.337.2A4.6,4.6,0,0,1,1143.853,243.126Zm-.284-1.625v-.054a.195.195,0,1,1,.389,0v.054a4.438,4.438,0,0,0,.066.757.2.2,0,0,1-.384.068A4.74,4.74,0,0,1,1143.569,241.5Z" fill="url(#radial-gradient-2)"/>
              </g>
              <path id="Trazado_247162" data-name="Trazado 247162" d="M1145.242,241.5a3.087,3.087,0,1,0,3.086-3.087A3.087,3.087,0,0,0,1145.242,241.5Z" fill="url(#linear-gradient-5)"/>
            </g>
          </g>
          <path id="Trazado_247163" data-name="Trazado 247163" d="M1133.588,240.144h4.21a10.449,10.449,0,0,1,20.747,0h4.216a14.64,14.64,0,0,0-29.173,0Z" fill="#28acd3" stroke="#12263f" stroke-miterlimit="10" stroke-width="1"/>
        </g>
      </g>
      <g id="Grupo_122549" data-name="Grupo 122549" transform="translate(-7785.657 -6933.91)">
        <g id="Grupo_122548" data-name="Grupo 122548">
          <circle id="Elipse_6077" data-name="Elipse 6077" cx="10.97" cy="10.97" r="10.97" transform="matrix(0.973, -0.23, 0.23, 0.973, 1262.923, 233.345)"/>
          <circle id="Elipse_6078" data-name="Elipse 6078" cx="7.094" cy="7.094" r="7.094" transform="translate(1266.203 241.501) rotate(-45)" fill="url(#radial-gradient-3)"/>
          <g id="Grupo_122547" data-name="Grupo 122547">
            <path id="Trazado_247164" data-name="Trazado 247164" d="M1271.113,241.5a5.122,5.122,0,1,0,5.123-5.123A5.123,5.123,0,0,0,1271.113,241.5Zm.918-1.793a.2.2,0,0,1,.114.251,4.568,4.568,0,0,0-.206.734.194.194,0,0,1-.191.158.218.218,0,0,1-.036,0,.194.194,0,0,1-.155-.228,4.77,4.77,0,0,1,.223-.8A.193.193,0,0,1,1272.031,239.708Zm2.057-2.014a4.315,4.315,0,0,0-.627.43.2.2,0,0,1-.124.044.195.195,0,0,1-.123-.345,4.611,4.611,0,0,1,.682-.469.2.2,0,0,1,.192.34Zm1.589-.729a.194.194,0,0,1-.16.224,4.4,4.4,0,0,0-.737.19.216.216,0,0,1-.065.011.2.2,0,0,1-.185-.13.2.2,0,0,1,.12-.249,4.8,4.8,0,0,1,.8-.206A.2.2,0,0,1,1275.677,236.965Zm1.582.081a.194.194,0,0,1-.192.159.212.212,0,0,1-.035,0,4.452,4.452,0,0,0-.757-.074.194.194,0,0,1,0-.389h0a4.824,4.824,0,0,1,.825.078A.2.2,0,0,1,1277.259,237.046Zm1.458.618a.193.193,0,0,1-.168.1.2.2,0,0,1-.1-.027,4.322,4.322,0,0,0-.686-.328.195.195,0,0,1,.137-.365,4.672,4.672,0,0,1,.748.357A.2.2,0,0,1,1278.717,237.664Zm1.161,1.078a.192.192,0,0,1-.124.044.2.2,0,0,1-.151-.07,4.325,4.325,0,0,0-.533-.541.2.2,0,0,1,.252-.3,4.777,4.777,0,0,1,.582.59A.2.2,0,0,1,1279.878,238.742Zm.843,1.159a.2.2,0,0,1-.118.25.191.191,0,0,1-.066.011.2.2,0,0,1-.184-.129,4.378,4.378,0,0,0-.316-.692.2.2,0,0,1,.073-.266.2.2,0,0,1,.266.074A4.729,4.729,0,0,1,1280.721,239.9Zm.079,1.808a.208.208,0,0,1-.2-.209,4.317,4.317,0,0,0-.061-.731.195.195,0,0,1,.384-.066,4.68,4.68,0,0,1,.067.8v.028A.183.183,0,0,1,1280.8,241.709Zm-.35,1.558a.193.193,0,0,1-.115-.25,4.513,4.513,0,0,0,.2-.735.2.2,0,0,1,.385.071,4.95,4.95,0,0,1-.22.8.2.2,0,0,1-.183.128A.186.186,0,0,1,1280.45,243.267Zm-.879,1.058a4.347,4.347,0,0,0,.439-.619.195.195,0,0,1,.337.2,4.6,4.6,0,0,1-.478.676.2.2,0,0,1-.276.023A.2.2,0,0,1,1279.571,244.325Zm-1.165.968a4.357,4.357,0,0,0,.625-.433.195.195,0,1,1,.249.3,4.785,4.785,0,0,1-.68.474.2.2,0,0,1-.1.025.2.2,0,0,1-.169-.1A.2.2,0,0,1,1278.406,245.293Zm-1.584.74a.2.2,0,0,1,.159-.225,4.321,4.321,0,0,0,.735-.194.194.194,0,0,1,.251.117.2.2,0,0,1-.117.25,4.679,4.679,0,0,1-.8.211.184.184,0,0,1-.033,0A.2.2,0,0,1,1276.822,246.033Zm-1.583-.073a.2.2,0,0,1,.226-.158,4.354,4.354,0,0,0,.758.069.194.194,0,0,1,0,.389h0a4.837,4.837,0,0,1-.825-.073A.2.2,0,0,1,1275.239,245.96Zm-1.463-.609a.2.2,0,0,1,.267-.071,4.217,4.217,0,0,0,.687.323.2.2,0,0,1-.067.379.2.2,0,0,1-.068-.012,4.721,4.721,0,0,1-.748-.352A.2.2,0,0,1,1273.776,245.351Zm-1.167-1.071a.2.2,0,0,1,.276.025,4.469,4.469,0,0,0,.536.539.2.2,0,0,1,.023.275.2.2,0,0,1-.149.069.192.192,0,0,1-.126-.046,4.982,4.982,0,0,1-.584-.586A.2.2,0,0,1,1272.609,244.28Zm-.135-5.005a.194.194,0,0,1-.168.1.2.2,0,0,1-.1-.027.2.2,0,0,1-.069-.268,4.859,4.859,0,0,1,.483-.672.2.2,0,0,1,.3.254A4.423,4.423,0,0,0,1272.474,239.275Zm-.714,3.85a.2.2,0,1,1,.367-.133,4.35,4.35,0,0,0,.32.688.2.2,0,0,1-.071.267.191.191,0,0,1-.1.026.2.2,0,0,1-.169-.1A4.654,4.654,0,0,1,1271.76,243.125Zm-.284-1.625v-.053a.2.2,0,1,1,.39,0v.053a4.44,4.44,0,0,0,.065.758.2.2,0,0,1-.384.068A4.743,4.743,0,0,1,1271.476,241.5Z" fill="url(#radial-gradient-4)"/>
          </g>
          <path id="Trazado_247165" data-name="Trazado 247165" d="M1273.149,241.5a3.087,3.087,0,1,0,3.087-3.087A3.087,3.087,0,0,0,1273.149,241.5Z" fill="url(#linear-gradient-6)"/>
        </g>
      </g>
      <path id="Trazado_247166" data-name="Trazado 247166" d="M1314.956,240.762l.944,5.1-.3,1.628-1.427-1.241-2.241-5.489Z" transform="translate(-7785.657 -6933.91)" fill="#12263f"/>
      <g id="Grupo_122552" data-name="Grupo 122552" transform="translate(-7785.657 -6933.91)">
        <g id="Grupo_122551" data-name="Grupo 122551">
          <circle id="Elipse_6079" data-name="Elipse 6079" cx="10.97" cy="10.97" r="10.97" transform="matrix(0.973, -0.23, 0.23, 0.973, 1288.202, 233.345)"/>
          <circle id="Elipse_6080" data-name="Elipse 6080" cx="7.094" cy="7.094" r="7.094" transform="translate(1291.482 241.501) rotate(-45)" fill="url(#radial-gradient-5)"/>
          <g id="Grupo_122550" data-name="Grupo 122550">
            <path id="Trazado_247167" data-name="Trazado 247167" d="M1296.392,241.5a5.122,5.122,0,1,0,5.123-5.123A5.123,5.123,0,0,0,1296.392,241.5Zm.918-1.793a.2.2,0,0,1,.114.251,4.555,4.555,0,0,0-.206.734.194.194,0,0,1-.191.158l-.036,0a.194.194,0,0,1-.155-.228,4.678,4.678,0,0,1,.223-.8A.194.194,0,0,1,1297.31,239.708Zm2.057-2.014a4.328,4.328,0,0,0-.627.43.2.2,0,0,1-.274-.027.193.193,0,0,1,.027-.274,4.6,4.6,0,0,1,.682-.469.2.2,0,1,1,.192.34Zm1.589-.729a.194.194,0,0,1-.16.224,4.408,4.408,0,0,0-.737.19.216.216,0,0,1-.065.011.2.2,0,0,1-.185-.13.2.2,0,0,1,.12-.249,4.818,4.818,0,0,1,.8-.206A.2.2,0,0,1,1300.956,236.965Zm1.582.081a.194.194,0,0,1-.192.159.21.21,0,0,1-.035,0,4.455,4.455,0,0,0-.757-.074.194.194,0,0,1,0-.389h0a4.823,4.823,0,0,1,.825.078A.2.2,0,0,1,1302.538,237.046Zm1.458.618a.193.193,0,0,1-.168.1.2.2,0,0,1-.1-.027,4.329,4.329,0,0,0-.686-.328.195.195,0,1,1,.137-.365,4.671,4.671,0,0,1,.748.357A.2.2,0,0,1,1304,237.664Zm1.161,1.078a.192.192,0,0,1-.124.044.2.2,0,0,1-.151-.07,4.324,4.324,0,0,0-.533-.541.2.2,0,0,1,.252-.3,4.768,4.768,0,0,1,.582.59A.2.2,0,0,1,1305.157,238.742ZM1306,239.9a.2.2,0,0,1-.118.25.19.19,0,0,1-.066.011.2.2,0,0,1-.184-.129,4.377,4.377,0,0,0-.316-.692.2.2,0,0,1,.073-.266.2.2,0,0,1,.266.074A4.74,4.74,0,0,1,1306,239.9Zm.079,1.808a.208.208,0,0,1-.195-.209,4.317,4.317,0,0,0-.061-.731.195.195,0,0,1,.384-.066,4.8,4.8,0,0,1,.067.8v.028A.183.183,0,0,1,1306.079,241.709Zm-.35,1.558a.193.193,0,0,1-.115-.25,4.526,4.526,0,0,0,.2-.735.2.2,0,0,1,.385.071,4.95,4.95,0,0,1-.22.8.194.194,0,0,1-.183.128A.182.182,0,0,1,1305.729,243.267Zm-.879,1.058a4.347,4.347,0,0,0,.439-.619.195.195,0,1,1,.337.2,4.594,4.594,0,0,1-.478.676.2.2,0,1,1-.3-.252Zm-1.165.968a4.357,4.357,0,0,0,.625-.433.195.195,0,1,1,.249.3,4.791,4.791,0,0,1-.68.474.2.2,0,0,1-.1.025.2.2,0,0,1-.169-.1A.2.2,0,0,1,1303.685,245.293Zm-1.584.74a.2.2,0,0,1,.159-.225,4.324,4.324,0,0,0,.735-.194.194.194,0,0,1,.251.117.2.2,0,0,1-.117.25,4.679,4.679,0,0,1-.8.211l-.033,0A.2.2,0,0,1,1302.1,246.033Zm-1.583-.073a.2.2,0,0,1,.226-.158,4.352,4.352,0,0,0,.758.069.194.194,0,1,1,0,.389h0a4.837,4.837,0,0,1-.825-.073A.2.2,0,0,1,1300.518,245.96Zm-1.463-.609a.2.2,0,0,1,.267-.071,4.212,4.212,0,0,0,.687.323.2.2,0,0,1-.067.379.2.2,0,0,1-.068-.012,4.682,4.682,0,0,1-.748-.352A.2.2,0,0,1,1299.055,245.351Zm-1.167-1.071a.2.2,0,0,1,.276.025,4.478,4.478,0,0,0,.536.539.2.2,0,0,1,.023.275.2.2,0,0,1-.149.069.192.192,0,0,1-.126-.046,4.964,4.964,0,0,1-.584-.586A.2.2,0,0,1,1297.888,244.28Zm-.135-5.005a.2.2,0,0,1-.168.1.2.2,0,0,1-.1-.027.2.2,0,0,1-.069-.268,4.839,4.839,0,0,1,.483-.672.2.2,0,1,1,.3.254A4.477,4.477,0,0,0,1297.753,239.275Zm-.714,3.85a.2.2,0,0,1,.367-.133,4.339,4.339,0,0,0,.32.688.195.195,0,1,1-.337.2A4.665,4.665,0,0,1,1297.039,243.125Zm-.284-1.625v-.053a.2.2,0,1,1,.39,0v.053a4.452,4.452,0,0,0,.065.758.195.195,0,1,1-.384.068A4.731,4.731,0,0,1,1296.755,241.5Z" fill="url(#radial-gradient-6)"/>
          </g>
          <path id="Trazado_247168" data-name="Trazado 247168" d="M1298.428,241.5a3.087,3.087,0,1,0,3.087-3.087A3.087,3.087,0,0,0,1298.428,241.5Z" fill="url(#linear-gradient-7)"/>
        </g>
      </g>
    </g>
  </g>
</svg>
