<svg xmlns="http://www.w3.org/2000/svg" xmlns:xlink="http://www.w3.org/1999/xlink" width="295" height="93" viewBox="0 0 295 93">
  <defs>
    <linearGradient id="linear-gradient" x1="-34.551" y1="0.5" x2="-33.551" y2="0.5" gradientUnits="objectBoundingBox">
      <stop offset="0"/>
      <stop offset="0.998" stop-color="#666"/>
    </linearGradient>
    <linearGradient id="linear-gradient-2" x1="-811.362" y1="-0.279" x2="-811.362" y2="0.737" gradientUnits="objectBoundingBox">
      <stop offset="0" stop-color="#f2f2f2"/>
      <stop offset="1" stop-color="gray"/>
    </linearGradient>
    <linearGradient id="linear-gradient-3" x1="-782.392" y1="-0.279" x2="-782.392" y2="0.737" xlink:href="#linear-gradient-2"/>
    <linearGradient id="linear-gradient-4" x1="-753.422" y1="-0.279" x2="-753.422" y2="0.737" xlink:href="#linear-gradient-2"/>
    <radialGradient id="radial-gradient" cx="0.5" cy="0.5" r="0.5" gradientTransform="matrix(-0.707, -0.707, -0.707, 0.707, -34.313, -14.213)" gradientUnits="objectBoundingBox">
      <stop offset="0.484" stop-color="#4d4d4d"/>
      <stop offset="0.66" stop-color="#8f8f8f"/>
      <stop offset="0.818" stop-color="#c4c4c4"/>
      <stop offset="0.935" stop-color="#e5e5e5"/>
      <stop offset="1" stop-color="#f2f2f2"/>
    </radialGradient>
    <radialGradient id="radial-gradient-2" cx="0.5" cy="0.5" r="0.5" gradientTransform="matrix(-1, 0, 0, 1, -56.633, 0)" gradientUnits="objectBoundingBox">
      <stop offset="0" stop-color="gray"/>
      <stop offset="1" stop-color="#f2f2f2"/>
    </radialGradient>
    <linearGradient id="linear-gradient-5" x1="-47.817" y1="0.5" x2="-46.817" y2="0.5" gradientTransform="matrix(1, 0, 0, 1, 0, 0)" xlink:href="#radial-gradient-2"/>
    <radialGradient id="radial-gradient-3" cx="0.5" cy="0.5" r="0.5" gradientTransform="matrix(-0.707, -0.707, -0.707, 0.707, -28.809, -11.933)" xlink:href="#radial-gradient"/>
    <radialGradient id="radial-gradient-4" cx="0.5" cy="0.5" r="0.5" gradientTransform="matrix(-1, 0, 0, 1, -47.703, 0)" xlink:href="#radial-gradient-2"/>
    <linearGradient id="linear-gradient-6" x1="-40.408" y1="0.5" x2="-39.408" y2="0.5" gradientTransform="matrix(1, 0, 0, 1, 0, 0)" xlink:href="#radial-gradient-2"/>
    <radialGradient id="radial-gradient-5" cx="0.5" cy="0.5" r="0.5" gradientTransform="matrix(-0.707, -0.707, -0.707, 0.707, -63.291, -26.216)" xlink:href="#radial-gradient"/>
    <radialGradient id="radial-gradient-6" cx="0.5" cy="0.5" r="0.5" gradientTransform="matrix(-1, 0, 0, 1, -103.65, 0)" xlink:href="#radial-gradient-2"/>
    <linearGradient id="linear-gradient-7" x1="-86.828" y1="0.5" x2="-85.828" y2="0.5" gradientTransform="matrix(1, 0, 0, 1, 0, 0)" xlink:href="#radial-gradient-2"/>
  </defs>
  <g id="Grupo_123174" data-name="Grupo 123174" transform="translate(-810 -5057)">
    <rect id="Rectángulo_42531" data-name="Rectángulo 42531" width="295" height="93" transform="translate(810 5057)" fill="#28acd3" opacity="0.25"/>
    <g id="Grupo_122663" data-name="Grupo 122663" transform="translate(7511.369 11691.898)">
      <g id="Grupo_122509" data-name="Grupo 122509" transform="translate(-7785.657 -6933.91)">
        <path id="Trazado_247107" data-name="Trazado 247107" d="M1195.587,325.616h13.418v2.32h-15.738A2.32,2.32,0,0,1,1195.587,325.616Z" fill="#1ba2c1" stroke="#12263f" stroke-miterlimit="10" stroke-width="1"/>
        <g id="Grupo_122497" data-name="Grupo 122497">
          <path id="Trazado_247108" data-name="Trazado 247108" d="M1198.084,321.511h1.638a1.6,1.6,0,0,1,1.6,1.461l.24,2.644h-4.686v-2.895A1.21,1.21,0,0,1,1198.084,321.511Z" fill="#1ba2c1" stroke="#12263f" stroke-miterlimit="10" stroke-width="1"/>
          <rect id="Rectángulo_43472" data-name="Rectángulo 43472" width="0.871" height="2.643" transform="translate(1196.874 324.875) rotate(-180)" fill="#28acd3" stroke="#12263f" stroke-miterlimit="10" stroke-width="1"/>
        </g>
        <g id="Grupo_122498" data-name="Grupo 122498">
          <path id="Trazado_247109" data-name="Trazado 247109" d="M1246.343,363.919h-62v-5.433h62a2.716,2.716,0,0,1,2.716,2.717h0A2.716,2.716,0,0,1,1246.343,363.919Z" fill="#fff" stroke="#12263f" stroke-miterlimit="10" stroke-width="1"/>
          <g id="Rectángulo_43473" data-name="Rectángulo 43473" transform="translate(1214.497 360.088) rotate(-180)" fill="#12263f" stroke="#12263f" stroke-miterlimit="10" stroke-width="1">
            <rect width="24.341" height="1.673" stroke="none"/>
            <rect x="-0.5" y="-0.5" width="25.341" height="2.673" fill="none"/>
          </g>
        </g>
        <rect id="Rectángulo_43474" data-name="Rectángulo 43474" width="3.561" height="11.735" transform="translate(1164.313 370.289) rotate(-180)" fill="#fff" stroke="#12263f" stroke-miterlimit="10" stroke-width="1"/>
        <path id="Trazado_247110" data-name="Trazado 247110" d="M1138.037,342.213v16.052h41.291v.151h29.677v-30.63h-24.054c-.181,0-.368.008-.559.022-2.634.2-4.677,1.555-5.168,3.2l-2.53,8.467c-.51,1.593-2.738,2.741-5.321,2.741Z" fill="#28acd3" stroke="#12263f" stroke-miterlimit="10" stroke-width="1"/>
        <g id="Grupo_122499" data-name="Grupo 122499">
          <path id="Trazado_247111" data-name="Trazado 247111" d="M1136.414,347.57v6.38a.4.4,0,0,0,.4.4h10.807a.4.4,0,0,0,.2-.748l-10.807-6.38A.4.4,0,0,0,1136.414,347.57Z" fill="#fff"/>
          <rect id="Rectángulo_43475" data-name="Rectángulo 43475" width="0.42" height="5.757" transform="translate(1136.414 347.714)" fill="#fff"/>
          <path id="Trazado_247112" data-name="Trazado 247112" d="M1137.863,351.369a1.348,1.348,0,1,0,1.348-1.348A1.348,1.348,0,0,0,1137.863,351.369Z" fill="#fece16"/>
        </g>
        <path id="Rectángulo_43476" data-name="Rectángulo 43476" d="M0,0H2A0,0,0,0,1,2,0V0A2,2,0,0,1,0,2H0A0,0,0,0,1,0,2V0A0,0,0,0,1,0,0Z" transform="translate(1164.313 358.559) rotate(180)" fill="#fff"/>
        <path id="Trazado_247113" data-name="Trazado 247113" d="M1198.955,351.3V332.577a1.826,1.826,0,0,0-1.826-1.825h-7.177a1.824,1.824,0,0,0-1.718,1.208l-3.106,8.644a1.83,1.83,0,0,0-.108.618V351.3a1.827,1.827,0,0,0,1.826,1.826h10.283A1.827,1.827,0,0,0,1198.955,351.3Z" fill="#28acd3" stroke="#12263f" stroke-miterlimit="10" stroke-width="1"/>
        <rect id="Rectángulo_43477" data-name="Rectángulo 43477" width="0.41" height="15.152" transform="translate(1200.43 351.653) rotate(-180)" fill="#fff"/>
        <path id="Trazado_247114" data-name="Trazado 247114" d="M1189.035,339.9h7.2a1.2,1.2,0,0,0,.663-.2,1.166,1.166,0,0,0,.511-.964v-4.859a1.172,1.172,0,0,0-1.174-1.173h-5.514a1.136,1.136,0,0,0-.558.144,1.149,1.149,0,0,0-.544.642l-1.692,4.859A1.17,1.17,0,0,0,1189.035,339.9Z" fill="url(#linear-gradient)"/>
        <rect id="Rectángulo_43478" data-name="Rectángulo 43478" width="1.018" height="8.823" rx="0.509" transform="translate(1187.351 332.092)" fill="#fff"/>
        <rect id="Rectángulo_43479" data-name="Rectángulo 43479" width="0.601" height="9.468" transform="translate(1160.752 368.789) rotate(-180)" fill="#fece16"/>
        <path id="Rectángulo_43480" data-name="Rectángulo 43480" d="M0,0H6.557a0,0,0,0,1,0,0V8.86a2.409,2.409,0,0,1-2.409,2.409H2.409A2.409,2.409,0,0,1,0,8.86V0A0,0,0,0,1,0,0Z" transform="translate(1214.497 358.416) rotate(-180)" fill="#12263f"/>
        <path id="Rectángulo_43481" data-name="Rectángulo 43481" d="M0,0H4.427a0,0,0,0,1,0,0V9.29a1.979,1.979,0,0,1-1.979,1.979H1.98A1.98,1.98,0,0,1,0,9.29V0A0,0,0,0,1,0,0Z" transform="translate(1213.432 347.228) rotate(-180)" fill="#12263f"/>
        <path id="Rectángulo_43482" data-name="Rectángulo 43482" d="M0,0H2.327a0,0,0,0,1,0,0V23.866A1.163,1.163,0,0,1,1.163,25.03h0A1.163,1.163,0,0,1,0,23.866V0A0,0,0,0,1,0,0Z" transform="translate(1212.382 336.041) rotate(-180)" fill="#12263f"/>
        <g id="Grupo_122500" data-name="Grupo 122500">
          <path id="Rectángulo_43483" data-name="Rectángulo 43483" d="M1.878,0H20.916a1.878,1.878,0,0,1,1.878,1.878V6.286a0,0,0,0,1,0,0H0a0,0,0,0,1,0,0V1.878A1.878,1.878,0,0,1,1.878,0Z" transform="translate(1239.496 364.854) rotate(-180)" fill="#12263f"/>
          <rect id="Rectángulo_43484" data-name="Rectángulo 43484" width="0.513" height="6.286" transform="translate(1236.038 364.854) rotate(-180)" fill="url(#linear-gradient-2)"/>
          <rect id="Rectángulo_43485" data-name="Rectángulo 43485" width="0.513" height="6.286" transform="translate(1228.612 364.854) rotate(-180)" fill="url(#linear-gradient-3)"/>
          <rect id="Rectángulo_43486" data-name="Rectángulo 43486" width="0.513" height="6.286" transform="translate(1221.185 364.854) rotate(-180)" fill="url(#linear-gradient-4)"/>
        </g>
        <path id="Rectángulo_43487" data-name="Rectángulo 43487" d="M0,0H1.749a0,0,0,0,1,0,0V14.234A1.749,1.749,0,0,1,0,15.983H0a0,0,0,0,1,0,0V0A0,0,0,0,1,0,0Z" transform="translate(1138.037 358.239) rotate(180)" fill="#fff" stroke="#12263f" stroke-miterlimit="10" stroke-width="1"/>
        <g id="Grupo_122504" data-name="Grupo 122504">
          <g id="Grupo_122503" data-name="Grupo 122503">
            <g id="Grupo_122502" data-name="Grupo 122502">
              <circle id="Elipse_6059" data-name="Elipse 6059" cx="10.97" cy="10.97" r="10.97" transform="translate(1161.962 359.432) rotate(-13.283)"/>
              <circle id="Elipse_6060" data-name="Elipse 6060" cx="7.094" cy="7.094" r="7.094" transform="translate(1165.241 367.588) rotate(-45)" fill="url(#radial-gradient)"/>
              <g id="Grupo_122501" data-name="Grupo 122501">
                <path id="Trazado_247115" data-name="Trazado 247115" d="M1170.152,367.588a5.122,5.122,0,1,0,5.122-5.122A5.123,5.123,0,0,0,1170.152,367.588Zm.918-1.792a.2.2,0,0,1,.114.251,4.419,4.419,0,0,0-.206.733.2.2,0,0,1-.192.159.148.148,0,0,1-.036,0,.194.194,0,0,1-.155-.227,4.888,4.888,0,0,1,.223-.8A.2.2,0,0,1,1171.07,365.8Zm2.057-2.015a4.353,4.353,0,0,0-.627.431.2.2,0,0,1-.275-.027.2.2,0,0,1,.027-.275,4.735,4.735,0,0,1,.682-.468.2.2,0,0,1,.193.339Zm1.588-.729a.194.194,0,0,1-.16.225,4.333,4.333,0,0,0-.737.19.205.205,0,0,1-.065.01.195.195,0,0,1-.065-.379,4.8,4.8,0,0,1,.8-.206A.2.2,0,0,1,1174.715,363.052Zm1.583.082a.2.2,0,0,1-.192.159l-.036,0a4.33,4.33,0,0,0-.757-.073.2.2,0,0,1,0-.39h0a4.9,4.9,0,0,1,.824.079A.2.2,0,0,1,1176.3,363.134Zm1.458.618a.2.2,0,0,1-.168.095.2.2,0,0,1-.1-.027,4.313,4.313,0,0,0-.685-.327.195.195,0,1,1,.136-.365,4.669,4.669,0,0,1,.748.356A.2.2,0,0,1,1177.756,363.752Zm1.161,1.078a.2.2,0,0,1-.125.044.2.2,0,0,1-.151-.07,4.194,4.194,0,0,0-.533-.541.2.2,0,0,1,.253-.3,4.832,4.832,0,0,1,.582.589A.2.2,0,0,1,1178.917,364.83Zm.842,1.159a.194.194,0,0,1-.118.249.186.186,0,0,1-.065.012.2.2,0,0,1-.184-.129,4.373,4.373,0,0,0-.317-.692.194.194,0,0,1,.074-.266.2.2,0,0,1,.266.074A4.7,4.7,0,0,1,1179.759,365.989Zm.08,1.808a.208.208,0,0,1-.195-.209,4.432,4.432,0,0,0-.061-.732.195.195,0,1,1,.384-.065,4.786,4.786,0,0,1,.067.8v.028A.184.184,0,0,1,1179.839,367.8Zm-.35,1.558a.194.194,0,0,1-.115-.25,4.554,4.554,0,0,0,.2-.735.194.194,0,0,1,.227-.157.2.2,0,0,1,.157.228,4.879,4.879,0,0,1-.22.8.192.192,0,0,1-.182.127A.181.181,0,0,1,1179.489,369.355Zm-.88,1.057a4.144,4.144,0,0,0,.439-.619.2.2,0,0,1,.338.2,4.732,4.732,0,0,1-.479.676.2.2,0,0,1-.149.068.187.187,0,0,1-.126-.046A.2.2,0,0,1,1178.609,370.412Zm-1.164.969a4.349,4.349,0,0,0,.624-.434.2.2,0,1,1,.25.3,4.868,4.868,0,0,1-.68.473.188.188,0,0,1-.1.025.194.194,0,0,1-.1-.364Zm-1.584.739a.194.194,0,0,1,.159-.225,4.166,4.166,0,0,0,.735-.194.2.2,0,1,1,.133.367,4.553,4.553,0,0,1-.8.212l-.033,0A.193.193,0,0,1,1175.861,372.12Zm-1.584-.073a.2.2,0,0,1,.227-.157,4.453,4.453,0,0,0,.758.068.195.195,0,0,1,0,.39h0a4.739,4.739,0,0,1-.825-.074A.2.2,0,0,1,1174.277,372.047Zm-1.462-.608a.2.2,0,0,1,.267-.071,4.388,4.388,0,0,0,.687.323.2.2,0,0,1,.116.251.2.2,0,0,1-.251.116,4.771,4.771,0,0,1-.748-.352A.2.2,0,0,1,1172.815,371.439Zm-1.167-1.071a.2.2,0,0,1,.275.024,4.494,4.494,0,0,0,.537.54.195.195,0,0,1-.126.343.191.191,0,0,1-.127-.046,4.955,4.955,0,0,1-.583-.586A.2.2,0,0,1,1171.648,370.368Zm-.135-5.006a.193.193,0,0,1-.168.1.2.2,0,0,1-.1-.026.2.2,0,0,1-.068-.268,4.91,4.91,0,0,1,.483-.673.2.2,0,0,1,.3.255A4.478,4.478,0,0,0,1171.513,365.362Zm-.714,3.851a.2.2,0,1,1,.367-.133,4.254,4.254,0,0,0,.32.688.195.195,0,0,1-.169.293.2.2,0,0,1-.169-.1A4.659,4.659,0,0,1,1170.8,369.213Zm-.284-1.625v-.054a.195.195,0,0,1,.389,0v.054a4.453,4.453,0,0,0,.066.758.2.2,0,0,1-.158.225l-.034,0a.194.194,0,0,1-.192-.161A4.72,4.72,0,0,1,1170.515,367.588Z" fill="url(#radial-gradient-2)"/>
              </g>
              <path id="Trazado_247116" data-name="Trazado 247116" d="M1172.187,367.588a3.087,3.087,0,1,0,3.087-3.087A3.087,3.087,0,0,0,1172.187,367.588Z" fill="url(#linear-gradient-5)"/>
            </g>
          </g>
          <path id="Trazado_247117" data-name="Trazado 247117" d="M1160.534,366.232h4.209a10.45,10.45,0,0,1,20.748,0h4.216a14.64,14.64,0,0,0-29.173,0Z" fill="#28acd3" stroke="#12263f" stroke-miterlimit="10" stroke-width="1"/>
        </g>
        <g id="Grupo_122508" data-name="Grupo 122508">
          <g id="Grupo_122507" data-name="Grupo 122507">
            <g id="Grupo_122506" data-name="Grupo 122506">
              <circle id="Elipse_6061" data-name="Elipse 6061" cx="10.97" cy="10.97" r="10.97" transform="matrix(0.973, -0.23, 0.23, 0.973, 1139.09, 359.432)"/>
              <circle id="Elipse_6062" data-name="Elipse 6062" cx="7.094" cy="7.094" r="7.094" transform="translate(1142.37 367.588) rotate(-45)" fill="url(#radial-gradient-3)"/>
              <g id="Grupo_122505" data-name="Grupo 122505">
                <path id="Trazado_247118" data-name="Trazado 247118" d="M1147.28,367.588a5.122,5.122,0,1,0,5.123-5.122A5.123,5.123,0,0,0,1147.28,367.588Zm.918-1.792a.194.194,0,0,1,.114.251,4.528,4.528,0,0,0-.206.733.194.194,0,0,1-.191.159.147.147,0,0,1-.036,0,.193.193,0,0,1-.155-.227,4.78,4.78,0,0,1,.223-.8A.194.194,0,0,1,1148.2,365.8Zm2.057-2.015a4.408,4.408,0,0,0-.627.431.2.2,0,0,1-.247-.3,4.682,4.682,0,0,1,.682-.468.195.195,0,1,1,.192.339Zm1.589-.729a.2.2,0,0,1-.16.225,4.308,4.308,0,0,0-.737.19.21.21,0,0,1-.065.01.193.193,0,0,1-.184-.129.2.2,0,0,1,.119-.25,4.8,4.8,0,0,1,.8-.206A.2.2,0,0,1,1151.844,363.052Zm1.582.082a.2.2,0,0,1-.192.159l-.035,0a4.339,4.339,0,0,0-.757-.073.2.2,0,0,1,0-.39h0a4.923,4.923,0,0,1,.824.079A.2.2,0,0,1,1153.426,363.134Zm1.458.618a.2.2,0,0,1-.168.095.2.2,0,0,1-.1-.027,4.317,4.317,0,0,0-.686-.327.2.2,0,0,1-.114-.251.193.193,0,0,1,.251-.114,4.715,4.715,0,0,1,.748.356A.2.2,0,0,1,1154.884,363.752Zm1.161,1.078a.2.2,0,0,1-.275-.026,4.194,4.194,0,0,0-.533-.541.2.2,0,1,1,.253-.3,4.763,4.763,0,0,1,.581.589A.2.2,0,0,1,1156.045,364.83Zm.843,1.159a.2.2,0,0,1-.118.249.192.192,0,0,1-.066.012.194.194,0,0,1-.183-.129,4.462,4.462,0,0,0-.317-.692.195.195,0,1,1,.339-.192A4.689,4.689,0,0,1,1156.888,365.989Zm.079,1.808a.208.208,0,0,1-.194-.209,4.342,4.342,0,0,0-.062-.732.195.195,0,1,1,.384-.065,4.672,4.672,0,0,1,.067.8v.028A.184.184,0,0,1,1156.967,367.8Zm-.349,1.558a.193.193,0,0,1-.116-.25,4.444,4.444,0,0,0,.2-.735.2.2,0,0,1,.385.071,4.978,4.978,0,0,1-.22.8.194.194,0,0,1-.183.127A.176.176,0,0,1,1156.618,369.355Zm-.88,1.057a4.291,4.291,0,0,0,.439-.619.2.2,0,0,1,.338.2,4.742,4.742,0,0,1-.479.676.2.2,0,0,1-.149.068.192.192,0,0,1-.127-.046A.2.2,0,0,1,1155.738,370.412Zm-1.164.969a4.411,4.411,0,0,0,.624-.434.195.195,0,0,1,.249.3,4.8,4.8,0,0,1-.68.473.186.186,0,0,1-.1.025.194.194,0,0,1-.17-.1A.2.2,0,0,1,1154.574,371.381Zm-1.585.739a.2.2,0,0,1,.16-.225,4.192,4.192,0,0,0,.735-.194.2.2,0,1,1,.133.367,4.59,4.59,0,0,1-.8.212l-.033,0A.2.2,0,0,1,1152.989,372.12Zm-1.583-.073a.2.2,0,0,1,.227-.157,4.441,4.441,0,0,0,.757.068.195.195,0,0,1,0,.39h0a4.739,4.739,0,0,1-.825-.074A.2.2,0,0,1,1151.406,372.047Zm-1.462-.608a.194.194,0,0,1,.266-.071,4.362,4.362,0,0,0,.688.323.2.2,0,0,1-.135.367,4.827,4.827,0,0,1-.749-.352A.2.2,0,0,1,1149.944,371.439Zm-1.168-1.071a.2.2,0,0,1,.276.024,4.485,4.485,0,0,0,.537.54.195.195,0,0,1-.127.343.187.187,0,0,1-.126-.046,4.974,4.974,0,0,1-.584-.586A.2.2,0,0,1,1148.776,370.368Zm-.135-5.006a.192.192,0,0,1-.168.1.2.2,0,0,1-.1-.026.2.2,0,0,1-.068-.268,4.838,4.838,0,0,1,.483-.673.193.193,0,0,1,.275-.02.2.2,0,0,1,.021.275A4.413,4.413,0,0,0,1148.641,365.362Zm-.714,3.851a.2.2,0,1,1,.367-.133,4.269,4.269,0,0,0,.321.688.195.195,0,0,1-.169.293.2.2,0,0,1-.169-.1A4.653,4.653,0,0,1,1147.927,369.213Zm-.284-1.625v-.054a.2.2,0,0,1,.39,0v.054a4.356,4.356,0,0,0,.066.758.2.2,0,0,1-.159.225.188.188,0,0,1-.034,0,.2.2,0,0,1-.192-.161A4.828,4.828,0,0,1,1147.643,367.588Z" fill="url(#radial-gradient-4)"/>
              </g>
              <path id="Trazado_247119" data-name="Trazado 247119" d="M1149.316,367.588a3.087,3.087,0,1,0,3.087-3.087A3.087,3.087,0,0,0,1149.316,367.588Z" fill="url(#linear-gradient-6)"/>
            </g>
          </g>
          <path id="Trazado_247120" data-name="Trazado 247120" d="M1137.662,366.232h4.21a10.449,10.449,0,0,1,20.747,0h4.217a14.641,14.641,0,0,0-29.174,0Z" fill="#28acd3" stroke="#12263f" stroke-miterlimit="10" stroke-width="1"/>
        </g>
      </g>
      <path id="Trazado_247121" data-name="Trazado 247121" d="M1215.74,359.506h110.391c.459,0,.831-.587.831-1.312h0c0-.724-.372-1.311-.831-1.311H1215.74Z" transform="translate(-7785.657 -6933.91)"/>
      <path id="Trazado_247122" data-name="Trazado 247122" d="M1325.716,359.506h-82.5c3.2,0,5.944,3.121,7.069,7.541h75.432Z" transform="translate(-7785.657 -6933.91)" fill="#12263f"/>
      <path id="Trazado_247123" data-name="Trazado 247123" d="M1258.075,359.506l.065.046a10.041,10.041,0,0,1,1-.046Z" transform="translate(-7785.657 -6933.91)" fill="#b751bb"/>
      <g id="Grupo_122510" data-name="Grupo 122510" transform="translate(-7785.657 -6933.91)">
        <g id="Rectángulo_43488" data-name="Rectángulo 43488" transform="translate(1215.74 315.408)" fill="#fff" stroke="#12263f" stroke-miterlimit="10" stroke-width="2">
          <rect width="110.988" height="41.475" stroke="none"/>
          <rect x="1" y="1" width="108.988" height="39.475" fill="none"/>
        </g>
      </g>
      <path id="Trazado_247124" data-name="Trazado 247124" d="M1309,366.958l.944,5.1-.3,1.628-1.427-1.241-2.241-5.489Z" transform="translate(-7785.657 -6933.91)" fill="#12263f"/>
      <g id="Grupo_122513" data-name="Grupo 122513" transform="translate(-7785.657 -6933.91)">
        <g id="Grupo_122512" data-name="Grupo 122512">
          <circle id="Elipse_6063" data-name="Elipse 6063" cx="10.97" cy="10.97" r="10.97" transform="translate(1282.386 359.432) rotate(-13.283)"/>
          <circle id="Elipse_6064" data-name="Elipse 6064" cx="7.094" cy="7.094" r="7.094" transform="translate(1285.666 367.588) rotate(-45)" fill="url(#radial-gradient-5)"/>
          <g id="Grupo_122511" data-name="Grupo 122511">
            <path id="Trazado_247125" data-name="Trazado 247125" d="M1290.576,367.588a5.122,5.122,0,1,0,5.123-5.122A5.123,5.123,0,0,0,1290.576,367.588Zm.918-1.792a.194.194,0,0,1,.114.251,4.528,4.528,0,0,0-.206.733.194.194,0,0,1-.191.159.147.147,0,0,1-.036,0,.193.193,0,0,1-.155-.227,4.78,4.78,0,0,1,.223-.8A.194.194,0,0,1,1291.494,365.8Zm2.057-2.015a4.409,4.409,0,0,0-.627.431.2.2,0,0,1-.123.044.2.2,0,0,1-.124-.346,4.682,4.682,0,0,1,.682-.468.195.195,0,1,1,.192.339Zm1.589-.729a.2.2,0,0,1-.16.225,4.305,4.305,0,0,0-.737.19.211.211,0,0,1-.065.01.193.193,0,0,1-.184-.129.2.2,0,0,1,.119-.25,4.8,4.8,0,0,1,.8-.206A.2.2,0,0,1,1295.14,363.052Zm1.582.082a.2.2,0,0,1-.192.159l-.035,0a4.34,4.34,0,0,0-.757-.073.2.2,0,0,1,0-.39h0a4.923,4.923,0,0,1,.824.079A.2.2,0,0,1,1296.722,363.134Zm1.458.618a.2.2,0,0,1-.168.095.2.2,0,0,1-.1-.027,4.317,4.317,0,0,0-.686-.327.2.2,0,0,1-.114-.251.193.193,0,0,1,.251-.114,4.674,4.674,0,0,1,.748.356A.2.2,0,0,1,1298.18,363.752Zm1.161,1.078a.2.2,0,0,1-.275-.026,4.194,4.194,0,0,0-.533-.541.2.2,0,1,1,.253-.3,4.753,4.753,0,0,1,.581.589A.2.2,0,0,1,1299.341,364.83Zm.843,1.159a.2.2,0,0,1-.118.249.193.193,0,0,1-.249-.117,4.474,4.474,0,0,0-.317-.692.195.195,0,1,1,.339-.192A4.7,4.7,0,0,1,1300.184,365.989Zm.079,1.808a.208.208,0,0,1-.194-.209,4.329,4.329,0,0,0-.062-.732.2.2,0,1,1,.385-.065,4.773,4.773,0,0,1,.066.8v.028A.184.184,0,0,1,1300.263,367.8Zm-.349,1.558a.193.193,0,0,1-.116-.25,4.444,4.444,0,0,0,.2-.735.2.2,0,0,1,.385.071,4.966,4.966,0,0,1-.22.8.193.193,0,0,1-.183.127A.176.176,0,0,1,1299.914,369.355Zm-.88,1.057a4.3,4.3,0,0,0,.439-.619.2.2,0,0,1,.338.2,4.751,4.751,0,0,1-.479.676.2.2,0,0,1-.149.068.187.187,0,0,1-.126-.046A.2.2,0,0,1,1299.034,370.412Zm-1.164.969a4.411,4.411,0,0,0,.624-.434.195.195,0,0,1,.249.3,4.8,4.8,0,0,1-.68.473.186.186,0,0,1-.1.025.194.194,0,0,1-.17-.1A.2.2,0,0,1,1297.87,371.381Zm-1.585.739a.2.2,0,0,1,.16-.225,4.19,4.19,0,0,0,.735-.194.2.2,0,1,1,.133.367,4.59,4.59,0,0,1-.8.212l-.033,0A.2.2,0,0,1,1296.285,372.12Zm-1.583-.073a.2.2,0,0,1,.227-.157,4.444,4.444,0,0,0,.757.068.195.195,0,0,1,0,.39h0a4.739,4.739,0,0,1-.825-.074A.2.2,0,0,1,1294.7,372.047Zm-1.462-.608a.194.194,0,0,1,.266-.071,4.362,4.362,0,0,0,.688.323.2.2,0,0,1-.135.367,4.821,4.821,0,0,1-.749-.352A.2.2,0,0,1,1293.24,371.439Zm-1.168-1.071a.2.2,0,0,1,.276.024,4.485,4.485,0,0,0,.537.54.195.195,0,0,1-.127.343.187.187,0,0,1-.126-.046,4.983,4.983,0,0,1-.584-.586A.2.2,0,0,1,1292.072,370.368Zm-.135-5.006a.192.192,0,0,1-.168.1.2.2,0,0,1-.1-.026.2.2,0,0,1-.068-.268,4.838,4.838,0,0,1,.483-.673.193.193,0,0,1,.275-.02.2.2,0,0,1,.021.275A4.4,4.4,0,0,0,1291.937,365.362Zm-.714,3.851a.2.2,0,1,1,.367-.133,4.269,4.269,0,0,0,.321.688.195.195,0,0,1-.169.293.2.2,0,0,1-.169-.1A4.653,4.653,0,0,1,1291.223,369.213Zm-.284-1.625v-.054a.2.2,0,0,1,.39,0v.054a4.344,4.344,0,0,0,.066.758.2.2,0,0,1-.159.225.188.188,0,0,1-.034,0,.2.2,0,0,1-.192-.161A4.828,4.828,0,0,1,1290.939,367.588Z" fill="url(#radial-gradient-6)"/>
          </g>
          <path id="Trazado_247126" data-name="Trazado 247126" d="M1292.612,367.588a3.087,3.087,0,1,0,3.087-3.087A3.087,3.087,0,0,0,1292.612,367.588Z" fill="url(#linear-gradient-7)"/>
        </g>
      </g>
    </g>
  </g>
</svg>
