<svg xmlns="http://www.w3.org/2000/svg" xmlns:xlink="http://www.w3.org/1999/xlink" width="295" height="93" viewBox="0 0 295 93">
  <defs>
    <linearGradient id="linear-gradient" x1="-191.345" y1="0.5" x2="-190.345" y2="0.5" gradientUnits="objectBoundingBox">
      <stop offset="0"/>
      <stop offset="0.998" stop-color="#666"/>
    </linearGradient>
    <radialGradient id="radial-gradient" cx="0.5" cy="0.5" r="0.5" gradientTransform="matrix(-0.707, -0.707, -0.707, 0.707, -213.027, -88.239)" gradientUnits="objectBoundingBox">
      <stop offset="0.484" stop-color="#4d4d4d"/>
      <stop offset="0.66" stop-color="#8f8f8f"/>
      <stop offset="0.818" stop-color="#c4c4c4"/>
      <stop offset="0.935" stop-color="#e5e5e5"/>
      <stop offset="1" stop-color="#f2f2f2"/>
    </radialGradient>
    <radialGradient id="radial-gradient-2" cx="0.5" cy="0.5" r="0.5" gradientTransform="matrix(-1, 0, 0, 1, -346.621, 0)" gradientUnits="objectBoundingBox">
      <stop offset="0" stop-color="gray"/>
      <stop offset="1" stop-color="#f2f2f2"/>
    </radialGradient>
    <linearGradient id="linear-gradient-2" x1="-288.406" y1="0.5" x2="-287.406" y2="0.5" gradientTransform="matrix(1, 0, 0, 1, 0, 0)" xlink:href="#radial-gradient-2"/>
    <radialGradient id="radial-gradient-3" cx="0.5" cy="0.5" r="0.5" gradientTransform="matrix(-0.982, -0.189, -0.189, 0.982, -271.097, -25.895)" xlink:href="#radial-gradient"/>
    <radialGradient id="radial-gradient-4" cx="0.5" cy="0.5" r="0.5" gradientTransform="matrix(-1, 0, 0, 1, -379.414, 0)" xlink:href="#radial-gradient-2"/>
    <linearGradient id="linear-gradient-3" x1="-315.613" y1="0.5" x2="-314.613" y2="0.5" gradientTransform="matrix(1, 0, 0, 1, 0, 0)" xlink:href="#radial-gradient-2"/>
    <radialGradient id="radial-gradient-5" cx="0.5" cy="0.5" r="0.5" gradientTransform="matrix(-0.982, -0.189, -0.189, 0.982, -264.766, -25.29)" xlink:href="#radial-gradient"/>
    <radialGradient id="radial-gradient-6" cx="0.5" cy="0.5" r="0.5" gradientTransform="matrix(-1, 0, 0, 1, -370.565, 0)" xlink:href="#radial-gradient-2"/>
    <linearGradient id="linear-gradient-4" x1="-308.271" y1="0.5" x2="-307.271" y2="0.5" gradientTransform="matrix(1, 0, 0, 1, 0, 0)" xlink:href="#radial-gradient-2"/>
    <radialGradient id="radial-gradient-7" cx="0.5" cy="0.5" r="0.5" gradientTransform="matrix(-0.982, -0.189, -0.189, 0.982, -303.994, -29.037)" xlink:href="#radial-gradient"/>
    <radialGradient id="radial-gradient-8" cx="0.5" cy="0.5" r="0.5" gradientTransform="matrix(-1, 0, 0, 1, -425.384, 0)" xlink:href="#radial-gradient-2"/>
    <linearGradient id="linear-gradient-5" x1="-353.766" y1="0.5" x2="-352.766" y2="0.5" gradientTransform="matrix(1, 0, 0, 1, 0, 0)" xlink:href="#radial-gradient-2"/>
  </defs>
  <g id="Grupo_123183" data-name="Grupo 123183" transform="translate(-810 -5902)">
    <rect id="Rectángulo_42545" data-name="Rectángulo 42545" width="295" height="93" transform="translate(810 5902)" fill="#28acd3" opacity="0.25"/>
    <g id="Grupo_122590" data-name="Grupo 122590" transform="translate(-1065.842 5704.554)">
      <path id="Trazado_247190" data-name="Trazado 247190" d="M1977.538,257.039h20.59a2.9,2.9,0,0,0,.155-1.312h0a2.9,2.9,0,0,0-.155-1.311h-20.59Z"/>
      <path id="Trazado_247191" data-name="Trazado 247191" d="M2098.092,257.04h34.493c.143,0,.259-.824.259-1.84h0c0-1.016-.116-1.84-.259-1.84h-34.493Z"/>
      <path id="Trazado_247192" data-name="Trazado 247192" d="M1982.418,255.452h10.9a5.336,5.336,0,0,0,.082-1.311h0a5.341,5.341,0,0,0-.082-1.312h-10.9Z" fill="#12263f"/>
      <g id="Grupo_122579" data-name="Grupo 122579">
        <path id="Trazado_247193" data-name="Trazado 247193" d="M1938.279,223.4H1951.7v2.32h-15.737A2.32,2.32,0,0,1,1938.279,223.4Z" fill="#1ba2c1" stroke="#12263f" stroke-miterlimit="10" stroke-width="1"/>
        <g id="Grupo_122571" data-name="Grupo 122571">
          <path id="Trazado_247194" data-name="Trazado 247194" d="M1940.775,219.3h1.638a1.606,1.606,0,0,1,1.6,1.461l.239,2.644h-4.686v-2.9A1.21,1.21,0,0,1,1940.775,219.3Z" fill="#1ba2c1" stroke="#12263f" stroke-miterlimit="10" stroke-width="1"/>
          <rect id="Rectángulo_43542" data-name="Rectángulo 43542" width="0.871" height="2.643" transform="translate(1939.565 222.662) rotate(-180)" fill="#28acd3" stroke="#12263f" stroke-miterlimit="10" stroke-width="1"/>
        </g>
        <g id="Grupo_122572" data-name="Grupo 122572">
          <path id="Trazado_247195" data-name="Trazado 247195" d="M2012.164,261.706h-85.128v-5.433h85.128c2.06,0,3.73,1.217,3.73,2.717h0C2015.894,260.49,2014.224,261.706,2012.164,261.706Z" fill="#fff" stroke="#12263f" stroke-miterlimit="10" stroke-width="1"/>
          <g id="Rectángulo_43543" data-name="Rectángulo 43543" transform="translate(1968.437 257.875) rotate(-180)" fill="#12263f" stroke="#12263f" stroke-miterlimit="10" stroke-width="1">
            <rect width="33.422" height="1.673" stroke="none"/>
            <rect x="-0.5" y="-0.5" width="34.422" height="2.673" fill="none"/>
          </g>
        </g>
        <rect id="Rectángulo_43544" data-name="Rectángulo 43544" width="3.561" height="11.735" transform="translate(1907.004 268.076) rotate(-180)" fill="#fff" stroke="#12263f" stroke-miterlimit="10" stroke-width="1"/>
        <path id="Trazado_247196" data-name="Trazado 247196" d="M1907,240v16.053h26v.15h27.052V225.573h-23.511a2.843,2.843,0,0,0-.352.022,3.877,3.877,0,0,0-3.255,3.2l-1.593,8.467A3.42,3.42,0,0,1,1928,240Z" fill="#28acd3" stroke="#12263f" stroke-miterlimit="10" stroke-width="1"/>
        <g id="Grupo_122573" data-name="Grupo 122573">
          <path id="Trazado_247197" data-name="Trazado 247197" d="M1905.382,245.356v6.381a.4.4,0,0,0,.4.4h10.807a.4.4,0,0,0,.2-.748l-10.807-6.38A.4.4,0,0,0,1905.382,245.356Z" fill="#fff"/>
          <rect id="Rectángulo_43545" data-name="Rectángulo 43545" width="0.42" height="5.757" transform="translate(1905.382 245.501)" fill="#fff"/>
          <path id="Trazado_247198" data-name="Trazado 247198" d="M1906.831,249.156a1.348,1.348,0,1,0,1.348-1.348A1.348,1.348,0,0,0,1906.831,249.156Z" fill="#fece16"/>
        </g>
        <path id="Rectángulo_43546" data-name="Rectángulo 43546" d="M0,0H2A0,0,0,0,1,2,0V0A2,2,0,0,1,0,2H0A0,0,0,0,1,0,2V0A0,0,0,0,1,0,0Z" transform="translate(1907.004 256.346) rotate(-180)" fill="#fff"/>
        <path id="Trazado_247199" data-name="Trazado 247199" d="M1947.557,249.09V230.364a1.825,1.825,0,0,0-1.826-1.825h-7.177a1.825,1.825,0,0,0-1.718,1.208l-3.106,8.644a1.832,1.832,0,0,0-.108.617V249.09a1.826,1.826,0,0,0,1.826,1.825h10.283A1.825,1.825,0,0,0,1947.557,249.09Z" fill="#28acd3" stroke="#12263f" stroke-miterlimit="10" stroke-width="1"/>
        <rect id="Rectángulo_43547" data-name="Rectángulo 43547" width="0.41" height="15.152" transform="translate(1949.032 249.44) rotate(-180)" fill="#fff"/>
        <path id="Trazado_247200" data-name="Trazado 247200" d="M1937.638,237.684h7.2a1.193,1.193,0,0,0,.662-.2,1.166,1.166,0,0,0,.511-.964v-4.859a1.172,1.172,0,0,0-1.173-1.174h-5.515a1.139,1.139,0,0,0-.558.145,1.153,1.153,0,0,0-.544.642l-1.692,4.859A1.169,1.169,0,0,0,1937.638,237.684Z" fill="url(#linear-gradient)"/>
        <rect id="Rectángulo_43548" data-name="Rectángulo 43548" width="1.018" height="8.823" rx="0.509" transform="translate(1935.953 229.879)" fill="#fff"/>
        <rect id="Rectángulo_43549" data-name="Rectángulo 43549" width="0.601" height="9.468" transform="translate(1903.443 266.576) rotate(-180)" fill="#fece16"/>
        <g id="Rectángulo_43550" data-name="Rectángulo 43550" transform="translate(1963.721 254.954) rotate(-180)" fill="#12263f" stroke="#010102" stroke-miterlimit="10" stroke-width="1">
          <path d="M0,0H9.819a0,0,0,0,1,0,0V9.187A2.409,2.409,0,0,1,7.41,11.6h-5A2.409,2.409,0,0,1,0,9.187V0A0,0,0,0,1,0,0Z" stroke="none"/>
          <path d="M0-.5H9.819a.5.5,0,0,1,.5.5V9.187A2.909,2.909,0,0,1,7.41,12.1h-5A2.909,2.909,0,0,1-.5,9.187V0A.5.5,0,0,1,0-.5Z" fill="none"/>
        </g>
        <g id="Rectángulo_43551" data-name="Rectángulo 43551" transform="translate(1962.126 244.691) rotate(-180)" fill="#12263f" stroke="#010102" stroke-miterlimit="10" stroke-width="1">
          <path d="M0,0H6.629a0,0,0,0,1,0,0V9.617A1.979,1.979,0,0,1,4.65,11.6H1.98A1.98,1.98,0,0,1,0,9.617V0A0,0,0,0,1,0,0Z" stroke="none"/>
          <path d="M0-.5H6.629a.5.5,0,0,1,.5.5V9.617A2.479,2.479,0,0,1,4.65,12.1H1.98A2.48,2.48,0,0,1-.5,9.617V0A.5.5,0,0,1,0-.5Z" fill="none"/>
        </g>
        <g id="Rectángulo_43552" data-name="Rectángulo 43552" transform="translate(1960.553 233.201) rotate(-180)" fill="#12263f" stroke="#010102" stroke-miterlimit="10" stroke-width="1">
          <path d="M0,0H3.484a0,0,0,0,1,0,0V24.592a1.163,1.163,0,0,1-1.163,1.163H1.163A1.163,1.163,0,0,1,0,24.592V0A0,0,0,0,1,0,0Z" stroke="none"/>
          <path d="M0-.5H3.484a.5.5,0,0,1,.5.5V24.592a1.663,1.663,0,0,1-1.663,1.663H1.163A1.663,1.663,0,0,1-.5,24.592V0A.5.5,0,0,1,0-.5Z" fill="none"/>
        </g>
        <g id="Grupo_122574" data-name="Grupo 122574">
          <g id="Rectángulo_43553" data-name="Rectángulo 43553" transform="translate(1982.188 262.641) rotate(-180)" fill="#12263f" stroke="#010102" stroke-miterlimit="10" stroke-width="1">
            <path d="M1.878,0H20.916a1.878,1.878,0,0,1,1.878,1.878V6.286a0,0,0,0,1,0,0H0a0,0,0,0,1,0,0V1.878A1.878,1.878,0,0,1,1.878,0Z" stroke="none"/>
            <path d="M1.878-.5H20.916a2.378,2.378,0,0,1,2.378,2.378V6.286a.5.5,0,0,1-.5.5H0a.5.5,0,0,1-.5-.5V1.878A2.378,2.378,0,0,1,1.878-.5Z" fill="none"/>
          </g>
          <g id="Rectángulo_43554" data-name="Rectángulo 43554" transform="translate(1978.73 262.641) rotate(-180)" fill="#12263f" stroke="#010102" stroke-miterlimit="10" stroke-width="1">
            <rect width="0.513" height="6.286" stroke="none"/>
            <rect x="-0.5" y="-0.5" width="1.513" height="7.286" fill="none"/>
          </g>
          <g id="Rectángulo_43555" data-name="Rectángulo 43555" transform="translate(1971.303 262.641) rotate(-180)" fill="#12263f" stroke="#010102" stroke-miterlimit="10" stroke-width="1">
            <rect width="0.513" height="6.286" stroke="none"/>
            <rect x="-0.5" y="-0.5" width="1.513" height="7.286" fill="none"/>
          </g>
          <g id="Rectángulo_43556" data-name="Rectángulo 43556" transform="translate(1963.877 262.641) rotate(-180)" fill="#12263f" stroke="#010102" stroke-miterlimit="10" stroke-width="1">
            <rect width="0.513" height="6.286" stroke="none"/>
            <rect x="-0.5" y="-0.5" width="1.513" height="7.286" fill="none"/>
          </g>
        </g>
        <path id="Rectángulo_43557" data-name="Rectángulo 43557" d="M0,0H1.749a0,0,0,0,1,0,0V14.234A1.749,1.749,0,0,1,0,15.983H0a0,0,0,0,1,0,0V0A0,0,0,0,1,0,0Z" transform="translate(1907.005 256.026) rotate(-180)" fill="#fff" stroke="#12263f" stroke-miterlimit="10" stroke-width="1"/>
        <g id="Grupo_122578" data-name="Grupo 122578">
          <g id="Grupo_122577" data-name="Grupo 122577">
            <g id="Grupo_122576" data-name="Grupo 122576">
              <circle id="Elipse_6087" data-name="Elipse 6087" cx="10.97" cy="10.97" r="10.97" transform="matrix(0.973, -0.23, 0.23, 0.973, 1904.653, 257.219)"/>
              <circle id="Elipse_6088" data-name="Elipse 6088" cx="7.094" cy="7.094" r="7.094" transform="translate(1907.933 265.375) rotate(-45)" fill="url(#radial-gradient)"/>
              <g id="Grupo_122575" data-name="Grupo 122575">
                <path id="Trazado_247201" data-name="Trazado 247201" d="M1912.843,265.375a5.122,5.122,0,1,0,5.123-5.123A5.123,5.123,0,0,0,1912.843,265.375Zm.918-1.792a.2.2,0,0,1,.114.251,4.528,4.528,0,0,0-.206.733.194.194,0,0,1-.191.159.146.146,0,0,1-.036,0,.194.194,0,0,1-.155-.228,4.8,4.8,0,0,1,.223-.8A.194.194,0,0,1,1913.761,263.583Zm2.057-2.015a4.4,4.4,0,0,0-.627.43.191.191,0,0,1-.124.045.2.2,0,0,1-.123-.346,4.606,4.606,0,0,1,.682-.468.195.195,0,1,1,.192.339Zm1.589-.729a.193.193,0,0,1-.16.224,4.409,4.409,0,0,0-.737.191.21.21,0,0,1-.065.01.2.2,0,0,1-.185-.13.2.2,0,0,1,.12-.249,4.805,4.805,0,0,1,.8-.206A.2.2,0,0,1,1917.407,260.839Zm1.582.082a.2.2,0,0,1-.192.159l-.035,0a4.345,4.345,0,0,0-.757-.073.195.195,0,0,1,0-.39h0a4.928,4.928,0,0,1,.825.079A.2.2,0,0,1,1918.989,260.921Zm1.458.618a.2.2,0,0,1-.168.1.2.2,0,0,1-.1-.027,4.326,4.326,0,0,0-.686-.327.2.2,0,0,1,.137-.366,4.757,4.757,0,0,1,.748.357A.2.2,0,0,1,1920.447,261.539Zm1.161,1.078a.2.2,0,0,1-.275-.026,4.265,4.265,0,0,0-.533-.542.195.195,0,1,1,.252-.3,4.766,4.766,0,0,1,.582.589A.2.2,0,0,1,1921.608,262.617Zm.843,1.159a.2.2,0,0,1-.118.249.191.191,0,0,1-.066.011.193.193,0,0,1-.183-.129,4.492,4.492,0,0,0-.317-.691.2.2,0,0,1,.073-.266.2.2,0,0,1,.266.073A4.751,4.751,0,0,1,1922.451,263.776Zm.079,1.808a.208.208,0,0,1-.2-.209,4.333,4.333,0,0,0-.061-.732.195.195,0,1,1,.384-.066,4.692,4.692,0,0,1,.067.8v.028A.184.184,0,0,1,1922.53,265.584Zm-.349,1.558a.193.193,0,0,1-.116-.25,4.542,4.542,0,0,0,.2-.735.194.194,0,0,1,.228-.157.2.2,0,0,1,.157.228,4.979,4.979,0,0,1-.22.8.2.2,0,0,1-.183.127A.176.176,0,0,1,1922.181,267.142Zm-.88,1.057a4.347,4.347,0,0,0,.439-.619.2.2,0,0,1,.338.2,4.73,4.73,0,0,1-.479.676.2.2,0,0,1-.3-.253Zm-1.165.969a4.365,4.365,0,0,0,.625-.434.193.193,0,0,1,.274.025.2.2,0,0,1-.025.275,4.862,4.862,0,0,1-.68.473.2.2,0,0,1-.1.025.193.193,0,0,1-.169-.1A.2.2,0,0,1,1920.136,269.168Zm-1.584.739a.2.2,0,0,1,.159-.225,4.144,4.144,0,0,0,.735-.194.2.2,0,1,1,.134.367,4.59,4.59,0,0,1-.8.211l-.033,0A.2.2,0,0,1,1918.552,269.907Zm-1.583-.073a.2.2,0,0,1,.227-.157,4.429,4.429,0,0,0,.757.068.2.2,0,0,1,0,.39h0a4.742,4.742,0,0,1-.825-.074A.2.2,0,0,1,1916.969,269.834Zm-1.463-.608a.2.2,0,0,1,.267-.071,4.355,4.355,0,0,0,.688.323.2.2,0,0,1-.068.378.2.2,0,0,1-.068-.011,4.816,4.816,0,0,1-.748-.353A.2.2,0,0,1,1915.506,269.226Zm-1.167-1.071a.2.2,0,0,1,.276.024,4.476,4.476,0,0,0,.536.539.195.195,0,0,1-.126.344.192.192,0,0,1-.126-.046,4.972,4.972,0,0,1-.584-.586A.2.2,0,0,1,1914.339,268.155Zm-.135-5.006a.194.194,0,0,1-.168.1.19.19,0,0,1-.1-.027.2.2,0,0,1-.069-.267,5,5,0,0,1,.483-.673.2.2,0,0,1,.3.255A4.412,4.412,0,0,0,1914.2,263.149ZM1913.49,267a.2.2,0,0,1,.367-.133,4.338,4.338,0,0,0,.32.688.194.194,0,0,1-.07.266.188.188,0,0,1-.1.026.193.193,0,0,1-.169-.1A4.614,4.614,0,0,1,1913.49,267Zm-.284-1.625v-.054a.195.195,0,1,1,.39,0v.054a4.344,4.344,0,0,0,.066.757.2.2,0,0,1-.159.226.19.19,0,0,1-.034,0,.2.2,0,0,1-.192-.161A4.732,4.732,0,0,1,1913.206,265.375Z" fill="url(#radial-gradient-2)"/>
              </g>
              <path id="Trazado_247202" data-name="Trazado 247202" d="M1914.879,265.375a3.087,3.087,0,1,0,3.087-3.087A3.087,3.087,0,0,0,1914.879,265.375Z" fill="url(#linear-gradient-2)"/>
            </g>
          </g>
          <path id="Trazado_247203" data-name="Trazado 247203" d="M1903.225,264.019h4.21a10.449,10.449,0,0,1,20.747,0h4.217a14.64,14.64,0,0,0-29.174,0Z" fill="#28acd3" stroke="#12263f" stroke-miterlimit="10" stroke-width="1"/>
        </g>
      </g>
      <path id="Trazado_247204" data-name="Trazado 247204" d="M2133.242,257.292h-35.187c1.365,0,2.535,3.121,3.015,7.541h32.172Z" fill="#12263f"/>
      <path id="Trazado_247205" data-name="Trazado 247205" d="M2000.766,257.293l.066.046a10.021,10.021,0,0,1,1-.046Z" fill="#b751bb"/>
      <g id="Grupo_122580" data-name="Grupo 122580">
        <g id="Rectángulo_43558" data-name="Rectángulo 43558" transform="translate(1972.485 212.143)" fill="#fff" stroke="#12263f" stroke-miterlimit="10" stroke-width="2">
          <rect width="171.792" height="41.475" stroke="none"/>
          <rect x="1" y="1" width="169.792" height="39.475" fill="none"/>
        </g>
      </g>
      <g id="Grupo_122583" data-name="Grupo 122583">
        <g id="Grupo_122582" data-name="Grupo 122582">
          <circle id="Elipse_6089" data-name="Elipse 6089" cx="10.97" cy="10.97" r="10.97" transform="matrix(0.784, -0.62, 0.62, 0.784, 1986.426, 263.579)"/>
          <circle id="Elipse_6090" data-name="Elipse 6090" cx="7.094" cy="7.094" r="7.094" transform="translate(1993.642 259.752) rotate(-10.912)" fill="url(#radial-gradient-3)"/>
          <g id="Grupo_122581" data-name="Grupo 122581">
            <path id="Trazado_247206" data-name="Trazado 247206" d="M1996.829,265.375a5.122,5.122,0,1,0,5.122-5.123A5.123,5.123,0,0,0,1996.829,265.375Zm.917-1.792a.194.194,0,0,1,.115.251,4.418,4.418,0,0,0-.206.733.2.2,0,0,1-.192.159.146.146,0,0,1-.036,0,.194.194,0,0,1-.155-.228,4.8,4.8,0,0,1,.223-.8A.194.194,0,0,1,1997.746,263.583Zm2.058-2.015a4.35,4.35,0,0,0-.627.43.2.2,0,0,1-.124.045.2.2,0,0,1-.151-.071.2.2,0,0,1,.027-.275,4.606,4.606,0,0,1,.682-.468.2.2,0,1,1,.193.339Zm1.588-.729a.193.193,0,0,1-.16.224,4.435,4.435,0,0,0-.737.191.205.205,0,0,1-.065.01.2.2,0,0,1-.065-.379,4.805,4.805,0,0,1,.8-.206A.2.2,0,0,1,2001.392,260.839Zm1.583.082a.2.2,0,0,1-.192.159.218.218,0,0,1-.036,0,4.336,4.336,0,0,0-.757-.073.195.195,0,0,1,0-.39h0a4.907,4.907,0,0,1,.824.079A.2.2,0,0,1,2002.975,260.921Zm1.458.618a.2.2,0,0,1-.168.1.2.2,0,0,1-.1-.027,4.285,4.285,0,0,0-.686-.327.2.2,0,0,1,.137-.366,4.671,4.671,0,0,1,.748.357A.2.2,0,0,1,2004.433,261.539Zm1.161,1.078a.2.2,0,0,1-.276-.026,4.265,4.265,0,0,0-.533-.542.2.2,0,1,1,.253-.3,4.827,4.827,0,0,1,.582.589A.2.2,0,0,1,2005.594,262.617Zm.842,1.159a.194.194,0,0,1-.118.249.185.185,0,0,1-.065.011.2.2,0,0,1-.184-.129,4.4,4.4,0,0,0-.317-.691.2.2,0,0,1,.339-.193A4.74,4.74,0,0,1,2006.436,263.776Zm.08,1.808a.208.208,0,0,1-.195-.209,4.32,4.32,0,0,0-.062-.732.2.2,0,0,1,.385-.066,4.807,4.807,0,0,1,.067.8v.028A.184.184,0,0,1,2006.516,265.584Zm-.35,1.558a.193.193,0,0,1-.115-.25,4.554,4.554,0,0,0,.2-.735.193.193,0,0,1,.227-.157.2.2,0,0,1,.157.228,4.979,4.979,0,0,1-.22.8.194.194,0,0,1-.183.127A.176.176,0,0,1,2006.166,267.142Zm-.88,1.057a4.2,4.2,0,0,0,.439-.619.2.2,0,0,1,.338.2,4.73,4.73,0,0,1-.479.676.2.2,0,0,1-.149.068.192.192,0,0,1-.126-.046A.2.2,0,0,1,2005.286,268.2Zm-1.164.969a4.4,4.4,0,0,0,.624-.434.195.195,0,1,1,.249.3,4.858,4.858,0,0,1-.679.473.2.2,0,0,1-.1.025.195.195,0,0,1-.1-.364Zm-1.584.739a.194.194,0,0,1,.159-.225,4.166,4.166,0,0,0,.735-.194.2.2,0,1,1,.133.367,4.574,4.574,0,0,1-.8.211l-.033,0A.193.193,0,0,1,2002.538,269.907Zm-1.584-.073a.2.2,0,0,1,.227-.157,4.447,4.447,0,0,0,.757.068.2.2,0,0,1,0,.39h0a4.742,4.742,0,0,1-.825-.074A.2.2,0,0,1,2000.954,269.834Zm-1.462-.608a.2.2,0,0,1,.267-.071,4.385,4.385,0,0,0,.687.323.2.2,0,0,1-.135.367,4.775,4.775,0,0,1-.748-.353A.194.194,0,0,1,1999.492,269.226Zm-1.167-1.071a.2.2,0,0,1,.275.024,4.414,4.414,0,0,0,.537.539.2.2,0,0,1-.127.344.192.192,0,0,1-.126-.046,4.88,4.88,0,0,1-.583-.586A.2.2,0,0,1,1998.325,268.155Zm-.135-5.006a.2.2,0,0,1-.168.1.191.191,0,0,1-.1-.027.2.2,0,0,1-.068-.267,4.908,4.908,0,0,1,.483-.673.194.194,0,0,1,.275-.021.2.2,0,0,1,.021.276A4.477,4.477,0,0,0,1998.19,263.149Zm-.714,3.851a.2.2,0,1,1,.367-.133,4.172,4.172,0,0,0,.32.688.194.194,0,0,1-.071.266.185.185,0,0,1-.1.026.2.2,0,0,1-.169-.1A4.609,4.609,0,0,1,1997.476,267Zm-.284-1.625v-.054a.195.195,0,1,1,.389,0v.054a4.441,4.441,0,0,0,.066.757.2.2,0,0,1-.159.226l-.033,0a.194.194,0,0,1-.192-.161A4.732,4.732,0,0,1,1997.192,265.375Z" fill="url(#radial-gradient-4)"/>
          </g>
          <path id="Trazado_247207" data-name="Trazado 247207" d="M1998.864,265.375a3.087,3.087,0,1,0,3.087-3.087A3.087,3.087,0,0,0,1998.864,265.375Z" fill="url(#linear-gradient-3)"/>
        </g>
      </g>
      <g id="Grupo_122586" data-name="Grupo 122586">
        <g id="Grupo_122585" data-name="Grupo 122585">
          <circle id="Elipse_6091" data-name="Elipse 6091" cx="10.97" cy="10.97" r="10.97" transform="matrix(0.784, -0.62, 0.62, 0.784, 1963.764, 263.579)"/>
          <circle id="Elipse_6092" data-name="Elipse 6092" cx="7.094" cy="7.094" r="7.094" transform="translate(1970.98 259.752) rotate(-10.912)" fill="url(#radial-gradient-5)"/>
          <g id="Grupo_122584" data-name="Grupo 122584">
            <path id="Trazado_247208" data-name="Trazado 247208" d="M1974.167,265.375a5.122,5.122,0,1,0,5.122-5.123A5.123,5.123,0,0,0,1974.167,265.375Zm.918-1.792a.194.194,0,0,1,.114.251,4.418,4.418,0,0,0-.206.733.2.2,0,0,1-.192.159.146.146,0,0,1-.036,0,.2.2,0,0,1-.155-.228,4.811,4.811,0,0,1,.224-.8A.193.193,0,0,1,1975.085,263.583Zm2.057-2.015a4.35,4.35,0,0,0-.627.43.2.2,0,0,1-.124.045.2.2,0,0,1-.151-.071.2.2,0,0,1,.027-.275,4.658,4.658,0,0,1,.682-.468.2.2,0,0,1,.193.339Zm1.588-.729a.193.193,0,0,1-.16.224,4.434,4.434,0,0,0-.737.191.206.206,0,0,1-.065.01.2.2,0,0,1-.065-.379,4.805,4.805,0,0,1,.8-.206A.2.2,0,0,1,1978.73,260.839Zm1.583.082a.2.2,0,0,1-.192.159.218.218,0,0,1-.036,0,4.334,4.334,0,0,0-.756-.073.195.195,0,0,1,0-.39h0a4.907,4.907,0,0,1,.824.079A.2.2,0,0,1,1980.313,260.921Zm1.458.618a.2.2,0,0,1-.168.1.2.2,0,0,1-.1-.027,4.315,4.315,0,0,0-.685-.327.2.2,0,0,1,.136-.366,4.671,4.671,0,0,1,.748.357A.2.2,0,0,1,1981.771,261.539Zm1.161,1.078a.2.2,0,0,1-.125.044.2.2,0,0,1-.15-.07,4.339,4.339,0,0,0-.534-.542.2.2,0,1,1,.253-.3,4.827,4.827,0,0,1,.582.589A.2.2,0,0,1,1982.932,262.617Zm.842,1.159a.194.194,0,0,1-.118.249.185.185,0,0,1-.065.011.194.194,0,0,1-.184-.129,4.4,4.4,0,0,0-.317-.691.2.2,0,0,1,.074-.266.2.2,0,0,1,.266.073A4.66,4.66,0,0,1,1983.774,263.776Zm.08,1.808a.208.208,0,0,1-.195-.209,4.436,4.436,0,0,0-.061-.732.195.195,0,0,1,.384-.066,4.807,4.807,0,0,1,.067.8v.028A.184.184,0,0,1,1983.854,265.584Zm-.35,1.558a.193.193,0,0,1-.115-.25,4.554,4.554,0,0,0,.2-.735.193.193,0,0,1,.227-.157.2.2,0,0,1,.157.228,4.879,4.879,0,0,1-.22.8.194.194,0,0,1-.182.127A.18.18,0,0,1,1983.5,267.142Zm-.88,1.057a4.2,4.2,0,0,0,.439-.619.2.2,0,0,1,.338.2,4.73,4.73,0,0,1-.479.676.2.2,0,0,1-.149.068.192.192,0,0,1-.126-.046A.2.2,0,0,1,1982.624,268.2Zm-1.164.969a4.349,4.349,0,0,0,.624-.434.2.2,0,1,1,.25.3,4.868,4.868,0,0,1-.68.473.2.2,0,0,1-.1.025.195.195,0,0,1-.1-.364Zm-1.584.739a.2.2,0,0,1,.159-.225,4.166,4.166,0,0,0,.735-.194.2.2,0,1,1,.133.367,4.554,4.554,0,0,1-.8.211l-.033,0A.193.193,0,0,1,1979.876,269.907Zm-1.584-.073a.2.2,0,0,1,.227-.157,4.45,4.45,0,0,0,.758.068.2.2,0,0,1,0,.39h0a4.743,4.743,0,0,1-.825-.074A.2.2,0,0,1,1978.292,269.834Zm-1.462-.608a.2.2,0,0,1,.267-.071,4.385,4.385,0,0,0,.687.323.2.2,0,0,1-.135.367,4.775,4.775,0,0,1-.748-.353A.194.194,0,0,1,1976.83,269.226Zm-1.167-1.071a.2.2,0,0,1,.275.024,4.414,4.414,0,0,0,.537.539.2.2,0,0,1,.022.276.193.193,0,0,1-.148.068.2.2,0,0,1-.127-.046,4.953,4.953,0,0,1-.583-.586A.2.2,0,0,1,1975.663,268.155Zm-.135-5.006a.194.194,0,0,1-.168.1.191.191,0,0,1-.1-.027.2.2,0,0,1-.068-.267,4.908,4.908,0,0,1,.483-.673.194.194,0,0,1,.275-.021.2.2,0,0,1,.021.276A4.487,4.487,0,0,0,1975.528,263.149Zm-.714,3.851a.2.2,0,1,1,.367-.133,4.253,4.253,0,0,0,.32.688.193.193,0,0,1-.071.266.185.185,0,0,1-.1.026.2.2,0,0,1-.169-.1A4.609,4.609,0,0,1,1974.814,267Zm-.284-1.625v-.054a.194.194,0,1,1,.389,0v.054a4.441,4.441,0,0,0,.066.757.2.2,0,0,1-.158.226l-.034,0a.194.194,0,0,1-.192-.161A4.732,4.732,0,0,1,1974.53,265.375Z" fill="url(#radial-gradient-6)"/>
          </g>
          <path id="Trazado_247209" data-name="Trazado 247209" d="M1976.2,265.375a3.087,3.087,0,1,0,3.087-3.087A3.087,3.087,0,0,0,1976.2,265.375Z" fill="url(#linear-gradient-4)"/>
        </g>
      </g>
      <g id="Grupo_122589" data-name="Grupo 122589">
        <g id="Grupo_122588" data-name="Grupo 122588">
          <circle id="Elipse_6093" data-name="Elipse 6093" cx="10.97" cy="10.97" r="10.97" transform="matrix(0.784, -0.62, 0.62, 0.784, 2104.182, 263.579)"/>
          <circle id="Elipse_6094" data-name="Elipse 6094" cx="7.094" cy="7.094" r="7.094" transform="translate(2111.398 259.752) rotate(-10.912)" fill="url(#radial-gradient-7)"/>
          <g id="Grupo_122587" data-name="Grupo 122587">
            <path id="Trazado_247210" data-name="Trazado 247210" d="M2114.585,265.375a5.123,5.123,0,1,0,5.122-5.123A5.123,5.123,0,0,0,2114.585,265.375Zm.918-1.792a.194.194,0,0,1,.114.251,4.442,4.442,0,0,0-.206.733.2.2,0,0,1-.192.159.145.145,0,0,1-.036,0,.194.194,0,0,1-.155-.228,4.808,4.808,0,0,1,.223-.8A.2.2,0,0,1,2115.5,263.583Zm2.057-2.015a4.343,4.343,0,0,0-.627.43.2.2,0,0,1-.124.045.2.2,0,0,1-.151-.071.2.2,0,0,1,.027-.275,4.65,4.65,0,0,1,.682-.468.2.2,0,1,1,.193.339Zm1.588-.729a.193.193,0,0,1-.16.224,4.435,4.435,0,0,0-.737.191.205.205,0,0,1-.065.01.2.2,0,0,1-.065-.379,4.8,4.8,0,0,1,.8-.206A.2.2,0,0,1,2119.148,260.839Zm1.583.082a.2.2,0,0,1-.192.159.219.219,0,0,1-.036,0,4.332,4.332,0,0,0-.756-.073.195.195,0,0,1,0-.39h0a4.905,4.905,0,0,1,.824.079A.2.2,0,0,1,2120.731,260.921Zm1.458.618a.2.2,0,0,1-.168.1.2.2,0,0,1-.1-.027,4.3,4.3,0,0,0-.685-.327.2.2,0,0,1,.136-.366,4.676,4.676,0,0,1,.748.357A.2.2,0,0,1,2122.189,261.539Zm1.161,1.078a.2.2,0,0,1-.276-.026,4.265,4.265,0,0,0-.533-.542.2.2,0,0,1,.253-.3,4.836,4.836,0,0,1,.582.589A.2.2,0,0,1,2123.35,262.617Zm.842,1.159a.194.194,0,0,1-.118.249.185.185,0,0,1-.065.011.2.2,0,0,1-.184-.129,4.4,4.4,0,0,0-.317-.691.2.2,0,0,1,.074-.266.2.2,0,0,1,.266.073A4.724,4.724,0,0,1,2124.192,263.776Zm.08,1.808a.208.208,0,0,1-.2-.209,4.45,4.45,0,0,0-.061-.732.195.195,0,1,1,.384-.066,4.781,4.781,0,0,1,.067.8v.028A.184.184,0,0,1,2124.272,265.584Zm-.35,1.558a.194.194,0,0,1-.115-.25,4.542,4.542,0,0,0,.2-.735.193.193,0,0,1,.227-.157.2.2,0,0,1,.157.228,4.879,4.879,0,0,1-.22.8.194.194,0,0,1-.182.127A.18.18,0,0,1,2123.922,267.142Zm-.88,1.057a4.2,4.2,0,0,0,.439-.619.2.2,0,0,1,.338.2,4.759,4.759,0,0,1-.479.676.2.2,0,0,1-.149.068.193.193,0,0,1-.126-.046A.2.2,0,0,1,2123.042,268.2Zm-1.164.969a4.356,4.356,0,0,0,.624-.434.2.2,0,1,1,.25.3,4.853,4.853,0,0,1-.68.473.2.2,0,0,1-.1.025.195.195,0,0,1-.1-.364Zm-1.584.739a.194.194,0,0,1,.159-.225,4.168,4.168,0,0,0,.735-.194.2.2,0,0,1,.133.367,4.557,4.557,0,0,1-.8.211l-.033,0A.194.194,0,0,1,2120.294,269.907Zm-1.584-.073a.2.2,0,0,1,.227-.157,4.451,4.451,0,0,0,.758.068.2.2,0,0,1,0,.39h0a4.744,4.744,0,0,1-.825-.074A.2.2,0,0,1,2118.71,269.834Zm-1.462-.608a.2.2,0,0,1,.267-.071,4.4,4.4,0,0,0,.687.323.2.2,0,0,1-.135.367,4.773,4.773,0,0,1-.748-.353A.194.194,0,0,1,2117.248,269.226Zm-1.167-1.071a.2.2,0,0,1,.275.024,4.415,4.415,0,0,0,.537.539.2.2,0,0,1-.253.3,4.971,4.971,0,0,1-.583-.586A.2.2,0,0,1,2116.081,268.155Zm-.135-5.006a.2.2,0,0,1-.168.1.191.191,0,0,1-.1-.027.2.2,0,0,1-.068-.267,4.907,4.907,0,0,1,.483-.673.194.194,0,0,1,.275-.021.2.2,0,0,1,.021.276A4.486,4.486,0,0,0,2115.946,263.149Zm-.714,3.851a.2.2,0,1,1,.367-.133,4.253,4.253,0,0,0,.32.688.194.194,0,0,1-.071.266.185.185,0,0,1-.1.026.2.2,0,0,1-.169-.1A4.61,4.61,0,0,1,2115.232,267Zm-.284-1.625v-.054a.194.194,0,1,1,.389,0v.054a4.441,4.441,0,0,0,.066.757.2.2,0,0,1-.158.226l-.034,0a.194.194,0,0,1-.192-.161A4.72,4.72,0,0,1,2114.948,265.375Z" fill="url(#radial-gradient-8)"/>
          </g>
          <path id="Trazado_247211" data-name="Trazado 247211" d="M2116.62,265.375a3.087,3.087,0,1,0,3.087-3.087A3.087,3.087,0,0,0,2116.62,265.375Z" fill="url(#linear-gradient-5)"/>
        </g>
      </g>
      <rect id="Rectángulo_43559" data-name="Rectángulo 43559" width="4.363" height="7.486" transform="translate(2024.582 253.361)" fill="#fff" stroke="#12263f" stroke-miterlimit="10" stroke-width="1"/>
      <path id="Trazado_247212" data-name="Trazado 247212" d="M2133.2,264.745l.944,5.1-.3,1.628-1.427-1.241-2.241-5.489Z" fill="#12263f"/>
      <path id="Trazado_247213" data-name="Trazado 247213" d="M2014.949,261.361l.944,5.1-.3,1.628-1.427-1.241-2.241-5.489Z" fill="#12263f"/>
    </g>
  </g>
</svg>
