<svg xmlns="http://www.w3.org/2000/svg" xmlns:xlink="http://www.w3.org/1999/xlink" width="295" height="93" viewBox="0 0 295 93">
  <defs>
    <linearGradient id="linear-gradient" x1="-191.345" y1="0.5" x2="-190.345" y2="0.5" gradientUnits="objectBoundingBox">
      <stop offset="0"/>
      <stop offset="0.998" stop-color="#666"/>
    </linearGradient>
    <radialGradient id="radial-gradient" cx="0.5" cy="0.5" r="0.5" gradientTransform="matrix(-0.707, -0.707, -0.707, 0.707, -213.027, -88.239)" gradientUnits="objectBoundingBox">
      <stop offset="0.484" stop-color="#4d4d4d"/>
      <stop offset="0.66" stop-color="#8f8f8f"/>
      <stop offset="0.818" stop-color="#c4c4c4"/>
      <stop offset="0.935" stop-color="#e5e5e5"/>
      <stop offset="1" stop-color="#f2f2f2"/>
    </radialGradient>
    <radialGradient id="radial-gradient-2" cx="0.5" cy="0.5" r="0.5" gradientTransform="matrix(-1, 0, 0, 1, -346.605, 0)" gradientUnits="objectBoundingBox">
      <stop offset="0" stop-color="gray"/>
      <stop offset="1" stop-color="#f2f2f2"/>
    </radialGradient>
    <linearGradient id="linear-gradient-2" x1="-288.406" y1="0.5" x2="-287.406" y2="0.5" gradientTransform="matrix(1, 0, 0, 1, 0, 0)" xlink:href="#radial-gradient-2"/>
    <radialGradient id="radial-gradient-3" cx="0.5" cy="0.5" r="0.5" gradientTransform="matrix(-0.982, -0.189, -0.189, 0.982, -271.097, -25.895)" xlink:href="#radial-gradient"/>
    <radialGradient id="radial-gradient-4" cx="0.5" cy="0.5" r="0.5" gradientTransform="matrix(-1, 0, 0, 1, -379.396, 0)" xlink:href="#radial-gradient-2"/>
    <linearGradient id="linear-gradient-3" x1="-315.613" y1="0.5" x2="-314.613" y2="0.5" gradientTransform="matrix(1, 0, 0, 1, 0, 0)" xlink:href="#radial-gradient-2"/>
    <radialGradient id="radial-gradient-5" cx="0.5" cy="0.5" r="0.5" gradientTransform="matrix(-0.982, -0.189, -0.189, 0.982, -264.766, -25.29)" xlink:href="#radial-gradient"/>
    <radialGradient id="radial-gradient-6" cx="0.5" cy="0.5" r="0.5" gradientTransform="matrix(-1, 0, 0, 1, -370.548, 0)" xlink:href="#radial-gradient-2"/>
    <linearGradient id="linear-gradient-4" x1="-308.271" y1="0.5" x2="-307.271" y2="0.5" gradientTransform="matrix(1, 0, 0, 1, 0, 0)" xlink:href="#radial-gradient-2"/>
    <radialGradient id="radial-gradient-7" cx="0.5" cy="0.5" r="0.5" gradientTransform="matrix(-0.982, -0.189, -0.189, 0.982, -303.994, -29.037)" xlink:href="#radial-gradient"/>
    <radialGradient id="radial-gradient-8" cx="0.5" cy="0.5" r="0.5" gradientTransform="matrix(-1, 0, 0, 1, -425.364, 0)" xlink:href="#radial-gradient-2"/>
    <linearGradient id="linear-gradient-5" x1="-353.766" y1="0.5" x2="-352.766" y2="0.5" gradientTransform="matrix(1, 0, 0, 1, 0, 0)" xlink:href="#radial-gradient-2"/>
    <radialGradient id="radial-gradient-9" cx="0.5" cy="0.5" r="0.5" gradientTransform="matrix(-0.982, -0.189, -0.189, 0.982, -297.503, -28.417)" xlink:href="#radial-gradient"/>
    <radialGradient id="radial-gradient-10" cx="0.5" cy="0.5" r="0.5" gradientTransform="matrix(-1, 0, 0, 1, -416.308, 0)" xlink:href="#radial-gradient-2"/>
    <linearGradient id="linear-gradient-6" x1="-346.225" y1="0.5" x2="-345.225" y2="0.5" gradientTransform="matrix(1, 0, 0, 1, 0, 0)" xlink:href="#radial-gradient-2"/>
  </defs>
  <g id="Grupo_123184" data-name="Grupo 123184" transform="translate(-810 -6016)">
    <rect id="Rectángulo_42547" data-name="Rectángulo 42547" width="295" height="93" transform="translate(810 6016)" fill="#28acd3" opacity="0.25"/>
    <g id="Grupo_122613" data-name="Grupo 122613" transform="translate(-1065.842 5710.324)">
      <path id="Trazado_247214" data-name="Trazado 247214" d="M1977.538,365.269h20.59a2.9,2.9,0,0,0,.155-1.312h0a2.9,2.9,0,0,0-.155-1.311h-20.59Z"/>
      <path id="Trazado_247215" data-name="Trazado 247215" d="M2084.433,365.27h47.9c.2,0,.36-.824.36-1.84h0c0-1.016-.161-1.839-.36-1.839h-47.9Z"/>
      <path id="Trazado_247216" data-name="Trazado 247216" d="M1982.418,363.682h10.9a5.341,5.341,0,0,0,.082-1.312h0a5.336,5.336,0,0,0-.082-1.311h-10.9Z" fill="#12263f"/>
      <g id="Grupo_122599" data-name="Grupo 122599">
        <path id="Trazado_247217" data-name="Trazado 247217" d="M1938.279,331.633H1951.7v2.32h-15.737A2.32,2.32,0,0,1,1938.279,331.633Z" fill="#1ba2c1" stroke="#12263f" stroke-miterlimit="10" stroke-width="1"/>
        <g id="Grupo_122591" data-name="Grupo 122591">
          <path id="Trazado_247218" data-name="Trazado 247218" d="M1940.775,327.528h1.638a1.606,1.606,0,0,1,1.6,1.461l.239,2.644h-4.686v-2.895A1.21,1.21,0,0,1,1940.775,327.528Z" fill="#1ba2c1" stroke="#12263f" stroke-miterlimit="10" stroke-width="1"/>
          <rect id="Rectángulo_43560" data-name="Rectángulo 43560" width="0.871" height="2.643" transform="translate(1939.565 330.892) rotate(-180)" fill="#28acd3" stroke="#12263f" stroke-miterlimit="10" stroke-width="1"/>
        </g>
        <g id="Grupo_122592" data-name="Grupo 122592">
          <path id="Trazado_247219" data-name="Trazado 247219" d="M2012.164,369.936h-85.128V364.5h85.128c2.06,0,3.73,1.216,3.73,2.717h0C2015.894,368.72,2014.224,369.936,2012.164,369.936Z" fill="#fff" stroke="#12263f" stroke-miterlimit="10" stroke-width="1"/>
          <g id="Rectángulo_43561" data-name="Rectángulo 43561" transform="translate(1968.437 366.105) rotate(-180)" fill="#12263f" stroke="#12263f" stroke-miterlimit="10" stroke-width="1">
            <rect width="33.422" height="1.673" stroke="none"/>
            <rect x="-0.5" y="-0.5" width="34.422" height="2.673" fill="none"/>
          </g>
        </g>
        <rect id="Rectángulo_43562" data-name="Rectángulo 43562" width="3.561" height="11.735" transform="translate(1907.004 376.306) rotate(-180)" fill="#fff" stroke="#12263f" stroke-miterlimit="10" stroke-width="1"/>
        <path id="Trazado_247220" data-name="Trazado 247220" d="M1907,348.229v16.052h26v.151h27.052V333.8h-23.511a3.044,3.044,0,0,0-.352.021,3.879,3.879,0,0,0-3.255,3.2l-1.593,8.467a3.421,3.421,0,0,1-3.351,2.741Z" fill="#28acd3" stroke="#12263f" stroke-miterlimit="10" stroke-width="1"/>
        <g id="Grupo_122593" data-name="Grupo 122593">
          <path id="Trazado_247221" data-name="Trazado 247221" d="M1905.382,353.586v6.381a.4.4,0,0,0,.4.4h10.807a.4.4,0,0,0,.2-.748l-10.807-6.38A.4.4,0,0,0,1905.382,353.586Z" fill="#fff"/>
          <rect id="Rectángulo_43563" data-name="Rectángulo 43563" width="0.42" height="5.757" transform="translate(1905.382 353.731)" fill="#fff"/>
          <path id="Trazado_247222" data-name="Trazado 247222" d="M1906.831,357.386a1.348,1.348,0,1,0,1.348-1.348A1.348,1.348,0,0,0,1906.831,357.386Z" fill="#fece16"/>
        </g>
        <path id="Rectángulo_43564" data-name="Rectángulo 43564" d="M0,0H2A0,0,0,0,1,2,0V0A2,2,0,0,1,0,2H0A0,0,0,0,1,0,2V0A0,0,0,0,1,0,0Z" transform="translate(1907.004 364.575) rotate(-180)" fill="#fff"/>
        <path id="Trazado_247223" data-name="Trazado 247223" d="M1947.557,357.32V338.594a1.826,1.826,0,0,0-1.826-1.826h-7.177a1.826,1.826,0,0,0-1.718,1.209l-3.106,8.644a1.832,1.832,0,0,0-.108.617V357.32a1.826,1.826,0,0,0,1.826,1.825h10.283A1.825,1.825,0,0,0,1947.557,357.32Z" fill="#28acd3" stroke="#12263f" stroke-miterlimit="10" stroke-width="1"/>
        <rect id="Rectángulo_43565" data-name="Rectángulo 43565" width="0.41" height="15.152" transform="translate(1949.032 357.67) rotate(-180)" fill="#fff"/>
        <path id="Trazado_247224" data-name="Trazado 247224" d="M1937.638,345.914h7.2a1.193,1.193,0,0,0,.662-.2,1.166,1.166,0,0,0,.511-.964v-4.859a1.172,1.172,0,0,0-1.173-1.174h-5.515a1.139,1.139,0,0,0-.558.145,1.152,1.152,0,0,0-.544.642l-1.692,4.859A1.169,1.169,0,0,0,1937.638,345.914Z" fill="url(#linear-gradient)"/>
        <rect id="Rectángulo_43566" data-name="Rectángulo 43566" width="1.018" height="8.823" rx="0.509" transform="translate(1935.953 338.109)" fill="#fff"/>
        <rect id="Rectángulo_43567" data-name="Rectángulo 43567" width="0.601" height="9.468" transform="translate(1903.443 374.806) rotate(-180)" fill="#fece16"/>
        <g id="Rectángulo_43568" data-name="Rectángulo 43568" transform="translate(1963.721 363.184) rotate(-180)" fill="#12263f" stroke="#010102" stroke-miterlimit="10" stroke-width="1">
          <path d="M0,0H9.819a0,0,0,0,1,0,0V9.187A2.409,2.409,0,0,1,7.41,11.6h-5A2.409,2.409,0,0,1,0,9.187V0A0,0,0,0,1,0,0Z" stroke="none"/>
          <path d="M0-.5H9.819a.5.5,0,0,1,.5.5V9.187A2.909,2.909,0,0,1,7.41,12.1h-5A2.909,2.909,0,0,1-.5,9.187V0A.5.5,0,0,1,0-.5Z" fill="none"/>
        </g>
        <g id="Rectángulo_43569" data-name="Rectángulo 43569" transform="translate(1962.126 352.921) rotate(-180)" fill="#12263f" stroke="#010102" stroke-miterlimit="10" stroke-width="1">
          <path d="M0,0H6.629a0,0,0,0,1,0,0V9.617A1.979,1.979,0,0,1,4.65,11.6H1.98A1.98,1.98,0,0,1,0,9.617V0A0,0,0,0,1,0,0Z" stroke="none"/>
          <path d="M0-.5H6.629a.5.5,0,0,1,.5.5V9.617A2.479,2.479,0,0,1,4.65,12.1H1.98A2.48,2.48,0,0,1-.5,9.617V0A.5.5,0,0,1,0-.5Z" fill="none"/>
        </g>
        <g id="Rectángulo_43570" data-name="Rectángulo 43570" transform="translate(1960.553 341.431) rotate(-180)" fill="#12263f" stroke="#010102" stroke-miterlimit="10" stroke-width="1">
          <path d="M0,0H3.484a0,0,0,0,1,0,0V24.592a1.163,1.163,0,0,1-1.163,1.163H1.163A1.163,1.163,0,0,1,0,24.592V0A0,0,0,0,1,0,0Z" stroke="none"/>
          <path d="M0-.5H3.484a.5.5,0,0,1,.5.5V24.592a1.663,1.663,0,0,1-1.663,1.663H1.163A1.663,1.663,0,0,1-.5,24.592V0A.5.5,0,0,1,0-.5Z" fill="none"/>
        </g>
        <g id="Grupo_122594" data-name="Grupo 122594">
          <g id="Rectángulo_43571" data-name="Rectángulo 43571" transform="translate(1982.188 370.871) rotate(-180)" fill="#12263f" stroke="#010102" stroke-miterlimit="10" stroke-width="1">
            <path d="M1.878,0H20.916a1.878,1.878,0,0,1,1.878,1.878V6.286a0,0,0,0,1,0,0H0a0,0,0,0,1,0,0V1.878A1.878,1.878,0,0,1,1.878,0Z" stroke="none"/>
            <path d="M1.878-.5H20.916a2.378,2.378,0,0,1,2.378,2.378V6.286a.5.5,0,0,1-.5.5H0a.5.5,0,0,1-.5-.5V1.878A2.378,2.378,0,0,1,1.878-.5Z" fill="none"/>
          </g>
          <g id="Rectángulo_43572" data-name="Rectángulo 43572" transform="translate(1978.73 370.871) rotate(-180)" fill="#12263f" stroke="#010102" stroke-miterlimit="10" stroke-width="1">
            <rect width="0.513" height="6.286" stroke="none"/>
            <rect x="-0.5" y="-0.5" width="1.513" height="7.286" fill="none"/>
          </g>
          <g id="Rectángulo_43573" data-name="Rectángulo 43573" transform="translate(1971.303 370.871) rotate(-180)" fill="#12263f" stroke="#010102" stroke-miterlimit="10" stroke-width="1">
            <rect width="0.513" height="6.286" stroke="none"/>
            <rect x="-0.5" y="-0.5" width="1.513" height="7.286" fill="none"/>
          </g>
          <g id="Rectángulo_43574" data-name="Rectángulo 43574" transform="translate(1963.877 370.871) rotate(-180)" fill="#12263f" stroke="#010102" stroke-miterlimit="10" stroke-width="1">
            <rect width="0.513" height="6.286" stroke="none"/>
            <rect x="-0.5" y="-0.5" width="1.513" height="7.286" fill="none"/>
          </g>
        </g>
        <path id="Rectángulo_43575" data-name="Rectángulo 43575" d="M0,0H1.749a0,0,0,0,1,0,0V14.234A1.749,1.749,0,0,1,0,15.983H0a0,0,0,0,1,0,0V0A0,0,0,0,1,0,0Z" transform="translate(1907.005 364.255) rotate(-180)" fill="#fff" stroke="#12263f" stroke-miterlimit="10" stroke-width="1"/>
        <g id="Grupo_122598" data-name="Grupo 122598">
          <g id="Grupo_122597" data-name="Grupo 122597">
            <g id="Grupo_122596" data-name="Grupo 122596">
              <circle id="Elipse_6095" data-name="Elipse 6095" cx="10.97" cy="10.97" r="10.97" transform="matrix(0.973, -0.23, 0.23, 0.973, 1904.653, 365.449)"/>
              <circle id="Elipse_6096" data-name="Elipse 6096" cx="7.094" cy="7.094" r="7.094" transform="translate(1907.933 373.605) rotate(-45)" fill="url(#radial-gradient)"/>
              <g id="Grupo_122595" data-name="Grupo 122595">
                <path id="Trazado_247225" data-name="Trazado 247225" d="M1912.843,373.605a5.122,5.122,0,1,0,5.123-5.123A5.123,5.123,0,0,0,1912.843,373.605Zm.918-1.792a.2.2,0,0,1,.114.251,4.528,4.528,0,0,0-.206.733.194.194,0,0,1-.191.158.146.146,0,0,1-.036,0,.194.194,0,0,1-.155-.228,4.8,4.8,0,0,1,.223-.8A.194.194,0,0,1,1913.761,371.813Zm2.057-2.015a4.4,4.4,0,0,0-.627.43.19.19,0,0,1-.124.044.195.195,0,0,1-.123-.345,4.6,4.6,0,0,1,.682-.468.195.195,0,1,1,.192.339Zm1.589-.729a.194.194,0,0,1-.16.224,4.406,4.406,0,0,0-.737.191.21.21,0,0,1-.065.01.2.2,0,0,1-.185-.13.2.2,0,0,1,.12-.249,4.8,4.8,0,0,1,.8-.206A.2.2,0,0,1,1917.407,369.069Zm1.582.081a.2.2,0,0,1-.192.16l-.035,0a4.339,4.339,0,0,0-.757-.073.2.2,0,0,1,0-.39h0a4.821,4.821,0,0,1,.825.079A.2.2,0,0,1,1918.989,369.15Zm1.458.619a.2.2,0,0,1-.168.1.2.2,0,0,1-.1-.027,4.323,4.323,0,0,0-.686-.327.2.2,0,0,1,.137-.366,4.757,4.757,0,0,1,.748.357A.2.2,0,0,1,1920.447,369.769Zm1.161,1.077a.193.193,0,0,1-.124.045.2.2,0,0,1-.151-.071,4.324,4.324,0,0,0-.533-.541.195.195,0,1,1,.252-.3,4.769,4.769,0,0,1,.582.589A.2.2,0,0,1,1921.608,370.846Zm.843,1.16a.2.2,0,0,1-.118.249.191.191,0,0,1-.066.011.193.193,0,0,1-.183-.129,4.45,4.45,0,0,0-.317-.691.2.2,0,0,1,.073-.266.2.2,0,0,1,.266.073A4.71,4.71,0,0,1,1922.451,372.006Zm.079,1.807a.207.207,0,0,1-.2-.208,4.333,4.333,0,0,0-.061-.732.195.195,0,1,1,.384-.066,4.683,4.683,0,0,1,.067.8v.027A.183.183,0,0,1,1922.53,373.813Zm-.349,1.559a.193.193,0,0,1-.116-.25,4.541,4.541,0,0,0,.2-.735.194.194,0,0,1,.228-.157.2.2,0,0,1,.157.228,4.978,4.978,0,0,1-.22.8.2.2,0,0,1-.183.127A.2.2,0,0,1,1922.181,375.372Zm-.88,1.057a4.347,4.347,0,0,0,.439-.619.2.2,0,0,1,.338.2,4.685,4.685,0,0,1-.479.677.2.2,0,0,1-.3-.253Zm-1.165.969a4.363,4.363,0,0,0,.625-.434.195.195,0,1,1,.249.3,4.785,4.785,0,0,1-.68.474.2.2,0,0,1-.1.025.195.195,0,0,1-.1-.364Zm-1.584.739a.2.2,0,0,1,.159-.225,4.232,4.232,0,0,0,.735-.194.2.2,0,1,1,.134.367,4.677,4.677,0,0,1-.8.211.182.182,0,0,1-.033,0A.2.2,0,0,1,1918.552,378.137Zm-1.583-.073a.2.2,0,0,1,.227-.157,4.432,4.432,0,0,0,.757.068.195.195,0,0,1,0,.39h0a4.736,4.736,0,0,1-.825-.074A.2.2,0,0,1,1916.969,378.064Zm-1.463-.608a.2.2,0,0,1,.267-.071,4.358,4.358,0,0,0,.688.323.2.2,0,0,1-.068.378.231.231,0,0,1-.068-.011,4.816,4.816,0,0,1-.748-.353A.2.2,0,0,1,1915.506,377.456Zm-1.167-1.071a.2.2,0,0,1,.276.024,4.476,4.476,0,0,0,.536.539.195.195,0,0,1-.126.344.192.192,0,0,1-.126-.046,4.974,4.974,0,0,1-.584-.586A.2.2,0,0,1,1914.339,376.385Zm-.135-5.006a.194.194,0,0,1-.168.1.19.19,0,0,1-.1-.027.2.2,0,0,1-.069-.267,5,5,0,0,1,.483-.673.194.194,0,0,1,.276-.021.2.2,0,0,1,.021.276A4.413,4.413,0,0,0,1914.2,371.379Zm-.714,3.851a.2.2,0,0,1,.367-.134,4.309,4.309,0,0,0,.32.689.194.194,0,0,1-.07.266.188.188,0,0,1-.1.026.193.193,0,0,1-.169-.1A4.654,4.654,0,0,1,1913.49,375.23Zm-.284-1.625v-.054a.195.195,0,1,1,.39,0v.054a4.344,4.344,0,0,0,.066.757.2.2,0,0,1-.159.226.19.19,0,0,1-.034,0,.2.2,0,0,1-.192-.161A4.731,4.731,0,0,1,1913.206,373.605Z" fill="url(#radial-gradient-2)"/>
              </g>
              <path id="Trazado_247226" data-name="Trazado 247226" d="M1914.879,373.605a3.087,3.087,0,1,0,3.087-3.087A3.087,3.087,0,0,0,1914.879,373.605Z" fill="url(#linear-gradient-2)"/>
            </g>
          </g>
          <path id="Trazado_247227" data-name="Trazado 247227" d="M1903.225,372.248h4.21a10.449,10.449,0,0,1,20.747,0h4.217a14.641,14.641,0,0,0-29.174,0Z" fill="#28acd3" stroke="#12263f" stroke-miterlimit="10" stroke-width="1"/>
        </g>
      </g>
      <path id="Trazado_247228" data-name="Trazado 247228" d="M2133.242,365.522h-48.86c1.9,0,3.52,3.122,4.186,7.541h44.674Z" fill="#12263f"/>
      <path id="Trazado_247229" data-name="Trazado 247229" d="M2000.766,365.523l.066.046a10.021,10.021,0,0,1,1-.046Z" fill="#b751bb"/>
      <g id="Grupo_122600" data-name="Grupo 122600">
        <g id="Rectángulo_43576" data-name="Rectángulo 43576" transform="translate(1972.485 320.373)" fill="#fff" stroke="#12263f" stroke-miterlimit="10" stroke-width="2">
          <rect width="171.792" height="41.475" stroke="none"/>
          <rect x="1" y="1" width="169.792" height="39.475" fill="none"/>
        </g>
      </g>
      <g id="Grupo_122603" data-name="Grupo 122603">
        <g id="Grupo_122602" data-name="Grupo 122602">
          <circle id="Elipse_6097" data-name="Elipse 6097" cx="10.97" cy="10.97" r="10.97" transform="matrix(0.784, -0.62, 0.62, 0.784, 1986.426, 371.809)"/>
          <circle id="Elipse_6098" data-name="Elipse 6098" cx="7.094" cy="7.094" r="7.094" transform="translate(1993.642 367.982) rotate(-10.912)" fill="url(#radial-gradient-3)"/>
          <g id="Grupo_122601" data-name="Grupo 122601">
            <path id="Trazado_247230" data-name="Trazado 247230" d="M1996.829,373.605a5.122,5.122,0,1,0,5.122-5.123A5.122,5.122,0,0,0,1996.829,373.605Zm.917-1.792a.194.194,0,0,1,.115.251,4.419,4.419,0,0,0-.206.733.2.2,0,0,1-.192.158.147.147,0,0,1-.036,0,.194.194,0,0,1-.155-.228,4.8,4.8,0,0,1,.223-.8A.194.194,0,0,1,1997.746,371.813Zm2.058-2.015a4.347,4.347,0,0,0-.627.43.2.2,0,1,1-.248-.3,4.6,4.6,0,0,1,.682-.468.2.2,0,1,1,.193.339Zm1.588-.729a.194.194,0,0,1-.16.224,4.432,4.432,0,0,0-.737.191.205.205,0,0,1-.065.01.2.2,0,0,1-.065-.379,4.8,4.8,0,0,1,.8-.206A.2.2,0,0,1,2001.392,369.069Zm1.583.081a.2.2,0,0,1-.192.16l-.036,0a4.33,4.33,0,0,0-.757-.073.2.2,0,0,1,0-.39h0a4.8,4.8,0,0,1,.824.079A.2.2,0,0,1,2002.975,369.15Zm1.458.619a.2.2,0,0,1-.168.1.2.2,0,0,1-.1-.027,4.283,4.283,0,0,0-.686-.327.2.2,0,0,1,.137-.366,4.671,4.671,0,0,1,.748.357A.2.2,0,0,1,2004.433,369.769Zm1.161,1.077a.2.2,0,0,1-.276-.026,4.324,4.324,0,0,0-.533-.541.2.2,0,1,1,.253-.3,4.83,4.83,0,0,1,.582.589A.2.2,0,0,1,2005.594,370.846Zm.842,1.16a.194.194,0,0,1-.118.249.185.185,0,0,1-.065.011.194.194,0,0,1-.184-.129,4.361,4.361,0,0,0-.317-.691.194.194,0,0,1,.074-.266.2.2,0,0,1,.265.073A4.7,4.7,0,0,1,2006.436,372.006Zm.08,1.807a.207.207,0,0,1-.195-.208,4.32,4.32,0,0,0-.062-.732.2.2,0,0,1,.385-.066,4.8,4.8,0,0,1,.067.8v.027A.184.184,0,0,1,2006.516,373.813Zm-.35,1.559a.194.194,0,0,1-.115-.25,4.553,4.553,0,0,0,.2-.735.193.193,0,0,1,.227-.157.2.2,0,0,1,.157.228,4.978,4.978,0,0,1-.22.8.194.194,0,0,1-.183.127A.2.2,0,0,1,2006.166,375.372Zm-.88,1.057a4.2,4.2,0,0,0,.439-.619.2.2,0,0,1,.338.2,4.685,4.685,0,0,1-.479.677.2.2,0,0,1-.149.068.193.193,0,0,1-.126-.046A.2.2,0,0,1,2005.286,376.429Zm-1.164.969a4.4,4.4,0,0,0,.624-.434.195.195,0,1,1,.249.3,4.782,4.782,0,0,1-.679.474.2.2,0,0,1-.267-.073A.2.2,0,0,1,2004.122,377.4Zm-1.584.739a.194.194,0,0,1,.159-.225,4.255,4.255,0,0,0,.735-.194.2.2,0,1,1,.133.367,4.661,4.661,0,0,1-.8.211l-.033,0A.193.193,0,0,1,2002.538,378.137Zm-1.584-.073a.2.2,0,0,1,.227-.157,4.45,4.45,0,0,0,.757.068.195.195,0,0,1,0,.39h0a4.736,4.736,0,0,1-.825-.074A.2.2,0,0,1,2000.954,378.064Zm-1.462-.608a.2.2,0,0,1,.267-.071,4.388,4.388,0,0,0,.687.323.195.195,0,0,1-.068.378.224.224,0,0,1-.067-.011,4.776,4.776,0,0,1-.748-.353A.194.194,0,0,1,1999.492,377.456Zm-1.167-1.071a.2.2,0,0,1,.275.024,4.414,4.414,0,0,0,.537.539.2.2,0,0,1-.127.344.192.192,0,0,1-.126-.046,4.882,4.882,0,0,1-.583-.586A.2.2,0,0,1,1998.325,376.385Zm-.135-5.006a.2.2,0,0,1-.168.1.191.191,0,0,1-.1-.027.2.2,0,0,1-.068-.267,4.91,4.91,0,0,1,.483-.673.193.193,0,0,1,.275-.021.2.2,0,0,1,.021.276A4.478,4.478,0,0,0,1998.19,371.379Zm-.714,3.851a.2.2,0,0,1,.367-.134,4.145,4.145,0,0,0,.32.689.194.194,0,0,1-.071.266.185.185,0,0,1-.1.026.2.2,0,0,1-.169-.1A4.649,4.649,0,0,1,1997.476,375.23Zm-.284-1.625v-.054a.195.195,0,1,1,.389,0v.054a4.441,4.441,0,0,0,.066.757.2.2,0,0,1-.159.226l-.033,0a.194.194,0,0,1-.192-.161A4.731,4.731,0,0,1,1997.192,373.605Z" fill="url(#radial-gradient-4)"/>
          </g>
          <path id="Trazado_247231" data-name="Trazado 247231" d="M1998.864,373.605a3.087,3.087,0,1,0,3.087-3.087A3.087,3.087,0,0,0,1998.864,373.605Z" fill="url(#linear-gradient-3)"/>
        </g>
      </g>
      <g id="Grupo_122606" data-name="Grupo 122606">
        <g id="Grupo_122605" data-name="Grupo 122605">
          <circle id="Elipse_6099" data-name="Elipse 6099" cx="10.97" cy="10.97" r="10.97" transform="matrix(0.784, -0.62, 0.62, 0.784, 1963.764, 371.809)"/>
          <circle id="Elipse_6100" data-name="Elipse 6100" cx="7.094" cy="7.094" r="7.094" transform="translate(1970.98 367.982) rotate(-10.912)" fill="url(#radial-gradient-5)"/>
          <g id="Grupo_122604" data-name="Grupo 122604">
            <path id="Trazado_247232" data-name="Trazado 247232" d="M1974.167,373.605a5.122,5.122,0,1,0,5.122-5.123A5.122,5.122,0,0,0,1974.167,373.605Zm.918-1.792a.2.2,0,0,1,.114.251,4.419,4.419,0,0,0-.206.733.2.2,0,0,1-.192.158.146.146,0,0,1-.036,0,.2.2,0,0,1-.155-.228,4.811,4.811,0,0,1,.224-.8A.193.193,0,0,1,1975.085,371.813Zm2.057-2.015a4.347,4.347,0,0,0-.627.43.2.2,0,1,1-.248-.3,4.655,4.655,0,0,1,.682-.468.2.2,0,0,1,.193.339Zm1.588-.729a.193.193,0,0,1-.16.224,4.431,4.431,0,0,0-.737.191.205.205,0,0,1-.065.01.2.2,0,0,1-.065-.379,4.8,4.8,0,0,1,.8-.206A.2.2,0,0,1,1978.73,369.069Zm1.583.081a.2.2,0,0,1-.192.16l-.036,0a4.328,4.328,0,0,0-.756-.073.2.2,0,0,1,0-.39h0a4.8,4.8,0,0,1,.824.079A.2.2,0,0,1,1980.313,369.15Zm1.458.619a.2.2,0,0,1-.168.1.2.2,0,0,1-.1-.027,4.313,4.313,0,0,0-.685-.327.2.2,0,0,1,.136-.366,4.671,4.671,0,0,1,.748.357A.2.2,0,0,1,1981.771,369.769Zm1.161,1.077a.2.2,0,0,1-.125.045.2.2,0,0,1-.15-.071,4.4,4.4,0,0,0-.534-.541.2.2,0,1,1,.253-.3,4.83,4.83,0,0,1,.582.589A.2.2,0,0,1,1982.932,370.846Zm.842,1.16a.194.194,0,0,1-.118.249.185.185,0,0,1-.065.011.194.194,0,0,1-.184-.129,4.361,4.361,0,0,0-.317-.691.194.194,0,0,1,.074-.266.2.2,0,0,1,.266.073A4.621,4.621,0,0,1,1983.774,372.006Zm.08,1.807a.207.207,0,0,1-.195-.208,4.436,4.436,0,0,0-.061-.732.195.195,0,0,1,.384-.066,4.8,4.8,0,0,1,.067.8v.027A.184.184,0,0,1,1983.854,373.813Zm-.35,1.559a.194.194,0,0,1-.115-.25,4.553,4.553,0,0,0,.2-.735.193.193,0,0,1,.227-.157.2.2,0,0,1,.157.228,4.878,4.878,0,0,1-.22.8.194.194,0,0,1-.182.127A.2.2,0,0,1,1983.5,375.372Zm-.88,1.057a4.2,4.2,0,0,0,.439-.619.2.2,0,0,1,.338.2,4.685,4.685,0,0,1-.479.677.2.2,0,0,1-.149.068.192.192,0,0,1-.126-.046A.2.2,0,0,1,1982.624,376.429Zm-1.164.969a4.347,4.347,0,0,0,.624-.434.195.195,0,1,1,.25.3,4.791,4.791,0,0,1-.68.474.2.2,0,0,1-.267-.073A.2.2,0,0,1,1981.46,377.4Zm-1.584.739a.2.2,0,0,1,.159-.225,4.255,4.255,0,0,0,.735-.194.2.2,0,1,1,.133.367,4.641,4.641,0,0,1-.8.211.191.191,0,0,1-.033,0A.193.193,0,0,1,1979.876,378.137Zm-1.584-.073a.2.2,0,0,1,.227-.157,4.453,4.453,0,0,0,.758.068.195.195,0,0,1,0,.39h0a4.737,4.737,0,0,1-.825-.074A.2.2,0,0,1,1978.292,378.064Zm-1.462-.608a.2.2,0,0,1,.267-.071,4.388,4.388,0,0,0,.687.323.195.195,0,0,1-.067.378.225.225,0,0,1-.068-.011,4.776,4.776,0,0,1-.748-.353A.194.194,0,0,1,1976.83,377.456Zm-1.167-1.071a.2.2,0,0,1,.275.024,4.414,4.414,0,0,0,.537.539.2.2,0,0,1,.022.276.193.193,0,0,1-.148.068.2.2,0,0,1-.127-.046,4.955,4.955,0,0,1-.583-.586A.2.2,0,0,1,1975.663,376.385Zm-.135-5.006a.194.194,0,0,1-.168.1.191.191,0,0,1-.1-.027.2.2,0,0,1-.068-.267,4.91,4.91,0,0,1,.483-.673.193.193,0,0,1,.275-.021.2.2,0,0,1,.021.276A4.487,4.487,0,0,0,1975.528,371.379Zm-.714,3.851a.2.2,0,0,1,.367-.134,4.225,4.225,0,0,0,.32.689.193.193,0,0,1-.071.266.185.185,0,0,1-.1.026.2.2,0,0,1-.169-.1A4.649,4.649,0,0,1,1974.814,375.23Zm-.284-1.625v-.054a.194.194,0,1,1,.389,0v.054a4.441,4.441,0,0,0,.066.757.2.2,0,0,1-.158.226l-.034,0a.194.194,0,0,1-.192-.161A4.731,4.731,0,0,1,1974.53,373.605Z" fill="url(#radial-gradient-6)"/>
          </g>
          <path id="Trazado_247233" data-name="Trazado 247233" d="M1976.2,373.605a3.087,3.087,0,1,0,3.087-3.087A3.087,3.087,0,0,0,1976.2,373.605Z" fill="url(#linear-gradient-4)"/>
        </g>
      </g>
      <g id="Grupo_122609" data-name="Grupo 122609">
        <g id="Grupo_122608" data-name="Grupo 122608">
          <circle id="Elipse_6101" data-name="Elipse 6101" cx="10.97" cy="10.97" r="10.97" transform="matrix(0.784, -0.62, 0.62, 0.784, 2104.182, 371.809)"/>
          <circle id="Elipse_6102" data-name="Elipse 6102" cx="7.094" cy="7.094" r="7.094" transform="matrix(0.982, -0.189, 0.189, 0.982, 2111.398, 367.982)" fill="url(#radial-gradient-7)"/>
          <g id="Grupo_122607" data-name="Grupo 122607">
            <path id="Trazado_247234" data-name="Trazado 247234" d="M2114.585,373.605a5.123,5.123,0,1,0,5.122-5.123A5.122,5.122,0,0,0,2114.585,373.605Zm.918-1.792a.2.2,0,0,1,.114.251,4.443,4.443,0,0,0-.206.733.2.2,0,0,1-.192.158.146.146,0,0,1-.036,0,.194.194,0,0,1-.155-.228,4.808,4.808,0,0,1,.223-.8A.2.2,0,0,1,2115.5,371.813Zm2.057-2.015a4.34,4.34,0,0,0-.627.43.2.2,0,1,1-.248-.3,4.648,4.648,0,0,1,.682-.468.2.2,0,1,1,.193.339Zm1.588-.729a.193.193,0,0,1-.16.224,4.432,4.432,0,0,0-.737.191.205.205,0,0,1-.065.01.2.2,0,0,1-.065-.379,4.8,4.8,0,0,1,.8-.206A.2.2,0,0,1,2119.148,369.069Zm1.583.081a.2.2,0,0,1-.192.16l-.036,0a4.326,4.326,0,0,0-.756-.073.2.2,0,0,1,0-.39h0a4.8,4.8,0,0,1,.824.079A.2.2,0,0,1,2120.731,369.15Zm1.458.619a.2.2,0,0,1-.168.1.2.2,0,0,1-.1-.027,4.3,4.3,0,0,0-.685-.327.2.2,0,0,1,.136-.366,4.676,4.676,0,0,1,.748.357A.2.2,0,0,1,2122.189,369.769Zm1.161,1.077a.2.2,0,0,1-.276-.026,4.324,4.324,0,0,0-.533-.541.2.2,0,0,1,.253-.3,4.838,4.838,0,0,1,.582.589A.2.2,0,0,1,2123.35,370.846Zm.842,1.16a.194.194,0,0,1-.118.249.185.185,0,0,1-.065.011.194.194,0,0,1-.184-.129,4.36,4.36,0,0,0-.317-.691.194.194,0,0,1,.074-.266.2.2,0,0,1,.266.073A4.684,4.684,0,0,1,2124.192,372.006Zm.08,1.807a.207.207,0,0,1-.2-.208,4.45,4.45,0,0,0-.061-.732.195.195,0,1,1,.384-.066,4.772,4.772,0,0,1,.067.8v.027A.184.184,0,0,1,2124.272,373.813Zm-.35,1.559a.194.194,0,0,1-.115-.25,4.541,4.541,0,0,0,.2-.735.193.193,0,0,1,.227-.157.2.2,0,0,1,.157.228,4.878,4.878,0,0,1-.22.8.194.194,0,0,1-.182.127A.2.2,0,0,1,2123.922,375.372Zm-.88,1.057a4.2,4.2,0,0,0,.439-.619.2.2,0,0,1,.338.2,4.714,4.714,0,0,1-.479.677.2.2,0,0,1-.149.068.193.193,0,0,1-.126-.046A.2.2,0,0,1,2123.042,376.429Zm-1.164.969a4.354,4.354,0,0,0,.624-.434.195.195,0,1,1,.25.3,4.777,4.777,0,0,1-.68.474.2.2,0,0,1-.267-.073A.2.2,0,0,1,2121.878,377.4Zm-1.584.739a.194.194,0,0,1,.159-.225,4.257,4.257,0,0,0,.735-.194.2.2,0,0,1,.133.367,4.643,4.643,0,0,1-.8.211.191.191,0,0,1-.033,0A.194.194,0,0,1,2120.294,378.137Zm-1.584-.073a.2.2,0,0,1,.227-.157,4.454,4.454,0,0,0,.758.068.195.195,0,0,1,0,.39h0a4.738,4.738,0,0,1-.825-.074A.2.2,0,0,1,2118.71,378.064Zm-1.462-.608a.2.2,0,0,1,.267-.071,4.4,4.4,0,0,0,.687.323.195.195,0,0,1-.068.378.226.226,0,0,1-.067-.011,4.773,4.773,0,0,1-.748-.353A.194.194,0,0,1,2117.248,377.456Zm-1.167-1.071a.2.2,0,0,1,.275.024,4.415,4.415,0,0,0,.537.539.2.2,0,0,1-.253.3,4.974,4.974,0,0,1-.583-.586A.2.2,0,0,1,2116.081,376.385Zm-.135-5.006a.2.2,0,0,1-.168.1.19.19,0,0,1-.1-.027.2.2,0,0,1-.068-.267,4.909,4.909,0,0,1,.483-.673.193.193,0,0,1,.275-.021.2.2,0,0,1,.021.276A4.486,4.486,0,0,0,2115.946,371.379Zm-.714,3.851a.194.194,0,0,1,.116-.25.2.2,0,0,1,.251.116,4.225,4.225,0,0,0,.32.689.194.194,0,0,1-.071.266.185.185,0,0,1-.1.026.2.2,0,0,1-.169-.1A4.65,4.65,0,0,1,2115.232,375.23Zm-.284-1.625v-.054a.194.194,0,1,1,.389,0v.054a4.441,4.441,0,0,0,.066.757.2.2,0,0,1-.158.226l-.034,0a.194.194,0,0,1-.192-.161A4.72,4.72,0,0,1,2114.948,373.605Z" fill="url(#radial-gradient-8)"/>
          </g>
          <path id="Trazado_247235" data-name="Trazado 247235" d="M2116.62,373.605a3.087,3.087,0,1,0,3.087-3.087A3.087,3.087,0,0,0,2116.62,373.605Z" fill="url(#linear-gradient-5)"/>
        </g>
      </g>
      <g id="Grupo_122612" data-name="Grupo 122612">
        <g id="Grupo_122611" data-name="Grupo 122611">
          <circle id="Elipse_6103" data-name="Elipse 6103" cx="10.97" cy="10.97" r="10.97" transform="translate(2080.948 371.809) rotate(-38.351)"/>
          <circle id="Elipse_6104" data-name="Elipse 6104" cx="7.094" cy="7.094" r="7.094" transform="matrix(0.982, -0.189, 0.189, 0.982, 2088.164, 367.982)" fill="url(#radial-gradient-9)"/>
          <g id="Grupo_122610" data-name="Grupo 122610">
            <path id="Trazado_247236" data-name="Trazado 247236" d="M2091.351,373.605a5.122,5.122,0,1,0,5.122-5.123A5.122,5.122,0,0,0,2091.351,373.605Zm.918-1.792a.2.2,0,0,1,.114.251,4.419,4.419,0,0,0-.206.733.2.2,0,0,1-.192.158.147.147,0,0,1-.036,0,.194.194,0,0,1-.155-.228,4.785,4.785,0,0,1,.223-.8A.2.2,0,0,1,2092.269,371.813Zm2.057-2.015a4.354,4.354,0,0,0-.627.43.2.2,0,0,1-.248-.3,4.663,4.663,0,0,1,.682-.468.2.2,0,0,1,.193.339Zm1.588-.729a.193.193,0,0,1-.16.224,4.423,4.423,0,0,0-.737.191.206.206,0,0,1-.065.01.2.2,0,0,1-.065-.379,4.8,4.8,0,0,1,.8-.206A.2.2,0,0,1,2095.914,369.069Zm1.583.081a.2.2,0,0,1-.192.16l-.036,0a4.331,4.331,0,0,0-.757-.073.2.2,0,0,1,0-.39h0a4.8,4.8,0,0,1,.824.079A.2.2,0,0,1,2097.5,369.15Zm1.458.619a.2.2,0,0,1-.168.1.2.2,0,0,1-.1-.027,4.313,4.313,0,0,0-.685-.327.2.2,0,0,1,.136-.366,4.676,4.676,0,0,1,.748.357A.2.2,0,0,1,2098.955,369.769Zm1.161,1.077a.2.2,0,0,1-.276-.026,4.326,4.326,0,0,0-.533-.541.2.2,0,0,1,.253-.3,4.838,4.838,0,0,1,.582.589A.2.2,0,0,1,2100.116,370.846Zm.842,1.16a.2.2,0,0,1-.118.249.186.186,0,0,1-.065.011.194.194,0,0,1-.184-.129,4.383,4.383,0,0,0-.317-.691.194.194,0,0,1,.074-.266.2.2,0,0,1,.266.073A4.793,4.793,0,0,1,2100.958,372.006Zm.08,1.807a.207.207,0,0,1-.2-.208,4.32,4.32,0,0,0-.062-.732.2.2,0,0,1,.385-.066,4.8,4.8,0,0,1,.067.8v.027A.184.184,0,0,1,2101.038,373.813Zm-.35,1.559a.194.194,0,0,1-.115-.25,4.541,4.541,0,0,0,.2-.735.193.193,0,0,1,.227-.157.2.2,0,0,1,.157.228,4.878,4.878,0,0,1-.22.8.194.194,0,0,1-.183.127A.2.2,0,0,1,2100.688,375.372Zm-.88,1.057a4.2,4.2,0,0,0,.439-.619.2.2,0,0,1,.338.2,4.694,4.694,0,0,1-.479.677.2.2,0,0,1-.149.068.192.192,0,0,1-.126-.046A.2.2,0,0,1,2099.808,376.429Zm-1.164.969a4.409,4.409,0,0,0,.624-.434.195.195,0,1,1,.249.3,4.729,4.729,0,0,1-.679.474.2.2,0,1,1-.194-.339Zm-1.584.739a.194.194,0,0,1,.159-.225,4.257,4.257,0,0,0,.735-.194.193.193,0,0,1,.25.117.2.2,0,0,1-.117.25,4.643,4.643,0,0,1-.8.211l-.033,0A.193.193,0,0,1,2097.06,378.137Zm-1.584-.073a.2.2,0,0,1,.227-.157,4.454,4.454,0,0,0,.757.068.195.195,0,0,1,0,.39h0a4.735,4.735,0,0,1-.825-.074A.2.2,0,0,1,2095.476,378.064Zm-1.462-.608a.2.2,0,0,1,.267-.071,4.388,4.388,0,0,0,.687.323.195.195,0,0,1-.068.378.223.223,0,0,1-.067-.011,4.776,4.776,0,0,1-.748-.353A.194.194,0,0,1,2094.014,377.456Zm-1.167-1.071a.2.2,0,0,1,.275.024,4.4,4.4,0,0,0,.537.539.2.2,0,0,1-.127.344.192.192,0,0,1-.126-.046,4.9,4.9,0,0,1-.583-.586A.2.2,0,0,1,2092.847,376.385Zm-.135-5.006a.2.2,0,0,1-.168.1.19.19,0,0,1-.1-.027.2.2,0,0,1-.068-.267,4.93,4.93,0,0,1,.483-.673.193.193,0,0,1,.275-.021.2.2,0,0,1,.021.276A4.488,4.488,0,0,0,2092.712,371.379ZM2092,375.23a.194.194,0,0,1,.116-.25.2.2,0,0,1,.251.116,4.226,4.226,0,0,0,.32.689.194.194,0,0,1-.071.266.185.185,0,0,1-.1.026.2.2,0,0,1-.169-.1A4.648,4.648,0,0,1,2092,375.23Zm-.284-1.625v-.054a.194.194,0,1,1,.389,0v.054a4.441,4.441,0,0,0,.066.757.2.2,0,0,1-.158.226l-.034,0a.194.194,0,0,1-.192-.161A4.743,4.743,0,0,1,2091.714,373.605Z" fill="url(#radial-gradient-10)"/>
          </g>
          <path id="Trazado_247237" data-name="Trazado 247237" d="M2093.386,373.605a3.087,3.087,0,1,0,3.087-3.087A3.087,3.087,0,0,0,2093.386,373.605Z" fill="url(#linear-gradient-6)"/>
        </g>
      </g>
      <rect id="Rectángulo_43577" data-name="Rectángulo 43577" width="4.363" height="7.486" transform="translate(2024.582 361.591)" fill="#fff" stroke="#12263f" stroke-miterlimit="10" stroke-width="1"/>
      <path id="Trazado_247238" data-name="Trazado 247238" d="M2133.2,372.975l.944,5.1-.3,1.628-1.427-1.241-2.241-5.489Z" fill="#12263f"/>
      <path id="Trazado_247239" data-name="Trazado 247239" d="M2014.949,369.59l.944,5.1-.3,1.628-1.427-1.241-2.241-5.489Z" fill="#12263f"/>
    </g>
  </g>
</svg>
