<svg xmlns="http://www.w3.org/2000/svg" xmlns:xlink="http://www.w3.org/1999/xlink" width="295" height="93" viewBox="0 0 295 93">
  <defs>
    <linearGradient id="linear-gradient" x1="-191.345" y1="0.5" x2="-190.345" y2="0.5" gradientUnits="objectBoundingBox">
      <stop offset="0"/>
      <stop offset="0.998" stop-color="#666"/>
    </linearGradient>
    <radialGradient id="radial-gradient" cx="0.5" cy="0.5" r="0.5" gradientTransform="matrix(-0.707, -0.707, -0.707, 0.707, -213.027, -88.239)" gradientUnits="objectBoundingBox">
      <stop offset="0.484" stop-color="#4d4d4d"/>
      <stop offset="0.66" stop-color="#8f8f8f"/>
      <stop offset="0.818" stop-color="#c4c4c4"/>
      <stop offset="0.935" stop-color="#e5e5e5"/>
      <stop offset="1" stop-color="#f2f2f2"/>
    </radialGradient>
    <radialGradient id="radial-gradient-2" cx="0.5" cy="0.5" r="0.5" gradientTransform="matrix(-1, 0, 0, 1, -346.605, 0)" gradientUnits="objectBoundingBox">
      <stop offset="0" stop-color="gray"/>
      <stop offset="1" stop-color="#f2f2f2"/>
    </radialGradient>
    <linearGradient id="linear-gradient-2" x1="-288.406" y1="0.5" x2="-287.406" y2="0.5" gradientTransform="matrix(1, 0, 0, 1, 0, 0)" xlink:href="#radial-gradient-2"/>
    <radialGradient id="radial-gradient-3" cx="0.5" cy="0.5" r="0.5" gradientTransform="matrix(-0.982, -0.189, -0.189, 0.982, -271.097, -25.895)" xlink:href="#radial-gradient"/>
    <radialGradient id="radial-gradient-4" cx="0.5" cy="0.5" r="0.5" gradientTransform="matrix(-1, 0, 0, 1, -379.396, 0)" xlink:href="#radial-gradient-2"/>
    <linearGradient id="linear-gradient-3" x1="-315.613" y1="0.5" x2="-314.613" y2="0.5" gradientTransform="matrix(1, 0, 0, 1, 0, 0)" xlink:href="#radial-gradient-2"/>
    <radialGradient id="radial-gradient-5" cx="0.5" cy="0.5" r="0.5" gradientTransform="matrix(-0.982, -0.189, -0.189, 0.982, -264.766, -25.29)" xlink:href="#radial-gradient"/>
    <radialGradient id="radial-gradient-6" cx="0.5" cy="0.5" r="0.5" gradientTransform="matrix(-1, 0, 0, 1, -370.548, 0)" xlink:href="#radial-gradient-2"/>
    <linearGradient id="linear-gradient-4" x1="-308.271" y1="0.5" x2="-307.271" y2="0.5" gradientTransform="matrix(1, 0, 0, 1, 0, 0)" xlink:href="#radial-gradient-2"/>
    <radialGradient id="radial-gradient-7" cx="0.5" cy="0.5" r="0.5" gradientTransform="matrix(-0.982, -0.189, -0.189, 0.982, -310.124, -29.623)" xlink:href="#radial-gradient"/>
    <radialGradient id="radial-gradient-8" cx="0.5" cy="0.5" r="0.5" gradientTransform="matrix(-1, 0, 0, 1, -433.948, 0)" xlink:href="#radial-gradient-2"/>
    <linearGradient id="linear-gradient-5" x1="-360.918" y1="0.5" x2="-359.918" y2="0.5" gradientTransform="matrix(1, 0, 0, 1, 0, 0)" xlink:href="#radial-gradient-2"/>
    <radialGradient id="radial-gradient-9" cx="0.5" cy="0.5" r="0.5" gradientTransform="matrix(-0.982, -0.189, -0.189, 0.982, -303.633, -29.003)" xlink:href="#radial-gradient"/>
    <radialGradient id="radial-gradient-10" cx="0.5" cy="0.5" r="0.5" gradientTransform="matrix(-1, 0, 0, 1, -424.861, 0)" xlink:href="#radial-gradient-2"/>
    <linearGradient id="linear-gradient-6" x1="-353.348" y1="0.5" x2="-352.348" y2="0.5" gradientTransform="matrix(1, 0, 0, 1, 0, 0)" xlink:href="#radial-gradient-2"/>
    <radialGradient id="radial-gradient-11" cx="0.5" cy="0.5" r="0.5" gradientTransform="matrix(-0.982, -0.189, -0.189, 0.982, -297.238, -28.392)" xlink:href="#radial-gradient"/>
    <radialGradient id="radial-gradient-12" cx="0.5" cy="0.5" r="0.5" gradientTransform="matrix(-1, 0, 0, 1, -415.937, 0)" xlink:href="#radial-gradient-2"/>
    <linearGradient id="linear-gradient-7" x1="-345.973" y1="0.5" x2="-344.973" y2="0.5" gradientTransform="matrix(1, 0, 0, 1, 0, 0)" xlink:href="#radial-gradient-2"/>
  </defs>
  <g id="Grupo_123185" data-name="Grupo 123185" transform="translate(-810 -6130)">
    <rect id="Rectángulo_42549" data-name="Rectángulo 42549" width="295" height="93" transform="translate(810 6130)" fill="#28acd3" opacity="0.25"/>
    <g id="Grupo_122639" data-name="Grupo 122639" transform="translate(-1072.842 5710.494)">
      <path id="Trazado_247240" data-name="Trazado 247240" d="M1977.538,479.1h20.59a2.9,2.9,0,0,0,.155-1.312h0a2.9,2.9,0,0,0-.155-1.311h-20.59Z"/>
      <path id="Trazado_247241" data-name="Trazado 247241" d="M2082.021,479.1h71.8c.3,0,.54-.824.54-1.84h0c0-1.016-.241-1.84-.54-1.84h-71.8Z"/>
      <path id="Trazado_247242" data-name="Trazado 247242" d="M1982.418,477.512h10.9a5.341,5.341,0,0,0,.082-1.312h0a5.336,5.336,0,0,0-.082-1.311h-10.9Z" fill="#12263f"/>
      <g id="Grupo_122622" data-name="Grupo 122622">
        <path id="Trazado_247243" data-name="Trazado 247243" d="M1938.279,445.463H1951.7v2.32h-15.737A2.32,2.32,0,0,1,1938.279,445.463Z" fill="#1ba2c1" stroke="#12263f" stroke-miterlimit="10" stroke-width="1"/>
        <g id="Grupo_122614" data-name="Grupo 122614">
          <path id="Trazado_247244" data-name="Trazado 247244" d="M1940.775,441.358h1.638a1.606,1.606,0,0,1,1.6,1.461l.239,2.644h-4.686v-2.9A1.21,1.21,0,0,1,1940.775,441.358Z" fill="#1ba2c1" stroke="#12263f" stroke-miterlimit="10" stroke-width="1"/>
          <rect id="Rectángulo_43578" data-name="Rectángulo 43578" width="0.871" height="2.643" transform="translate(1939.565 444.722) rotate(-180)" fill="#28acd3" stroke="#12263f" stroke-miterlimit="10" stroke-width="1"/>
        </g>
        <g id="Grupo_122615" data-name="Grupo 122615">
          <path id="Trazado_247245" data-name="Trazado 247245" d="M2012.164,483.766h-85.128v-5.433h85.128c2.06,0,3.73,1.216,3.73,2.717h0C2015.894,482.55,2014.224,483.766,2012.164,483.766Z" fill="#fff" stroke="#12263f" stroke-miterlimit="10" stroke-width="1"/>
          <g id="Rectángulo_43579" data-name="Rectángulo 43579" transform="translate(1968.437 479.935) rotate(-180)" fill="#12263f" stroke="#12263f" stroke-miterlimit="10" stroke-width="1">
            <rect width="33.422" height="1.673" stroke="none"/>
            <rect x="-0.5" y="-0.5" width="34.422" height="2.673" fill="none"/>
          </g>
        </g>
        <rect id="Rectángulo_43580" data-name="Rectángulo 43580" width="3.561" height="11.735" transform="translate(1907.004 490.136) rotate(-180)" fill="#fff" stroke="#12263f" stroke-miterlimit="10" stroke-width="1"/>
        <path id="Trazado_247246" data-name="Trazado 247246" d="M1907,462.059v16.052h26v.151h27.052V447.633h-23.511a3.051,3.051,0,0,0-.352.021,3.879,3.879,0,0,0-3.255,3.2l-1.593,8.467a3.421,3.421,0,0,1-3.351,2.741Z" fill="#28acd3" stroke="#12263f" stroke-miterlimit="10" stroke-width="1"/>
        <g id="Grupo_122616" data-name="Grupo 122616">
          <path id="Trazado_247247" data-name="Trazado 247247" d="M1905.382,467.416V473.8a.4.4,0,0,0,.4.4h10.807a.4.4,0,0,0,.2-.748l-10.807-6.38A.4.4,0,0,0,1905.382,467.416Z" fill="#fff"/>
          <rect id="Rectángulo_43581" data-name="Rectángulo 43581" width="0.42" height="5.757" transform="translate(1905.382 467.561)" fill="#fff"/>
          <path id="Trazado_247248" data-name="Trazado 247248" d="M1906.831,471.216a1.348,1.348,0,1,0,1.348-1.348A1.348,1.348,0,0,0,1906.831,471.216Z" fill="#fece16"/>
        </g>
        <path id="Rectángulo_43582" data-name="Rectángulo 43582" d="M0,0H2A0,0,0,0,1,2,0V0A2,2,0,0,1,0,2H0A0,0,0,0,1,0,2V0A0,0,0,0,1,0,0Z" transform="translate(1907.004 478.405) rotate(-180)" fill="#fff"/>
        <path id="Trazado_247249" data-name="Trazado 247249" d="M1947.557,471.15V452.424a1.826,1.826,0,0,0-1.826-1.826h-7.177a1.826,1.826,0,0,0-1.718,1.209l-3.106,8.644a1.832,1.832,0,0,0-.108.617V471.15a1.826,1.826,0,0,0,1.826,1.825h10.283A1.825,1.825,0,0,0,1947.557,471.15Z" fill="#28acd3" stroke="#12263f" stroke-miterlimit="10" stroke-width="1"/>
        <rect id="Rectángulo_43583" data-name="Rectángulo 43583" width="0.41" height="15.152" transform="translate(1949.032 471.5) rotate(-180)" fill="#fff"/>
        <path id="Trazado_247250" data-name="Trazado 247250" d="M1937.638,459.744h7.2a1.193,1.193,0,0,0,.662-.2,1.166,1.166,0,0,0,.511-.964v-4.859a1.172,1.172,0,0,0-1.173-1.174h-5.515a1.139,1.139,0,0,0-.558.145,1.153,1.153,0,0,0-.544.642l-1.692,4.859A1.169,1.169,0,0,0,1937.638,459.744Z" fill="url(#linear-gradient)"/>
        <rect id="Rectángulo_43584" data-name="Rectángulo 43584" width="1.018" height="8.823" rx="0.509" transform="translate(1935.953 451.939)" fill="#fff"/>
        <rect id="Rectángulo_43585" data-name="Rectángulo 43585" width="0.601" height="9.468" transform="translate(1903.443 488.636) rotate(-180)" fill="#fece16"/>
        <g id="Rectángulo_43586" data-name="Rectángulo 43586" transform="translate(1963.721 477.014) rotate(-180)" fill="#12263f" stroke="#010102" stroke-miterlimit="10" stroke-width="1">
          <path d="M0,0H9.819a0,0,0,0,1,0,0V9.187A2.409,2.409,0,0,1,7.41,11.6h-5A2.409,2.409,0,0,1,0,9.187V0A0,0,0,0,1,0,0Z" stroke="none"/>
          <path d="M0-.5H9.819a.5.5,0,0,1,.5.5V9.187A2.909,2.909,0,0,1,7.41,12.1h-5A2.909,2.909,0,0,1-.5,9.187V0A.5.5,0,0,1,0-.5Z" fill="none"/>
        </g>
        <g id="Rectángulo_43587" data-name="Rectángulo 43587" transform="translate(1962.126 466.751) rotate(-180)" fill="#12263f" stroke="#010102" stroke-miterlimit="10" stroke-width="1">
          <path d="M0,0H6.629a0,0,0,0,1,0,0V9.617A1.979,1.979,0,0,1,4.65,11.6H1.98A1.98,1.98,0,0,1,0,9.617V0A0,0,0,0,1,0,0Z" stroke="none"/>
          <path d="M0-.5H6.629a.5.5,0,0,1,.5.5V9.617A2.479,2.479,0,0,1,4.65,12.1H1.98A2.48,2.48,0,0,1-.5,9.617V0A.5.5,0,0,1,0-.5Z" fill="none"/>
        </g>
        <g id="Rectángulo_43588" data-name="Rectángulo 43588" transform="translate(1960.553 455.261) rotate(-180)" fill="#12263f" stroke="#010102" stroke-miterlimit="10" stroke-width="1">
          <path d="M0,0H3.484a0,0,0,0,1,0,0V24.592a1.163,1.163,0,0,1-1.163,1.163H1.163A1.163,1.163,0,0,1,0,24.592V0A0,0,0,0,1,0,0Z" stroke="none"/>
          <path d="M0-.5H3.484a.5.5,0,0,1,.5.5V24.592a1.663,1.663,0,0,1-1.663,1.663H1.163A1.663,1.663,0,0,1-.5,24.592V0A.5.5,0,0,1,0-.5Z" fill="none"/>
        </g>
        <g id="Grupo_122617" data-name="Grupo 122617">
          <g id="Rectángulo_43589" data-name="Rectángulo 43589" transform="translate(1982.188 484.701) rotate(-180)" fill="#12263f" stroke="#010102" stroke-miterlimit="10" stroke-width="1">
            <path d="M1.878,0H20.916a1.878,1.878,0,0,1,1.878,1.878V6.286a0,0,0,0,1,0,0H0a0,0,0,0,1,0,0V1.878A1.878,1.878,0,0,1,1.878,0Z" stroke="none"/>
            <path d="M1.878-.5H20.916a2.378,2.378,0,0,1,2.378,2.378V6.286a.5.5,0,0,1-.5.5H0a.5.5,0,0,1-.5-.5V1.878A2.378,2.378,0,0,1,1.878-.5Z" fill="none"/>
          </g>
          <g id="Rectángulo_43590" data-name="Rectángulo 43590" transform="translate(1978.73 484.701) rotate(-180)" fill="#12263f" stroke="#010102" stroke-miterlimit="10" stroke-width="1">
            <rect width="0.513" height="6.286" stroke="none"/>
            <rect x="-0.5" y="-0.5" width="1.513" height="7.286" fill="none"/>
          </g>
          <g id="Rectángulo_43591" data-name="Rectángulo 43591" transform="translate(1971.303 484.701) rotate(-180)" fill="#12263f" stroke="#010102" stroke-miterlimit="10" stroke-width="1">
            <rect width="0.513" height="6.286" stroke="none"/>
            <rect x="-0.5" y="-0.5" width="1.513" height="7.286" fill="none"/>
          </g>
          <g id="Rectángulo_43592" data-name="Rectángulo 43592" transform="translate(1963.877 484.701) rotate(-180)" fill="#12263f" stroke="#010102" stroke-miterlimit="10" stroke-width="1">
            <rect width="0.513" height="6.286" stroke="none"/>
            <rect x="-0.5" y="-0.5" width="1.513" height="7.286" fill="none"/>
          </g>
        </g>
        <path id="Rectángulo_43593" data-name="Rectángulo 43593" d="M0,0H1.749a0,0,0,0,1,0,0V14.234A1.749,1.749,0,0,1,0,15.983H0a0,0,0,0,1,0,0V0A0,0,0,0,1,0,0Z" transform="translate(1907.005 478.085) rotate(180)" fill="#fff" stroke="#12263f" stroke-miterlimit="10" stroke-width="1"/>
        <g id="Grupo_122621" data-name="Grupo 122621">
          <g id="Grupo_122620" data-name="Grupo 122620">
            <g id="Grupo_122619" data-name="Grupo 122619">
              <circle id="Elipse_6105" data-name="Elipse 6105" cx="10.97" cy="10.97" r="10.97" transform="matrix(0.973, -0.23, 0.23, 0.973, 1904.653, 479.279)"/>
              <circle id="Elipse_6106" data-name="Elipse 6106" cx="7.094" cy="7.094" r="7.094" transform="translate(1907.933 487.435) rotate(-45)" fill="url(#radial-gradient)"/>
              <g id="Grupo_122618" data-name="Grupo 122618">
                <path id="Trazado_247251" data-name="Trazado 247251" d="M1912.843,487.435a5.122,5.122,0,1,0,5.123-5.123A5.123,5.123,0,0,0,1912.843,487.435Zm.918-1.792a.2.2,0,0,1,.114.251,4.527,4.527,0,0,0-.206.733.194.194,0,0,1-.191.158.146.146,0,0,1-.036,0,.194.194,0,0,1-.155-.228,4.8,4.8,0,0,1,.223-.8A.194.194,0,0,1,1913.761,485.643Zm2.057-2.015a4.4,4.4,0,0,0-.627.43.19.19,0,0,1-.124.044.195.195,0,0,1-.123-.345,4.606,4.606,0,0,1,.682-.468.195.195,0,1,1,.192.339Zm1.589-.729a.193.193,0,0,1-.16.224,4.409,4.409,0,0,0-.737.191.209.209,0,0,1-.065.01.2.2,0,0,1-.185-.13.2.2,0,0,1,.12-.249,4.8,4.8,0,0,1,.8-.206A.2.2,0,0,1,1917.407,482.9Zm1.582.081a.2.2,0,0,1-.192.16l-.035,0a4.345,4.345,0,0,0-.757-.073.195.195,0,0,1,0-.39h0a4.824,4.824,0,0,1,.825.079A.2.2,0,0,1,1918.989,482.98Zm1.458.619a.2.2,0,0,1-.168.1.2.2,0,0,1-.1-.027,4.326,4.326,0,0,0-.686-.327.2.2,0,0,1,.137-.366,4.76,4.76,0,0,1,.748.357A.2.2,0,0,1,1920.447,483.6Zm1.161,1.077a.194.194,0,0,1-.124.045.2.2,0,0,1-.151-.071,4.324,4.324,0,0,0-.533-.541.195.195,0,1,1,.252-.3,4.766,4.766,0,0,1,.582.589A.2.2,0,0,1,1921.608,484.676Zm.843,1.16a.2.2,0,0,1-.118.249.191.191,0,0,1-.066.011.193.193,0,0,1-.183-.129,4.449,4.449,0,0,0-.317-.691.2.2,0,0,1,.073-.266.2.2,0,0,1,.266.073A4.711,4.711,0,0,1,1922.451,485.836Zm.079,1.807a.208.208,0,0,1-.2-.208,4.333,4.333,0,0,0-.061-.732.195.195,0,1,1,.384-.066,4.684,4.684,0,0,1,.067.8v.027A.183.183,0,0,1,1922.53,487.643Zm-.349,1.559a.193.193,0,0,1-.116-.25,4.542,4.542,0,0,0,.2-.735.194.194,0,0,1,.228-.157.2.2,0,0,1,.157.227,4.962,4.962,0,0,1-.22.8.2.2,0,0,1-.183.127A.2.2,0,0,1,1922.181,489.2Zm-.88,1.057a4.348,4.348,0,0,0,.439-.619.2.2,0,0,1,.338.195,4.683,4.683,0,0,1-.479.677.2.2,0,0,1-.3-.253Zm-1.165.969a4.365,4.365,0,0,0,.625-.434.195.195,0,1,1,.249.3,4.785,4.785,0,0,1-.68.474.2.2,0,0,1-.1.025.195.195,0,0,1-.1-.364Zm-1.584.739a.2.2,0,0,1,.159-.225,4.324,4.324,0,0,0,.735-.194.2.2,0,1,1,.134.367,4.68,4.68,0,0,1-.8.211l-.033,0A.2.2,0,0,1,1918.552,491.967Zm-1.583-.073a.2.2,0,0,1,.227-.157,4.429,4.429,0,0,0,.757.068.2.2,0,0,1,0,.39h0a4.739,4.739,0,0,1-.825-.074A.2.2,0,0,1,1916.969,491.894Zm-1.463-.608a.2.2,0,0,1,.267-.071,4.355,4.355,0,0,0,.688.323.2.2,0,0,1-.068.378.231.231,0,0,1-.068-.011,4.816,4.816,0,0,1-.748-.353A.2.2,0,0,1,1915.506,491.286Zm-1.167-1.071a.2.2,0,0,1,.276.024,4.48,4.48,0,0,0,.536.539.195.195,0,0,1-.126.344.192.192,0,0,1-.126-.046,4.972,4.972,0,0,1-.584-.586A.2.2,0,0,1,1914.339,490.215Zm-.135-5.006a.194.194,0,0,1-.168.095.2.2,0,0,1-.1-.027.2.2,0,0,1-.069-.267,5,5,0,0,1,.483-.673.194.194,0,0,1,.276-.021.2.2,0,0,1,.021.276A4.411,4.411,0,0,0,1914.2,485.209Zm-.714,3.851a.2.2,0,0,1,.367-.134,4.307,4.307,0,0,0,.32.689.194.194,0,0,1-.07.266.188.188,0,0,1-.1.026.193.193,0,0,1-.169-.1A4.653,4.653,0,0,1,1913.49,489.06Zm-.284-1.625v-.054a.195.195,0,1,1,.39,0v.054a4.344,4.344,0,0,0,.066.757.2.2,0,0,1-.159.226.188.188,0,0,1-.034,0,.2.2,0,0,1-.192-.161A4.732,4.732,0,0,1,1913.206,487.435Z" fill="url(#radial-gradient-2)"/>
              </g>
              <path id="Trazado_247252" data-name="Trazado 247252" d="M1914.879,487.435a3.087,3.087,0,1,0,3.087-3.087A3.087,3.087,0,0,0,1914.879,487.435Z" fill="url(#linear-gradient-2)"/>
            </g>
          </g>
          <path id="Trazado_247253" data-name="Trazado 247253" d="M1903.225,486.078h4.21a10.449,10.449,0,0,1,20.747,0h4.217a14.641,14.641,0,0,0-29.174,0Z" fill="#28acd3" stroke="#12263f" stroke-miterlimit="10" stroke-width="1"/>
        </g>
      </g>
      <path id="Trazado_247254" data-name="Trazado 247254" d="M2155.188,479.353h-73.244c2.841,0,5.277,3.121,6.276,7.541h66.968Z" fill="#12263f"/>
      <path id="Trazado_247255" data-name="Trazado 247255" d="M2000.766,479.353l.066.046a10.021,10.021,0,0,1,1-.046Z" fill="#b751bb"/>
      <g id="Grupo_122623" data-name="Grupo 122623">
        <g id="Rectángulo_43594" data-name="Rectángulo 43594" transform="translate(1972.485 434.203)" fill="#fff" stroke="#12263f" stroke-miterlimit="10" stroke-width="2">
          <rect width="185.046" height="41.475" stroke="none"/>
          <rect x="1" y="1" width="183.046" height="39.475" fill="none"/>
        </g>
      </g>
      <g id="Grupo_122626" data-name="Grupo 122626">
        <g id="Grupo_122625" data-name="Grupo 122625">
          <circle id="Elipse_6107" data-name="Elipse 6107" cx="10.97" cy="10.97" r="10.97" transform="matrix(0.784, -0.62, 0.62, 0.784, 1986.426, 485.639)"/>
          <circle id="Elipse_6108" data-name="Elipse 6108" cx="7.094" cy="7.094" r="7.094" transform="translate(1993.642 481.812) rotate(-10.912)" fill="url(#radial-gradient-3)"/>
          <g id="Grupo_122624" data-name="Grupo 122624">
            <path id="Trazado_247256" data-name="Trazado 247256" d="M1996.829,487.435a5.122,5.122,0,1,0,5.122-5.123A5.122,5.122,0,0,0,1996.829,487.435Zm.917-1.792a.194.194,0,0,1,.115.251,4.418,4.418,0,0,0-.206.733.2.2,0,0,1-.192.158.147.147,0,0,1-.036,0,.194.194,0,0,1-.155-.228,4.8,4.8,0,0,1,.223-.8A.194.194,0,0,1,1997.746,485.643Zm2.058-2.015a4.347,4.347,0,0,0-.627.43.2.2,0,1,1-.248-.3,4.606,4.606,0,0,1,.682-.468.2.2,0,1,1,.193.339Zm1.588-.729a.193.193,0,0,1-.16.224,4.435,4.435,0,0,0-.737.191.2.2,0,0,1-.065.01.2.2,0,0,1-.065-.379,4.8,4.8,0,0,1,.8-.206A.2.2,0,0,1,2001.392,482.9Zm1.583.081a.2.2,0,0,1-.192.16.218.218,0,0,1-.036,0,4.336,4.336,0,0,0-.757-.073.195.195,0,0,1,0-.39h0a4.8,4.8,0,0,1,.824.079A.2.2,0,0,1,2002.975,482.98Zm1.458.619a.2.2,0,0,1-.168.1.2.2,0,0,1-.1-.027,4.285,4.285,0,0,0-.686-.327.2.2,0,0,1,.137-.366,4.674,4.674,0,0,1,.748.357A.2.2,0,0,1,2004.433,483.6Zm1.161,1.077a.2.2,0,0,1-.276-.026,4.324,4.324,0,0,0-.533-.541.2.2,0,1,1,.253-.3,4.827,4.827,0,0,1,.582.589A.2.2,0,0,1,2005.594,484.676Zm.842,1.16a.194.194,0,0,1-.118.249.185.185,0,0,1-.065.011.2.2,0,0,1-.184-.129,4.36,4.36,0,0,0-.317-.691.194.194,0,0,1,.074-.266.2.2,0,0,1,.265.073A4.7,4.7,0,0,1,2006.436,485.836Zm.08,1.807a.207.207,0,0,1-.195-.208,4.32,4.32,0,0,0-.062-.732.2.2,0,0,1,.385-.066,4.8,4.8,0,0,1,.067.8v.027A.184.184,0,0,1,2006.516,487.643Zm-.35,1.559a.193.193,0,0,1-.115-.25,4.554,4.554,0,0,0,.2-.735.193.193,0,0,1,.227-.157.2.2,0,0,1,.157.227,4.962,4.962,0,0,1-.22.8.194.194,0,0,1-.183.127A.2.2,0,0,1,2006.166,489.2Zm-.88,1.057a4.2,4.2,0,0,0,.439-.619.2.2,0,0,1,.338.195,4.683,4.683,0,0,1-.479.677.2.2,0,0,1-.149.068.192.192,0,0,1-.126-.046A.2.2,0,0,1,2005.286,490.259Zm-1.164.969a4.4,4.4,0,0,0,.624-.434.195.195,0,1,1,.249.3,4.782,4.782,0,0,1-.679.474.2.2,0,0,1-.267-.073A.2.2,0,0,1,2004.122,491.228Zm-1.584.739a.194.194,0,0,1,.159-.225,4.348,4.348,0,0,0,.735-.194.2.2,0,1,1,.133.367,4.664,4.664,0,0,1-.8.211l-.033,0A.193.193,0,0,1,2002.538,491.967Zm-1.584-.073a.2.2,0,0,1,.227-.157,4.447,4.447,0,0,0,.757.068.2.2,0,0,1,0,.39h0a4.739,4.739,0,0,1-.825-.074A.2.2,0,0,1,2000.954,491.894Zm-1.462-.608a.2.2,0,0,1,.267-.071,4.385,4.385,0,0,0,.687.323.195.195,0,0,1-.068.378.224.224,0,0,1-.067-.011,4.775,4.775,0,0,1-.748-.353A.194.194,0,0,1,1999.492,491.286Zm-1.167-1.071a.2.2,0,0,1,.275.024,4.418,4.418,0,0,0,.537.539.2.2,0,0,1-.127.344.192.192,0,0,1-.126-.046,4.88,4.88,0,0,1-.583-.586A.2.2,0,0,1,1998.325,490.215Zm-.135-5.006a.2.2,0,0,1-.168.095.2.2,0,0,1-.1-.027.2.2,0,0,1-.068-.267,4.908,4.908,0,0,1,.483-.673.193.193,0,0,1,.275-.021.2.2,0,0,1,.021.276A4.476,4.476,0,0,0,1998.19,485.209Zm-.714,3.851a.2.2,0,0,1,.367-.134,4.144,4.144,0,0,0,.32.689.194.194,0,0,1-.071.266.185.185,0,0,1-.1.026.2.2,0,0,1-.169-.1A4.648,4.648,0,0,1,1997.476,489.06Zm-.284-1.625v-.054a.195.195,0,1,1,.389,0v.054a4.441,4.441,0,0,0,.066.757.2.2,0,0,1-.159.226.184.184,0,0,1-.033,0,.194.194,0,0,1-.192-.161A4.732,4.732,0,0,1,1997.192,487.435Z" fill="url(#radial-gradient-4)"/>
          </g>
          <path id="Trazado_247257" data-name="Trazado 247257" d="M1998.864,487.435a3.087,3.087,0,1,0,3.087-3.087A3.087,3.087,0,0,0,1998.864,487.435Z" fill="url(#linear-gradient-3)"/>
        </g>
      </g>
      <g id="Grupo_122629" data-name="Grupo 122629">
        <g id="Grupo_122628" data-name="Grupo 122628">
          <circle id="Elipse_6109" data-name="Elipse 6109" cx="10.97" cy="10.97" r="10.97" transform="matrix(0.784, -0.62, 0.62, 0.784, 1963.764, 485.639)"/>
          <circle id="Elipse_6110" data-name="Elipse 6110" cx="7.094" cy="7.094" r="7.094" transform="translate(1970.98 481.812) rotate(-10.912)" fill="url(#radial-gradient-5)"/>
          <g id="Grupo_122627" data-name="Grupo 122627">
            <path id="Trazado_247258" data-name="Trazado 247258" d="M1974.167,487.435a5.122,5.122,0,1,0,5.122-5.123A5.122,5.122,0,0,0,1974.167,487.435Zm.918-1.792a.194.194,0,0,1,.114.251,4.418,4.418,0,0,0-.206.733.2.2,0,0,1-.192.158.146.146,0,0,1-.036,0,.2.2,0,0,1-.155-.228,4.812,4.812,0,0,1,.224-.8A.193.193,0,0,1,1975.085,485.643Zm2.057-2.015a4.347,4.347,0,0,0-.627.43.2.2,0,1,1-.248-.3,4.658,4.658,0,0,1,.682-.468.2.2,0,0,1,.193.339Zm1.588-.729a.193.193,0,0,1-.16.224,4.434,4.434,0,0,0-.737.191.2.2,0,0,1-.065.01.2.2,0,0,1-.065-.379,4.8,4.8,0,0,1,.8-.206A.2.2,0,0,1,1978.73,482.9Zm1.583.081a.2.2,0,0,1-.192.16.218.218,0,0,1-.036,0,4.334,4.334,0,0,0-.756-.073.195.195,0,0,1,0-.39h0a4.8,4.8,0,0,1,.824.079A.2.2,0,0,1,1980.313,482.98Zm1.458.619a.2.2,0,0,1-.168.1.2.2,0,0,1-.1-.027,4.315,4.315,0,0,0-.685-.327.2.2,0,0,1,.136-.366,4.674,4.674,0,0,1,.748.357A.2.2,0,0,1,1981.771,483.6Zm1.161,1.077a.2.2,0,0,1-.125.045.2.2,0,0,1-.15-.071,4.4,4.4,0,0,0-.534-.541.2.2,0,1,1,.253-.3,4.827,4.827,0,0,1,.582.589A.2.2,0,0,1,1982.932,484.676Zm.842,1.16a.194.194,0,0,1-.118.249.185.185,0,0,1-.065.011.194.194,0,0,1-.184-.129,4.36,4.36,0,0,0-.317-.691.194.194,0,0,1,.074-.266.2.2,0,0,1,.266.073A4.622,4.622,0,0,1,1983.774,485.836Zm.08,1.807a.207.207,0,0,1-.195-.208,4.436,4.436,0,0,0-.061-.732.195.195,0,0,1,.384-.066,4.8,4.8,0,0,1,.067.8v.027A.184.184,0,0,1,1983.854,487.643Zm-.35,1.559a.193.193,0,0,1-.115-.25,4.554,4.554,0,0,0,.2-.735.193.193,0,0,1,.227-.157.2.2,0,0,1,.157.227,4.864,4.864,0,0,1-.22.8.194.194,0,0,1-.182.127A.2.2,0,0,1,1983.5,489.2Zm-.88,1.057a4.2,4.2,0,0,0,.439-.619.2.2,0,0,1,.338.195,4.683,4.683,0,0,1-.479.677.2.2,0,0,1-.149.068.192.192,0,0,1-.126-.046A.2.2,0,0,1,1982.624,490.259Zm-1.164.969a4.349,4.349,0,0,0,.624-.434.195.195,0,1,1,.25.3,4.791,4.791,0,0,1-.68.474.2.2,0,0,1-.267-.073A.2.2,0,0,1,1981.46,491.228Zm-1.584.739a.194.194,0,0,1,.159-.225,4.348,4.348,0,0,0,.735-.194.2.2,0,1,1,.133.367,4.643,4.643,0,0,1-.8.211l-.033,0A.193.193,0,0,1,1979.876,491.967Zm-1.584-.073a.2.2,0,0,1,.227-.157,4.45,4.45,0,0,0,.758.068.2.2,0,0,1,0,.39h0a4.74,4.74,0,0,1-.825-.074A.2.2,0,0,1,1978.292,491.894Zm-1.462-.608a.2.2,0,0,1,.267-.071,4.385,4.385,0,0,0,.687.323.195.195,0,0,1-.067.378.225.225,0,0,1-.068-.011,4.775,4.775,0,0,1-.748-.353A.194.194,0,0,1,1976.83,491.286Zm-1.167-1.071a.2.2,0,0,1,.275.024,4.418,4.418,0,0,0,.537.539.2.2,0,0,1,.022.276.193.193,0,0,1-.148.068.2.2,0,0,1-.127-.046,4.953,4.953,0,0,1-.583-.586A.2.2,0,0,1,1975.663,490.215Zm-.135-5.006a.194.194,0,0,1-.168.095.2.2,0,0,1-.1-.027.2.2,0,0,1-.068-.267,4.908,4.908,0,0,1,.483-.673.193.193,0,0,1,.275-.021.2.2,0,0,1,.021.276A4.485,4.485,0,0,0,1975.528,485.209Zm-.714,3.851a.2.2,0,0,1,.367-.134,4.224,4.224,0,0,0,.32.689.193.193,0,0,1-.071.266.185.185,0,0,1-.1.026.2.2,0,0,1-.169-.1A4.648,4.648,0,0,1,1974.814,489.06Zm-.284-1.625v-.054a.194.194,0,1,1,.389,0v.054a4.441,4.441,0,0,0,.066.757.2.2,0,0,1-.158.226l-.034,0a.194.194,0,0,1-.192-.161A4.732,4.732,0,0,1,1974.53,487.435Z" fill="url(#radial-gradient-6)"/>
          </g>
          <path id="Trazado_247259" data-name="Trazado 247259" d="M1976.2,487.435a3.087,3.087,0,1,0,3.087-3.087A3.087,3.087,0,0,0,1976.2,487.435Z" fill="url(#linear-gradient-4)"/>
        </g>
      </g>
      <g id="Grupo_122632" data-name="Grupo 122632">
        <g id="Grupo_122631" data-name="Grupo 122631">
          <circle id="Elipse_6111" data-name="Elipse 6111" cx="10.97" cy="10.97" r="10.97" transform="translate(2126.127 485.639) rotate(-38.351)"/>
          <circle id="Elipse_6112" data-name="Elipse 6112" cx="7.094" cy="7.094" r="7.094" transform="translate(2133.343 481.812) rotate(-10.912)" fill="url(#radial-gradient-7)"/>
          <g id="Grupo_122630" data-name="Grupo 122630">
            <path id="Trazado_247260" data-name="Trazado 247260" d="M2136.53,487.435a5.122,5.122,0,1,0,5.122-5.123A5.122,5.122,0,0,0,2136.53,487.435Zm.918-1.792a.194.194,0,0,1,.114.251,4.515,4.515,0,0,0-.206.733.194.194,0,0,1-.191.158.156.156,0,0,1-.037,0,.2.2,0,0,1-.155-.228,4.812,4.812,0,0,1,.224-.8A.193.193,0,0,1,2137.448,485.643Zm2.057-2.015a4.409,4.409,0,0,0-.627.43.192.192,0,0,1-.124.044.2.2,0,0,1-.124-.345,4.674,4.674,0,0,1,.683-.468.193.193,0,0,1,.265.073A.2.2,0,0,1,2139.5,483.628Zm1.589-.729a.193.193,0,0,1-.161.224,4.424,4.424,0,0,0-.736.191.213.213,0,0,1-.065.01.195.195,0,0,1-.065-.379,4.791,4.791,0,0,1,.8-.206A.2.2,0,0,1,2141.094,482.9Zm1.582.081a.2.2,0,0,1-.192.16l-.036,0a4.335,4.335,0,0,0-.756-.073.195.195,0,0,1,0-.39h0a4.8,4.8,0,0,1,.824.079A.2.2,0,0,1,2142.676,482.98Zm1.458.619a.2.2,0,0,1-.168.1.2.2,0,0,1-.1-.027,4.326,4.326,0,0,0-.686-.327.2.2,0,0,1,.137-.366,4.757,4.757,0,0,1,.748.357A.2.2,0,0,1,2144.134,483.6Zm1.161,1.077a.195.195,0,0,1-.275-.026,4.349,4.349,0,0,0-.534-.541.2.2,0,0,1,.253-.3,4.766,4.766,0,0,1,.582.589A.2.2,0,0,1,2145.295,484.676Zm.842,1.16a.195.195,0,0,1-.367.131,4.275,4.275,0,0,0-.317-.691.2.2,0,0,1,.34-.193A4.622,4.622,0,0,1,2146.137,485.836Zm.08,1.807a.208.208,0,0,1-.2-.208,4.423,4.423,0,0,0-.061-.732.195.195,0,0,1,.384-.066,4.8,4.8,0,0,1,.067.8v.027A.184.184,0,0,1,2146.217,487.643Zm-.35,1.559a.194.194,0,0,1-.115-.25,4.541,4.541,0,0,0,.2-.735.2.2,0,1,1,.384.07,4.864,4.864,0,0,1-.22.8.194.194,0,0,1-.182.127A.2.2,0,0,1,2145.867,489.2Zm-.879,1.057a4.348,4.348,0,0,0,.439-.619.195.195,0,1,1,.337.195,4.6,4.6,0,0,1-.479.677.193.193,0,0,1-.148.068.2.2,0,0,1-.127-.046A.2.2,0,0,1,2144.988,490.259Zm-1.165.969a4.356,4.356,0,0,0,.624-.434.195.195,0,0,1,.25.3,4.8,4.8,0,0,1-.68.474.2.2,0,1,1-.194-.339Zm-1.584.739a.2.2,0,0,1,.159-.225,4.35,4.35,0,0,0,.735-.194.2.2,0,0,1,.134.367,4.68,4.68,0,0,1-.8.211l-.033,0A.194.194,0,0,1,2142.239,491.967Zm-1.584-.073a.2.2,0,0,1,.227-.157,4.448,4.448,0,0,0,.758.068.2.2,0,0,1,0,.39h0a4.74,4.74,0,0,1-.825-.074A.2.2,0,0,1,2140.655,491.894Zm-1.462-.608a.2.2,0,0,1,.267-.071,4.385,4.385,0,0,0,.687.323.195.195,0,0,1-.067.378.23.23,0,0,1-.068-.011,4.775,4.775,0,0,1-.748-.353A.2.2,0,0,1,2139.193,491.286Zm-1.167-1.071a.2.2,0,0,1,.275.024,4.561,4.561,0,0,0,.537.539.2.2,0,0,1-.253.3,4.971,4.971,0,0,1-.583-.586A.2.2,0,0,1,2138.026,490.215Zm-.135-5.006a.2.2,0,0,1-.336-.2,4.909,4.909,0,0,1,.483-.673.194.194,0,0,1,.276-.021.2.2,0,0,1,.02.276A4.464,4.464,0,0,0,2137.891,485.209Zm-.714,3.851a.2.2,0,0,1,.367-.134,4.308,4.308,0,0,0,.32.689.194.194,0,0,1-.071.266.185.185,0,0,1-.1.026.192.192,0,0,1-.168-.1A4.551,4.551,0,0,1,2137.177,489.06Zm-.284-1.625v-.054a.194.194,0,1,1,.389,0v.054a4.441,4.441,0,0,0,.066.757.2.2,0,0,1-.158.226.195.195,0,0,1-.226-.158A4.72,4.72,0,0,1,2136.893,487.435Z" fill="url(#radial-gradient-8)"/>
          </g>
          <path id="Trazado_247261" data-name="Trazado 247261" d="M2138.566,487.435a3.087,3.087,0,1,0,3.086-3.087A3.087,3.087,0,0,0,2138.566,487.435Z" fill="url(#linear-gradient-5)"/>
        </g>
      </g>
      <g id="Grupo_122635" data-name="Grupo 122635">
        <g id="Grupo_122634" data-name="Grupo 122634">
          <circle id="Elipse_6113" data-name="Elipse 6113" cx="10.97" cy="10.97" r="10.97" transform="matrix(0.784, -0.62, 0.62, 0.784, 2102.893, 485.639)"/>
          <circle id="Elipse_6114" data-name="Elipse 6114" cx="7.094" cy="7.094" r="7.094" transform="translate(2110.109 481.812) rotate(-10.912)" fill="url(#radial-gradient-9)"/>
          <g id="Grupo_122633" data-name="Grupo 122633">
            <path id="Trazado_247262" data-name="Trazado 247262" d="M2113.3,487.435a5.123,5.123,0,1,0,5.122-5.123A5.122,5.122,0,0,0,2113.3,487.435Zm.918-1.792a.2.2,0,0,1,.114.251,4.417,4.417,0,0,0-.206.733.2.2,0,0,1-.191.158.154.154,0,0,1-.037,0,.2.2,0,0,1-.155-.228,4.812,4.812,0,0,1,.224-.8A.194.194,0,0,1,2114.214,485.643Zm2.057-2.015a4.409,4.409,0,0,0-.627.43.2.2,0,0,1-.248-.3,4.61,4.61,0,0,1,.683-.468.193.193,0,0,1,.265.073A.2.2,0,0,1,2116.271,483.628Zm1.588-.729a.192.192,0,0,1-.16.224,4.424,4.424,0,0,0-.736.191.213.213,0,0,1-.065.01.195.195,0,0,1-.065-.379,4.767,4.767,0,0,1,.8-.206A.2.2,0,0,1,2117.859,482.9Zm1.583.081a.2.2,0,0,1-.192.16.225.225,0,0,1-.036,0,4.337,4.337,0,0,0-.756-.073.195.195,0,0,1,0-.39h0a4.8,4.8,0,0,1,.824.079A.2.2,0,0,1,2119.442,482.98Zm1.458.619a.194.194,0,0,1-.168.1.2.2,0,0,1-.1-.027,4.275,4.275,0,0,0-.685-.327.2.2,0,0,1,.137-.366,4.76,4.76,0,0,1,.748.357A.2.2,0,0,1,2120.9,483.6Zm1.161,1.077a.2.2,0,0,1-.275-.026,4.315,4.315,0,0,0-.534-.541.2.2,0,0,1,.253-.3,4.749,4.749,0,0,1,.582.589A.2.2,0,0,1,2122.061,484.676Zm.842,1.16a.195.195,0,0,1-.367.131,4.274,4.274,0,0,0-.317-.691.2.2,0,0,1,.34-.193A4.622,4.622,0,0,1,2122.9,485.836Zm.08,1.807a.207.207,0,0,1-.195-.208,4.423,4.423,0,0,0-.061-.732.195.195,0,0,1,.384-.066,4.8,4.8,0,0,1,.067.8v.027A.184.184,0,0,1,2122.983,487.643Zm-.35,1.559a.193.193,0,0,1-.115-.25,4.541,4.541,0,0,0,.2-.735.194.194,0,0,1,.228-.157.2.2,0,0,1,.156.227,4.864,4.864,0,0,1-.22.8.194.194,0,0,1-.182.127A.2.2,0,0,1,2122.633,489.2Zm-.879,1.057a4.37,4.37,0,0,0,.439-.619.195.195,0,1,1,.337.195,4.693,4.693,0,0,1-.479.677.2.2,0,1,1-.3-.253Zm-1.165.969a4.354,4.354,0,0,0,.624-.434.195.195,0,1,1,.25.3,4.777,4.777,0,0,1-.68.474.2.2,0,1,1-.194-.339Zm-1.584.739a.2.2,0,0,1,.159-.225,4.347,4.347,0,0,0,.735-.194.2.2,0,0,1,.133.367,4.646,4.646,0,0,1-.8.211l-.033,0A.194.194,0,0,1,2119,491.967Zm-1.584-.073a.2.2,0,0,1,.227-.157,4.451,4.451,0,0,0,.758.068.2.2,0,0,1,0,.39h0a4.738,4.738,0,0,1-.825-.074A.2.2,0,0,1,2117.421,491.894Zm-1.462-.608a.2.2,0,0,1,.267-.071,4.385,4.385,0,0,0,.687.323.195.195,0,0,1-.067.378.23.23,0,0,1-.068-.011,4.775,4.775,0,0,1-.748-.353A.2.2,0,0,1,2115.959,491.286Zm-1.167-1.071a.2.2,0,0,1,.275.024,4.49,4.49,0,0,0,.537.539.2.2,0,0,1-.253.3,4.953,4.953,0,0,1-.583-.586A.2.2,0,0,1,2114.792,490.215Zm-.135-5.006a.194.194,0,0,1-.168.095.2.2,0,0,1-.1-.027.2.2,0,0,1-.068-.267,4.907,4.907,0,0,1,.483-.673.193.193,0,0,1,.275-.021.2.2,0,0,1,.021.276A4.465,4.465,0,0,0,2114.657,485.209Zm-.714,3.851a.2.2,0,0,1,.367-.134,4.307,4.307,0,0,0,.32.689.193.193,0,0,1-.071.266.186.186,0,0,1-.1.026.192.192,0,0,1-.168-.1A4.55,4.55,0,0,1,2113.943,489.06Zm-.284-1.625v-.054a.195.195,0,1,1,.389,0v.054a4.441,4.441,0,0,0,.066.757.2.2,0,0,1-.158.226l-.034,0a.194.194,0,0,1-.192-.161A4.72,4.72,0,0,1,2113.659,487.435Z" fill="url(#radial-gradient-10)"/>
          </g>
          <path id="Trazado_247263" data-name="Trazado 247263" d="M2115.331,487.435a3.087,3.087,0,1,0,3.087-3.087A3.088,3.088,0,0,0,2115.331,487.435Z" fill="url(#linear-gradient-6)"/>
        </g>
      </g>
      <g id="Grupo_122638" data-name="Grupo 122638">
        <g id="Grupo_122637" data-name="Grupo 122637">
          <circle id="Elipse_6115" data-name="Elipse 6115" cx="10.97" cy="10.97" r="10.97" transform="matrix(0.784, -0.62, 0.62, 0.784, 2080, 485.639)"/>
          <circle id="Elipse_6116" data-name="Elipse 6116" cx="7.094" cy="7.094" r="7.094" transform="matrix(0.982, -0.189, 0.189, 0.982, 2087.215, 481.812)" fill="url(#radial-gradient-11)"/>
          <g id="Grupo_122636" data-name="Grupo 122636">
            <path id="Trazado_247264" data-name="Trazado 247264" d="M2090.4,487.435a5.122,5.122,0,1,0,5.123-5.123A5.123,5.123,0,0,0,2090.4,487.435Zm.918-1.792a.2.2,0,0,1,.114.251,4.515,4.515,0,0,0-.206.733.194.194,0,0,1-.191.158.159.159,0,0,1-.037,0,.2.2,0,0,1-.155-.228,4.789,4.789,0,0,1,.224-.8A.194.194,0,0,1,2091.32,485.643Zm2.057-2.015a4.409,4.409,0,0,0-.627.43.19.19,0,0,1-.124.044.195.195,0,0,1-.123-.345,4.614,4.614,0,0,1,.682-.468.194.194,0,0,1,.266.073A.2.2,0,0,1,2093.377,483.628Zm1.589-.729a.194.194,0,0,1-.161.224,4.415,4.415,0,0,0-.736.191.215.215,0,0,1-.065.01.195.195,0,0,1-.065-.379,4.815,4.815,0,0,1,.8-.206A.2.2,0,0,1,2094.966,482.9Zm1.582.081a.2.2,0,0,1-.192.16l-.035,0a4.355,4.355,0,0,0-.757-.073.195.195,0,0,1,0-.39h0a4.805,4.805,0,0,1,.824.079A.2.2,0,0,1,2096.548,482.98Zm1.458.619a.2.2,0,0,1-.267.068,4.326,4.326,0,0,0-.686-.327.2.2,0,0,1,.137-.366,4.76,4.76,0,0,1,.748.357A.2.2,0,0,1,2098.006,483.6Zm1.161,1.077a.194.194,0,0,1-.125.045.2.2,0,0,1-.15-.071,4.268,4.268,0,0,0-.534-.541.2.2,0,0,1,.253-.3,4.766,4.766,0,0,1,.582.589A.2.2,0,0,1,2099.167,484.676Zm.842,1.16a.194.194,0,0,1-.117.249.192.192,0,0,1-.066.011.194.194,0,0,1-.184-.129,4.378,4.378,0,0,0-.316-.691.2.2,0,0,1,.073-.266.2.2,0,0,1,.266.073A4.622,4.622,0,0,1,2100.009,485.836Zm.08,1.807a.207.207,0,0,1-.2-.208,4.32,4.32,0,0,0-.061-.732.195.195,0,0,1,.384-.066,4.8,4.8,0,0,1,.067.8v.027A.183.183,0,0,1,2100.089,487.643Zm-.35,1.559a.193.193,0,0,1-.115-.25,4.541,4.541,0,0,0,.2-.735.2.2,0,1,1,.384.07,4.862,4.862,0,0,1-.219.8.2.2,0,0,1-.183.127A.2.2,0,0,1,2099.739,489.2Zm-.879,1.057a4.368,4.368,0,0,0,.439-.619.195.195,0,1,1,.337.195,4.611,4.611,0,0,1-.478.677.2.2,0,0,1-.3-.253Zm-1.165.969a4.42,4.42,0,0,0,.625-.434.195.195,0,0,1,.249.3,4.793,4.793,0,0,1-.68.474.2.2,0,0,1-.1.025.195.195,0,0,1-.1-.364Zm-1.584.739a.2.2,0,0,1,.159-.225,4.317,4.317,0,0,0,.735-.194.2.2,0,1,1,.134.367,4.68,4.68,0,0,1-.8.211l-.033,0A.2.2,0,0,1,2096.111,491.967Zm-1.583-.073a.194.194,0,0,1,.226-.157,4.453,4.453,0,0,0,.758.068.2.2,0,0,1,0,.39h0a4.738,4.738,0,0,1-.825-.074A.2.2,0,0,1,2094.528,491.894Zm-1.463-.608a.2.2,0,0,1,.267-.071,4.385,4.385,0,0,0,.687.323.195.195,0,0,1-.067.378.23.23,0,0,1-.068-.011,4.775,4.775,0,0,1-.748-.353A.2.2,0,0,1,2093.065,491.286Zm-1.167-1.071a.2.2,0,0,1,.276.024,4.461,4.461,0,0,0,.536.539.195.195,0,0,1-.126.344.192.192,0,0,1-.126-.046,4.906,4.906,0,0,1-.584-.586A.2.2,0,0,1,2091.9,490.215Zm-.135-5.006a.194.194,0,0,1-.168.095.2.2,0,0,1-.168-.294,4.928,4.928,0,0,1,.483-.673.2.2,0,1,1,.3.255A4.486,4.486,0,0,0,2091.763,485.209Zm-.714,3.851a.2.2,0,0,1,.367-.134,4.308,4.308,0,0,0,.32.689.194.194,0,0,1-.071.266.184.184,0,0,1-.1.026.193.193,0,0,1-.169-.1A4.57,4.57,0,0,1,2091.049,489.06Zm-.284-1.625v-.054a.2.2,0,0,1,.39,0v.054a4.44,4.44,0,0,0,.065.757.2.2,0,0,1-.384.068A4.744,4.744,0,0,1,2090.765,487.435Z" fill="url(#radial-gradient-12)"/>
          </g>
          <path id="Trazado_247265" data-name="Trazado 247265" d="M2092.438,487.435a3.087,3.087,0,1,0,3.087-3.087A3.087,3.087,0,0,0,2092.438,487.435Z" fill="url(#linear-gradient-7)"/>
        </g>
      </g>
      <rect id="Rectángulo_43595" data-name="Rectángulo 43595" width="4.363" height="7.486" transform="translate(2024.582 475.421)" fill="#fff" stroke="#12263f" stroke-miterlimit="10" stroke-width="1"/>
      <path id="Trazado_247266" data-name="Trazado 247266" d="M2155.149,486.8l.944,5.1-.3,1.628-1.427-1.241-2.241-5.489Z" fill="#12263f"/>
      <path id="Trazado_247267" data-name="Trazado 247267" d="M2014.949,483.42l.944,5.1-.3,1.628-1.427-1.241-2.241-5.489Z" fill="#12263f"/>
    </g>
  </g>
</svg>
