<svg xmlns="http://www.w3.org/2000/svg" width="253.487" height="157" viewBox="0 0 253.487 157">
  <g id="Grupo_123204" data-name="Grupo 123204" transform="translate(-301 -4167)">
    <g id="Grupo_123203" data-name="Grupo 123203">
      <g id="Grupo_97005" data-name="Grupo 97005" transform="translate(-428.876 3846.859)">
        <path id="Trazado_213017" data-name="Trazado 213017" d="M941.726,454.383l-5.85-5.485c4.154-4.1,8.065-8.128,12.179-11.938,1.881-1.741,2-2.849.045-4.653-4.123-3.812-8.014-7.874-12.215-12.046l6.232-5.4,19.451,19.79Z" fill="#12263f"/>
        <path id="Trazado_213018" data-name="Trazado 213018" d="M984.338,454.753l-5.67-5.983c3.663-3.582,7.408-7.164,11.061-10.837,3.821-3.84,3.613-2.814-.058-6.524-3.6-3.635-7.293-7.171-10.969-10.772l5.934-5.609,19.591,19.775Z" transform="translate(-20.864 -0.083)" fill="#12263f"/>
      </g>
      <path id="Rect치ngulo_42819" data-name="Rect치ngulo 42819" d="M38,0H152a38,38,0,0,1,38,38v80a0,0,0,0,1,0,0H0a0,0,0,0,1,0,0V38A38,38,0,0,1,38,0Z" transform="translate(301 4206)" fill="#28acd3" opacity="0.25"/>
      <path id="Trazado_247663" data-name="Trazado 247663" d="M11.824,14.491V19H9.187V6.2h4.992a5.776,5.776,0,0,1,2.536.527,3.886,3.886,0,0,1,1.683,1.5,4.178,4.178,0,0,1,.589,2.21A3.674,3.674,0,0,1,17.7,13.406a5.363,5.363,0,0,1-3.564,1.085Zm0-2.136h2.355a2.316,2.316,0,0,0,1.6-.492,1.79,1.79,0,0,0,.549-1.406,2.111,2.111,0,0,0-.554-1.521,2.068,2.068,0,0,0-1.529-.6H11.824ZM26.044,19a2.821,2.821,0,0,1-.255-.853,3.073,3.073,0,0,1-2.4,1.028,3.376,3.376,0,0,1-2.316-.809,2.6,2.6,0,0,1-.918-2.039,2.687,2.687,0,0,1,1.121-2.32,5.529,5.529,0,0,1,3.239-.817h1.169v-.545a1.567,1.567,0,0,0-.338-1.055,1.331,1.331,0,0,0-1.068-.4,1.513,1.513,0,0,0-1.006.308,1.045,1.045,0,0,0-.365.844h-2.54a2.551,2.551,0,0,1,.51-1.529,3.37,3.37,0,0,1,1.441-1.1,5.253,5.253,0,0,1,2.092-.4A4.15,4.15,0,0,1,27.2,10.2a3.09,3.09,0,0,1,1.033,2.483V16.8a4.546,4.546,0,0,0,.378,2.048V19Zm-2.1-1.767a2.188,2.188,0,0,0,1.037-.25,1.645,1.645,0,0,0,.7-.672V14.676h-.949q-1.907,0-2.03,1.318l-.009.149a1.017,1.017,0,0,0,.334.782A1.3,1.3,0,0,0,23.944,17.233Zm11.584-5.361a6.9,6.9,0,0,0-.914-.07,1.86,1.86,0,0,0-1.89.976V19h-2.54V9.49h2.4l.07,1.134a2.354,2.354,0,0,1,2.118-1.31,2.662,2.662,0,0,1,.791.114Zm4.7-4.72V9.49h1.626v1.863H40.23V16.1a1.133,1.133,0,0,0,.2.756,1.015,1.015,0,0,0,.773.229,4.051,4.051,0,0,0,.747-.062v1.925a5.229,5.229,0,0,1-1.538.229,2.425,2.425,0,0,1-2.725-2.7V11.354H36.3V9.49H37.69V7.152Zm7.418,12.023a4.668,4.668,0,0,1-3.406-1.283,4.561,4.561,0,0,1-1.314-3.419v-.246a5.745,5.745,0,0,1,.554-2.562,4.064,4.064,0,0,1,1.569-1.74,4.4,4.4,0,0,1,2.316-.611,3.947,3.947,0,0,1,3.072,1.23,5,5,0,0,1,1.121,3.489v1.037H45.5a2.36,2.36,0,0,0,.743,1.494,2.245,2.245,0,0,0,1.569.563,2.742,2.742,0,0,0,2.294-1.063l1.248,1.4a3.813,3.813,0,0,1-1.547,1.261A5.075,5.075,0,0,1,47.648,19.176Zm-.29-7.813a1.587,1.587,0,0,0-1.226.512,2.651,2.651,0,0,0-.6,1.466h3.533v-.2a1.891,1.891,0,0,0-.457-1.311A1.638,1.638,0,0,0,47.358,11.362Zm10.793,5.01a.818.818,0,0,0-.461-.734,5.241,5.241,0,0,0-1.481-.479q-3.393-.712-3.393-2.883a2.613,2.613,0,0,1,1.05-2.114,4.237,4.237,0,0,1,2.747-.848,4.56,4.56,0,0,1,2.9.853,2.687,2.687,0,0,1,1.085,2.215h-2.54a1.229,1.229,0,0,0-.352-.9,1.488,1.488,0,0,0-1.1-.356,1.52,1.52,0,0,0-.993.29.916.916,0,0,0-.352.738.783.783,0,0,0,.4.681,4.114,4.114,0,0,0,1.349.448,11.019,11.019,0,0,1,1.6.426,2.628,2.628,0,0,1,2.013,2.558,2.481,2.481,0,0,1-1.116,2.1,4.815,4.815,0,0,1-2.883.8A5.029,5.029,0,0,1,54.5,18.75a3.561,3.561,0,0,1-1.455-1.169,2.716,2.716,0,0,1-.527-1.6h2.408a1.326,1.326,0,0,0,.5,1.037,1.987,1.987,0,0,0,1.248.36,1.839,1.839,0,0,0,1.1-.277A.861.861,0,0,0,58.151,16.372Zm8.191-2.2a5.731,5.731,0,0,1,1-3.542,3.237,3.237,0,0,1,2.729-1.318,2.913,2.913,0,0,1,2.294,1.037V5.5h2.549V19H72.618l-.123-1.011a2.989,2.989,0,0,1-2.443,1.187,3.228,3.228,0,0,1-2.694-1.323A5.916,5.916,0,0,1,66.342,14.175Zm2.54.189a3.754,3.754,0,0,0,.466,2.051,1.517,1.517,0,0,0,1.354.713,1.7,1.7,0,0,0,1.661-.995V12.375a1.675,1.675,0,0,0-1.644-.995Q68.882,11.38,68.882,14.364Zm12.375,4.812a4.668,4.668,0,0,1-3.406-1.283,4.561,4.561,0,0,1-1.314-3.419v-.246a5.745,5.745,0,0,1,.554-2.562,4.064,4.064,0,0,1,1.569-1.74,4.4,4.4,0,0,1,2.316-.611,3.947,3.947,0,0,1,3.072,1.23,5,5,0,0,1,1.121,3.489v1.037H79.113a2.36,2.36,0,0,0,.743,1.494,2.245,2.245,0,0,0,1.569.563,2.742,2.742,0,0,0,2.294-1.063l1.248,1.4a3.813,3.813,0,0,1-1.547,1.261A5.075,5.075,0,0,1,81.257,19.176Zm-.29-7.813a1.587,1.587,0,0,0-1.226.512,2.651,2.651,0,0,0-.6,1.466h3.533v-.2a1.891,1.891,0,0,0-.457-1.311A1.638,1.638,0,0,0,80.967,11.362ZM89.291,19H86.742V5.5h2.549Zm16.787-4.263a4.528,4.528,0,0,1-1.525,3.252,5.355,5.355,0,0,1-3.625,1.187,4.816,4.816,0,0,1-3.872-1.657,6.793,6.793,0,0,1-1.411-4.548v-.782a7.671,7.671,0,0,1,.65-3.252,4.874,4.874,0,0,1,1.859-2.158,5.809,5.809,0,0,1,6.376.435,4.866,4.866,0,0,1,1.564,3.331h-2.637a2.673,2.673,0,0,0-.69-1.8,2.555,2.555,0,0,0-1.806-.558,2.24,2.24,0,0,0-1.973.945,5.3,5.3,0,0,0-.672,2.931v.967a5.667,5.667,0,0,0,.628,3.032,2.2,2.2,0,0,0,1.982.958,2.6,2.6,0,0,0,1.824-.558,2.521,2.521,0,0,0,.69-1.727Zm1.169-.58a5.64,5.64,0,0,1,.545-2.522,3.989,3.989,0,0,1,1.569-1.714,4.577,4.577,0,0,1,2.377-.606,4.33,4.33,0,0,1,3.142,1.178,4.727,4.727,0,0,1,1.358,3.2l.018.65a4.97,4.97,0,0,1-1.222,3.511,4.735,4.735,0,0,1-6.561,0,5.058,5.058,0,0,1-1.226-3.586Zm2.54.18a3.555,3.555,0,0,0,.51,2.073,1.831,1.831,0,0,0,2.9.009,3.89,3.89,0,0,0,.519-2.267,3.519,3.519,0,0,0-.519-2.06,1.686,1.686,0,0,0-1.459-.731,1.658,1.658,0,0,0-1.441.726A3.955,3.955,0,0,0,109.787,14.338ZM120.158,9.49l.079,1.1a3.32,3.32,0,0,1,2.733-1.274,2.759,2.759,0,0,1,2.25.888,4.142,4.142,0,0,1,.756,2.654V19h-2.54V12.918a1.648,1.648,0,0,0-.352-1.173,1.574,1.574,0,0,0-1.169-.365,1.747,1.747,0,0,0-1.608.914V19h-2.54V9.49Zm10.784-2.338V9.49h1.626v1.863h-1.626V16.1a1.133,1.133,0,0,0,.2.756,1.015,1.015,0,0,0,.773.229,4.051,4.051,0,0,0,.747-.062v1.925a5.229,5.229,0,0,1-1.538.229,2.425,2.425,0,0,1-2.725-2.7V11.354h-1.389V9.49H128.4V7.152Zm8.385,4.72a6.9,6.9,0,0,0-.914-.07,1.86,1.86,0,0,0-1.89.976V19h-2.54V9.49h2.4l.07,1.134a2.354,2.354,0,0,1,2.118-1.31,2.662,2.662,0,0,1,.791.114ZM145.8,19a2.821,2.821,0,0,1-.255-.853,3.073,3.073,0,0,1-2.4,1.028,3.376,3.376,0,0,1-2.316-.809,2.6,2.6,0,0,1-.918-2.039,2.687,2.687,0,0,1,1.121-2.32,5.529,5.529,0,0,1,3.239-.817h1.169v-.545a1.567,1.567,0,0,0-.338-1.055,1.331,1.331,0,0,0-1.068-.4,1.513,1.513,0,0,0-1.006.308,1.045,1.045,0,0,0-.365.844h-2.54a2.551,2.551,0,0,1,.51-1.529,3.37,3.37,0,0,1,1.441-1.1,5.253,5.253,0,0,1,2.092-.4,4.15,4.15,0,0,1,2.791.883,3.09,3.09,0,0,1,1.033,2.483V16.8a4.546,4.546,0,0,0,.378,2.048V19Zm-2.1-1.767a2.188,2.188,0,0,0,1.037-.25,1.645,1.645,0,0,0,.7-.672V14.676h-.949q-1.907,0-2.03,1.318l-.009.149a1.017,1.017,0,0,0,.334.782A1.3,1.3,0,0,0,143.695,17.233Zm9.281-10.081V9.49H154.6v1.863h-1.626V16.1a1.133,1.133,0,0,0,.2.756,1.015,1.015,0,0,0,.773.229,4.051,4.051,0,0,0,.747-.062v1.925a5.229,5.229,0,0,1-1.538.229,2.425,2.425,0,0,1-2.725-2.7V11.354h-1.389V9.49h1.389V7.152Zm2.382,7a5.64,5.64,0,0,1,.545-2.522,3.989,3.989,0,0,1,1.569-1.714,4.577,4.577,0,0,1,2.377-.606,4.33,4.33,0,0,1,3.142,1.178,4.727,4.727,0,0,1,1.358,3.2l.018.65a4.97,4.97,0,0,1-1.222,3.511,4.735,4.735,0,0,1-6.561,0,5.058,5.058,0,0,1-1.226-3.586Zm2.54.18a3.555,3.555,0,0,0,.51,2.073,1.831,1.831,0,0,0,2.9.009,3.89,3.89,0,0,0,.519-2.267,3.519,3.519,0,0,0-.519-2.06,1.686,1.686,0,0,0-1.459-.731,1.658,1.658,0,0,0-1.441.726A3.955,3.955,0,0,0,157.9,14.338Z" transform="translate(310 4292.028)" fill="#12263f"/>
      <g id="Rect치ngulo_42820" data-name="Rect치ngulo 42820" transform="translate(335 4167)" fill="#fff" stroke="#28acd3" stroke-width="4">
        <rect width="121" height="119" rx="59.5" stroke="none"/>
        <rect x="2" y="2" width="117" height="115" rx="57.5" fill="none"/>
      </g>
    </g>
    <g id="Grupo_117213" data-name="Grupo 117213" transform="translate(362.51 4193.51)">
      <path id="Trazado_239542" data-name="Trazado 239542" d="M-1223.008,4588.381q0-14.725,0-29.45c0-2.585,1.312-3.895,3.9-3.895h43.445c2.589,0,3.894,1.3,3.895,3.9q0,9.888,0,19.774a3.456,3.456,0,0,1-.076.9.991.991,0,0,1-1.018.788,1,1,0,0,1-1.062-.819,4.317,4.317,0,0,1-.068-.968q-.005-9.817,0-19.634c0-1.37-.32-1.7-1.669-1.7h-43.445c-1.318,0-1.66.338-1.66,1.638q0,29.555,0,59.11c0,1.265.35,1.62,1.606,1.62h43.584c1.223,0,1.582-.354,1.583-1.572q.006-5.048,0-10.1a4.118,4.118,0,0,1,.044-.762,1.02,1.02,0,0,1,1.067-.906,1.024,1.024,0,0,1,1.071.9,3.4,3.4,0,0,1,.045.693q0,5.082,0,10.165c-.005,2.506-1.322,3.809-3.836,3.809q-21.792,0-43.584,0c-2.49,0-3.814-1.331-3.815-3.831Q-1223.01,4603.212-1223.008,4588.381Z" transform="translate(1223.009 -4555.037)" fill="#12263f"/>
      <path id="Trazado_239543" data-name="Trazado 239543" d="M-1002.969,4660.962c-1.471-1.046-1.711-1.448-1.3-2.126.384-.632.824-.618,2.442.1.107-.16.228-.323.33-.5q1.183-2.009,2.361-4.021c.258-.437.589-.852,1.143-.75.515.094.7-.167.892-.534a3.4,3.4,0,0,1,2.421-1.915,3.167,3.167,0,0,1,3.234,1.157,3.2,3.2,0,0,1,.48,3.461,4.728,4.728,0,0,1-.385.74.87.87,0,0,0-.014.988,1.748,1.748,0,0,1-.084,1.349c-.678,1.318-1.46,2.584-2.2,3.871-.125.217-.241.438-.387.705.341.206.638.376.926.561a3.3,3.3,0,0,1,1.238,4.539c-1.411,2.56-2.9,5.077-4.367,7.6a1.114,1.114,0,0,1-1.581.547,1.116,1.116,0,0,1-.328-1.642c1.283-2.259,2.591-4.5,3.888-6.754.139-.241.285-.479.412-.727a1.166,1.166,0,0,0-.486-1.767c-.234-.145-.479-.272-.782-.444-.151.243-.288.448-.411.661-2.987,5.187-5.94,10.393-8.982,15.546a36.725,36.725,0,0,1-2.568,3.284c-.978,1.292-1.955,2.586-2.857,3.93a3.579,3.579,0,0,1-3.5,1.8,1.011,1.011,0,0,0-.729.343c-.734.867-1.412,1.781-2.13,2.663a2.238,2.238,0,0,1-4.035-.566c-.191-.445-.362-.9-.588-1.464-.174.233-.291.382-.4.536a2.265,2.265,0,0,1-2.522,1.039,2.226,2.226,0,0,1-1.648-2.1c-.115-1.107-.192-2.219-.29-3.328a1.075,1.075,0,0,0-.227-.614c-.322.954-.647,1.905-.966,2.86-.514,1.54-1.02,3.083-1.54,4.62-.29.859-.77,1.188-1.4.99-.722-.225-.994-.831-.712-1.679q1.291-3.9,2.607-7.782a2.231,2.231,0,0,1,2.422-1.662,2.236,2.236,0,0,1,1.965,2.109c.128,1.129.2,2.264.3,3.4.02.221.057.441.109.832.757-1.275,1.683-1.956,3.061-1.476,1.312.458,1.4,1.808,1.968,2.889a4.607,4.607,0,0,0,.394-.372c.532-.644,1.028-1.321,1.594-1.933a1,1,0,0,0,.191-1.326,3.17,3.17,0,0,1,.084-2.818c.971-2.2,2-4.387,2.819-6.646a44.14,44.14,0,0,1,3.429-6.514c2.144-3.8,4.352-7.559,6.533-11.336C-1003.084,4661.2-1003.037,4661.094-1002.969,4660.962Zm-3.039,18.738,8.9-15.428-3.851-2.221-8.9,15.433Zm8.394-23.429-2.221,3.847,3.849,2.215,2.221-3.843Zm-12.555,28.744,2.883-3.481-3.5-2.009-1.585,4.214Zm16.551-29.024c.388-.7,1.01-1.273.528-2.027a1.369,1.369,0,0,0-1.012-.538c-.868.023-1.044.823-1.407,1.479Zm-19.635,29.844c-.415.666-.984,1.23-.567,1.965a1.363,1.363,0,0,0,.992.589c.884.008,1.061-.814,1.458-1.463Z" transform="translate(1057.504 -4637.767)" fill="#12263f"/>
      <path id="Trazado_239544" data-name="Trazado 239544" d="M-1148.783,4605.287v2.225h.922q13.118,0,26.236,0a4.02,4.02,0,0,1,.964.086.975.975,0,0,1,.765,1.034,1.019,1.019,0,0,1-.841,1.053,3.5,3.5,0,0,1-.761.052q-13.953,0-27.907,0c-1.327,0-1.651-.324-1.653-1.634,0-1.183-.005-2.366,0-3.549.006-1.141.384-1.5,1.585-1.5q8.038,0,16.076,0h11.761a5.031,5.031,0,0,1,.763.032,1.056,1.056,0,0,1,.979,1.082,1.085,1.085,0,0,1-1.039,1.1,7.531,7.531,0,0,1-.765.017h-27.088Z" transform="translate(1161.079 -4596.368)" fill="#12263f"/>
      <path id="Trazado_239545" data-name="Trazado 239545" d="M-1181.482,4885.926a9.522,9.522,0,0,1-9.3-7.632,9.43,9.43,0,0,1,5.6-10.553,9.232,9.232,0,0,1,9.126.966,1.131,1.131,0,0,1,.5,1.6,1.127,1.127,0,0,1-1.7.261,7.2,7.2,0,0,0-6.882-.861,7.205,7.205,0,0,0-4.46,8.145,7.25,7.25,0,0,0,7.182,5.811,7.21,7.21,0,0,0,7.038-6.053c.06-.365.077-.737.115-1.105a1.148,1.148,0,0,1,1.129-1.176,1.152,1.152,0,0,1,1.093,1.271,9.468,9.468,0,0,1-7.922,9.16C-1180.466,4885.836-1180.975,4885.871-1181.482,4885.926Z" transform="translate(1195.428 -4823.521)" fill="#12263f"/>
      <path id="Trazado_239546" data-name="Trazado 239546" d="M-1081.571,4725.272q-5.813,0-11.625,0a3.581,3.581,0,0,1-.83-.054,1.013,1.013,0,0,1-.819-1,.985.985,0,0,1,.719-1.067,2.755,2.755,0,0,1,.821-.1q11.8-.009,23.6,0a2.928,2.928,0,0,1,.69.061,1.013,1.013,0,0,1,.855,1.107,1.031,1.031,0,0,1-.95,1.031,4.977,4.977,0,0,1-.764.028Q-1075.724,4725.273-1081.571,4725.272Z" transform="translate(1112.694 -4699.646)" fill="#12263f"/>
      <path id="Trazado_239547" data-name="Trazado 239547" d="M-1154.671,4773.245h-10.442c-.116,0-.232,0-.348,0-.941-.014-1.46-.417-1.453-1.125s.521-1.106,1.476-1.106q10.755-.007,21.51,0a2.981,2.981,0,0,1,.485.027,1.093,1.093,0,0,1,1,1.138,1.067,1.067,0,0,1-1.022,1.044,5.4,5.4,0,0,1-.695.023Q-1149.415,4773.247-1154.671,4773.245Z" transform="translate(1174.725 -4740.936)" fill="#12263f"/>
      <path id="Trazado_239548" data-name="Trazado 239548" d="M-1114.651,4669.279h-10.231c-.209,0-.418,0-.626,0-.882-.023-1.394-.44-1.383-1.127s.518-1.1,1.412-1.1q10.823-.007,21.646,0c.895,0,1.4.41,1.422,1.091s-.523,1.118-1.451,1.133c-.185,0-.371,0-.557,0Z" transform="translate(1140.276 -4651.45)" fill="#12263f"/>
      <path id="Trazado_239549" data-name="Trazado 239549" d="M-1160.266,4813.238c-1.74,0-3.48,0-5.221,0-.9,0-1.4-.4-1.406-1.1s.5-1.126,1.38-1.128q5.29-.011,10.58,0c.866,0,1.4.459,1.379,1.137s-.542,1.085-1.422,1.088C-1156.74,4813.242-1158.5,4813.238-1160.266,4813.238Z" transform="translate(1174.707 -4775.362)" fill="#12263f"/>
      <path id="Trazado_239550" data-name="Trazado 239550" d="M-1151.323,4915.836c1.214-1.248,2.36-2.428,3.509-3.605a2.739,2.739,0,0,1,.407-.376,1.043,1.043,0,0,1,1.451.1.99.99,0,0,1,.067,1.449c-1.364,1.421-2.746,2.83-4.194,4.162a2.023,2.023,0,0,1-2.693-.046c-.9-.8-1.743-1.666-2.57-2.542a1.054,1.054,0,0,1,.011-1.508,1.084,1.084,0,0,1,1.563-.014c.635.575,1.223,1.2,1.834,1.8C-1151.776,4915.423-1151.606,4915.573-1151.323,4915.836Z" transform="translate(1165.036 -4861.958)" fill="#12263f"/>
      <path id="Trazado_239551" data-name="Trazado 239551" d="M-969.964,4773.221c-1.183,0-2.366.008-3.549,0-.887-.009-1.4-.427-1.4-1.111s.505-1.114,1.394-1.118q3.619-.014,7.238,0c.872,0,1.385.459,1.363,1.149-.021.656-.522,1.067-1.361,1.077C-967.5,4773.229-968.734,4773.221-969.964,4773.221Z" transform="translate(1009.457 -4740.912)" fill="#12263f"/>
      <path id="Trazado_239552" data-name="Trazado 239552" d="M-1049.9,4813.226c-1.229,0-2.458.008-3.686,0-.814-.008-1.314-.458-1.3-1.13A1.132,1.132,0,0,1-1053.6,4811q3.721-.021,7.442,0a1.151,1.151,0,0,1,1.272,1.1c0,.666-.5,1.11-1.32,1.118C-1047.438,4813.234-1048.667,4813.226-1049.9,4813.226Z" transform="translate(1078.294 -4775.351)" fill="#12263f"/>
    </g>
  </g>
</svg>
