<svg xmlns="http://www.w3.org/2000/svg" xmlns:xlink="http://www.w3.org/1999/xlink" width="138" height="138" viewBox="0 0 138 138">
  <defs>
    <clipPath id="clip-path">
      <circle id="Elipse_5566" data-name="Elipse 5566" cx="64" cy="64" r="64" transform="translate(994 2781)" fill="#fff"/>
    </clipPath>
  </defs>
  <g id="Grupo_123198" data-name="Grupo 123198" transform="translate(-989 -2583)">
    <g id="Grupo_117200" data-name="Grupo 117200" transform="translate(0 -193)">
      <g id="Elipse_5565" data-name="Elipse 5565" transform="translate(989 2776)" fill="#fff" stroke="#1699bf" stroke-width="5">
        <circle cx="69" cy="69" r="69" stroke="none"/>
        <circle cx="69" cy="69" r="66.5" fill="none"/>
      </g>
      <g id="Enmascarar_grupo_245" data-name="Enmascarar grupo 245" clip-path="url(#clip-path)">
        <g id="Grupo_117199" data-name="Grupo 117199" transform="translate(638.898 2397.97)">
          <g id="Grupo_117186" data-name="Grupo 117186" transform="translate(391.01 397.932)">
            <g id="Grupo_117185" data-name="Grupo 117185" transform="translate(0 0)">
              <g id="Grupo_117184" data-name="Grupo 117184">
                <g id="Grupo_117183" data-name="Grupo 117183">
                  <g id="Grupo_117182" data-name="Grupo 117182">
                    <rect id="Rectángulo_42743" data-name="Rectángulo 42743" width="55.678" height="76.949" fill="#e9e9e9"/>
                    <g id="Grupo_117180" data-name="Grupo 117180" transform="translate(3.19 53.649)">
                      <rect id="Rectángulo_42744" data-name="Rectángulo 42744" width="23.926" height="1.67" fill="#81777a"/>
                      <rect id="Rectángulo_42745" data-name="Rectángulo 42745" width="23.926" height="1.67" transform="translate(0 2.591)" fill="#81777a"/>
                      <rect id="Rectángulo_42746" data-name="Rectángulo 42746" width="23.926" height="1.67" transform="translate(0 5.181)" fill="#81777a"/>
                      <rect id="Rectángulo_42747" data-name="Rectángulo 42747" width="23.926" height="1.67" transform="translate(0 7.772)" fill="#81777a"/>
                      <rect id="Rectángulo_42748" data-name="Rectángulo 42748" width="23.926" height="1.67" transform="translate(0 10.362)" fill="#81777a"/>
                      <rect id="Rectángulo_42749" data-name="Rectángulo 42749" width="23.926" height="1.67" transform="translate(0 12.953)" fill="#81777a"/>
                      <rect id="Rectángulo_42750" data-name="Rectángulo 42750" width="23.926" height="1.67" transform="translate(0 15.544)" fill="#81777a"/>
                      <rect id="Rectángulo_42751" data-name="Rectángulo 42751" width="23.926" height="1.67" transform="translate(0 18.135)" fill="#81777a"/>
                    </g>
                    <g id="Grupo_117181" data-name="Grupo 117181" transform="translate(29.719 53.649)">
                      <rect id="Rectángulo_42752" data-name="Rectángulo 42752" width="23.927" height="1.67" fill="#81777a"/>
                      <rect id="Rectángulo_42753" data-name="Rectángulo 42753" width="23.927" height="1.67" transform="translate(0 2.591)" fill="#81777a"/>
                      <rect id="Rectángulo_42754" data-name="Rectángulo 42754" width="23.927" height="1.67" transform="translate(0 5.181)" fill="#81777a"/>
                      <rect id="Rectángulo_42755" data-name="Rectángulo 42755" width="23.927" height="1.67" transform="translate(0 7.772)" fill="#81777a"/>
                      <rect id="Rectángulo_42756" data-name="Rectángulo 42756" width="23.927" height="1.67" transform="translate(0 10.362)" fill="#81777a"/>
                      <rect id="Rectángulo_42757" data-name="Rectángulo 42757" width="23.927" height="1.67" transform="translate(0 12.953)" fill="#81777a"/>
                      <rect id="Rectángulo_42758" data-name="Rectángulo 42758" width="23.927" height="1.67" transform="translate(0 15.544)" fill="#81777a"/>
                      <rect id="Rectángulo_42759" data-name="Rectángulo 42759" width="23.927" height="1.67" transform="translate(0 18.135)" fill="#81777a"/>
                    </g>
                    <rect id="Rectángulo_42760" data-name="Rectángulo 42760" width="4.404" height="3.818" transform="translate(3.19 42.792)" fill="#e89e97"/>
                    <rect id="Rectángulo_42761" data-name="Rectángulo 42761" width="4.404" height="3.818" transform="translate(3.19 48.346)" fill="#81cbf1"/>
                    <rect id="Rectángulo_42762" data-name="Rectángulo 42762" width="4.404" height="3.818" transform="translate(28.961 42.792)" fill="#d4d12f"/>
                    <rect id="Rectángulo_42763" data-name="Rectángulo 42763" width="4.404" height="3.817" transform="translate(28.961 48.346)" fill="#f9b23b"/>
                    <rect id="Rectángulo_42764" data-name="Rectángulo 42764" width="5.178" height="1.551" transform="translate(9.975 43.985)" fill="#c0bdbd"/>
                    <rect id="Rectángulo_42765" data-name="Rectángulo 42765" width="5.178" height="1.432" transform="translate(9.975 49.712)" fill="#c0bdbd"/>
                    <rect id="Rectángulo_42766" data-name="Rectángulo 42766" width="5.179" height="1.551" transform="translate(35.216 43.985)" fill="#c0bdbd"/>
                    <rect id="Rectángulo_42767" data-name="Rectángulo 42767" width="5.179" height="1.432" transform="translate(35.216 49.712)" fill="#c0bdbd"/>
                  </g>
                </g>
              </g>
              <rect id="Rectángulo_42768" data-name="Rectángulo 42768" width="49.762" height="6.009" transform="translate(3.206 2.277)" fill="#81cbf1"/>
            </g>
            <rect id="Rectángulo_42769" data-name="Rectángulo 42769" width="50.757" height="1.67" transform="translate(3.19 25.753)" fill="#81777a"/>
            <rect id="Rectángulo_42770" data-name="Rectángulo 42770" width="50.757" height="1.67" transform="translate(3.19 28.433)" fill="#81777a"/>
            <rect id="Rectángulo_42771" data-name="Rectángulo 42771" width="50.757" height="1.67" transform="translate(3.19 31.112)" fill="#81777a"/>
            <rect id="Rectángulo_42772" data-name="Rectángulo 42772" width="50.757" height="1.671" transform="translate(3.19 33.791)" fill="#81777a"/>
            <rect id="Rectángulo_42773" data-name="Rectángulo 42773" width="50.757" height="1.67" transform="translate(3.19 36.47)" fill="#81777a"/>
            <rect id="Rectángulo_42774" data-name="Rectángulo 42774" width="50.757" height="1.67" transform="translate(3.19 39.149)" fill="#81777a"/>
            <rect id="Rectángulo_42775" data-name="Rectángulo 42775" width="50.757" height="1.67" transform="translate(3.19 20.395)" fill="#81777a"/>
            <rect id="Rectángulo_42776" data-name="Rectángulo 42776" width="50.757" height="1.67" transform="translate(3.19 23.074)" fill="#81777a"/>
          </g>
          <g id="Grupo_117188" data-name="Grupo 117188" transform="translate(407.43 413.126)">
            <g id="Grupo_117187" data-name="Grupo 117187" transform="translate(0 0)">
              <path id="Trazado_239489" data-name="Trazado 239489" d="M1996.8,1047.307a2.3,2.3,0,0,1-.915.153,1.7,1.7,0,0,1-1.866-1.782,1.816,1.816,0,0,1,1.945-1.893,2.1,2.1,0,0,1,.878.159l-.164.64a1.739,1.739,0,0,0-.677-.132,1.171,1.171,0,0,0,.005,2.342,2.015,2.015,0,0,0,.671-.116Z" transform="translate(-1994.023 -1043.786)" fill="#81777a"/>
              <path id="Trazado_239490" data-name="Trazado 239490" d="M2124.411,1045.589a1.7,1.7,0,0,1-1.75,1.877,1.662,1.662,0,0,1-1.676-1.813,1.725,1.725,0,0,1,1.734-1.866A1.661,1.661,0,0,1,2124.411,1045.589Zm-2.574.048c0,.7.328,1.189.867,1.189s.857-.518.857-1.21c0-.64-.307-1.19-.862-1.19S2121.836,1044.944,2121.836,1045.636Z" transform="translate(-2117.998 -1043.786)" fill="#81777a"/>
              <path id="Trazado_239491" data-name="Trazado 239491" d="M2289.071,1049.821v-3.563h.941l.74,1.306a10.316,10.316,0,0,1,.582,1.221h.016a13.313,13.313,0,0,1-.068-1.485v-1.041h.74v3.563h-.846l-.761-1.375a13.209,13.209,0,0,1-.618-1.258l-.016.005c.021.47.032.973.032,1.554v1.073Z" transform="translate(-2282.13 -1046.2)" fill="#81777a"/>
              <path id="Trazado_239492" data-name="Trazado 239492" d="M2433.619,1046.935h-.957v-.677h2.738v.677h-.973v2.886h-.809Z" transform="translate(-2422.343 -1046.2)" fill="#81777a"/>
              <path id="Trazado_239493" data-name="Trazado 239493" d="M2567.263,1045.209a7.083,7.083,0,0,1,1.073-.074,1.818,1.818,0,0,1,1.152.28.9.9,0,0,1,.328.745.946.946,0,0,1-.629.878v.016a.9.9,0,0,1,.476.666c.111.4.222.867.291,1h-.825a4.477,4.477,0,0,1-.249-.83c-.095-.444-.249-.566-.576-.571h-.243v1.4h-.8Zm.8,1.533h.317c.4,0,.64-.2.64-.513,0-.328-.222-.492-.592-.5a2.028,2.028,0,0,0-.365.026Z" transform="translate(-2553.777 -1045.103)" fill="#81777a"/>
              <path id="Trazado_239494" data-name="Trazado 239494" d="M2692.614,1048.906l-.254.915h-.835l1.089-3.563h1.058l1.1,3.563h-.867l-.275-.915Zm.9-.6-.222-.756c-.063-.211-.127-.476-.18-.687h-.011c-.053.212-.106.481-.164.687l-.212.756Z" transform="translate(-2675.116 -1046.2)" fill="#81777a"/>
              <path id="Trazado_239495" data-name="Trazado 239495" d="M2840.146,1047.307a2.3,2.3,0,0,1-.915.153,1.7,1.7,0,0,1-1.866-1.782,1.816,1.816,0,0,1,1.945-1.893,2.1,2.1,0,0,1,.878.159l-.164.64a1.739,1.739,0,0,0-.677-.132,1.171,1.171,0,0,0,0,2.342,2.017,2.017,0,0,0,.672-.116Z" transform="translate(-2817.525 -1043.786)" fill="#81777a"/>
              <path id="Trazado_239496" data-name="Trazado 239496" d="M2970.675,1046.935h-.957v-.677h2.739v.677h-.973v2.886h-.809Z" transform="translate(-2946.764 -1046.2)" fill="#81777a"/>
            </g>
          </g>
          <path id="Trazado_239497" data-name="Trazado 239497" d="M2761.46,1795.413l2.979-1.487-4.572-9.157-2.979,1.487Z" transform="translate(-2331.512 -1354.211)" fill="#a5a1a0"/>
          <rect id="Rectángulo_42777" data-name="Rectángulo 42777" width="8.954" height="9.128" transform="matrix(0.893, -0.449, 0.449, 0.893, 433.175, 452.817)" fill="#ddac84"/>
          <path id="Trazado_239498" data-name="Trazado 239498" d="M3374.56,2188.443l1.024,2.267a19.235,19.235,0,0,1,.429,3.134c.04,1.418-2.319,3.167-2.319,3.167l1.633,3.248-7.141,3.591c-2.068-3.491-5.023-8.357-6.56-10.337a2.234,2.234,0,0,1,.332.244c-1.633-4.453-1.027-10.54-.8-12.34,1.863-1.573,4.709-4.2,6.779-6.141Z" transform="translate(-2921.272 -1735.53)" fill="#efbc8b"/>
          <path id="Trazado_239499" data-name="Trazado 239499" d="M3199.527,2428.112l4.364.244a15.86,15.86,0,0,0-.175,16.522c5.146,8.969-7.337-3.839-7.337-3.839Z" transform="translate(-2760.664 -1982.419)" fill="#ddac84"/>
          <path id="Trazado_239500" data-name="Trazado 239500" d="M2805.19,3032.252c5.144-.049,10.722,1.234,11.5-2.26a6.628,6.628,0,0,0,.156-1.163c1.587,2.372,3.678,5.832,5.255,8.494l-7.356,3.7-2.526-5.024a59.368,59.368,0,0,1-8.7-3.043,4.763,4.763,0,0,1-1.9-1.878C2802.177,3031.74,2803.232,3032.271,2805.19,3032.252Z" transform="translate(-2375.192 -2569.004)" fill="#ddac84"/>
          <g id="Grupo_117191" data-name="Grupo 117191" transform="translate(402.347 399.346)">
            <g id="Grupo_117190" data-name="Grupo 117190" transform="translate(0 0)">
              <g id="Grupo_117189" data-name="Grupo 117189">
                <path id="Trazado_239501" data-name="Trazado 239501" d="M1779.787,483.41a17.6,17.6,0,1,0,8.008-23.57A17.6,17.6,0,0,0,1779.787,483.41Zm9.343-20.861a14.582,14.582,0,1,1-6.635,19.525A14.582,14.582,0,0,1,1789.13,462.549Z" transform="translate(-1777.971 -458.023)" fill="#a5a1a0"/>
                <path id="Trazado_239502" data-name="Trazado 239502" d="M1914.448,650.422l12.891,26.16a14.582,14.582,0,1,1-12.891-26.16Z" transform="translate(-1903.289 -645.896)" fill="#b6d4d5" style="mix-blend-mode: multiply;isolation: isolate"/>
              </g>
            </g>
            <path id="Trazado_239503" data-name="Trazado 239503" d="M1891.622,574.059a15.073,15.073,0,1,1,8.178,19.687A15.091,15.091,0,0,1,1891.622,574.059Zm.654.27a14.368,14.368,0,1,0,18.764-7.8A14.384,14.384,0,0,0,1892.276,574.329Z" transform="translate(-1887.833 -562.229)" fill="#132d2f"/>
          </g>
          <path id="Trazado_239504" data-name="Trazado 239504" d="M2881.782,2116.461a4.313,4.313,0,0,0,2.155-5.695l-9.243-18.51a4.312,4.312,0,0,0-5.847-1.7h0a4.312,4.312,0,0,0-2.155,5.7l9.242,18.51a4.313,4.313,0,0,0,5.848,1.7Z" transform="translate(-2438.335 -1652.311)" fill="#0d2540"/>
          <path id="Trazado_239505" data-name="Trazado 239505" d="M2460.55,2270.75c-1.958.018-3.013-.512-3.57-1.176a3.452,3.452,0,0,1-.307-1.215,3.125,3.125,0,0,1,1.43-2.923c-1.6.309-3.916.125-4.12-2.336a2.954,2.954,0,0,1,1.762-3.157s-4.04.818-4.414-1.8a3.363,3.363,0,0,1,2.246-3.535l-3.35-.271a2.413,2.413,0,0,1-1.551-2.547c-.032-2.164,2.375-2.565,2.375-2.565s9.968-.336,11.065-.213a1.164,1.164,0,0,1,.84.776,3.892,3.892,0,0,0-.6.726c-.857,1.354-2.9,4.43-2.9,4.43a2.685,2.685,0,0,0-.782,1.547c-.178.581.109,1.424,1.416,2.647,2.946,2.755,5.632-1.651,6.389-3.074.977,2.092-1.851,3.488-1.851,3.488,2.766-.042,4.294.4,4.64,2.432a2.919,2.919,0,0,1-1.6,2.977,4.652,4.652,0,0,1,3.233.527c.365.47.811,1.1,1.3,1.843a6.6,6.6,0,0,1-.156,1.163C2471.273,2271.984,2465.694,2270.7,2460.55,2270.75Z" transform="translate(-2030.552 -1807.502)" fill="#efbc8b"/>
          <g id="Grupo_117192" data-name="Grupo 117192" transform="translate(428.075 447.957)">
            <path id="Trazado_239506" data-name="Trazado 239506" d="M2873.257,2527.936c3.076,2.042,4.46-1.525,4.46-1.525l1.36-2.05a3.056,3.056,0,0,1,.374.6c-.758,1.423-3.444,5.829-6.39,3.074-1.307-1.222-1.594-2.066-1.416-2.647C2871.574,2526.12,2871.889,2527.029,2873.257,2527.936Z" transform="translate(-2871.598 -2524.361)" fill="#dba87f"/>
          </g>
          <path id="Trazado_239507" data-name="Trazado 239507" d="M2849.474,2927.423c.07-.006.174-.015.305-.025.264-.02.64-.05,1.092-.081l.73-.049.814-.052.871-.051.9-.05.9-.045c.3-.016.589-.027.872-.04l.816-.034.73-.027c.227-.009.434-.014.618-.02l.477-.013c.132,0,.236-.006.306-.007l.109,0-.108.009c-.071.006-.174.016-.305.025l-.476.036c-.183.014-.39.03-.616.045l-.729.049-.815.051c-.282.017-.574.035-.871.051l-.9.049-.9.045-.871.04-.816.034-.731.027c-.453.017-.83.025-1.094.033-.132,0-.236.005-.307.007l-.109,0Z" transform="translate(-2421.814 -2469.498)" fill="#ddac84"/>
          <path id="Trazado_239508" data-name="Trazado 239508" d="M2735.673,2696.632c.07-.006.174-.015.305-.025.264-.019.64-.05,1.092-.081l.73-.049.814-.051.871-.051.9-.049.9-.045c.3-.015.589-.027.872-.04l.815-.034.731-.028c.226-.009.434-.015.617-.02l.477-.014c.132,0,.236-.005.306-.007l.108,0-.108.009-.306.025-.475.036c-.184.014-.39.03-.616.045l-.73.049-.814.052c-.283.016-.574.035-.871.051l-.9.05-.9.045-.872.04-.815.034-.731.028c-.453.017-.83.025-1.094.034-.132,0-.236.005-.307.007l-.109,0Z" transform="translate(-2310.69 -2244.136)" fill="#ddac84"/>
          <path id="Trazado_239509" data-name="Trazado 239509" d="M2654.906,2468.077c.071-.006.174-.015.306-.025.263-.019.64-.051,1.091-.082l.729-.049.815-.052.871-.051.9-.049.9-.045c.3-.015.589-.027.872-.04l.815-.034.731-.028c.226-.009.434-.014.618-.02l.476-.014c.132,0,.236-.006.307-.007l.109,0-.108.009c-.071.006-.174.015-.306.025l-.475.036c-.183.014-.391.03-.616.045l-.729.049-.814.052c-.283.016-.574.035-.871.051l-.9.05-.9.045-.872.04-.815.034-.731.028c-.452.017-.83.025-1.094.033-.132,0-.236.006-.306.007l-.109,0Z" transform="translate(-2231.824 -2020.958)" fill="#ddac84"/>
          <path id="Trazado_239510" data-name="Trazado 239510" d="M2873.24,2077.583a2.682,2.682,0,0,1,.782-1.546s2.041-3.077,2.9-4.43a3.881,3.881,0,0,1,.6-.726,5.273,5.273,0,0,1,1.852-1.122l7.2-3.621c2.946-1.481,5.083,1.955,5.083,1.955l.127.251c-2.07,1.939-4.917,4.568-6.78,6.141.043-.334.072-.521.072-.521l-3.723,1.565-.187.282-.494.745-1.361,2.05s-1.384,3.566-4.461,1.525C2873.483,2079.223,2873.169,2078.314,2873.24,2077.583Z" transform="translate(-2445.118 -1628.598)" fill="#efbc8b"/>
          <g id="Grupo_117193" data-name="Grupo 117193" transform="translate(438.149 463.772)">
            <path id="Trazado_239511" data-name="Trazado 239511" d="M3657.961,3200.567l7.539-3.791a1.608,1.608,0,0,1,2.16.714l2.884,5.735a1.609,1.609,0,0,1-.714,2.16l-7.539,3.791-.984-1.957Z" transform="translate(-3649.536 -3196.604)" fill="#35adb1"/>
            <path id="Trazado_239512" data-name="Trazado 239512" d="M3300.713,3368.828l7.539-3.791,3.345,6.652.984,1.958-7.539,3.791a1.609,1.609,0,0,1-2.16-.714l-2.884-5.736A1.608,1.608,0,0,1,3300.713,3368.828Z" transform="translate(-3299.827 -3361.075)" fill="#209fa8"/>
          </g>
          <g id="Grupo_117194" data-name="Grupo 117194" transform="translate(438.53 466.203)">
            <path id="Trazado_239513" data-name="Trazado 239513" d="M3317.028,3500.4l8.72-4.385,16.408,35.382h-12.679l-13.361-29.333C3315.849,3501.536,3316.257,3500.79,3317.028,3500.4Z" transform="translate(-3316.035 -3491.405)" fill="#0d2540"/>
            <path id="Trazado_239514" data-name="Trazado 239514" d="M3745.343,3339.915l-16.408-35.382,8.72-4.385c.771-.388,1.612-.271,1.879.261l18.348,39.505h-12.539Z" transform="translate(-3719.221 -3299.92)" fill="#0f304e"/>
          </g>
          <g id="Grupo_117196" data-name="Grupo 117196" transform="translate(379.022 436.182)">
            <g id="Grupo_117195" data-name="Grupo 117195" transform="translate(0 0)">
              <path id="Trazado_239515" data-name="Trazado 239515" d="M802.881,2068.18c2.681-6.135,3.769-6.711,4.285-11.806s-1.943-12.437-2.233-16.356a27.641,27.641,0,0,1,1.7-10.009c.454-1.1.178-6.274-3.6-6.2-2.311.046-3.634,4.248-4.511,8.43,0,0-.761,5.222-1.477,6.636a50.256,50.256,0,0,0-2.921,8.513s1.22-6.4,2.242-8.581a11.945,11.945,0,0,0,1.128-6.173c-3.057,1.364-7.985,4.938-8.728,6.662-.9,2.083-.211,14.507-.173,19.773.02,2.754-1.061,9.589-2.1,15.483l14.519,1.471A29.778,29.778,0,0,1,802.881,2068.18Z" transform="translate(-786.491 -2023.808)" fill="#efbc8b"/>
            </g>
            <path id="Trazado_239516" data-name="Trazado 239516" d="M1112.987,2388.735c-1.022,2.184-2.242,8.581-2.242,8.581a50.218,50.218,0,0,1,2.922-8.512c.715-1.415,1.477-6.636,1.477-6.636a8.953,8.953,0,0,0-1.027.394A11.946,11.946,0,0,1,1112.987,2388.735Z" transform="translate(-1103.117 -2373.736)" fill="#ddac84"/>
          </g>
          <g id="Grupo_117197" data-name="Grupo 117197" transform="translate(376.234 476.088)">
            <path id="Trazado_239517" data-name="Trazado 239517" d="M679.941,3722.508l-8.109-2.335a1.609,1.609,0,0,0-1.991,1.1l-1.776,6.169a1.608,1.608,0,0,0,1.1,1.991l8.109,2.335.606-2.105Z" transform="translate(-668.002 -3720.11)" fill="#35adb1"/>
            <path id="Trazado_239518" data-name="Trazado 239518" d="M1072.938,3824.379l-8.109-2.334-2.06,7.155-.606,2.1,8.109,2.335a1.608,1.608,0,0,0,1.991-1.1l1.776-6.169A1.609,1.609,0,0,0,1072.938,3824.379Z" transform="translate(-1052.89 -3819.647)" fill="#209fa8"/>
          </g>
          <g id="Grupo_117198" data-name="Grupo 117198" transform="translate(369.205 479.035)">
            <path id="Trazado_239519" data-name="Trazado 239519" d="M878.582,3988.246l4.985-20.207c.165-.572-.374-1.229-1.2-1.468l-9.38-2.7-6.19,24.376Z" transform="translate(-855.089 -3961.083)" fill="#0d2540"/>
            <path id="Trazado_239520" data-name="Trazado 239520" d="M387.1,3848.165l-9.38-2.7c-.829-.239-1.634.032-1.8.6l-6.718,26.473h11.706Z" transform="translate(-369.205 -3845.378)" fill="#0f304e"/>
          </g>
        </g>
      </g>
    </g>
  </g>
</svg>
