<svg xmlns="http://www.w3.org/2000/svg" width="256.41" height="157" viewBox="0 0 256.41 157">
  <g id="Grupo_18" data-name="Grupo 18" transform="translate(-1267 -453)">
    <g id="Grupo_14" data-name="Grupo 14">
      <path id="Rect치ngulo_5" data-name="Rect치ngulo 5" d="M38,0H152a38,38,0,0,1,38,38v80a0,0,0,0,1,0,0H0a0,0,0,0,1,0,0V38A38,38,0,0,1,38,0Z" transform="translate(1267 492)" fill="#28acd3" opacity="0.25"/>
      <path id="Trazado_239579" data-name="Trazado 239579" d="M38.384,19V6.2h3.938a5.98,5.98,0,0,1,3.019.76,5.3,5.3,0,0,1,2.079,2.162,6.669,6.669,0,0,1,.747,3.186V12.9a6.688,6.688,0,0,1-.734,3.173,5.256,5.256,0,0,1-2.07,2.153A6.025,6.025,0,0,1,42.348,19ZM41.021,8.339v8.543H42.3a2.863,2.863,0,0,0,2.364-1.011,4.567,4.567,0,0,0,.835-2.892V12.3a4.64,4.64,0,0,0-.809-2.958,2.854,2.854,0,0,0-2.364-1.006ZM54.292,19.176a4.668,4.668,0,0,1-3.406-1.283,4.561,4.561,0,0,1-1.314-3.419v-.246a5.745,5.745,0,0,1,.554-2.562A4.064,4.064,0,0,1,51.7,9.925a4.4,4.4,0,0,1,2.316-.611,3.947,3.947,0,0,1,3.072,1.23A5,5,0,0,1,58.2,14.034v1.037H52.148a2.36,2.36,0,0,0,.743,1.494,2.245,2.245,0,0,0,1.569.563,2.742,2.742,0,0,0,2.294-1.063L58,17.462a3.813,3.813,0,0,1-1.547,1.261A5.075,5.075,0,0,1,54.292,19.176ZM54,11.362a1.587,1.587,0,0,0-1.226.512,2.651,2.651,0,0,0-.6,1.466h3.533v-.2a1.891,1.891,0,0,0-.457-1.311A1.638,1.638,0,0,0,54,11.362ZM64.8,16.372a.818.818,0,0,0-.461-.734,5.241,5.241,0,0,0-1.481-.479q-3.393-.712-3.393-2.883a2.613,2.613,0,0,1,1.05-2.114,4.237,4.237,0,0,1,2.747-.848,4.56,4.56,0,0,1,2.9.853,2.687,2.687,0,0,1,1.085,2.215H64.7a1.229,1.229,0,0,0-.352-.9,1.488,1.488,0,0,0-1.1-.356,1.52,1.52,0,0,0-.993.29.916.916,0,0,0-.352.738.783.783,0,0,0,.4.681,4.114,4.114,0,0,0,1.349.448,11.019,11.019,0,0,1,1.6.426,2.628,2.628,0,0,1,2.013,2.558,2.481,2.481,0,0,1-1.116,2.1,4.815,4.815,0,0,1-2.883.8,5.029,5.029,0,0,1-2.123-.426,3.561,3.561,0,0,1-1.455-1.169,2.716,2.716,0,0,1-.527-1.6H61.57a1.326,1.326,0,0,0,.5,1.037,1.987,1.987,0,0,0,1.248.36,1.839,1.839,0,0,0,1.1-.277A.861.861,0,0,0,64.8,16.372Zm7.146-9.22V9.49h1.626v1.863H71.941V16.1a1.133,1.133,0,0,0,.2.756,1.015,1.015,0,0,0,.773.229,4.051,4.051,0,0,0,.747-.062v1.925a5.229,5.229,0,0,1-1.538.229,2.425,2.425,0,0,1-2.725-2.7V11.354H68.012V9.49H69.4V7.152ZM77.663,19H75.114V9.49h2.549Zm-2.7-11.971a1.251,1.251,0,0,1,.382-.94,1.648,1.648,0,0,1,2.079,0,1.244,1.244,0,0,1,.387.94,1.247,1.247,0,0,1-.391.949,1.629,1.629,0,0,1-2.065,0A1.247,1.247,0,0,1,74.964,7.029ZM82.092,9.49l.079,1.1A3.32,3.32,0,0,1,84.9,9.314a2.759,2.759,0,0,1,2.25.888,4.142,4.142,0,0,1,.756,2.654V19h-2.54V12.918a1.648,1.648,0,0,0-.352-1.173,1.574,1.574,0,0,0-1.169-.365,1.747,1.747,0,0,0-1.608.914V19H79.7V9.49ZM95.346,19a2.821,2.821,0,0,1-.255-.853,3.073,3.073,0,0,1-2.4,1.028,3.376,3.376,0,0,1-2.316-.809,2.6,2.6,0,0,1-.918-2.039,2.687,2.687,0,0,1,1.121-2.32,5.529,5.529,0,0,1,3.239-.817h1.169v-.545a1.567,1.567,0,0,0-.338-1.055,1.331,1.331,0,0,0-1.068-.4,1.513,1.513,0,0,0-1.006.308,1.045,1.045,0,0,0-.365.844h-2.54a2.551,2.551,0,0,1,.51-1.529,3.37,3.37,0,0,1,1.441-1.1,5.253,5.253,0,0,1,2.092-.4A4.15,4.15,0,0,1,96.5,10.2a3.09,3.09,0,0,1,1.033,2.483V16.8a4.546,4.546,0,0,0,.378,2.048V19Zm-2.1-1.767a2.188,2.188,0,0,0,1.037-.25,1.645,1.645,0,0,0,.7-.672V14.676h-.949q-1.907,0-2.03,1.318L92,16.144a1.017,1.017,0,0,0,.334.782A1.3,1.3,0,0,0,93.246,17.233Zm9.281-10.081V9.49h1.626v1.863h-1.626V16.1a1.133,1.133,0,0,0,.2.756,1.015,1.015,0,0,0,.773.229,4.051,4.051,0,0,0,.747-.062v1.925a5.229,5.229,0,0,1-1.538.229,2.425,2.425,0,0,1-2.725-2.7V11.354H98.6V9.49h1.389V7.152ZM111.079,19a2.821,2.821,0,0,1-.255-.853,3.073,3.073,0,0,1-2.4,1.028,3.376,3.376,0,0,1-2.316-.809,2.6,2.6,0,0,1-.918-2.039,2.687,2.687,0,0,1,1.121-2.32,5.529,5.529,0,0,1,3.239-.817h1.169v-.545a1.567,1.567,0,0,0-.338-1.055,1.331,1.331,0,0,0-1.068-.4,1.513,1.513,0,0,0-1.006.308,1.045,1.045,0,0,0-.365.844H105.4a2.551,2.551,0,0,1,.51-1.529,3.37,3.37,0,0,1,1.441-1.1,5.253,5.253,0,0,1,2.092-.4,4.15,4.15,0,0,1,2.791.883,3.09,3.09,0,0,1,1.033,2.483V16.8a4.546,4.546,0,0,0,.378,2.048V19Zm-2.1-1.767a2.188,2.188,0,0,0,1.037-.25,1.645,1.645,0,0,0,.7-.672V14.676h-.949q-1.907,0-2.03,1.318l-.009.149a1.017,1.017,0,0,0,.334.782A1.3,1.3,0,0,0,108.978,17.233Zm11.584-5.361a6.9,6.9,0,0,0-.914-.07,1.86,1.86,0,0,0-1.89.976V19h-2.54V9.49h2.4l.07,1.134a2.354,2.354,0,0,1,2.118-1.31,2.662,2.662,0,0,1,.791.114Zm3.9,7.128h-2.549V9.49h2.549Zm-2.7-11.971a1.251,1.251,0,0,1,.382-.94,1.648,1.648,0,0,1,2.079,0,1.244,1.244,0,0,1,.387.94,1.247,1.247,0,0,1-.391.949,1.629,1.629,0,0,1-2.065,0A1.247,1.247,0,0,1,121.766,7.029Zm4.395,7.128a5.64,5.64,0,0,1,.545-2.522,3.989,3.989,0,0,1,1.569-1.714,4.577,4.577,0,0,1,2.377-.606,4.33,4.33,0,0,1,3.142,1.178,4.727,4.727,0,0,1,1.358,3.2l.018.65a4.97,4.97,0,0,1-1.222,3.511,4.735,4.735,0,0,1-6.561,0,5.058,5.058,0,0,1-1.226-3.586Zm2.54.18a3.555,3.555,0,0,0,.51,2.073,1.831,1.831,0,0,0,2.9.009,3.89,3.89,0,0,0,.519-2.267,3.519,3.519,0,0,0-.519-2.06,1.686,1.686,0,0,0-1.459-.731,1.658,1.658,0,0,0-1.441.726A3.955,3.955,0,0,0,128.7,14.338Z" transform="translate(1276 578.028)" fill="#12263f"/>
      <g id="Rect치ngulo_9" data-name="Rect치ngulo 9" transform="translate(1301 453)" fill="#fff" stroke="#28acd3" stroke-width="4">
        <rect width="121" height="119" rx="59.5" stroke="none"/>
        <rect x="2" y="2" width="117" height="115" rx="57.5" fill="none"/>
      </g>
      <g id="Grupo_7" data-name="Grupo 7" transform="translate(801.303 -4176.687)">
        <path id="Trazado_239566" data-name="Trazado 239566" d="M566.9,4665.891v.883q0,11.735,0,23.471c0,1.612-.391,2.011-1.972,2.011q-17.75,0-35.5,0c-1.458,0-1.884-.42-1.885-1.871q0-11.846,0-23.69c0-.521,0-.9-.674-1.043a1.206,1.206,0,0,1-.891-1.29c-.008-2.542-.015-5.085,0-7.628a1.333,1.333,0,0,1,1.33-1.381c.219-.019.44-.01.66-.01h38.434c1.7,0,2.07.373,2.071,2.066q0,3.19,0,6.381C568.483,4665.16,568.276,4665.449,566.9,4665.891Zm-33.261,23.563v-.958q0-6.013,0-12.025c0-1.458.417-1.874,1.877-1.874q11.7,0,23.392,0c1.473,0,1.873.4,1.873,1.866q0,6.049,0,12.1v.875H564.1c.018-.213.044-.38.044-.545q0-11.219.013-22.438c0-.586-.233-.68-.739-.676-2.664.018-5.328.007-7.993.011-.208,0-.417.04-.678.065,0,1.3.007,2.546,0,3.789-.01,1.392-.762,1.938-2.114,1.534-1.615-.482-3.222-.994-4.844-1.448a2.185,2.185,0,0,0-1.125.006c-1.67.469-3.321,1-4.988,1.481a1.372,1.372,0,0,1-1.956-1.435c-.023-1.1-.033-2.2,0-3.3.019-.55-.162-.713-.707-.708-2.688.024-5.377.011-8.066.014-.19,0-.381.03-.6.049v23.615ZM558,4677.382H536.4a9.148,9.148,0,0,1-.008,1.12c-.089.7.156.915.876.908,3.911-.035,7.822-.018,11.733-.015a4.427,4.427,0,0,1,1.019.07,1.268,1.268,0,0,1,1.029,1.262,1.3,1.3,0,0,1-1.011,1.351,3.764,3.764,0,0,1-.873.064c-4.009,0-8.017.013-12.026-.008-.566,0-.763.139-.752.734.036,2,.012,4.008.017,6.012a5.535,5.535,0,0,0,.058.564H558Zm-15.486-19.246v9.967a22.926,22.926,0,0,0,2.37-.743,5.706,5.706,0,0,1,4.735.015,24.069,24.069,0,0,0,2.308.725v-9.964Zm12.27,4.848h10.881v-4.834H554.79Zm-15.083-4.838h-10.9v4.883h3.568c2.221,0,4.443.01,6.664-.016.223,0,.633-.214.636-.337C539.722,4661.171,539.706,4659.666,539.706,4658.145Z" transform="translate(-0.075 0)" fill="#12263f"/>
        <path id="Trazado_239567" data-name="Trazado 239567" d="M671.1,5040.487H649.9c-.245,0-.49.007-.733,0a1.372,1.372,0,1,1,.02-2.74c.244-.011.489,0,.733,0q21.125,0,42.249.006a4.323,4.323,0,0,0,3.157-1.125,4.126,4.126,0,0,0-2.435-7.134,16.291,16.291,0,0,0-1.686-.03q-6.821,0-13.643,0a4.494,4.494,0,0,1-.8-.042,1.354,1.354,0,0,1,.082-2.68,2.777,2.777,0,0,1,.366-.014c5.134,0,10.269-.036,15.4.014a6.868,6.868,0,0,1,.125,13.734c-2.468.063-4.938.02-7.408.021Q678.212,5040.49,671.1,5040.487Z" transform="translate(-103.968 -316.884)" fill="#12263f"/>
        <path id="Trazado_239568" data-name="Trazado 239568" d="M548.786,4933.365a16.08,16.08,0,0,1-2.625,8.207,37.7,37.7,0,0,1-7.7,8.982c-.739.647-1.393.724-2.039.156-4-3.521-7.518-7.426-9.521-12.464a11.688,11.688,0,0,1,.64-10.784,11.439,11.439,0,0,1,21.244,5.9Zm-11.45,14.5a37.69,37.69,0,0,0,5.755-6.586,16.765,16.765,0,0,0,2.687-5.817,8.373,8.373,0,0,0-3.016-8.852,8.113,8.113,0,0,0-9.273-1,8.23,8.23,0,0,0-4.787,8.083,10.2,10.2,0,0,0,.591,3.076C530.878,4941.218,533.946,4944.61,537.336,4947.862Z" transform="translate(0 -227.472)" fill="#12263f"/>
        <path id="Trazado_239569" data-name="Trazado 239569" d="M848.975,4681.583a11.438,11.438,0,0,1,22.749-1.693,14.009,14.009,0,0,1-1.837,8.741,36.074,36.074,0,0,1-8.392,10.185,1.339,1.339,0,0,1-1.979.141c-4.162-3.644-7.8-7.7-9.725-13a35.444,35.444,0,0,1-1-4.327Zm11.4,14.492a3.177,3.177,0,0,0,.387-.306c1.652-1.861,3.4-3.647,4.921-5.611a14.906,14.906,0,0,0,3.32-7.406,8.281,8.281,0,0,0-3.954-8.468,8.115,8.115,0,0,0-9.446.113,8.344,8.344,0,0,0-3.749,8.63,9.629,9.629,0,0,0,.461,1.842C853.892,4689.391,857,4692.8,860.375,4696.075Z" transform="translate(-275.53 -12.637)" fill="#12263f"/>
        <path id="Trazado_239570" data-name="Trazado 239570" d="M726.4,4899.249q4.877,0,9.755,0a4.036,4.036,0,0,0,4.382-4.383c.006-1.173-.007-2.347.005-3.521.011-1.039.524-1.632,1.378-1.629s1.367.594,1.375,1.631c.01,1.271.019,2.543,0,3.814a6.694,6.694,0,0,1-6.851,6.816c-6.5.028-13.006-.006-19.509.03a5.462,5.462,0,0,0-2.259.471,3.773,3.773,0,0,0-2,4.312,3.928,3.928,0,0,0,3.7,3.024c1.05.037,2.1,0,3.153.014.966.011,1.578.545,1.579,1.358a1.409,1.409,0,0,1-1.572,1.374c-1.076.014-2.152.027-3.227-.008a6.64,6.64,0,0,1-.022-13.274c3.372-.07,6.747-.015,10.121-.015Z" transform="translate(-156.957 -199.991)" fill="#12263f"/>
        <path id="Trazado_239571" data-name="Trazado 239571" d="M805.978,5028.22a1.367,1.367,0,1,1-2.731-.1,1.367,1.367,0,0,1,2.731.1Z" transform="translate(-236.667 -316.99)" fill="#12263f"/>
        <path id="Trazado_239572" data-name="Trazado 239572" d="M616.375,4855.276c-1.294,0-2.588.011-3.882,0-.977-.01-1.562-.538-1.558-1.362a1.38,1.38,0,0,1,1.562-1.37q3.882-.023,7.764,0a1.376,1.376,0,1,1,0,2.735c-1.294.014-2.588,0-3.882,0Z" transform="translate(-72.57 -168.259)" fill="#12263f"/>
        <path id="Trazado_239573" data-name="Trazado 239573" d="M714.422,4820.787a1.357,1.357,0,1,1-1.339-1.362A1.352,1.352,0,0,1,714.422,4820.787Z" transform="translate(-158.558 -140.013)" fill="#12263f"/>
        <path id="Trazado_239574" data-name="Trazado 239574" d="M568.5,4958.727a5.876,5.876,0,1,1-5.841,5.908A5.849,5.849,0,0,1,568.5,4958.727Zm3.136,5.837a3.122,3.122,0,1,0-3.085,3.147A3.128,3.128,0,0,0,571.637,4964.563Z" transform="translate(-31.377 -258.878)" fill="#12263f"/>
        <path id="Trazado_239575" data-name="Trazado 239575" d="M886.742,4712.865a5.868,5.868,0,1,1,5.854,5.874A5.851,5.851,0,0,1,886.742,4712.865Zm5.892,3.107a3.1,3.1,0,1,0-.031-6.206,3.1,3.1,0,1,0,.031,6.206Z" transform="translate(-307.914 -44.079)" fill="#12263f"/>
      </g>
    </g>
    <g id="Grupo_16" data-name="Grupo 16" transform="translate(538.637 132.859)">
      <path id="Trazado_213017" data-name="Trazado 213017" d="M941.726,454.383l-5.85-5.485c4.154-4.1,8.065-8.128,12.179-11.938,1.881-1.741,2-2.849.045-4.653-4.123-3.812-8.014-7.874-12.215-12.046l6.232-5.4,19.451,19.79Z" fill="#12263f"/>
      <path id="Trazado_213018" data-name="Trazado 213018" d="M984.338,454.753l-5.67-5.983c3.663-3.582,7.408-7.164,11.061-10.837,3.821-3.84,3.613-2.814-.058-6.524-3.6-3.635-7.293-7.171-10.969-10.772l5.934-5.609,19.591,19.775Z" transform="translate(-20.864 -0.083)" fill="#12263f"/>
    </g>
    <g id="Grupo_17" data-name="Grupo 17" transform="translate(538.637 132.859)">
      <path id="Trazado_213017-2" data-name="Trazado 213017" d="M941.726,454.383l-5.85-5.485c4.154-4.1,8.065-8.128,12.179-11.938,1.881-1.741,2-2.849.045-4.653-4.123-3.812-8.014-7.874-12.215-12.046l6.232-5.4,19.451,19.79Z" fill="#fff" stroke="#fff" stroke-width="1"/>
      <path id="Trazado_213017_-_Contorno" data-name="Trazado 213017 - Contorno" d="M941.737,455.078l-.352-.33-3.981-3.733-2.248-2.108.37-.365c1.214-1.2,2.422-2.4,3.59-3.571,2.922-2.919,5.682-5.675,8.6-8.378.9-.832,1.3-1.443,1.3-1.981s-.4-1.147-1.255-1.938c-2.919-2.7-5.676-5.476-8.594-8.416-1.18-1.189-2.4-2.418-3.633-3.643l-.382-.38,6.994-6.065.329.335,19.451,19.79.348.354-7.882,7.841-12.311,12.247Zm-5.14-6.189,1.49,1.4,3.629,3.4,11.969-11.906,7.177-7.14-18.773-19.1-5.47,4.744c1.105,1.1,2.2,2.2,3.257,3.268,2.911,2.932,5.66,5.7,8.564,8.386a3.821,3.821,0,0,1,1.576,2.672c0,.852-.484,1.664-1.62,2.715-2.9,2.69-5.658,5.44-8.573,8.352C938.771,446.728,937.688,447.81,936.6,448.889Z" fill="#fff" stroke="#fff" stroke-width="1"/>
      <path id="Trazado_213018-2" data-name="Trazado 213018" d="M984.338,454.753l-5.67-5.983c3.663-3.582,7.408-7.164,11.061-10.837,3.821-3.84,3.613-2.814-.058-6.524-3.6-3.635-7.293-7.171-10.969-10.772l5.934-5.609,19.591,19.775Z" transform="translate(-20.864 -0.083)" fill="#fff" stroke="#fff" stroke-width="1"/>
      <path id="Trazado_213018_-_Contorno" data-name="Trazado 213018 - Contorno" d="M984.328,455.47l-6.362-6.714.352-.344c1.116-1.092,2.26-2.2,3.366-3.277,2.533-2.46,5.152-5,7.69-7.555.388-.39.735-.73,1.04-1.03.962-.944,1.6-1.567,1.6-1.893,0-.294-.565-.832-1.345-1.578-.37-.353-.83-.793-1.35-1.319-2.495-2.521-5.086-5.042-7.592-7.479-1.105-1.075-2.248-2.187-3.371-3.287l-.371-.364,1.061-1,5.25-4.963.355-.335.344.347,19.591,19.775.35.353Zm-4.959-6.687,4.977,5.252,19.176-19.234-18.9-19.075-4.9,4.627-.306.289c1,.98,2.015,1.965,3,2.921,2.509,2.441,5.1,4.965,7.606,7.493.511.516.946.933,1.331,1.3,1.1,1.05,1.649,1.577,1.654,2.294,0,.75-.591,1.334-1.9,2.614-.3.3-.647.635-1.031,1.021-2.544,2.557-5.166,5.1-7.7,7.567C981.392,446.814,980.372,447.8,979.37,448.783Z" transform="translate(-20.864 -0.083)" fill="#fff" stroke="#fff" stroke-width="1"/>
    </g>
  </g>
</svg>
