<svg xmlns="http://www.w3.org/2000/svg" width="251.487" height="157" viewBox="0 0 251.487 157">
  <g id="Grupo_123207" data-name="Grupo 123207" transform="translate(-838 -4167)">
    <g id="Grupo_117219" data-name="Grupo 117219" transform="translate(106.124 3846.859)">
      <path id="Trazado_213017" data-name="Trazado 213017" d="M941.726,454.383l-5.85-5.485c4.154-4.1,8.065-8.128,12.179-11.938,1.881-1.741,2-2.849.045-4.653-4.123-3.812-8.014-7.874-12.215-12.046l6.232-5.4,19.451,19.79Z" fill="#12263f"/>
      <path id="Trazado_213018" data-name="Trazado 213018" d="M984.338,454.753l-5.67-5.983c3.663-3.582,7.408-7.164,11.061-10.837,3.821-3.84,3.613-2.814-.058-6.524-3.6-3.635-7.293-7.171-10.969-10.772l5.934-5.609,19.591,19.775Z" transform="translate(-20.864 -0.083)" fill="#12263f"/>
    </g>
    <g id="Grupo_123206" data-name="Grupo 123206">
      <path id="Rect치ngulo_42823" data-name="Rect치ngulo 42823" d="M38,0H152a38,38,0,0,1,38,38v80a0,0,0,0,1,0,0H0a0,0,0,0,1,0,0V38A38,38,0,0,1,38,0Z" transform="translate(838 4206)" fill="#28acd3" opacity="0.25"/>
      <path id="Trazado_247665" data-name="Trazado 247665" d="M39.382,8.339h-3.92V19H32.825V8.339H28.958V6.2H39.382Zm6.108,3.533a6.9,6.9,0,0,0-.914-.07,1.86,1.86,0,0,0-1.89.976V19h-2.54V9.49h2.4l.07,1.134a2.354,2.354,0,0,1,2.118-1.31,2.662,2.662,0,0,1,.791.114ZM51.959,19a2.821,2.821,0,0,1-.255-.853,3.073,3.073,0,0,1-2.4,1.028,3.376,3.376,0,0,1-2.316-.809,2.6,2.6,0,0,1-.918-2.039,2.687,2.687,0,0,1,1.121-2.32,5.529,5.529,0,0,1,3.239-.817H51.6v-.545a1.567,1.567,0,0,0-.338-1.055,1.331,1.331,0,0,0-1.068-.4,1.513,1.513,0,0,0-1.006.308,1.045,1.045,0,0,0-.365.844h-2.54a2.551,2.551,0,0,1,.51-1.529,3.37,3.37,0,0,1,1.441-1.1,5.253,5.253,0,0,1,2.092-.4,4.15,4.15,0,0,1,2.791.883,3.09,3.09,0,0,1,1.033,2.483V16.8a4.546,4.546,0,0,0,.378,2.048V19Zm-2.1-1.767a2.188,2.188,0,0,0,1.037-.25,1.645,1.645,0,0,0,.7-.672V14.676h-.949q-1.907,0-2.03,1.318l-.009.149a1.017,1.017,0,0,0,.334.782A1.3,1.3,0,0,0,49.858,17.233ZM58.437,9.49l.079,1.1a3.32,3.32,0,0,1,2.733-1.274,2.759,2.759,0,0,1,2.25.888,4.142,4.142,0,0,1,.756,2.654V19h-2.54V12.918a1.648,1.648,0,0,0-.352-1.173,1.574,1.574,0,0,0-1.169-.365,1.747,1.747,0,0,0-1.608.914V19h-2.54V9.49ZM71.33,16.372a.818.818,0,0,0-.461-.734,5.241,5.241,0,0,0-1.481-.479Q66,14.447,66,12.276a2.613,2.613,0,0,1,1.05-2.114,4.237,4.237,0,0,1,2.747-.848,4.56,4.56,0,0,1,2.9.853,2.687,2.687,0,0,1,1.085,2.215h-2.54a1.229,1.229,0,0,0-.352-.9,1.488,1.488,0,0,0-1.1-.356,1.52,1.52,0,0,0-.993.29.916.916,0,0,0-.352.738.783.783,0,0,0,.4.681,4.114,4.114,0,0,0,1.349.448,11.019,11.019,0,0,1,1.6.426A2.628,2.628,0,0,1,73.8,16.267a2.481,2.481,0,0,1-1.116,2.1,4.815,4.815,0,0,1-2.883.8,5.029,5.029,0,0,1-2.123-.426,3.561,3.561,0,0,1-1.455-1.169,2.716,2.716,0,0,1-.527-1.6H68.1a1.326,1.326,0,0,0,.5,1.037,1.987,1.987,0,0,0,1.248.36,1.839,1.839,0,0,0,1.1-.277A.861.861,0,0,0,71.33,16.372ZM84,14.333a5.7,5.7,0,0,1-1,3.52A3.2,3.2,0,0,1,80.3,19.176a2.963,2.963,0,0,1-2.329-1v4.482h-2.54V9.49H77.79l.088.932a2.985,2.985,0,0,1,2.408-1.107,3.22,3.22,0,0,1,2.733,1.3A5.858,5.858,0,0,1,84,14.2Zm-2.54-.185a3.743,3.743,0,0,0-.47-2.048,1.532,1.532,0,0,0-1.367-.721,1.663,1.663,0,0,0-1.644.914v3.894a1.692,1.692,0,0,0,1.661.94Q81.455,17.128,81.455,14.148Zm3.718.009a5.64,5.64,0,0,1,.545-2.522,3.989,3.989,0,0,1,1.569-1.714,4.577,4.577,0,0,1,2.377-.606,4.33,4.33,0,0,1,3.142,1.178,4.727,4.727,0,0,1,1.358,3.2l.018.65a4.97,4.97,0,0,1-1.222,3.511,4.735,4.735,0,0,1-6.561,0,5.058,5.058,0,0,1-1.226-3.586Zm2.54.18a3.555,3.555,0,0,0,.51,2.073,1.831,1.831,0,0,0,2.9.009,3.89,3.89,0,0,0,.519-2.267,3.519,3.519,0,0,0-.519-2.06,1.686,1.686,0,0,0-1.459-.731,1.658,1.658,0,0,0-1.441.726A3.955,3.955,0,0,0,87.713,14.338Zm13.377-2.465a6.9,6.9,0,0,0-.914-.07,1.86,1.86,0,0,0-1.89.976V19h-2.54V9.49h2.4l.07,1.134a2.354,2.354,0,0,1,2.118-1.31,2.662,2.662,0,0,1,.791.114Zm4.7-4.72V9.49h1.626v1.863h-1.626V16.1a1.133,1.133,0,0,0,.2.756,1.015,1.015,0,0,0,.773.229,4.051,4.051,0,0,0,.747-.062v1.925a5.229,5.229,0,0,1-1.538.229,2.425,2.425,0,0,1-2.725-2.7V11.354h-1.389V9.49h1.389V7.152ZM114.344,19a2.821,2.821,0,0,1-.255-.853,3.073,3.073,0,0,1-2.4,1.028,3.376,3.376,0,0,1-2.316-.809,2.6,2.6,0,0,1-.918-2.039,2.687,2.687,0,0,1,1.121-2.32,5.529,5.529,0,0,1,3.239-.817h1.169v-.545a1.567,1.567,0,0,0-.338-1.055,1.331,1.331,0,0,0-1.068-.4,1.513,1.513,0,0,0-1.006.308,1.045,1.045,0,0,0-.365.844h-2.54a2.551,2.551,0,0,1,.51-1.529,3.37,3.37,0,0,1,1.441-1.1,5.253,5.253,0,0,1,2.092-.4,4.15,4.15,0,0,1,2.791.883,3.09,3.09,0,0,1,1.033,2.483V16.8a4.546,4.546,0,0,0,.378,2.048V19Zm-2.1-1.767a2.188,2.188,0,0,0,1.037-.25,1.645,1.645,0,0,0,.7-.672V14.676h-.949q-1.907,0-2.03,1.318l-.009.149a1.017,1.017,0,0,0,.334.782A1.3,1.3,0,0,0,112.243,17.233Zm5.845-3.059a5.731,5.731,0,0,1,1-3.542,3.237,3.237,0,0,1,2.729-1.318,2.913,2.913,0,0,1,2.294,1.037V5.5h2.549V19h-2.294l-.123-1.011a2.989,2.989,0,0,1-2.443,1.187,3.228,3.228,0,0,1-2.694-1.323A5.916,5.916,0,0,1,118.088,14.175Zm2.54.189a3.754,3.754,0,0,0,.466,2.051,1.517,1.517,0,0,0,1.354.713,1.7,1.7,0,0,0,1.661-.995V12.375a1.675,1.675,0,0,0-1.644-.995Q120.628,11.38,120.628,14.364Zm7.6-.207a5.64,5.64,0,0,1,.545-2.522,3.989,3.989,0,0,1,1.569-1.714,4.577,4.577,0,0,1,2.377-.606,4.33,4.33,0,0,1,3.142,1.178,4.727,4.727,0,0,1,1.358,3.2l.018.65a4.97,4.97,0,0,1-1.222,3.511,4.735,4.735,0,0,1-6.561,0,5.058,5.058,0,0,1-1.226-3.586Zm2.54.18a3.555,3.555,0,0,0,.51,2.073,1.831,1.831,0,0,0,2.9.009,3.89,3.89,0,0,0,.519-2.267,3.519,3.519,0,0,0-.519-2.06,1.686,1.686,0,0,0-1.459-.731,1.658,1.658,0,0,0-1.441.726A3.955,3.955,0,0,0,130.771,14.338Zm13.377-2.465a6.9,6.9,0,0,0-.914-.07,1.86,1.86,0,0,0-1.89.976V19H138.8V9.49h2.4l.07,1.134a2.354,2.354,0,0,1,2.118-1.31,2.662,2.662,0,0,1,.791.114Z" transform="translate(847 4292.028)" fill="#12263f"/>
      <g id="Rect치ngulo_42824" data-name="Rect치ngulo 42824" transform="translate(872 4167)" fill="#fff" stroke="#28acd3" stroke-width="4">
        <rect width="121" height="119" rx="59.5" stroke="none"/>
        <rect x="2" y="2" width="117" height="115" rx="57.5" fill="none"/>
      </g>
      <g id="Grupo_117217" data-name="Grupo 117217" transform="translate(1008.409 -447.101)">
        <path id="Trazado_239560" data-name="Trazado 239560" d="M-37.528,4687.21v-5.658c-.449,0-.863.011-1.276,0a4.02,4.02,0,0,1-4.164-4.229q-.011-1.111,0-2.222c.014-1.153.441-1.585,1.611-1.6,1-.017,1.994,0,2.991-.009a4.011,4.011,0,0,0,.494-.063,3.736,3.736,0,0,0-3.724-2.8c-2.221-.035-4.444-.011-6.666-.012h-8.582c0,.534.027.979-.006,1.42a1.276,1.276,0,0,1-1.31,1.289,1.269,1.269,0,0,1-1.238-1.271c-.026-.312-.013-.626-.013-.939q0-10.682,0-21.365V4648.7h-49.506v1.034q0,10.81,0,21.621a5.173,5.173,0,0,1-.022.853,1.2,1.2,0,0,1-1.216,1.1,1.192,1.192,0,0,1-1.286-1.016,3.62,3.62,0,0,1-.047-.85q0-11.109,0-22.219c0-2.114,1.035-3.14,3.153-3.14h48.369c2.1,0,3.12,1.032,3.13,3.162,0,.734,0,1.468,0,2.32h1c2.706,0,5.414.059,8.118-.014,3.351-.09,6.474,2.183,5.911,6.907-.055.463-.517.878-.886,1.468.595,2.4,1.231,5.028,1.915,7.642a1.09,1.09,0,0,0,.658.625,6.8,6.8,0,0,1,5.2,6.862q.014,6.494,0,12.989c0,1.309-.425,1.729-1.747,1.736-1.217.007-2.433,0-3.655,0-.107.69-.163,1.285-.294,1.861A8.149,8.149,0,0,1-49.01,4698a8.146,8.146,0,0,1-7.609-7.368c-.06-.642-.219-.866-.9-.864q-13.63.033-27.261,0c-.593,0-.836.124-.9.777a8.128,8.128,0,0,1-8.039,7.464,8.2,8.2,0,0,1-8.154-7.373c-.031-.25-.053-.5-.091-.857h-4.269c-.855,0-1.71.024-2.564-.008a2.64,2.64,0,0,1-2.694-2.723c-.019-.683-.038-1.369,0-2.05.037-.584-.21-.735-.747-.72-1.053.028-2.108.021-3.162,0-1.011-.017-1.582-.5-1.57-1.292s.585-1.264,1.6-1.268q5.854-.016,11.708-.006c.99,0,1.57.506,1.562,1.306s-.563,1.255-1.593,1.263c-1.7.013-3.407,0-5.173,0v2.846a5.866,5.866,0,0,0,.66.075c2.022.005,4.045-.006,6.067.01a.826.826,0,0,0,.909-.546,7.773,7.773,0,0,1,7.369-4.919,7.794,7.794,0,0,1,7.547,4.911.844.844,0,0,0,.911.554q12.6-.015,25.21,0c.6,0,.787-.183.78-.779-.028-2.307-.011-4.614-.011-6.922,0-.513,0-1.025,0-1.539.009-1.136.476-1.755,1.3-1.737s1.265.626,1.266,1.782q.006,4.1,0,8.2v.912l.308.136a5.351,5.351,0,0,0,.586-.806,8.119,8.119,0,0,1,13.409-2.064,9.159,9.159,0,0,1,1.387,2.135,1,1,0,0,0,1.1.679C-39.229,4687.176-38.408,4687.21-37.528,4687.21Zm-5.951-19.244a2.3,2.3,0,0,0,0-.476c-.6-2.429-1.223-4.852-1.8-7.286-.126-.531-.43-.57-.863-.569-3.3.008-6.6.021-9.9-.01-.662-.006-.81.235-.8.846.031,2.218.038,4.438,0,6.656-.014.718.221.916.921.91,3.9-.029,7.794-.013,11.692-.017C-43.989,4668.02-43.741,4667.985-43.479,4667.966Zm-44.72,21.89a5.572,5.572,0,0,0-5.543-5.551,5.6,5.6,0,0,0-5.591,5.607,5.659,5.659,0,0,0,5.6,5.525A5.607,5.607,0,0,0-88.2,4689.856Zm39.68-5.552a5.554,5.554,0,0,0-5.574,5.517,5.593,5.593,0,0,0,5.49,5.616,5.616,5.616,0,0,0,5.627-5.575A5.579,5.579,0,0,0-48.519,4684.3Zm4.132-27.3a2.789,2.789,0,0,0-2.97-2.855c-2.5-.02-5-.005-7.5-.005-2,0-1.965,0-1.991,2.028-.009.728.236.9.926.9,3.553-.031,7.107-.014,10.66-.017C-44.989,4657.051-44.712,4657.023-44.387,4657.005Zm6.9,19.072c-.872,0-1.63-.009-2.388.008a.633.633,0,0,0-.446.165,1.994,1.994,0,0,0,1.048,2.648,11.029,11.029,0,0,0,1.785.018v-2.838Z" transform="translate(0)" fill="#12263f"/>
        <path id="Trazado_239561" data-name="Trazado 239561" d="M27.628,4730.2c.4-.378.606-.564.8-.762q5.255-5.251,10.505-10.507c.5-.5,1.012-.853,1.734-.491.873.438.941,1.455.125,2.279-1.862,1.881-3.738,3.748-5.61,5.62q-3.049,3.049-6.1,6.095c-1.021,1.02-1.581,1.027-2.582.025-2.073-2.073-4.158-4.135-6.2-6.241a2.065,2.065,0,0,1-.587-1.318,1.28,1.28,0,0,1,.765-.969,1.855,1.855,0,0,1,1.436.355c1.761,1.657,3.451,3.39,5.152,5.11A5.685,5.685,0,0,1,27.628,4730.2Z" transform="translate(-113.315 -59.869)" fill="#12263f"/>
        <path id="Trazado_239562" data-name="Trazado 239562" d="M86.327,4857.14q-4.442,0-8.884,0a5.016,5.016,0,0,1-.936-.047,1.253,1.253,0,0,1-.023-2.463,5.5,5.5,0,0,1,1.02-.056q8.926,0,17.853,0a3.474,3.474,0,0,1,.931.081,1.064,1.064,0,0,1,.881,1.266,2.4,2.4,0,0,1-.957,1.135c-.234.167-.661.084-1,.085Q90.769,4857.144,86.327,4857.14Z" transform="translate(-159.538 -172.85)" fill="#12263f"/>
        <path id="Trazado_239563" data-name="Trazado 239563" d="M-91.43,4825.029c-2.645,0-5.291,0-7.937,0a1.354,1.354,0,0,1-1.447-.82,1.231,1.231,0,0,1,.855-1.671,3.736,3.736,0,0,1,.93-.077q7.6-.007,15.191,0a4.946,4.946,0,0,1,.766.03,1.225,1.225,0,0,1,1.149,1.262,1.211,1.211,0,0,1-1.23,1.261c-1.023.041-2.048.017-3.072.018q-2.6,0-5.206,0Z" transform="translate(-13.309 -146.23)" fill="#12263f"/>
        <path id="Trazado_239564" data-name="Trazado 239564" d="M8.5,4889.369a2.681,2.681,0,0,1-2.647,2.683,2.726,2.726,0,0,1-2.659-2.691,2.679,2.679,0,0,1,2.624-2.618A2.638,2.638,0,0,1,8.5,4889.369Z" transform="translate(-99.618 -199.525)" fill="#12263f"/>
        <path id="Trazado_239565" data-name="Trazado 239565" d="M270.468,4886.754a2.648,2.648,0,0,1,2.661,2.658,2.651,2.651,0,0,1-5.3.013A2.634,2.634,0,0,1,270.468,4886.754Z" transform="translate(-319.016 -199.534)" fill="#12263f"/>
      </g>
    </g>
  </g>
</svg>
