<svg xmlns="http://www.w3.org/2000/svg" width="400" height="214.985" viewBox="0 0 400 214.985">
  <g id="Grupo_123191" data-name="Grupo 123191" transform="translate(-915 -1286.701)">
    <g id="Grupo_116709" data-name="Grupo 116709" transform="translate(852.736 1240.04)">
      <g id="Grupo_116645" data-name="Grupo 116645" transform="translate(62.263 63.653)">
        <g id="Grupo_116640" data-name="Grupo 116640" transform="translate(235.865 81.549)">
          <path id="Trazado_239059" data-name="Trazado 239059" d="M376.21,329.39c6.228-12.652,16.277-23.121,27.388-31.626,8.962-6.861,19.09-13.531,29.7-17.472,9.408-3.494,11.5,4.725,19.093,7.537,4.854,1.8,10.242-.951,14.058-4.448,3.683-3.375,6.729-7.6,11.123-10.128,3.243-1.862,8.081-2.79,11.481-.795,4.224,2.479,3.507,8.577,9.211,9.273,2.659.325,5.307-.63,7.712-1.81a109.041,109.041,0,0,1,17.333-7.122c5.485-1.61,12.591-2.144,15.758,2.615,3.039,4.566.153,10.76-3.5,14.847-8.8,9.838-21.82,15.148-34.906,16.891-3.569.476-7.242.728-10.538,2.18s-6.207,4.445-6.342,8.044c-.073,1.938.654,3.828.678,5.766.068,5.38-5.243,9.4-10.487,10.6-13.5,3.089-22.289-8.768-34.983-10.586-14.391-2.062-36.546.185-46.539,12.3" transform="translate(-376.21 -271.339)" fill="#c2ecfd"/>
          <path id="Trazado_239060" data-name="Trazado 239060" d="M407.782,328.021a94.221,94.221,0,0,1,51.667-24.076c12.026-1.559,24.22-.811,36.3-1.9s24.594-4.351,33.294-12.4" transform="translate(-384.062 -275.891)" fill="none" stroke="#fff" stroke-linecap="round" stroke-linejoin="round" stroke-width="1.744" opacity="0.5"/>
        </g>
        <g id="Grupo_116642" data-name="Grupo 116642" transform="translate(251.284 19.773)">
          <path id="Trazado_239061" data-name="Trazado 239061" d="M468.066,246.221c7.189-4.156,14.911-9.94,12.871-18.758-.669-2.893-2.8-5.527-2.436-8.475.242-1.943,1.534-3.561,2.479-5.276a16.04,16.04,0,0,0,.83-13.493c-1.858-4.645-5.786-8.138-8.24-12.5a22.032,22.032,0,0,1-2.79-11.774c-7.593.8-14.154,5.587-21.5,7.659-5.621,1.584-11.624,1.553-17.172,3.375a27.473,27.473,0,0,0-18.383,23.826,15.126,15.126,0,0,0-12.878,5.668,19.636,19.636,0,0,0-3.905,14.77c3.31,21.382,14.314,38.383,28.392,54.243-3.062-3.451,6.339-14.169,8.158-16.257,7.9-9.078,18.748-14.306,29.11-20C464.253,248.33,466.141,247.334,468.066,246.221Z" transform="translate(-396.732 -175.948)" fill="#c2ecfd"/>
          <g id="Grupo_116641" data-name="Grupo 116641" transform="translate(15.374 9.912)" opacity="0.5">
            <path id="Trazado_239062" data-name="Trazado 239062" d="M436.869,260.064c-1.79-9.167.6-18.61,3.538-27.478,2.859-8.643,6.277-17.172,11.215-24.82s11.483-14.417,19.555-18.625" transform="translate(-421.935 -189.141)" fill="none" stroke="#fff" stroke-linecap="round" stroke-linejoin="round" stroke-width="1.744"/>
            <path id="Trazado_239063" data-name="Trazado 239063" d="M440.3,200.649a74.944,74.944,0,0,0,4.265,26.039" transform="translate(-422.937 -192.003)" fill="none" stroke="#fff" stroke-linecap="round" stroke-linejoin="round" stroke-width="1.744"/>
            <path id="Trazado_239064" data-name="Trazado 239064" d="M447.673,227.12c8.868-6.907,23.026-11.9,34.26-12.288" transform="translate(-424.775 -195.531)" fill="none" stroke="#fff" stroke-linecap="round" stroke-linejoin="round" stroke-width="1.744"/>
            <path id="Trazado_239065" data-name="Trazado 239065" d="M417.2,236.052c11.781,3.744,13.776,20.38,14.513,25.09" transform="translate(-417.195 -200.808)" fill="none" stroke="#fff" stroke-linecap="round" stroke-linejoin="round" stroke-width="1.744"/>
            <path id="Trazado_239066" data-name="Trazado 239066" d="M439.335,250.576c8.109-7.021,22.059-14.515,31.5-13.04" transform="translate(-422.701 -201.131)" fill="none" stroke="#fff" stroke-linecap="round" stroke-linejoin="round" stroke-width="1.744"/>
            <path id="Trazado_239067" data-name="Trazado 239067" d="M437.053,276.524c6.446-8.594,24.046-19.1,33.489-17.622" transform="translate(-422.134 -206.456)" fill="none" stroke="#fff" stroke-linecap="round" stroke-linejoin="round" stroke-width="1.744"/>
            <path id="Trazado_239068" data-name="Trazado 239068" d="M464.634,192.6a13.752,13.752,0,0,0-2.109,9.973" transform="translate(-428.417 -190.001)" fill="none" stroke="#fff" stroke-linecap="round" stroke-linejoin="round" stroke-width="1.744"/>
            <path id="Trazado_239069" data-name="Trazado 239069" d="M465.6,201.515c3.813-2.416,9.119-3.376,14.972-2.465" transform="translate(-429.233 -191.521)" fill="none" stroke="#fff" stroke-linecap="round" stroke-linejoin="round" stroke-width="1.744"/>
          </g>
        </g>
        <g id="Grupo_116644" data-name="Grupo 116644">
          <path id="Trazado_239070" data-name="Trazado 239070" d="M238.856,341.512c-9.728-26.648-34.67-51.512-59.233-65.7-5.99-3.46-14.732-6.078-17.475,2.185-1.766,5.314-7.955,3.931-11.49,1.475-4.384-3.046-6.94-7.985-10.661-11.7a20.456,20.456,0,0,0-10.976-5.955,14.012,14.012,0,0,0-11.786,3.336c-2.323,2.213-3.717,5.33-6.29,7.249-4.314,3.219-10.587,2.021-15.176-.793s-8.2-6.979-12.649-10.01-10.44-4.827-15.172-2.262c-6.271,3.4-6.845,12.457-4.182,19.075,1.644,4.085,4.242,10.012,7.363,13.212a33.312,33.312,0,0,0,17.051,8.779c4.545.892,9.244.866,13.75,1.938,1.627.387,3.5,1.074,3.823,2.95.47,2.709-2.88,4.369-4.836,5.354-3.387,1.706-6.738,5.424-5.158,8.871.991,2.162,3.527,3.126,5.871,3.525,7.04,1.2,14.024-.835,20.7-2.892,4.061-1.253,7.626-3.791,11.792-4.87,2.167-.559,7.714-.8,7.114,2.856a5.02,5.02,0,0,1-1.884,2.839,20,20,0,0,0-2.605,2.3c-3.2,3.894-.027,8.478,4.179,9.489,3.23.777,6.6-.051,9.837-.806,21.155-4.941,43.328-6.855,64.619-2.539,4.536.919,9.493,2.469,11.764,6.5" transform="translate(-62.263 -168.643)" fill="#c2ecfd"/>
          <path id="Trazado_239071" data-name="Trazado 239071" d="M222.16,332.792a105.02,105.02,0,0,0-57.7-26.6c-13.411-1.681-27-.793-40.463-1.955s-27.433-4.736-37.166-13.671" transform="translate(-68.374 -176.719)" fill="none" stroke="#fff" stroke-linecap="round" stroke-linejoin="round" stroke-width="1.744" opacity="0.5"/>
          <g id="Grupo_116643" data-name="Grupo 116643" transform="translate(90.071)">
            <path id="Trazado_239072" data-name="Trazado 239072" d="M257.692,333.11s-36.989-24.6-47.434-49.563c7.057,1.908,11.619,4.2,16.571,8.236,5.342,7.552,18.066,19.133,26.7,26.651C254.754,322.557,256.135,327.393,257.692,333.11Z" transform="translate(-189.142 -174.972)" fill="#eecab0" opacity="0.25" style="mix-blend-mode: multiply;isolation: isolate"/>
            <path id="Trazado_239073" data-name="Trazado 239073" d="M249.3,299.317c-1.387-9.178-5.218-18.287-6.721-27.62-2.409-14.958-2.783-30-.167-44.858,2.23-12.668,5.94-25.929,1.877-38.745-1.079-3.4-3.068-7.082-7.248-7.046a6.711,6.711,0,0,0-4.473,1.883c-3.048,2.853-3.609,6.955-4.105,10.873l-1.657,13.1a4.073,4.073,0,0,1-7.916.623l-.031-.1c-1-3.484-.824-7.162-.557-10.754.579-7.814,1.523-15.688.391-23.472-1.37-9.419-6.261-18.97-15.791-22.508a16.625,16.625,0,0,0-10.529-.382c-9.543,2.88-11.474,12.379-9.56,20.338,1.348,5.6,4.339,10.676,7.073,15.778,6.68,12.462,3.07,24.307,4.745,38.242C198.183,254.186,225.531,282.717,249.3,299.317Z" transform="translate(-182.152 -149.629)" fill="#c2ecfd"/>
            <path id="Trazado_239074" data-name="Trazado 239074" d="M201.993,172.023c19.986,25.9,12.762,87.052,47.592,120.06" transform="translate(-187.086 -155.198)" fill="none" stroke="#fff" stroke-linecap="round" stroke-linejoin="round" stroke-width="1.744" opacity="0.5"/>
            <path id="Trazado_239075" data-name="Trazado 239075" d="M250.831,209.818c2.283,12.224-5.575,25.943-7.4,33.55s-2.787,20.558-.831,28.2" transform="translate(-196.918 -160.526)" fill="none" stroke="#fff" stroke-linecap="round" stroke-linejoin="round" stroke-width="1.744" opacity="0.5"/>
          </g>
        </g>
        <path id="Trazado_239076" data-name="Trazado 239076" d="M155.808,359.332c-.863-4.887-14.511-35.356-30.309-27.2-9.384,4.847-7.7,22.693,6.961,36.175-2.877-2.783-6.2-5.938-10.124-6.717a7.823,7.823,0,0,0-6.3,2.022c-1.414,1.3-1.829,3.367-1.895,5.289a20.819,20.819,0,0,0,9.274,17.808c-3.242-1.811-6.052-4.079-9.751-4.4-1.2-.1-3.24.585-3.8,1.656-.606,1.166-.563,5.534,6.574,8.8-29.09-5.517-30.787,6.883-20.331,6.883h85.76" transform="translate(-69.223 -209.913)" fill="#ecf8ff"/>
        <path id="Trazado_239077" data-name="Trazado 239077" d="M217.79,321.313C216.408,313.487,202,264.3,176.7,277.361c-15.023,7.759-12.321,36.329,11.144,57.914-4.605-4.454-9.924-9.506-16.208-10.754-3.4-.673-7.55.89-10.094,3.237-2.263,2.089-2.929,5.389-3.033,8.467a33.331,33.331,0,0,0,14.846,28.509c-5.19-2.9-9.687-6.531-15.611-7.04-1.924-.165-5.187.937-6.077,2.651-.969,1.866-.9,8.86,10.523,14.082-46.571-8.833-49.288,11.019-32.547,11.019H240.28" transform="translate(-76.689 -196.088)" fill="#dff5ff"/>
        <path id="Trazado_239078" data-name="Trazado 239078" d="M494.938,359.332c.862-4.887,14.511-35.356,30.309-27.2,9.384,4.847,7.7,22.693-6.961,36.175,2.877-2.783,6.2-5.938,10.124-6.717a7.823,7.823,0,0,1,6.3,2.022c1.413,1.3,1.829,3.367,1.895,5.289a20.82,20.82,0,0,1-9.274,17.808c3.242-1.811,6.052-4.079,9.751-4.4,1.2-.1,3.24.585,3.8,1.656.6,1.166.563,5.534-6.574,8.8,29.09-5.517,30.787,6.883,20.33,6.883H468.881" transform="translate(-163.393 -209.913)" fill="#ecf8ff"/>
        <path id="Trazado_239079" data-name="Trazado 239079" d="M423.557,321.313c1.382-7.825,15.794-57.014,41.085-43.952,15.023,7.759,12.321,36.329-11.145,57.914,4.605-4.454,9.925-9.506,16.209-10.754,3.4-.673,7.551.89,10.094,3.237,2.263,2.089,2.929,5.389,3.033,8.467a33.333,33.333,0,0,1-14.846,28.509c5.19-2.9,9.687-6.531,15.611-7.04,1.924-.165,5.186.937,6.077,2.651.969,1.866.9,8.86-10.523,14.082,46.571-8.833,49.288,11.019,32.547,11.019H401.066" transform="translate(-146.526 -196.088)" fill="#dff5ff"/>
      </g>
      <g id="Grupo_116654" data-name="Grupo 116654" transform="translate(206.452 76.717)">
        <g id="Grupo_116648" data-name="Grupo 116648">
          <g id="Grupo_116647" data-name="Grupo 116647">
            <g id="Grupo_116646" data-name="Grupo 116646" transform="translate(21.29 20.647)">
              <path id="Trazado_239080" data-name="Trazado 239080" d="M282.523,119.409l6.862,3.66-3.431-8.92" transform="translate(-282.523 -114.148)" fill="#d7edfc"/>
            </g>
            <circle id="Elipse_5556" data-name="Elipse 5556" cx="14.502" cy="14.502" r="14.502" fill="#d7edfc"/>
          </g>
        </g>
        <g id="Grupo_116653" data-name="Grupo 116653" transform="translate(7.977 5.459)">
          <g id="Grupo_116649" data-name="Grupo 116649">
            <path id="Trazado_239081" data-name="Trazado 239081" d="M270.477,94.771a5.333,5.333,0,0,1,5.777,4.835,5.254,5.254,0,0,1-.43,2.546l-.5,1.252-1.773,4.59-1.882.167-1.881.168-2.523-4.209-.748-1.141a5.246,5.246,0,0,1-.872-2.43,5.333,5.333,0,0,1,4.836-5.777m-.073-.814a6.1,6.1,0,0,0-4.575,9.47l3.524,5.759,2.383-.211,2.384-.212,2.454-6.29a6.072,6.072,0,0,0,.493-2.939,6.145,6.145,0,0,0-6.664-5.577Z" transform="translate(-264.802 -93.933)" fill="#87c0ec"/>
          </g>
          <g id="Grupo_116650" data-name="Grupo 116650" transform="translate(4.579 15.241)">
            <path id="Trazado_239082" data-name="Trazado 239082" d="M273.657,118.571h0a2.4,2.4,0,0,1-2.6-2.179l-.155-1.748,4.783-.424.156,1.748A2.4,2.4,0,0,1,273.657,118.571Z" transform="translate(-270.898 -114.219)" fill="#87c0ec"/>
          </g>
          <g id="Grupo_116651" data-name="Grupo 116651" transform="translate(3.204 6.249)">
            <path id="Trazado_239083" data-name="Trazado 239083" d="M269.475,103.528a.408.408,0,0,1-.035-.815l5.2-.461a.408.408,0,0,1,.072.813l-5.2.462Z" transform="translate(-269.067 -102.251)" fill="#87c0ec"/>
          </g>
          <g id="Grupo_116652" data-name="Grupo 116652" transform="translate(5.802 6.478)">
            <path id="Trazado_239084" data-name="Trazado 239084" d="M273.62,111.1a.409.409,0,0,1-.406-.373L272.527,103a.408.408,0,0,1,.371-.443.4.4,0,0,1,.442.371l.686,7.728a.41.41,0,0,1-.371.443Z" transform="translate(-272.526 -102.555)" fill="#87c0ec"/>
          </g>
        </g>
      </g>
      <g id="Grupo_116658" data-name="Grupo 116658" transform="translate(295.73 79.506)">
        <g id="Grupo_116657" data-name="Grupo 116657">
          <g id="Grupo_116656" data-name="Grupo 116656">
            <g id="Grupo_116655" data-name="Grupo 116655" transform="translate(0.778 18.834)">
              <path id="Trazado_239085" data-name="Trazado 239085" d="M380.312,137.828l-6.26,3.338,3.13-8.137" transform="translate(-374.052 -133.029)" fill="#d7edfc"/>
            </g>
            <circle id="Elipse_5557" data-name="Elipse 5557" cx="13.229" cy="13.229" r="13.229" fill="#d7edfc"/>
          </g>
        </g>
        <path id="Trazado_239086" data-name="Trazado 239086" d="M395.46,124.3a6.672,6.672,0,0,0,.03-3.316l-1.216.134a6.266,6.266,0,0,0-.708-1.742l.966-.772a6.7,6.7,0,0,0-1.564-1.83c-.046-.039-.092-.075-.14-.111a6.519,6.519,0,0,0-.62-.424l-.771.965c-.061-.038-.123-.074-.186-.11s-.141-.08-.213-.117a6.261,6.261,0,0,0-1.328-.515l.137-1.226a6.683,6.683,0,0,0-3.316-.029l.136,1.22a6.27,6.27,0,0,0-1.745.7l-.769-.962a6.67,6.67,0,0,0-2.366,2.323l.957.765a6.273,6.273,0,0,0-.743,1.731l-1.219-.136a6.671,6.671,0,0,0-.03,3.316l1.212-.135a6.28,6.28,0,0,0,.7,1.748l-.958.765a6.69,6.69,0,0,0,2.324,2.367l.762-.952a6.348,6.348,0,0,0,1.732.747l-.134,1.209a6.657,6.657,0,0,0,3.315.031l-.134-1.2a6.288,6.288,0,0,0,1.753-.705l.76.95a6.67,6.67,0,0,0,2.366-2.323l-.95-.76a6.309,6.309,0,0,0,.741-1.735Zm-3.454-1.592a3.887,3.887,0,1,1-4.012-4.011A3.9,3.9,0,0,1,392.006,122.7Z" transform="translate(-374.892 -109.712)" fill="#87c0ec"/>
      </g>
      <g id="Grupo_116665" data-name="Grupo 116665" transform="translate(143.924 141.697)">
        <g id="Grupo_116661" data-name="Grupo 116661" transform="translate(0 62.041)">
          <rect id="Rectángulo_42568" data-name="Rectángulo 42568" width="121.553" height="36.619" transform="translate(83.063 6.368)" fill="#fff"/>
          <rect id="Rectángulo_42569" data-name="Rectángulo 42569" width="76.081" height="36.619" transform="translate(83.063 42.987) rotate(180)" fill="#ededed"/>
          <path id="Trazado_239087" data-name="Trazado 239087" d="M269.1,356.369v9.2H388.951a8.188,8.188,0,0,1,8.188,8.188v14.569a8.187,8.187,0,0,1-8.188,8.188H269.1v9.206H393.31a14.176,14.176,0,0,0,14.176-14.177v-21a14.176,14.176,0,0,0-14.176-14.176Z" transform="translate(-195.366 -356.369)" fill="#5c87c7"/>
          <rect id="Rectángulo_42570" data-name="Rectángulo 42570" width="73.732" height="9.205" transform="translate(0 0)" fill="#4061b0"/>
          <rect id="Rectángulo_42571" data-name="Rectángulo 42571" width="73.732" height="9.205" transform="translate(0 40.15)" fill="#4061b0"/>
          <g id="Grupo_116659" data-name="Grupo 116659" transform="translate(6.982 16.629)">
            <line id="Línea_1274" data-name="Línea 1274" x2="76.081" fill="none" stroke="#ccc" stroke-miterlimit="10" stroke-width="4.351"/>
            <line id="Línea_1275" data-name="Línea 1275" x2="76.081" transform="translate(0 10.125)" fill="none" stroke="#ccc" stroke-miterlimit="10" stroke-width="4.351"/>
            <line id="Línea_1276" data-name="Línea 1276" x2="76.081" transform="translate(0 18.524)" fill="none" stroke="#ccc" stroke-miterlimit="10" stroke-width="4.351"/>
          </g>
          <g id="Grupo_116660" data-name="Grupo 116660" transform="translate(83.063 16.629)">
            <line id="Línea_1277" data-name="Línea 1277" x1="96.02" fill="none" stroke="#e2e2e2" stroke-miterlimit="10" stroke-width="4.351"/>
            <line id="Línea_1278" data-name="Línea 1278" x1="105.936" transform="translate(0 10.125)" fill="none" stroke="#e2e2e2" stroke-miterlimit="10" stroke-width="4.351"/>
            <line id="Línea_1279" data-name="Línea 1279" x1="96.02" transform="translate(0 18.524)" fill="none" stroke="#e2e2e2" stroke-miterlimit="10" stroke-width="4.351"/>
          </g>
        </g>
        <g id="Grupo_116663" data-name="Grupo 116663" transform="translate(18.477)">
          <path id="Rectángulo_42572" data-name="Rectángulo 42572" d="M14.193,0h93.621a0,0,0,0,1,0,0V62.041a0,0,0,0,1,0,0H14.193A14.193,14.193,0,0,1,0,47.848V14.193A14.193,14.193,0,0,1,14.193,0Z" fill="#db9821"/>
          <rect id="Rectángulo_42573" data-name="Rectángulo 42573" width="102.721" height="49.306" transform="translate(175.846 55.674) rotate(180)" fill="#fff"/>
          <path id="Trazado_239088" data-name="Trazado 239088" d="M402.451,273.79v9.2H301.43a8.188,8.188,0,0,0-8.188,8.188v27.256a8.187,8.187,0,0,0,8.188,8.188H402.451v9.2H297.071a14.176,14.176,0,0,1-14.176-14.176V287.966a14.176,14.176,0,0,1,14.176-14.176Z" transform="translate(-217.274 -273.79)" fill="#e2b659"/>
          <g id="Grupo_116662" data-name="Grupo 116662" transform="translate(82.676 16.629)">
            <line id="Línea_1280" data-name="Línea 1280" x2="77.188" transform="translate(15.983)" fill="none" stroke="#e5e5e5" stroke-miterlimit="10" stroke-width="4.351"/>
            <line id="Línea_1281" data-name="Línea 1281" x2="93.171" transform="translate(0 6.648)" fill="none" stroke="#e5e5e5" stroke-miterlimit="10" stroke-width="4.351"/>
            <line id="Línea_1282" data-name="Línea 1282" x2="87.104" transform="translate(6.067 22.812)" fill="none" stroke="#e5e5e5" stroke-miterlimit="10" stroke-width="4.351"/>
            <line id="Línea_1283" data-name="Línea 1283" x2="77.188" transform="translate(15.983 31.211)" fill="none" stroke="#e5e5e5" stroke-miterlimit="10" stroke-width="4.351"/>
          </g>
        </g>
      </g>
      <g id="Grupo_116673" data-name="Grupo 116673" transform="translate(108.252 109.302)">
        <path id="Trazado_239089" data-name="Trazado 239089" d="M191.541,314.43a11.614,11.614,0,0,1-8.714-10.335c-.011-.241-.022-.478-.022-.714a1.4,1.4,0,0,1,.011-.214,1.346,1.346,0,0,1-.011-.215c0-.236.011-.473.022-.714a11.614,11.614,0,0,1,8.714-10.335,42.7,42.7,0,0,0,31.273-41.129,42.165,42.165,0,0,0-.7-7.725c-.077-.429-.159-.852-.253-1.269-.065-.308-.131-.616-.209-.923a.2.2,0,0,0-.011-.055c-.038-.159-.077-.319-.121-.478-.071-.308-.149-.6-.237-.907-.126-.461-.258-.917-.4-1.373h-1.456c.049.148.1.3.137.445a.465.465,0,0,1,.027.077q.124.388.231.775c.05.17.1.335.137.5.077.27.148.533.214.8.044.171.088.34.121.506.071.274.132.544.187.818.022.094.044.187.06.28.006.033.017.071.022.11q.1.47.182.939a41.294,41.294,0,0,1-29.569,47.261,12.978,12.978,0,0,0-9.73,11.6c-.017.264-.023.527-.023.791,0,.071,0,.149.006.215s-.006.148-.006.214c0,.264.006.527.023.791a12.973,12.973,0,0,0,9.73,11.6,41.3,41.3,0,0,1,29.569,47.266,40.2,40.2,0,0,1-3.2,10.027H142.748a40.4,40.4,0,0,1-3.209-10.032,40.973,40.973,0,0,1-.675-7.472,41.4,41.4,0,0,1,30.25-39.788,12.981,12.981,0,0,0,9.731-11.6c.017-.264.022-.527.022-.791,0-.066,0-.143-.005-.214s.005-.144.005-.215c0-.264-.005-.527-.022-.791a12.987,12.987,0,0,0-9.731-11.6A41.333,41.333,0,0,1,139.539,243.3c.077-.434.165-.862.258-1.3,0-.011.005-.022.005-.033.093-.417.187-.835.291-1.252.005-.022.011-.044.017-.071.082-.319.165-.643.258-.956.006-.028.017-.05.023-.077.027-.121.065-.247.1-.368.06-.231.131-.456.2-.681a.41.41,0,0,1,.028-.077c.038-.148.088-.3.137-.445h-1.456c-.143.456-.275.912-.4,1.373-.088.3-.165.6-.237.907-.044.159-.082.319-.121.478a.2.2,0,0,0-.011.055c-.077.307-.143.615-.209.923-.093.417-.176.84-.252,1.269a42.1,42.1,0,0,0-.7,7.725A42.694,42.694,0,0,0,168.746,291.9a11.608,11.608,0,0,1,8.707,10.335c.017.241.023.478.023.714,0,.071,0,.149-.006.215s.006.148.006.214c0,.236-.006.473-.023.714a11.608,11.608,0,0,1-8.707,10.335,42.7,42.7,0,0,0-31.273,41.129,42.773,42.773,0,0,0,4.4,18.894h76.539a42.745,42.745,0,0,0,4.4-18.894A42.705,42.705,0,0,0,191.541,314.43Z" transform="translate(-126.957 -232.504)" fill="#649de1" opacity="0.2"/>
        <path id="Trazado_239090" data-name="Trazado 239090" d="M221.884,355.558a41.142,41.142,0,0,1-.681,7.478,40.205,40.205,0,0,1-3.2,10.027H143.208A40.4,40.4,0,0,1,140,363.031a40.973,40.973,0,0,1-.675-7.472,41.4,41.4,0,0,1,30.25-39.788,12.981,12.981,0,0,0,9.731-11.6c.017-.264.022-.527.022-.791,0-.066,0-.143-.005-.214s.005-.144.005-.215c0-.264-.005-.527-.022-.791a12.987,12.987,0,0,0-9.731-11.6A41.333,41.333,0,0,1,140,243.3c.077-.434.165-.862.258-1.3,0-.011.005-.022.005-.033.088-.417.187-.835.291-1.252.005-.022.011-.044.017-.071.088-.346.176-.687.28-1.033s.2-.7.307-1.05c.055-.176.11-.352.165-.521h78.56c.055.17.11.346.165.521q.124.388.231.775c.05.17.1.335.137.5.077.27.148.533.214.8.044.171.088.34.121.506.071.274.132.544.187.818.027.127.055.258.082.391q.1.47.182.939a41.294,41.294,0,0,1-29.569,47.261,12.978,12.978,0,0,0-9.73,11.6c-.017.264-.023.527-.023.791,0,.071,0,.149.006.215s-.006.148-.006.214c0,.264.006.527.023.791a12.973,12.973,0,0,0,9.73,11.6A41.4,41.4,0,0,1,221.884,355.558Z" transform="translate(-127.418 -232.504)" fill="#fff"/>
        <path id="Trazado_239091" data-name="Trazado 239091" d="M221.884,355.558a41.142,41.142,0,0,1-.681,7.478,40.205,40.205,0,0,1-3.2,10.027H143.208A40.4,40.4,0,0,1,140,363.031a40.973,40.973,0,0,1-.675-7.472,41.4,41.4,0,0,1,30.25-39.788,12.981,12.981,0,0,0,9.731-11.6c.017-.264.022-.527.022-.791,0-.066,0-.143-.005-.214s.005-.144.005-.215c0-.264-.005-.527-.022-.791a12.987,12.987,0,0,0-9.731-11.6A41.333,41.333,0,0,1,140,243.3c.077-.434.165-.862.258-1.3,0-.011.005-.022.005-.033.088-.417.187-.835.291-1.252.005-.022.011-.044.017-.071.088-.346.176-.687.28-1.033s.2-.7.307-1.05c.055-.176.11-.352.165-.521h78.56c.055.17.11.346.165.521q.124.388.231.775c.05.17.1.335.137.5.077.27.148.533.214.8.044.171.088.34.121.506.071.274.132.544.187.818.027.127.055.258.082.391q.1.47.182.939a41.294,41.294,0,0,1-29.569,47.261,12.978,12.978,0,0,0-9.73,11.6c-.017.264-.023.527-.023.791,0,.071,0,.149.006.215s-.006.148-.006.214c0,.264.006.527.023.791a12.973,12.973,0,0,0,9.73,11.6A41.4,41.4,0,0,1,221.884,355.558Z" transform="translate(-127.418 -232.504)" fill="#dbeaf8" opacity="0.5"/>
        <path id="Trazado_239092" data-name="Trazado 239092" d="M148.951,283.156s6.511,10.67,22.123,15.577c4,1.175,5.345,2.04,7.646,4.164s3.087,5.852,3,8.8c-.031,2.285,1.279,35.714,1.279,39.879,0,3.928.509,1.018.4.174.4-23.655.887-41.06.887-41.06s1.415-7.436,3.6-8.463,10.13-4.714,13.38-5.624,11.1-8.068,11.1-8.068,9.976-14.228,10.584-16.05-4.511-2-4.511-2Z" transform="translate(-129.812 -240.574)" fill="#e6983c"/>
        <ellipse id="Elipse_5558" data-name="Elipse 5558" cx="38.325" cy="7.917" rx="38.325" ry="7.917" transform="matrix(0.988, -0.155, 0.155, 0.988, 16.467, 33.607)" fill="#f0cd46"/>
        <g id="Grupo_116668" data-name="Grupo 116668" transform="translate(16.57 10.309)" opacity="0.5" style="mix-blend-mode: screen;isolation: isolate">
          <g id="Grupo_116666" data-name="Grupo 116666" transform="translate(13.867 30.713)">
            <path id="Trazado_239093" data-name="Trazado 239093" d="M175.508,297.071a4.151,4.151,0,0,1-1.352-.227,39.63,39.63,0,0,1-8.217-3.881,4.164,4.164,0,0,1,4.43-7.052,31.309,31.309,0,0,0,6.491,3.056,4.165,4.165,0,0,1-1.352,8.1Z" transform="translate(-163.989 -285.272)" fill="#fff"/>
          </g>
          <g id="Grupo_116667" data-name="Grupo 116667">
            <path id="Trazado_239094" data-name="Trazado 239094" d="M154.633,274.618a4.163,4.163,0,0,1-3.518-1.929c-7.26-11.411-5.392-24.225-5.309-24.765a4.164,4.164,0,0,1,8.233,1.254c-.024.17-1.418,10.363,4.1,19.04a4.165,4.165,0,0,1-3.509,6.4Z" transform="translate(-145.531 -244.391)" fill="#fff"/>
          </g>
        </g>
        <g id="Grupo_116671" data-name="Grupo 116671" transform="translate(16.57 88.042)" opacity="0.5" style="mix-blend-mode: screen;isolation: isolate">
          <g id="Grupo_116669" data-name="Grupo 116669" transform="translate(13.867)">
            <path id="Trazado_239095" data-name="Trazado 239095" d="M175.508,347.858a4.151,4.151,0,0,0-1.352.227,39.665,39.665,0,0,0-8.217,3.88,4.164,4.164,0,1,0,4.43,7.052,31.349,31.349,0,0,1,6.491-3.056,4.165,4.165,0,0,0-1.352-8.1Z" transform="translate(-163.989 -347.858)" fill="#fff"/>
          </g>
          <g id="Grupo_116670" data-name="Grupo 116670" transform="translate(0 12.285)">
            <path id="Trazado_239096" data-name="Trazado 239096" d="M154.633,364.21a4.163,4.163,0,0,0-3.518,1.929c-7.26,11.411-5.392,24.225-5.309,24.766a4.164,4.164,0,0,0,8.233-1.254c-.024-.17-1.418-10.363,4.1-19.041a4.165,4.165,0,0,0-3.509-6.4Z" transform="translate(-145.531 -364.21)" fill="#fff"/>
          </g>
        </g>
        <path id="Trazado_239097" data-name="Trazado 239097" d="M191.541,314.43a11.614,11.614,0,0,1-8.714-10.335c-.011-.241-.022-.478-.022-.714a1.4,1.4,0,0,1,.011-.214,1.346,1.346,0,0,1-.011-.215c0-.236.011-.473.022-.714a11.614,11.614,0,0,1,8.714-10.335,42.7,42.7,0,0,0,31.273-41.129,42.165,42.165,0,0,0-.7-7.725c-.077-.429-.159-.852-.253-1.269-.065-.308-.131-.616-.209-.923a.2.2,0,0,0-.011-.055c-.038-.159-.077-.319-.121-.478-.071-.308-.149-.6-.237-.907-.126-.461-.258-.917-.4-1.373h-1.456c.049.143.093.3.137.445a.465.465,0,0,1,.027.077q.124.388.231.775c.05.17.1.335.137.5.077.27.148.533.214.8.044.171.088.34.121.506.071.274.132.544.187.818.022.094.038.187.06.28.006.033.017.071.022.11q.1.47.182.939a41.294,41.294,0,0,1-29.569,47.261,12.978,12.978,0,0,0-9.73,11.6c-.017.264-.023.527-.023.791,0,.071,0,.149.006.215s-.006.148-.006.214c0,.264.006.527.023.791a12.973,12.973,0,0,0,9.73,11.6,41.3,41.3,0,0,1,29.569,47.266,40.2,40.2,0,0,1-3.2,10.027H142.748a40.4,40.4,0,0,1-3.209-10.032,40.973,40.973,0,0,1-.675-7.472,41.4,41.4,0,0,1,30.25-39.788,12.981,12.981,0,0,0,9.731-11.6c.017-.264.022-.527.022-.791,0-.066,0-.143-.005-.214s.005-.144.005-.215c0-.264-.005-.527-.022-.791a12.987,12.987,0,0,0-9.731-11.6A41.333,41.333,0,0,1,139.539,243.3c.077-.434.165-.868.258-1.3,0-.011.005-.022.005-.033.093-.417.187-.835.291-1.252.005-.022.011-.044.017-.071.082-.319.165-.643.258-.956.006-.028.017-.05.023-.077.033-.121.065-.247.1-.368.06-.231.131-.456.2-.681a.41.41,0,0,1,.028-.077c.044-.148.088-.3.137-.445h-1.456c-.143.456-.275.912-.4,1.373-.088.3-.165.6-.237.907-.044.159-.082.319-.121.478a.2.2,0,0,0-.011.055c-.077.307-.143.615-.209.923-.093.417-.176.84-.252,1.269a42.1,42.1,0,0,0-.7,7.725A42.694,42.694,0,0,0,168.746,291.9a11.608,11.608,0,0,1,8.707,10.335c.017.241.023.478.023.714,0,.071,0,.149-.006.215s.006.148.006.214c0,.236-.006.473-.023.714a11.608,11.608,0,0,1-8.707,10.335,42.7,42.7,0,0,0-31.273,41.129,42.773,42.773,0,0,0,4.4,18.894h76.539a42.745,42.745,0,0,0,4.4-18.894A42.705,42.705,0,0,0,191.541,314.43Z" transform="translate(-126.957 -232.504)" fill="#c0dbf4"/>
        <path id="Trazado_239098" data-name="Trazado 239098" d="M229.846,415.253h0a4.036,4.036,0,0,1-4.036,4.036h-98.3a4.036,4.036,0,0,1-4.037-4.036h0a4.036,4.036,0,0,1,4.037-4.036h98.3A4.036,4.036,0,0,1,229.846,415.253Z" transform="translate(-123.476 -275.574)" fill="#345375"/>
        <g id="Grupo_116672" data-name="Grupo 116672" transform="translate(57.106 30.905)">
          <path id="Trazado_239099" data-name="Trazado 239099" d="M236.457,272.082c.065.3-.757.736-1.835.965s-2,.166-2.069-.139.757-.736,1.835-.965S236.393,271.776,236.457,272.082Z" transform="translate(-207.71 -271.805)" fill="#e6983c"/>
          <path id="Trazado_239100" data-name="Trazado 239100" d="M233.62,276.723c.065.3-.441.67-1.129.815s-1.3.017-1.363-.288.441-.669,1.129-.815S233.556,276.419,233.62,276.723Z" transform="translate(-207.355 -272.942)" fill="#e6983c"/>
          <path id="Trazado_239101" data-name="Trazado 239101" d="M229.424,275.492c.065.3-.441.669-1.129.815s-1.3.017-1.362-.288.441-.669,1.129-.815S229.361,275.187,229.424,275.492Z" transform="translate(-206.312 -272.635)" fill="#e6983c"/>
          <path id="Trazado_239102" data-name="Trazado 239102" d="M200.836,279.272c.035.165-.238.361-.61.44s-.7.009-.736-.156.238-.362.61-.44S200.8,279.107,200.836,279.272Z" transform="translate(-199.487 -273.615)" fill="#e6983c"/>
          <path id="Trazado_239103" data-name="Trazado 239103" d="M223.22,272.471c.035.165-.238.361-.609.44s-.7.009-.736-.156.238-.361.61-.44S223.185,272.306,223.22,272.471Z" transform="translate(-205.054 -271.924)" fill="#e6983c"/>
          <path id="Trazado_239104" data-name="Trazado 239104" d="M215.106,280.285c.035.165-.239.361-.61.44s-.7.009-.736-.156.238-.362.609-.44S215.07,280.12,215.106,280.285Z" transform="translate(-203.036 -273.867)" fill="#e6983c"/>
          <path id="Trazado_239105" data-name="Trazado 239105" d="M204.279,285.46c.035.164-.238.362-.609.44s-.7.009-.736-.156.238-.361.61-.44S204.244,285.3,204.279,285.46Z" transform="translate(-200.343 -275.155)" fill="#e6983c"/>
        </g>
        <path id="Trazado_239106" data-name="Trazado 239106" d="M185.164,372.748l-.285-.111-.285.111s-2.457,19.217-28.831,28.874H214C187.622,391.965,185.164,372.748,185.164,372.748Z" transform="translate(-131.506 -265.978)" fill="#e6983c"/>
        <path id="Trazado_239107" data-name="Trazado 239107" d="M221.608,237.34c0,2.144-18.3,3.883-40.87,3.883s-40.869-1.738-40.869-3.883,18.3-3.882,40.869-3.882S221.608,235.2,221.608,237.34Z" transform="translate(-127.553 -231.363)" fill="#c1d9ed"/>
        <path id="Trazado_239108" data-name="Trazado 239108" d="M225.81,230.67h-98.3a4.036,4.036,0,1,0,0,8.071h98.3a4.036,4.036,0,1,0,0-8.071Z" transform="translate(-123.476 -230.67)" fill="#345375"/>
      </g>
      <g id="Grupo_116674" data-name="Grupo 116674" transform="translate(325.228 155.327)">
        <path id="Rectángulo_42579" data-name="Rectángulo 42579" d="M0,0H58.844a3.845,3.845,0,0,1,3.845,3.845v0a3.845,3.845,0,0,1-3.845,3.845H0a0,0,0,0,1,0,0V0A0,0,0,0,1,0,0Z" transform="matrix(0.705, 0.709, -0.709, 0.705, 78.987, 48.885)" fill="#345375"/>
        <path id="Rectángulo_42580" data-name="Rectángulo 42580" d="M0,0H59.241a1.368,1.368,0,0,1,1.368,1.368v0a1.368,1.368,0,0,1-1.368,1.368H0a0,0,0,0,1,0,0V0A0,0,0,0,1,0,0Z" transform="matrix(0.705, 0.709, -0.709, 0.705, 77.65, 49.112)" fill="#5c87c7"/>
        <rect id="Rectángulo_42581" data-name="Rectángulo 42581" width="36.91" height="42.96" transform="matrix(0.705, 0.709, -0.709, 0.705, 65.068, 10.688)" fill="#e6b64e"/>
        <rect id="Rectángulo_42582" data-name="Rectángulo 42582" width="7.715" height="42.96" transform="matrix(0.705, 0.709, -0.709, 0.705, 68.89, 14.618)" fill="#eec067"/>
        <rect id="Rectángulo_42583" data-name="Rectángulo 42583" width="42.481" height="7.159" rx="3.58" transform="matrix(0.705, 0.709, -0.709, 0.705, 34.342, 37.281)" fill="#345375"/>
        <path id="Trazado_239109" data-name="Trazado 239109" d="M478.4,379.339l-27.717-27.9,2.731-1.007,26.011,26.186Z" transform="translate(-421.832 -306.48)" fill="#223b51"/>
        <rect id="Rectángulo_42584" data-name="Rectángulo 42584" width="45.002" height="4.249" rx="2.124" transform="matrix(0.705, 0.709, -0.709, 0.705, 26.854, 42.943)" fill="#345375"/>
        <rect id="Rectángulo_42585" data-name="Rectángulo 42585" width="42.481" height="7.159" rx="3.58" transform="matrix(0.705, 0.709, -0.709, 0.705, 66.439, 5.399)" fill="#345375"/>
        <path id="Trazado_239110" data-name="Trazado 239110" d="M531.593,326.5l-27.717-27.9-1.025,2.724,26.011,26.186Z" transform="translate(-434.806 -293.589)" fill="#223b51"/>
        <rect id="Rectángulo_42586" data-name="Rectángulo 42586" width="45.002" height="4.249" rx="2.124" transform="matrix(0.705, 0.709, -0.709, 0.705, 70.086, 0)" fill="#345375"/>
        <path id="Rectángulo_42587" data-name="Rectángulo 42587" d="M13.211,0H62.562A13.211,13.211,0,0,1,75.772,13.211v0a0,0,0,0,1,0,0H0a0,0,0,0,1,0,0v0A13.211,13.211,0,0,1,13.211,0Z" transform="translate(4.649 77.193)" fill="#e6b64e"/>
        <rect id="Rectángulo_42588" data-name="Rectángulo 42588" width="78.055" height="2.622" rx="1.311" transform="translate(3.508 89.496)" fill="#c49236"/>
        <rect id="Rectángulo_42589" data-name="Rectángulo 42589" width="85.07" height="7.362" rx="3.681" transform="translate(0 90.403)" fill="#345375"/>
        <path id="Rectángulo_42590" data-name="Rectángulo 42590" d="M1.135,0H32.687a1.7,1.7,0,0,1,1.7,1.7v0a.567.567,0,0,1-.567.567H1.135A1.135,1.135,0,0,1,0,1.135v0A1.135,1.135,0,0,1,1.135,0Z" transform="translate(37.38 79.046)" fill="#f0cd46"/>
      </g>
      <g id="Grupo_116699" data-name="Grupo 116699" transform="translate(88.181 194.945)">
        <path id="Trazado_239111" data-name="Trazado 239111" d="M103.895,345.683s26.834,20.681,52.13,0" transform="translate(-98.535 -344.918)" fill="none" stroke="#263238" stroke-miterlimit="10" stroke-width="0.546"/>
        <path id="Trazado_239112" data-name="Trazado 239112" d="M173.055,345.683s26.834,20.681,52.13,0" transform="translate(-115.736 -344.918)" fill="none" stroke="#263238" stroke-miterlimit="10" stroke-width="0.546"/>
        <path id="Trazado_239113" data-name="Trazado 239113" d="M241.911,345.683s26.835,20.681,52.131,0" transform="translate(-132.861 -344.918)" fill="none" stroke="#263238" stroke-miterlimit="10" stroke-width="0.546"/>
        <g id="Grupo_116680" data-name="Grupo 116680" transform="translate(0)">
          <g id="Grupo_116675" data-name="Grupo 116675" transform="translate(4.582 0.932)">
            <rect id="Rectángulo_42591" data-name="Rectángulo 42591" width="1.709" height="2.758" fill="#407bff"/>
            <rect id="Rectángulo_42592" data-name="Rectángulo 42592" width="1.709" height="2.758" opacity="0.2" style="isolation: isolate"/>
          </g>
          <path id="Trazado_239114" data-name="Trazado 239114" d="M104.574,346.155a1.03,1.03,0,1,0-1.832,0Z" transform="translate(-98.22 -344.665)" fill="#5c87c7"/>
          <g id="Grupo_116676" data-name="Grupo 116676" transform="translate(4.489 12.144)">
            <rect id="Rectángulo_42593" data-name="Rectángulo 42593" width="1.895" height="54.405" fill="#3c5c85"/>
          </g>
          <g id="Grupo_116677" data-name="Grupo 116677" transform="translate(4.489 8.235)" opacity="0.17">
            <rect id="Rectángulo_42594" data-name="Rectángulo 42594" width="1.895" height="6.057"/>
          </g>
          <g id="Grupo_116678" data-name="Grupo 116678" transform="translate(2.792 2.53)">
            <path id="Trazado_239115" data-name="Trazado 239115" d="M105.768,350.679a2.646,2.646,0,1,1-2.646-2.646A2.646,2.646,0,0,1,105.768,350.679Z" transform="translate(-100.477 -348.033)" fill="#5c87c7"/>
            <path id="Trazado_239116" data-name="Trazado 239116" d="M100.772,351.042c0,.049.012.094.014.142a2.635,2.635,0,0,0,3.74-2.4c0-.049-.011-.094-.014-.142a2.635,2.635,0,0,0-3.74,2.4Z" transform="translate(-100.55 -348.124)" fill="#83b2ea" opacity="0.29"/>
          </g>
          <path id="Trazado_239117" data-name="Trazado 239117" d="M104.651,359.729h-2.494l-.546-5.6H105.2Z" transform="translate(-97.967 -347.019)" fill="#5c87c7"/>
          <path id="Trazado_239118" data-name="Trazado 239118" d="M101.742,428.417h2.081a3.443,3.443,0,0,0,1.878,1.928l.754.249H99.109l.754-.249A3.439,3.439,0,0,0,101.742,428.417Z" transform="translate(-97.345 -365.495)" fill="#345375"/>
          <path id="Rectángulo_42595" data-name="Rectángulo 42595" d="M.83,0H8.823a.83.83,0,0,1,.83.83v.314a0,0,0,0,1,0,0H0a0,0,0,0,1,0,0V.83A.83.83,0,0,1,.83,0Z" transform="translate(0.611 65.041)" fill="#3c5c85"/>
          <g id="Grupo_116679" data-name="Grupo 116679" transform="translate(0 65.669)">
            <path id="Trazado_239119" data-name="Trazado 239119" d="M107.635,433.105H96.761v-.675a.358.358,0,0,1,.358-.358h10.16a.357.357,0,0,1,.357.358Z" transform="translate(-96.761 -432.073)" fill="#345375"/>
          </g>
        </g>
        <g id="Grupo_116686" data-name="Grupo 116686" transform="translate(51.995)">
          <g id="Grupo_116681" data-name="Grupo 116681" transform="translate(4.583 0.932)">
            <rect id="Rectángulo_42596" data-name="Rectángulo 42596" width="1.709" height="2.758" fill="#407bff"/>
            <rect id="Rectángulo_42597" data-name="Rectángulo 42597" width="1.709" height="2.758" opacity="0.2" style="isolation: isolate"/>
          </g>
          <path id="Trazado_239120" data-name="Trazado 239120" d="M173.782,346.155a1.03,1.03,0,1,0-1.832,0Z" transform="translate(-167.428 -344.665)" fill="#5c87c7"/>
          <g id="Grupo_116682" data-name="Grupo 116682" transform="translate(4.49 12.144)">
            <rect id="Rectángulo_42598" data-name="Rectángulo 42598" width="1.895" height="54.405" fill="#3c5c85"/>
          </g>
          <g id="Grupo_116683" data-name="Grupo 116683" transform="translate(4.49 8.235)" opacity="0.17">
            <rect id="Rectángulo_42599" data-name="Rectángulo 42599" width="1.895" height="6.057"/>
          </g>
          <g id="Grupo_116684" data-name="Grupo 116684" transform="translate(2.792 2.53)">
            <path id="Trazado_239121" data-name="Trazado 239121" d="M174.976,350.679a2.646,2.646,0,1,1-2.646-2.646A2.646,2.646,0,0,1,174.976,350.679Z" transform="translate(-169.685 -348.033)" fill="#5c87c7"/>
            <path id="Trazado_239122" data-name="Trazado 239122" d="M169.98,351.042c0,.049.012.094.014.142a2.635,2.635,0,0,0,3.74-2.4c0-.049-.011-.094-.014-.142a2.635,2.635,0,0,0-3.74,2.4Z" transform="translate(-169.758 -348.124)" fill="#83b2ea" opacity="0.29"/>
          </g>
          <path id="Trazado_239123" data-name="Trazado 239123" d="M173.86,359.729h-2.494l-.546-5.6h3.587Z" transform="translate(-167.175 -347.019)" fill="#5c87c7"/>
          <path id="Trazado_239124" data-name="Trazado 239124" d="M170.95,428.417h2.081a3.443,3.443,0,0,0,1.878,1.928l.754.249h-7.346l.754-.249A3.439,3.439,0,0,0,170.95,428.417Z" transform="translate(-166.553 -365.495)" fill="#345375"/>
          <path id="Rectángulo_42600" data-name="Rectángulo 42600" d="M.83,0H8.823a.83.83,0,0,1,.83.83v.314a0,0,0,0,1,0,0H0a0,0,0,0,1,0,0V.83A.83.83,0,0,1,.83,0Z" transform="translate(0.611 65.041)" fill="#3c5c85"/>
          <g id="Grupo_116685" data-name="Grupo 116685" transform="translate(0 65.669)">
            <path id="Trazado_239125" data-name="Trazado 239125" d="M176.844,433.105H165.969v-.675a.358.358,0,0,1,.358-.358h10.16a.358.358,0,0,1,.358.358Z" transform="translate(-165.969 -432.073)" fill="#345375"/>
          </g>
        </g>
        <g id="Grupo_116692" data-name="Grupo 116692" transform="translate(103.991)">
          <g id="Grupo_116687" data-name="Grupo 116687" transform="translate(4.583 0.932)">
            <rect id="Rectángulo_42601" data-name="Rectángulo 42601" width="1.709" height="2.758" fill="#407bff"/>
            <rect id="Rectángulo_42602" data-name="Rectángulo 42602" width="1.709" height="2.758" opacity="0.2" style="isolation: isolate"/>
          </g>
          <path id="Trazado_239126" data-name="Trazado 239126" d="M242.99,346.155a1.03,1.03,0,1,0-1.832,0Z" transform="translate(-236.636 -344.665)" fill="#5c87c7"/>
          <g id="Grupo_116688" data-name="Grupo 116688" transform="translate(4.49 12.144)">
            <rect id="Rectángulo_42603" data-name="Rectángulo 42603" width="1.895" height="54.405" fill="#3c5c85"/>
          </g>
          <g id="Grupo_116689" data-name="Grupo 116689" transform="translate(4.49 8.235)" opacity="0.17">
            <rect id="Rectángulo_42604" data-name="Rectángulo 42604" width="1.895" height="6.057"/>
          </g>
          <g id="Grupo_116690" data-name="Grupo 116690" transform="translate(2.792 2.53)">
            <path id="Trazado_239127" data-name="Trazado 239127" d="M244.184,350.679a2.646,2.646,0,1,1-2.646-2.646A2.646,2.646,0,0,1,244.184,350.679Z" transform="translate(-238.893 -348.033)" fill="#5c87c7"/>
            <path id="Trazado_239128" data-name="Trazado 239128" d="M239.188,351.042c0,.049.012.094.014.142a2.635,2.635,0,0,0,3.74-2.4c0-.049-.011-.094-.014-.142a2.635,2.635,0,0,0-3.74,2.4Z" transform="translate(-238.966 -348.124)" fill="#83b2ea" opacity="0.29"/>
          </g>
          <path id="Trazado_239129" data-name="Trazado 239129" d="M243.068,359.729h-2.494l-.547-5.6h3.587Z" transform="translate(-236.383 -347.019)" fill="#5c87c7"/>
          <path id="Trazado_239130" data-name="Trazado 239130" d="M240.158,428.417h2.08a3.443,3.443,0,0,0,1.878,1.928l.754.249h-7.346l.754-.249A3.442,3.442,0,0,0,240.158,428.417Z" transform="translate(-235.761 -365.495)" fill="#345375"/>
          <path id="Rectángulo_42605" data-name="Rectángulo 42605" d="M.83,0H8.823a.83.83,0,0,1,.83.83v.314a0,0,0,0,1,0,0H0a0,0,0,0,1,0,0V.83A.83.83,0,0,1,.83,0Z" transform="translate(0.611 65.041)" fill="#3c5c85"/>
          <g id="Grupo_116691" data-name="Grupo 116691" transform="translate(0 65.669)">
            <path id="Trazado_239131" data-name="Trazado 239131" d="M246.052,433.105H235.177v-.675a.358.358,0,0,1,.358-.358h10.16a.358.358,0,0,1,.358.358Z" transform="translate(-235.177 -432.073)" fill="#345375"/>
          </g>
        </g>
        <g id="Grupo_116698" data-name="Grupo 116698" transform="translate(155.986)">
          <g id="Grupo_116693" data-name="Grupo 116693" transform="translate(4.583 0.932)">
            <rect id="Rectángulo_42606" data-name="Rectángulo 42606" width="1.709" height="2.758" fill="#407bff"/>
            <rect id="Rectángulo_42607" data-name="Rectángulo 42607" width="1.709" height="2.758" opacity="0.2" style="isolation: isolate"/>
          </g>
          <path id="Trazado_239132" data-name="Trazado 239132" d="M312.2,346.155a1.03,1.03,0,1,0-1.832,0Z" transform="translate(-305.844 -344.665)" fill="#5c87c7"/>
          <g id="Grupo_116694" data-name="Grupo 116694" transform="translate(4.49 12.144)">
            <rect id="Rectángulo_42608" data-name="Rectángulo 42608" width="1.895" height="54.405" fill="#3c5c85"/>
          </g>
          <g id="Grupo_116695" data-name="Grupo 116695" transform="translate(4.49 8.235)" opacity="0.17">
            <rect id="Rectángulo_42609" data-name="Rectángulo 42609" width="1.895" height="6.057"/>
          </g>
          <g id="Grupo_116696" data-name="Grupo 116696" transform="translate(2.792 2.53)">
            <path id="Trazado_239133" data-name="Trazado 239133" d="M313.392,350.679a2.646,2.646,0,1,1-2.646-2.646A2.646,2.646,0,0,1,313.392,350.679Z" transform="translate(-308.101 -348.033)" fill="#5c87c7"/>
            <path id="Trazado_239134" data-name="Trazado 239134" d="M308.4,351.042c0,.049.011.094.014.142a2.635,2.635,0,0,0,3.74-2.4c0-.049-.011-.094-.014-.142a2.635,2.635,0,0,0-3.74,2.4Z" transform="translate(-308.175 -348.124)" fill="#83b2ea" opacity="0.29"/>
          </g>
          <path id="Trazado_239135" data-name="Trazado 239135" d="M312.276,359.729h-2.494l-.546-5.6h3.587Z" transform="translate(-305.591 -347.019)" fill="#5c87c7"/>
          <path id="Trazado_239136" data-name="Trazado 239136" d="M309.366,428.417h2.08a3.443,3.443,0,0,0,1.878,1.928l.755.249h-7.347l.755-.249A3.444,3.444,0,0,0,309.366,428.417Z" transform="translate(-304.969 -365.495)" fill="#345375"/>
          <path id="Rectángulo_42610" data-name="Rectángulo 42610" d="M.83,0H8.823a.83.83,0,0,1,.83.83v.314a0,0,0,0,1,0,0H0a0,0,0,0,1,0,0V.83A.83.83,0,0,1,.83,0Z" transform="translate(0.611 65.041)" fill="#3c5c85"/>
          <g id="Grupo_116697" data-name="Grupo 116697" transform="translate(0 65.669)">
            <path id="Trazado_239137" data-name="Trazado 239137" d="M315.26,433.105H304.385v-.675a.357.357,0,0,1,.358-.358H314.9a.358.358,0,0,1,.358.358Z" transform="translate(-304.385 -432.073)" fill="#345375"/>
          </g>
        </g>
      </g>
      <g id="Grupo_116706" data-name="Grupo 116706" transform="translate(239.673 84.19)">
        <g id="Grupo_116700" data-name="Grupo 116700" transform="translate(9.302)">
          <path id="Trazado_239138" data-name="Trazado 239138" d="M312.08,130.725a5.613,5.613,0,0,0,3.577,1.828c1.654.13,3.753-.839,4.217-2.559-1.046-.062-.974-1.464-1.009-2.262a20.7,20.7,0,0,1,.035-2.19c.031-.494.065-.822.065-.822l-6.206-3.945a30.678,30.678,0,0,1,.428,5.68c-.03,1.3.016,3.394-1.856,3.315A6.729,6.729,0,0,0,312.08,130.725Z" transform="translate(-310.92 -110.36)" fill="#e6a897"/>
          <path id="Trazado_239139" data-name="Trazado 239139" d="M316.406,125.266a13.863,13.863,0,0,0,3.721,3.583,20.694,20.694,0,0,1,.035-2.19Z" transform="translate(-312.182 -111.477)" fill="#d99789"/>
          <path id="Trazado_239140" data-name="Trazado 239140" d="M324.139,113.513s.868,9.037-2.43,11.037c-1.486.9-6.342-3.213-6.342-3.213s-3.181-2.747-2.636-5.931C313.76,109.395,323.208,107.528,324.139,113.513Z" transform="translate(-311.252 -107.644)" fill="#e6a897"/>
          <path id="Trazado_239141" data-name="Trazado 239141" d="M325.269,109.345c-.091-.063-.859.52-3.418-1.493a6,6,0,0,0-5.017-.71,3.5,3.5,0,0,0-2.438,1.979,2.8,2.8,0,0,0-2.645,1.174c-2.594,3.3.8,10.828,1.246,10.941s-.556-4.934,1.558-4.874c1.256.036,1.651,2.212,1.854,2.009s-.018-2.715.184-3.268a.856.856,0,0,1,.8-.361c.983.128.78-1.522,1.59-1.769a8,8,0,0,1,3.123.163C326.24,114.228,326.7,110.337,325.269,109.345Z" transform="translate(-310.784 -106.913)" fill="#2f3d6a"/>
          <path id="Trazado_239142" data-name="Trazado 239142" d="M315.477,120.534c.174-.079.466-.1.682.345s.036.42-.012.7.22.267.3.508-.016.807-.512.7-.611-.862-.669-1.089S315.108,120.7,315.477,120.534Z" transform="translate(-311.884 -110.289)" fill="#d99789"/>
        </g>
        <path id="Trazado_239143" data-name="Trazado 239143" d="M304.818,162.247s10.009,1.137,12.313,1.185,2.19-1.156,2.19-1.156a91.632,91.632,0,0,1,1.023-10.538c.445-1.892.642-2.59,1.03-4.387.861-3.994.823-4.756,1.735-9.686l-5.978-4.805a3.152,3.152,0,0,1-3.125,1.871,4.557,4.557,0,0,1-4.391-2.3l-8.155,5.414L300.7,151.01l3.064,10.083" transform="translate(-298.973 -113.258)" fill="#5392b8"/>
        <g id="Grupo_116704" data-name="Grupo 116704" transform="translate(2.185 47.496)">
          <g id="Grupo_116701" data-name="Grupo 116701" transform="translate(26.989 33.871)">
            <path id="Trazado_239144" data-name="Trazado 239144" d="M341.923,216.562a21.179,21.179,0,0,1-.577,2.581c-.255.657-2.414.051-2.556-.373a19.738,19.738,0,0,1,.678-3.553" transform="translate(-337.617 -215.216)" fill="#d89a80"/>
            <path id="Trazado_239145" data-name="Trazado 239145" d="M337.656,220.414c-.187.709-.422,2.07-.422,2.07l2.156.94.355-.333a3.992,3.992,0,0,0,1.2.954,8.993,8.993,0,0,0,2.088.579c1.883.2,3.268-.152,3.38-.412.467-1.09-2.031-1.383-2.527-1.513a3.311,3.311,0,0,1-2.367-2.371c-.11-.572.032-.672-.288-.654a.758.758,0,0,0-.539.252,1.363,1.363,0,0,1-1.533.357,1.631,1.631,0,0,1-.764-.637A.942.942,0,0,0,337.656,220.414Z" transform="translate(-337.234 -216.318)" fill="#3d3d3d"/>
          </g>
          <g id="Grupo_116702" data-name="Grupo 116702" transform="translate(6.599)">
            <path id="Trazado_239146" data-name="Trazado 239146" d="M329.779,180.207a35.692,35.692,0,0,0,10.86.7c-.476,1.366-1.494,2.672-1.938,4.6-1.469,6.351-1.979,14.881-2.352,20.159,0,0,.705,1.355,2.966.323,3.377-8.341,9.272-25.244,9.218-28.91-.07-4.669-11.722-5.8-20.262-6.946" transform="translate(-314.615 -170.132)" fill="#2f3d6a"/>
            <path id="Trazado_239147" data-name="Trazado 239147" d="M310.374,171.093c-2.684,1.961,14.885,9.347,14.885,9.347a29.239,29.239,0,0,0,5.759.55,4.173,4.173,0,0,0,.428-1.09c.1-.51.049-1.041.138-1.553a3.61,3.61,0,0,1,1.756-2.366,7.914,7.914,0,0,1,2.871-.931,38.591,38.591,0,0,1,6.523-.114c-5.28-3.892-15.551-3.015-20.583-3.335C321.185,173.189,310.759,170.812,310.374,171.093Z" transform="translate(-310.095 -170.365)" fill="#48546c" opacity="0.5" style="mix-blend-mode: multiply;isolation: isolate"/>
          </g>
          <path id="Trazado_239148" data-name="Trazado 239148" d="M331.177,210.7c-.075.406-.18.917-.286,1.33a.772.772,0,0,1,.1-.008c.323-.015.18.083.285.654a3.332,3.332,0,0,0,2.367,2.374c.5.128,3,.421,2.532,1.51-.113.263-1.5.616-3.381.413a9.066,9.066,0,0,1-2.089-.578,4.025,4.025,0,0,1-1.195-.954l-.361.331-2.156-.939s.24-1.36.428-2.066a.938.938,0,0,1,.736-.774,10.844,10.844,0,0,1,.263-1.548,1.139,1.139,0,0,1-.083-.12c.376-5.274.887-13.8,2.352-20.157a11.975,11.975,0,0,1,1.119-2.817,14.182,14.182,0,0,0,.819-1.773,26.427,26.427,0,0,1-5.019.09c-.015.533-.038,1.1-.06,1.683-.338,7.49-1.585,18.722-1.4,27.617a1.877,1.877,0,0,1-.413.24c-.008.406-.023.894-.053,1.307a.473.473,0,0,1,.1-.03c.308-.075.188.053.4.594A3.3,3.3,0,0,0,328.916,219c.511.045,3.02-.1,2.75,1.052-.068.278-1.367.864-3.261.992a9.048,9.048,0,0,1-2.156-.2,3.994,3.994,0,0,1-1.345-.736l-.293.391-2.284-.556s0-1.375.06-2.111a.931.931,0,0,1,.586-.879h.008a12.028,12.028,0,0,1-.008-1.675c-.21-.068-.421-.143-.646-.24-.563-6.116-3.952-19.924-2.291-27.685a11.857,11.857,0,0,1,.481-1.7c-6.341.841-11.8,1.63-17.565-.278a2.907,2.907,0,0,1-1.367-.894H340.11c-.18.841-.428,1.811-.729,2.87-1.871,6.739-5.627,17.265-8.076,23.3A.919.919,0,0,1,331.177,210.7Z" transform="translate(-301.379 -173.699)" fill="#595959" opacity="0.2" style="mix-blend-mode: multiply;isolation: isolate"/>
          <g id="Grupo_116703" data-name="Grupo 116703" transform="translate(22.32 38.755)">
            <path id="Trazado_239149" data-name="Trazado 239149" d="M334.631,222.617a21.172,21.172,0,0,1-.12,2.642c-.138.692-2.369.47-2.583.075a19.81,19.81,0,0,1,.053-3.617" transform="translate(-331.225 -221.717)" fill="#d89a80"/>
            <path id="Trazado_239150" data-name="Trazado 239150" d="M331.077,226.964c-.061.731-.057,2.112-.057,2.112l2.287.551.291-.389a4,4,0,0,0,1.344.733,8.966,8.966,0,0,0,2.156.208c1.889-.126,3.192-.715,3.258-.992.271-1.155-2.24-1.01-2.75-1.053a3.312,3.312,0,0,1-2.742-1.925c-.207-.544-.085-.667-.4-.6a.762.762,0,0,0-.488.343,1.361,1.361,0,0,1-1.447.616,1.631,1.631,0,0,1-.863-.494A.941.941,0,0,0,331.077,226.964Z" transform="translate(-331.02 -222.682)" fill="#3d3d3d"/>
          </g>
          <path id="Trazado_239151" data-name="Trazado 239151" d="M302.33,170.584a13.573,13.573,0,0,0-.98,4.04,7.506,7.506,0,0,0,.473,3.529,4.848,4.848,0,0,0,2.844,2.8,20.939,20.939,0,0,0,5.14.959,50.517,50.517,0,0,0,10.45-.609l1.561-.207c-2.685,7.255,1.207,22.795,1.813,29.383,2.438,1.082,3.817-.069,3.817-.069-.276-13.41,2.712-32.141.9-35.346-1.1-1.948-14.225-4.519-14.486-4.485" transform="translate(-301.311 -170.244)" fill="#2f3d6a"/>
        </g>
        <path id="Trazado_239152" data-name="Trazado 239152" d="M335.221,157.838c-3.5-5.038-5.363-9.008-8.405-14.332L322.572,133s1.43.079,1.708.1a13.117,13.117,0,0,1,3.534.669,7.358,7.358,0,0,1,4.086,3.288c.7,1.413,1.134,2.949,1.73,4.408.666,1.63,1.373,3.243,2.083,4.853,1.412,3.2,2.859,6.384,4.048,9.672" transform="translate(-304.414 -113.402)" fill="#5392b8"/>
        <path id="Trazado_239153" data-name="Trazado 239153" d="M329,147.235l.569-3.409,4.184,9.169-1.386.338Z" transform="translate(-306.013 -116.093)" fill="#101010" opacity="0.2" style="mix-blend-mode: multiply;isolation: isolate"/>
        <path id="Trazado_239154" data-name="Trazado 239154" d="M301.88,139.4a108.616,108.616,0,0,0,1.294,24.99" transform="translate(-299.213 -114.992)" fill="none" stroke="#000" stroke-miterlimit="10" stroke-width="1.35"/>
        <g id="Grupo_116705" data-name="Grupo 116705" transform="translate(8.13 33.391)">
          <rect id="Rectángulo_42611" data-name="Rectángulo 42611" width="32.333" height="1.162" transform="translate(0 15.373)" fill="#adbbdf"/>
          <path id="Trazado_239155" data-name="Trazado 239155" d="M351.37,167.893H325.487l4.641-15.13a1.989,1.989,0,0,1,1.9-1.406H354.7a1.29,1.29,0,0,1,1.234,1.669Z" transform="translate(-313.268 -151.357)" fill="#adbbdf"/>
          <path id="Trazado_239156" data-name="Trazado 239156" d="M351.931,167.893H326.438l4.641-15.13a1.99,1.99,0,0,1,1.9-1.406h22.666a1.29,1.29,0,0,1,1.234,1.669l-4.446,14.495A.528.528,0,0,1,351.931,167.893Z" transform="translate(-313.505 -151.357)" fill="#e1e6f7"/>
        </g>
        <path id="Trazado_239157" data-name="Trazado 239157" d="M304.645,140.4a139.052,139.052,0,0,1,2.264,17.292c5,.369,6.4,2.288,10.981,4.327,0,0,3.617-.6,4,.764.219.787-4.234,1.413-4.234,1.413-4.245.02-14.531-1.969-15.289-2.177s-3.871-15.551-3.959-23.274a4.848,4.848,0,0,1,.712-3.143,4.106,4.106,0,0,1,1.381-1.021,19.257,19.257,0,0,1,8.547-2.157" transform="translate(-298.403 -113.258)" fill="#101010" opacity="0.2" style="mix-blend-mode: multiply;isolation: isolate"/>
        <path id="Trazado_239158" data-name="Trazado 239158" d="M323.365,172.828a2.675,2.675,0,0,1,2.228-.705,16.03,16.03,0,0,1,1.79.143c.27.036.582.1.61.393s-1.312,0-2.015.2a35.613,35.613,0,0,0,4.142.113,1.184,1.184,0,0,1,.477.049.4.4,0,0,1,.268.363.5.5,0,0,1-.189.315,2.806,2.806,0,0,1-1.425.574,10.974,10.974,0,0,1-6.3-.556" transform="translate(-304.509 -123.13)" fill="#d89a80"/>
        <path id="Trazado_239159" data-name="Trazado 239159" d="M304.778,140.407c.11,6.443,1.031,12.293.905,18.736,5,.368,7.541,1.34,12.12,3.379a2.419,2.419,0,0,1-.151,1.677c-.349.128-14.955-.489-16.156-1.6-1.081-1-3-16.132-3.092-23.856a4.848,4.848,0,0,1,.712-3.143,4.106,4.106,0,0,1,1.381-1.021,19.257,19.257,0,0,1,8.547-2.157" transform="translate(-298.403 -113.258)" fill="#5392b8"/>
        <path id="Trazado_239160" data-name="Trazado 239160" d="M344.733,160.946a2.7,2.7,0,1,0,2.7-2.7A2.7,2.7,0,0,0,344.733,160.946Z" transform="translate(-309.925 -119.68)" fill="#fff"/>
      </g>
      <g id="Grupo_116708" data-name="Grupo 116708" transform="translate(242.108 46.661)">
        <path id="Trazado_239161" data-name="Trazado 239161" d="M336.784,63.907c8.254-.87,22.086,5.126,17.1,15.648a13.064,13.064,0,0,1-7.871,6.894c-2.782.865-6.793,1.04-7.846-3.116-1.938-7.647,19.253-11.908,23.344,3.555,4.384,16.569-21.476,17.058-21.476,17.058" transform="translate(-310.384 -50.929)" fill="none" stroke="#c3e0fd" stroke-linecap="round" stroke-miterlimit="10" stroke-width="0.962" stroke-dasharray="2.564 1.923" opacity="0.7"/>
        <g id="Grupo_116707" data-name="Grupo 116707">
          <path id="Trazado_239162" data-name="Trazado 239162" d="M316.9,53.989c-.094-.056,6.084-.53,6.084-.53l4.133,7.969-6-3.832-6.259,2.969-13.211-1.637Z" transform="translate(-301.644 -48.352)" fill="#bde0f4"/>
          <path id="Trazado_239163" data-name="Trazado 239163" d="M301.644,60.3l25.472,2.5-6-3.831Z" transform="translate(-301.644 -49.721)" fill="#87c0ec"/>
          <path id="Trazado_239164" data-name="Trazado 239164" d="M301.644,57.238,325.19,46.661l-2.206,5.107-21.34,5.469,19.469-1.332-3.61,8.879Z" transform="translate(-301.644 -46.661)" fill="#d7edfc"/>
        </g>
      </g>
    </g>
  </g>
</svg>
