<svg xmlns="http://www.w3.org/2000/svg" width="126.28" height="220.88" viewBox="0 0 126.28 220.88">
  <g id="Grupo_123152" data-name="Grupo 123152" transform="translate(-1138 -7340.819)">
    <g id="Grupo_123151" data-name="Grupo 123151">
      <g id="Grupo_117241" data-name="Grupo 117241" transform="translate(1138 7340.819)">
        <g id="Grupo_117237" data-name="Grupo 117237" transform="translate(0)">
          <g id="Grupo_117228" data-name="Grupo 117228" transform="translate(31.938 92.83)">
            <path id="Trazado_239580" data-name="Trazado 239580" d="M285.111,59.818a19.566,19.566,0,0,0,6.51,1.725c-.066-.154-.113-.261-.113-.261L277.932,56.49s0,.694-.033,1.842C280.361,57.666,282.728,58.681,285.111,59.818Z" transform="translate(-260.362 -56.49)" fill="#ffb680"/>
            <path id="Trazado_239581" data-name="Trazado 239581" d="M319.588,72.345a23.584,23.584,0,0,1-2.94,1.38c-14.577,5.716-26.423-3.6-31.059-9.966-.708,3.613-1.786,6.849-3.453,8.237-4.792,3.993-12.778,6.389-12.778,6.389S283.733,93.56,300.5,92.761c.047,0,.086-.012.133-.014s.086.012.133.014c16.772.8,31.149-14.376,31.149-14.376S324.413,76.127,319.588,72.345Z" transform="translate(-269.357 -48.835)" fill="#ffb680"/>
            <path id="Trazado_239582" data-name="Trazado 239582" d="M298.4,60.11c-.1-2.162-.1-3.62-.1-3.62l-13.577,4.792-.113.263A41.637,41.637,0,0,0,298.4,60.11Z" transform="translate(-253.302 -56.49)" fill="#ffb680"/>
            <path id="Trazado_239583" data-name="Trazado 239583" d="M284.624,58.953l-.041,0L284.6,59Z" transform="translate(-253.323 -53.898)" fill="#ed8a40"/>
            <path id="Trazado_239584" data-name="Trazado 239584" d="M308.322,80.544a23.584,23.584,0,0,0,2.94-1.38c-.15-.117-.3-.23-.445-.349-3.484-2.9-4.433-13.791-4.691-19.541a41.637,41.637,0,0,1-13.793,1.435l-.021.047-.021-.049a19.566,19.566,0,0,1-6.51-1.725c-2.384-1.137-4.751-2.152-7.212-1.486a86.47,86.47,0,0,1-1.306,13.082C281.9,76.942,293.745,86.259,308.322,80.544Z" transform="translate(-261.031 -55.654)" fill="#ed8a40"/>
          </g>
          <g id="Grupo_117235" data-name="Grupo 117235" transform="translate(21.222)">
            <path id="Trazado_239585" data-name="Trazado 239585" d="M350,50.634c-1.437-8.362-6.8-6.861-9.457-5.658.1-10.085.066-24.736.066-24.736L307.49,21.927l-.392-.057-.394.057-32.535-2.141s-.612,15-.515,24.99c-2.507-.99-7.642-1.965-8.986,5.857-1.534,8.929,5.958,12.815,9.76,14.191a76.872,76.872,0,0,0,1.827,12.723c2.449,9.188,16.729,20.484,20.213,22.662a23.011,23.011,0,0,0,10.237,3.028v.033s.148,0,.394-.01c.244.01.392.01.392.01v-.033a23.018,23.018,0,0,0,10.239-3.028c3.484-2.178,17.761-13.474,20.211-22.662a76.109,76.109,0,0,0,1.815-12.557C343.347,63.786,351.6,59.975,350,50.634Z" transform="translate(-264.463 1.909)" fill="#ffb680"/>
            <path id="Trazado_239586" data-name="Trazado 239586" d="M306.107,33.494a3.214,3.214,0,0,0-3.363.93c-1.735,2.014-1.495,4.346-1.314,6.8.062.838.419,1.043.76.953a1.6,1.6,0,0,1,2.129,1.415c-.023,1.427-1.185,2.1-2.3,2.605a.516.516,0,0,0,.306.973c3.887-.491,4.488-6.956.361-6.371a15.448,15.448,0,0,1-.082-3.71c.419-1.938,2.285-3.708,4.032-2.131,1.776,1.6,1.148,5.283.308,7.071-.033.068.057.125.111.082C309.421,40.29,308.959,34.636,306.107,33.494Z" transform="translate(-225.664 16.17)" fill="#ed8a40"/>
            <path id="Trazado_239587" data-name="Trazado 239587" d="M268.358,33.494a3.215,3.215,0,0,1,3.363.93c1.735,2.014,1.495,4.346,1.314,6.8-.064.838-.421,1.043-.76.953a1.6,1.6,0,0,0-2.131,1.415c.025,1.427,1.185,2.1,2.3,2.605a.516.516,0,0,1-.306.973c-3.889-.491-4.488-6.956-.361-6.371a15.349,15.349,0,0,0,.08-3.71c-.417-1.938-2.283-3.708-4.032-2.131-1.774,1.6-1.146,5.283-.306,7.071.031.068-.057.125-.113.082C265.045,40.29,265.507,34.636,268.358,33.494Z" transform="translate(-262.958 16.17)" fill="#ed8a40"/>
            <path id="Trazado_239588" data-name="Trazado 239588" d="M307.839,48.61c-.207-.7-.907-.634-1.741.963-1.156,2.217-7.073,3.757-13.06,3.757s-11.9-1.54-13.056-3.757c-.831-1.6-1.532-1.665-1.739-.963-.454,1.544.589,2.474,3.858,4.379,2.351,1.371,8.278,2.07,11.027,2.065,2.706,0,7.693-.6,10.551-2.031C307.063,51.333,308.293,50.154,307.839,48.61Z" transform="translate(-250.056 31.815)" fill="#ed8a40"/>
            <path id="Trazado_239589" data-name="Trazado 239589" d="M329.623,24.139c-8.389-4.252-20.013-3.408-29.088-3.591C293,20.4,282.014,18.62,275.391,23.819c-6.652,5.223-7.2,20.3-7.2,20.3.472.253.719-.575,1.158-.168s1.77,2.722,2.3-.341c1.275-7.356,3.119-15.862,12.493-15.232,6.549.441,12.856,1.606,19.482,1.751a87.846,87.846,0,0,0,20.383-1.723c9.814-2.053,12.364,7.9,11.692,15.269-.185,2.045.893.8,1.38.411.544-.431,1.129.255,1.7-.068C339.466,35.552,337.719,28.239,329.623,24.139Z" transform="translate(-260.532 2.276)" fill="#ed8a40"/>
            <g id="Grupo_117229" data-name="Grupo 117229" transform="translate(5.809 2.589)">
              <path id="Trazado_239590" data-name="Trazado 239590" d="M329.449,18.2c-2.946-1.72-4.133-4.233-8.375-5.884a49.028,49.028,0,0,0-15.236-1.8c-15.474.5-26.55,7.814-36.693,19.077-2.737,9.933-1.634,24.325-1.634,24.325l1.985.639c-.454-8.071.144-15.252,3.1-19.917,3.677-5.806,14.413-6.131,20.7-4.059.168-.023.341-.057.509-.088-1.772-1.493-3.078-5.642-3.078-7.888a21.309,21.309,0,0,0,8.625,4.977c2.291.61,4.743.4,6.929,1.259a7.135,7.135,0,0,1-1.437-2.462,16.9,16.9,0,0,1-.435-6.428c4.445,5.97,11.879,7.748,18.718,9.077,3.416.663,8.465.922,11.4,3.041,5.416,3.911,5.391,13.152,3.981,22.49l2.185-.639a78.351,78.351,0,0,0-.821-22.584C338.035,25.5,334.539,21.772,329.449,18.2Z" transform="translate(-267.292 -10.48)" fill="#96281b"/>
              <path id="Trazado_239591" data-name="Trazado 239591" d="M333.465,27.206c-2.936-2.119-7.984-2.377-11.4-3.041-6.839-1.328-14.273-3.106-18.718-9.077a16.9,16.9,0,0,0,.435,6.428,7.117,7.117,0,0,0,1.437,2.462c-2.187-.856-4.638-.649-6.929-1.259a21.3,21.3,0,0,1-8.625-4.977c0,2.248,1.306,6.4,3.076,7.888-.166.031-.339.066-.507.088-6.287-2.072-17.022-1.747-20.7,4.059-2.954,4.665-3.552,11.846-3.1,19.917l1.493.48s-.737-10.268,2.971-16.2,12.748-3.437,28.813-3.437,27.21-3.533,32.72,2.7c2.878,3.254,1.93,16.774,1.93,16.774l1.084-.316C338.857,40.358,338.881,31.117,333.465,27.206Z" transform="translate(-266.231 -5.626)" fill="#7f1911"/>
            </g>
            <path id="Trazado_239592" data-name="Trazado 239592" d="M299.245,52.019a13.734,13.734,0,0,1-9.087,2.825,15.977,15.977,0,0,1-9.032-2.529c-.144-.082-.357.117-.273.226,3.217,4.147,15.039,4.455,18.708-.322C299.73,52,299.459,51.861,299.245,52.019Z" transform="translate(-247.221 35.781)" fill="#ed8a40"/>
            <path id="Trazado_239593" data-name="Trazado 239593" d="M291.483,43.927c-.177-.148-.46-.023-.388.2,1.039,3.18-1.074,3.751-2.178,4.164a3.068,3.068,0,0,1-2.262,0c-1.119-.372-3.215-.983-2.178-4.164.074-.224-.211-.349-.386-.2-1.819,1.523-.94,3.862.714,5.051a5.4,5.4,0,0,0,5.964,0C292.466,47.852,293.3,45.45,291.483,43.927Z" transform="translate(-244.859 27.264)" fill="#ed8a40"/>
            <g id="Grupo_117231" data-name="Grupo 117231" transform="translate(48.02 45.497)">
              <path id="Trazado_239594" data-name="Trazado 239594" d="M291.748,33.765c3.482-1.3,8.428-2.954,11.881-1.332a.287.287,0,0,1,.109.431,5.919,5.919,0,0,1,2.772.924c.039.023.01.092-.035.082-4.281-.85-9.105,2.93-10.22,5.533-.731,1.7-4.65,7.438-7.789-.3C287.214,36.023,289.38,34.645,291.748,33.765Z" transform="translate(-287.591 -30.979)" fill="#ed8a40"/>
              <g id="Grupo_117230" data-name="Grupo 117230" transform="translate(4.391 7.906)">
                <path id="Trazado_239595" data-name="Trazado 239595" d="M303.772,37.427c-2.609-2.655-7.336-2.488-10.707-1.228a.176.176,0,0,0-.138,0c-2.687,1.012-4.135,3.646-1.326,5.385a11.1,11.1,0,0,0,9.21.608C302.364,41.541,305.776,39.468,303.772,37.427Z" transform="translate(-289.898 -35.138)" fill="#fff"/>
                <path id="Trazado_239596" data-name="Trazado 239596" d="M298.1,38.694a3.189,3.189,0,1,1-3.191-3.19A3.191,3.191,0,0,1,298.1,38.694Z" transform="translate(-288.172 -34.942)" fill="#4385f5"/>
                <path id="Trazado_239597" data-name="Trazado 239597" d="M295.789,37.992a1.655,1.655,0,1,1-1.655-1.653A1.655,1.655,0,0,1,295.789,37.992Z" transform="translate(-287.369 -34.063)" fill="#6b2618"/>
                <path id="Trazado_239598" data-name="Trazado 239598" d="M294.854,37.3a1.418,1.418,0,1,1-1.419-1.419A1.417,1.417,0,0,1,294.854,37.3Z" transform="translate(-287.854 -34.548)" fill="#fff"/>
                <path id="Trazado_239599" data-name="Trazado 239599" d="M299.855,35.408c-3.453-.6-8.048.263-9.717,3.16-.265.464-.177,1.006.3.474,2.3-2.593,5.225-3.129,8.685-2.778,1.837.187,4.946,1.306,4.708,3.129-.064.493-.308.949-1.164,1.628-.659.521-.076.819.56.265C306.856,38.127,303.362,36.012,299.855,35.408Z" transform="translate(-289.99 -35.23)" fill="#6b2618"/>
              </g>
              <path id="Trazado_239600" data-name="Trazado 239600" d="M289.021,34.534c6.19-2,12.657-5.562,18.626-.749.37.3,0,.922-.37.756-2.885-1.308-5.09-2.063-7.775-1.585-3.291.587-6.543,3.182-9.615,3.437C287.657,36.579,287.1,35.154,289.021,34.534Z" transform="translate(-287.852 -31.379)" fill="#6b2618"/>
            </g>
            <g id="Grupo_117233" data-name="Grupo 117233" transform="translate(18.245 45.497)">
              <path id="Trazado_239601" data-name="Trazado 239601" d="M288.621,33.765c-3.482-1.3-8.428-2.954-11.881-1.332a.287.287,0,0,0-.109.431,5.9,5.9,0,0,0-2.77.924.046.046,0,0,0,.033.082c4.283-.85,9.105,2.93,10.222,5.533.729,1.7,4.648,7.438,7.787-.3C293.154,36.023,290.988,34.645,288.621,33.765Z" transform="translate(-272.831 -30.979)" fill="#ed8a40"/>
              <g id="Grupo_117232" data-name="Grupo 117232" transform="translate(0.787 7.906)">
                <path id="Trazado_239602" data-name="Trazado 239602" d="M274.484,37.427c2.609-2.655,7.334-2.488,10.707-1.228a.176.176,0,0,1,.138,0c2.688,1.012,4.135,3.646,1.326,5.385a11.1,11.1,0,0,1-9.21.608C275.892,41.541,272.48,39.468,274.484,37.427Z" transform="translate(-273.588 -35.138)" fill="#fff"/>
                <path id="Trazado_239603" data-name="Trazado 239603" d="M276.092,38.694a3.19,3.19,0,1,0,3.19-3.19A3.191,3.191,0,0,0,276.092,38.694Z" transform="translate(-271.248 -34.942)" fill="#4385f5"/>
                <circle id="Elipse_5568" data-name="Elipse 5568" cx="1.654" cy="1.654" r="1.654" transform="translate(6.351 2.276)" fill="#6b2618"/>
                <path id="Trazado_239604" data-name="Trazado 239604" d="M276.512,37.3a1.418,1.418,0,1,0,1.417-1.419A1.417,1.417,0,0,0,276.512,37.3Z" transform="translate(-270.805 -34.548)" fill="#fff"/>
                <path id="Trazado_239605" data-name="Trazado 239605" d="M278.636,35.408c3.453-.6,8.048.263,9.717,3.16.267.464.177,1.006-.3.474-2.3-2.593-5.223-3.129-8.683-2.778-1.837.187-4.948,1.306-4.71,3.129.066.493.308.949,1.164,1.628.661.521.076.819-.56.265C271.637,38.127,275.132,36.012,278.636,35.408Z" transform="translate(-273.732 -35.23)" fill="#6b2618"/>
              </g>
              <path id="Trazado_239606" data-name="Trazado 239606" d="M292.129,34.534c-6.192-2-12.657-5.562-18.628-.749-.37.3.006.922.372.756,2.883-1.308,5.09-2.063,7.775-1.585,3.289.587,6.541,3.182,9.613,3.437C293.492,36.579,294.05,35.154,292.129,34.534Z" transform="translate(-273.349 -31.379)" fill="#6b2618"/>
            </g>
            <g id="Grupo_117234" data-name="Grupo 117234" transform="translate(4.824)">
              <path id="Trazado_239607" data-name="Trazado 239607" d="M266.914,46S262.979,9.219,303.989,9.219c43.6,0,37.865,37.623,37.865,37.623s-8.578-2.692-37.471-2.692C276.823,44.15,266.914,46,266.914,46Z" transform="translate(-266.812 -9.219)" fill="#77a7fb"/>
              <path id="Trazado_239608" data-name="Trazado 239608" d="M331.163,30.567c-6.428-1.79-10.321-8.163-26.624-8.52l-.033,0-.035,0c-16.3.357-20.2,6.73-26.624,8.52s-10.984-3.23-10.984-3.23V34.6s5.073,2.646,19.287,3.96c4.738.437,8.479-5.166,17.788-5.166S319,38.95,323.93,38.455c13.4-1.345,18.923-4.116,18.923-4.116l-.706-7S337.593,32.36,331.163,30.567Z" transform="translate(-266.76 4.29)" fill="#438ee8"/>
              <path id="Trazado_239609" data-name="Trazado 239609" d="M321.442,33.442c-7.215-1.287-7.155-8.818-16.78-8.818h-2.494c-9.625,0-9.565,7.531-16.778,8.818-5.455.973-12.066-2.634-17.642-.832,0,0,11.762,5.094,19.03,3.956s8.526-8.253,15.32-8.619c.517-.029,2.117-.029,2.636,0,6.792.365,8.048,7.479,15.318,8.619s19.03-3.956,19.03-3.956C333.508,30.808,326.9,34.415,321.442,33.442Z" transform="translate(-265.827 7.004)" fill="#77a7fb"/>
              <path id="Trazado_239610" data-name="Trazado 239610" d="M301.786,21.041c0,3.287-5.03,5.95-11.234,5.95s-11.232-2.663-11.232-5.95,5.03-5.948,11.232-5.948S301.786,17.756,301.786,21.041Z" transform="translate(-253.642 -3.033)" fill="#fff"/>
            </g>
          </g>
          <g id="Grupo_117236" data-name="Grupo 117236" transform="translate(0 112.456)">
            <path id="Trazado_239611" data-name="Trazado 239611" d="M372.756,175.314c-.177-6.822-1.158-64.74-3.938-76.773A29.6,29.6,0,0,0,352.607,78.1c-8.4-4-22.452-10.212-22.452-10.212-2.707,4.244-7.208,4.178-13.466,6.209-2.674.866-4.469,8.221-7.206,8.221-3.721,0-3.258-8.477-6.7-9.988-5.005-2.2-11.633-.057-13.923-3.646A141.283,141.283,0,0,0,266.625,78.1a30.641,30.641,0,0,0-16.211,20.438c-2.78,12.033-3.761,69.951-3.938,76.773Z" transform="translate(-246.476 -67.89)" fill="#77a7fb"/>
            <path id="Trazado_239612" data-name="Trazado 239612" d="M267.275,139.977H256.611c-.448-3.127.273-6.785.612-9.428,1.244-9.674,2.336-19.344,1.421-29.045-.209-2.23-.963-15.589-1.575-20.055-1-7.307,2.148-8.6,2.864-2.437.587,5.051,1.289,7.307,2.579,14.326,1.232,6.707,3.772,15.137,4.318,19.03.659,4.691-.462,11.5-.879,16.211C265.53,133.343,266.542,135.633,267.275,139.977Z" transform="translate(-237.588 -60.313)" fill="#438ee8"/>
            <path id="Trazado_239613" data-name="Trazado 239613" d="M307.637,139.977H318.3c.448-3.127-.273-6.785-.614-9.428-1.242-9.674-2.334-19.344-1.421-29.045.211-2.23.963-15.589,1.577-20.055,1-7.307-2.15-8.6-2.866-2.437-.587,5.051-1.289,7.307-2.579,14.326-1.232,6.707-3.769,15.137-4.316,19.03-.659,4.691.462,11.5.879,16.211C309.382,133.343,308.37,135.633,307.637,139.977Z" transform="translate(-212.071 -60.313)" fill="#438ee8"/>
          </g>
          <path id="Trazado_239614" data-name="Trazado 239614" d="M292.012,70.914,289,76.6l-2.963-5.685-5.614,2.453,8.627,14.071,8.578-14.071Z" transform="translate(-225.764 50.956)" fill="#438ee8"/>
          <path id="Trazado_239615" data-name="Trazado 239615" d="M284.794,61.043c1.942,5.576,11.352,20.262,11.352,20.262L280.117,97.017l-9.233-20.738S278.634,63.39,284.794,61.043Z" transform="translate(-232.247 40.92)" fill="#a4c9ff"/>
          <path id="Trazado_239616" data-name="Trazado 239616" d="M297.312,61.043C295.8,66.619,286.03,81.3,286.03,81.3l16.026,15.712,9.235-20.738S303.471,63.39,297.312,61.043Z" transform="translate(-223.418 40.92)" fill="#a4c9ff"/>
          <path id="Trazado_239617" data-name="Trazado 239617" d="M322.808,114.258a24.33,24.33,0,0,1-2.983-5.43c-1.2-3.9,1.248-5.716-.614-8.212-.973-1.31-2.821.216-3.893,2.256s-3.338,7.872-2.014,11.912S322.808,114.258,322.808,114.258Z" transform="translate(-206.529 78.515)" fill="#ed8a40"/>
          <path id="Trazado_239618" data-name="Trazado 239618" d="M251.306,114.637a24.418,24.418,0,0,0,2.983-5.43c1.2-3.9-1.248-5.716.614-8.214.973-1.308,2.821.218,3.893,2.258s3.338,7.872,2.014,11.912S251.306,114.637,251.306,114.637Z" transform="translate(-241.39 78.913)" fill="#ed8a40"/>
        </g>
        <g id="Grupo_117238" data-name="Grupo 117238" transform="translate(17.636 151.811)">
          <rect id="Rectángulo_42851" data-name="Rectángulo 42851" width="91.452" height="64.596" transform="translate(0 3.473)" fill="#dba763"/>
          <rect id="Rectángulo_42852" data-name="Rectángulo 42852" width="91.452" height="9.241" transform="translate(0 0.064)" fill="#edbc80"/>
          <rect id="Rectángulo_42853" data-name="Rectángulo 42853" width="29.562" height="3.418" transform="translate(5.312 17.109)" fill="#4d4d4d"/>
          <rect id="Rectángulo_42854" data-name="Rectángulo 42854" width="29.562" height="3.418" transform="translate(5.312 25.303)" fill="#4d4d4d"/>
          <rect id="Rectángulo_42855" data-name="Rectángulo 42855" width="29.562" height="3.418" transform="translate(5.312 57.311)" fill="#4d4d4d"/>
          <rect id="Rectángulo_42856" data-name="Rectángulo 42856" width="14.009" height="20.559" transform="translate(72.421 42.686)" fill="#4d4d4d"/>
          <rect id="Rectángulo_42857" data-name="Rectángulo 42857" width="14.009" height="20.559" transform="translate(57.29 42.686)" fill="#4d4d4d"/>
          <rect id="Rectángulo_42858" data-name="Rectángulo 42858" width="14.071" height="18.609" transform="translate(38.583)" fill="#ffe1c0"/>
        </g>
        <g id="Grupo_117239" data-name="Grupo 117239" transform="translate(96.408 191.98)">
          <path id="Trazado_239619" data-name="Trazado 239619" d="M329.814,107.811s3.591.248,3.527,2.833-2.375,3.361-2.341,4.392,1.172,2.063,1.645,3.576-2.922,2.369-2.813,3.823c.062.813,2.228,1.985,2.226,3.792s-3.681,2.341-3.215,3.683c.3.866,1.172,1.891.994,2.936s-1.8,2.466-4.706,2.675c-1.168.084-14.084-1.78-14.912-4.566-.957-3.221,1.269-3.632,1.273-3.607,0,0-2.782-.667-2.94-2.979-.174-2.581,2.6-3.3,2.6-3.3a3.6,3.6,0,0,1-3.1-3.2c-.14-1.71,1.7-2.862,2.25-3.437-2.607-1.355-2.589-4.9-1.107-5.66C313.588,106.528,322.476,105.776,329.814,107.811Z" transform="translate(-308.047 -106.624)" fill="#ffb680"/>
          <path id="Trazado_239620" data-name="Trazado 239620" d="M322.638,118.509a14.482,14.482,0,0,1-6.208.532,15.107,15.107,0,0,1-5.326-2.3S319.916,117.991,322.638,118.509Z" transform="translate(-304.828 -95.965)" fill="#ed8a40"/>
          <path id="Trazado_239621" data-name="Trazado 239621" d="M323.424,114.313a45.45,45.45,0,0,1-6,.3,37.53,37.53,0,0,1-6.51-.873S320.057,113.036,323.424,114.313Z" transform="translate(-305.023 -99.335)" fill="#ed8a40"/>
          <path id="Trazado_239622" data-name="Trazado 239622" d="M323.92,110.26a42.028,42.028,0,0,1-6.564.778,17.982,17.982,0,0,1-6.247-1.049S320.551,108.985,323.92,110.26Z" transform="translate(-304.823 -103.476)" fill="#ed8a40"/>
          <path id="Trazado_239623" data-name="Trazado 239623" d="M320.254,123.482c-.883-.415-1.831-1.029-1.71-2.2.057-.567.983-.834,1.856-1.374.928-.577,1.979-1.254,1.435-2.182-.567-.963-2.035-1.033-1.965-2.961s2.221-2.922,2.135-4.589-3.942-3.19-3.942-3.19,2.819.378,3.971,1.562,1.234,2.419.055,3.909c-.942,1.191-1.887,2.267-.912,3.425.864,1.027,2.345,1.85,1.279,3.56C321.483,121.006,318.7,121.248,320.254,123.482Z" transform="translate(-297.5 -106.241)" fill="#ed8a40"/>
        </g>
        <g id="Grupo_117240" data-name="Grupo 117240" transform="translate(5.043 191.98)">
          <path id="Trazado_239624" data-name="Trazado 239624" d="M252.528,107.811s-3.591.248-3.525,2.833,2.375,3.361,2.341,4.392-1.172,2.063-1.645,3.576,2.922,2.369,2.813,3.823c-.062.813-2.228,1.985-2.228,3.792s3.683,2.341,3.217,3.683c-.3.866-1.174,1.891-.994,2.936s1.794,2.466,4.706,2.675c1.166.084,14.084-1.78,14.912-4.566.957-3.221-1.269-3.632-1.275-3.607,0,0,2.784-.667,2.94-2.979.177-2.581-2.6-3.3-2.6-3.3a3.593,3.593,0,0,0,3.1-3.2c.14-1.71-1.7-2.862-2.25-3.437,2.609-1.355,2.591-4.9,1.107-5.66C268.755,106.528,259.865,105.776,252.528,107.811Z" transform="translate(-248.859 -106.624)" fill="#ffb680"/>
          <path id="Trazado_239625" data-name="Trazado 239625" d="M252.647,118.509a14.476,14.476,0,0,0,6.208.532,15.107,15.107,0,0,0,5.326-2.3S255.369,117.991,252.647,118.509Z" transform="translate(-245.021 -95.965)" fill="#ed8a40"/>
          <path id="Trazado_239626" data-name="Trazado 239626" d="M252.358,114.313a45.466,45.466,0,0,0,6,.3,37.531,37.531,0,0,0,6.51-.873S255.727,113.036,252.358,114.313Z" transform="translate(-245.325 -99.335)" fill="#ed8a40"/>
          <path id="Trazado_239627" data-name="Trazado 239627" d="M252.02,110.26a42.023,42.023,0,0,0,6.562.778,17.988,17.988,0,0,0,6.25-1.049S255.389,108.985,252.02,110.26Z" transform="translate(-245.681 -103.476)" fill="#ed8a40"/>
          <path id="Trazado_239628" data-name="Trazado 239628" d="M251.615,123.482c.881-.415,1.829-1.029,1.71-2.2-.057-.567-.983-.834-1.856-1.374-.928-.577-1.981-1.254-1.435-2.182.567-.963,2.035-1.033,1.965-2.961s-2.221-2.922-2.135-4.589,3.942-3.19,3.942-3.19-2.819.378-3.971,1.562-1.236,2.419-.057,3.909c.942,1.191,1.889,2.267.914,3.425-.866,1.027-2.345,1.85-1.279,3.56C250.385,121.006,253.165,121.248,251.615,123.482Z" transform="translate(-248.932 -106.241)" fill="#ed8a40"/>
        </g>
      </g>
    </g>
  </g>
</svg>
