<svg xmlns="http://www.w3.org/2000/svg" width="190" height="126.204" viewBox="0 0 190 126.204">
  <g id="Grupo_123201" data-name="Grupo 123201" transform="translate(-705 -3400.398)">
    <rect id="Rectángulo_42809" data-name="Rectángulo 42809" width="190" height="126.204" transform="translate(705 3400.398)" fill="#bffee3" opacity="0.5"/>
    <path id="Trazado_247661" data-name="Trazado 247661" d="M31.2,14.737a4.528,4.528,0,0,1-1.525,3.252,5.355,5.355,0,0,1-3.625,1.187,4.816,4.816,0,0,1-3.872-1.657,6.793,6.793,0,0,1-1.411-4.548v-.782a7.671,7.671,0,0,1,.65-3.252,4.874,4.874,0,0,1,1.859-2.158,5.207,5.207,0,0,1,2.808-.751,5.217,5.217,0,0,1,3.568,1.187,4.866,4.866,0,0,1,1.564,3.331H28.582a2.673,2.673,0,0,0-.69-1.8,2.555,2.555,0,0,0-1.806-.558,2.24,2.24,0,0,0-1.973.945,5.3,5.3,0,0,0-.672,2.931v.967a5.667,5.667,0,0,0,.628,3.032,2.2,2.2,0,0,0,1.982.958,2.6,2.6,0,0,0,1.824-.558,2.521,2.521,0,0,0,.69-1.727Zm1.169-.58a5.64,5.64,0,0,1,.545-2.522,3.989,3.989,0,0,1,1.569-1.714,4.577,4.577,0,0,1,2.377-.606A4.33,4.33,0,0,1,40,10.492a4.727,4.727,0,0,1,1.358,3.2l.018.65a4.97,4.97,0,0,1-1.222,3.511,4.247,4.247,0,0,1-3.278,1.323A4.268,4.268,0,0,1,33.6,17.857a5.058,5.058,0,0,1-1.226-3.586Zm2.54.18a3.555,3.555,0,0,0,.51,2.073,1.831,1.831,0,0,0,2.9.009,3.89,3.89,0,0,0,.519-2.267,3.519,3.519,0,0,0-.519-2.06,1.686,1.686,0,0,0-1.459-.731,1.658,1.658,0,0,0-1.441.726A3.955,3.955,0,0,0,34.91,14.338ZM45.281,9.49l.079,1.1a3.32,3.32,0,0,1,2.733-1.274,2.759,2.759,0,0,1,2.25.888,4.142,4.142,0,0,1,.756,2.654V19h-2.54V12.918a1.648,1.648,0,0,0-.352-1.173,1.574,1.574,0,0,0-1.169-.365,1.747,1.747,0,0,0-1.608.914V19H42.89V9.49Zm7.348,4.685a5.731,5.731,0,0,1,1-3.542,3.237,3.237,0,0,1,2.729-1.318,2.913,2.913,0,0,1,2.294,1.037V5.5H61.2V19H58.9l-.123-1.011a2.989,2.989,0,0,1-2.443,1.187,3.228,3.228,0,0,1-2.694-1.323A5.916,5.916,0,0,1,52.628,14.175Zm2.54.189a3.754,3.754,0,0,0,.466,2.051,1.517,1.517,0,0,0,1.354.713,1.7,1.7,0,0,0,1.661-.995V12.375a1.675,1.675,0,0,0-1.644-.995Q55.168,11.38,55.168,14.364Zm13.693,3.669a3.185,3.185,0,0,1-2.6,1.143,3,3,0,0,1-2.333-.879,3.752,3.752,0,0,1-.822-2.575V9.49h2.54v6.151q0,1.487,1.354,1.487a1.834,1.834,0,0,0,1.775-.9V9.49h2.549V19H68.932Zm8.332-.905a1.666,1.666,0,0,0,1.143-.387,1.355,1.355,0,0,0,.457-1.028h2.382a3.258,3.258,0,0,1-.527,1.771,3.48,3.48,0,0,1-1.419,1.248,4.442,4.442,0,0,1-1.991.444,4.129,4.129,0,0,1-3.217-1.3A5.13,5.13,0,0,1,72.843,14.3v-.167a5.071,5.071,0,0,1,1.169-3.507,4.08,4.08,0,0,1,3.208-1.31,4,4,0,0,1,2.861,1.015,3.594,3.594,0,0,1,1.094,2.7H78.793a1.745,1.745,0,0,0-.457-1.206,1.7,1.7,0,0,0-2.5.183,3.749,3.749,0,0,0-.453,2.1v.264a3.8,3.8,0,0,0,.448,2.113A1.549,1.549,0,0,0,77.194,17.128ZM85.306,19H82.757V9.49h2.549Zm-2.7-11.971a1.251,1.251,0,0,1,.382-.94,1.648,1.648,0,0,1,2.079,0,1.244,1.244,0,0,1,.387.94,1.247,1.247,0,0,1-.391.949,1.629,1.629,0,0,1-2.065,0A1.247,1.247,0,0,1,82.608,7.029Zm10.134,4.843a6.9,6.9,0,0,0-.914-.07,1.86,1.86,0,0,0-1.89.976V19H87.4V9.49h2.4l.07,1.134a2.354,2.354,0,0,1,2.118-1.31,2.662,2.662,0,0,1,.791.114Z" transform="translate(744 3493.898)" fill="#12263f"/>
    <g id="Grupo_117211" data-name="Grupo 117211" transform="translate(2433.93 -483.005)">
      <path id="Trazado_239533" data-name="Trazado 239533" d="M-1613.5,3934.533c-4.8,7.367-11.5,11.49-20.362,11.469-8.816-.021-15.486-4.151-20.29-11.55-.441.822-.938,1.46-.136,2.341a2.047,2.047,0,0,1,.079,2.274,1.21,1.21,0,0,0,.3,1.468,27.089,27.089,0,0,0,30.178,7.042c.113-.047.225-.1.339-.142.98-.389,1.716-.175,2.016.586.288.731-.051,1.4-.982,1.779a29.382,29.382,0,0,1-22.145.3,28.319,28.319,0,0,1-10.489-6.952c-.1-.107-.224-.2-.434-.386-.156.387-.3.7-.413,1.031q-3.036,8.722-6.066,17.447c-.06.174-.117.348-.182.52-.349.918-1,1.288-1.752,1a1.293,1.293,0,0,1-.688-1.826c1.076-3.128,2.171-6.249,3.254-9.375q2.168-6.252,4.327-12.507c.1-.28.164-.571.261-.914-2.737-.958-5.391-1.889-8.047-2.817-.636-.222-1.3-.385-1.909-.663-.669-.305-.9-.052-1.108.565-1.421,4.176-2.872,8.342-4.316,12.51q-1.579,4.558-3.171,9.113a3.005,3.005,0,0,1-.487.975,1.135,1.135,0,0,1-1.573.234,1.278,1.278,0,0,1-.516-1.678c.882-2.515,1.748-5.036,2.62-7.554q2.6-7.511,5.2-15.025c.358-1.042.846-1.9,2.061-2.1.161-.026.3-.252.427-.4.054-.064.04-.179.078-.261a5.891,5.891,0,0,0-.408-6.113,48.69,48.69,0,0,1-2.728-5.412c-2.347-4.874-.838-9.63,3.8-12.416a20.028,20.028,0,0,0,2.911-2.515c2.4-2.176,4.116-2.3,6.8-.387.225-.252.466-.51.694-.778a29.274,29.274,0,0,1,9.414-7.373c1.053-.52,1.752-.4,2.144.358s.067,1.422-.967,1.937a27.234,27.234,0,0,0-9.494,7.827,1.163,1.163,0,0,0-.171,1.406c.444.9.807,1.845,1.252,2.882,4.988-7.181,11.587-11.411,20.395-11.4s15.372,4.23,20.361,11.412c.5-1.163.989-2.244,1.4-3.355a1.059,1.059,0,0,0-.259-.794,26.564,26.564,0,0,0-18.636-10.594,26.591,26.591,0,0,0-8.683.46,1.446,1.446,0,0,1-1.72-.5,1.293,1.293,0,0,1,.984-1.989,28.409,28.409,0,0,1,8.585-.648,29.231,29.231,0,0,1,20.744,10.671c.138.162.26.338.251.326a20.9,20.9,0,0,1,3.025-1.117,3.909,3.909,0,0,1,3.3,1.054c1.671,1.38,3.345,2.758,5.045,4.1a8.964,8.964,0,0,1,2.621,10.777c-1.235,2.735-2.616,5.4-3.977,8.081a1.985,1.985,0,0,0-.142,1.743,12.8,12.8,0,0,1,.39,1.32c.241.9.429,1.737,1.595,2.046.493.131.949.934,1.157,1.525,2.657,7.541,5.267,15.1,7.886,22.652.339.979.064,1.7-.722,1.968-.725.246-1.367-.144-1.7-1.106q-3.7-10.63-7.39-21.267c-.149-.429-.3-.857-.5-1.417l-10.777,3.741c.144.457.252.833.38,1.2q3.644,10.506,7.291,21.011c.09.26.194.517.266.783a1.209,1.209,0,0,1-.793,1.623,1.185,1.185,0,0,1-1.63-.772c-.481-1.258-.907-2.537-1.349-3.81q-2.486-7.162-4.968-14.326c-.118-.34-.256-.674-.393-1.033-1.257,1.086-2.456,2.124-3.659,3.158a6.747,6.747,0,0,1-.584.447,1.33,1.33,0,0,1-1.952-.191,1.319,1.319,0,0,1,.37-1.856c1.392-1.243,2.765-2.507,4.164-3.742a1.3,1.3,0,0,0,.37-1.7,2.637,2.637,0,0,1,.34-2.6c.26-.421-.03-1.18-.07-1.787Zm11.022-2.085c-.382-1.33-.7-2.575-1.1-3.786a2.63,2.63,0,0,1,.19-2.19c1.442-2.842,2.881-5.687,4.228-8.575a6.438,6.438,0,0,0-1.989-7.907c-1.555-1.179-3.069-2.416-4.55-3.687-1.541-1.323-2.634-1.106-3.454.79q-1.367,3.164-2.709,6.34c-.286.678-.753,1.277-1.476,1.143a2.66,2.66,0,0,1-1.472-1.028,21.74,21.74,0,0,1-1.414-2.534,2.9,2.9,0,0,0-1.968,4.23q3.8,9.616,7.638,19.218c.087.218.216.418.357.688Zm-48.879-21.467c-.46.846-.911,1.643-1.329,2.457a1.724,1.724,0,0,1-1.6,1.176c-.819-.028-1.209-.6-1.5-1.3q-1.3-3.092-2.636-6.17c-.864-2-1.948-2.218-3.559-.753a24.147,24.147,0,0,1-3.248,2.83c-3.826,2.381-4.8,5.482-2.813,9.533,1.3,2.64,2.637,5.259,3.888,7.921a2.908,2.908,0,0,1,.162,1.733c-.289,1.335-.724,2.638-1.125,4.039l7.729,2.685a3.705,3.705,0,0,0,.221-.369c2.618-6.574,5.247-13.143,7.84-19.727C-1648.62,3913.227-1649.331,3911.826-1651.362,3910.981Zm30.884,5.7c-1.343-3.334-.615-5.955,2.4-7.807-8.55-10.183-24.306-9.1-31.415.037,3,1.86,3.675,4.468,2.359,7.765A55.048,55.048,0,0,1-1620.478,3916.68Zm-13.376,14.387c1.133,0,2.267.039,3.4-.009a4.454,4.454,0,0,0,4.449-3.1,26.464,26.464,0,0,0,.961-6.765c.04-2.013-1.291-3.054-3.35-3.276a53.579,53.579,0,0,0-11.272.033,2.558,2.558,0,0,0-2.327,1.53,7.211,7.211,0,0,0-.617,2.807,29.727,29.727,0,0,0,.631,4.632,5,5,0,0,0,5.005,4.148C-1635.936,3931.086-1634.9,3931.069-1633.854,3931.067Zm-5.274,11.692a3.094,3.094,0,0,0,0-.441c-.661-3.147-1.255-6.312-2.042-9.427-.175-.692-1-1.245-1.588-1.8a2.326,2.326,0,0,0-1.127-.628c-2.36-.372-4.727-.7-7.1-.993-.433-.054-1.141-.049-1.29.194a1.982,1.982,0,0,0-.3,2.125,21.263,21.263,0,0,0,6.383,7.6A20.154,20.154,0,0,0-1639.128,3942.759Zm10.551.027c.5-.139.82-.217,1.132-.317a20.777,20.777,0,0,0,8.4-5.106,20.161,20.161,0,0,0,4.108-5.83c.408-.879-.324-2.239-1.144-2.131-2.642.346-5.28.715-7.918,1.087a1.109,1.109,0,0,0-.562.247c-1.209,1.091-2.339,2.227-2.339,4.032a5.449,5.449,0,0,1-.216,1.08Zm-9.729-9.123c.662,3.126,1.3,6.18,1.979,9.225a.857.857,0,0,0,.655.458c1.223.047,2.45.065,3.67,0a1.1,1.1,0,0,0,.753-.667c.293-1,.482-2.023.7-3.041.413-1.971.816-3.944,1.235-5.97Zm21.9-6.858c-.924-2.331-1.8-4.54-2.683-6.744a.572.572,0,0,0-.323-.294c-1.128-.342-2.262-.663-3.64-1.061,1.424,3.134.165,6.015,0,9.017Zm-28.174-8.076c-1.24.347-2.251.582-3.221.928a1.625,1.625,0,0,0-.863.8c-.781,1.83-1.5,3.688-2.227,5.539-.094.24-.143.5-.236.827l6.579.9C-1644.755,3924.7-1645.947,3921.856-1644.58,3918.729Z" fill="#12263f"/>
      <path id="Trazado_239534" data-name="Trazado 239534" d="M-1455.527,4048.022a3.965,3.965,0,0,1-4.011-3.932,3.978,3.978,0,0,1,3.971-3.982,3.977,3.977,0,0,1,3.963,3.9A3.966,3.966,0,0,1-1455.527,4048.022Zm-.073-5.316a1.37,1.37,0,0,0-1.326,1.372,1.361,1.361,0,0,0,1.43,1.352,1.359,1.359,0,0,0,1.278-1.409A1.369,1.369,0,0,0-1455.6,4042.706Z" transform="translate(-178.235 -120.087)" fill="#12263f"/>
    </g>
  </g>
</svg>
