<svg xmlns="http://www.w3.org/2000/svg" width="190" height="126.204" viewBox="0 0 190 126.204">
  <g id="Grupo_123202" data-name="Grupo 123202" transform="translate(-915 -3400.398)">
    <rect id="Rectángulo_42810" data-name="Rectángulo 42810" width="190" height="126.204" transform="translate(915 3400.398)" fill="#fece16" opacity="0.25"/>
    <path id="Trazado_247662" data-name="Trazado 247662" d="M30.805,13.454H25.743v3.428h5.941V19H23.106V6.2h8.561V8.339H25.743v3.05h5.063ZM35.4,9.49l.079,1.1a3.32,3.32,0,0,1,2.733-1.274,2.759,2.759,0,0,1,2.25.888,4.142,4.142,0,0,1,.756,2.654V19H38.68V12.918a1.648,1.648,0,0,0-.352-1.173,1.574,1.574,0,0,0-1.169-.365,1.747,1.747,0,0,0-1.608.914V19h-2.54V9.49ZM46.186,7.152V9.49h1.626v1.863H46.186V16.1a1.133,1.133,0,0,0,.2.756,1.015,1.015,0,0,0,.773.229,4.051,4.051,0,0,0,.747-.062v1.925a5.229,5.229,0,0,1-1.538.229,2.425,2.425,0,0,1-2.725-2.7V11.354H42.257V9.49h1.389V7.152Zm8.385,4.72a6.9,6.9,0,0,0-.914-.07,1.86,1.86,0,0,0-1.89.976V19h-2.54V9.49h2.4l.07,1.134a2.354,2.354,0,0,1,2.118-1.31,2.662,2.662,0,0,1,.791.114Zm5.6,7.3a4.668,4.668,0,0,1-3.406-1.283,4.561,4.561,0,0,1-1.314-3.419v-.246A5.745,5.745,0,0,1,56,11.666a4.064,4.064,0,0,1,1.569-1.74,4.4,4.4,0,0,1,2.316-.611,3.947,3.947,0,0,1,3.072,1.23,5,5,0,0,1,1.121,3.489v1.037H58.025a2.36,2.36,0,0,0,.743,1.494,2.245,2.245,0,0,0,1.569.563,2.742,2.742,0,0,0,2.294-1.063l1.248,1.4a3.813,3.813,0,0,1-1.547,1.261A5.075,5.075,0,0,1,60.169,19.176Zm-.29-7.813a1.587,1.587,0,0,0-1.226.512,2.651,2.651,0,0,0-.6,1.466h3.533v-.2a1.891,1.891,0,0,0-.457-1.311A1.638,1.638,0,0,0,59.879,11.362Zm5.273,2.813a5.573,5.573,0,0,1,1.042-3.524A3.375,3.375,0,0,1,69,9.314a2.96,2.96,0,0,1,2.435,1.072l.105-.9h2.3v9.193a4.064,4.064,0,0,1-.567,2.171,3.641,3.641,0,0,1-1.6,1.406,5.608,5.608,0,0,1-2.408.483,5.215,5.215,0,0,1-2.039-.417,3.619,3.619,0,0,1-1.5-1.077L66.858,19.7a2.975,2.975,0,0,0,2.3,1.063,2.178,2.178,0,0,0,1.573-.541,2.027,2.027,0,0,0,.563-1.534v-.51a2.938,2.938,0,0,1-2.312.993,3.366,3.366,0,0,1-2.773-1.34,5.572,5.572,0,0,1-1.059-3.555Zm2.54.189a3.47,3.47,0,0,0,.519,2.029,1.65,1.65,0,0,0,1.424.735,1.764,1.764,0,0,0,1.661-.871V12.251a1.76,1.76,0,0,0-1.644-.871,1.66,1.66,0,0,0-1.437.748A3.911,3.911,0,0,0,67.693,14.364ZM81.307,19a2.821,2.821,0,0,1-.255-.853,3.073,3.073,0,0,1-2.4,1.028,3.376,3.376,0,0,1-2.316-.809,2.6,2.6,0,0,1-.918-2.039,2.687,2.687,0,0,1,1.121-2.32,5.529,5.529,0,0,1,3.239-.817h1.169v-.545a1.567,1.567,0,0,0-.338-1.055,1.331,1.331,0,0,0-1.068-.4,1.513,1.513,0,0,0-1.006.308,1.045,1.045,0,0,0-.365.844h-2.54a2.551,2.551,0,0,1,.51-1.529,3.37,3.37,0,0,1,1.441-1.1,5.253,5.253,0,0,1,2.092-.4,4.15,4.15,0,0,1,2.791.883A3.09,3.09,0,0,1,83.5,12.681V16.8a4.546,4.546,0,0,0,.378,2.048V19Zm-2.1-1.767a2.188,2.188,0,0,0,1.037-.25,1.645,1.645,0,0,0,.7-.672V14.676H80q-1.907,0-2.03,1.318l-.009.149a1.017,1.017,0,0,0,.334.782A1.3,1.3,0,0,0,79.207,17.233Zm11.584-5.361a6.9,6.9,0,0,0-.914-.07,1.86,1.86,0,0,0-1.89.976V19h-2.54V9.49h2.4l.07,1.134a2.354,2.354,0,0,1,2.118-1.31,2.662,2.662,0,0,1,.791.114Z" transform="translate(954 3493.898)" fill="#12263f"/>
    <g id="Grupo_117212" data-name="Grupo 117212" transform="translate(1486.395 -453.353)">
      <path id="Trazado_239535" data-name="Trazado 239535" d="M-469.026,3935.051q-5.18,0-10.361,0a4.694,4.694,0,0,1-5.031-4.241c-.1-.641-.477-.5-.842-.5q-8.9-.007-17.794,0a2.7,2.7,0,0,1-2.04-.673,2.376,2.376,0,0,1-.731-1.775c0-1.344-.017-2.689.007-4.033.008-.445-.089-.629-.583-.7a4.642,4.642,0,0,1-4.159-4.7c-.034-3.585-.063-7.171,0-10.756a13.116,13.116,0,0,1,12.078-12.706c.684-.05,1.366-.118,2.05-.163a.493.493,0,0,0,.517-.389c.091-.336-.165-.395-.372-.5a8.265,8.265,0,0,1-4.614-5.872c-.077-.352-.238-.441-.575-.491-3.679-.534-5.368-3.861-3.642-7.172a.8.8,0,0,0,.044-.734,13.589,13.589,0,0,1-.758-4.893c.018-1.582-.005-3.164.006-4.745a8.283,8.283,0,0,1,8.48-8.523q6.92-.059,13.84,0a8.213,8.213,0,0,1,8.338,6.588c.109.429.294.548.7.528a4.178,4.178,0,0,1,2.585.547,4.474,4.474,0,0,1,1.374,5.311,2.286,2.286,0,0,1-2.054,1.259c-.761.027-1.706-.236-2.233.123-.546.372-.2,1.432-.457,2.142a5,5,0,0,0,.057,3.652,4.577,4.577,0,0,1-3.9,5.893c-.461.061-.732.138-.852.676a8.184,8.184,0,0,1-4.43,5.651c-.227.119-.611.131-.5.573.094.383.393.362.683.384a18.218,18.218,0,0,1,5.8,1.078,13.145,13.145,0,0,1,8.17,12.115c.023,3.453.016,6.907,0,10.36a4.747,4.747,0,0,1-2.733,4.387c-.367.2-1.071.008-1.079.439s.72.3,1.08.551a6.617,6.617,0,0,1,1.382,1.17,1.675,1.675,0,0,0,1.591.643c.674-.075,1.527.266,1.988-.132.436-.376.142-1.242.214-1.89a19.735,19.735,0,0,1,11.033-16.173,1.181,1.181,0,0,0,.779-1.244c-.044-1.918-.016-1.918-1.934-1.92-.659,0-1.32.021-1.976-.02a5.9,5.9,0,0,1-5.587-5.711,8.311,8.311,0,0,1-.006-1.027,2.7,2.7,0,0,0-1.175-2.852,3.429,3.429,0,0,1-.7-4.517,13.435,13.435,0,0,1,1.176-1.778,3.388,3.388,0,0,0,.7-2.511c-.024-.367-.083-.536-.5-.619a3.614,3.614,0,0,1-3.041-4.267,8.251,8.251,0,0,1,8.006-7.521c3.425-.085,6.856-.1,10.28,0a11.807,11.807,0,0,1,11.345,11.658c.037,1.845.022,3.691,0,5.536a4.417,4.417,0,0,0,.744,2.533,8.85,8.85,0,0,1,.113,10.178,5.326,5.326,0,0,0-.331,5.216c.32.721.7,1.414,1.052,2.123a7.025,7.025,0,0,1-2.687,9.362,4.438,4.438,0,0,0-2.173,2.737,17.631,17.631,0,0,1-16.482,12.315c-3.294.064-6.59.011-9.886.011Zm-24.712-64.2.119-.27a3.827,3.827,0,0,1,3.674-1.993c2.818.045,5.638.011,8.457.01q1.739,0,3.478,0c.27,0,.575.018.432-.413a5.244,5.244,0,0,0-2.83-3.474c-.028-.1-.055-.206-.2-.183l-.21-.1-.02-.046-.033.028-.359-.149a4.395,4.395,0,0,0-2.284-.431q-6.852-.007-13.7,0a2.551,2.551,0,0,0-1.235.137l-.322.054a.259.259,0,0,0-.316.087l-.346.1a1.814,1.814,0,0,0-1.09.507l0,0a.592.592,0,0,0-.465.313l-.011.008a3.473,3.473,0,0,0-1.391,1.428.1.1,0,0,0-.062.095l-.194.3-.012.018a3.042,3.042,0,0,0-.615,1.646l-.056.32a24.681,24.681,0,0,0-.149,3.837c-.044.582.2.7.723.7,2.47-.021,4.94-.01,7.41-.01,1.524,0,1.524,0,1.375-1.542l.08-.472a.6.6,0,0,0,.147-.477Zm.165,57.078c3,0,6.01-.009,9.014.009a1.183,1.183,0,0,0,1.124-.527,3.223,3.223,0,0,1,2.06-1.51,5.889,5.889,0,0,0,3.591-1.906c.562-.576.63-.865-.074-1.276a3.528,3.528,0,0,1-1.871-3.252c0-1.45.007-2.9,0-4.349a3.572,3.572,0,0,1,1.93-3.379.734.734,0,0,0,.449-.735c-.014-2.056-.022-4.112.006-6.167.008-.561-.236-.64-.711-.634-1.9.021-3.8.028-5.693,0-.558-.009-.722.163-.713.714.031,1.9,0,3.8.024,5.693.007.523-.107.739-.691.735q-5.258-.039-10.517,0c-.561,0-.718-.172-.709-.718.029-1.9,0-3.8.023-5.692.007-.526-.111-.745-.692-.735-1.924.033-3.848.024-5.772,0-.464,0-.652.114-.646.616.024,2.055.014,4.111.005,6.167a.762.762,0,0,0,.474.794,3.339,3.339,0,0,1,1.871,3.077c.029,1.581.022,3.163,0,4.744a3.346,3.346,0,0,1-1.839,3.1.938.938,0,0,0-.586.995,30.873,30.873,0,0,1,.047,3.551c-.006.565.179.707.723.7C-499.689,3927.92-496.631,3927.932-493.574,3927.933Zm51.816-10.04a4.566,4.566,0,0,0,1.977-5.869c-.358-.82-.807-1.6-1.181-2.413a7.6,7.6,0,0,1,.411-7.55,6.6,6.6,0,0,0-.1-7.709,6.287,6.287,0,0,1-1.106-3.646c.014-1.792,0-3.585,0-5.378a10.048,10.048,0,0,0-.369-2.706,9.425,9.425,0,0,0-8.9-6.879c-3.216-.053-6.433-.016-9.649-.011a7.576,7.576,0,0,0-1.024.078,5.949,5.949,0,0,0-4.96,5.6c-.015.912.414,1.414,1.291,1.417q5.22.021,10.44,0a1.282,1.282,0,0,0,1.3-1.207,1.189,1.189,0,0,0-1.26-1.144c-.237-.012-.474,0-.712,0-.158,0-.358-.006-.364-.209-.017-.658-.012-1.316,0-1.973,0-.158.163-.168.3-.2,1.481-.326,3.463.415,3.924,1.862a14.772,14.772,0,0,0,2.154,3.815,4.673,4.673,0,0,1,.707,2.483c.022.579.047,1.161.017,1.739a4.426,4.426,0,0,0,.894,2.962,7.081,7.081,0,0,1,1.227,2.461,7.232,7.232,0,0,1-1.161,6.159,4.676,4.676,0,0,0-.019,5.678,11.424,11.424,0,0,0,2.146,2.61,10.253,10.253,0,0,1,2.085,2.568A13.06,13.06,0,0,1-441.757,3917.893Zm-9.591-8.94a8.205,8.205,0,0,0-6.51,1.773,20.368,20.368,0,0,0-3.027,2.65,17.523,17.523,0,0,0-4.587,11.413c-.019.579.123.821.733.769.549-.047,1.106-.01,1.66-.011,4.247-.007,6.916-2.574,7.085-6.818a8.763,8.763,0,0,1,2.716-6.128c1.272-1.244,1.273-1.243,2.263.239a1.854,1.854,0,0,0,.134.2c.273.311.2.518-.128.766a6.331,6.331,0,0,0-2.6,5.247,8.046,8.046,0,0,1-.721,3.377.72.72,0,0,0,.219.955c1.539,1.517,3.075,3.037,4.576,4.592.423.438.667.4,1.065-.017a15.247,15.247,0,0,0,3.9-7.037c.949-3.959.477-7.641-2.3-10.827a2.618,2.618,0,0,0-2.5-1.156A13.305,13.305,0,0,1-451.348,3908.952Zm-39.017-33.226c-2.554,0-5.109.01-7.663-.009-.49,0-.688.1-.684.646.025,3.344-.017,6.689.023,10.033a5.861,5.861,0,0,0,5.925,5.924c1.553.028,3.108.022,4.661,0a5.88,5.88,0,0,0,6-6.017c.028-3.292-.012-6.583.023-9.875.007-.64-.232-.72-.778-.715C-485.361,3875.74-487.863,3875.726-490.365,3875.726Zm31.853,9.492c-1.212,0-2.429.064-3.634-.021-.846-.06-1.045.249-.965,1.01a4.469,4.469,0,0,1-.984,3.246,18.71,18.71,0,0,0-1.143,1.706,1.281,1.281,0,0,0,.43,1.917,2.876,2.876,0,0,1,1.7,3.232c-.069.639.176.838.789.775.47-.048.948-.007,1.422-.021a2.317,2.317,0,0,0,1.968-.846c.612-.957,1.2-.712,1.912-.248a2,2,0,0,0,.422.213c.475.167.421.426.181.774a5.444,5.444,0,0,1-4.438,2.495c-.473.022-.949.025-1.422,0-.548-.025-.585.183-.328.6a3.525,3.525,0,0,0,3.154,1.77c1.739.008,3.478.015,5.217-.01.475-.007.647.123.633.619-.034,1.185,0,2.372-.02,3.557-.009.439.122.607.578.59.816-.031,1.634-.031,2.45,0,.626.024.552-.167.31-.613a6.926,6.926,0,0,1,.286-7.549c1.52-2.346,1.533-3.982-.042-6.268a6.449,6.449,0,0,1-1.212-3.929c.015-.58,0-1.159-.008-1.739a3.561,3.561,0,0,0-.625-1.927c-.217-.328-.387-.413-.728-.117a3.509,3.509,0,0,1-2.424.789C-456.193,3885.21-457.352,3885.218-458.511,3885.218Zm-10.48,47.45q4.7,0,9.4,0a15.383,15.383,0,0,0,8.172-2.328c.412-.251.513-.416.115-.8q-2.127-2.063-4.189-4.191c-.367-.379-.554-.278-.875.032a8.918,8.918,0,0,1-6.513,2.557c-2.239-.019-4.484-.1-6.715.028a3.884,3.884,0,0,1-3.881-1.605,1.486,1.486,0,0,0-.35-.317,2.159,2.159,0,0,0-3.314.672,1.786,1.786,0,0,1-2.177,1.224,2.487,2.487,0,0,0-.709.021,2.257,2.257,0,0,0-1.8,1.26,2.353,2.353,0,0,0,2.24,3.44C-476.051,3932.683-472.521,3932.667-468.991,3932.668Zm-13.087-59.333c2.925,0,5.849,0,8.774-.009.242,0,.585.184.694-.282.291-1.246-.3-2.053-1.548-2.053q-7.9-.006-15.809,0a3.064,3.064,0,0,0-.706.048c-.709.171-1,.806-.895,1.87.078.807.691.4,1.033.406C-487.717,3873.35-484.9,3873.334-482.078,3873.335Zm7.092,34.071v2.372c0,1.359,0,1.355,1.249,1.723a4.477,4.477,0,0,1,.738.279c.335.167.42.031.414-.284a44.32,44.32,0,0,0-.119-4.976,10.863,10.863,0,0,0-9.049-9.111c-.454-.061-.6.054-.668.49-.155,1.068-.328,2.135-.543,3.192-.126.62.086.767.68.754,1.581-.035,3.163-.019,4.744-.008a2.348,2.348,0,0,1,2.552,2.564C-474.977,3905.4-474.986,3906.4-474.986,3907.406Zm-30.825.066c0-1-.006-2,0-3a2.349,2.349,0,0,1,2.561-2.63c1.607-.026,3.215-.033,4.822-.009.527.008.7-.139.6-.672-.2-1.06-.391-2.124-.53-3.194-.069-.533-.275-.614-.778-.535a10.86,10.86,0,0,0-8.837,8.4,33.626,33.626,0,0,0-.249,5.359c-.03.689.159.758.731.464a2.521,2.521,0,0,1,1.063-.271c.55-.013.639-.276.626-.75C-505.83,3909.58-505.811,3908.526-505.811,3907.472Zm28.469,9.776c0,.421.021.843,0,1.263-.146,2.545.718,2.334,2.5,2.272a2.276,2.276,0,0,0,2.229-2.232c.042-.866.041-1.738,0-2.6a2.306,2.306,0,0,0-2.227-2.24,11.008,11.008,0,0,0-1.263,0,1.17,1.17,0,0,0-1.226,1.257C-477.362,3915.72-477.343,3916.484-477.342,3917.248Zm-26.113.075q0-.672,0-1.343c0-2.159-.256-2.4-2.42-2.281a2.321,2.321,0,0,0-2.3,2.252c-.041.867-.042,1.739,0,2.605a2.311,2.311,0,0,0,2.234,2.234c.341.023.684.015,1.026.01,1.069-.017,1.453-.411,1.461-1.5C-503.45,3918.638-503.455,3917.98-503.455,3917.322Zm9.524-10.8v.711c0,1.78,0,1.768,1.778,1.69.4-.017.559-.12.552-.542q-.033-1.818,0-3.636c.008-.427-.162-.522-.557-.539-1.775-.075-1.775-.086-1.775,1.684Q-493.931,3906.21-493.931,3906.526Zm7.067.027q0-.316,0-.632c0-1.852,0-1.84-1.824-1.71-.376.027-.507.154-.5.518.011,1.212,0,2.424.009,3.635,0,.194-.063.486.24.5a4.932,4.932,0,0,0,1.872-.055c.419-.16.166-.851.2-1.306C-486.845,3907.187-486.865,3906.87-486.863,3906.553Zm-3.455-11.86c-.92,0-1.84.01-2.76-.006-.275,0-.452.056-.532.337s.131.362.316.456c.843.428,1.69.848,2.528,1.286a.724.724,0,0,0,.739,0c.838-.438,1.685-.858,2.528-1.286.186-.095.4-.166.316-.457s-.256-.342-.531-.337C-488.584,3894.7-489.451,3894.692-490.319,3894.693Zm-10.759-11.8c0-.632-.019-1.265.007-1.9.018-.427-.107-.566-.547-.468a2.393,2.393,0,0,0-1.826,2.3,2.387,2.387,0,0,0,1.8,2.315c.392.09.6.048.575-.429C-501.1,3884.107-501.077,3883.5-501.078,3882.894Zm21.358-.054c0,.631.014,1.263-.005,1.894-.012.409.154.487.527.416a2.39,2.39,0,0,0,1.842-2.275,2.4,2.4,0,0,0-1.851-2.351c-.384-.075-.532.018-.518.422C-479.7,3881.576-479.719,3882.208-479.72,3882.84Zm-8.476,15.654c.885.709,1.688,1.341,2.478,1.99.4.327.467.094.519-.259.115-.779.249-1.557.365-2.336.033-.223.21-.495-.021-.662a.781.781,0,0,0-.825.017C-486.477,3897.641-487.277,3898.038-488.2,3898.494Zm-4.41.005c-.917-.458-1.726-.9-2.562-1.271-.636-.286-.92-.07-.823.557.129.83.271,1.659.4,2.489.052.339.151.5.49.224C-494.308,3899.853-493.506,3899.22-492.6,3898.5Zm12.92-21.6c.211.347-.347.956.379,1.155.353.1.721.138,1.079.216.247.054.4-.007.469-.271a8.356,8.356,0,0,0,.283-1.866c0-.136-.017-.306-.169-.31a6.831,6.831,0,0,0-1.876.034C-479.85,3875.938-479.592,3876.518-479.685,3876.9Zm-8.194,24.911c-.859-.693-1.551-1.25-2.241-1.81-.154-.125-.3-.2-.488-.051-.714.579-1.431,1.154-2.31,1.861Zm-14.391-25.989c-.286.212-1.125-.422-1.011.488.083.663-.261,1.761.657,1.91,1.121.181,1.449-.24,1.45-1.109C-501.173,3875.817-501.173,3875.817-502.269,3875.817Z" transform="translate(0 0)" fill="#12263f"/>
      <path id="Trazado_239536" data-name="Trazado 239536" d="M-359.449,4253.747c-1.252-.014-1.143.156-1.136-.959.011-1.632-.218-1.426,1.14-1.438,1.258-.011,1.266,0,1.255,1.234C-358.2,4253.937-358.013,4253.726-359.449,4253.747Z" transform="translate(-126.264 -328.18)" fill="#12263f"/>
      <path id="Trazado_239537" data-name="Trazado 239537" d="M-389.36,4253.7c-1.188,0-1.2,0-1.184-1.468.012-1.155-.17-.914,1.562-.928,1-.008.824-.113.83,1.424C-388.147,4253.86-388.038,4253.691-389.36,4253.7Z" transform="translate(-101.051 -328.135)" fill="#12263f"/>
      <path id="Trazado_239538" data-name="Trazado 239538" d="M-402.736,4016.105c-.737,0-1.475.006-2.212,0-.193,0-.5.088-.523-.2a13.743,13.743,0,0,1,0-1.969c.025-.332.378-.206.59-.208,1.29-.012,2.58,0,3.871-.009a2.332,2.332,0,0,0,2.576-1.952c.091-.319.212-.439.529-.423a5.794,5.794,0,0,0,1.1,0c.81-.117.843.283.717.914a4.753,4.753,0,0,1-4.358,3.825c-.761.047-1.527.007-2.29.007Z" transform="translate(-88.457 -126.141)" fill="#12263f"/>
      <path id="Trazado_239539" data-name="Trazado 239539" d="M-359.329,3968.969a1.208,1.208,0,0,1-1.16-1.249,1.192,1.192,0,0,1,1.211-1.113,1.188,1.188,0,0,1,1.158,1.242A1.205,1.205,0,0,1-359.329,3968.969Z" transform="translate(-126.349 -88.505)" fill="#12263f"/>
      <path id="Trazado_239540" data-name="Trazado 239540" d="M-419.221,3966.6a1.186,1.186,0,0,1,1.146,1.177,1.2,1.2,0,0,1-1.221,1.185,1.206,1.206,0,0,1-1.143-1.262A1.184,1.184,0,0,1-419.221,3966.6Z" transform="translate(-75.887 -88.501)" fill="#12263f"/>
      <path id="Trazado_239541" data-name="Trazado 239541" d="M-194.291,4028.929a1.191,1.191,0,0,1-1.22-1.183,1.189,1.189,0,0,1,1.141-1.18,1.189,1.189,0,0,1,1.221,1.18A1.2,1.2,0,0,1-194.291,4028.929Z" transform="translate(-265.218 -138.974)" fill="#12263f"/>
    </g>
  </g>
</svg>
