<svg xmlns="http://www.w3.org/2000/svg" width="295" height="463.516" viewBox="0 0 295 463.516">
  <g id="Grupo_123149" data-name="Grupo 123149" transform="translate(-600 -8702)">
    <path id="Trazado_239942" data-name="Trazado 239942" d="M522.135,1900.217v367.747c0,8.477,7.857,15.351,17.553,15.351h84.993l26.69.049c.661.423,1.742,1.12,2.4,1.543l14.294,26.586a2.417,2.417,0,0,0,2.4,0l14.3-26.586c.658-.423,1.738-1.12,2.4-1.543l26.691-.049H798.85c9.7,0,17.553-6.874,17.553-15.351V1900.217Z" transform="translate(78.597 6853.703)" fill="#28acd3" opacity="0.25"/>
    <path id="Rect치ngulo_43080" data-name="Rect치ngulo 43080" d="M0,0H267a0,0,0,0,1,0,0V349a22,22,0,0,1-22,22H22A22,22,0,0,1,0,349V0A0,0,0,0,1,0,0Z" transform="translate(614 8754.054)" fill="#fff"/>
    <path id="Trazado_247609" data-name="Trazado 247609" d="M2.82,12.547V17H1.32V5.625h4.2a4.215,4.215,0,0,1,2.926.953A3.231,3.231,0,0,1,9.5,9.1a3.189,3.189,0,0,1-1.035,2.551,4.4,4.4,0,0,1-2.965.895Zm0-1.227h2.7a2.7,2.7,0,0,0,1.844-.567A2.075,2.075,0,0,0,8,9.113a2.143,2.143,0,0,0-.641-1.628A2.525,2.525,0,0,0,5.6,6.852H2.82ZM15.273,9.844a4.331,4.331,0,0,0-.711-.055A1.9,1.9,0,0,0,12.633,11v6H11.188V8.547h1.406l.023.977a2.251,2.251,0,0,1,2.016-1.133,1.477,1.477,0,0,1,.641.109Zm.789,2.852a4.993,4.993,0,0,1,.488-2.234A3.643,3.643,0,0,1,17.91,8.93,3.7,3.7,0,0,1,19.9,8.391a3.565,3.565,0,0,1,2.793,1.2,4.6,4.6,0,0,1,1.066,3.18v.1a5.036,5.036,0,0,1-.473,2.215,3.589,3.589,0,0,1-1.352,1.527,3.743,3.743,0,0,1-2.02.547,3.556,3.556,0,0,1-2.785-1.2A4.575,4.575,0,0,1,16.063,12.8Zm1.453.172a3.616,3.616,0,0,0,.652,2.258,2.211,2.211,0,0,0,3.5-.012,3.955,3.955,0,0,0,.648-2.418,3.61,3.61,0,0,0-.66-2.254A2.1,2.1,0,0,0,19.9,9.578a2.075,2.075,0,0,0-1.727.852A3.925,3.925,0,0,0,17.516,12.867Zm10.727,2.172,2.094-6.492h1.477L28.781,17h-1.1L24.617,8.547h1.477ZM32.7,12.7a4.993,4.993,0,0,1,.488-2.234A3.643,3.643,0,0,1,34.551,8.93a3.7,3.7,0,0,1,1.988-.539,3.565,3.565,0,0,1,2.793,1.2,4.6,4.6,0,0,1,1.066,3.18v.1a5.036,5.036,0,0,1-.473,2.215,3.589,3.589,0,0,1-1.352,1.527,3.743,3.743,0,0,1-2.02.547,3.556,3.556,0,0,1-2.785-1.2A4.575,4.575,0,0,1,32.7,12.8Zm1.453.172a3.616,3.616,0,0,0,.652,2.258,2.211,2.211,0,0,0,3.5-.012,3.955,3.955,0,0,0,.648-2.418,3.61,3.61,0,0,0-.66-2.254,2.1,2.1,0,0,0-1.754-.863,2.075,2.075,0,0,0-1.727.852A3.925,3.925,0,0,0,34.156,12.867ZM45.6,15.977a2.082,2.082,0,0,0,1.352-.469,1.649,1.649,0,0,0,.641-1.172h1.367a2.621,2.621,0,0,1-.5,1.383,3.293,3.293,0,0,1-1.23,1.047,3.55,3.55,0,0,1-1.629.391A3.482,3.482,0,0,1,42.855,16a4.59,4.59,0,0,1-1.02-3.152v-.242a5.089,5.089,0,0,1,.453-2.2,3.451,3.451,0,0,1,1.3-1.492,3.7,3.7,0,0,1,2-.531,3.39,3.39,0,0,1,2.363.852,3.043,3.043,0,0,1,1,2.211H47.594a1.992,1.992,0,0,0-.621-1.348,1.932,1.932,0,0,0-1.379-.527,2.023,2.023,0,0,0-1.707.793,3.724,3.724,0,0,0-.605,2.293v.273a3.65,3.65,0,0,0,.6,2.25A2.033,2.033,0,0,0,45.6,15.977ZM55.8,17a3.036,3.036,0,0,1-.2-.891A3.225,3.225,0,0,1,53.2,17.156a2.984,2.984,0,0,1-2.051-.707,2.287,2.287,0,0,1-.8-1.793,2.39,2.39,0,0,1,1-2.051,4.733,4.733,0,0,1,2.824-.73h1.406v-.664A1.623,1.623,0,0,0,55.125,10a1.821,1.821,0,0,0-1.336-.449,2.107,2.107,0,0,0-1.3.391,1.151,1.151,0,0,0-.523.945H50.516a2,2,0,0,1,.449-1.223,3.066,3.066,0,0,1,1.219-.934,4.1,4.1,0,0,1,1.691-.344,3.342,3.342,0,0,1,2.289.73,2.635,2.635,0,0,1,.859,2.012v3.891a4.757,4.757,0,0,0,.3,1.852V17Zm-2.4-1.1a2.54,2.54,0,0,0,1.289-.352,2.127,2.127,0,0,0,.883-.914V12.9H54.445q-2.656,0-2.656,1.555a1.316,1.316,0,0,0,.453,1.063A1.742,1.742,0,0,0,53.406,15.9Zm5.531-3.2a4.952,4.952,0,0,1,.922-3.129,3.137,3.137,0,0,1,4.766-.168V5H66.07V17H64.742l-.07-.906a2.943,2.943,0,0,1-2.414,1.063,2.887,2.887,0,0,1-2.395-1.2,5.008,5.008,0,0,1-.926-3.141Zm1.445.164a3.749,3.749,0,0,0,.594,2.25,1.92,1.92,0,0,0,1.641.813A2.108,2.108,0,0,0,64.625,14.7V10.813a2.125,2.125,0,0,0-1.992-1.2,1.929,1.929,0,0,0-1.656.82A4.128,4.128,0,0,0,60.383,12.867ZM73.531,17a3.036,3.036,0,0,1-.2-.891,3.225,3.225,0,0,1-2.406,1.047,2.984,2.984,0,0,1-2.051-.707,2.288,2.288,0,0,1-.8-1.793,2.39,2.39,0,0,1,1-2.051,4.733,4.733,0,0,1,2.824-.73H73.3v-.664A1.623,1.623,0,0,0,72.852,10a1.821,1.821,0,0,0-1.336-.449,2.108,2.108,0,0,0-1.3.391,1.151,1.151,0,0,0-.523.945H68.242a2,2,0,0,1,.449-1.223,3.066,3.066,0,0,1,1.219-.934A4.1,4.1,0,0,1,71.6,8.391a3.342,3.342,0,0,1,2.289.73,2.635,2.635,0,0,1,.859,2.012v3.891a4.757,4.757,0,0,0,.3,1.852V17Zm-2.4-1.1a2.54,2.54,0,0,0,1.289-.352,2.127,2.127,0,0,0,.883-.914V12.9H72.172q-2.656,0-2.656,1.555a1.316,1.316,0,0,0,.453,1.063A1.742,1.742,0,0,0,71.133,15.9Zm16.984-3.031a5.062,5.062,0,0,1-.883,3.109,2.829,2.829,0,0,1-2.391,1.18,3.1,3.1,0,0,1-2.422-.977v4.07H80.977V8.547H82.3l.07.938A2.977,2.977,0,0,1,84.82,8.391a2.882,2.882,0,0,1,2.41,1.148,5.117,5.117,0,0,1,.887,3.2ZM86.672,12.7a3.735,3.735,0,0,0-.609-2.258,1.963,1.963,0,0,0-1.672-.828,2.125,2.125,0,0,0-1.969,1.164V14.82a2.129,2.129,0,0,0,1.984,1.156,1.954,1.954,0,0,0,1.652-.824A4.077,4.077,0,0,0,86.672,12.7Zm2.9-.008a4.993,4.993,0,0,1,.488-2.234A3.643,3.643,0,0,1,91.418,8.93a3.7,3.7,0,0,1,1.988-.539,3.565,3.565,0,0,1,2.793,1.2,4.6,4.6,0,0,1,1.066,3.18v.1a5.036,5.036,0,0,1-.473,2.215,3.589,3.589,0,0,1-1.352,1.527,3.743,3.743,0,0,1-2.02.547,3.556,3.556,0,0,1-2.785-1.2A4.575,4.575,0,0,1,89.57,12.8Zm1.453.172a3.616,3.616,0,0,0,.652,2.258,2.211,2.211,0,0,0,3.5-.012A3.955,3.955,0,0,0,95.82,12.7a3.61,3.61,0,0,0-.66-2.254,2.1,2.1,0,0,0-1.754-.863,2.075,2.075,0,0,0-1.727.852A3.925,3.925,0,0,0,91.023,12.867Zm12.141-3.023a4.331,4.331,0,0,0-.711-.055A1.9,1.9,0,0,0,100.523,11v6H99.078V8.547h1.406l.023.977a2.251,2.251,0,0,1,2.016-1.133,1.477,1.477,0,0,1,.641.109ZM108.07,12.7a4.993,4.993,0,0,1,.488-2.234,3.643,3.643,0,0,1,1.359-1.531,3.7,3.7,0,0,1,1.988-.539,3.565,3.565,0,0,1,2.793,1.2,4.6,4.6,0,0,1,1.066,3.18v.1a5.036,5.036,0,0,1-.473,2.215,3.589,3.589,0,0,1-1.352,1.527,3.743,3.743,0,0,1-2.02.547,3.556,3.556,0,0,1-2.785-1.2A4.575,4.575,0,0,1,108.07,12.8Zm1.453.172a3.616,3.616,0,0,0,.652,2.258,2.211,2.211,0,0,0,3.5-.012,3.955,3.955,0,0,0,.648-2.418,3.61,3.61,0,0,0-.66-2.254,2.1,2.1,0,0,0-1.754-.863,2.075,2.075,0,0,0-1.727.852A3.925,3.925,0,0,0,109.523,12.867Zm12.141-3.023a4.331,4.331,0,0,0-.711-.055A1.9,1.9,0,0,0,119.023,11v6h-1.445V8.547h1.406l.023.977a2.251,2.251,0,0,1,2.016-1.133,1.477,1.477,0,0,1,.641.109Zm.984,2.859a4.968,4.968,0,0,1,.914-3.145,3.151,3.151,0,0,1,4.836-.074l.07-.937h1.32V16.8a3.439,3.439,0,0,1-.973,2.586,3.589,3.589,0,0,1-2.613.945,4.348,4.348,0,0,1-1.789-.391,3.08,3.08,0,0,1-1.336-1.07l.75-.867a2.826,2.826,0,0,0,2.273,1.148,2.214,2.214,0,0,0,1.645-.594,2.269,2.269,0,0,0,.59-1.672v-.727a2.971,2.971,0,0,1-2.367,1,2.887,2.887,0,0,1-2.4-1.2A5.224,5.224,0,0,1,122.648,12.7Zm1.453.164a3.79,3.79,0,0,0,.586,2.246,1.9,1.9,0,0,0,1.641.816,2.117,2.117,0,0,0,2.008-1.242V10.828a2.142,2.142,0,0,0-1.992-1.211,1.921,1.921,0,0,0-1.648.82A4.128,4.128,0,0,0,124.1,12.867ZM137.188,17a3.036,3.036,0,0,1-.2-.891,3.225,3.225,0,0,1-2.406,1.047,2.984,2.984,0,0,1-2.051-.707,2.287,2.287,0,0,1-.8-1.793,2.39,2.39,0,0,1,1-2.051,4.733,4.733,0,0,1,2.824-.73h1.406v-.664A1.623,1.623,0,0,0,136.508,10a1.821,1.821,0,0,0-1.336-.449,2.107,2.107,0,0,0-1.3.391,1.151,1.151,0,0,0-.523.945H131.9a2,2,0,0,1,.449-1.223,3.066,3.066,0,0,1,1.219-.934,4.1,4.1,0,0,1,1.691-.344,3.342,3.342,0,0,1,2.289.73,2.635,2.635,0,0,1,.859,2.012v3.891a4.757,4.757,0,0,0,.3,1.852V17Zm-2.4-1.1a2.54,2.54,0,0,0,1.289-.352,2.127,2.127,0,0,0,.883-.914V12.9h-1.133q-2.656,0-2.656,1.555a1.316,1.316,0,0,0,.453,1.063A1.742,1.742,0,0,0,134.789,15.9Zm7.25-7.352.047,1.063a3.08,3.08,0,0,1,2.531-1.219q2.68,0,2.7,3.023V17h-1.445V11.406a1.946,1.946,0,0,0-.418-1.352,1.675,1.675,0,0,0-1.277-.437,2.086,2.086,0,0,0-1.234.375,2.546,2.546,0,0,0-.828.984V17h-1.445V8.547ZM151.07,17h-1.445V8.547h1.445ZM149.508,6.3a.863.863,0,0,1,.215-.594.807.807,0,0,1,.637-.242.819.819,0,0,1,.641.242.854.854,0,0,1,.219.594.826.826,0,0,1-.219.586.834.834,0,0,1-.641.234.821.821,0,0,1-.637-.234A.834.834,0,0,1,149.508,6.3Zm8.8,8.453a1.064,1.064,0,0,0-.441-.91,4.249,4.249,0,0,0-1.539-.559,7.277,7.277,0,0,1-1.742-.562,2.479,2.479,0,0,1-.953-.781,1.869,1.869,0,0,1-.309-1.078,2.193,2.193,0,0,1,.879-1.758,3.432,3.432,0,0,1,2.246-.719,3.532,3.532,0,0,1,2.332.742,2.357,2.357,0,0,1,.895,1.9h-1.453a1.3,1.3,0,0,0-.5-1.023,1.888,1.888,0,0,0-1.27-.43,1.976,1.976,0,0,0-1.234.344,1.082,1.082,0,0,0-.445.9.877.877,0,0,0,.414.789,5.1,5.1,0,0,0,1.5.508,7.8,7.8,0,0,1,1.754.578,2.558,2.558,0,0,1,1,.809,1.988,1.988,0,0,1,.324,1.152,2.163,2.163,0,0,1-.906,1.816,3.8,3.8,0,0,1-2.352.684,4.257,4.257,0,0,1-1.8-.359,2.922,2.922,0,0,1-1.223-1,2.42,2.42,0,0,1-.441-1.395h1.445a1.5,1.5,0,0,0,.582,1.152,2.258,2.258,0,0,0,1.434.426,2.331,2.331,0,0,0,1.316-.332A1.02,1.02,0,0,0,158.3,14.758Zm4.688-6.211.039.938a3.122,3.122,0,0,1,2.508-1.094,2.417,2.417,0,0,1,2.414,1.359,3.2,3.2,0,0,1,1.1-.984,3.242,3.242,0,0,1,1.6-.375q2.781,0,2.828,2.945V17h-1.445V11.422a1.941,1.941,0,0,0-.414-1.355,1.823,1.823,0,0,0-1.391-.449,1.917,1.917,0,0,0-1.336.48,1.949,1.949,0,0,0-.617,1.293V17H166.82V11.461a1.613,1.613,0,0,0-1.8-1.844,1.934,1.934,0,0,0-1.945,1.211V17h-1.445V8.547ZM175.273,12.7a4.993,4.993,0,0,1,.488-2.234,3.642,3.642,0,0,1,1.359-1.531,3.7,3.7,0,0,1,1.988-.539,3.565,3.565,0,0,1,2.793,1.2,4.6,4.6,0,0,1,1.066,3.18v.1a5.036,5.036,0,0,1-.473,2.215,3.589,3.589,0,0,1-1.352,1.527,3.743,3.743,0,0,1-2.02.547,3.556,3.556,0,0,1-2.785-1.2,4.575,4.575,0,0,1-1.066-3.164Zm1.453.172a3.616,3.616,0,0,0,.652,2.258,2.211,2.211,0,0,0,3.5-.012,3.954,3.954,0,0,0,.648-2.418,3.61,3.61,0,0,0-.66-2.254,2.1,2.1,0,0,0-1.754-.863,2.075,2.075,0,0,0-1.727.852A3.925,3.925,0,0,0,176.727,12.867ZM189.7,14.758a1.064,1.064,0,0,0-.441-.91,4.249,4.249,0,0,0-1.539-.559,7.277,7.277,0,0,1-1.742-.562,2.479,2.479,0,0,1-.953-.781,1.869,1.869,0,0,1-.309-1.078,2.193,2.193,0,0,1,.879-1.758,3.432,3.432,0,0,1,2.246-.719,3.532,3.532,0,0,1,2.332.742,2.357,2.357,0,0,1,.895,1.9h-1.453a1.3,1.3,0,0,0-.5-1.023,1.888,1.888,0,0,0-1.27-.43,1.976,1.976,0,0,0-1.234.344,1.082,1.082,0,0,0-.445.9.877.877,0,0,0,.414.789,5.1,5.1,0,0,0,1.5.508,7.8,7.8,0,0,1,1.754.578,2.558,2.558,0,0,1,1,.809,1.988,1.988,0,0,1,.324,1.152,2.163,2.163,0,0,1-.906,1.816,3.8,3.8,0,0,1-2.352.684,4.257,4.257,0,0,1-1.8-.359,2.922,2.922,0,0,1-1.223-1,2.42,2.42,0,0,1-.441-1.395h1.445a1.5,1.5,0,0,0,.582,1.152,2.258,2.258,0,0,0,1.434.426,2.331,2.331,0,0,0,1.316-.332A1.02,1.02,0,0,0,189.7,14.758ZM3.883,39.039l2.094-6.492H7.453L4.422,41H3.32L.258,32.547H1.734ZM10.414,41H8.969V32.547h1.445ZM8.852,30.3a.863.863,0,0,1,.215-.594.807.807,0,0,1,.637-.242.819.819,0,0,1,.641.242.854.854,0,0,1,.219.594.826.826,0,0,1-.219.586.834.834,0,0,1-.641.234.821.821,0,0,1-.637-.234A.834.834,0,0,1,8.852,30.3Zm6.664,8.734,2.094-6.492h1.477L16.055,41h-1.1l-3.062-8.453h1.477ZM19.977,36.7a4.993,4.993,0,0,1,.488-2.234,3.643,3.643,0,0,1,1.359-1.531,3.7,3.7,0,0,1,1.988-.539,3.565,3.565,0,0,1,2.793,1.2,4.6,4.6,0,0,1,1.066,3.18v.1a5.036,5.036,0,0,1-.473,2.215,3.589,3.589,0,0,1-1.352,1.527,3.743,3.743,0,0,1-2.02.547,3.556,3.556,0,0,1-2.785-1.2A4.575,4.575,0,0,1,19.977,36.8Zm1.453.172a3.616,3.616,0,0,0,.652,2.258,2.211,2.211,0,0,0,3.5-.012,3.955,3.955,0,0,0,.648-2.418,3.61,3.61,0,0,0-.66-2.254,2.1,2.1,0,0,0-1.754-.863,2.075,2.075,0,0,0-1.727.852A3.925,3.925,0,0,0,21.43,36.867Zm12.977,1.891a1.064,1.064,0,0,0-.441-.91,4.249,4.249,0,0,0-1.539-.559,7.277,7.277,0,0,1-1.742-.562,2.479,2.479,0,0,1-.953-.781,1.869,1.869,0,0,1-.309-1.078,2.193,2.193,0,0,1,.879-1.758,3.432,3.432,0,0,1,2.246-.719,3.532,3.532,0,0,1,2.332.742,2.357,2.357,0,0,1,.895,1.9H34.32a1.3,1.3,0,0,0-.5-1.023,1.888,1.888,0,0,0-1.27-.43,1.976,1.976,0,0,0-1.234.344,1.082,1.082,0,0,0-.445.9.877.877,0,0,0,.414.789,5.1,5.1,0,0,0,1.5.508,7.8,7.8,0,0,1,1.754.578,2.558,2.558,0,0,1,1,.809,1.988,1.988,0,0,1,.324,1.152,2.163,2.163,0,0,1-.906,1.816,3.8,3.8,0,0,1-2.352.684,4.257,4.257,0,0,1-1.8-.359,2.922,2.922,0,0,1-1.223-1,2.42,2.42,0,0,1-.441-1.395h1.445a1.5,1.5,0,0,0,.582,1.152,2.258,2.258,0,0,0,1.434.426,2.331,2.331,0,0,0,1.316-.332A1.02,1.02,0,0,0,34.406,38.758ZM41.344,36.7a4.961,4.961,0,0,1,.914-3.152,3.226,3.226,0,0,1,4.82-.152l.063-.852h1.328v11.7H47.023V40.219a3.033,3.033,0,0,1-2.328.938,2.915,2.915,0,0,1-2.441-1.191,5.072,5.072,0,0,1-.91-3.16Zm1.445.164a3.761,3.761,0,0,0,.613,2.281,1.951,1.951,0,0,0,1.652.828,2.164,2.164,0,0,0,1.969-1.141V34.7a2.171,2.171,0,0,0-1.953-1.117,1.965,1.965,0,0,0-1.664.832A4.094,4.094,0,0,0,42.789,36.867Zm13.219,3.3a3.07,3.07,0,0,1-2.477.992,2.628,2.628,0,0,1-2.059-.785,3.4,3.4,0,0,1-.715-2.324v-5.5H52.2v5.461q0,1.922,1.563,1.922a2.163,2.163,0,0,0,2.2-1.234V32.547h1.445V41H56.039Zm7.109.992a3.693,3.693,0,0,1-2.8-1.129,4.19,4.19,0,0,1-1.078-3.02v-.266a5.073,5.073,0,0,1,.48-2.246,3.748,3.748,0,0,1,1.344-1.547,3.378,3.378,0,0,1,1.871-.559A3.166,3.166,0,0,1,65.5,33.477a4.7,4.7,0,0,1,.914,3.109v.6H60.688a3,3,0,0,0,.73,2.02,2.3,2.3,0,0,0,1.777.77,2.517,2.517,0,0,0,1.3-.312,3.259,3.259,0,0,0,.93-.828l.883.688A3.55,3.55,0,0,1,63.117,41.156Zm-.18-7.578a1.928,1.928,0,0,0-1.469.637A3.1,3.1,0,0,0,60.734,36h4.234v-.109a2.753,2.753,0,0,0-.594-1.707A1.815,1.815,0,0,0,62.938,33.578Zm12.5,6.4a2.082,2.082,0,0,0,1.352-.469,1.649,1.649,0,0,0,.641-1.172H78.8a2.621,2.621,0,0,1-.5,1.383,3.293,3.293,0,0,1-1.23,1.047,3.55,3.55,0,0,1-1.629.391A3.482,3.482,0,0,1,72.691,40a4.59,4.59,0,0,1-1.02-3.152v-.242a5.089,5.089,0,0,1,.453-2.2,3.451,3.451,0,0,1,1.3-1.492,3.7,3.7,0,0,1,2-.531,3.39,3.39,0,0,1,2.363.852,3.043,3.043,0,0,1,1,2.211H77.43a1.992,1.992,0,0,0-.621-1.348,1.932,1.932,0,0,0-1.379-.527,2.023,2.023,0,0,0-1.707.793,3.724,3.724,0,0,0-.605,2.293v.273a3.65,3.65,0,0,0,.6,2.25A2.033,2.033,0,0,0,75.438,39.977ZM85.641,41a3.036,3.036,0,0,1-.2-.891,3.225,3.225,0,0,1-2.406,1.047,2.984,2.984,0,0,1-2.051-.707,2.288,2.288,0,0,1-.8-1.793,2.39,2.39,0,0,1,1-2.051,4.733,4.733,0,0,1,2.824-.73h1.406v-.664A1.623,1.623,0,0,0,84.961,34a1.821,1.821,0,0,0-1.336-.449,2.107,2.107,0,0,0-1.3.391,1.151,1.151,0,0,0-.523.945H80.352a2,2,0,0,1,.449-1.223,3.066,3.066,0,0,1,1.219-.934,4.1,4.1,0,0,1,1.691-.344,3.342,3.342,0,0,1,2.289.73,2.635,2.635,0,0,1,.859,2.012v3.891a4.757,4.757,0,0,0,.3,1.852V41Zm-2.4-1.1a2.54,2.54,0,0,0,1.289-.352,2.127,2.127,0,0,0,.883-.914V36.9H84.281q-2.656,0-2.656,1.555a1.316,1.316,0,0,0,.453,1.063A1.742,1.742,0,0,0,83.242,39.9Zm11.1.266a3.07,3.07,0,0,1-2.477.992,2.628,2.628,0,0,1-2.059-.785,3.4,3.4,0,0,1-.715-2.324v-5.5h1.445v5.461q0,1.922,1.563,1.922A2.163,2.163,0,0,0,94.3,38.7V32.547H95.75V41H94.375Zm8.523-1.406a1.064,1.064,0,0,0-.441-.91,4.249,4.249,0,0,0-1.539-.559,7.277,7.277,0,0,1-1.742-.562,2.479,2.479,0,0,1-.953-.781,1.869,1.869,0,0,1-.309-1.078,2.193,2.193,0,0,1,.879-1.758,3.432,3.432,0,0,1,2.246-.719,3.532,3.532,0,0,1,2.332.742,2.357,2.357,0,0,1,.895,1.9h-1.453a1.3,1.3,0,0,0-.5-1.023,1.888,1.888,0,0,0-1.27-.43,1.976,1.976,0,0,0-1.234.344,1.082,1.082,0,0,0-.445.9.877.877,0,0,0,.414.789,5.1,5.1,0,0,0,1.5.508,7.8,7.8,0,0,1,1.754.578,2.558,2.558,0,0,1,1,.809,1.988,1.988,0,0,1,.324,1.152,2.163,2.163,0,0,1-.906,1.816,3.8,3.8,0,0,1-2.352.684,4.257,4.257,0,0,1-1.8-.359,2.922,2.922,0,0,1-1.223-1,2.42,2.42,0,0,1-.441-1.395h1.445a1.5,1.5,0,0,0,.582,1.152,2.258,2.258,0,0,0,1.434.426,2.331,2.331,0,0,0,1.316-.332A1.02,1.02,0,0,0,102.867,38.758ZM111.414,41a3.036,3.036,0,0,1-.2-.891,3.225,3.225,0,0,1-2.406,1.047,2.984,2.984,0,0,1-2.051-.707,2.288,2.288,0,0,1-.8-1.793,2.39,2.39,0,0,1,1-2.051,4.733,4.733,0,0,1,2.824-.73h1.406v-.664A1.623,1.623,0,0,0,110.734,34a1.821,1.821,0,0,0-1.336-.449,2.107,2.107,0,0,0-1.3.391,1.151,1.151,0,0,0-.523.945h-1.453a2,2,0,0,1,.449-1.223,3.066,3.066,0,0,1,1.219-.934,4.1,4.1,0,0,1,1.691-.344,3.342,3.342,0,0,1,2.289.73,2.635,2.635,0,0,1,.859,2.012v3.891a4.757,4.757,0,0,0,.3,1.852V41Zm-2.4-1.1a2.54,2.54,0,0,0,1.289-.352,2.127,2.127,0,0,0,.883-.914V36.9h-1.133q-2.656,0-2.656,1.555a1.316,1.316,0,0,0,.453,1.063A1.742,1.742,0,0,0,109.016,39.9Zm7.25-7.352.047,1.063a3.08,3.08,0,0,1,2.531-1.219q2.68,0,2.7,3.023V41H120.1V35.406a1.946,1.946,0,0,0-.418-1.352,1.675,1.675,0,0,0-1.277-.437,2.086,2.086,0,0,0-1.234.375,2.546,2.546,0,0,0-.828.984V41H114.9V32.547ZM129.258,41h-1.445V29h1.445Zm7.531,0a3.036,3.036,0,0,1-.2-.891,3.225,3.225,0,0,1-2.406,1.047,2.984,2.984,0,0,1-2.051-.707,2.287,2.287,0,0,1-.8-1.793,2.39,2.39,0,0,1,1-2.051,4.733,4.733,0,0,1,2.824-.73h1.406v-.664A1.623,1.623,0,0,0,136.109,34a1.821,1.821,0,0,0-1.336-.449,2.107,2.107,0,0,0-1.3.391,1.151,1.151,0,0,0-.523.945H131.5a2,2,0,0,1,.449-1.223,3.066,3.066,0,0,1,1.219-.934,4.1,4.1,0,0,1,1.691-.344,3.342,3.342,0,0,1,2.289.73,2.635,2.635,0,0,1,.859,2.012v3.891a4.757,4.757,0,0,0,.3,1.852V41Zm-2.4-1.1a2.54,2.54,0,0,0,1.289-.352,2.127,2.127,0,0,0,.883-.914V36.9H135.43q-2.656,0-2.656,1.555a1.316,1.316,0,0,0,.453,1.063A1.742,1.742,0,0,0,134.391,39.9ZM4.484,63.977a2.082,2.082,0,0,0,1.352-.469,1.649,1.649,0,0,0,.641-1.172H7.844a2.621,2.621,0,0,1-.5,1.383,3.293,3.293,0,0,1-1.23,1.047,3.55,3.55,0,0,1-1.629.391A3.482,3.482,0,0,1,1.738,64a4.59,4.59,0,0,1-1.02-3.152v-.242a5.089,5.089,0,0,1,.453-2.2,3.451,3.451,0,0,1,1.3-1.492,3.7,3.7,0,0,1,2-.531,3.39,3.39,0,0,1,2.363.852,3.043,3.043,0,0,1,1,2.211H6.477a1.992,1.992,0,0,0-.621-1.348,1.932,1.932,0,0,0-1.379-.527,2.023,2.023,0,0,0-1.707.793,3.724,3.724,0,0,0-.605,2.293v.273a3.65,3.65,0,0,0,.6,2.25A2.033,2.033,0,0,0,4.484,63.977Zm4.6-3.281a4.993,4.993,0,0,1,.488-2.234,3.643,3.643,0,0,1,1.359-1.531,3.7,3.7,0,0,1,1.988-.539,3.565,3.565,0,0,1,2.793,1.2,4.6,4.6,0,0,1,1.066,3.18v.1a5.036,5.036,0,0,1-.473,2.215,3.589,3.589,0,0,1-1.352,1.527,3.743,3.743,0,0,1-2.02.547,3.556,3.556,0,0,1-2.785-1.2A4.575,4.575,0,0,1,9.086,60.8Zm1.453.172a3.616,3.616,0,0,0,.652,2.258,2.211,2.211,0,0,0,3.5-.012,3.955,3.955,0,0,0,.648-2.418,3.61,3.61,0,0,0-.66-2.254,2.1,2.1,0,0,0-1.754-.863,2.075,2.075,0,0,0-1.727.852A3.925,3.925,0,0,0,10.539,60.867Zm9.422-4.32.047,1.063a3.08,3.08,0,0,1,2.531-1.219q2.68,0,2.7,3.023V65H23.8V59.406a1.946,1.946,0,0,0-.418-1.352,1.675,1.675,0,0,0-1.277-.437,2.086,2.086,0,0,0-1.234.375,2.546,2.546,0,0,0-.828.984V65H18.594V56.547ZM29.383,54.5v2.047h1.578v1.117H29.383v5.249a1.173,1.173,0,0,0,.211.763.888.888,0,0,0,.719.254A3.5,3.5,0,0,0,31,63.836V65a4.215,4.215,0,0,1-1.109.155,1.8,1.8,0,0,1-1.461-.586,2.517,2.517,0,0,1-.492-1.664V57.664H26.4V56.547h1.539V54.5ZM37.867,65a3.036,3.036,0,0,1-.2-.891,3.225,3.225,0,0,1-2.406,1.047,2.984,2.984,0,0,1-2.051-.707,2.287,2.287,0,0,1-.8-1.793,2.39,2.39,0,0,1,1-2.051,4.733,4.733,0,0,1,2.824-.73h1.406v-.664A1.623,1.623,0,0,0,37.188,58a1.821,1.821,0,0,0-1.336-.449,2.107,2.107,0,0,0-1.3.391,1.151,1.151,0,0,0-.523.945H32.578a2,2,0,0,1,.449-1.223,3.066,3.066,0,0,1,1.219-.934,4.1,4.1,0,0,1,1.691-.344,3.342,3.342,0,0,1,2.289.73,2.635,2.635,0,0,1,.859,2.012v3.891a4.757,4.757,0,0,0,.3,1.852V65Zm-2.4-1.1a2.54,2.54,0,0,0,1.289-.352,2.127,2.127,0,0,0,.883-.914V60.9H36.508q-2.656,0-2.656,1.555a1.316,1.316,0,0,0,.453,1.063A1.742,1.742,0,0,0,35.469,63.9Zm7.242-7.352.039.938a3.122,3.122,0,0,1,2.508-1.094,2.417,2.417,0,0,1,2.414,1.359,3.2,3.2,0,0,1,1.1-.984,3.242,3.242,0,0,1,1.6-.375q2.781,0,2.828,2.945V65H51.75V59.422a1.941,1.941,0,0,0-.414-1.355,1.823,1.823,0,0,0-1.391-.449,1.916,1.916,0,0,0-1.336.48,1.949,1.949,0,0,0-.617,1.293V65H46.539V59.461a1.613,1.613,0,0,0-1.8-1.844,1.934,1.934,0,0,0-1.945,1.211V65H41.344V56.547ZM56.945,65H55.5V56.547h1.445ZM55.383,54.3a.863.863,0,0,1,.215-.594.807.807,0,0,1,.637-.242.819.819,0,0,1,.641.242.854.854,0,0,1,.219.594.826.826,0,0,1-.219.586.834.834,0,0,1-.641.234.821.821,0,0,1-.637-.234A.834.834,0,0,1,55.383,54.3Zm5.242,2.242.047,1.063A3.08,3.08,0,0,1,63.2,56.391q2.68,0,2.7,3.023V65H64.461V59.406a1.946,1.946,0,0,0-.418-1.352,1.675,1.675,0,0,0-1.277-.437,2.086,2.086,0,0,0-1.234.375,2.546,2.546,0,0,0-.828.984V65H59.258V56.547ZM73.3,65a3.036,3.036,0,0,1-.2-.891A3.225,3.225,0,0,1,70.7,65.156a2.984,2.984,0,0,1-2.051-.707,2.288,2.288,0,0,1-.8-1.793,2.39,2.39,0,0,1,1-2.051,4.733,4.733,0,0,1,2.824-.73h1.406v-.664A1.623,1.623,0,0,0,72.625,58a1.821,1.821,0,0,0-1.336-.449,2.107,2.107,0,0,0-1.3.391,1.151,1.151,0,0,0-.523.945H68.016a2,2,0,0,1,.449-1.223,3.066,3.066,0,0,1,1.219-.934,4.1,4.1,0,0,1,1.691-.344,3.342,3.342,0,0,1,2.289.73,2.635,2.635,0,0,1,.859,2.012v3.891a4.757,4.757,0,0,0,.3,1.852V65Zm-2.4-1.1a2.54,2.54,0,0,0,1.289-.352,2.127,2.127,0,0,0,.883-.914V60.9H71.945q-2.656,0-2.656,1.555a1.316,1.316,0,0,0,.453,1.063A1.742,1.742,0,0,0,70.906,63.9Zm9.273.078a2.082,2.082,0,0,0,1.352-.469,1.649,1.649,0,0,0,.641-1.172h1.367a2.621,2.621,0,0,1-.5,1.383,3.293,3.293,0,0,1-1.23,1.047,3.55,3.55,0,0,1-1.629.391A3.482,3.482,0,0,1,77.434,64a4.59,4.59,0,0,1-1.02-3.152v-.242a5.089,5.089,0,0,1,.453-2.2,3.451,3.451,0,0,1,1.3-1.492,3.7,3.7,0,0,1,2-.531,3.39,3.39,0,0,1,2.363.852,3.043,3.043,0,0,1,1,2.211H82.172a1.992,1.992,0,0,0-.621-1.348,1.932,1.932,0,0,0-1.379-.527,2.023,2.023,0,0,0-1.707.793,3.724,3.724,0,0,0-.605,2.293v.273a3.65,3.65,0,0,0,.6,2.25A2.033,2.033,0,0,0,80.18,63.977ZM86.734,65H85.289V56.547h1.445ZM85.172,54.3a.863.863,0,0,1,.215-.594.807.807,0,0,1,.637-.242.819.819,0,0,1,.641.242.854.854,0,0,1,.219.594.826.826,0,0,1-.219.586.834.834,0,0,1-.641.234.821.821,0,0,1-.637-.234A.834.834,0,0,1,85.172,54.3ZM88.664,60.7a4.993,4.993,0,0,1,.488-2.234,3.643,3.643,0,0,1,1.359-1.531,3.7,3.7,0,0,1,1.988-.539,3.565,3.565,0,0,1,2.793,1.2,4.6,4.6,0,0,1,1.066,3.18v.1a5.036,5.036,0,0,1-.473,2.215,3.589,3.589,0,0,1-1.352,1.527,3.743,3.743,0,0,1-2.02.547,3.556,3.556,0,0,1-2.785-1.2A4.575,4.575,0,0,1,88.664,60.8Zm1.453.172a3.616,3.616,0,0,0,.652,2.258,2.211,2.211,0,0,0,3.5-.012,3.955,3.955,0,0,0,.648-2.418,3.61,3.61,0,0,0-.66-2.254,2.1,2.1,0,0,0-1.754-.863,2.075,2.075,0,0,0-1.727.852A3.925,3.925,0,0,0,90.117,60.867ZM93.156,53h1.75l-2.094,2.3-1.164,0Zm6.383,3.547.047,1.063a3.08,3.08,0,0,1,2.531-1.219q2.68,0,2.7,3.023V65h-1.445V59.406a1.946,1.946,0,0,0-.418-1.352,1.675,1.675,0,0,0-1.277-.437,2.086,2.086,0,0,0-1.234.375,2.546,2.546,0,0,0-.828.984V65H98.172V56.547Zm18.563,4.32a5.062,5.062,0,0,1-.883,3.109,2.829,2.829,0,0,1-2.391,1.18,3.1,3.1,0,0,1-2.422-.977v4.07h-1.445v-11.7h1.32l.07.938a2.977,2.977,0,0,1,2.453-1.094,2.882,2.882,0,0,1,2.41,1.148,5.117,5.117,0,0,1,.887,3.2Zm-1.445-.164a3.735,3.735,0,0,0-.609-2.258,1.963,1.963,0,0,0-1.672-.828,2.125,2.125,0,0,0-1.969,1.164V62.82a2.129,2.129,0,0,0,1.984,1.156,1.954,1.954,0,0,0,1.652-.824A4.077,4.077,0,0,0,116.656,60.7Zm2.9-.008a4.993,4.993,0,0,1,.488-2.234A3.643,3.643,0,0,1,121.4,56.93a3.7,3.7,0,0,1,1.988-.539,3.565,3.565,0,0,1,2.793,1.2,4.6,4.6,0,0,1,1.066,3.18v.1a5.036,5.036,0,0,1-.473,2.215,3.589,3.589,0,0,1-1.352,1.527,3.743,3.743,0,0,1-2.02.547,3.556,3.556,0,0,1-2.785-1.2,4.575,4.575,0,0,1-1.066-3.164Zm1.453.172a3.616,3.616,0,0,0,.652,2.258,2.211,2.211,0,0,0,3.5-.012A3.955,3.955,0,0,0,125.8,60.7a3.61,3.61,0,0,0-.66-2.254,2.1,2.1,0,0,0-1.754-.863,2.075,2.075,0,0,0-1.727.852A3.925,3.925,0,0,0,121.008,60.867Zm12.141-3.023a4.331,4.331,0,0,0-.711-.055A1.9,1.9,0,0,0,130.508,59v6h-1.445V56.547h1.406l.023.977a2.251,2.251,0,0,1,2.016-1.133,1.477,1.477,0,0,1,.641.109Zm8.8,7.313a3.693,3.693,0,0,1-2.8-1.129,4.19,4.19,0,0,1-1.078-3.02v-.266a5.073,5.073,0,0,1,.48-2.246,3.748,3.748,0,0,1,1.344-1.547,3.378,3.378,0,0,1,1.871-.559,3.166,3.166,0,0,1,2.563,1.086,4.7,4.7,0,0,1,.914,3.109v.6h-5.727a3,3,0,0,0,.73,2.02,2.3,2.3,0,0,0,1.777.77,2.517,2.517,0,0,0,1.3-.312,3.258,3.258,0,0,0,.93-.828l.883.688A3.55,3.55,0,0,1,141.945,65.156Zm-.18-7.578a1.928,1.928,0,0,0-1.469.637A3.1,3.1,0,0,0,139.563,60H143.8v-.109a2.753,2.753,0,0,0-.594-1.707A1.815,1.815,0,0,0,141.766,57.578Zm6.641-1.031v9.43q0,2.438-2.211,2.438a2.7,2.7,0,0,1-.883-.14V67.125a2.794,2.794,0,0,0,.656.063.982.982,0,0,0,.738-.262,1.3,1.3,0,0,0,.254-.911V56.547ZM146.813,54.3a.867.867,0,0,1,.215-.59.79.79,0,0,1,.629-.246.819.819,0,0,1,.641.242.854.854,0,0,1,.219.594.826.826,0,0,1-.219.586.834.834,0,0,1-.641.234.808.808,0,0,1-.633-.234A.843.843,0,0,1,146.813,54.3Zm7.43,10.852a3.693,3.693,0,0,1-2.8-1.129,4.19,4.19,0,0,1-1.078-3.02v-.266a5.073,5.073,0,0,1,.48-2.246,3.748,3.748,0,0,1,1.344-1.547,3.378,3.378,0,0,1,1.871-.559,3.166,3.166,0,0,1,2.563,1.086,4.7,4.7,0,0,1,.914,3.109v.6h-5.727a3,3,0,0,0,.73,2.02,2.3,2.3,0,0,0,1.777.77,2.517,2.517,0,0,0,1.3-.312,3.258,3.258,0,0,0,.93-.828l.883.688A3.55,3.55,0,0,1,154.242,65.156Zm-.18-7.578a1.928,1.928,0,0,0-1.469.637A3.1,3.1,0,0,0,151.859,60h4.234v-.109a2.753,2.753,0,0,0-.594-1.707A1.815,1.815,0,0,0,154.063,57.578Zm6.508-1.031.039.938a3.122,3.122,0,0,1,2.508-1.094,2.417,2.417,0,0,1,2.414,1.359,3.2,3.2,0,0,1,1.1-.984,3.242,3.242,0,0,1,1.6-.375q2.781,0,2.828,2.945V65h-1.445V59.422a1.941,1.941,0,0,0-.414-1.355,1.823,1.823,0,0,0-1.391-.449,1.917,1.917,0,0,0-1.336.48,1.949,1.949,0,0,0-.617,1.293V65H164.4V59.461a1.613,1.613,0,0,0-1.8-1.844,1.934,1.934,0,0,0-1.945,1.211V65H159.2V56.547Zm19.8,4.32a5.062,5.062,0,0,1-.883,3.109,2.829,2.829,0,0,1-2.391,1.18,3.1,3.1,0,0,1-2.422-.977v4.07h-1.445v-11.7h1.32l.07.938a2.977,2.977,0,0,1,2.453-1.094,2.882,2.882,0,0,1,2.41,1.148,5.117,5.117,0,0,1,.887,3.2ZM178.93,60.7a3.735,3.735,0,0,0-.609-2.258,1.963,1.963,0,0,0-1.672-.828,2.125,2.125,0,0,0-1.969,1.164V62.82a2.129,2.129,0,0,0,1.984,1.156,1.954,1.954,0,0,0,1.652-.824A4.077,4.077,0,0,0,178.93,60.7Zm4.852,4.3h-1.445V53h1.445Zm1.93-4.3a4.993,4.993,0,0,1,.488-2.234,3.642,3.642,0,0,1,1.359-1.531,3.7,3.7,0,0,1,1.988-.539,3.565,3.565,0,0,1,2.793,1.2,4.6,4.6,0,0,1,1.066,3.18v.1a5.036,5.036,0,0,1-.473,2.215,3.589,3.589,0,0,1-1.352,1.527,3.743,3.743,0,0,1-2.02.547,3.556,3.556,0,0,1-2.785-1.2,4.575,4.575,0,0,1-1.066-3.164Zm1.453.172a3.616,3.616,0,0,0,.652,2.258,2.211,2.211,0,0,0,3.5-.012,3.954,3.954,0,0,0,.648-2.418,3.61,3.61,0,0,0-.66-2.254,2.1,2.1,0,0,0-1.754-.863,2.075,2.075,0,0,0-1.727.852A3.925,3.925,0,0,0,187.164,60.867ZM2.664,89H1.219V80.547H2.664ZM1.1,78.3a.863.863,0,0,1,.215-.594.807.807,0,0,1,.637-.242.819.819,0,0,1,.641.242.854.854,0,0,1,.219.594.826.826,0,0,1-.219.586.834.834,0,0,1-.641.234.821.821,0,0,1-.637-.234A.834.834,0,0,1,1.1,78.3Zm5.242,2.242.047,1.063a3.08,3.08,0,0,1,2.531-1.219q2.68,0,2.7,3.023V89H10.18V83.406a1.946,1.946,0,0,0-.418-1.352,1.675,1.675,0,0,0-1.277-.437,2.086,2.086,0,0,0-1.234.375,2.546,2.546,0,0,0-.828.984V89H4.977V80.547Zm12.383,6.211a1.064,1.064,0,0,0-.441-.91,4.249,4.249,0,0,0-1.539-.559A7.277,7.277,0,0,1,15,84.727a2.479,2.479,0,0,1-.953-.781,1.869,1.869,0,0,1-.309-1.078,2.193,2.193,0,0,1,.879-1.758,3.432,3.432,0,0,1,2.246-.719,3.532,3.532,0,0,1,2.332.742,2.357,2.357,0,0,1,.895,1.9H18.641a1.3,1.3,0,0,0-.5-1.023,1.888,1.888,0,0,0-1.27-.43,1.976,1.976,0,0,0-1.234.344,1.082,1.082,0,0,0-.445.9.877.877,0,0,0,.414.789,5.1,5.1,0,0,0,1.5.508,7.8,7.8,0,0,1,1.754.578,2.558,2.558,0,0,1,1,.809,1.988,1.988,0,0,1,.324,1.152,2.163,2.163,0,0,1-.906,1.816,3.8,3.8,0,0,1-2.352.684,4.257,4.257,0,0,1-1.8-.359,2.922,2.922,0,0,1-1.223-1,2.42,2.42,0,0,1-.441-1.395H14.9a1.5,1.5,0,0,0,.582,1.152,2.258,2.258,0,0,0,1.434.426,2.331,2.331,0,0,0,1.316-.332A1.02,1.02,0,0,0,18.727,86.758Zm6.836,2.4a3.693,3.693,0,0,1-2.8-1.129,4.19,4.19,0,0,1-1.078-3.02v-.266a5.073,5.073,0,0,1,.48-2.246,3.748,3.748,0,0,1,1.344-1.547,3.378,3.378,0,0,1,1.871-.559,3.166,3.166,0,0,1,2.563,1.086,4.7,4.7,0,0,1,.914,3.109v.6H23.133a3,3,0,0,0,.73,2.02,2.3,2.3,0,0,0,1.777.77,2.517,2.517,0,0,0,1.3-.312,3.259,3.259,0,0,0,.93-.828l.883.688A3.55,3.55,0,0,1,25.563,89.156Zm-.18-7.578a1.928,1.928,0,0,0-1.469.637A3.1,3.1,0,0,0,23.18,84h4.234v-.109a2.753,2.753,0,0,0-.594-1.707A1.815,1.815,0,0,0,25.383,81.578Zm8.539,6.4a2.082,2.082,0,0,0,1.352-.469,1.649,1.649,0,0,0,.641-1.172h1.367a2.621,2.621,0,0,1-.5,1.383,3.293,3.293,0,0,1-1.23,1.047,3.55,3.55,0,0,1-1.629.391A3.482,3.482,0,0,1,31.176,88a4.59,4.59,0,0,1-1.02-3.152v-.242a5.089,5.089,0,0,1,.453-2.2,3.451,3.451,0,0,1,1.3-1.492,3.7,3.7,0,0,1,2-.531,3.39,3.39,0,0,1,2.363.852,3.043,3.043,0,0,1,1,2.211H35.914a1.992,1.992,0,0,0-.621-1.348,1.932,1.932,0,0,0-1.379-.527,2.023,2.023,0,0,0-1.707.793,3.724,3.724,0,0,0-.605,2.293v.273a3.65,3.65,0,0,0,.6,2.25A2.033,2.033,0,0,0,33.922,87.977ZM40.867,78.5v2.047h1.578v1.117H40.867v5.249a1.173,1.173,0,0,0,.211.763.888.888,0,0,0,.719.254,3.5,3.5,0,0,0,.688-.094V89a4.215,4.215,0,0,1-1.109.155,1.8,1.8,0,0,1-1.461-.586,2.517,2.517,0,0,1-.492-1.664V81.664H37.883V80.547h1.539V78.5Zm2.727,6.2a4.993,4.993,0,0,1,.488-2.234,3.642,3.642,0,0,1,1.359-1.531,3.7,3.7,0,0,1,1.988-.539,3.565,3.565,0,0,1,2.793,1.2,4.6,4.6,0,0,1,1.066,3.18v.1a5.036,5.036,0,0,1-.473,2.215,3.589,3.589,0,0,1-1.352,1.527,3.743,3.743,0,0,1-2.02.547,3.556,3.556,0,0,1-2.785-1.2A4.575,4.575,0,0,1,43.594,84.8Zm1.453.172a3.616,3.616,0,0,0,.652,2.258,2.211,2.211,0,0,0,3.5-.012,3.955,3.955,0,0,0,.648-2.418,3.61,3.61,0,0,0-.66-2.254,2.1,2.1,0,0,0-1.754-.863,2.075,2.075,0,0,0-1.727.852A3.925,3.925,0,0,0,45.047,84.867Zm12.977,1.891a1.064,1.064,0,0,0-.441-.91,4.249,4.249,0,0,0-1.539-.559,7.277,7.277,0,0,1-1.742-.562,2.479,2.479,0,0,1-.953-.781,1.869,1.869,0,0,1-.309-1.078,2.193,2.193,0,0,1,.879-1.758,3.432,3.432,0,0,1,2.246-.719,3.532,3.532,0,0,1,2.332.742,2.357,2.357,0,0,1,.895,1.9H57.938a1.3,1.3,0,0,0-.5-1.023,1.888,1.888,0,0,0-1.27-.43,1.976,1.976,0,0,0-1.234.344,1.082,1.082,0,0,0-.445.9.877.877,0,0,0,.414.789,5.1,5.1,0,0,0,1.5.508,7.8,7.8,0,0,1,1.754.578,2.558,2.558,0,0,1,1,.809,1.988,1.988,0,0,1,.324,1.152,2.163,2.163,0,0,1-.906,1.816,3.8,3.8,0,0,1-2.352.684,4.257,4.257,0,0,1-1.8-.359,2.922,2.922,0,0,1-1.223-1A2.42,2.42,0,0,1,52.75,86.4H54.2a1.5,1.5,0,0,0,.582,1.152,2.258,2.258,0,0,0,1.434.426,2.331,2.331,0,0,0,1.316-.332A1.02,1.02,0,0,0,58.023,86.758ZM68.7,87.977a2.082,2.082,0,0,0,1.352-.469,1.649,1.649,0,0,0,.641-1.172h1.367a2.621,2.621,0,0,1-.5,1.383,3.293,3.293,0,0,1-1.23,1.047,3.55,3.55,0,0,1-1.629.391A3.482,3.482,0,0,1,65.957,88a4.59,4.59,0,0,1-1.02-3.152v-.242a5.089,5.089,0,0,1,.453-2.2,3.451,3.451,0,0,1,1.3-1.492,3.7,3.7,0,0,1,2-.531,3.39,3.39,0,0,1,2.363.852,3.043,3.043,0,0,1,1,2.211H70.7a1.992,1.992,0,0,0-.621-1.348,1.932,1.932,0,0,0-1.379-.527,2.023,2.023,0,0,0-1.707.793,3.724,3.724,0,0,0-.605,2.293v.273a3.65,3.65,0,0,0,.6,2.25A2.033,2.033,0,0,0,68.7,87.977ZM73.3,84.7a4.993,4.993,0,0,1,.488-2.234,3.643,3.643,0,0,1,1.359-1.531,3.7,3.7,0,0,1,1.988-.539,3.565,3.565,0,0,1,2.793,1.2A4.6,4.6,0,0,1,81,84.766v.1a5.036,5.036,0,0,1-.473,2.215,3.589,3.589,0,0,1-1.352,1.527,3.743,3.743,0,0,1-2.02.547,3.556,3.556,0,0,1-2.785-1.2A4.575,4.575,0,0,1,73.3,84.8Zm1.453.172a3.616,3.616,0,0,0,.652,2.258,2.211,2.211,0,0,0,3.5-.012,3.955,3.955,0,0,0,.648-2.418,3.61,3.61,0,0,0-.66-2.254,2.1,2.1,0,0,0-1.754-.863,2.075,2.075,0,0,0-1.727.852A3.925,3.925,0,0,0,74.758,84.867Zm9.414-4.32.039.938a3.122,3.122,0,0,1,2.508-1.094,2.417,2.417,0,0,1,2.414,1.359,3.2,3.2,0,0,1,1.1-.984,3.242,3.242,0,0,1,1.6-.375q2.781,0,2.828,2.945V89H93.211V83.422a1.941,1.941,0,0,0-.414-1.355,1.823,1.823,0,0,0-1.391-.449,1.916,1.916,0,0,0-1.336.48,1.949,1.949,0,0,0-.617,1.293V89H88V83.461a1.613,1.613,0,0,0-1.8-1.844,1.934,1.934,0,0,0-1.945,1.211V89H82.8V80.547ZM96.453,84.7a4.993,4.993,0,0,1,.488-2.234A3.643,3.643,0,0,1,98.3,80.93a3.7,3.7,0,0,1,1.988-.539,3.565,3.565,0,0,1,2.793,1.2,4.6,4.6,0,0,1,1.066,3.18v.1a5.036,5.036,0,0,1-.473,2.215,3.589,3.589,0,0,1-1.352,1.527,3.743,3.743,0,0,1-2.02.547,3.556,3.556,0,0,1-2.785-1.2A4.575,4.575,0,0,1,96.453,84.8Zm1.453.172a3.616,3.616,0,0,0,.652,2.258,2.211,2.211,0,0,0,3.5-.012A3.955,3.955,0,0,0,102.7,84.7a3.61,3.61,0,0,0-.66-2.254,2.1,2.1,0,0,0-1.754-.863,2.075,2.075,0,0,0-1.727.852A3.925,3.925,0,0,0,97.906,84.867Zm13.375-4.32.039.938a3.122,3.122,0,0,1,2.508-1.094,2.417,2.417,0,0,1,2.414,1.359,3.2,3.2,0,0,1,1.1-.984,3.242,3.242,0,0,1,1.6-.375q2.781,0,2.828,2.945V89H120.32V83.422a1.941,1.941,0,0,0-.414-1.355,1.823,1.823,0,0,0-1.391-.449,1.916,1.916,0,0,0-1.336.48,1.949,1.949,0,0,0-.617,1.293V89h-1.453V83.461a1.613,1.613,0,0,0-1.8-1.844,1.934,1.934,0,0,0-1.945,1.211V89h-1.445V80.547ZM123.563,84.7a4.993,4.993,0,0,1,.488-2.234,3.643,3.643,0,0,1,1.359-1.531,3.7,3.7,0,0,1,1.988-.539,3.565,3.565,0,0,1,2.793,1.2,4.6,4.6,0,0,1,1.066,3.18v.1a5.036,5.036,0,0,1-.473,2.215,3.589,3.589,0,0,1-1.352,1.527,3.743,3.743,0,0,1-2.02.547,3.556,3.556,0,0,1-2.785-1.2,4.575,4.575,0,0,1-1.066-3.164Zm1.453.172a3.616,3.616,0,0,0,.652,2.258,2.211,2.211,0,0,0,3.5-.012,3.954,3.954,0,0,0,.648-2.418,3.61,3.61,0,0,0-.66-2.254,2.1,2.1,0,0,0-1.754-.863,2.075,2.075,0,0,0-1.727.852A3.925,3.925,0,0,0,125.016,84.867Zm12.977,1.891a1.064,1.064,0,0,0-.441-.91,4.249,4.249,0,0,0-1.539-.559,7.277,7.277,0,0,1-1.742-.562,2.479,2.479,0,0,1-.953-.781,1.869,1.869,0,0,1-.309-1.078,2.193,2.193,0,0,1,.879-1.758,3.432,3.432,0,0,1,2.246-.719,3.532,3.532,0,0,1,2.332.742,2.357,2.357,0,0,1,.895,1.9h-1.453a1.3,1.3,0,0,0-.5-1.023,1.888,1.888,0,0,0-1.27-.43,1.976,1.976,0,0,0-1.234.344,1.082,1.082,0,0,0-.445.9.877.877,0,0,0,.414.789,5.1,5.1,0,0,0,1.5.508,7.8,7.8,0,0,1,1.754.578,2.558,2.558,0,0,1,1,.809,1.988,1.988,0,0,1,.324,1.152,2.163,2.163,0,0,1-.906,1.816,3.8,3.8,0,0,1-2.352.684,4.257,4.257,0,0,1-1.8-.359,2.922,2.922,0,0,1-1.223-1,2.42,2.42,0,0,1-.441-1.395h1.445a1.5,1.5,0,0,0,.582,1.152,2.258,2.258,0,0,0,1.434.426,2.331,2.331,0,0,0,1.316-.332A1.02,1.02,0,0,0,137.992,86.758Zm6.719,1.219a2.082,2.082,0,0,0,1.352-.469,1.649,1.649,0,0,0,.641-1.172h1.367a2.621,2.621,0,0,1-.5,1.383,3.293,3.293,0,0,1-1.23,1.047,3.55,3.55,0,0,1-1.629.391A3.482,3.482,0,0,1,141.965,88a4.59,4.59,0,0,1-1.02-3.152v-.242a5.089,5.089,0,0,1,.453-2.2,3.451,3.451,0,0,1,1.3-1.492,3.7,3.7,0,0,1,2-.531,3.39,3.39,0,0,1,2.363.852,3.043,3.043,0,0,1,1,2.211H146.7a1.992,1.992,0,0,0-.621-1.348,1.932,1.932,0,0,0-1.379-.527,2.023,2.023,0,0,0-1.707.793,3.724,3.724,0,0,0-.605,2.293v.273a3.65,3.65,0,0,0,.6,2.25A2.033,2.033,0,0,0,144.711,87.977Zm4.6-3.281a4.993,4.993,0,0,1,.488-2.234,3.642,3.642,0,0,1,1.359-1.531,3.7,3.7,0,0,1,1.988-.539,3.565,3.565,0,0,1,2.793,1.2,4.6,4.6,0,0,1,1.066,3.18v.1a5.036,5.036,0,0,1-.473,2.215,3.589,3.589,0,0,1-1.352,1.527,3.743,3.743,0,0,1-2.02.547,3.556,3.556,0,0,1-2.785-1.2,4.575,4.575,0,0,1-1.066-3.164Zm1.453.172a3.616,3.616,0,0,0,.652,2.258,2.211,2.211,0,0,0,3.5-.012,3.954,3.954,0,0,0,.648-2.418,3.61,3.61,0,0,0-.66-2.254,2.1,2.1,0,0,0-1.754-.863,2.075,2.075,0,0,0-1.727.852A3.925,3.925,0,0,0,150.766,84.867Zm12.977,1.891a1.064,1.064,0,0,0-.441-.91,4.249,4.249,0,0,0-1.539-.559,7.277,7.277,0,0,1-1.742-.562,2.479,2.479,0,0,1-.953-.781,1.869,1.869,0,0,1-.309-1.078,2.193,2.193,0,0,1,.879-1.758,3.432,3.432,0,0,1,2.246-.719,3.532,3.532,0,0,1,2.332.742,2.357,2.357,0,0,1,.895,1.9h-1.453a1.3,1.3,0,0,0-.5-1.023,1.888,1.888,0,0,0-1.27-.43,1.976,1.976,0,0,0-1.234.344,1.082,1.082,0,0,0-.445.9.877.877,0,0,0,.414.789,5.1,5.1,0,0,0,1.5.508,7.8,7.8,0,0,1,1.754.578,2.558,2.558,0,0,1,1,.809,1.988,1.988,0,0,1,.324,1.152,2.163,2.163,0,0,1-.906,1.816,3.8,3.8,0,0,1-2.352.684,4.257,4.257,0,0,1-1.8-.359,2.922,2.922,0,0,1-1.223-1,2.42,2.42,0,0,1-.441-1.395h1.445a1.5,1.5,0,0,0,.582,1.152,2.258,2.258,0,0,0,1.434.426,2.331,2.331,0,0,0,1.316-.332A1.02,1.02,0,0,0,163.742,86.758Zm3.281,4.508-.82-.562a3.77,3.77,0,0,0,.766-2.109v-1.3h1.414v1.133A3.559,3.559,0,0,1,168,90,3.7,3.7,0,0,1,167.023,91.266ZM5.18,105.844a4.331,4.331,0,0,0-.711-.055A1.9,1.9,0,0,0,2.539,107v6H1.094v-8.453H2.5l.023.977a2.251,2.251,0,0,1,2.016-1.133,1.477,1.477,0,0,1,.641.109Zm.789,2.852a4.993,4.993,0,0,1,.488-2.234,3.643,3.643,0,0,1,1.359-1.531,3.7,3.7,0,0,1,1.988-.539,3.565,3.565,0,0,1,2.793,1.2,4.6,4.6,0,0,1,1.066,3.18v.1a5.036,5.036,0,0,1-.473,2.215,3.589,3.589,0,0,1-1.352,1.527,3.743,3.743,0,0,1-2.02.547,3.556,3.556,0,0,1-2.785-1.2A4.575,4.575,0,0,1,5.969,108.8Zm1.453.172a3.616,3.616,0,0,0,.652,2.258,2.088,2.088,0,0,0,1.746.852,2.075,2.075,0,0,0,1.75-.863,3.955,3.955,0,0,0,.648-2.418,3.61,3.61,0,0,0-.66-2.254,2.1,2.1,0,0,0-1.754-.863,2.075,2.075,0,0,0-1.727.852A3.925,3.925,0,0,0,7.422,108.867Zm11.563,4.289a3.693,3.693,0,0,1-2.8-1.129,4.19,4.19,0,0,1-1.078-3.02v-.266a5.073,5.073,0,0,1,.48-2.246,3.748,3.748,0,0,1,1.344-1.547,3.378,3.378,0,0,1,1.871-.559,3.166,3.166,0,0,1,2.563,1.086,4.7,4.7,0,0,1,.914,3.109v.6H16.555a3,3,0,0,0,.73,2.02,2.3,2.3,0,0,0,1.777.77,2.517,2.517,0,0,0,1.3-.312,3.259,3.259,0,0,0,.93-.828l.883.688A3.55,3.55,0,0,1,18.984,113.156Zm-.18-7.578a1.928,1.928,0,0,0-1.469.637A3.1,3.1,0,0,0,16.6,108h4.234v-.109a2.753,2.753,0,0,0-.594-1.707A1.815,1.815,0,0,0,18.8,105.578Zm4.8,3.125a4.952,4.952,0,0,1,.922-3.129,3.137,3.137,0,0,1,4.766-.168V101h1.445v12H29.406l-.07-.906a2.943,2.943,0,0,1-2.414,1.063,2.887,2.887,0,0,1-2.395-1.2,5.008,5.008,0,0,1-.926-3.141Zm1.445.164a3.749,3.749,0,0,0,.594,2.25,1.92,1.92,0,0,0,1.641.813,2.109,2.109,0,0,0,2.008-1.234v-3.883a2.125,2.125,0,0,0-1.992-1.2,1.929,1.929,0,0,0-1.656.82A4.128,4.128,0,0,0,25.047,108.867Zm7.547-.172a4.993,4.993,0,0,1,.488-2.234,3.642,3.642,0,0,1,1.359-1.531,3.7,3.7,0,0,1,1.988-.539,3.565,3.565,0,0,1,2.793,1.2,4.6,4.6,0,0,1,1.066,3.18v.1a5.036,5.036,0,0,1-.473,2.215,3.589,3.589,0,0,1-1.352,1.527,3.743,3.743,0,0,1-2.02.547,3.556,3.556,0,0,1-2.785-1.2,4.575,4.575,0,0,1-1.066-3.164Zm1.453.172a3.616,3.616,0,0,0,.652,2.258,2.211,2.211,0,0,0,3.5-.012,3.955,3.955,0,0,0,.648-2.418,3.61,3.61,0,0,0-.66-2.254,2.1,2.1,0,0,0-1.754-.863,2.075,2.075,0,0,0-1.727.852A3.925,3.925,0,0,0,34.047,108.867Zm12.141-3.023a4.331,4.331,0,0,0-.711-.055A1.9,1.9,0,0,0,43.547,107v6H42.1v-8.453h1.406l.023.977a2.251,2.251,0,0,1,2.016-1.133,1.477,1.477,0,0,1,.641.109Zm4.836,7.313a3.693,3.693,0,0,1-2.8-1.129,4.19,4.19,0,0,1-1.078-3.02v-.266a5.073,5.073,0,0,1,.48-2.246,3.748,3.748,0,0,1,1.344-1.547,3.378,3.378,0,0,1,1.871-.559,3.166,3.166,0,0,1,2.563,1.086,4.7,4.7,0,0,1,.914,3.109v.6H48.594a3,3,0,0,0,.73,2.02,2.3,2.3,0,0,0,1.777.77,2.517,2.517,0,0,0,1.3-.312,3.259,3.259,0,0,0,.93-.828l.883.688A3.55,3.55,0,0,1,51.023,113.156Zm-.18-7.578a1.928,1.928,0,0,0-1.469.637A3.1,3.1,0,0,0,48.641,108h4.234v-.109a2.753,2.753,0,0,0-.594-1.707A1.815,1.815,0,0,0,50.844,105.578Zm10.07,5.18a1.064,1.064,0,0,0-.441-.91,4.249,4.249,0,0,0-1.539-.559,7.277,7.277,0,0,1-1.742-.562,2.479,2.479,0,0,1-.953-.781,1.869,1.869,0,0,1-.309-1.078,2.193,2.193,0,0,1,.879-1.758,3.432,3.432,0,0,1,2.246-.719,3.532,3.532,0,0,1,2.332.742,2.357,2.357,0,0,1,.895,1.9H60.828a1.3,1.3,0,0,0-.5-1.023,1.888,1.888,0,0,0-1.27-.43,1.976,1.976,0,0,0-1.234.344,1.082,1.082,0,0,0-.445.9.877.877,0,0,0,.414.789,5.1,5.1,0,0,0,1.5.508,7.8,7.8,0,0,1,1.754.578,2.558,2.558,0,0,1,1,.809,1.988,1.988,0,0,1,.324,1.152,2.163,2.163,0,0,1-.906,1.816,3.8,3.8,0,0,1-2.352.684,4.257,4.257,0,0,1-1.8-.359,2.922,2.922,0,0,1-1.223-1,2.42,2.42,0,0,1-.441-1.395h1.445a1.5,1.5,0,0,0,.582,1.152,2.258,2.258,0,0,0,1.434.426,2.331,2.331,0,0,0,1.316-.332A1.02,1.02,0,0,0,60.914,110.758ZM67.82,108.7a4.993,4.993,0,0,1,.488-2.234,3.643,3.643,0,0,1,1.359-1.531,3.7,3.7,0,0,1,1.988-.539,3.565,3.565,0,0,1,2.793,1.2,4.6,4.6,0,0,1,1.066,3.18v.1a5.036,5.036,0,0,1-.473,2.215,3.589,3.589,0,0,1-1.352,1.527,3.743,3.743,0,0,1-2.02.547,3.556,3.556,0,0,1-2.785-1.2A4.575,4.575,0,0,1,67.82,108.8Zm1.453.172a3.616,3.616,0,0,0,.652,2.258,2.211,2.211,0,0,0,3.5-.012,3.955,3.955,0,0,0,.648-2.418,3.61,3.61,0,0,0-.66-2.254,2.1,2.1,0,0,0-1.754-.863,2.075,2.075,0,0,0-1.727.852A3.925,3.925,0,0,0,69.273,108.867Zm13.375-4.32.039.938a3.122,3.122,0,0,1,2.508-1.094,2.417,2.417,0,0,1,2.414,1.359,3.2,3.2,0,0,1,1.1-.984,3.242,3.242,0,0,1,1.6-.375q2.781,0,2.828,2.945V113H91.688v-5.578a1.941,1.941,0,0,0-.414-1.355,1.823,1.823,0,0,0-1.391-.449,1.916,1.916,0,0,0-1.336.48,1.949,1.949,0,0,0-.617,1.293V113H86.477v-5.539a1.613,1.613,0,0,0-1.8-1.844,1.934,1.934,0,0,0-1.945,1.211V113H81.281v-8.453ZM96.883,113H95.438v-8.453h1.445ZM95.32,102.3a.863.863,0,0,1,.215-.594.807.807,0,0,1,.637-.242.819.819,0,0,1,.641.242.854.854,0,0,1,.219.594.826.826,0,0,1-.219.586.834.834,0,0,1-.641.234.821.821,0,0,1-.637-.234A.834.834,0,0,1,95.32,102.3Zm7.266,9.672a2.082,2.082,0,0,0,1.352-.469,1.649,1.649,0,0,0,.641-1.172h1.367a2.621,2.621,0,0,1-.5,1.383,3.293,3.293,0,0,1-1.23,1.047,3.55,3.55,0,0,1-1.629.391A3.482,3.482,0,0,1,99.84,112a4.59,4.59,0,0,1-1.02-3.152v-.242a5.089,5.089,0,0,1,.453-2.2,3.451,3.451,0,0,1,1.3-1.492,3.7,3.7,0,0,1,2-.531,3.39,3.39,0,0,1,2.363.852,3.043,3.043,0,0,1,1,2.211h-1.367a1.992,1.992,0,0,0-.621-1.348,1.932,1.932,0,0,0-1.379-.527,2.023,2.023,0,0,0-1.707.793,3.724,3.724,0,0,0-.605,2.293v.273a3.65,3.65,0,0,0,.6,2.25A2.033,2.033,0,0,0,102.586,111.977Zm9.07-6.133a4.331,4.331,0,0,0-.711-.055,1.9,1.9,0,0,0-1.93,1.211v6H107.57v-8.453h1.406l.023.977a2.251,2.251,0,0,1,2.016-1.133,1.477,1.477,0,0,1,.641.109Zm.789,2.852a4.993,4.993,0,0,1,.488-2.234,3.643,3.643,0,0,1,1.359-1.531,3.7,3.7,0,0,1,1.988-.539,3.565,3.565,0,0,1,2.793,1.2,4.6,4.6,0,0,1,1.066,3.18v.1a5.036,5.036,0,0,1-.473,2.215,3.589,3.589,0,0,1-1.352,1.527,3.743,3.743,0,0,1-2.02.547,3.556,3.556,0,0,1-2.785-1.2,4.575,4.575,0,0,1-1.066-3.164Zm1.453.172a3.616,3.616,0,0,0,.652,2.258,2.211,2.211,0,0,0,3.5-.012,3.955,3.955,0,0,0,.648-2.418,3.61,3.61,0,0,0-.66-2.254,2.1,2.1,0,0,0-1.754-.863,2.075,2.075,0,0,0-1.727.852A3.925,3.925,0,0,0,113.9,108.867Zm7.672-.172a4.993,4.993,0,0,1,.488-2.234,3.643,3.643,0,0,1,1.359-1.531,3.7,3.7,0,0,1,1.988-.539,3.565,3.565,0,0,1,2.793,1.2,4.6,4.6,0,0,1,1.066,3.18v.1a5.036,5.036,0,0,1-.473,2.215,3.589,3.589,0,0,1-1.352,1.527,3.743,3.743,0,0,1-2.02.547,3.556,3.556,0,0,1-2.785-1.2,4.575,4.575,0,0,1-1.066-3.164Zm1.453.172a3.616,3.616,0,0,0,.652,2.258,2.211,2.211,0,0,0,3.5-.012,3.955,3.955,0,0,0,.648-2.418,3.61,3.61,0,0,0-.66-2.254,2.1,2.1,0,0,0-1.754-.863,2.075,2.075,0,0,0-1.727.852A3.925,3.925,0,0,0,123.023,108.867Zm12.141-3.023a4.331,4.331,0,0,0-.711-.055,1.9,1.9,0,0,0-1.93,1.211v6h-1.445v-8.453h1.406l.023.977a2.251,2.251,0,0,1,2.016-1.133,1.477,1.477,0,0,1,.641.109Zm.984,2.859a4.968,4.968,0,0,1,.914-3.145,3.151,3.151,0,0,1,4.836-.074l.07-.937h1.32v8.25a3.439,3.439,0,0,1-.973,2.586,3.589,3.589,0,0,1-2.613.945,4.348,4.348,0,0,1-1.789-.391,3.08,3.08,0,0,1-1.336-1.07l.75-.867a2.826,2.826,0,0,0,2.273,1.148,2.214,2.214,0,0,0,1.645-.594,2.269,2.269,0,0,0,.59-1.672v-.727a2.971,2.971,0,0,1-2.367,1,2.887,2.887,0,0,1-2.4-1.2A5.224,5.224,0,0,1,136.148,108.7Zm1.453.164a3.79,3.79,0,0,0,.586,2.246,1.9,1.9,0,0,0,1.641.816,2.117,2.117,0,0,0,2.008-1.242v-3.859a2.142,2.142,0,0,0-1.992-1.211,1.921,1.921,0,0,0-1.648.82A4.128,4.128,0,0,0,137.6,108.867ZM150.688,113a3.036,3.036,0,0,1-.2-.891,3.225,3.225,0,0,1-2.406,1.047,2.984,2.984,0,0,1-2.051-.707,2.287,2.287,0,0,1-.8-1.793,2.39,2.39,0,0,1,1-2.051,4.733,4.733,0,0,1,2.824-.73h1.406v-.664a1.623,1.623,0,0,0-.453-1.207,1.821,1.821,0,0,0-1.336-.449,2.108,2.108,0,0,0-1.3.391,1.151,1.151,0,0,0-.523.945H145.4a2,2,0,0,1,.449-1.223,3.066,3.066,0,0,1,1.219-.934,4.1,4.1,0,0,1,1.691-.344,3.342,3.342,0,0,1,2.289.73,2.635,2.635,0,0,1,.859,2.012v3.891a4.757,4.757,0,0,0,.3,1.852V113Zm-2.4-1.1a2.54,2.54,0,0,0,1.289-.352,2.127,2.127,0,0,0,.883-.914V108.9h-1.133q-2.656,0-2.656,1.555a1.316,1.316,0,0,0,.453,1.063A1.742,1.742,0,0,0,148.289,111.9Zm7.25-7.352.047,1.063a3.08,3.08,0,0,1,2.531-1.219q2.68,0,2.7,3.023V113h-1.445v-5.594a1.946,1.946,0,0,0-.418-1.352,1.675,1.675,0,0,0-1.277-.437,2.086,2.086,0,0,0-1.234.375,2.546,2.546,0,0,0-.828.984V113h-1.445v-8.453ZM164.57,113h-1.445v-8.453h1.445Zm-1.562-10.7a.863.863,0,0,1,.215-.594.807.807,0,0,1,.637-.242.819.819,0,0,1,.641.242.854.854,0,0,1,.219.594.826.826,0,0,1-.219.586.834.834,0,0,1-.641.234.821.821,0,0,1-.637-.234A.834.834,0,0,1,163.008,102.3Zm8.8,8.453a1.064,1.064,0,0,0-.441-.91,4.249,4.249,0,0,0-1.539-.559,7.277,7.277,0,0,1-1.742-.562,2.479,2.479,0,0,1-.953-.781,1.869,1.869,0,0,1-.309-1.078,2.193,2.193,0,0,1,.879-1.758,3.432,3.432,0,0,1,2.246-.719,3.532,3.532,0,0,1,2.332.742,2.357,2.357,0,0,1,.895,1.9h-1.453a1.3,1.3,0,0,0-.5-1.023,1.888,1.888,0,0,0-1.27-.43,1.976,1.976,0,0,0-1.234.344,1.082,1.082,0,0,0-.445.9.877.877,0,0,0,.414.789,5.1,5.1,0,0,0,1.5.508,7.8,7.8,0,0,1,1.754.578,2.558,2.558,0,0,1,1,.809,1.988,1.988,0,0,1,.324,1.152,2.163,2.163,0,0,1-.906,1.816,3.8,3.8,0,0,1-2.352.684,4.257,4.257,0,0,1-1.8-.359,2.922,2.922,0,0,1-1.223-1,2.42,2.42,0,0,1-.441-1.395h1.445a1.5,1.5,0,0,0,.582,1.152,2.258,2.258,0,0,0,1.434.426,2.331,2.331,0,0,0,1.316-.332A1.02,1.02,0,0,0,171.8,110.758Zm4.688-6.211.039.938a3.122,3.122,0,0,1,2.508-1.094,2.417,2.417,0,0,1,2.414,1.359,3.2,3.2,0,0,1,1.1-.984,3.242,3.242,0,0,1,1.6-.375q2.781,0,2.828,2.945V113h-1.445v-5.578a1.941,1.941,0,0,0-.414-1.355,1.823,1.823,0,0,0-1.391-.449,1.917,1.917,0,0,0-1.336.48,1.949,1.949,0,0,0-.617,1.293V113H180.32v-5.539a1.613,1.613,0,0,0-1.8-1.844,1.934,1.934,0,0,0-1.945,1.211V113h-1.445v-8.453Zm12.281,4.148a4.993,4.993,0,0,1,.488-2.234,3.642,3.642,0,0,1,1.359-1.531,3.7,3.7,0,0,1,1.988-.539,3.565,3.565,0,0,1,2.793,1.2,4.6,4.6,0,0,1,1.066,3.18v.1a5.036,5.036,0,0,1-.473,2.215,3.589,3.589,0,0,1-1.352,1.527,3.743,3.743,0,0,1-2.02.547,3.556,3.556,0,0,1-2.785-1.2,4.575,4.575,0,0,1-1.066-3.164Zm1.453.172a3.616,3.616,0,0,0,.652,2.258,2.211,2.211,0,0,0,3.5-.012,3.954,3.954,0,0,0,.648-2.418,3.61,3.61,0,0,0-.66-2.254,2.1,2.1,0,0,0-1.754-.863,2.075,2.075,0,0,0-1.727.852A3.925,3.925,0,0,0,190.227,108.867Zm12.977,1.891a1.064,1.064,0,0,0-.441-.91,4.249,4.249,0,0,0-1.539-.559,7.277,7.277,0,0,1-1.742-.562,2.479,2.479,0,0,1-.953-.781,1.869,1.869,0,0,1-.309-1.078,2.193,2.193,0,0,1,.879-1.758,3.432,3.432,0,0,1,2.246-.719,3.532,3.532,0,0,1,2.332.742,2.357,2.357,0,0,1,.895,1.9h-1.453a1.3,1.3,0,0,0-.5-1.023,1.888,1.888,0,0,0-1.27-.43,1.976,1.976,0,0,0-1.234.344,1.082,1.082,0,0,0-.445.9.877.877,0,0,0,.414.789,5.1,5.1,0,0,0,1.5.508,7.8,7.8,0,0,1,1.754.578,2.558,2.558,0,0,1,1,.809,1.988,1.988,0,0,1,.324,1.152,2.163,2.163,0,0,1-.906,1.816,3.8,3.8,0,0,1-2.352.684,4.257,4.257,0,0,1-1.8-.359,2.922,2.922,0,0,1-1.223-1,2.42,2.42,0,0,1-.441-1.395h1.445a1.5,1.5,0,0,0,.582,1.152,2.258,2.258,0,0,0,1.434.426,2.331,2.331,0,0,0,1.316-.332A1.02,1.02,0,0,0,203.2,110.758Zm3.359,1.484a.905.905,0,0,1,.223-.625.848.848,0,0,1,.668-.25.874.874,0,0,1,.676.25.887.887,0,0,1,.23.625.839.839,0,0,1-.23.6.89.89,0,0,1-.676.242.8.8,0,0,1-.891-.844Z" transform="translate(633.366 8927.92)" fill="#12263f"/>
    <path id="Rect치ngulo_43074" data-name="Rect치ngulo 43074" d="M22,0H273a22,22,0,0,1,22,22V51.92a0,0,0,0,1,0,0H0a0,0,0,0,1,0,0V22A22,22,0,0,1,22,0Z" transform="translate(600 8702)" fill="#28acd3"/>
    <path id="Trazado_247612" data-name="Trazado 247612" d="M25.751,14.737a4.528,4.528,0,0,1-1.525,3.252A5.355,5.355,0,0,1,20.6,19.176a4.816,4.816,0,0,1-3.872-1.657,6.793,6.793,0,0,1-1.411-4.548v-.782a7.671,7.671,0,0,1,.65-3.252,4.874,4.874,0,0,1,1.859-2.158,5.207,5.207,0,0,1,2.808-.751A5.217,5.217,0,0,1,24.2,7.214a4.866,4.866,0,0,1,1.564,3.331H23.132a2.673,2.673,0,0,0-.69-1.8,2.555,2.555,0,0,0-1.806-.558,2.24,2.24,0,0,0-1.973.945,5.3,5.3,0,0,0-.672,2.931v.967a5.667,5.667,0,0,0,.628,3.032,2.2,2.2,0,0,0,1.982.958,2.6,2.6,0,0,0,1.824-.558,2.521,2.521,0,0,0,.69-1.727Zm1.169-.58a5.64,5.64,0,0,1,.545-2.522,3.989,3.989,0,0,1,1.569-1.714,4.577,4.577,0,0,1,2.377-.606,4.33,4.33,0,0,1,3.142,1.178,4.727,4.727,0,0,1,1.358,3.2l.018.65a4.97,4.97,0,0,1-1.222,3.511,4.247,4.247,0,0,1-3.278,1.323,4.268,4.268,0,0,1-3.283-1.318,5.058,5.058,0,0,1-1.226-3.586Zm2.54.18a3.555,3.555,0,0,0,.51,2.073,1.831,1.831,0,0,0,2.9.009,3.89,3.89,0,0,0,.519-2.267,3.519,3.519,0,0,0-.519-2.06,1.686,1.686,0,0,0-1.459-.731,1.658,1.658,0,0,0-1.441.726A3.955,3.955,0,0,0,29.46,14.338ZM39.832,9.49l.079,1.1a3.32,3.32,0,0,1,2.733-1.274,2.759,2.759,0,0,1,2.25.888,4.142,4.142,0,0,1,.756,2.654V19H43.11V12.918a1.648,1.648,0,0,0-.352-1.173,1.574,1.574,0,0,0-1.169-.365,1.747,1.747,0,0,0-1.608.914V19h-2.54V9.49ZM50.616,7.152V9.49h1.626v1.863H50.616V16.1a1.133,1.133,0,0,0,.2.756,1.015,1.015,0,0,0,.773.229,4.051,4.051,0,0,0,.747-.062v1.925a5.229,5.229,0,0,1-1.538.229,2.425,2.425,0,0,1-2.725-2.7V11.354H46.687V9.49h1.389V7.152ZM59.167,19a2.821,2.821,0,0,1-.255-.853,3.073,3.073,0,0,1-2.4,1.028,3.376,3.376,0,0,1-2.316-.809,2.6,2.6,0,0,1-.918-2.039,2.687,2.687,0,0,1,1.121-2.32,5.529,5.529,0,0,1,3.239-.817h1.169v-.545a1.567,1.567,0,0,0-.338-1.055,1.331,1.331,0,0,0-1.068-.4,1.513,1.513,0,0,0-1.006.308,1.045,1.045,0,0,0-.365.844H53.49A2.551,2.551,0,0,1,54,10.817a3.37,3.37,0,0,1,1.441-1.1,5.253,5.253,0,0,1,2.092-.4,4.15,4.15,0,0,1,2.791.883,3.09,3.09,0,0,1,1.033,2.483V16.8a4.546,4.546,0,0,0,.378,2.048V19Zm-2.1-1.767a2.188,2.188,0,0,0,1.037-.25,1.645,1.645,0,0,0,.7-.672V14.676h-.949q-1.907,0-2.03,1.318l-.009.149a1.017,1.017,0,0,0,.334.782A1.3,1.3,0,0,0,57.067,17.233ZM65.689,9.49l.079,1.063A3.342,3.342,0,0,1,68.5,9.314a2.536,2.536,0,0,1,2.522,1.45,3.265,3.265,0,0,1,2.856-1.45,2.836,2.836,0,0,1,2.3.9,4.141,4.141,0,0,1,.756,2.711V19H74.39V12.936a1.811,1.811,0,0,0-.316-1.182,1.4,1.4,0,0,0-1.116-.374,1.585,1.585,0,0,0-1.582,1.09L71.384,19h-2.54V12.944a1.789,1.789,0,0,0-.325-1.2,1.416,1.416,0,0,0-1.107-.369,1.646,1.646,0,0,0-1.564.9V19h-2.54V9.49ZM81.571,19H79.022V9.49h2.549Zm-2.7-11.971a1.251,1.251,0,0,1,.382-.94,1.648,1.648,0,0,1,2.079,0,1.244,1.244,0,0,1,.387.94,1.247,1.247,0,0,1-.391.949,1.629,1.629,0,0,1-2.065,0A1.247,1.247,0,0,1,78.873,7.029ZM86,9.49l.079,1.1a3.32,3.32,0,0,1,2.733-1.274,2.759,2.759,0,0,1,2.25.888,4.142,4.142,0,0,1,.756,2.654V19h-2.54V12.918a1.648,1.648,0,0,0-.352-1.173,1.574,1.574,0,0,0-1.169-.365,1.747,1.747,0,0,0-1.608.914V19H83.61V9.49ZM99.254,19A2.821,2.821,0,0,1,99,18.147a3.073,3.073,0,0,1-2.4,1.028,3.376,3.376,0,0,1-2.316-.809,2.6,2.6,0,0,1-.918-2.039,2.687,2.687,0,0,1,1.121-2.32,5.529,5.529,0,0,1,3.239-.817h1.169v-.545a1.567,1.567,0,0,0-.338-1.055,1.331,1.331,0,0,0-1.068-.4,1.513,1.513,0,0,0-1.006.308,1.045,1.045,0,0,0-.365.844h-2.54a2.551,2.551,0,0,1,.51-1.529,3.37,3.37,0,0,1,1.441-1.1,5.253,5.253,0,0,1,2.092-.4,4.15,4.15,0,0,1,2.791.883,3.09,3.09,0,0,1,1.033,2.483V16.8a4.546,4.546,0,0,0,.378,2.048V19Zm-2.1-1.767a2.188,2.188,0,0,0,1.037-.25,1.645,1.645,0,0,0,.7-.672V14.676h-.949q-1.907,0-2.03,1.318l-.009.149a1.017,1.017,0,0,0,.334.782A1.3,1.3,0,0,0,97.154,17.233Zm10.2-.105a1.666,1.666,0,0,0,1.143-.387,1.355,1.355,0,0,0,.457-1.028h2.382a3.258,3.258,0,0,1-.527,1.771,3.48,3.48,0,0,1-1.419,1.248,4.442,4.442,0,0,1-1.991.444,4.129,4.129,0,0,1-3.217-1.3A5.13,5.13,0,0,1,103,14.3v-.167a5.071,5.071,0,0,1,1.169-3.507,4.08,4.08,0,0,1,3.208-1.31,4,4,0,0,1,2.861,1.015,3.594,3.594,0,0,1,1.094,2.7h-2.382a1.745,1.745,0,0,0-.457-1.206,1.7,1.7,0,0,0-2.5.183,3.749,3.749,0,0,0-.453,2.1v.264a3.8,3.8,0,0,0,.448,2.113A1.549,1.549,0,0,0,107.349,17.128ZM115.461,19h-2.549V9.49h2.549Zm-2.7-11.971a1.251,1.251,0,0,1,.382-.94,1.648,1.648,0,0,1,2.079,0,1.244,1.244,0,0,1,.387.94,1.247,1.247,0,0,1-.391.949,1.629,1.629,0,0,1-2.065,0A1.247,1.247,0,0,1,112.763,7.029Zm4.395,7.128a5.64,5.64,0,0,1,.545-2.522,3.989,3.989,0,0,1,1.569-1.714,4.577,4.577,0,0,1,2.377-.606,4.33,4.33,0,0,1,3.142,1.178,4.727,4.727,0,0,1,1.358,3.2l.018.65a4.97,4.97,0,0,1-1.222,3.511,4.735,4.735,0,0,1-6.561,0,5.058,5.058,0,0,1-1.226-3.586Zm2.54.18a3.555,3.555,0,0,0,.51,2.073,1.831,1.831,0,0,0,2.9.009,3.89,3.89,0,0,0,.519-2.267,3.519,3.519,0,0,0-.519-2.06,1.686,1.686,0,0,0-1.459-.731,1.658,1.658,0,0,0-1.441.726A3.955,3.955,0,0,0,119.7,14.338ZM122.15,5.5h2.769l-2.435,2.725h-2.065Zm7.919,3.99.079,1.1a3.32,3.32,0,0,1,2.733-1.274,2.759,2.759,0,0,1,2.25.888,4.142,4.142,0,0,1,.756,2.654V19h-2.54V12.918A1.648,1.648,0,0,0,133,11.745a1.574,1.574,0,0,0-1.169-.365,1.747,1.747,0,0,0-1.608.914V19h-2.54V9.49Zm20.795,4.843a5.758,5.758,0,0,1-.976,3.564,3.231,3.231,0,0,1-2.725,1.279,2.969,2.969,0,0,1-2.47-1.187L144.58,19h-2.285V5.5h2.54v4.843a2.893,2.893,0,0,1,2.312-1.028,3.258,3.258,0,0,1,2.729,1.279,5.767,5.767,0,0,1,.989,3.6Zm-2.54-.185a3.783,3.783,0,0,0-.457-2.1,1.545,1.545,0,0,0-1.362-.664,1.676,1.676,0,0,0-1.67.993v3.753a1.7,1.7,0,0,0,1.688,1,1.568,1.568,0,0,0,1.617-1.213A6.257,6.257,0,0,0,148.324,14.148ZM155.109,19H152.56V9.49h2.549Zm-2.7-11.971a1.251,1.251,0,0,1,.382-.94,1.648,1.648,0,0,1,2.079,0,1.244,1.244,0,0,1,.387.94,1.247,1.247,0,0,1-.391.949,1.629,1.629,0,0,1-2.065,0A1.247,1.247,0,0,1,152.411,7.029Zm4.395,7.128a5.64,5.64,0,0,1,.545-2.522,3.989,3.989,0,0,1,1.569-1.714,4.577,4.577,0,0,1,2.377-.606,4.33,4.33,0,0,1,3.142,1.178,4.727,4.727,0,0,1,1.358,3.2l.018.65a4.97,4.97,0,0,1-1.222,3.511,4.735,4.735,0,0,1-6.561,0,5.058,5.058,0,0,1-1.226-3.586Zm2.54.18a3.555,3.555,0,0,0,.51,2.073,1.831,1.831,0,0,0,2.9.009,3.89,3.89,0,0,0,.519-2.267,3.519,3.519,0,0,0-.519-2.06,1.686,1.686,0,0,0-1.459-.731,1.658,1.658,0,0,0-1.441.726A3.955,3.955,0,0,0,159.345,14.338ZM170.059,19H167.51V5.5h2.549Zm1.7-4.843a5.64,5.64,0,0,1,.545-2.522,3.989,3.989,0,0,1,1.569-1.714,4.577,4.577,0,0,1,2.377-.606,4.33,4.33,0,0,1,3.142,1.178,4.727,4.727,0,0,1,1.358,3.2l.018.65a4.97,4.97,0,0,1-1.222,3.511,4.735,4.735,0,0,1-6.561,0,5.058,5.058,0,0,1-1.226-3.586Zm2.54.18a3.555,3.555,0,0,0,.51,2.073,1.831,1.831,0,0,0,2.9.009,3.89,3.89,0,0,0,.519-2.267,3.519,3.519,0,0,0-.519-2.06,1.686,1.686,0,0,0-1.459-.731,1.658,1.658,0,0,0-1.441.726A3.955,3.955,0,0,0,174.3,14.338ZM176.748,5.5h2.769l-2.435,2.725h-2.065Zm5.212,8.675A5.573,5.573,0,0,1,183,10.65a3.375,3.375,0,0,1,2.808-1.336,2.96,2.96,0,0,1,2.435,1.072l.105-.9h2.3v9.193a4.064,4.064,0,0,1-.567,2.171,3.641,3.641,0,0,1-1.6,1.406,5.608,5.608,0,0,1-2.408.483,5.215,5.215,0,0,1-2.039-.417,3.619,3.619,0,0,1-1.5-1.077l1.125-1.547a2.975,2.975,0,0,0,2.3,1.063,2.178,2.178,0,0,0,1.573-.541,2.027,2.027,0,0,0,.563-1.534v-.51a2.938,2.938,0,0,1-2.312.993,3.366,3.366,0,0,1-2.773-1.34,5.572,5.572,0,0,1-1.059-3.555Zm2.54.189a3.47,3.47,0,0,0,.519,2.029,1.65,1.65,0,0,0,1.424.735,1.764,1.764,0,0,0,1.661-.871V12.251a1.76,1.76,0,0,0-1.644-.871,1.66,1.66,0,0,0-1.437.748A3.911,3.911,0,0,0,184.5,14.364ZM195.284,19h-2.549V9.49h2.549Zm-2.7-11.971a1.251,1.251,0,0,1,.382-.94,1.648,1.648,0,0,1,2.079,0,1.244,1.244,0,0,1,.387.94,1.247,1.247,0,0,1-.391.949,1.629,1.629,0,0,1-2.065,0A1.247,1.247,0,0,1,192.585,7.029Zm8.745,10.1a1.666,1.666,0,0,0,1.143-.387,1.355,1.355,0,0,0,.457-1.028h2.382a3.258,3.258,0,0,1-.527,1.771,3.48,3.48,0,0,1-1.419,1.248,4.442,4.442,0,0,1-1.991.444,4.129,4.129,0,0,1-3.217-1.3A5.13,5.13,0,0,1,196.98,14.3v-.167a5.071,5.071,0,0,1,1.169-3.507,4.08,4.08,0,0,1,3.208-1.31,4,4,0,0,1,2.861,1.015,3.594,3.594,0,0,1,1.094,2.7H202.93a1.745,1.745,0,0,0-.457-1.206,1.7,1.7,0,0,0-2.5.183,3.749,3.749,0,0,0-.453,2.1v.264a3.8,3.8,0,0,0,.448,2.113A1.549,1.549,0,0,0,201.331,17.128ZM212.273,19a2.821,2.821,0,0,1-.255-.853,3.073,3.073,0,0,1-2.4,1.028,3.376,3.376,0,0,1-2.316-.809,2.6,2.6,0,0,1-.918-2.039,2.687,2.687,0,0,1,1.121-2.32,5.529,5.529,0,0,1,3.239-.817h1.169v-.545a1.567,1.567,0,0,0-.338-1.055,1.331,1.331,0,0,0-1.068-.4,1.513,1.513,0,0,0-1.006.308,1.045,1.045,0,0,0-.365.844H206.6a2.551,2.551,0,0,1,.51-1.529,3.37,3.37,0,0,1,1.441-1.1,5.253,5.253,0,0,1,2.092-.4,4.15,4.15,0,0,1,2.791.883,3.09,3.09,0,0,1,1.033,2.483V16.8a4.546,4.546,0,0,0,.378,2.048V19Zm-2.1-1.767a2.188,2.188,0,0,0,1.037-.25,1.645,1.645,0,0,0,.7-.672V14.676h-.949q-1.907,0-2.03,1.318l-.009.149a1.017,1.017,0,0,0,.334.782A1.3,1.3,0,0,0,210.172,17.233Z" transform="translate(633 8715)" fill="#12263f"/>
    <rect id="Rect치ngulo_43076" data-name="Rect치ngulo 43076" width="230" height="150" transform="translate(633 8765)" fill="#28acd3" opacity="0.25"/>
    <g id="Grupo_117588" data-name="Grupo 117588" transform="translate(90.726 8635.577)">
      <ellipse id="Elipse_5580" data-name="Elipse 5580" cx="33.272" cy="17.698" rx="33.272" ry="17.698" transform="translate(586.81 228.339)" fill="#d3d3d3" opacity="0.7"/>
      <path id="Trazado_239947" data-name="Trazado 239947" d="M628.557,205.742c0-10.254-15.626-18.565-34.9-18.565s-34.9,8.311-34.9,18.565c0,.217.017.434.031.65-13.665,1.74-23.828,8.275-23.828,16.077,0,9.133,13.918,16.535,31.086,16.535,16.055,0,29.266-6.474,30.911-14.783C614.681,223.339,628.557,215.4,628.557,205.742Z" transform="translate(17.376 -30.817)" fill="#d3d3d3" opacity="0.7"/>
      <ellipse id="Elipse_5581" data-name="Elipse 5581" cx="33.272" cy="17.698" rx="33.272" ry="17.698" transform="translate(693.3 215.211)" fill="#d3d3d3" opacity="0.7"/>
      <path id="Trazado_239948" data-name="Trazado 239948" d="M794.81,192.475c0-1.962-2.99-3.553-6.679-3.553s-6.68,1.591-6.68,3.553a1.969,1.969,0,0,0,.111.629c-3.546.086-6.373,1.637-6.373,3.545a1.989,1.989,0,0,0,.138.721,12.273,12.273,0,0,0-1.557-.1c-3.186,0-5.846,1.187-6.514,2.775-3.512.1-6.3,1.648-6.3,3.543,0,.035.007.068.01.1-.056,0-.11,0-.166,0-3.689,0-6.68,1.591-6.68,3.553a1.925,1.925,0,0,0,.08.522h-.022c-3.689,0-6.68,1.591-6.68,3.553a1.951,1.951,0,0,0,.031.326c-2.984.355-5.217,1.77-5.217,3.465,0,1.962,2.991,3.553,6.68,3.553s6.679-1.591,6.679-3.553a1.9,1.9,0,0,0-.031-.326c2.984-.355,5.217-1.77,5.217-3.465a1.953,1.953,0,0,0-.08-.523h.022c3.689,0,6.679-1.591,6.679-3.553,0-.035-.008-.068-.01-.1.055,0,.11,0,.166,0,3.186,0,5.846-1.187,6.514-2.775,3.512-.1,6.3-1.648,6.3-3.543a1.989,1.989,0,0,0-.138-.721,12.274,12.274,0,0,0,1.557.1c3.689,0,6.68-1.591,6.68-3.553a1.966,1.966,0,0,0-.111-.629C791.983,195.934,794.81,194.382,794.81,192.475Z" transform="translate(-36.264 -41.819)" fill="#d3d3d3" opacity="0.7"/>
      <g id="Grupo_117572" data-name="Grupo 117572" transform="translate(693.3 140.287)">
        <path id="Trazado_239949" data-name="Trazado 239949" d="M828.121,183.916s-2.831-1.791,1.321-4.958a13.039,13.039,0,0,1,8.282-2.818s-5.672,2.77-7.217,3.89c-3.242,2.349-1.065,4.587-1.065,4.587Z" transform="translate(-769.22 -176.129)" fill="#f5c602"/>
        <path id="Trazado_239950" data-name="Trazado 239950" d="M833.464,187.119s5.035-1.224,7.386-2.79a19.088,19.088,0,0,0,4.208-4.163s-.908,3.676-2.865,5.015a19.229,19.229,0,0,1-8.729,3.2Z" transform="translate(-772.157 -178.015)" fill="#f5c602"/>
        <g id="Grupo_117569" data-name="Grupo 117569" transform="translate(43.684 6.28)">
          <path id="Trazado_239951" data-name="Trazado 239951" d="M817.337,188.568a12.679,12.679,0,0,0-4.97-.617A6.087,6.087,0,0,0,808.3,189.9a8.763,8.763,0,0,1,4.064-.911,17,17,0,0,1,4.4.911Z" transform="translate(-804.084 -187.916)" fill="#f5c602"/>
          <path id="Trazado_239952" data-name="Trazado 239952" d="M819.795,191.479s2.83-4.2,5.524-3.4c2.374.7,3.639,1.654,3.554,3.111s-1.675,2.377-5.057,2.527S819.795,191.479,819.795,191.479Z" transform="translate(-809.453 -187.946)" fill="#e93812"/>
          <path id="Trazado_239953" data-name="Trazado 239953" d="M822.376,192.049a5.1,5.1,0,0,1,3.043-2.21c1.787-.225,1.835.886,1.14,1.933a5.81,5.81,0,0,1-3.208,1.959Z" transform="translate(-810.66 -188.801)" fill="#ff8071" opacity="0.4"/>
          <path id="Trazado_239954" data-name="Trazado 239954" d="M834.019,195.69c-.778.434-.462,1.23.086,2.329a12.959,12.959,0,0,1,1.066,2.953c.282,1.336.638,2.966.638,2.966a28.8,28.8,0,0,0,.521-3.666C836.459,198.4,835.315,194.967,834.019,195.69Z" transform="translate(-815.882 -191.502)" fill="#f5c602"/>
          <path id="Trazado_239955" data-name="Trazado 239955" d="M808.821,193.772a7.568,7.568,0,0,0-5.018-.578,6.042,6.042,0,0,0-3.421,2.016A19.686,19.686,0,0,1,803.8,194.2c1.867-.365,4.441.92,4.441.92Z" transform="translate(-800.383 -190.281)" fill="#f5c602"/>
          <path id="Trazado_239956" data-name="Trazado 239956" d="M810.466,196.718s2.83-4.2,5.524-3.4c2.374.7,3.639,1.654,3.554,3.111s-1.675,2.377-5.057,2.527S810.466,196.718,810.466,196.718Z" transform="translate(-805.094 -190.393)" fill="#d22305"/>
          <path id="Trazado_239957" data-name="Trazado 239957" d="M824.442,200.994c-.771.43-.458,1.218.085,2.306a6.917,6.917,0,0,1,.543,3.51c-.128.765-.51,2.247-.51,2.247a5.655,5.655,0,0,0,1.673-3.289C826.362,203.914,825.726,200.279,824.442,200.994Z" transform="translate(-811.409 -193.984)" fill="#f5c602"/>
        </g>
        <g id="Grupo_117570" data-name="Grupo 117570" transform="translate(33.24 10.099)">
          <path id="Trazado_239958" data-name="Trazado 239958" d="M797.732,198.995a12.7,12.7,0,0,0-4.97-.617,6.083,6.083,0,0,0-4.064,1.947,8.759,8.759,0,0,1,4.064-.91,17.008,17.008,0,0,1,4.4.91Z" transform="translate(-784.479 -196.608)" fill="#f5c602"/>
          <path id="Trazado_239959" data-name="Trazado 239959" d="M812.465,197.325a5.1,5.1,0,0,1,3.043-2.21c1.787-.226,1.835.886,1.14,1.932a5.808,5.808,0,0,1-3.208,1.959Z" transform="translate(-795.584 -195.086)" fill="#ff4324" opacity="0.5"/>
          <path id="Trazado_239960" data-name="Trazado 239960" d="M800.19,201.907s2.83-4.2,5.524-3.4c2.374.7,3.639,1.654,3.553,3.111s-1.674,2.377-5.056,2.527S800.19,201.907,800.19,201.907Z" transform="translate(-789.849 -196.638)" fill="#e93812"/>
          <path id="Trazado_239961" data-name="Trazado 239961" d="M814.413,206.118c-.779.434-.462,1.23.086,2.328a12.985,12.985,0,0,1,1.066,2.953c.282,1.336.638,2.966.638,2.966a28.9,28.9,0,0,0,.521-3.667C816.853,208.826,815.71,205.395,814.413,206.118Z" transform="translate(-796.277 -200.194)" fill="#f5c602"/>
          <path id="Trazado_239962" data-name="Trazado 239962" d="M789.217,204.2a7.568,7.568,0,0,0-5.018-.578,6.042,6.042,0,0,0-3.421,2.016,19.686,19.686,0,0,1,3.421-1.015c1.867-.365,4.441.92,4.441.92Z" transform="translate(-780.778 -198.973)" fill="#f5c602"/>
          <path id="Trazado_239963" data-name="Trazado 239963" d="M802.19,202.816a5.1,5.1,0,0,1,3.043-2.21c1.787-.226,1.835.886,1.139,1.932a5.81,5.81,0,0,1-3.208,1.959Z" transform="translate(-790.783 -197.651)" fill="#ff8071" opacity="0.4"/>
          <path id="Trazado_239964" data-name="Trazado 239964" d="M790.861,207.145s2.83-4.2,5.524-3.4c2.374.7,3.639,1.654,3.553,3.111s-1.674,2.377-5.056,2.527S790.861,207.145,790.861,207.145Z" transform="translate(-785.489 -199.086)" fill="#d22305"/>
          <path id="Trazado_239965" data-name="Trazado 239965" d="M804.837,211.422c-.771.43-.458,1.218.086,2.306a6.916,6.916,0,0,1,.543,3.51c-.128.765-.51,2.248-.51,2.248a5.657,5.657,0,0,0,1.673-3.289C806.757,214.342,806.121,210.706,804.837,211.422Z" transform="translate(-791.804 -202.676)" fill="#f5c602"/>
        </g>
        <g id="Grupo_117571" data-name="Grupo 117571" transform="translate(23.747 15.924)">
          <path id="Trazado_239966" data-name="Trazado 239966" d="M779.914,209.423a12.7,12.7,0,0,0-4.97-.617,6.085,6.085,0,0,0-4.064,1.948,8.758,8.758,0,0,1,4.064-.91,16.983,16.983,0,0,1,4.4.91Z" transform="translate(-766.661 -207.305)" fill="#f5c602"/>
          <path id="Trazado_239967" data-name="Trazado 239967" d="M792.86,208.259a5.1,5.1,0,0,1,3.043-2.21c1.787-.225,1.835.886,1.14,1.933a5.81,5.81,0,0,1-3.208,1.959Z" transform="translate(-776.931 -206.019)" fill="#ff4324" opacity="0.5"/>
          <path id="Trazado_239968" data-name="Trazado 239968" d="M782.372,212.335s2.83-4.2,5.524-3.4c2.374.7,3.639,1.654,3.553,3.111s-1.674,2.377-5.056,2.527S782.372,212.335,782.372,212.335Z" transform="translate(-772.031 -207.335)" fill="#e93812"/>
          <path id="Trazado_239969" data-name="Trazado 239969" d="M796.6,216.546c-.779.434-.463,1.23.086,2.328a13,13,0,0,1,1.066,2.953c.282,1.336.638,2.966.638,2.966a28.894,28.894,0,0,0,.52-3.666C799.035,219.254,797.892,215.823,796.6,216.546Z" transform="translate(-778.459 -210.892)" fill="#f5c602"/>
          <path id="Trazado_239970" data-name="Trazado 239970" d="M771.4,214.628a7.569,7.569,0,0,0-5.018-.577,6.037,6.037,0,0,0-3.421,2.016,19.741,19.741,0,0,1,3.421-1.015c1.867-.364,4.441.92,4.441.92Z" transform="translate(-762.96 -209.67)" fill="#f5c602"/>
          <path id="Trazado_239971" data-name="Trazado 239971" d="M784.382,212.992a5.093,5.093,0,0,1,3.043-2.21c1.787-.225,1.835.886,1.139,1.933a5.808,5.808,0,0,1-3.208,1.959Z" transform="translate(-772.97 -208.23)" fill="#ff8071" opacity="0.4"/>
          <path id="Trazado_239972" data-name="Trazado 239972" d="M773.043,217.573s2.83-4.2,5.524-3.4c2.374.7,3.639,1.654,3.553,3.111s-1.674,2.376-5.056,2.527S773.043,217.573,773.043,217.573Z" transform="translate(-767.671 -209.783)" fill="#d22305"/>
          <path id="Trazado_239973" data-name="Trazado 239973" d="M787.019,221.85c-.771.43-.458,1.218.086,2.306a6.915,6.915,0,0,1,.543,3.51c-.128.765-.51,2.248-.51,2.248a5.658,5.658,0,0,0,1.673-3.289C788.939,224.77,788.3,221.134,787.019,221.85Z" transform="translate(-773.986 -213.373)" fill="#f5c602"/>
        </g>
        <path id="Trazado_239974" data-name="Trazado 239974" d="M761.72,220.019a12.688,12.688,0,0,0-4.97-.617,6.087,6.087,0,0,0-4.064,1.948,8.763,8.763,0,0,1,4.064-.911,17,17,0,0,1,4.4.911Z" transform="translate(-734.412 -196.333)" fill="#f5c602"/>
        <path id="Trazado_239975" data-name="Trazado 239975" d="M776.236,218.181a5.091,5.091,0,0,1,3.043-2.21c1.787-.226,1.835.885,1.139,1.932a5.808,5.808,0,0,1-3.208,1.959Z" transform="translate(-745.416 -194.732)" fill="#ff4324" opacity="0.5"/>
        <path id="Trazado_239976" data-name="Trazado 239976" d="M764.179,222.93s2.83-4.2,5.523-3.4c2.374.7,3.639,1.654,3.554,3.111s-1.675,2.376-5.056,2.527S764.179,222.93,764.179,222.93Z" transform="translate(-739.782 -196.362)" fill="#e93812"/>
        <path id="Trazado_239977" data-name="Trazado 239977" d="M778.4,227.141c-.778.434-.462,1.231.086,2.329a12.987,12.987,0,0,1,1.067,2.953c.282,1.336.638,2.966.638,2.966a28.847,28.847,0,0,0,.52-3.666C780.842,229.849,779.7,226.418,778.4,227.141Z" transform="translate(-746.21 -199.919)" fill="#f5c602"/>
        <path id="Trazado_239978" data-name="Trazado 239978" d="M751.585,225.474a9.484,9.484,0,0,0-4.869,0,16.027,16.027,0,0,0-5.168,3.006,19.894,19.894,0,0,1,4.331-1.663,22.343,22.343,0,0,1,5.128,0Z" transform="translate(-729.208 -199.037)" fill="#f5c602"/>
        <path id="Trazado_239979" data-name="Trazado 239979" d="M766.178,224.394a5.093,5.093,0,0,1,3.043-2.21c1.787-.226,1.835.885,1.139,1.932a5.808,5.808,0,0,1-3.208,1.959Z" transform="translate(-740.716 -197.635)" fill="#ff8071" opacity="0.4"/>
        <path id="Trazado_239980" data-name="Trazado 239980" d="M754.85,228.169s2.83-4.2,5.523-3.4c2.374.7,3.639,1.654,3.554,3.111s-1.675,2.377-5.056,2.527S754.85,228.169,754.85,228.169Z" transform="translate(-735.423 -198.81)" fill="#d22305"/>
        <path id="Trazado_239981" data-name="Trazado 239981" d="M757.71,228.6a5.1,5.1,0,0,1,3.043-2.21c1.787-.225,1.835.886,1.14,1.933a5.808,5.808,0,0,1-3.208,1.959Z" transform="translate(-736.759 -199.599)" fill="#ff4324" opacity="0.5"/>
        <path id="Trazado_239982" data-name="Trazado 239982" d="M750.424,229.866c-1.38.977-3.959,4.067-2.05,5.22s5.012.47,6.8-.658c1.942-1.223,2.1-2.977,0-4.411S752.042,228.721,750.424,229.866Z" transform="translate(-732.08 -200.822)" fill="#e93812"/>
        <path id="Trazado_239983" data-name="Trazado 239983" d="M734.22,236.888a30.746,30.746,0,0,0-5.3.676c-5.036,1.323-10.54,5.137-10.54,5.137s2.431-1.181,6.179-2.655a20.07,20.07,0,0,1,7.242-1.755c1.06-.089,2.055-.184,2.706-.249C734.987,237.993,734.826,236.849,734.22,236.888Z" transform="translate(-718.384 -204.519)" fill="#d22305"/>
        <path id="Trazado_239984" data-name="Trazado 239984" d="M743.98,239.039c-.515,1.365-.357,2.159-1.542,4.226-1,1.747-5.882,5.889-5.882,5.889s5.246-2.98,6.787-5.12a7.411,7.411,0,0,0,1.669-4.535C744.987,238.578,744.08,238.775,743.98,239.039Z" transform="translate(-726.875 -205.422)" fill="#d22305"/>
        <path id="Trazado_239985" data-name="Trazado 239985" d="M768.825,232.446c-.771.43-.458,1.218.085,2.306a6.917,6.917,0,0,1,.543,3.51c-.127.765-.509,2.247-.509,2.247a5.658,5.658,0,0,0,1.673-3.289C770.745,235.366,770.109,231.73,768.825,232.446Z" transform="translate(-741.738 -202.401)" fill="#f5c602"/>
      </g>
      <g id="Grupo_117575" data-name="Grupo 117575" transform="translate(692.09 204.137)">
        <path id="Trazado_239986" data-name="Trazado 239986" d="M806.745,239.5s-3.251-3.549-2.6-6.453,3.9-6.689,3.9-6.689.914.335.354,2.206-2.464,3.875-2.464,4.792c0,2.379,2.074,5.432,2.074,5.432Z" transform="translate(-778.325 -226.359)" fill="#d22305"/>
        <path id="Trazado_239987" data-name="Trazado 239987" d="M782.937,244.683s3.566-1.22,5.872-1.786c3.383-.832,11.573,1.053,11.573,1.053l-1.508,2.169s-6.9-1.678-10.065-1.35A44.538,44.538,0,0,1,782.937,244.683Z" transform="translate(-772.761 -230.659)" fill="#d22305"/>
        <path id="Trazado_239988" data-name="Trazado 239988" d="M788.684,259.7s-7.813.991-10.361,2.348a35.753,35.753,0,0,0-9.2,6.961s3.288-1.886,7.09-3.906a15.844,15.844,0,0,1,8.2-2.25c1.2-.013,4.674-.293,4.674-.293Z" transform="translate(-769.123 -235.141)" fill="#d22305"/>
        <path id="Trazado_239989" data-name="Trazado 239989" d="M809.081,269.217a23.91,23.91,0,0,1,1.777,6.555c.312,3.481-4.371,10.8-4.239,11.54s5.3-6.635,6.183-9.961-1.524-8.135-1.524-8.135S811.459,268.069,809.081,269.217Z" transform="translate(-778.998 -237.512)" fill="#e93812"/>
        <path id="Trazado_239990" data-name="Trazado 239990" d="M818.641,269.217s.431,4.9,2.506,6.359,5.194,2.459,6.857,5.366c.574,1,1.87,4.13,1.87,4.13S830.914,280,828,277.79s-5.326-3.449-6.029-5.575-.41-3.519-.829-3.509S818.641,269.217,818.641,269.217Z" transform="translate(-782.165 -237.512)" fill="#e93812"/>
        <path id="Trazado_239991" data-name="Trazado 239991" d="M830.776,264.1s.733,4.548,2.506,6.36c2.569,2.625,4.6,2.625,6.857,5.365.736.892,3.118,3.773,3.118,3.773s-.208-4.711-3.118-6.925-5.326-3.448-6.029-5.574-.409-3.52-.828-3.509S830.776,264.1,830.776,264.1Z" transform="translate(-785.361 -236.163)" fill="#e93812"/>
        <path id="Trazado_239992" data-name="Trazado 239992" d="M837.134,260.438a15.915,15.915,0,0,0,8.853,1.878c5.715-.636,15.149-1.232,15.149-1.232s-.518-1.747-5.3-1.747-10.213,1.276-14.215-.023a12.743,12.743,0,0,1-2.91-1.369S836.8,258.01,837.134,260.438Z" transform="translate(-787.025 -234.678)" fill="#e93812"/>
        <path id="Trazado_239993" data-name="Trazado 239993" d="M774.794,254.967a13.069,13.069,0,0,1,5.284-3.165c2.27-.679,6.431.77,8.409.683a35.435,35.435,0,0,0,4.739-.683l-.818,2.437a11.912,11.912,0,0,1-4.955.208,35.429,35.429,0,0,0-6.855-1.062A27.145,27.145,0,0,0,774.794,254.967Z" transform="translate(-770.617 -233.012)" fill="#d22305"/>
        <g id="Grupo_117573" data-name="Grupo 117573" transform="translate(18.943 7.708)">
          <path id="Trazado_239994" data-name="Trazado 239994" d="M800.6,259.447c.952.316,9.5.845,17.6-2.259,6.392-2.448,10.274-5.97,11.7-10.19-2.532-7.122-12.355-13.906-22.651-7.8-15.456,9.166-13.2,17.918-10.395,21.154A4.559,4.559,0,0,1,800.6,259.447Z" transform="translate(-794.839 -236.824)" fill="#e93812"/>
          <path id="Trazado_239995" data-name="Trazado 239995" d="M828.07,260.025c2.713-2.82,3.827-5.816,2.557-9.39-1.429,4.221-5.311,7.743-11.7,10.19-8.107,3.1-16.649,2.575-17.6,2.259a4.559,4.559,0,0,0-3.741.905l0,0C804.477,267.059,821.626,266.721,828.07,260.025Z" transform="translate(-795.562 -240.461)" fill="#d22305"/>
        </g>
        <path id="Trazado_239996" data-name="Trazado 239996" d="M797.949,251.063s6.291-9.939,15.242-11.069,9.191,4.437,5.707,9.68c-4.919,7.4-16.07,9.812-16.07,9.812Z" transform="translate(-776.715 -229.911)" fill="#ff4324"/>
        <g id="Grupo_117574" data-name="Grupo 117574" transform="translate(9.967 15.861)">
          <path id="Trazado_239997" data-name="Trazado 239997" d="M793.383,260.943s3.088-9.376,6.526-11.792c5.231-3.676,11.13,1.451,9.758,5.694-2.173,6.722-9.332,9.35-9.332,9.35Z" transform="translate(-785.479 -247.891)" fill="#282828"/>
          <path id="Trazado_239998" data-name="Trazado 239998" d="M795.678,259.349s2.493-5.777,5.262-7.915a4.034,4.034,0,0,1,6.2,4.47c-1.15,3.951-6.2,6.822-6.2,6.822Z" transform="translate(-786.084 -248.622)" fill="#424242" opacity="0.5"/>
          <path id="Trazado_239999" data-name="Trazado 239999" d="M791.528,264.322s-1.264,0-1.264,1.572c0,.84.614.879.614.879Z" transform="translate(-784.658 -252.219)" fill="#282828"/>
          <path id="Trazado_240000" data-name="Trazado 240000" d="M790.455,266.38c.578-2.027,1.814-6.359,6.928-3.845,6.653,3.271,1.192,9.253-2.451,8.658C790.1,270.4,789.961,268.117,790.455,266.38Z" transform="translate(-784.658 -251.547)" fill="#424242"/>
          <path id="Trazado_240001" data-name="Trazado 240001" d="M788.155,268.573a10.2,10.2,0,0,0-3.949,2.931c-2.364,2.578-1.325,3.45-1.325,3.45l6.982-4.034a.92.92,0,0,0,.214-1.327A2.442,2.442,0,0,0,788.155,268.573Z" transform="translate(-782.654 -253.333)" fill="#e93812"/>
          <path id="Trazado_240002" data-name="Trazado 240002" d="M791.521,271.116c-1.281.28-7.968,4.763-7.968,4.763s.824.941,4.293.294a15.032,15.032,0,0,0,5.88-2.514,1.705,1.705,0,0,0-.263-1.83A2.537,2.537,0,0,0,791.521,271.116Z" transform="translate(-782.89 -254.001)" fill="#e93812"/>
          <path id="Trazado_240003" data-name="Trazado 240003" d="M800.473,268.324c-1.5.239-2.183,1.926-1.507,2.34s2.56.1,2.724-.858C801.876,268.721,801.512,268.158,800.473,268.324Z" transform="translate(-786.881 -253.265)" fill="#282828"/>
        </g>
      </g>
      <g id="Grupo_117581" data-name="Grupo 117581" transform="translate(550.112 143.02)">
        <path id="Trazado_240004" data-name="Trazado 240004" d="M553.449,208.626a7.855,7.855,0,0,0,1.064-1.83l-2.087.733a5.686,5.686,0,0,0,.579-.942,1.953,1.953,0,0,1-.2.164c-2.346,1.624-4.586,1.628-5.455,2.035s-1.082.925.087.736a2.771,2.771,0,0,1,1.514,0,2.484,2.484,0,0,0-1.428,1.342c-.478,1.065.21.822.989.346,1-.611,1.5-.494,1.5-.494s-.68.62-1.1,1.056c-.626.649-.043.586,1.1.2.442-.148,1.3-.615,1.929-.765a14.485,14.485,0,0,0,3.446-1.458,6.9,6.9,0,0,0,.222-1.592S553.882,208.81,553.449,208.626Z" transform="translate(-533.373 -174.897)" fill="#ff8c71"/>
        <path id="Trazado_240005" data-name="Trazado 240005" d="M571.219,200.332s-2.993-3.467-8.243-.842a67.354,67.354,0,0,0-7.5,4.807l1.894,4.958,7.074-1.911Z" transform="translate(-533.856 -174.456)" fill="#494949"/>
        <path id="Trazado_240006" data-name="Trazado 240006" d="M603.577,213.869a37.056,37.056,0,0,0-3.323,3.023c-.631.811-.267,1.187.546.792a10.838,10.838,0,0,0,1.482-.857,15.576,15.576,0,0,0-.748,2.365c-.177,1.2.225.962.887.362a19.247,19.247,0,0,0,1.831-2.313s-.059,1.067-.118,1.951c-.09,1.348.791.947,1.241,0,.565-1.192.357-3.011,5.1-5.323s7.341-3.778,6.129-5.4a7.335,7.335,0,0,0-2.431-2.2Z" transform="translate(-536.282 -174.88)" fill="#ff8c71"/>
        <path id="Trazado_240007" data-name="Trazado 240007" d="M552.827,201.1a8.022,8.022,0,0,1,2.408-4.6l-.4-1.225s-2.61.883-3.49,4.6c-1.376,5.8,3.656,10.672,3.656,10.672l.794-.531C554.921,208.621,552.3,204.148,552.827,201.1Z" transform="translate(-533.618 -174.279)" fill="#ffb7a9"/>
        <path id="Trazado_240008" data-name="Trazado 240008" d="M555.33,196.57a8.022,8.022,0,0,0-2.408,4.6c-.53,3.046,2.094,7.519,2.971,8.909l3.128-2.094Z" transform="translate(-533.713 -174.35)" fill="#ff8c71"/>
        <g id="Grupo_117576" data-name="Grupo 117576" transform="translate(73.876 0)">
          <path id="Trazado_240009" data-name="Trazado 240009" d="M629.883,189.734c6.926-3.9,21.335-11.818,30.5-13.945a72.371,72.371,0,0,1,17.329-1.673A42.473,42.473,0,0,0,664,173.254c-6.958.581-23.764,7.5-31.828,12.106s-21.424,3.346-21.424,3.346v7.479l.318-.031.57-2.639C611.992,193.634,622.958,193.634,629.883,189.734Z" transform="translate(-610.749 -173.068)" fill="#ffb7a9"/>
          <path id="Trazado_240010" data-name="Trazado 240010" d="M662.466,176.912a70.509,70.509,0,0,1,19.655-1.182,18.891,18.891,0,0,0-4.393-1.555,72.371,72.371,0,0,0-17.329,1.673c-9.163,2.127-23.571,10.045-30.5,13.945s-17.891,3.9-18.246,3.782l-.57,2.639c2.138-.217,14.711-1.656,21.106-5.963C637.023,187,654.618,178.63,662.466,176.912Z" transform="translate(-610.767 -173.128)" fill="#ff8c71"/>
        </g>
        <g id="Grupo_117577" data-name="Grupo 117577" transform="translate(18.08 4.837)">
          <path id="Trazado_240011" data-name="Trazado 240011" d="M581.183,216.233c5.429-4.183,9.658-3.152,16.119-4.9s8.485-3.664,8.485-3.664-3.307-.365-4.1-1.831c1.266,0,4.3.458,5.841.177a10.486,10.486,0,0,0,3.968-1.949s-2.974.013-4.254-1.738a8.026,8.026,0,0,0,6.677-1.477c1.365-1.069.8-3.668,2.795-5.658a8.643,8.643,0,0,1,.764-3.914c-.12-.452-1.605-1.144-1.772-1.594a2.631,2.631,0,0,0,1.772-.926,16.671,16.671,0,0,1-3.218-1.949,9.1,9.1,0,0,0,1.642-.887s-4.673-2.024-8.3-3.523c-4-1.653-6.185-3.151-13.2-3.782-4.366-.392-11.542.689-12.447,1.871a11.458,11.458,0,0,0,.473-2.3s-5.889,4.473-6.771,5.694a7.2,7.2,0,0,0-.2-2.048,52.611,52.611,0,0,0-3.373,4.621c-2.431,4.487-2.458,5.784-4.668,9.115a7.276,7.276,0,0,0-1.076-1.966s0,2.482-2.884,4.9c-11.1,9.323-11.724,28-11.724,28a38.865,38.865,0,0,0,12,0c.118-.016.243-.044.362-.063,1.34-2.172,2.372-3.725,2.372-3.725C567.64,223.156,575.755,220.414,581.183,216.233Z" transform="translate(-551.732 -178.184)" fill="#606060"/>
          <path id="Trazado_240012" data-name="Trazado 240012" d="M603.895,213.344c7.3-2.73,13.231-10.354,13.485-15.228.034-.641.032-1.294.046-1.947-1.99,1.99-2.191,4.4-3.555,5.465a8.412,8.412,0,0,1-6.917,1.144c1.28,1.752,4.4,2.287,4.4,2.287a11.863,11.863,0,0,1-3.668,1.393,43.739,43.739,0,0,1-6.09-.063c.794,1.465,3.837,2.2,3.837,2.2s-1.8,1.515-8.265,3.268-9.846.373-15.274,4.556-13.537,7.723-14.706,7.286c0,0-1.032,1.553-2.372,3.725,7.215-1.128,17.027-6.833,20.257-8.883C588.353,216.458,596.59,216.075,603.895,213.344Z" transform="translate(-552.446 -179.166)" fill="#494949"/>
        </g>
        <g id="Grupo_117578" data-name="Grupo 117578" transform="translate(11.829 29.527)">
          <path id="Trazado_240013" data-name="Trazado 240013" d="M559.139,229.345c4.236-1.412,9.511-5.273,9.639-8.638.112-2.941.975-6.317,2.239-7.521-.575-2.613-1.608-4.542-3.22-5.636-1.037-.7-3.375-3.1-5.18-3.251a5.012,5.012,0,0,0,.926,1.557,8.54,8.54,0,0,0-3.624-.827,3.319,3.319,0,0,0,1.418,1.134s-1.7.318-3.161.607c-3.481.692-8.72,10.864-11.014,14.8a12.423,12.423,0,0,0-2.04,5.664,12.372,12.372,0,0,1,4.029,1.137A12.589,12.589,0,0,0,559.139,229.345Z" transform="translate(-545.12 -204.299)" fill="#757575"/>
          <path id="Trazado_240014" data-name="Trazado 240014" d="M548.514,232.127c4.964,2.037,18.722-1.682,21.534-9.527a16.136,16.136,0,0,0,.968-8.9c-1.264,1.2-2.127,4.58-2.239,7.521-.128,3.366-5.4,7.226-9.639,8.638a12.589,12.589,0,0,1-9.99-.973,12.371,12.371,0,0,0-4.028-1.137C545.1,229.541,546,231.1,548.514,232.127Z" transform="translate(-545.12 -204.812)" fill="#606060"/>
        </g>
        <g id="Grupo_117579" data-name="Grupo 117579" transform="translate(32.688 31.391)">
          <path id="Trazado_240015" data-name="Trazado 240015" d="M570.944,207.7a30.248,30.248,0,0,0-3.761,6.48l.442.9a4.768,4.768,0,0,0,2.261-2.486c.958-2.393,2.3-4.308,3.542-4.117s1.628,1.61,1.054,3.486a12.733,12.733,0,0,1-3.161,4.617,23.27,23.27,0,0,0-2.043,2.609,2.626,2.626,0,0,0,.7,1.622,21.729,21.729,0,0,1,1.734-3.044c.419-.648,4.733-2.395,4.769-6.209S573.735,204.2,570.944,207.7Z" transform="translate(-567.183 -206.27)" fill="#ffb7a9"/>
          <path id="Trazado_240016" data-name="Trazado 240016" d="M574.508,212.092c.574-1.876.191-3.294-1.054-3.486s-2.585,1.724-3.542,4.117a4.767,4.767,0,0,1-2.261,2.486l.365.744a3.79,3.79,0,0,0,2.478-1.152c-.115,1.311-.939,1.769-1.612,3.042a4.246,4.246,0,0,1,.424,1.476,23.287,23.287,0,0,1,2.043-2.609A12.734,12.734,0,0,0,574.508,212.092Z" transform="translate(-567.208 -206.397)" fill="#ff8c71"/>
        </g>
        <path id="Trazado_240017" data-name="Trazado 240017" d="M559.378,222.9s1.382-3.8,3.33-3.9c1.552-.078,2.834,1.356.906,3.268C562.036,223.838,559.378,222.9,559.378,222.9Z" transform="translate(-534.069 -175.574)" fill="#3a3a3a"/>
        <path id="Trazado_240018" data-name="Trazado 240018" d="M549.112,229.606c-1.15-1.747-2.868-3.456-3.891-2.357-.993,1.066-1.341,2.336.9,4.05C547.6,232.434,549.112,229.606,549.112,229.606Z" transform="translate(-533.254 -176.006)" fill="#ff8c71"/>
        <path id="Trazado_240019" data-name="Trazado 240019" d="M562.745,219.7c-.685,0-1.359,1.2-.631,1.627s1.781-.144,1.733-.813S563.368,219.7,562.745,219.7Z" transform="translate(-534.201 -175.612)" fill="#888"/>
        <path id="Trazado_240020" data-name="Trazado 240020" d="M551.317,230.763a.487.487,0,1,1-.487-.486A.487.487,0,0,1,551.317,230.763Z" transform="translate(-533.576 -176.19)" fill="#3a3a3a"/>
        <path id="Trazado_240021" data-name="Trazado 240021" d="M554.048,231.421a.486.486,0,1,1-.487-.487A.487.487,0,0,1,554.048,231.421Z" transform="translate(-533.725 -176.226)" fill="#3a3a3a"/>
        <ellipse id="Elipse_5582" data-name="Elipse 5582" cx="0.487" cy="0.487" rx="0.487" ry="0.487" transform="translate(19.35 52.31)" fill="#3a3a3a"/>
        <path id="Trazado_240022" data-name="Trazado 240022" d="M539.732,224.4a35.444,35.444,0,0,0-6.9.336,75.287,75.287,0,0,1,7.764.008,53.953,53.953,0,0,1,6.191.906v-.522A67.551,67.551,0,0,0,539.732,224.4Z" transform="translate(-532.62 -175.867)" fill="#3a3a3a"/>
        <path id="Trazado_240023" data-name="Trazado 240023" d="M541.273,221.958a35.368,35.368,0,0,0-6.793-1.269,75.151,75.151,0,0,1,7.551,1.8,54.093,54.093,0,0,1,5.814,2.313l.12-.508A67.634,67.634,0,0,0,541.273,221.958Z" transform="translate(-532.71 -175.666)" fill="#3a3a3a"/>
        <path id="Trazado_240024" data-name="Trazado 240024" d="M539.377,226.067a35.454,35.454,0,0,0-6.769,1.391,74.947,74.947,0,0,1,7.673-1.183,54.115,54.115,0,0,1,6.257-.054l-.08-.516A67.863,67.863,0,0,0,539.377,226.067Z" transform="translate(-532.608 -175.94)" fill="#3a3a3a"/>
        <path id="Trazado_240025" data-name="Trazado 240025" d="M558.782,233.94a14.053,14.053,0,0,0-3.487-3.813c-.079-.07-.283-.28-.5-.063-.179.178,0,.358.079.429a15.232,15.232,0,0,1,3.636,3.835,31.954,31.954,0,0,1,3.217,6.436A19.551,19.551,0,0,0,558.782,233.94Z" transform="translate(-533.815 -176.173)" fill="#3a3a3a"/>
        <path id="Trazado_240026" data-name="Trazado 240026" d="M556.47,234.31a14.027,14.027,0,0,0-2.805-4.339c-.067-.081-.232-.322-.483-.146-.206.146-.063.353.007.436a15.248,15.248,0,0,1,2.949,4.387,31.968,31.968,0,0,1,2.1,6.881A19.558,19.558,0,0,0,556.47,234.31Z" transform="translate(-533.725 -176.162)" fill="#3a3a3a"/>
        <path id="Trazado_240027" data-name="Trazado 240027" d="M554.481,236.446a14.08,14.08,0,0,0-1.752-4.861c-.047-.095-.154-.367-.439-.251-.234.1-.142.329-.092.426a15.234,15.234,0,0,1,1.881,4.939,31.966,31.966,0,0,1,.495,7.178A19.545,19.545,0,0,0,554.481,236.446Z" transform="translate(-533.674 -176.246)" fill="#3a3a3a"/>
        <g id="Grupo_117580" data-name="Grupo 117580" transform="translate(33.613 37.734)">
          <path id="Trazado_240028" data-name="Trazado 240028" d="M585.732,215.3c-1.385-5.365-5.032-.146-6.974,2.956,0,0-1.572,10.235-3.885,12.346a5.716,5.716,0,0,1-.58.943l2.087-.734a7.853,7.853,0,0,1-1.064,1.83c.433.183,2.155-.466,2.155-.466a6.947,6.947,0,0,1-.222,1.591,16.675,16.675,0,0,0,1.7-1.091C582.969,229.7,586.856,219.652,585.732,215.3Z" transform="translate(-568.496 -212.98)" fill="#606060"/>
          <path id="Trazado_240029" data-name="Trazado 240029" d="M574.982,233.655a7.852,7.852,0,0,0,1.064-1.83l-2.087.734a5.708,5.708,0,0,0,.58-.943,1.917,1.917,0,0,1-.2.164c-2.346,1.625-4.587,1.628-5.455,2.036s-1.082.924.086.736a2.773,2.773,0,0,1,1.515,0,2.482,2.482,0,0,0-1.428,1.341c-.479,1.065.21.822.988.346,1-.611,1.5-.493,1.5-.493s-.681.621-1.1,1.056c-.626.65-.043.586,1.1.2.442-.149,1.3-.616,1.928-.766a14.5,14.5,0,0,0,3.447-1.458,6.953,6.953,0,0,0,.222-1.591S575.415,233.839,574.982,233.655Z" transform="translate(-568.161 -213.997)" fill="#ff8c71"/>
        </g>
        <path id="Trazado_240030" data-name="Trazado 240030" d="M574.928,199.787a56.806,56.806,0,0,1,4.2-7.04c1.594-1.942,4.76-2.446,4.76-2.446a45.123,45.123,0,0,1-3.5,4.4C579.064,196.006,574.928,199.787,574.928,199.787Z" transform="translate(-534.918 -174.008)" fill="#757575"/>
        <path id="Trazado_240031" data-name="Trazado 240031" d="M578.407,204.127a19.66,19.66,0,0,1,5.459-3.268,16.769,16.769,0,0,0,5.716-3.148c-.118,1.79-3.113,4.08-3.113,4.08a8.676,8.676,0,0,0,3.764-.949c1.359-.827,3.309-2.127,3.309-2.127a14.026,14.026,0,0,1-3.331,5.964,13.3,13.3,0,0,1-5.557,2.8l3.021-3.728S581.236,203.334,578.407,204.127Z" transform="translate(-535.107 -174.412)" fill="#757575"/>
        <path id="Trazado_240032" data-name="Trazado 240032" d="M595.383,203.774s1.832-2.11,3.427-2.465,3.782-.975,3.782-.975a4.964,4.964,0,0,1-2.6,2.4C598.337,203.2,595.383,203.774,595.383,203.774Z" transform="translate(-536.034 -174.556)" fill="#757575"/>
        <path id="Trazado_240033" data-name="Trazado 240033" d="M585.008,191.773a7.092,7.092,0,0,1,2.718-3.427,14.172,14.172,0,0,0,3.014-2.521s-.769,2.935-2.068,3.466A21.466,21.466,0,0,0,585.008,191.773Z" transform="translate(-535.468 -173.764)" fill="#757575"/>
        <path id="Trazado_240034" data-name="Trazado 240034" d="M608.908,186.429a26.479,26.479,0,0,1,4.29,1.654,8.3,8.3,0,0,0,4.377.749,3.193,3.193,0,0,1-3.786,1.258A17.148,17.148,0,0,1,608.908,186.429Z" transform="translate(-536.772 -173.797)" fill="#494949"/>
        <path id="Trazado_240035" data-name="Trazado 240035" d="M610.821,193.947s2.6-2.127,3.782-1.832a24.71,24.71,0,0,0,3.469.414,5.477,5.477,0,0,1-2.822.945A25.5,25.5,0,0,0,610.821,193.947Z" transform="translate(-536.876 -174.105)" fill="#494949"/>
      </g>
      <g id="Grupo_117583" data-name="Grupo 117583" transform="translate(586.031 215.211)">
        <path id="Trazado_240036" data-name="Trazado 240036" d="M709.213,181.14a11.483,11.483,0,0,1-.58-4.408c.315-1.7,1.618-1.414,2.2.388s1.32,3.758.908,3.663A14.1,14.1,0,0,0,709.213,181.14Z" transform="translate(-678.111 -165.697)" fill="#282828"/>
        <path id="Trazado_240037" data-name="Trazado 240037" d="M694.542,185.493c-.494-.693-2.639-6.2-4.43-6.64s-6.876,7.08-8.3,7.554c-3.72,1.238-10.451-1.586-11.424.926,1.964-.11,4.5.98,8.021.986s4.016.265,5.369-.812a57.737,57.737,0,0,0,6.132-6.594l2.566,6.121Z" transform="translate(-668.056 -166.549)" fill="#282828"/>
        <path id="Trazado_240038" data-name="Trazado 240038" d="M708.479,181.828a37.549,37.549,0,0,1,14-1.163c7.849.821,5.97,9.3.569,12.5s-17.767,3.1-17.767,3.1Z" transform="translate(-677.246 -166.979)" fill="#282828"/>
        <path id="Trazado_240039" data-name="Trazado 240039" d="M684.737,195.205s-2.183,3.635-3.131,4.938a17.261,17.261,0,0,1-6.895,4.211c-1.51.515-4.7.325-5.948.508-1.394.2-1.542.749-1.542.749s5.18,1.239,8.758-.25,6.587-3.109,8.937-6.759C686.482,196.169,684.737,195.205,684.737,195.205Z" transform="translate(-667.222 -170.86)" fill="#282828"/>
        <path id="Trazado_240040" data-name="Trazado 240040" d="M696.909,181.456s1.047-7.835,7.367-12.436,12.286-7.642,17.692-6.689c4.451.785-1.118,8.7-3.981,11.469s-8.837,6.3-8.837,6.3Z" transform="translate(-675.041 -162.156)" fill="#cbcbcb" opacity="0.5"/>
        <path id="Trazado_240041" data-name="Trazado 240041" d="M711.355,190.474a52.081,52.081,0,0,0,16.392-5.159c5.8-3.179,9.3-5.342,11.726-8.591,1.629-2.184.533-4.73-6.514-4.241s-10.255,0-19.149,4.021a68.712,68.712,0,0,0-8.527,4.571Z" transform="translate(-677.246 -164.86)" fill="#cbcbcb" opacity="0.5"/>
        <path id="Trazado_240042" data-name="Trazado 240042" d="M729.557,175.256a22.693,22.693,0,0,1-6.683,7.556,29.41,29.41,0,0,1-6.451,4.031l-.231-.936a66.912,66.912,0,0,0,6.1-3.706A45.745,45.745,0,0,0,729.557,175.256Z" transform="translate(-680.119 -165.606)" fill="#333"/>
        <path id="Trazado_240043" data-name="Trazado 240043" d="M715.626,189.663a121.4,121.4,0,0,0,11.6-4.448c3.85-1.9,9.621-4.188,12.147-6.059s2.711-3.662,2.711-3.662a18.329,18.329,0,0,1-4.115,3.662,79.9,79.9,0,0,1-12.881,6.177,86.535,86.535,0,0,1-8.632,2.522Z" transform="translate(-679.97 -165.669)" fill="#333"/>
        <path id="Trazado_240044" data-name="Trazado 240044" d="M703.7,180.584a16.711,16.711,0,0,1,5.232-6.938,35.875,35.875,0,0,1,9.471-4.5s-7.709,3.4-9.588,5.044a16.5,16.5,0,0,0-4.234,6.11Z" transform="translate(-676.83 -163.996)" fill="#333"/>
        <path id="Trazado_240045" data-name="Trazado 240045" d="M698.918,180.89a18.38,18.38,0,0,1,3.469-7.51,38.341,38.341,0,0,1,14.758-9.472,54.887,54.887,0,0,0-12,7.379,21.928,21.928,0,0,0-4.658,6.2,11.417,11.417,0,0,0-.542,2.829Z" transform="translate(-675.57 -162.618)" fill="#333"/>
        <g id="Grupo_117582" data-name="Grupo 117582" transform="translate(18.42 14.842)">
          <path id="Trazado_240046" data-name="Trazado 240046" d="M711.393,186.855a6.49,6.49,0,0,0-.326-1.12,5.269,5.269,0,0,0-1.417-2.041,4.983,4.983,0,0,0-.631-.468,6.2,6.2,0,0,0-2.876-.891,9.022,9.022,0,0,0-1.1-.023c-.171.007-.332.024-.5.036a13.2,13.2,0,0,0-12.314,10.618l4.078,5.539s7.679.788,12.18-3.174A9.407,9.407,0,0,0,711.393,186.855Z" transform="translate(-692.228 -182.305)" fill="#333"/>
        </g>
        <path id="Trazado_240047" data-name="Trazado 240047" d="M693.307,194.143s2.493-5.776,5.261-7.915a4.034,4.034,0,0,1,6.2,4.47c-1.15,3.951-6.2,6.822-6.2,6.822Z" transform="translate(-674.092 -168.294)" fill="#424242" opacity="0.7"/>
        <path id="Trazado_240048" data-name="Trazado 240048" d="M693.05,192.409c2.6.759,6.228,1,6.954,3.863s.09,4.624-2.939,6.468-6.075.351-6.7-1.545S688.707,191.141,693.05,192.409Z" transform="translate(-673.166 -170.089)" fill="#424242"/>
        <path id="Trazado_240049" data-name="Trazado 240049" d="M698.069,193.789c-1.2.386-2.6,4.092-1.355,6.322,1.165,2.091,4.073,2.467,5.26-.379C702.928,197.447,701.239,192.77,698.069,193.789Z" transform="translate(-674.862 -170.45)" fill="#e93812"/>
        <path id="Trazado_240050" data-name="Trazado 240050" d="M692.522,192.26a12.172,12.172,0,0,0-2.19,3.007,21.1,21.1,0,0,0-1.015,2.743,3.582,3.582,0,0,1-1.247-4.189C689.6,190.284,692.522,192.26,692.522,192.26Z" transform="translate(-672.637 -169.94)" fill="#e93812"/>
        <path id="Trazado_240051" data-name="Trazado 240051" d="M690.66,201.085a8.467,8.467,0,0,0-1.929,2.435c-.521,1.222.286,1.838.947.586.279-.529,1.343-1.637,1.659-2.359C691.207,201.371,691.165,201.07,690.66,201.085Z" transform="translate(-672.843 -172.409)" fill="#282828"/>
        <path id="Trazado_240052" data-name="Trazado 240052" d="M693.339,202.094a8.457,8.457,0,0,0-1.928,2.435c-.521,1.222.286,1.838.947.586.278-.529,1.342-1.637,1.659-2.359C693.885,202.38,693.844,202.079,693.339,202.094Z" transform="translate(-673.549 -172.675)" fill="#282828"/>
        <path id="Trazado_240053" data-name="Trazado 240053" d="M745.253,173.926a32.47,32.47,0,0,1-2.2,3.028c-1.156,1.377-3.69,4.6-3.69,4.6s1.036.058,1.047-.3,2.258-3.028,3.194-4.35A19.208,19.208,0,0,0,745.253,173.926Z" transform="translate(-686.222 -165.256)" fill="#333"/>
        <path id="Trazado_240054" data-name="Trazado 240054" d="M727.4,180.877c.166-.111,4.464-.951,6.773-2.313a30.95,30.95,0,0,0,4.984-3.965,57.005,57.005,0,0,1-6.278,3.909,13.645,13.645,0,0,1-4.378,1.267Z" transform="translate(-683.071 -165.433)" fill="#333"/>
        <path id="Trazado_240055" data-name="Trazado 240055" d="M713.923,167.516a43.106,43.106,0,0,0,4.915-.936c1.322-.44,4.736-2.147,4.736-2.147a16.145,16.145,0,0,1-4.563,2.7,51.3,51.3,0,0,1-6.141.964Z" transform="translate(-679.245 -162.756)" fill="#333"/>
        <path id="Trazado_240056" data-name="Trazado 240056" d="M713.683,172.922a19.888,19.888,0,0,0,5.382-.246,23.283,23.283,0,0,0,4.723-2.563,39.163,39.163,0,0,1-5.06,2.093,16.755,16.755,0,0,1-4.3.379Z" transform="translate(-679.459 -164.252)" fill="#333"/>
        <path id="Trazado_240057" data-name="Trazado 240057" d="M698.6,194.79c-1.2.111-1.927,2.289-1.613,3.19.589,1.691,1.9.616,3.045-1.338C700.772,195.377,699.523,194.7,698.6,194.79Z" transform="translate(-675.041 -170.749)" fill="#ff4324"/>
        <path id="Trazado_240058" data-name="Trazado 240058" d="M690.921,192.6c-.955-.243-2.308,1.335-2.365,2.237-.086,1.377.818,1.145,1.8-.323C691.259,193.156,691.806,192.822,690.921,192.6Z" transform="translate(-672.839 -170.167)" fill="#ff4324"/>
        <path id="Trazado_240059" data-name="Trazado 240059" d="M706.842,199.807c-.979-.227-2.412,1.252-2.349,3.262s1.967,2.72,2.349.388S708.271,200.137,706.842,199.807Z" transform="translate(-677.038 -172.066)" fill="#282828"/>
        <path id="Trazado_240060" data-name="Trazado 240060" d="M705.18,205.68c-.326.622.393,6.023.367,7.348s-.965,6-.691,7.539,3.5,6.673,5.89,6.982c.015-2.345-4.422-4.6-4.183-8,.152-2.161.969-4.653,1.08-6.017C707.925,210.071,707.165,201.893,705.18,205.68Z" transform="translate(-677.121 -173.361)" fill="#282828"/>
        <path id="Trazado_240061" data-name="Trazado 240061" d="M712.1,200.07a25.285,25.285,0,0,1,5.422-2.947c3.8-1.631,4.488-.791,2.654,1.132S714.513,200.38,712.1,200.07Z" transform="translate(-679.043 -171.137)" fill="#282828"/>
        <path id="Trazado_240062" data-name="Trazado 240062" d="M725.249,214.633c-2.2-2.313-5.467-2.89-5.775-5.229s-1.484-10.923-1.979-12.587-2.172-.794-4.676.966c-2.6,1.83-6.236,3.8-6.236,3.8a17.029,17.029,0,0,0,2.78-.245c1.788-.355,6.553-3.2,6.553-3.2-.7.6-.413,2.849.5,5.8s1.251,7.444,2.253,8.6,5.151,2.663,9.127,6.278C727.452,216.472,726.208,215.642,725.249,214.633Z" transform="translate(-677.588 -171.05)" fill="#282828"/>
        <path id="Trazado_240063" data-name="Trazado 240063" d="M727.044,195.166s6.282-1.57,7.489-1.989c2.1-.729,2.757.29,1.9,1.286-.685.794-3.976,2.359-5.788,2.883-4.087,1.182-5.363.245-5.363.245Z" transform="translate(-682.512 -170.261)" fill="#282828"/>
        <path id="Trazado_240064" data-name="Trazado 240064" d="M740.243,193.345c1.1.683,4.592,8.87,7.161,9.584s4.638-.1,7.67-.743,4.427,0,4.427,0-1.666,1.314-6.156,2.122-6.934,1-8.29.114c-2.533-1.66-6.124-9.707-6.124-9.707Z" transform="translate(-686.108 -170.37)" fill="#282828"/>
      </g>
    </g>
  </g>
</svg>
