<svg xmlns="http://www.w3.org/2000/svg" width="47.487" height="39.814" viewBox="0 0 47.487 39.814">
  <g id="Grupo_9" data-name="Grupo 9" transform="translate(-667 -547.715)">
    <g id="Grupo_1" data-name="Grupo 1" transform="translate(-268.876 132.859)">
      <path id="Trazado_213017" data-name="Trazado 213017" d="M941.726,454.383l-5.85-5.485c4.154-4.1,8.065-8.128,12.179-11.938,1.881-1.741,2-2.849.045-4.653-4.123-3.812-8.014-7.874-12.215-12.046l6.232-5.4,19.451,19.79Z" fill="#12263f"/>
      <path id="Trazado_213018" data-name="Trazado 213018" d="M984.338,454.753l-5.67-5.983c3.663-3.582,7.408-7.164,11.061-10.837,3.821-3.84,3.613-2.814-.058-6.524-3.6-3.635-7.293-7.171-10.969-10.772l5.934-5.609,19.591,19.775Z" transform="translate(-20.864 -0.083)" fill="#12263f"/>
    </g>
  </g>
</svg>
