<svg xmlns="http://www.w3.org/2000/svg" width="138" height="138" viewBox="0 0 138 138">
  <g id="Grupo_117209" data-name="Grupo 117209" transform="translate(-474 -2776)">
    <g id="Elipse_5564" data-name="Elipse 5564" transform="translate(474 2776)" fill="#fff" stroke="#44db9a" stroke-width="5">
      <circle cx="69" cy="69" r="69" stroke="none"/>
      <circle cx="69" cy="69" r="66.5" fill="none"/>
    </g>
    <g id="Grupo_117208" data-name="Grupo 117208" transform="translate(-330.182 2056.246)">
      <g id="Grupo_117203" data-name="Grupo 117203" transform="translate(835.439 740.416)">
        <g id="Grupo_117201" data-name="Grupo 117201" transform="translate(0.972 2.282)" opacity="0.4" style="mix-blend-mode: multiply;isolation: isolate">
          <path id="Trazado_239521" data-name="Trazado 239521" d="M1189.472,870.994a2.061,2.061,0,0,0-.513-.25l-3.3-1.08,0-.012-51.852-16.962a3.108,3.108,0,0,0-3.923,1.989l-24.9,77.652a3.153,3.153,0,0,0-.086.318,3.107,3.107,0,0,0,2.075,3.606l55.014,17.979a2.043,2.043,0,0,0,2.572-1.317l22.406-69.444,3.312-10.124a2.066,2.066,0,0,0-.807-2.353Z" transform="translate(-1104.831 -852.534)" fill="#aa8080"/>
        </g>
        <path id="Trazado_239522" data-name="Trazado 239522" d="M1134.618,883.586a2.043,2.043,0,0,1-2.572,1.317l-4.555-1.471L1076.518,866.7a3.112,3.112,0,0,1-1.561-3.385l25.477-78.9a3.119,3.119,0,0,1,2.024-1.18l57.072,18.428a2.064,2.064,0,0,1,.9,1.945l-3.4,10.532Z" transform="translate(-1074.888 -783.205)" fill="#fbda73"/>
        <g id="Grupo_117202" data-name="Grupo 117202" transform="translate(0 0.032)" opacity="0.4" style="mix-blend-mode: multiply;isolation: isolate">
          <path id="Trazado_239523" data-name="Trazado 239523" d="M1134.618,883.586a2.043,2.043,0,0,1-2.572,1.317l-4.555-1.471L1076.518,866.7a3.112,3.112,0,0,1-1.561-3.385l25.477-78.9a3.119,3.119,0,0,1,2.024-1.18l57.072,18.428a2.064,2.064,0,0,1,.9,1.945l-3.4,10.532Z" transform="translate(-1074.888 -783.237)" fill="#aa8080"/>
        </g>
        <path id="Trazado_239524" data-name="Trazado 239524" d="M1127.554,882.235a2.6,2.6,0,0,1-1.151-.108l-49.371-16.151a3.107,3.107,0,0,1-2.075-3.606,3.172,3.172,0,0,1,.086-.318l24.9-77.652a3.11,3.11,0,0,1,3.923-1.989l51.852,16.962,0,.012,3.3,1.08a2.064,2.064,0,0,1,1.32,2.6l-3.312,10.124-3.427,10.478a2.144,2.144,0,0,1-2.085,1.477l-2.6-.058a2.144,2.144,0,0,0-2.085,1.477l-17.126,53.89A2.611,2.611,0,0,1,1127.554,882.235Z" transform="translate(-1074.888 -782.257)" fill="#fbda73"/>
      </g>
      <g id="Grupo_117204" data-name="Grupo 117204" transform="translate(828.843 740.057)" opacity="0.4" style="mix-blend-mode: multiply;isolation: isolate">
        <rect id="Rectángulo_42778" data-name="Rectángulo 42778" width="62.391" height="86.573" transform="translate(0 12.236) rotate(-11.311)" fill="#aa8080"/>
      </g>
      <rect id="Rectángulo_42779" data-name="Rectángulo 42779" width="62.391" height="86.573" transform="translate(827.402 751.248) rotate(-11.311)" fill="#f3eae6"/>
      <g id="Grupo_117205" data-name="Grupo 117205" transform="translate(832.084 750.525)" opacity="0.5">
        <rect id="Rectángulo_42780" data-name="Rectángulo 42780" width="38.14" height="1.103" transform="translate(0 7.48) rotate(-11.311)" fill="#9b807f" opacity="0.2" style="mix-blend-mode: multiply;isolation: isolate"/>
        <rect id="Rectángulo_42781" data-name="Rectángulo 42781" width="38.14" height="1.103" transform="translate(0.316 9.062) rotate(-11.311)" fill="#9b807f" opacity="0.2" style="mix-blend-mode: multiply;isolation: isolate"/>
        <rect id="Rectángulo_42782" data-name="Rectángulo 42782" width="38.14" height="1.103" transform="translate(0.633 10.644) rotate(-11.311)" fill="#9b807f" opacity="0.2" style="mix-blend-mode: multiply;isolation: isolate"/>
        <rect id="Rectángulo_42783" data-name="Rectángulo 42783" width="38.14" height="1.103" transform="translate(1.173 13.347) rotate(-11.311)" fill="#9b807f" opacity="0.2" style="mix-blend-mode: multiply;isolation: isolate"/>
        <rect id="Rectángulo_42784" data-name="Rectángulo 42784" width="38.14" height="1.103" transform="translate(1.49 14.929) rotate(-11.311)" fill="#9b807f" opacity="0.2" style="mix-blend-mode: multiply;isolation: isolate"/>
        <rect id="Rectángulo_42785" data-name="Rectángulo 42785" width="38.14" height="1.103" transform="matrix(0.981, -0.196, 0.196, 0.981, 1.806, 16.511)" fill="#9b807f" opacity="0.2" style="mix-blend-mode: multiply;isolation: isolate"/>
        <rect id="Rectángulo_42786" data-name="Rectángulo 42786" width="54.139" height="1.103" transform="matrix(0.981, -0.196, 0.196, 0.981, 2.934, 22.2)" fill="#9b807f" opacity="0.2" style="mix-blend-mode: multiply;isolation: isolate"/>
        <rect id="Rectángulo_42787" data-name="Rectángulo 42787" width="54.139" height="1.103" transform="matrix(0.981, -0.196, 0.196, 0.981, 3.25, 23.782)" fill="#9b807f" opacity="0.2" style="mix-blend-mode: multiply;isolation: isolate"/>
        <rect id="Rectángulo_42788" data-name="Rectángulo 42788" width="54.139" height="1.103" transform="translate(3.567 25.364) rotate(-11.311)" fill="#9b807f" opacity="0.2" style="mix-blend-mode: multiply;isolation: isolate"/>
        <rect id="Rectángulo_42789" data-name="Rectángulo 42789" width="54.139" height="1.103" transform="matrix(0.981, -0.196, 0.196, 0.981, 4.107, 28.067)" fill="#9b807f" opacity="0.2" style="mix-blend-mode: multiply;isolation: isolate"/>
        <rect id="Rectángulo_42790" data-name="Rectángulo 42790" width="54.139" height="1.103" transform="matrix(0.981, -0.196, 0.196, 0.981, 4.424, 29.649)" fill="#9b807f" opacity="0.2" style="mix-blend-mode: multiply;isolation: isolate"/>
        <rect id="Rectángulo_42791" data-name="Rectángulo 42791" width="54.139" height="1.103" transform="translate(4.74 31.231) rotate(-11.311)" fill="#9b807f" opacity="0.2" style="mix-blend-mode: multiply;isolation: isolate"/>
        <rect id="Rectángulo_42792" data-name="Rectángulo 42792" width="54.139" height="1.103" transform="matrix(0.981, -0.196, 0.196, 0.981, 5.655, 35.808)" fill="#9b807f" opacity="0.2" style="mix-blend-mode: multiply;isolation: isolate"/>
        <rect id="Rectángulo_42793" data-name="Rectángulo 42793" width="54.139" height="1.103" transform="translate(5.972 37.39) rotate(-11.311)" fill="#9b807f" opacity="0.2" style="mix-blend-mode: multiply;isolation: isolate"/>
        <rect id="Rectángulo_42794" data-name="Rectángulo 42794" width="54.139" height="1.103" transform="matrix(0.981, -0.196, 0.196, 0.981, 6.288, 38.972)" fill="#9b807f" opacity="0.2" style="mix-blend-mode: multiply;isolation: isolate"/>
        <rect id="Rectángulo_42795" data-name="Rectángulo 42795" width="54.139" height="1.103" transform="matrix(0.981, -0.196, 0.196, 0.981, 6.829, 41.675)" fill="#9b807f" opacity="0.2" style="mix-blend-mode: multiply;isolation: isolate"/>
        <rect id="Rectángulo_42796" data-name="Rectángulo 42796" width="54.139" height="1.103" transform="translate(7.145 43.257) rotate(-11.311)" fill="#9b807f" opacity="0.2" style="mix-blend-mode: multiply;isolation: isolate"/>
        <rect id="Rectángulo_42797" data-name="Rectángulo 42797" width="54.139" height="1.103" transform="translate(7.462 44.839) rotate(-11.311)" fill="#9b807f" opacity="0.2" style="mix-blend-mode: multiply;isolation: isolate"/>
        <rect id="Rectángulo_42798" data-name="Rectángulo 42798" width="54.139" height="1.103" transform="translate(8.377 49.416) rotate(-11.311)" fill="#9b807f" opacity="0.2" style="mix-blend-mode: multiply;isolation: isolate"/>
        <rect id="Rectángulo_42799" data-name="Rectángulo 42799" width="54.139" height="1.103" transform="matrix(0.981, -0.196, 0.196, 0.981, 8.694, 50.997)" fill="#9b807f" opacity="0.2" style="mix-blend-mode: multiply;isolation: isolate"/>
        <rect id="Rectángulo_42800" data-name="Rectángulo 42800" width="54.139" height="1.103" transform="matrix(0.981, -0.196, 0.196, 0.981, 9.01, 52.579)" fill="#9b807f" opacity="0.2" style="mix-blend-mode: multiply;isolation: isolate"/>
        <rect id="Rectángulo_42801" data-name="Rectángulo 42801" width="54.139" height="1.103" transform="translate(9.551 55.283) rotate(-11.311)" fill="#9b807f" opacity="0.2" style="mix-blend-mode: multiply;isolation: isolate"/>
        <rect id="Rectángulo_42802" data-name="Rectángulo 42802" width="54.139" height="1.103" transform="translate(9.867 56.865) rotate(-11.311)" fill="#9b807f" opacity="0.2" style="mix-blend-mode: multiply;isolation: isolate"/>
        <rect id="Rectángulo_42803" data-name="Rectángulo 42803" width="54.139" height="1.103" transform="matrix(0.981, -0.196, 0.196, 0.981, 10.183, 58.446)" fill="#9b807f" opacity="0.2" style="mix-blend-mode: multiply;isolation: isolate"/>
        <rect id="Rectángulo_42804" data-name="Rectángulo 42804" width="17.469" height="1.103" transform="translate(10.998 62.038) rotate(-11.261)" fill="#9b807f" opacity="0.2" style="mix-blend-mode: multiply;isolation: isolate"/>
        <path id="Trazado_239525" data-name="Trazado 239525" d="M2322.788,3086.059l24.169-4.827-.109-.429-24.169,4.826Z" transform="translate(-2278.802 -3016.268)" fill="#9b807f" opacity="0.2" style="mix-blend-mode: multiply;isolation: isolate"/>
      </g>
      <rect id="Rectángulo_42805" data-name="Rectángulo 42805" width="14.153" height="14.613" transform="translate(871.069 748.614) rotate(-11.311)" fill="#9b807f" opacity="0.2" style="mix-blend-mode: multiply;isolation: isolate"/>
      <g id="Grupo_117206" data-name="Grupo 117206" transform="translate(862.702 810.972)" opacity="0.4">
        <path id="Trazado_239526" data-name="Trazado 239526" d="M1922.091,2954.929a8.4,8.4,0,1,0,9.1,7.637A8.4,8.4,0,0,0,1922.091,2954.929Zm1.36,15.517a7.173,7.173,0,1,1,6.52-7.772A7.173,7.173,0,0,1,1923.451,2970.446Z" transform="translate(-1914.421 -2954.896)" fill="#13afd4"/>
        <circle id="Elipse_5567" data-name="Elipse 5567" cx="5.534" cy="5.534" r="5.534" transform="translate(0.578 8.404) rotate(-45)" fill="#13afd4"/>
      </g>
      <g id="Grupo_117207" data-name="Grupo 117207" transform="translate(879.831 807.761)" opacity="0.5">
        <path id="Trazado_239527" data-name="Trazado 239527" d="M2441.89,2869.415c-.223-.183,2.063-2.4,3.968-4.136.366-.335.739-.668,1.108-1.008q.021-.269.061-.536a15.178,15.178,0,0,1,.914-3.641l.007-.016a8.535,8.535,0,0,1,1.255-2.315,5.56,5.56,0,0,1,2.107-1.647.689.689,0,0,1,1.1.49,4.492,4.492,0,0,1-.778,2.949,22.5,22.5,0,0,1-4.237,4.921,7.417,7.417,0,0,0,.05,1.377.441.441,0,0,0,.083.212,3.65,3.65,0,0,0,1.253-.518,9.569,9.569,0,0,0,1.158-.725c0-.005,0-.01,0-.015a3.959,3.959,0,0,1,.555-1.707,1.442,1.442,0,0,1,.573-.583.52.52,0,0,1,.546.019.548.548,0,0,1,.131.638,3.076,3.076,0,0,1-.614.986c-.242.29-.5.576-.758.852a.612.612,0,0,0,.03.192.2.2,0,0,0,.093.128c.131.051.428-.106.606-.2.051-.027.1-.053.145-.075a6.4,6.4,0,0,0,.781-.454,6.045,6.045,0,0,0,.523-.4,1.985,1.985,0,0,1,.058-.421,2.257,2.257,0,0,1,.213-.613,1.059,1.059,0,0,1,.54-.489.508.508,0,0,1,.391,0,.47.47,0,0,1,.243.531,1.151,1.151,0,0,1-.279.473c-.125.144-.262.276-.394.4l-.294.282-.013.012,0,.008c.007.022.083.033.173.015.7-.134,3.294-1.887,3.443-1.726.057.061-.005.135-.113.213s-.26.187-.427.309a9.488,9.488,0,0,1-2.82,1.638.59.59,0,0,1-.6-.165c-.122.1-.254.193-.4.292a6.855,6.855,0,0,1-.835.486c-.041.02-.085.044-.133.069a1.245,1.245,0,0,1-.973.221.61.61,0,0,1-.349-.393l0-.013a7.14,7.14,0,0,1-2.458,1.171.391.391,0,0,1-.3-.114.856.856,0,0,1-.22-.482,7.823,7.823,0,0,1-.065-1.016c-.262.239-.522.48-.787.713C2443.2,2868.209,2442.072,2869.565,2441.89,2869.415Zm9.448-6.523a.226.226,0,0,0-.076.023,1.044,1.044,0,0,0-.388.414,3.516,3.516,0,0,0-.384.9q.154-.174.3-.352a2.7,2.7,0,0,0,.533-.84.314.314,0,0,0,.02-.144Zm2.225.193a.218.218,0,0,0-.047.012.62.62,0,0,0-.307.29,1.41,1.41,0,0,0-.124.316c.106-.1.206-.2.3-.308a.9.9,0,0,0,.182-.276A.071.071,0,0,0,2453.563,2863.084Zm-1.843-6.621a.9.9,0,0,0-.246.063,5.144,5.144,0,0,0-1.936,1.525,8.213,8.213,0,0,0-1.182,2.2l-.007.016a14.776,14.776,0,0,0-.885,3.537v.007a21.019,21.019,0,0,0,3.788-4.477,4.1,4.1,0,0,0,.723-2.648.407.407,0,0,0-.055-.167A.226.226,0,0,0,2451.72,2856.463Z" transform="translate(-2441.875 -2856.02)" fill="#13afd4"/>
      </g>
    </g>
  </g>
</svg>
