<svg xmlns="http://www.w3.org/2000/svg" width="254.487" height="158" viewBox="0 0 254.487 158">
  <g id="Grupo_12" data-name="Grupo 12" transform="translate(-727 -453)">
    <g id="Grupo_2" data-name="Grupo 2" transform="translate(-1.876 132.859)">
      <path id="Trazado_213017" data-name="Trazado 213017" d="M941.726,454.383l-5.85-5.485c4.154-4.1,8.065-8.128,12.179-11.938,1.881-1.741,2-2.849.045-4.653-4.123-3.812-8.014-7.874-12.215-12.046l6.232-5.4,19.451,19.79Z" fill="#12263f"/>
      <path id="Trazado_213018" data-name="Trazado 213018" d="M984.338,454.753l-5.67-5.983c3.663-3.582,7.408-7.164,11.061-10.837,3.821-3.84,3.613-2.814-.058-6.524-3.6-3.635-7.293-7.171-10.969-10.772l5.934-5.609,19.591,19.775Z" transform="translate(-20.864 -0.083)" fill="#12263f"/>
    </g>
    <path id="Rect치ngulo_3" data-name="Rect치ngulo 3" d="M38,0H152a38,38,0,0,1,38,38v80a0,0,0,0,1,0,0H0a0,0,0,0,1,0,0V38A38,38,0,0,1,38,0Z" transform="translate(727 493)" fill="#28acd3" opacity="0.25"/>
    <path id="Trazado_239577" data-name="Trazado 239577" d="M50.742,14.315h-2.1V19H46V6.2h4.755a5.375,5.375,0,0,1,3.5,1.011,3.488,3.488,0,0,1,1.23,2.856,3.937,3.937,0,0,1-.567,2.184A3.866,3.866,0,0,1,53.2,13.647l2.769,5.229V19h-2.83Zm-2.1-2.136h2.127a2.178,2.178,0,0,0,1.538-.505,1.806,1.806,0,0,0,.545-1.393,1.933,1.933,0,0,0-.514-1.424,2.137,2.137,0,0,0-1.578-.519H48.641Zm13.061,7A4.668,4.668,0,0,1,58.3,17.893a4.561,4.561,0,0,1-1.314-3.419v-.246a5.745,5.745,0,0,1,.554-2.562A4.064,4.064,0,0,1,59.1,9.925a4.4,4.4,0,0,1,2.316-.611,3.947,3.947,0,0,1,3.072,1.23,5,5,0,0,1,1.121,3.489v1.037H59.557a2.36,2.36,0,0,0,.743,1.494,2.245,2.245,0,0,0,1.569.563,2.742,2.742,0,0,0,2.294-1.063l1.248,1.4a3.813,3.813,0,0,1-1.547,1.261A5.075,5.075,0,0,1,61.7,19.176Zm-.29-7.813a1.587,1.587,0,0,0-1.226.512,2.651,2.651,0,0,0-.6,1.466h3.533v-.2a1.891,1.891,0,0,0-.457-1.311A1.638,1.638,0,0,0,61.412,11.362ZM69.436,9.49l.079,1.063a3.342,3.342,0,0,1,2.733-1.239,2.536,2.536,0,0,1,2.522,1.45,3.265,3.265,0,0,1,2.856-1.45,2.836,2.836,0,0,1,2.3.9,4.141,4.141,0,0,1,.756,2.711V19H78.137V12.936a1.811,1.811,0,0,0-.316-1.182A1.4,1.4,0,0,0,76.7,11.38a1.585,1.585,0,0,0-1.582,1.09L75.131,19h-2.54V12.944a1.789,1.789,0,0,0-.325-1.2,1.416,1.416,0,0,0-1.107-.369,1.646,1.646,0,0,0-1.564.9V19h-2.54V9.49ZM85.318,19H82.769V9.49h2.549ZM82.62,7.029A1.251,1.251,0,0,1,83,6.089a1.648,1.648,0,0,1,2.079,0,1.244,1.244,0,0,1,.387.94,1.247,1.247,0,0,1-.391.949,1.629,1.629,0,0,1-2.065,0A1.247,1.247,0,0,1,82.62,7.029Zm7.831.123V9.49h1.626v1.863H90.451V16.1a1.133,1.133,0,0,0,.2.756,1.015,1.015,0,0,0,.773.229,4.051,4.051,0,0,0,.747-.062v1.925a5.229,5.229,0,0,1-1.538.229,2.425,2.425,0,0,1-2.725-2.7V11.354H86.522V9.49h1.389V7.152Zm7.418,12.023a4.668,4.668,0,0,1-3.406-1.283,4.561,4.561,0,0,1-1.314-3.419v-.246a5.745,5.745,0,0,1,.554-2.562,4.064,4.064,0,0,1,1.569-1.74,4.4,4.4,0,0,1,2.316-.611,3.947,3.947,0,0,1,3.072,1.23,5,5,0,0,1,1.121,3.489v1.037H95.724a2.36,2.36,0,0,0,.743,1.494,2.245,2.245,0,0,0,1.569.563,2.742,2.742,0,0,0,2.294-1.063l1.248,1.4a3.813,3.813,0,0,1-1.547,1.261A5.075,5.075,0,0,1,97.869,19.176Zm-.29-7.813a1.587,1.587,0,0,0-1.226.512,2.651,2.651,0,0,0-.6,1.466h3.533v-.2a1.891,1.891,0,0,0-.457-1.311A1.638,1.638,0,0,0,97.579,11.362Zm7.98-1.872.079,1.1a3.32,3.32,0,0,1,2.733-1.274,2.759,2.759,0,0,1,2.25.888,4.142,4.142,0,0,1,.756,2.654V19h-2.54V12.918a1.648,1.648,0,0,0-.352-1.173,1.574,1.574,0,0,0-1.169-.365,1.747,1.747,0,0,0-1.608.914V19h-2.54V9.49Zm10.784-2.338V9.49h1.626v1.863h-1.626V16.1a1.133,1.133,0,0,0,.2.756,1.015,1.015,0,0,0,.773.229,4.051,4.051,0,0,0,.747-.062v1.925a5.229,5.229,0,0,1-1.538.229,2.425,2.425,0,0,1-2.725-2.7V11.354h-1.389V9.49H113.8V7.152Zm7.418,12.023a4.668,4.668,0,0,1-3.406-1.283,4.561,4.561,0,0,1-1.314-3.419v-.246a5.745,5.745,0,0,1,.554-2.562,4.064,4.064,0,0,1,1.569-1.74,4.4,4.4,0,0,1,2.316-.611,3.947,3.947,0,0,1,3.072,1.23,5,5,0,0,1,1.121,3.489v1.037h-6.056a2.36,2.36,0,0,0,.743,1.494,2.245,2.245,0,0,0,1.569.563,2.742,2.742,0,0,0,2.294-1.063l1.248,1.4a3.813,3.813,0,0,1-1.547,1.261A5.075,5.075,0,0,1,123.761,19.176Zm-.29-7.813a1.587,1.587,0,0,0-1.226.512,2.651,2.651,0,0,0-.6,1.466h3.533v-.2a1.891,1.891,0,0,0-.457-1.311A1.638,1.638,0,0,0,123.471,11.362Z" transform="translate(738 578.028)" fill="#12263f"/>
    <g id="Rect치ngulo_7" data-name="Rect치ngulo 7" transform="translate(763 453)" fill="#fff" stroke="#28acd3" stroke-width="4">
      <rect width="121" height="119" rx="59.5" stroke="none"/>
      <rect x="2" y="2" width="117" height="115" rx="57.5" fill="none"/>
    </g>
    <g id="Grupo_5" data-name="Grupo 5" transform="translate(1437.375 -4230.332)">
      <path id="Trazado_239553" data-name="Trazado 239553" d="M-602.378,4758.383l1.969.987a11.282,11.282,0,0,0,.588,11.215,10.878,10.878,0,0,0,6.357,4.766,11.275,11.275,0,0,0,13.375-6.1,11.111,11.111,0,0,0-3.428-13.612v2.067H-585.8c0-1.542-.038-3.065.031-4.584a1.209,1.209,0,0,1,.67-.886c1.5-.455,3.041-.8,4.659-1.215l.535,2.16-2.119.6c.247.229.424.392.6.556,4.187,3.906,5.674,8.674,4,14.139a12.81,12.81,0,0,1-11.161,9.44,13.378,13.378,0,0,1-15.118-11.6c-.1-.742-.509-.657-.984-.657h-34.826q-3.949,0-7.9,0c-1.223,0-1.582-.354-1.582-1.551q0-12,0-24c0-1.166.358-1.529,1.523-1.536,1.454-.009,2.908,0,4.363,0h.882v-.9c0-6.294-.01-12.589.019-18.883a3.224,3.224,0,0,1,.431-1.543c2-3.416,4.072-6.8,6.073-10.214a2.143,2.143,0,0,1,2.1-1.209q17.413.053,34.826.006a1.869,1.869,0,0,1,1.82,1.026c2.076,3.52,4.2,7.012,6.279,10.529a2.48,2.48,0,0,1,.342,1.2q.028,14.783.015,29.566v.545h-2.234v-29.257h-16.9c-.014.294-.039.583-.039.871,0,2.583-.016,5.166.006,7.749a1.44,1.44,0,0,1-.95,1.534,2.518,2.518,0,0,0-.537.27,2.914,2.914,0,0,1-3.728.063c-.2-.143-.6-.046-.893,0a1.376,1.376,0,0,0-.538.259,2.032,2.032,0,0,1-2.568-.031,1.526,1.526,0,0,0-1.926,0c-1.629,1.086-2.508.359-2.44-1.519.1-2.755.026-5.516.026-8.274v-.928h-16.869v18.456l.174.158c.688-.744,1.386-1.479,2.06-2.234a1.875,1.875,0,0,1,1.529-.636c3.31.021,6.619.006,9.929.011,3.119,0,4.861,2.305,4.047,5.334a1.46,1.46,0,0,0,0,.251c.269.018.55.052.831.052,2.683,0,5.368.078,8.048-.014a3.986,3.986,0,0,1,3.9,5.792.7.7,0,0,0-.04.212,4.073,4.073,0,0,1-.03,7.233,4.081,4.081,0,0,1,.051,3.872,4.054,4.054,0,0,1-3.055,2.089v3.338a2.489,2.489,0,0,0,.391.047c2.532,0,5.065-.011,7.6.013.542,0,.723-.162.785-.71A12.072,12.072,0,0,1-602.378,4758.383Zm-30.805-11.919h10.811c3.083,0,6.166,0,9.249,0a1.7,1.7,0,0,0,1.9-1.681,1.7,1.7,0,0,0-1.885-1.7c-.225-.006-.451,0-.677,0H-633.16v-2.261h.854c2.005,0,4.01,0,6.016,0,1.327,0,2.121-.654,2.107-1.711-.014-1.034-.793-1.665-2.076-1.667q-3.346-.005-6.693,0a8.513,8.513,0,0,0-3.12.116,7.517,7.517,0,0,0-2.327,2.192,3.011,3.011,0,0,1-2.63,1.1c-1.871-.077-3.748-.021-5.655-.021v22.563h.725q14.626,0,29.252,0a3.567,3.567,0,0,0,.821-.064,1.6,1.6,0,0,0,1.255-1.261,1.447,1.447,0,0,0-.618-1.65,2.835,2.835,0,0,0-1.4-.385c-5.214-.026-10.427-.017-15.641-.017h-.87v-2.26h19.642a6.287,6.287,0,0,0,.826-.021,1.674,1.674,0,0,0,1.474-1.714,1.646,1.646,0,0,0-1.488-1.617,7.694,7.694,0,0,0-.9-.025h-19.56v-2.264h.99q10.152,0,20.3,0a6.288,6.288,0,0,0,.974-.044,1.64,1.64,0,0,0,1.372-1.487,1.624,1.624,0,0,0-1.146-1.735,3.708,3.708,0,0,0-1.036-.108q-10.3-.009-20.6,0h-.866Zm-5.877-29.4h16.218l1.8-8.909a3.944,3.944,0,0,0-.432-.056c-3.91,0-7.82-.013-11.73.019a1.138,1.138,0,0,0-.782.511c-1.3,2.111-2.569,4.245-3.844,6.374C-638.23,4715.665-638.621,4716.327-639.06,4717.066Zm45.5.031a1.955,1.955,0,0,0-.1-.308c-1.659-2.774-3.31-5.553-5-8.31a1.062,1.062,0,0,0-.79-.365c-3.809-.024-7.619-.017-11.428-.014a6.021,6.021,0,0,0-.635.07l1.808,8.925Zm-27.179,2.316v8.316c1.03-.842,1.837-.234,2.638.208a1.156,1.156,0,0,0,1.375,0,2.412,2.412,0,0,1,3.108-.03,1.809,1.809,0,0,0,.335.169,1.074,1.074,0,0,0,1.51-.933q.009-3.606,0-7.212a4.429,4.429,0,0,0-.061-.515Zm2-11.28-1.806,8.945h8.522l-1.807-8.945Z" fill="#12263f"/>
      <path id="Trazado_239554" data-name="Trazado 239554" d="M-303.709,5059.463a8.161,8.161,0,0,1-7.305-5.059,7.514,7.514,0,0,1,1.688-8.477,7.593,7.593,0,0,1,8.442-1.869c.571.2,1.07.475,1.1,1.172.03.659-.42.947-.927,1.233a5.428,5.428,0,0,0-2.978,4.963,5.427,5.427,0,0,0,2.97,4.967c.531.3,1,.607.931,1.3a1.259,1.259,0,0,1-1.089,1.1C-301.814,5059.042-302.764,5059.242-303.709,5059.463Zm0-13.67a5.512,5.512,0,0,0-4.946,2.971,5.322,5.322,0,0,0,.388,5.947,5.5,5.5,0,0,0,4.548,2.349C-306.7,5053.271-306.709,5049.6-303.709,5045.793Z" transform="translate(-286.616 -286.911)" fill="#12263f"/>
      <path id="Trazado_239555" data-name="Trazado 239555" d="M-365.314,4841c1.6,0,3.206-.006,4.809,0,1.013,0,1.424.4,1.43,1.4q.015,2.593,0,5.185a1.148,1.148,0,0,1-1.286,1.311q-4.921.022-9.843,0c-.871,0-1.268-.428-1.275-1.32q-.022-2.63,0-5.26c.009-.916.426-1.307,1.359-1.312C-368.52,4841-366.917,4841-365.314,4841Zm-3.884,5.579h7.824v-3.269H-369.2Z" transform="translate(-235.764 -114.852)" fill="#12263f"/>
      <path id="Trazado_239556" data-name="Trazado 239556" d="M-358.8,4811.176v2.192h-12.334v-2.192Z" transform="translate(-236.073 -89.513)" fill="#12263f"/>
      <path id="Trazado_239557" data-name="Trazado 239557" d="M-328.306,5028.644l1.49,1.687-1.383,1.5-1.775-1.366Z" transform="translate(-271.039 -274.272)" fill="#12263f"/>
      <path id="Trazado_239558" data-name="Trazado 239558" d="M-272.795,5008.119l-2,.189-.415-2.213,2.41-.229Z" transform="translate(-317.57 -254.921)" fill="#12263f"/>
      <path id="Trazado_239559" data-name="Trazado 239559" d="M-304.539,5014.74l-1.177-1.915,2.2-1.1.816,2.1Z" transform="translate(-291.649 -259.901)" fill="#12263f"/>
    </g>
  </g>
</svg>
