<svg xmlns="http://www.w3.org/2000/svg" width="412.63" height="367.938" viewBox="0 0 412.63 367.938">
  <g id="Grupo_123214" data-name="Grupo 123214" transform="translate(-324.5 -9476.392)">
    <g id="Grupo_123147" data-name="Grupo 123147" transform="translate(-3050.559 9323.202)">
      <g id="Grupo_123021" data-name="Grupo 123021" transform="translate(3562.993 174.58)">
        <g id="Grupo_123004" data-name="Grupo 123004" transform="translate(0 0)">
          <g id="Grupo_122992" data-name="Grupo 122992" transform="translate(170.799 17.02)">
            <rect id="Rectángulo_43671" data-name="Rectángulo 43671" width="17.49" height="132.499" transform="translate(16.992 132.872) rotate(-166.302)" fill="#dca000"/>
          </g>
          <g id="Grupo_122993" data-name="Grupo 122993" transform="translate(150.718 38.826)">
            <rect id="Rectángulo_43672" data-name="Rectángulo 43672" width="17.49" height="132.499" transform="translate(17.49 132.499) rotate(180)" fill="#dca000"/>
          </g>
          <g id="Grupo_122994" data-name="Grupo 122994" transform="translate(115.175 31.704)">
            <rect id="Rectángulo_43673" data-name="Rectángulo 43673" width="17.49" height="132.499" transform="translate(34.851 131.336) rotate(172.404)" fill="#dca000"/>
          </g>
          <g id="Grupo_122995" data-name="Grupo 122995" transform="translate(98.053)">
            <rect id="Rectángulo_43674" data-name="Rectángulo 43674" width="17.49" height="132.499" transform="translate(34.851 131.336) rotate(172.404)" fill="#dca000"/>
          </g>
          <g id="Grupo_122996" data-name="Grupo 122996" transform="translate(99.324 16.258)">
            <rect id="Rectángulo_43675" data-name="Rectángulo 43675" width="17.49" height="132.499" transform="translate(17.48 133.008) rotate(-178.094)" fill="#dca000"/>
          </g>
          <g id="Grupo_122997" data-name="Grupo 122997" transform="translate(74.669 8.222)">
            <rect id="Rectángulo_43676" data-name="Rectángulo 43676" width="17.49" height="132.499" transform="translate(34.851 131.336) rotate(172.404)" fill="#dca000"/>
          </g>
          <g id="Grupo_122998" data-name="Grupo 122998" transform="translate(65.233 13.214)">
            <rect id="Rectángulo_43677" data-name="Rectángulo 43677" width="17.49" height="132.499" transform="translate(17.336 133.648) rotate(-172.404)" fill="#dca000"/>
          </g>
          <g id="Grupo_122999" data-name="Grupo 122999" transform="translate(172.185 34.258)">
            <rect id="Rectángulo_43678" data-name="Rectángulo 43678" width="17.49" height="132.499" transform="translate(27.325 132.13) rotate(175.722)" fill="#dca000"/>
          </g>
          <g id="Grupo_123000" data-name="Grupo 123000" transform="translate(41.075 13.253)">
            <rect id="Rectángulo_43679" data-name="Rectángulo 43679" width="17.49" height="132.499" transform="translate(17.25 133.569) rotate(-170.508)" fill="#dca000"/>
          </g>
          <g id="Grupo_123001" data-name="Grupo 123001" transform="translate(33.384 19.543)">
            <rect id="Rectángulo_43680" data-name="Rectángulo 43680" width="17.49" height="132.499" transform="translate(27.325 132.13) rotate(175.722)" fill="#dca000"/>
          </g>
          <g id="Grupo_123002" data-name="Grupo 123002" transform="translate(8.018 50.139)">
            <rect id="Rectángulo_43681" data-name="Rectángulo 43681" width="17.49" height="132.499" transform="translate(45.724 129.365) rotate(167.514)" fill="#dca000"/>
          </g>
          <g id="Grupo_123003" data-name="Grupo 123003" transform="translate(0 31.81)">
            <rect id="Rectángulo_43682" data-name="Rectángulo 43682" width="17.49" height="132.499" transform="translate(27.325 132.13) rotate(175.722)" fill="#dca000"/>
          </g>
        </g>
        <g id="Grupo_123014" data-name="Grupo 123014" transform="translate(0 16.632)">
          <g id="Grupo_123005" data-name="Grupo 123005" transform="translate(0 22.007)">
            <rect id="Rectángulo_43683" data-name="Rectángulo 43683" width="17.49" height="132.499" transform="translate(0 4.142) rotate(-13.698)" fill="#fece16"/>
          </g>
          <g id="Grupo_123006" data-name="Grupo 123006" transform="translate(47.807 21.619)">
            <rect id="Rectángulo_43684" data-name="Rectángulo 43684" width="17.49" height="132.499" transform="translate(17.514 0) rotate(7.596)" fill="#fece16"/>
          </g>
          <g id="Grupo_123007" data-name="Grupo 123007" transform="translate(56.051 18.2)">
            <rect id="Rectángulo_43685" data-name="Rectángulo 43685" width="17.49" height="132.499" transform="translate(56.251 0) rotate(25.121)" fill="#fece16"/>
          </g>
          <g id="Grupo_123008" data-name="Grupo 123008" transform="translate(98.053 0)">
            <rect id="Rectángulo_43686" data-name="Rectángulo 43686" width="17.49" height="132.499" transform="translate(17.514 0) rotate(7.596)" fill="#fece16"/>
          </g>
          <g id="Grupo_123009" data-name="Grupo 123009" transform="translate(19.082 15.071)">
            <rect id="Rectángulo_43687" data-name="Rectángulo 43687" width="17.49" height="132.499" transform="translate(17.514 0) rotate(7.596)" fill="#fece16"/>
          </g>
          <g id="Grupo_123010" data-name="Grupo 123010" transform="translate(137.542 10.737)">
            <rect id="Rectángulo_43688" data-name="Rectángulo 43688" width="17.49" height="132.499" fill="#fece16"/>
          </g>
          <g id="Grupo_123011" data-name="Grupo 123011" transform="translate(152.574 13.987)">
            <rect id="Rectángulo_43689" data-name="Rectángulo 43689" width="17.49" height="132.499" transform="translate(28.647 0) rotate(12.486)" fill="#fece16"/>
          </g>
          <g id="Grupo_123012" data-name="Grupo 123012" transform="translate(167.812 50.443)">
            <rect id="Rectángulo_43690" data-name="Rectángulo 43690" width="17.49" height="132.499" transform="translate(28.647 0) rotate(12.486)" fill="#fece16"/>
          </g>
          <g id="Grupo_123013" data-name="Grupo 123013" transform="translate(197.37 15.178)">
            <rect id="Rectángulo_43691" data-name="Rectángulo 43691" width="17.49" height="132.499" transform="translate(9.884 0) rotate(4.278)" fill="#fece16"/>
          </g>
        </g>
        <g id="Grupo_123020" data-name="Grupo 123020" transform="translate(4.645 118.604)">
          <g id="Grupo_123015" data-name="Grupo 123015">
            <path id="Trazado_247544" data-name="Trazado 247544" d="M4136.76,896.661h-37.895l-14.574-227.9h43.724Z" transform="translate(-4084.291 -668.763)" fill="#28acd3"/>
          </g>
          <g id="Grupo_123016" data-name="Grupo 123016" transform="translate(43.725)">
            <path id="Trazado_247545" data-name="Trazado 247545" d="M4291.959,896.661h-37.9l-8.744-227.9h43.724Z" transform="translate(-4245.32 -668.763)" fill="#fff"/>
          </g>
          <g id="Grupo_123017" data-name="Grupo 123017" transform="translate(87.449)">
            <path id="Trazado_247546" data-name="Trazado 247546" d="M4447.158,896.661h-37.895l-2.915-227.9h43.725Z" transform="translate(-4406.349 -668.763)" fill="#28acd3"/>
          </g>
          <g id="Grupo_123018" data-name="Grupo 123018" transform="translate(128.259)">
            <path id="Trazado_247547" data-name="Trazado 247547" d="M4594.537,896.661h-37.895l2.915-227.9h43.725Z" transform="translate(-4556.643 -668.763)" fill="#fff"/>
          </g>
          <g id="Grupo_123019" data-name="Grupo 123019" transform="translate(166.154)">
            <path id="Trazado_247548" data-name="Trazado 247548" d="M4734.1,896.661h-37.9l8.745-227.9h43.725Z" transform="translate(-4696.201 -668.763)" fill="#28acd3"/>
          </g>
        </g>
      </g>
      <g id="Grupo_123057" data-name="Grupo 123057" transform="translate(3492.799 199.151)">
        <g id="Grupo_123042" data-name="Grupo 123042" transform="translate(49.307 0)">
          <g id="Grupo_123022" data-name="Grupo 123022" transform="translate(7.15 5.189)">
            <path id="Trazado_247549" data-name="Trazado 247549" d="M4018,366.053c-1.4,7.694-1.406,15.564-1.41,23.384,0,8.24.038,16.726,3.171,24.347s10.167,14.249,18.407,14.317c6.446.053,12.455-3.95,16.094-9.27s5.2-11.8,5.9-18.21A78.712,78.712,0,0,0,4051,354.576c-3.709-6.763-11.806-15.988-20.607-12.078C4022.691,345.921,4019.333,358.744,4018,366.053Z" transform="translate(-4016.594 -341.565)" fill="#155bcd"/>
          </g>
          <g id="Grupo_123023" data-name="Grupo 123023" transform="translate(1.08 30.276)">
            <path id="Trazado_247550" data-name="Trazado 247550" d="M4004.583,436.256l-7.03-2.184a2.554,2.554,0,0,0-1.516,4.878l7.03,2.184a2.554,2.554,0,1,0,1.515-4.878Z" transform="translate(-3994.241 -433.956)" fill="#155bcd"/>
          </g>
          <g id="Grupo_123024" data-name="Grupo 123024" transform="translate(1.227 64.815)">
            <path id="Trazado_247551" data-name="Trazado 247551" d="M4003.042,561.375l-6.738,2.965a2.554,2.554,0,1,0,2.058,4.675l6.738-2.965a2.554,2.554,0,1,0-2.057-4.675Z" transform="translate(-3994.779 -561.158)" fill="#155bcd"/>
          </g>
          <g id="Grupo_123025" data-name="Grupo 123025" transform="translate(11.769 79.541)">
            <path id="Trazado_247552" data-name="Trazado 247552" d="M4037.1,616.823l-3.231,6.615a2.554,2.554,0,1,0,4.59,2.241l3.23-6.615a2.554,2.554,0,0,0-4.589-2.242Z" transform="translate(-4033.604 -615.39)" fill="#155bcd"/>
          </g>
          <g id="Grupo_123026" data-name="Grupo 123026" transform="translate(27.759 85.034)">
            <path id="Trazado_247553" data-name="Trazado 247553" d="M4092.493,638.284l.323,7.355a2.554,2.554,0,0,0,5.1-.224l-.323-7.354a2.554,2.554,0,0,0-5.1.224Z" transform="translate(-4092.491 -635.618)" fill="#155bcd"/>
          </g>
          <g id="Grupo_123027" data-name="Grupo 123027" transform="translate(38.977 79.44)">
            <path id="Trazado_247554" data-name="Trazado 247554" d="M4134,618.538l2.781,6.816a2.554,2.554,0,0,0,4.729-1.93l-2.781-6.816a2.554,2.554,0,1,0-4.729,1.93Z" transform="translate(-4133.805 -615.018)" fill="#155bcd"/>
          </g>
          <g id="Grupo_123028" data-name="Grupo 123028" transform="translate(43.396 74.321)">
            <path id="Trazado_247555" data-name="Trazado 247555" d="M4151.647,601.076l6.787,2.851a2.554,2.554,0,1,0,1.979-4.709l-6.787-2.851a2.554,2.554,0,1,0-1.978,4.709Z" transform="translate(-4150.081 -596.167)" fill="#155bcd"/>
          </g>
          <g id="Grupo_123029" data-name="Grupo 123029" transform="translate(0 48.232)">
            <path id="Trazado_247556" data-name="Trazado 247556" d="M4000.608,502.546l-6.984-2.328a2.554,2.554,0,1,0-1.615,4.846l6.984,2.328a2.554,2.554,0,0,0,1.615-4.846Z" transform="translate(-3990.261 -500.086)" fill="#155bcd"/>
          </g>
          <g id="Grupo_123030" data-name="Grupo 123030" transform="translate(4.39 15.344)">
            <path id="Trazado_247557" data-name="Trazado 247557" d="M4016.312,384.164l-5.722-4.632a2.554,2.554,0,0,0-3.214,3.97l5.722,4.632a2.554,2.554,0,0,0,3.214-3.97Z" transform="translate(-4006.428 -378.964)" fill="#155bcd"/>
          </g>
          <g id="Grupo_123031" data-name="Grupo 123031" transform="translate(11.196 4.011)">
            <path id="Trazado_247558" data-name="Trazado 247558" d="M4039.329,345.513l-2.938-6.749a2.554,2.554,0,1,0-4.683,2.039l2.938,6.749a2.554,2.554,0,0,0,4.683-2.039Z" transform="translate(-4031.494 -337.229)" fill="#155bcd"/>
          </g>
          <g id="Grupo_123032" data-name="Grupo 123032" transform="translate(27.081)">
            <path id="Trazado_247559" data-name="Trazado 247559" d="M4094.839,332.741l3.265-6.6a2.554,2.554,0,0,0-4.58-2.265l-3.264,6.6a2.554,2.554,0,0,0,4.579,2.264Z" transform="translate(-4089.995 -322.456)" fill="#155bcd"/>
          </g>
          <g id="Grupo_123033" data-name="Grupo 123033" transform="translate(37.007 9.725)">
            <path id="Trazado_247560" data-name="Trazado 247560" d="M4131.231,368.37l4.079-6.128a2.554,2.554,0,1,0-4.252-2.83l-4.079,6.128a2.554,2.554,0,0,0,4.252,2.83Z" transform="translate(-4126.551 -358.272)" fill="#155bcd"/>
          </g>
          <g id="Grupo_123034" data-name="Grupo 123034" transform="translate(45.241 33.563)">
            <path id="Trazado_247561" data-name="Trazado 247561" d="M4160.436,453.867l6.765-2.9a2.554,2.554,0,0,0-2.015-4.694l-6.765,2.9a2.554,2.554,0,0,0,2.014,4.694Z" transform="translate(-4156.874 -446.063)" fill="#155bcd"/>
          </g>
          <g id="Grupo_123035" data-name="Grupo 123035" transform="translate(45.022 55.263)">
            <path id="Trazado_247562" data-name="Trazado 247562" d="M4158.1,531.034l7.2,1.516a2.554,2.554,0,0,0,1.052-5l-7.2-1.516a2.554,2.554,0,0,0-1.051,5Z" transform="translate(-4156.068 -525.98)" fill="#155bcd"/>
          </g>
          <g id="Grupo_123041" data-name="Grupo 123041" transform="translate(12.454 23.201)">
            <g id="Grupo_123036" data-name="Grupo 123036" transform="translate(0 33.123)">
              <path id="Trazado_247563" data-name="Trazado 247563" d="M4039.47,532.532a9.947,9.947,0,0,0-3.188,9.091,9.192,9.192,0,0,0,6.444,7.056,9.432,9.432,0,0,0,10.879-5.963c1.451-4.2-.414-8.343-3.413-11.288C4047.3,528.585,4042.23,530.091,4039.47,532.532Z" transform="translate(-4036.127 -529.883)" fill="#84a9ff"/>
            </g>
            <g id="Grupo_123037" data-name="Grupo 123037" transform="translate(25.048 37.446)">
              <path id="Trazado_247564" data-name="Trazado 247564" d="M4128.378,548.869a3.728,3.728,0,0,0,1.428,2.7,3.821,3.821,0,0,0,3.643.636,3.222,3.222,0,0,0,2.083-2.97C4135.445,545.176,4128.183,544.318,4128.378,548.869Z" transform="translate(-4128.374 -545.807)" fill="#84a9ff"/>
            </g>
            <g id="Grupo_123038" data-name="Grupo 123038" transform="translate(18.995 21.534)">
              <path id="Trazado_247565" data-name="Trazado 247565" d="M4108.649,493.387c4.442,1.419,7.437-4.075,2.747-5.878C4106.958,485.8,4103.513,491.745,4108.649,493.387Z" transform="translate(-4106.084 -487.204)" fill="#84a9ff"/>
            </g>
            <g id="Grupo_123039" data-name="Grupo 123039" transform="translate(5.91 12.845)">
              <path id="Trazado_247566" data-name="Trazado 247566" d="M4060.138,459.928a6.411,6.411,0,0,0,2.251.2c3.645-.543.95-4.94-1.619-4.926a3.176,3.176,0,0,0-2.757,2.167C4057.492,458.982,4058.762,459.638,4060.138,459.928Z" transform="translate(-4057.894 -455.205)" fill="#84a9ff"/>
            </g>
            <g id="Grupo_123040" data-name="Grupo 123040" transform="translate(17.2)">
              <path id="Trazado_247567" data-name="Trazado 247567" d="M4100.865,408.789c-1.436,1.209-1.511,3.372-1.311,5.238.29,2.714,1.069,5.634,3.28,7.234a5.727,5.727,0,0,0,9.082-4.806C4111.8,412.536,4104.9,405.394,4100.865,408.789Z" transform="translate(-4099.473 -407.899)" fill="#84a9ff"/>
            </g>
          </g>
        </g>
        <g id="Grupo_123056" data-name="Grupo 123056" transform="translate(0 33.77)">
          <g id="Grupo_123043" data-name="Grupo 123043">
            <path id="Trazado_247568" data-name="Trazado 247568" d="M3813.987,497.981c3.144,7.545,9.565,14.146,17.617,15.558a19.015,19.015,0,0,0,19.637-9.521,18.07,18.07,0,0,0-3.818-21.317c-2.563-2.257-5.767-3.717-8.221-6.092-3.333-3.224-4.95-7.79-6.319-12.22s-2.661-9.034-5.559-12.654-7.9-6.015-12.247-4.392c-7.652,2.859-6.517,12.428-6.079,18.862.4,5.789,1.25,11.534,1.833,17.3A50.128,50.128,0,0,0,3813.987,497.981Z" transform="translate(-3808.672 -446.824)" fill="#84a9ff"/>
          </g>
          <g id="Grupo_123044" data-name="Grupo 123044" transform="translate(5 23.081)">
            <path id="Trazado_247569" data-name="Trazado 247569" d="M3829.937,535.143a1.54,1.54,0,0,0,.7-1.689c-.327-1.416-2.508-2.366-3.375-.862C3826.461,533.982,3828.6,535.843,3829.937,535.143Z" transform="translate(-3827.088 -531.829)" fill="#fff"/>
          </g>
          <g id="Grupo_123045" data-name="Grupo 123045" transform="translate(14.857 22.985)">
            <path id="Trazado_247570" data-name="Trazado 247570" d="M3863.387,533.046a1.73,1.73,0,0,0,.942,1.48,2.19,2.19,0,0,0,2.458-.151C3869.583,531.97,3863.512,529.959,3863.387,533.046Z" transform="translate(-3863.386 -531.475)" fill="#fff"/>
          </g>
          <g id="Grupo_123046" data-name="Grupo 123046" transform="translate(24.489 32.206)">
            <path id="Trazado_247571" data-name="Trazado 247571" d="M3898.975,566.1a1.563,1.563,0,0,0,.745,1.876c1.109.715,3.119-.01,2.419-1.544C3901.67,565.4,3899.549,564.973,3898.975,566.1Z" transform="translate(-3898.861 -565.433)" fill="#fff"/>
          </g>
          <g id="Grupo_123047" data-name="Grupo 123047" transform="translate(7.531 35.195)">
            <path id="Trazado_247572" data-name="Trazado 247572" d="M3836.5,577.478a1.59,1.59,0,0,0,.273,1.519,2.077,2.077,0,0,0,1.818.832,1.765,1.765,0,0,0,1.05-3A2.254,2.254,0,0,0,3836.5,577.478Z" transform="translate(-3836.408 -576.44)" fill="#fff"/>
          </g>
          <g id="Grupo_123048" data-name="Grupo 123048" transform="translate(18.614 37.459)">
            <path id="Trazado_247573" data-name="Trazado 247573" d="M3880.487,585.415a1.221,1.221,0,0,1,.73,1.273,1.181,1.181,0,0,1-1.014.822,2.851,2.851,0,0,1-1.355-.227,3.543,3.543,0,0,1-1.025-.532,1.533,1.533,0,0,1-.587-.968C3877.011,584.018,3879.719,585.037,3880.487,585.415Z" transform="translate(-3877.223 -584.779)" fill="#fff"/>
          </g>
          <g id="Grupo_123049" data-name="Grupo 123049" transform="translate(30.631 43.027)">
            <path id="Trazado_247574" data-name="Trazado 247574" d="M3922.245,608.358a1.7,1.7,0,0,0,1.878.312c1.455-.876.007-2.963-1.153-3.306C3921.06,604.8,3921.181,607.489,3922.245,608.358Z" transform="translate(-3921.48 -605.286)" fill="#fff"/>
          </g>
          <g id="Grupo_123050" data-name="Grupo 123050" transform="translate(30.423 52.326)">
            <path id="Trazado_247575" data-name="Trazado 247575" d="M3920.717,642.758a1.663,1.663,0,0,0,.424,1.351,2.159,2.159,0,0,0,1.781.262,3.79,3.79,0,0,0,2.755-1.24,2.26,2.26,0,0,0,.037-2.263C3924.208,638.018,3920.874,640.236,3920.717,642.758Z" transform="translate(-3920.712 -639.53)" fill="#fff"/>
          </g>
          <g id="Grupo_123051" data-name="Grupo 123051" transform="translate(15.249 45.285)">
            <path id="Trazado_247576" data-name="Trazado 247576" d="M3867.363,616.162c-1.516.3-3.789-1.755-1.674-2.488C3867.277,613.124,3869.36,615.772,3867.363,616.162Z" transform="translate(-3864.831 -613.599)" fill="#fff"/>
          </g>
          <g id="Grupo_123052" data-name="Grupo 123052" transform="translate(13.196 15.636)">
            <path id="Trazado_247577" data-name="Trazado 247577" d="M3857.282,505a2.167,2.167,0,0,0,.505,1.76,1.251,1.251,0,0,0,.87.337,1.137,1.137,0,0,0,.837-.4,1.278,1.278,0,0,0,.042-1.465C3859.164,504.644,3857.363,503.839,3857.282,505Z" transform="translate(-3857.272 -504.408)" fill="#fff"/>
          </g>
          <g id="Grupo_123053" data-name="Grupo 123053" transform="translate(11.323 5.511)">
            <path id="Trazado_247578" data-name="Trazado 247578" d="M3852.1,467.253a1.394,1.394,0,0,0-1.415.122,1.2,1.2,0,0,0-.19,1.353,3.307,3.307,0,0,0,.938,1.1,2.78,2.78,0,0,0,1.457.8,1.474,1.474,0,0,0,1.513-1.035,1.516,1.516,0,0,0-.641-1.627,3.366,3.366,0,0,0-.6-.216C3852.8,467.61,3852.467,467.393,3852.1,467.253Z" transform="translate(-3850.373 -467.121)" fill="#fff"/>
          </g>
          <g id="Grupo_123054" data-name="Grupo 123054" transform="translate(3.389 11.152)">
            <path id="Trazado_247579" data-name="Trazado 247579" d="M3821.381,488.957a1.87,1.87,0,0,0-.116,1.466,1.508,1.508,0,0,0,.84.646,1.931,1.931,0,0,0,1.424.075,1.5,1.5,0,0,0,.739-1.836,2.417,2.417,0,0,0-1.484-1.34C3822.046,487.665,3821.609,488.338,3821.381,488.957Z" transform="translate(-3821.154 -487.893)" fill="#fff"/>
          </g>
          <g id="Grupo_123055" data-name="Grupo 123055" transform="translate(17.111 53.576)">
            <path id="Trazado_247580" data-name="Trazado 247580" d="M3876.343,646.267a1.179,1.179,0,0,1,.062,1.124,1.2,1.2,0,0,1-1.018.413,4.417,4.417,0,0,1-2.794-.94,2.148,2.148,0,0,1-.9-1.406c-.122-1.294,1.146-1.469,2.061-1.237A3.9,3.9,0,0,1,3876.343,646.267Z" transform="translate(-3871.688 -644.134)" fill="#fff"/>
          </g>
        </g>
      </g>
      <g id="Grupo_123088" data-name="Grupo 123088" transform="translate(3485.87 335.909)">
        <g id="Grupo_123058" data-name="Grupo 123058" transform="translate(3.734)">
          <path id="Trazado_247581" data-name="Trazado 247581" d="M4071.476,908.954a71.024,71.024,0,0,0-20.885-45.388c-13.729-13.309-32.294-20.4-50.724-25.5a328.579,328.579,0,0,0-81.448-11.9c-21.1-.408-42.511,1.274-62.424,8.287s-38.306,19.728-49.252,37.774a67.723,67.723,0,0,0-9.77,37.739,8.587,8.587,0,0,0,8.571,8.2h257.375A8.576,8.576,0,0,0,4071.476,908.954Z" transform="translate(-3796.906 -826.107)" fill="#fece16"/>
        </g>
        <g id="Grupo_123059" data-name="Grupo 123059" transform="translate(10.998 92.055)">
          <path id="Trazado_247582" data-name="Trazado 247582" d="M4083.214,1165.126H3825.356c-2.028,5.353-2.489,9.827,0,12.649h257.858Q4087.7,1171.451,4083.214,1165.126Z" transform="translate(-3823.658 -1165.126)" fill="#fff7d6"/>
        </g>
        <g id="Grupo_123060" data-name="Grupo 123060" transform="translate(11.003 104.704)">
          <path id="Trazado_247583" data-name="Trazado 247583" d="M4083.226,1211.71H3825.368c-2.135,4.783-2.377,9.063,0,12.649h257.858Q4087.717,1218.034,4083.226,1211.71Z" transform="translate(-3823.675 -1211.71)" fill="#ee2957"/>
        </g>
        <g id="Grupo_123061" data-name="Grupo 123061" transform="translate(10.017 135.04)">
          <path id="Trazado_247584" data-name="Trazado 247584" d="M4080.582,1323.43H3822.724c-3.24,5.581-3.892,10.072,0,12.649h257.857A28.882,28.882,0,0,0,4080.582,1323.43Z" transform="translate(-3820.044 -1323.43)" fill="#ee2957"/>
        </g>
        <g id="Grupo_123062" data-name="Grupo 123062" transform="translate(9.152 117.353)">
          <path id="Trazado_247585" data-name="Trazado 247585" d="M4078.261,1258.294H3820.4c-3.869,7.49-5.512,14.064,0,17.687h257.858C4081.042,1270.051,4081.46,1264.151,4078.261,1258.294Z" transform="translate(-3816.859 -1258.294)" fill="#3f2e12"/>
        </g>
        <g id="Grupo_123063" data-name="Grupo 123063" transform="translate(0 147.689)">
          <path id="Trazado_247586" data-name="Trazado 247586" d="M4064.13,1380.055a12.35,12.35,0,0,0-12.142-10.042H3787.906c-6.055,15.966-6.61,28.78,0,37.486h273.747C4065.756,1399.728,4066.077,1390.368,4064.13,1380.055Z" transform="translate(-3783.154 -1370.013)" fill="#fece16"/>
        </g>
        <g id="Grupo_123064" data-name="Grupo 123064" transform="translate(28.48 96.022)">
          <path id="Trazado_247587" data-name="Trazado 247587" d="M3891.873,1189.932c2.809,1.295,6.047,1.07,9.137.916s6.386-.158,9.009,1.481c3.389,2.116,4.716,6.37,5.291,10.323s.708,8.126,2.689,11.595,6.68,5.831,10.055,3.693c3.788-2.4,3.141-8.033,1.943-12.354s-2.125-9.826,1.452-12.531c1.983-1.5,4.668-1.5,7.13-1.85s5.229-1.476,5.854-3.883c.518-2-.761-4.116-2.511-5.209a13.776,13.776,0,0,0-5.922-1.6,138.284,138.284,0,0,0-30.043.089C3902.617,1180.974,3878.935,1183.968,3891.873,1189.932Z" transform="translate(-3888.039 -1179.736)" fill="#fff7d6"/>
        </g>
        <g id="Grupo_123065" data-name="Grupo 123065" transform="translate(51.665 29.019)">
          <circle id="Elipse_6139" data-name="Elipse 6139" cx="3.556" cy="3.556" r="3.556" transform="translate(0 5.029) rotate(-45)" fill="#dca000"/>
        </g>
        <g id="Grupo_123066" data-name="Grupo 123066" transform="translate(109.093 28.315)">
          <circle id="Elipse_6140" data-name="Elipse 6140" cx="5.257" cy="5.257" r="5.257" transform="translate(0 7.434) rotate(-45)" fill="#dca000"/>
        </g>
        <g id="Grupo_123067" data-name="Grupo 123067" transform="translate(171.568 34.77)">
          <ellipse id="Elipse_6141" data-name="Elipse 6141" cx="5.875" cy="3.479" rx="5.875" ry="3.479" fill="#dca000"/>
        </g>
        <g id="Grupo_123068" data-name="Grupo 123068" transform="translate(134.166 60.808)">
          <circle id="Elipse_6142" data-name="Elipse 6142" cx="2.01" cy="2.01" r="2.01" transform="matrix(0.16, -0.987, 0.987, 0.16, 0, 3.968)" fill="#dca000"/>
        </g>
        <g id="Grupo_123069" data-name="Grupo 123069" transform="translate(107.869 65.124)">
          <ellipse id="Elipse_6143" data-name="Elipse 6143" cx="1.701" cy="3.247" rx="1.701" ry="3.247" fill="#dca000"/>
        </g>
        <g id="Grupo_123070" data-name="Grupo 123070" transform="translate(71.338 55.186)">
          <circle id="Elipse_6144" data-name="Elipse 6144" cx="2.396" cy="2.396" r="2.396" transform="matrix(0.16, -0.987, 0.987, 0.16, 0, 4.731)" fill="#dca000"/>
        </g>
        <g id="Grupo_123071" data-name="Grupo 123071" transform="translate(25.309 75.638)">
          <ellipse id="Elipse_6145" data-name="Elipse 6145" cx="5.102" cy="2.319" rx="5.102" ry="2.319" fill="#dca000"/>
        </g>
        <g id="Grupo_123072" data-name="Grupo 123072" transform="translate(208.055 77.957)">
          <ellipse id="Elipse_6146" data-name="Elipse 6146" cx="2.938" cy="1.16" rx="2.938" ry="1.16" fill="#dca000"/>
        </g>
        <g id="Grupo_123073" data-name="Grupo 123073" transform="translate(213.931 56.466)">
          <circle id="Elipse_6147" data-name="Elipse 6147" cx="1.933" cy="1.933" r="1.933" fill="#dca000"/>
        </g>
        <g id="Grupo_123074" data-name="Grupo 123074" transform="translate(177.443 18.896)">
          <circle id="Elipse_6148" data-name="Elipse 6148" cx="1.933" cy="1.933" r="1.933" fill="#dca000"/>
        </g>
        <g id="Grupo_123075" data-name="Grupo 123075" transform="translate(197.233 53.065)">
          <path id="Trazado_247588" data-name="Trazado 247588" d="M4512,1024.2c0,1.473-.554,2.667-1.236,2.667s-1.238-1.194-1.238-2.667.554-2.667,1.238-2.667S4512,1022.728,4512,1024.2Z" transform="translate(-4509.521 -1021.534)" fill="#dca000"/>
        </g>
        <g id="Grupo_123076" data-name="Grupo 123076" transform="translate(148.44 79.411)">
          <circle id="Elipse_6149" data-name="Elipse 6149" cx="2.087" cy="2.087" r="2.087" transform="translate(0 2.952) rotate(-45)" fill="#dca000"/>
        </g>
        <g id="Grupo_123077" data-name="Grupo 123077" transform="translate(139.719 30.492)">
          <ellipse id="Elipse_6150" data-name="Elipse 6150" cx="2.628" cy="3.556" rx="2.628" ry="3.556" fill="#dca000"/>
        </g>
        <g id="Grupo_123078" data-name="Grupo 123078" transform="translate(210.993 26.472)">
          <circle id="Elipse_6151" data-name="Elipse 6151" cx="2.01" cy="2.01" r="2.01" fill="#dca000"/>
        </g>
        <g id="Grupo_123079" data-name="Grupo 123079" transform="translate(229.701 43.479)">
          <path id="Trazado_247589" data-name="Trazado 247589" d="M4632.5,987.932a1.7,1.7,0,1,1-1.7-1.7A1.7,1.7,0,0,1,4632.5,987.932Z" transform="translate(-4629.094 -986.231)" fill="#dca000"/>
        </g>
        <g id="Grupo_123080" data-name="Grupo 123080" transform="translate(250.912 65.927)">
          <circle id="Elipse_6152" data-name="Elipse 6152" cx="2.139" cy="2.139" r="2.139" transform="translate(0 4.163) rotate(-76.718)" fill="#dca000"/>
        </g>
        <g id="Grupo_123081" data-name="Grupo 123081" transform="translate(236.894 73.245)">
          <circle id="Elipse_6153" data-name="Elipse 6153" cx="2.139" cy="2.139" r="2.139" transform="matrix(0.23, -0.973, 0.973, 0.23, 0, 4.163)" fill="#dca000"/>
        </g>
        <g id="Grupo_123082" data-name="Grupo 123082" transform="translate(83.132 22.762)">
          <circle id="Elipse_6154" data-name="Elipse 6154" cx="3.169" cy="3.169" r="3.169" fill="#dca000"/>
        </g>
        <g id="Grupo_123083" data-name="Grupo 123083" transform="translate(32.73 49.045)">
          <circle id="Elipse_6155" data-name="Elipse 6155" cx="3.247" cy="3.247" r="3.247" fill="#dca000"/>
        </g>
        <g id="Grupo_123084" data-name="Grupo 123084" transform="translate(142.347 9.465)">
          <ellipse id="Elipse_6156" data-name="Elipse 6156" cx="6.416" cy="4.174" rx="6.416" ry="4.174" fill="#dca000"/>
        </g>
        <g id="Grupo_123085" data-name="Grupo 123085" transform="translate(103.672 11.453)">
          <circle id="Elipse_6157" data-name="Elipse 6157" cx="2.396" cy="2.396" r="2.396" transform="translate(0 4.665) rotate(-76.718)" fill="#dca000"/>
        </g>
        <g id="Grupo_123086" data-name="Grupo 123086" transform="translate(76.484 76.797)">
          <circle id="Elipse_6158" data-name="Elipse 6158" cx="2.126" cy="2.126" r="2.126" fill="#dca000"/>
        </g>
        <g id="Grupo_123087" data-name="Grupo 123087" transform="translate(170.64 63.114)">
          <circle id="Elipse_6159" data-name="Elipse 6159" cx="2.628" cy="2.628" r="2.628" fill="#dca000"/>
        </g>
      </g>
      <g id="Grupo_123146" data-name="Grupo 123146" transform="translate(3375.058 153.189)">
        <g id="Grupo_123091" data-name="Grupo 123091" transform="translate(56.107 360.137)">
          <g id="Grupo_123090" data-name="Grupo 123090">
            <g id="Grupo_123089" data-name="Grupo 123089">
              <path id="Trazado_247590" data-name="Trazado 247590" d="M3581.726,1487.3h25.7a3.96,3.96,0,0,0-.723-2.409,4.071,4.071,0,0,0-2.576-1.372,24.667,24.667,0,0,0-2.984-.173,15.8,15.8,0,0,1-6.973-2.021,23.613,23.613,0,0,0-3.349-1.827l-7.006.184a8.034,8.034,0,0,0-1.872,3.777A14.14,14.14,0,0,0,3581.726,1487.3Z" transform="translate(-3581.688 -1479.5)" fill="#050f64"/>
            </g>
          </g>
        </g>
        <g id="Grupo_123093" data-name="Grupo 123093" transform="translate(4.644 283.887)">
          <g id="Grupo_123092" data-name="Grupo 123092" transform="translate(0 0)">
            <path id="Trazado_247591" data-name="Trazado 247591" d="M3392.163,1199.607l5.916,75.533,8.67-.227,9.383-76.226Z" transform="translate(-3392.163 -1198.687)" fill="#28acd3"/>
          </g>
        </g>
        <g id="Grupo_123095" data-name="Grupo 123095" transform="translate(43.595 282.409)">
          <g id="Grupo_123094" data-name="Grupo 123094" transform="translate(0 0)">
            <path id="Trazado_247592" data-name="Trazado 247592" d="M3535.608,1194.149l14.152,76.822h8.366l1.13-77.728h0Z" transform="translate(-3535.608 -1193.243)" fill="#28acd3"/>
          </g>
        </g>
        <g id="Grupo_123098" data-name="Grupo 123098" transform="translate(9.229 360.137)">
          <g id="Grupo_123097" data-name="Grupo 123097">
            <g id="Grupo_123096" data-name="Grupo 123096">
              <path id="Trazado_247593" data-name="Trazado 247593" d="M3409.086,1487.3h25.705a3.959,3.959,0,0,0-.723-2.409,4.071,4.071,0,0,0-2.576-1.371,24.7,24.7,0,0,0-2.983-.173,15.79,15.79,0,0,1-6.974-2.02,23.617,23.617,0,0,0-3.349-1.827l-7.006.184a8.025,8.025,0,0,0-1.872,3.778A14.14,14.14,0,0,0,3409.086,1487.3Z" transform="translate(-3409.048 -1479.498)" fill="#050f64"/>
            </g>
          </g>
        </g>
        <g id="Grupo_123106" data-name="Grupo 123106" transform="translate(34.518 137.197)">
          <g id="Grupo_123102" data-name="Grupo 123102" transform="translate(0.968 1.647)">
            <g id="Grupo_123101" data-name="Grupo 123101">
              <g id="Grupo_123100" data-name="Grupo 123100">
                <g id="Grupo_123099" data-name="Grupo 123099">
                  <path id="Trazado_247594" data-name="Trazado 247594" d="M3600.319,695.2a2.572,2.572,0,0,1-1.038,3.4c-1.763,1.037-3.576,2-5.378,3l-2.749,1.426c-.91.486-1.859.914-2.79,1.374a91.822,91.822,0,0,1-11.733,4.747,52.777,52.777,0,0,1-13.006,2.514,41.227,41.227,0,0,1-13.78-1.5,53.2,53.2,0,0,1-12.547-5.56,91.228,91.228,0,0,1-10.736-7.624c-3.357-2.716-6.475-5.575-9.528-8.465s-5.966-5.849-8.861-8.815a8.977,8.977,0,0,1,.868-13.09h0a9.084,9.084,0,0,1,12.917,1.377c2.359,3.165,4.728,6.323,7.174,9.342s4.924,5.994,7.52,8.738c5.179,5.5,10.735,10.34,17,13.1a30.3,30.3,0,0,0,10,2.473,43.476,43.476,0,0,0,10.945-.651,84.262,84.262,0,0,0,11.234-2.894c.933-.316,1.876-.6,2.8-.943l2.8-1.008c1.854-.72,3.722-1.416,5.567-2.193A2.613,2.613,0,0,1,3600.319,695.2Z" transform="translate(-3505.745 -664.526)" fill="#ea8096"/>
                </g>
              </g>
            </g>
          </g>
          <g id="Grupo_123105" data-name="Grupo 123105">
            <g id="Grupo_123104" data-name="Grupo 123104">
              <g id="Grupo_123103" data-name="Grupo 123103">
                <path id="Trazado_247595" data-name="Trazado 247595" d="M3522.279,697.677l-16.31-17.345c-4.934-5.247-5.185-13.306.061-18.24h0c5.247-4.934,14-4.874,18.938.373l16.311,17.345Z" transform="translate(-3502.181 -658.459)" fill="#fff"/>
              </g>
            </g>
          </g>
        </g>
        <g id="Grupo_123108" data-name="Grupo 123108" transform="translate(0.689 135.008)">
          <g id="Grupo_123107" data-name="Grupo 123107">
            <path id="Trazado_247596" data-name="Trazado 247596" d="M3377.595,740.244l1.041,60.062,2.915-.11,23.968-.92,7.429-.283.686-.027,6.867-.262,23.645-.906h0l1.737-.065-11.233-56.31.321-27.828.265-22.821.072-6.457v-.007l.066-5.413v-.007l0-.286.007-.686.031-2.729c.014-.482.014-.958,0-1.433v0A24.093,24.093,0,0,0,3416.735,651c-.093-.02-.186-.041-.279-.058a23.9,23.9,0,0,0-5.069-.541c-.441,0-.888.014-1.337.038h-.021a29.509,29.509,0,0,0-27.831,27.683Z" transform="translate(-3377.595 -650.397)" fill="#fff"/>
          </g>
        </g>
        <g id="Grupo_123111" data-name="Grupo 123111" transform="translate(0 134.318)">
          <g id="Grupo_123110" data-name="Grupo 123110">
            <g id="Grupo_123109" data-name="Grupo 123109">
              <path id="Trazado_247597" data-name="Trazado 247597" d="M3393.912,652.377l.486.5a29.269,29.269,0,0,1,9.307-3.708,29.787,29.787,0,0,1,4.476-.593h.021c.448-.024.9-.038,1.337-.038a23.692,23.692,0,0,1,4.1.355c.062-.221.131-.445.2-.662a24.133,24.133,0,0,0-4.3-.383c-.427,0-.882.014-1.354.042h-.041a30.28,30.28,0,0,0-4.579.606A29.9,29.9,0,0,0,3393.912,652.377Zm39.1,69.1.689.134.114-9.858.265-22.821.072-6.457.066-5.3-.689-.155v.028l-.065,5.413v.007l-.072,6.457-.266,22.821Zm-57.529,41.273.631,36.421,3.614-.138,23.972-.92,7.429-.283.686-.028,22-.841-.065-.689-15.1.579-6.867.262-.686.028-7.429.283-23.968.92-2.915.11-.62-35.8Zm-.424-24.375.127,7.295.686-.107-.124-7.17,2.3-31.008-.689-.052Zm4.6-62.15-1.289,17.39h.693l1.285-17.349a29.413,29.413,0,0,1,6.778-17.091l-.679-.238A30.142,30.142,0,0,0,3379.661,676.222Zm53.143,63.346,9.583,48.04.651-.258-9.545-47.844.094-8-.689-.158Zm-11.071-87.7a24.13,24.13,0,0,1,11.564,17.046h.7a24.8,24.8,0,0,0-8.566-15.271,24.316,24.316,0,0,0-3.48-2.443Z" transform="translate(-3375.058 -647.853)" fill="#84a9ff"/>
            </g>
          </g>
        </g>
        <g id="Grupo_123114" data-name="Grupo 123114" transform="translate(28.192 144.214)">
          <g id="Grupo_123113" data-name="Grupo 123113">
            <g id="Grupo_123112" data-name="Grupo 123112">
              <path id="Trazado_247598" data-name="Trazado 247598" d="M3489.931,684.909a22.828,22.828,0,0,1-3.171,18.062s-8.705-8.082-7.814-18.67A12.433,12.433,0,0,0,3489.931,684.909Z" transform="translate(-3478.882 -684.301)" fill="#28acd3"/>
            </g>
          </g>
        </g>
        <g id="Grupo_123117" data-name="Grupo 123117" transform="translate(32.431 160.645)">
          <g id="Grupo_123116" data-name="Grupo 123116">
            <g id="Grupo_123115" data-name="Grupo 123115">
              <path id="Trazado_247599" data-name="Trazado 247599" d="M3495.156,831.128l2.949,36.642.686-.027-2.949-36.669a205.031,205.031,0,0,1-.127-31.167l2.764-55.062-.689-.035-2.76,55.052A205.492,205.492,0,0,0,3495.156,831.128Z" transform="translate(-3494.495 -744.81)" fill="#155bcc"/>
            </g>
          </g>
        </g>
        <g id="Grupo_123124" data-name="Grupo 123124" transform="translate(25.196 0)">
          <g id="Grupo_123119" data-name="Grupo 123119" transform="translate(0 19.575)">
            <g id="Grupo_123118" data-name="Grupo 123118">
              <path id="Trazado_247600" data-name="Trazado 247600" d="M3671.019,249.577a82.968,82.968,0,0,0-135.794,89.234l.043,27.47L3468.946,432.6a3.742,3.742,0,0,0,0,5.291L3482.7,451.65a3.743,3.743,0,0,0,5.292,0l66.321-66.321,27.47.042a82.968,82.968,0,0,0,89.234-135.794ZM3561.092,359.5a72.5,72.5,0,1,1,102.533,0A72.5,72.5,0,0,1,3561.092,359.5Z" transform="translate(-3467.851 -225.28)" fill="#727997"/>
            </g>
          </g>
          <g id="Grupo_123121" data-name="Grupo 123121" transform="translate(41.975)" opacity="0.3">
            <g id="Grupo_123120" data-name="Grupo 123120">
              <circle id="Elipse_6160" data-name="Elipse 6160" cx="72.501" cy="72.501" r="72.501" transform="translate(0 102.533) rotate(-45)" fill="#84a9ff"/>
            </g>
          </g>
          <g id="Grupo_123123" data-name="Grupo 123123" transform="translate(62.862 160.728)">
            <g id="Grupo_123122" data-name="Grupo 123122" transform="translate(0 0)">
              <rect id="Rectángulo_43692" data-name="Rectángulo 43692" width="6.225" height="26.937" transform="translate(0 4.402) rotate(-45)"/>
            </g>
          </g>
        </g>
        <g id="Grupo_123133" data-name="Grupo 123133" transform="translate(7.009 145.648)">
          <g id="Grupo_123128" data-name="Grupo 123128" transform="translate(2.787 1.215)">
            <g id="Grupo_123127" data-name="Grupo 123127">
              <g id="Grupo_123126" data-name="Grupo 123126">
                <g id="Grupo_123125" data-name="Grupo 123125">
                  <path id="Trazado_247601" data-name="Trazado 247601" d="M3458.762,788.276a2.433,2.433,0,0,1-3.5.717,58.011,58.011,0,0,1-9.3-8.1,91.891,91.891,0,0,1-7.71-9.455c-.577-.833-1.186-1.653-1.737-2.5l-1.671-2.545-1.592-2.59c-.537-.863-1.016-1.75-1.528-2.627l-.756-1.32-.717-1.337c-.473-.894-.961-1.784-1.424-2.684-.888-1.812-1.829-3.615-2.648-5.458a219.807,219.807,0,0,1-14.872-45.942,8.9,8.9,0,0,1-.173-1.861,8.317,8.317,0,0,1,.247-1.793,8.79,8.79,0,0,1,1.516-3.181,8.938,8.938,0,0,1,6.15-3.479h0a9.506,9.506,0,0,1,6.836,1.839,8.513,8.513,0,0,1,2.254,2.543,8.347,8.347,0,0,1,.689,1.564,7.826,7.826,0,0,1,.375,1.714,205.223,205.223,0,0,0,7.836,44.407c.519,1.81,1.15,3.567,1.735,5.355.31.884.642,1.758.962,2.64l.486,1.321.524,1.3c.356.864.683,1.748,1.064,2.6l1.127,2.572,1.2,2.533c.4.849.845,1.663,1.266,2.5a84.47,84.47,0,0,0,5.8,9.552,52.294,52.294,0,0,0,7.221,8.32,2.723,2.723,0,0,1,.337,3.393Z" transform="translate(-3411.135 -694.055)" fill="#f4bcc7"/>
                </g>
              </g>
            </g>
          </g>
          <g id="Grupo_123130" data-name="Grupo 123130" transform="translate(0.692 0.68)">
            <g id="Grupo_123129" data-name="Grupo 123129">
              <path id="Trazado_247602" data-name="Trazado 247602" d="M3408.949,731.29l-5.185-23.238c-1.568-7.029,2.325-14.09,9.354-15.658h0c7.029-1.568,14.532,2.95,16.1,9.979l5.185,23.239Z" transform="translate(-3403.419 -692.082)" fill="#fff"/>
            </g>
          </g>
          <g id="Grupo_123132" data-name="Grupo 123132">
            <g id="Grupo_123131" data-name="Grupo 123131">
              <path id="Trazado_247603" data-name="Trazado 247603" d="M3429.119,708.423l2.765,12.4.676-.15-2.775-12.432Zm-26.353-12.418a14.172,14.172,0,0,0-1.736,9.248h.7a12.986,12.986,0,0,1,6.075-13.34l-.261-.644A12.782,12.782,0,0,0,3402.766,696.005Zm20.22-3.386a14.754,14.754,0,0,0-8.537-3.04l.041.688a13.779,13.779,0,0,1,12.2,8.2l.695-.118A13.807,13.807,0,0,0,3422.986,692.619Zm-19.507,20.661-.662.2,3.753,16.8,9.042-2.016-.276-.642-8.244,1.838Zm27.59,10.835L3421.3,726.3l.381.619,9.529-2.124C3431.159,724.575,3431.117,724.347,3431.069,724.115Z" transform="translate(-3400.871 -689.579)" fill="#84a9ff"/>
            </g>
          </g>
        </g>
        <g id="Grupo_123145" data-name="Grupo 123145" transform="translate(18.635 97.464)">
          <g id="Grupo_123140" data-name="Grupo 123140" transform="translate(7.353 10.202)">
            <g id="Grupo_123135" data-name="Grupo 123135" transform="translate(2.268 19.689)">
              <g id="Grupo_123134" data-name="Grupo 123134">
                <path id="Trazado_247604" data-name="Trazado 247604" d="M3491.036,622.82l-.933,16.859a9.362,9.362,0,0,1-10.985-.608l.933-16.859Z" transform="translate(-3479.118 -622.212)" fill="#f5bdc8"/>
              </g>
            </g>
            <g id="Grupo_123137" data-name="Grupo 123137" transform="translate(2.95 19.689)">
              <g id="Grupo_123136" data-name="Grupo 123136">
                <path id="Trazado_247605" data-name="Trazado 247605" d="M3492.866,622.82l-.422,7.626a8.908,8.908,0,0,1-2.49.428q-.417.01-.832-.013a9.9,9.9,0,0,1-7.491-4.124l.25-4.524Z" transform="translate(-3481.631 -622.212)" fill="#ea8096"/>
              </g>
            </g>
            <g id="Grupo_123139" data-name="Grupo 123139">
              <g id="Grupo_123138" data-name="Grupo 123138">
                <path id="Trazado_247606" data-name="Trazado 247606" d="M3490.514,559.963l-.658,7.029-.266,2.845a7.835,7.835,0,0,1-7.581,7.108,8.788,8.788,0,0,1-3.739-.717c-.268-.116-.53-.246-.782-.386-.157-.087-.312-.177-.464-.273a8.612,8.612,0,0,1-3.323-3.947c-.585-1.4-1.122-2.938-1.628-4.559-.292-.926-.572-1.879-.843-2.847a11.92,11.92,0,0,1,3.2-11.946c2.757-2.584,6.081-3.249,10.01-1.855A9.211,9.211,0,0,1,3490.514,559.963Z" transform="translate(-3470.766 -549.701)" fill="#f5bdc8"/>
              </g>
            </g>
          </g>
          <g id="Grupo_123142" data-name="Grupo 123142">
            <g id="Grupo_123141" data-name="Grupo 123141">
              <path id="Trazado_247607" data-name="Trazado 247607" d="M3473.125,534.556a3.834,3.834,0,0,0,.75-3.115,7.119,7.119,0,0,1,.115-3.309c.533-1.312,1.948-2.015,2.22-3.424.266-1.378-.711-2.516-1.595-3.35l-7.06-6.662a10.4,10.4,0,0,0-3.128-2.3,3.379,3.379,0,0,0-3.614.587c-.535.508-.924,1.22-1.478,1.7-1.251,1.075-2.893.652-4.347.345a7.479,7.479,0,0,0-5.434.514,5.421,5.421,0,0,0-2.52,5.487,11.139,11.139,0,0,0,1.262,2.663,4.061,4.061,0,0,1,.5,2.956c-.4,1.36-1.7,1.943-2.7,2.773a7.29,7.29,0,0,0-2.41,5.148,6.545,6.545,0,0,0,1.961,5.109,2.563,2.563,0,0,0,3.883-.153c1.068-1.573.454-4.4,1.91-5.4,1.751-1.205,3.8,2.137,5.534.888.927-.668,1.074-2.258,1.872-3.144,1.052-1.168,2.584-.652,3.744-.3a20.375,20.375,0,0,0,3.74.7,6.214,6.214,0,0,1,3.1,1.338C3470.463,534.358,3471.862,535.63,3473.125,534.556Z" transform="translate(-3443.686 -512.128)" fill="#050f64"/>
            </g>
          </g>
          <g id="Grupo_123144" data-name="Grupo 123144" transform="translate(4.805 20.72)">
            <g id="Grupo_123143" data-name="Grupo 123143" transform="translate(0 0)">
              <ellipse id="Elipse_6161" data-name="Elipse 6161" cx="3.668" cy="4.122" rx="3.668" ry="4.122" transform="translate(0 7.325) rotate(-86.833)" fill="#f5bdc8"/>
            </g>
          </g>
        </g>
      </g>
    </g>
  </g>
</svg>
