<svg xmlns="http://www.w3.org/2000/svg" width="898" height="586.904" viewBox="0 0 898 586.904">
  <g id="Grupo_123192" data-name="Grupo 123192" transform="translate(-351 -2487.096)">
    <g id="Grupo_123157" data-name="Grupo 123157" transform="translate(636.906 2597.215)">
      <g id="Grupo_123149" data-name="Grupo 123149" transform="translate(4.244 4.123)">
        <path id="Trazado_247608" data-name="Trazado 247608" d="M300.714,750.58a158.108,158.108,0,0,1-24.28-84.444" transform="translate(-276.434 -666.136)" fill="none" stroke="#54feb5" stroke-miterlimit="10" stroke-width="3"/>
        <path id="Trazado_247609" data-name="Trazado 247609" d="M362.249,780.411a159.49,159.49,0,0,1-70.482-60.948" transform="translate(-267.487 -635.019)" fill="none" stroke="#28acd3" stroke-miterlimit="10" stroke-width="3"/>
        <path id="Trazado_247610" data-name="Trazado 247610" d="M465.322,757.708a159.315,159.315,0,0,1-129.045.386" transform="translate(-241.515 -612.702)" fill="none" stroke="#fece16" stroke-miterlimit="10" stroke-width="3"/>
        <path id="Trazado_247611" data-name="Trazado 247611" d="M486.133,720.7a159.5,159.5,0,0,1-68.363,58.6" transform="translate(-193.962 -634.298)" fill="none" stroke="#28acd3" stroke-miterlimit="10" stroke-width="3"/>
        <path id="Trazado_247612" data-name="Trazado 247612" d="M486.471,666.136a158.116,158.116,0,0,1-25.529,86.4" transform="translate(-168.771 -666.136)" fill="none" stroke="#54feb5" stroke-miterlimit="10" stroke-width="3"/>
      </g>
      <g id="Grupo_123150" data-name="Grupo 123150" transform="translate(319.121 1.354)">
        <path id="Trazado_247613" data-name="Trazado 247613" d="M480.895,667.193a2.807,2.807,0,1,1-2.808-2.806A2.808,2.808,0,0,1,480.895,667.193Z" transform="translate(-475.281 -664.387)" fill="#54feb5" stroke="#54feb5" stroke-miterlimit="10" stroke-width="1"/>
      </g>
      <g id="Grupo_123151" data-name="Grupo 123151" transform="translate(0)">
        <path id="Trazado_247614" data-name="Trazado 247614" d="M282.072,667.692a4.159,4.159,0,1,1-4.16-4.16A4.16,4.16,0,0,1,282.072,667.692Z" transform="translate(-273.754 -663.532)" fill="#54feb5"/>
      </g>
      <g id="Grupo_123152" data-name="Grupo 123152" transform="translate(262.233 112.692)">
        <path id="Trazado_247615" data-name="Trazado 247615" d="M453.625,741.832a7.135,7.135,0,1,1-7.135-7.134A7.134,7.134,0,0,1,453.625,741.832Z" transform="translate(-439.356 -734.698)" fill="#fff" stroke="#006a8a" stroke-miterlimit="10" stroke-width="1.26"/>
      </g>
      <g id="Grupo_123153" data-name="Grupo 123153" transform="translate(309.18 43.521)">
        <path id="Trazado_247616" data-name="Trazado 247616" d="M483.272,698.15a7.135,7.135,0,1,1-7.135-7.134A7.136,7.136,0,0,1,483.272,698.15Z" transform="translate(-469.003 -691.016)" fill="#fff" stroke="#006a8a" stroke-miterlimit="10" stroke-width="1.26"/>
      </g>
      <g id="Grupo_123154" data-name="Grupo 123154" transform="translate(1.184 39.211)">
        <path id="Trazado_247617" data-name="Trazado 247617" d="M288.771,695.429a7.135,7.135,0,1,1-7.135-7.135A7.134,7.134,0,0,1,288.771,695.429Z" transform="translate(-274.502 -688.294)" fill="#fff" stroke="#006a8a" stroke-miterlimit="10" stroke-width="1.26"/>
      </g>
      <g id="Grupo_123155" data-name="Grupo 123155" transform="translate(53.002 117.88)">
        <path id="Trazado_247618" data-name="Trazado 247618" d="M321.494,745.109a7.134,7.134,0,1,1-7.134-7.135A7.134,7.134,0,0,1,321.494,745.109Z" transform="translate(-307.225 -737.974)" fill="#fff" stroke="#006a8a" stroke-miterlimit="10" stroke-width="1.26"/>
      </g>
      <g id="Grupo_123156" data-name="Grupo 123156" transform="translate(153.189 155.84)">
        <path id="Trazado_247619" data-name="Trazado 247619" d="M384.763,769.08a7.135,7.135,0,1,1-7.134-7.134A7.135,7.135,0,0,1,384.763,769.08Z" transform="translate(-370.494 -761.946)" fill="#fff" stroke="#006a8a" stroke-miterlimit="10" stroke-width="1.26"/>
      </g>
    </g>
    <g id="Grupo_123164" data-name="Grupo 123164" transform="translate(420.982 2617.913)" opacity="0.7">
      <g id="Grupo_123163" data-name="Grupo 123163">
        <g id="Grupo_123158" data-name="Grupo 123158" transform="translate(265.506 193.778)">
          <path id="Trazado_247620" data-name="Trazado 247620" d="M418.579,804.432a210.994,210.994,0,0,1-45.906-5.031,17.955,17.955,0,0,0-20.723,11.466l-45.8,126.309a17.983,17.983,0,0,0,12.09,23.492,382.228,382.228,0,0,0,200.668,0A17.984,17.984,0,0,0,531,937.176l-45.8-126.309A17.957,17.957,0,0,0,464.48,799.4,210.951,210.951,0,0,1,418.579,804.432Z" transform="translate(-305.066 -798.975)" fill="#fece16"/>
        </g>
        <g id="Grupo_123159" data-name="Grupo 123159" transform="translate(73.154 117.881)">
          <path id="Trazado_247621" data-name="Trazado 247621" d="M304.877,753.892l-113,72.6A18.023,18.023,0,0,0,187.3,852.6,381.6,381.6,0,0,0,331.272,967.66a18.027,18.027,0,0,0,24.459-10.237l45.8-126.308a18.062,18.062,0,0,0-8.762-22.187,211.359,211.359,0,0,1-64.3-51.391A18.069,18.069,0,0,0,304.877,753.892Z" transform="translate(-183.594 -751.046)" fill="#28acd3"/>
        </g>
        <g id="Grupo_123160" data-name="Grupo 123160" transform="translate(465.869 117.881)">
          <path id="Trazado_247622" data-name="Trazado 247622" d="M432.674,831.115l45.8,126.309a18.028,18.028,0,0,0,24.459,10.237A381.618,381.618,0,0,0,646.9,852.6a18.023,18.023,0,0,0-4.576-26.109l-113-72.6a18.067,18.067,0,0,0-23.588,3.647,211.4,211.4,0,0,1-64.3,51.39A18.062,18.062,0,0,0,432.674,831.115Z" transform="translate(-431.596 -751.046)" fill="#28acd3"/>
        </g>
        <g id="Grupo_123161" data-name="Grupo 123161" transform="translate(567.647)">
          <path id="Trazado_247623" data-name="Trazado 247623" d="M516.065,692.424a209.081,209.081,0,0,1-18.419,62.854,18.086,18.086,0,0,0,6.469,23.02l113.011,72.609a18.005,18.005,0,0,0,25.607-6.618A377.813,377.813,0,0,0,686.2,696.061,18.023,18.023,0,0,0,668.234,676.6h-134.3A18.053,18.053,0,0,0,516.065,692.424Z" transform="translate(-495.87 -676.603)" fill="#54feb5"/>
        </g>
        <g id="Grupo_123162" data-name="Grupo 123162">
          <path id="Trazado_247624" data-name="Trazado 247624" d="M289.718,676.6h-134.3a18.023,18.023,0,0,0-17.965,19.458,377.818,377.818,0,0,0,43.467,148.228,18,18,0,0,0,25.607,6.616L319.541,778.3a18.085,18.085,0,0,0,6.47-23.018,209.1,209.1,0,0,1-18.419-62.854A18.054,18.054,0,0,0,289.718,676.6Z" transform="translate(-137.397 -676.603)" fill="#54feb5"/>
        </g>
      </g>
    </g>
    <g id="Grupo_123165" data-name="Grupo 123165" transform="translate(420.982 2613.163)">
      <path id="Trazado_247625" data-name="Trazado 247625" d="M418.579,801.432a211,211,0,0,1-45.906-5.031,17.955,17.955,0,0,0-20.723,11.466l-45.8,126.309a17.983,17.983,0,0,0,12.09,23.492,382.232,382.232,0,0,0,200.668,0A17.984,17.984,0,0,0,531,934.176l-45.8-126.309A17.957,17.957,0,0,0,464.48,796.4,210.954,210.954,0,0,1,418.579,801.432Z" transform="translate(-39.56 -602.197)" fill="#fff7d8"/>
      <path id="Trazado_247626" data-name="Trazado 247626" d="M304.877,750.892l-113,72.6A18.023,18.023,0,0,0,187.3,849.6,381.6,381.6,0,0,0,331.272,964.66a18.027,18.027,0,0,0,24.459-10.237l45.8-126.307a18.062,18.062,0,0,0-8.762-22.187,211.361,211.361,0,0,1-64.3-51.391A18.069,18.069,0,0,0,304.877,750.892Z" transform="translate(-110.44 -630.165)" fill="#caf3ff"/>
      <path id="Trazado_247627" data-name="Trazado 247627" d="M432.674,828.115l45.8,126.309a18.028,18.028,0,0,0,24.459,10.238A381.616,381.616,0,0,0,646.9,849.6a18.023,18.023,0,0,0-4.576-26.109l-113-72.6a18.067,18.067,0,0,0-23.588,3.647,211.4,211.4,0,0,1-64.3,51.39A18.062,18.062,0,0,0,432.674,828.115Z" transform="translate(34.273 -630.164)" fill="#caf3ff"/>
      <path id="Trazado_247628" data-name="Trazado 247628" d="M516.065,689.424a209.083,209.083,0,0,1-18.419,62.854,18.086,18.086,0,0,0,6.469,23.02l113.011,72.609a18.005,18.005,0,0,0,25.607-6.618A377.813,377.813,0,0,0,686.2,693.061,18.023,18.023,0,0,0,668.234,673.6h-134.3A18.053,18.053,0,0,0,516.065,689.424Z" transform="translate(71.777 -673.603)" fill="#cfffeb"/>
      <path id="Trazado_247629" data-name="Trazado 247629" d="M289.718,673.6h-134.3a18.023,18.023,0,0,0-17.965,19.458,377.818,377.818,0,0,0,43.467,148.228,18,18,0,0,0,25.607,6.616L319.541,775.3a18.085,18.085,0,0,0,6.47-23.018,209.1,209.1,0,0,1-18.419-62.854A18.054,18.054,0,0,0,289.718,673.6Z" transform="translate(-137.397 -673.603)" fill="#bffee3"/>
    </g>
    <circle id="Elipse_6163" data-name="Elipse 6163" cx="108.87" cy="108.87" r="108.87" transform="translate(691.096 2487.096)" fill="#006a8a"/>
    <g id="Grupo_123166" data-name="Grupo 123166" transform="translate(527.558 2910.321)">
      <path id="Trazado_247630" data-name="Trazado 247630" d="M204.7,986.642V877.494l16.979-16.234" transform="translate(-204.7 -861.261)" fill="none" stroke="#474a54" stroke-linecap="round" stroke-linejoin="round" stroke-width="1"/>
      <path id="Trazado_247631" data-name="Trazado 247631" d="M555.055,986.642V877.494l-16.979-16.234" transform="translate(-10.17 -861.261)" fill="none" stroke="#474a54" stroke-linecap="round" stroke-linejoin="round" stroke-width="1"/>
    </g>
    <g id="Grupo_123167" data-name="Grupo 123167" transform="translate(370 2658.018)">
      <path id="Trazado_247632" data-name="Trazado 247632" d="M105.2,816.084V701.93h20.356" transform="translate(-105.201 -701.93)" fill="none" stroke="#474a54" stroke-linecap="round" stroke-linejoin="round" stroke-width="1"/>
      <path id="Trazado_247633" data-name="Trazado 247633" d="M655.8,816.084V701.93H635.442" transform="translate(204.202 -701.93)" fill="none" stroke="#474a54" stroke-linecap="round" stroke-linejoin="round" stroke-width="1"/>
    </g>
    <line id="Línea_1288" data-name="Línea 1288" y1="36.035" transform="translate(800 2999.668)" fill="none" stroke="#474a54" stroke-linecap="round" stroke-linejoin="round" stroke-width="1"/>
    <path id="Trazado_247676" data-name="Trazado 247676" d="M57.583,10.271H52.888V23H49.118V10.271H44.509V7.359H57.583ZM62.825,23H59.194V11.377h3.631ZM58.979,8.38a1.616,1.616,0,0,1,.559-1.268,2.375,2.375,0,0,1,2.9,0A1.616,1.616,0,0,1,63,8.38a1.616,1.616,0,0,1-.559,1.268,2.375,2.375,0,0,1-2.9,0A1.616,1.616,0,0,1,58.979,8.38Zm16.865,8.895A7.009,7.009,0,0,1,74.625,21.6a3.909,3.909,0,0,1-3.292,1.617A3.351,3.351,0,0,1,68.7,22.044v5.425h-3.62V11.377h3.384l.107,1.074a3.351,3.351,0,0,1,2.739-1.289,3.941,3.941,0,0,1,3.341,1.584A7.1,7.1,0,0,1,75.844,17.1Zm-3.62-.226q0-3.094-1.8-3.094a1.7,1.7,0,0,0-1.719.924v4.576a1.759,1.759,0,0,0,1.74.967q1.729,0,1.783-2.986Zm4.759.032a6.86,6.86,0,0,1,.677-3.1A4.84,4.84,0,0,1,79.6,11.893a5.856,5.856,0,0,1,2.976-.73,5.344,5.344,0,0,1,4.114,1.617,6.2,6.2,0,0,1,1.5,4.4v.129a6.019,6.019,0,0,1-1.509,4.313,5.359,5.359,0,0,1-4.087,1.6,5.42,5.42,0,0,1-3.985-1.488,5.819,5.819,0,0,1-1.622-4.034Zm3.62.226a4.325,4.325,0,0,0,.5,2.363,1.682,1.682,0,0,0,1.493.752q1.934,0,1.977-2.976v-.365q0-3.126-2-3.126-1.815,0-1.966,2.7Zm15.275,2.428a.836.836,0,0,0-.483-.741,7.353,7.353,0,0,0-1.837-.58,8.376,8.376,0,0,1-2.234-.79,3.743,3.743,0,0,1-1.343-1.187,2.834,2.834,0,0,1-.462-1.6A3.212,3.212,0,0,1,90.84,12.2,5.443,5.443,0,0,1,94.3,11.162a6.03,6.03,0,0,1,3.7,1.042,3.258,3.258,0,0,1,1.4,2.739H95.76q0-1.4-1.472-1.4a1.459,1.459,0,0,0-.956.317.981.981,0,0,0-.387.79.9.9,0,0,0,.473.784,4.466,4.466,0,0,0,1.509.494,13.043,13.043,0,0,1,1.821.462q2.621.9,2.621,3.233a3.044,3.044,0,0,1-1.413,2.589,6.2,6.2,0,0,1-3.658,1,6.322,6.322,0,0,1-2.664-.537,4.455,4.455,0,0,1-1.826-1.461,3.308,3.308,0,0,1-.655-1.944h3.384a1.4,1.4,0,0,0,.537,1.176,2.209,2.209,0,0,0,1.321.371,1.738,1.738,0,0,0,1.112-.3A.962.962,0,0,0,95.878,19.734ZM106.083,17.1a7.1,7.1,0,0,1,1.192-4.351,3.925,3.925,0,0,1,3.33-1.59,3.338,3.338,0,0,1,2.621,1.225V6.5h3.631V23H113.6l-.183-1.246a3.428,3.428,0,0,1-2.836,1.461,3.918,3.918,0,0,1-3.287-1.59A7.325,7.325,0,0,1,106.083,17.1Zm3.62.226q0,3.094,1.8,3.094a1.782,1.782,0,0,0,1.719-1.01V14.986a1.734,1.734,0,0,0-1.7-1.031q-1.676,0-1.815,2.707Zm14.835,5.887a5.975,5.975,0,0,1-4.329-1.6,5.509,5.509,0,0,1-1.654-4.152v-.3a7.138,7.138,0,0,1,.661-3.147,4.834,4.834,0,0,1,1.928-2.111,5.821,5.821,0,0,1,3.008-.747,5.031,5.031,0,0,1,3.867,1.52,5.973,5.973,0,0,1,1.418,4.238v1.407h-7.2a2.609,2.609,0,0,0,.849,1.536,2.525,2.525,0,0,0,1.7.559,3.254,3.254,0,0,0,2.686-1.2l1.654,1.955a4.624,4.624,0,0,1-1.917,1.488A6.48,6.48,0,0,1,124.539,23.215Zm-.408-9.26q-1.59,0-1.891,2.105h3.652v-.279a1.793,1.793,0,0,0-.44-1.348A1.753,1.753,0,0,0,124.13,13.955ZM12.159,50a4.088,4.088,0,0,1-.344-1.042,3.366,3.366,0,0,1-2.793,1.257,4.124,4.124,0,0,1-2.793-.994,3.163,3.163,0,0,1-1.149-2.5,3.251,3.251,0,0,1,1.4-2.857,7.114,7.114,0,0,1,4.061-.967h1.117v-.615q0-1.608-1.386-1.608A1.133,1.133,0,0,0,8.979,41.95H5.359a3.245,3.245,0,0,1,1.434-2.736,6.027,6.027,0,0,1,3.658-1.051,5.284,5.284,0,0,1,3.513,1.085,3.772,3.772,0,0,1,1.321,2.976v5.146a5.269,5.269,0,0,0,.494,2.449V50ZM9.893,47.637a2.019,2.019,0,0,0,1.123-.29,1.818,1.818,0,0,0,.639-.655V44.833H10.6q-1.891,0-1.891,1.7a1.036,1.036,0,0,0,.333.8A1.205,1.205,0,0,0,9.893,47.637ZM21.107,50H17.477V33.5h3.631Zm5.65-11.623.118,1.364A4,4,0,0,1,30.2,38.162a2.942,2.942,0,0,1,2.976,1.751,3.868,3.868,0,0,1,3.416-1.751q3.534,0,3.631,4.275V50H36.587V42.663a2.216,2.216,0,0,0-.3-1.3,1.28,1.28,0,0,0-1.1-.408,1.715,1.715,0,0,0-1.6.956l.011.15V50H29.97V42.685a2.329,2.329,0,0,0-.29-1.321,1.277,1.277,0,0,0-1.106-.408,1.736,1.736,0,0,0-1.59.956V50h-3.62V38.377ZM48.833,50a4.088,4.088,0,0,1-.344-1.042A3.366,3.366,0,0,1,45.7,50.215a4.124,4.124,0,0,1-2.793-.994,3.163,3.163,0,0,1-1.149-2.5,3.251,3.251,0,0,1,1.4-2.857,7.114,7.114,0,0,1,4.061-.967h1.117v-.615q0-1.608-1.386-1.608a1.133,1.133,0,0,0-1.289,1.274h-3.62a3.245,3.245,0,0,1,1.434-2.736,6.027,6.027,0,0,1,3.658-1.051,5.284,5.284,0,0,1,3.513,1.085,3.772,3.772,0,0,1,1.321,2.976v5.146a5.269,5.269,0,0,0,.494,2.449V50Zm-2.267-2.363a2.019,2.019,0,0,0,1.123-.29,1.818,1.818,0,0,0,.639-.655V44.833H47.275q-1.891,0-1.891,1.7a1.036,1.036,0,0,0,.333.8A1.205,1.205,0,0,0,46.566,47.637Zm12.311-.215a1.61,1.61,0,0,0,1.182-.414,1.517,1.517,0,0,0,.408-1.155h3.395a4.018,4.018,0,0,1-1.37,3.137,5.1,5.1,0,0,1-3.529,1.225,5.158,5.158,0,0,1-4-1.59,6.264,6.264,0,0,1-1.461-4.4v-.15a7.08,7.08,0,0,1,.65-3.11,4.732,4.732,0,0,1,1.875-2.073,5.589,5.589,0,0,1,2.9-.725,5.03,5.03,0,0,1,3.6,1.257,4.458,4.458,0,0,1,1.332,3.405H60.467a1.987,1.987,0,0,0-.44-1.386,1.52,1.52,0,0,0-1.182-.483q-1.407,0-1.644,1.794a12.659,12.659,0,0,0-.075,1.568,4.972,4.972,0,0,0,.419,2.428A1.45,1.45,0,0,0,58.877,47.422Zm12.139,2.793a5.975,5.975,0,0,1-4.329-1.6,5.509,5.509,0,0,1-1.654-4.152v-.3a7.138,7.138,0,0,1,.661-3.147,4.834,4.834,0,0,1,1.928-2.111,5.821,5.821,0,0,1,3.008-.747,5.031,5.031,0,0,1,3.867,1.52,5.973,5.973,0,0,1,1.418,4.238v1.407h-7.2a2.609,2.609,0,0,0,.849,1.536,2.525,2.525,0,0,0,1.7.559,3.254,3.254,0,0,0,2.686-1.2L75.6,48.174a4.624,4.624,0,0,1-1.917,1.488A6.48,6.48,0,0,1,71.016,50.215Zm-.408-9.26q-1.59,0-1.891,2.105h3.652v-.279a1.793,1.793,0,0,0-.44-1.348A1.753,1.753,0,0,0,70.607,40.955Zm10.087-2.578.118,1.364a3.942,3.942,0,0,1,3.319-1.579,3.316,3.316,0,0,1,2.712,1.085,5.165,5.165,0,0,1,.929,3.266V50H84.143V42.663a1.961,1.961,0,0,0-.354-1.294,1.64,1.64,0,0,0-1.289-.414,1.726,1.726,0,0,0-1.579.838V50H77.3V38.377ZM96.324,50a4.087,4.087,0,0,1-.344-1.042,3.366,3.366,0,0,1-2.793,1.257,4.124,4.124,0,0,1-2.793-.994,3.163,3.163,0,0,1-1.149-2.5,3.251,3.251,0,0,1,1.4-2.857A7.114,7.114,0,0,1,94.7,42.9h1.117v-.615q0-1.608-1.386-1.608a1.133,1.133,0,0,0-1.289,1.274h-3.62a3.245,3.245,0,0,1,1.434-2.736,6.027,6.027,0,0,1,3.658-1.051,5.284,5.284,0,0,1,3.513,1.085,3.772,3.772,0,0,1,1.321,2.976v5.146a5.269,5.269,0,0,0,.494,2.449V50Zm-2.267-2.363a2.019,2.019,0,0,0,1.123-.29,1.818,1.818,0,0,0,.639-.655V44.833H94.767q-1.891,0-1.891,1.7a1.036,1.036,0,0,0,.333.8A1.205,1.205,0,0,0,94.058,47.637Zm10.817-9.26.118,1.364a4,4,0,0,1,3.319-1.579,2.942,2.942,0,0,1,2.976,1.751,3.868,3.868,0,0,1,3.416-1.751q3.534,0,3.631,4.275V50H114.7V42.663a2.216,2.216,0,0,0-.3-1.3,1.28,1.28,0,0,0-1.1-.408,1.715,1.715,0,0,0-1.6.956l.011.15V50h-3.631V42.685a2.329,2.329,0,0,0-.29-1.321,1.277,1.277,0,0,0-1.106-.408,1.736,1.736,0,0,0-1.59.956V50h-3.62V38.377ZM124.222,50h-3.631V38.377h3.631Zm-3.846-14.62a1.616,1.616,0,0,1,.559-1.268,2.375,2.375,0,0,1,2.9,0,1.718,1.718,0,0,1,0,2.535,2.375,2.375,0,0,1-2.9,0A1.616,1.616,0,0,1,120.376,35.38Zm11.7,14.835a5.975,5.975,0,0,1-4.329-1.6,5.509,5.509,0,0,1-1.654-4.152v-.3a7.138,7.138,0,0,1,.661-3.147,4.834,4.834,0,0,1,1.928-2.111,5.821,5.821,0,0,1,3.008-.747,5.031,5.031,0,0,1,3.867,1.52,5.973,5.973,0,0,1,1.418,4.238v1.407h-7.2a2.609,2.609,0,0,0,.849,1.536,2.525,2.525,0,0,0,1.7.559,3.254,3.254,0,0,0,2.686-1.2l1.654,1.955a4.624,4.624,0,0,1-1.917,1.488A6.48,6.48,0,0,1,132.074,50.215Zm-.408-9.26q-1.59,0-1.891,2.105h3.652v-.279a1.793,1.793,0,0,0-.44-1.348A1.753,1.753,0,0,0,131.666,40.955Zm10.087-2.578.118,1.364a3.942,3.942,0,0,1,3.319-1.579,3.316,3.316,0,0,1,2.712,1.085,5.165,5.165,0,0,1,.929,3.266V50H145.2V42.663a1.961,1.961,0,0,0-.354-1.294,1.64,1.64,0,0,0-1.289-.414,1.726,1.726,0,0,0-1.579.838V50h-3.62V38.377Zm13.3-2.89v2.89h1.912v2.514h-1.912v5.317a1.358,1.358,0,0,0,.236.913,1.268,1.268,0,0,0,.935.258,5.311,5.311,0,0,0,.9-.064V49.9a6.681,6.681,0,0,1-2.041.312,3.792,3.792,0,0,1-2.761-.881,3.61,3.61,0,0,1-.892-2.675V40.891h-1.482V38.377h1.482v-2.89Zm2.557,8.594a6.86,6.86,0,0,1,.677-3.1,4.84,4.84,0,0,1,1.944-2.089,5.856,5.856,0,0,1,2.976-.73,5.344,5.344,0,0,1,4.114,1.617,6.2,6.2,0,0,1,1.5,4.4v.129a6.019,6.019,0,0,1-1.509,4.313,5.359,5.359,0,0,1-4.087,1.6,5.42,5.42,0,0,1-3.985-1.488,5.819,5.819,0,0,1-1.622-4.034Zm3.62.226a4.325,4.325,0,0,0,.5,2.363,1.682,1.682,0,0,0,1.493.752q1.934,0,1.977-2.976v-.365q0-3.126-2-3.126-1.815,0-1.966,2.7Z" transform="translate(713 2569)" fill="#fff"/>
    <g id="Grupo_123170" data-name="Grupo 123170" transform="translate(0 66)">
      <g id="Elipse_6246" data-name="Elipse 6246" transform="translate(351 2708)" fill="none" stroke="#707070" stroke-width="2" stroke-dasharray="2">
        <circle cx="19" cy="19" r="19" stroke="none"/>
        <circle cx="19" cy="19" r="18" fill="none"/>
      </g>
      <circle id="Elipse_6251" data-name="Elipse 6251" cx="14" cy="14" r="14" transform="translate(356 2713)" fill="#fece16"/>
    </g>
    <g id="Grupo_123174" data-name="Grupo 123174" transform="translate(860 66)">
      <g id="Elipse_6246-2" data-name="Elipse 6246" transform="translate(351 2708)" fill="none" stroke="#707070" stroke-width="2" stroke-dasharray="2">
        <circle cx="19" cy="19" r="19" stroke="none"/>
        <circle cx="19" cy="19" r="18" fill="none"/>
      </g>
      <circle id="Elipse_6251-2" data-name="Elipse 6251" cx="14" cy="14" r="14" transform="translate(356 2713)" fill="#fece16"/>
    </g>
    <g id="Grupo_123171" data-name="Grupo 123171" transform="translate(157 328)">
      <g id="Elipse_6246-3" data-name="Elipse 6246" transform="translate(351 2708)" fill="none" stroke="#707070" stroke-width="2" stroke-dasharray="2">
        <circle cx="19" cy="19" r="19" stroke="none"/>
        <circle cx="19" cy="19" r="18" fill="none"/>
      </g>
      <circle id="Elipse_6251-3" data-name="Elipse 6251" cx="14" cy="14" r="14" transform="translate(356 2713)" fill="#fece16"/>
    </g>
    <g id="Grupo_123172" data-name="Grupo 123172" transform="translate(430 328)">
      <g id="Elipse_6246-4" data-name="Elipse 6246" transform="translate(351 2708)" fill="none" stroke="#707070" stroke-width="2" stroke-dasharray="2">
        <circle cx="19" cy="19" r="19" stroke="none"/>
        <circle cx="19" cy="19" r="18" fill="none"/>
      </g>
      <circle id="Elipse_6251-4" data-name="Elipse 6251" cx="14" cy="14" r="14" transform="translate(356 2713)" fill="#fece16"/>
    </g>
    <g id="Grupo_123173" data-name="Grupo 123173" transform="translate(703 328)">
      <g id="Elipse_6246-5" data-name="Elipse 6246" transform="translate(351 2708)" fill="none" stroke="#707070" stroke-width="2" stroke-dasharray="2">
        <circle cx="19" cy="19" r="19" stroke="none"/>
        <circle cx="19" cy="19" r="18" fill="none"/>
      </g>
      <circle id="Elipse_6251-5" data-name="Elipse 6251" cx="14" cy="14" r="14" transform="translate(356 2713)" fill="#fece16"/>
    </g>
    <g id="Grupo_123175" data-name="Grupo 123175" transform="translate(13.914 3195.342)" opacity="0.81">
      <path id="Trazado_247634" data-name="Trazado 247634" d="M619.387-415H591.376c.489-1.265.905-2.481,1.427-3.65a4.766,4.766,0,0,0,.272-3.07,85.982,85.982,0,0,1,.122-35.191,2.832,2.832,0,0,0-.116-1.44c-.512-1.471-1.1-2.914-1.7-4.456h31.84c-.395,1.046-.7,2.089-1.172,3.048a5.923,5.923,0,0,0-.394,4.257c.471,1.936.694,3.933,1.029,5.932a4.137,4.137,0,0,0-3.3,3.134,5.53,5.53,0,0,0-.114,1.228q-.009,14.271,0,28.541C619.275-416.134,619.344-415.607,619.387-415Zm-5.447-27.88a6.666,6.666,0,0,0-6.636-6.675,6.667,6.667,0,0,0-6.653,6.571,6.668,6.668,0,0,0,6.589,6.722A6.681,6.681,0,0,0,613.94-442.875Zm2.62,19.988h-18.5v2.555h18.5Zm.012-33.242H598.045v2.51h18.527Zm-18.564,30.466H605.9V-428.2h-7.893Zm18.557-2.539h-7.892v2.541h7.892Z" transform="translate(-116.998 -74.177)" fill="#006a8a"/>
      <path id="Trazado_247635" data-name="Trazado 247635" d="M475.9-504.117q0-14.055,0-28.11c0-2.329-.956-3.282-3.278-3.284s-4.669,0-7,0c-1.042,0-1.653-.486-1.676-1.3-.024-.841.61-1.362,1.7-1.364,2.926-.005,5.851-.012,8.777,0a3.985,3.985,0,0,1,4.146,4.042c.01.325,0,.65,0,.975q0,27.755,0,55.51c0,2.376.95,3.323,3.329,3.323l54.435,0a5.389,5.389,0,0,1,.885.021,1.256,1.256,0,0,1,1.18,1.321,1.269,1.269,0,0,1-1.2,1.3,5.137,5.137,0,0,1-.8.017H480.544c-3.1,0-4.641-1.533-4.642-4.617Q475.9-490.195,475.9-504.117Z" transform="translate(-12.206 -12.163)" fill="#006a8a"/>
      <path id="Trazado_247636" data-name="Trazado 247636" d="M774.59-366.548v-6.572h3.377c1.063,0,2.127-.021,3.19.009a1.3,1.3,0,0,1,1.408,1.38c.019,4.371.009,8.741.009,13.182h-18.62v-.953q0-5.673,0-11.346c0-2.085.42-2.449,2.638-2.2v6.5Z" transform="translate(-259.025 -147.953)" fill="#006a8a"/>
      <path id="Trazado_247637" data-name="Trazado 247637" d="M766.595-268.675h7.965v-6.575h8.012v2.707c0,3.4,0,6.8,0,10.2,0,1.2-.476,1.676-1.658,1.677q-7.624.01-15.248,0c-1.248,0-1.711-.466-1.713-1.713-.006-4.255,0-8.509,0-12.844h2.648Z" transform="translate(-259.019 -228.475)" fill="#006a8a"/>
      <path id="Trazado_247638" data-name="Trazado 247638" d="M808.148-530.608a6.63,6.63,0,0,1,6.643,6.646,6.641,6.641,0,0,1-6.647,6.647,6.643,6.643,0,0,1-6.643-6.651A6.628,6.628,0,0,1,808.148-530.608Z" transform="translate(-289.917 -18.393)" fill="#006a8a"/>
      <path id="Trazado_247639" data-name="Trazado 247639" d="M801.5-143.957a3.991,3.991,0,0,1,3.975-4.02,3.982,3.982,0,0,1,3.993,4,3.99,3.99,0,0,1-3.93,3.975A3.99,3.99,0,0,1,801.5-143.957Z" transform="translate(-289.917 -333.182)" fill="#006a8a"/>
      <path id="Trazado_247640" data-name="Trazado 247640" d="M583.949-144a4,4,0,0,1,4.033-3.961,4,4,0,0,1,3.94,4.055,4,4,0,0,1-3.99,3.919A4,4,0,0,1,583.949-144Z" transform="translate(-110.936 -333.194)" fill="#006a8a"/>
      <path id="Trazado_247641" data-name="Trazado 247641" d="M648.086-552.965h2.671v3.934h3.963v2.678h-3.935v3.961h-2.678v-3.937h-3.955V-549h3.934Zm2.616,6.605v-2.585h-2.586c0,.754-.025,1.456.02,2.153a.6.6,0,0,0,.416.412C649.248-546.334,649.95-546.36,650.7-546.36Z" transform="translate(-160.465)" fill="#006a8a"/>
      <path id="Trazado_247642" data-name="Trazado 247642" d="M470.765-222.756v2.551h-6.559v-2.551Z" transform="translate(-12.424 -271.662)" fill="#006a8a"/>
      <path id="Trazado_247643" data-name="Trazado 247643" d="M449.1-190.409v-2.6h6.536v2.6Z" transform="translate(0 -296.133)" fill="#006a8a"/>
      <path id="Trazado_247644" data-name="Trazado 247644" d="M794.313-372.849h2.554v3.878h-2.554Z" transform="translate(-284.002 -148.181)" fill="#006a8a"/>
      <path id="Trazado_247645" data-name="Trazado 247645" d="M794.331-275.3h2.549v3.879h-2.549Z" transform="translate(-284.017 -228.432)" fill="#006a8a"/>
      <path id="Trazado_247646" data-name="Trazado 247646" d="M479.084-250.152v-2.573h3.909v2.573Z" transform="translate(-24.664 -247.006)" fill="#006a8a"/>
      <path id="Trazado_247647" data-name="Trazado 247647" d="M811.763-422.748h-2.589v-2.558h2.589Z" transform="translate(-296.228 -105.025)" fill="#006a8a"/>
      <path id="Trazado_247648" data-name="Trazado 247648" d="M751.878-535.223h-2.541v-2.584h2.541Z" transform="translate(-247.001 -12.47)" fill="#006a8a"/>
      <path id="Trazado_247649" data-name="Trazado 247649" d="M658.953-369.081a4.007,4.007,0,0,1,4.006-3.994,4.009,4.009,0,0,1,3.969,4.03,4.006,4.006,0,0,1-3.961,3.949A4.006,4.006,0,0,1,658.953-369.081Z" transform="translate(-172.642 -147.996)" fill="#006a8a"/>
    </g>
    <g id="Grupo_123187" data-name="Grupo 123187" transform="translate(-506.504 3388.828)" opacity="0.81">
      <path id="Trazado_247650" data-name="Trazado 247650" d="M1117.145-590.3c-.152-2.035-.3-3.95-.44-5.862,17.132-1.96,38.437,8.619,45.156,30.719a43.463,43.463,0,0,1-28.42,54.032,42.6,42.6,0,0,1-25.394.4,42.846,42.846,0,0,1-21.374-13.884,43.278,43.278,0,0,1-10.009-23.472c-.384.307-.629.5-.871.7-.222.181-.44.367-.756.632l-3.983-4.467c.623-.56,1.185-1.071,1.754-1.575,1.541-1.366,3.068-2.749,4.634-4.088a2.949,2.949,0,0,1,3.9-.176c2.2,1.627,4.354,3.312,6.524,4.977a2.374,2.374,0,0,1,.289.344l-3.582,4.67-1.709-1.222c1.069,14.494,13.723,31.6,34.485,33.113a37.5,37.5,0,0,0,40.172-33.979,36.216,36.216,0,0,0-10.675-29.721C1138.762-587.373,1128.777-590.939,1117.145-590.3Z" fill="#006a8a"/>
      <path id="Trazado_247651" data-name="Trazado 247651" d="M1374.412-425.136c.021.426.048.734.048,1.042,0,7.847-.008,15.695.018,23.542a1.306,1.306,0,0,1-.863,1.388q-10.884,5.182-21.743,10.419c-.252.121-.516.215-.873.362-.026-.4-.062-.7-.063-1.009q-.032-11-.069-22a1.32,1.32,0,0,1,.764-1.37q10.891-5.914,21.754-11.882C1373.687-424.806,1374-424.94,1374.412-425.136Z" transform="translate(-225.774 -138.18)" fill="#006a8a"/>
      <path id="Trazado_247652" data-name="Trazado 247652" d="M1189.052-425.349c.615.326,1.122.586,1.622.86q10.533,5.781,21.068,11.56a1.176,1.176,0,0,1,.782,1.157c-.028,7.531-.021,15.061-.025,22.592,0,.16-.019.319-.037.6-.3-.115-.562-.194-.8-.31q-10.964-5.26-21.928-10.52c-.47-.225-.761-.439-.76-1.051q.036-12.213.02-24.427C1188.99-424.986,1189.014-425.081,1189.052-425.349Z" transform="translate(-95.142 -138.008)" fill="#006a8a"/>
      <path id="Trazado_247653" data-name="Trazado 247653" d="M1213.652-503.208c.288-.171.49-.312.71-.418q10.605-5.1,21.224-10.175a1.756,1.756,0,0,1,1.327-.042q10.854,5.139,21.673,10.353c.114.055.217.132.406.25a3.89,3.89,0,0,1-.5.4q-10.7,5.86-21.412,11.716a1.29,1.29,0,0,1-1.418.085q-10.725-5.923-21.474-11.8C1214.022-502.929,1213.878-503.05,1213.652-503.208Z" transform="translate(-115.057 -66.515)" fill="#006a8a"/>
      <path id="Trazado_247654" data-name="Trazado 247654" d="M1238.146-588.581l6.49-2.12,1.427,5.855-5.612,1.84Z" transform="translate(-134.821 -4.591)" fill="#006a8a"/>
      <path id="Trazado_247655" data-name="Trazado 247655" d="M1136.025-517.736l4.583,3.924-3.465,4.767L1132-512.2Z" transform="translate(-49.176 -63.464)" fill="#006a8a"/>
      <path id="Trazado_247656" data-name="Trazado 247656" d="M1181.885-554.976l-3.91-4.573,5.506-4.038,3.181,5.142Z" transform="translate(-86.271 -26.469)" fill="#006a8a"/>
      <path id="Trazado_247657" data-name="Trazado 247657" d="M1110.727-449.672l-5.866-1.405,2.1-6.5,5.577,2.305Z" transform="translate(-27.277 -112.002)" fill="#006a8a"/>
    </g>
    <g id="Grupo_123188" data-name="Grupo 123188" transform="translate(-901.92 3403.169)" opacity="0.81">
      <path id="Trazado_247658" data-name="Trazado 247658" d="M1851.636-498.357c-.877,0-1.474-.021-2.068,0a4.89,4.89,0,0,0-4.886,5.5c.356,4.184.765,8.364,1.146,12.545q.932,10.219,1.859,20.437c.505,5.544,1.056,11.084,1.5,16.633.161,2.025.049,4.07.084,6.106.014.823.089,1.646.141,2.54h-17.648a1.157,1.157,0,0,1,.147-.273c5.293-4.989,7.054-15.5.332-23.607a3.718,3.718,0,0,1-1.012-2.819c.1-1.393.034-2.8.019-4.2a4.874,4.874,0,0,0-5-5.02c-2.1-.028-4.2-.005-6.349-.005a5.015,5.015,0,0,1-.1-.673c0-5.314-.132-10.633.033-15.942.227-7.307,3.634-12.838,10.244-15.985,6.408-3.051,12.688-2.312,18.507,1.79a23.267,23.267,0,0,1,2.336,2.1A10.745,10.745,0,0,1,1851.636-498.357ZM1823.1-488.032c-.064,1.924.489,2.682,1.515,2.734s1.656-.621,1.733-1.923a11.371,11.371,0,0,1,6.422-9.991c1.083-.572,1.44-1.447.992-2.332-.471-.929-1.383-1.143-2.537-.537A14.43,14.43,0,0,0,1823.1-488.032Z" transform="translate(-126.551 -34.459)" fill="#006a8a"/>
      <path id="Trazado_247659" data-name="Trazado 247659" d="M1668.739-300.928c0-1.831-.049-3.543.023-5.249a1.4,1.4,0,0,1,1.346-1.28,7.336,7.336,0,0,1,1.142-.043q13.8,0,27.594,0c2.2,0,2.589.4,2.59,2.641,0,1.265,0,2.531,0,3.929h-1.212c-6.556,0-13.113-.007-19.669.022a2.147,2.147,0,0,0-1.467.455,1.987,1.987,0,0,0-.439,1.6c.143.467.774.83,1.258,1.13.234.145.621.05.939.05,6.843,0,13.686.013,20.528-.016a1.824,1.824,0,0,1,1.6.772c3.825,4.758,4.877,9.976,2.633,15.73a10.671,10.671,0,0,1-4.249,5.142,7.7,7.7,0,0,1-4.392,1.32c-7.829-.056-15.659-.092-23.487.012a8.3,8.3,0,0,1-6.453-2.752c-3.816-4.08-4.5-8.9-2.9-14.12a14.148,14.148,0,0,1,3.258-5.554,1.824,1.824,0,0,1,1.118-.507c1.078-.069,2.163-.01,3.245-.03a1.648,1.648,0,0,0,1.828-1.641c-.005-.979-.7-1.592-1.845-1.61C1670.78-300.94,1669.828-300.928,1668.739-300.928Zm16.364,13.086q5.293,0,10.585,0a6.743,6.743,0,0,0,1.046-.048,1.57,1.57,0,0,0,1.388-1.567,1.577,1.577,0,0,0-1.439-1.619,6.118,6.118,0,0,0-.856-.03q-10.776,0-21.552,0a4.947,4.947,0,0,0-.95.045,1.528,1.528,0,0,0-1.335,1.513,1.544,1.544,0,0,0,1.294,1.64,6.217,6.217,0,0,0,1.139.063Q1679.763-287.839,1685.1-287.842Zm-.057,6.536v-.005c2.1,0,4.2.015,6.295-.006,1.16-.011,1.87-.636,1.89-1.584a1.642,1.642,0,0,0-1.814-1.661c-4.26-.02-8.521-.012-12.781,0a1.562,1.562,0,0,0-1.682,1.258c-.269,1.112.484,1.974,1.8,1.991C1680.849-281.286,1682.948-281.306,1685.046-281.306Z" transform="translate(0 -194.232)" fill="#006a8a"/>
      <path id="Trazado_247660" data-name="Trazado 247660" d="M1990.984-367.856h-1.106c-4.8,0-9.609-.019-14.412.018-.823.006-1.15-.189-1.227-1.065q-1.616-18.345-3.3-36.684c-.14-1.549-.285-3.1-.44-4.772.414-.025.749-.062,1.083-.062,7.413,0,14.826.011,22.239-.021.882,0,1.053.261.976,1.1q-1.844,20.049-3.636,40.1C1991.129-368.83,1991.059-368.423,1990.984-367.856Z" transform="translate(-248.52 -110.951)" fill="#006a8a"/>
      <path id="Trazado_247661" data-name="Trazado 247661" d="M1967.639-448.22c-.112-1.15-.265-2.186-.3-3.227a1.609,1.609,0,0,1,1.607-1.665c.253-.019.508-.01.762-.01q10.537,0,21.073,0c1.614,0,2.187.618,2.085,2.216-.172,2.685-.172,2.685-2.871,2.685h-22.358Z" transform="translate(-245.96 -76.42)" fill="#006a8a"/>
      <path id="Trazado_247662" data-name="Trazado 247662" d="M1991.56-170.427h3.475c3.938,0,7.878.025,11.816-.019.853-.01,1.1.246,1.053,1.079-.07,1.235,0,2.477-.026,3.715a1.627,1.627,0,0,1-1.782,1.778q-6.384.024-12.769,0c-1,0-1.705-.5-1.745-1.393C1991.507-166.937,1991.56-168.615,1991.56-170.427Z" transform="translate(-265.54 -305.114)" fill="#006a8a"/>
      <path id="Trazado_247663" data-name="Trazado 247663" d="M1893.026-541.655a22.47,22.47,0,0,0-13.03.029c0-1.108-.076-2.094.017-3.062a3.1,3.1,0,0,1,2.986-2.833c2.346-.082,4.7-.084,7.045,0a3.057,3.057,0,0,1,2.966,2.839C1893.1-543.745,1893.026-542.79,1893.026-541.655Z" transform="translate(-175.273)" fill="#006a8a"/>
    </g>
    <g id="Grupo_123189" data-name="Grupo 123189" transform="translate(-1360.059 3486.307)" opacity="0.81">
      <path id="Trazado_247664" data-name="Trazado 247664" d="M2383.384-626.721h-63.042c-.014.3-.039.579-.039.857,0,1.735.007,3.469-.005,5.2a3.163,3.163,0,0,1-3.19,3.371,3.17,3.17,0,0,1-3.114-3.366q0-34.5,0-68.991a3.162,3.162,0,0,1,3.139-3.339,3.136,3.136,0,0,1,3.164,3.314q.019,10.487-.012,20.973c0,.767.22.955.969.954q30.593-.03,61.186,0c.759,0,.965-.2.962-.962-.028-6.938-.012-13.877-.02-20.815a3.144,3.144,0,0,1,1.956-3.209,3.14,3.14,0,0,1,4.344,2.62c.017.183.013.368.013.551q0,34.417-.03,68.833a4.4,4.4,0,0,1-.721,2.254,2.93,2.93,0,0,1-3.38,1.024,3.1,3.1,0,0,1-2.168-2.982c-.03-1.787-.009-3.574-.01-5.361Zm-31.542-34.72q-15.3,0-30.593-.017c-.757,0-.966.2-.964.959q.038,13.246,0,26.493c0,.757.206.962.964.962q30.593-.03,61.186,0c.754,0,.97-.2.967-.959-.026-8.8-.016-17.609-.017-26.414,0-1.024,0-1.024-1.028-1.024Z" transform="translate(0 0)" fill="#006a8a"/>
      <path id="Trazado_247665" data-name="Trazado 247665" d="M2424.215-653.044c0,.848-.014,1.579,0,2.311a2.373,2.373,0,0,0,2.388,2.414,2.366,2.366,0,0,0,2.33-2.39c.019-.733,0-1.467,0-2.272.269-.023.494-.059.719-.059q3.785-.006,7.57,0c1.419,0,1.967.546,1.969,1.952q.009,5.953,0,11.907c0,1.351-.567,1.916-1.925,1.917q-10.685.008-21.369,0c-1.4,0-1.943-.553-1.945-1.974q-.008-5.914,0-11.828c0-1.417.547-1.971,1.947-1.975C2418.634-653.05,2421.364-653.044,2424.215-653.044Z" transform="translate(-84.198 -33.641)" fill="#006a8a"/>
      <path id="Trazado_247666" data-name="Trazado 247666" d="M2562.66-453.027c0,.872-.018,1.606,0,2.34A2.379,2.379,0,0,0,2565-448.3a2.358,2.358,0,0,0,2.375-2.343c.032-.756.005-1.514.005-2.315.27-.028.471-.067.671-.067,2.049,0,4.1-.008,6.148,0,1.257.005,1.861.583,1.864,1.816q.014,7.646,0,15.291c0,1.238-.6,1.814-1.866,1.816q-9.183.009-18.366,0a1.624,1.624,0,0,1-1.845-1.84q-.01-7.606,0-15.213c0-1.286.6-1.867,1.894-1.871C2558.1-453.032,2560.331-453.027,2562.66-453.027Z" transform="translate(-202.14 -202.114)" fill="#006a8a"/>
      <path id="Trazado_247667" data-name="Trazado 247667" d="M2403.478-417.3q-3.745,0-7.491,0c-1.448,0-1.989-.546-1.991-2.013q-.007-5.874,0-11.749c0-1.463.541-2,2-2.009,1.419-.005,2.839.027,4.258-.014.632-.018.921.14.856.824a10.664,10.664,0,0,0,0,1.654,2.348,2.348,0,0,0,2.372,2.259,2.354,2.354,0,0,0,2.331-2.3c.026-.6.025-1.209,0-1.813-.014-.423.115-.619.578-.614,1.629.02,3.26-.014,4.888.018a1.523,1.523,0,0,1,1.631,1.643q.024,6.229,0,12.458a1.569,1.569,0,0,1-1.785,1.654C2408.577-417.3,2406.028-417.3,2403.478-417.3Z" transform="translate(-67.385 -218.909)" fill="#006a8a"/>
    </g>
    <g id="Grupo_123190" data-name="Grupo 123190" transform="translate(-1695.246 3688.877)" opacity="0.81">
      <path id="Trazado_247668" data-name="Trazado 247668" d="M2900.575-1046.2c0,2.286,0,4.572,0,6.858.005,2.758.655,3.383,3.439,3.376,3.8-.009,7.607,0,11.6,0a8.407,8.407,0,0,1-2.362,5.646c-2.912,2.853-3.879,6.25-3.753,10.234.162,5.116.044,10.241.035,15.362a25.143,25.143,0,0,0,3.168,12.616,8.783,8.783,0,0,1-2.071,11.327,9.044,9.044,0,0,1-10.93.231,8.708,8.708,0,0,1-2.547-11.221,30.213,30.213,0,0,0,3.436-15.1c-.136-4.752-.084-9.511-.009-14.265a11.829,11.829,0,0,0-3.3-8.669,10.533,10.533,0,0,1,.689-15.262,19.87,19.87,0,0,1,2.107-1.439Zm8.68,58.486a4.335,4.335,0,0,0-4.233-4.182,4.288,4.288,0,0,0-4.223,4.33,4.2,4.2,0,0,0,4.293,4.058A4.21,4.21,0,0,0,2909.255-987.711Z" transform="translate(-101.778)" fill="#006a8a"/>
      <path id="Trazado_247669" data-name="Trazado 247669" d="M2753.058-961.174v40.734c-3.887.276-7-2.914-7.021-7.2-.036-6.317-.006-12.635,0-18.952,0-2.558-.051-5.118.013-7.675a7,7,0,0,1,5.879-6.906A8.806,8.806,0,0,1,2753.058-961.174Z" transform="translate(0 -58.538)" fill="#006a8a"/>
      <path id="Trazado_247670" data-name="Trazado 247670" d="M2974.7-1003c.134-1.932.219-3.7.392-5.464.11-1.117.931-1.37,1.923-1.4,2.305-.063,2.3-.081,2.3-2.4,0-6.953-.009-13.907.018-20.861,0-1.255-.109-2.244-1.655-2.556-.378-.076-.89-1.072-.812-1.56.412-2.577.962-5.135,1.552-7.679a1.434,1.434,0,0,1,.981-.9c1.449-.1,2.908-.043,4.446-.043.627,2.993,1.288,5.841,1.762,8.719a1.954,1.954,0,0,1-1.078,1.535,1.777,1.777,0,0,0-1.387,1.957c.013,7.477.027,14.953-.016,22.429-.006,1.148.443,1.389,1.482,1.385,2.619-.011,2.679.07,2.914,2.712.119,1.337.161,2.681.243,4.124Z" transform="translate(-156.92 -0.423)" fill="#006a8a"/>
      <path id="Trazado_247671" data-name="Trazado 247671" d="M2978.846-893.407c1.878,0,3.758.035,5.635-.015.947-.025,1.261.343,1.308,1.27.171,3.387.454,6.767.624,10.154a7.57,7.57,0,0,1-7.542,8.206,7.569,7.569,0,0,1-7.732-8.176c.146-3.387.452-6.767.624-10.153.052-1.023.468-1.335,1.45-1.3C2975.088-893.365,2976.968-893.407,2978.846-893.407Z" transform="translate(-154.472 -105.038)" fill="#006a8a"/>
      <path id="Trazado_247672" data-name="Trazado 247672" d="M2804.022-1004.514v4.892h-5.013c0-2.651-.112-5.3.049-7.929a2.224,2.224,0,0,1,2.434-2c6.371-.03,12.742-.04,19.113,0a2.421,2.421,0,0,1,2.517,2.476c.065,2.035.023,4.073.02,6.11,0,.414-.034.828-.059,1.37H2818.1c0-1.294.071-2.538-.04-3.765-.037-.406-.537-1.1-.834-1.1C2812.9-1004.537,2808.575-1004.514,2804.022-1004.514Z" transform="translate(-36.339 -25.333)" fill="#006a8a"/>
      <path id="Trazado_247673" data-name="Trazado 247673" d="M2943.2-1045.75c2.461.381,5.237,3.722,5.551,6.63H2943.2Z" transform="translate(-135.306 -0.515)" fill="#006a8a"/>
      <path id="Trazado_247674" data-name="Trazado 247674" d="M2817.652-937.386a20.944,20.944,0,0,0,2.106-9.241c-.036-4.392,0-8.783,0-13.175,0-.551-.06-1.1-.094-1.686-.418-.045-.672-.1-.927-.1-11.084,0-22.167.019-33.251-.02-1.335-.005-1.219.747-1.219,1.614q.007,13.724,0,27.447c0,3.911,0,7.821,0,11.835h33.9C2814.478-927.5,2814.4-930.5,2817.652-937.386Z" transform="translate(-26.246 -58.254)" fill="#006a8a"/>
    </g>
  </g>
</svg>
