<svg xmlns="http://www.w3.org/2000/svg" width="294" height="159.5" viewBox="0 0 294 159.5">
  <g id="Grupo_123152" data-name="Grupo 123152" transform="translate(-495 -3095.5)">
    <rect id="Rectángulo_42322" data-name="Rectángulo 42322" width="294" height="126.204" transform="translate(495 3095.5)" fill="#28acd3" opacity="0.25"/>
    <rect id="Rectángulo_42323" data-name="Rectángulo 42323" width="294" height="33" transform="translate(495 3222)" fill="#28acd3"/>
    <path id="Trazado_247610" data-name="Trazado 247610" d="M30.488,17V5.625h3.5a5.315,5.315,0,0,1,2.684.676A4.712,4.712,0,0,1,38.52,8.223a5.928,5.928,0,0,1,.664,2.832v.523a5.945,5.945,0,0,1-.652,2.82,4.672,4.672,0,0,1-1.84,1.914,5.355,5.355,0,0,1-2.68.688Zm2.344-9.477v7.594h1.133a2.545,2.545,0,0,0,2.1-.9,4.06,4.06,0,0,0,.742-2.57v-.6a4.124,4.124,0,0,0-.719-2.629,2.537,2.537,0,0,0-2.1-.895Zm11.8,9.633A4.15,4.15,0,0,1,41.6,16.016a4.054,4.054,0,0,1-1.168-3.039v-.219a5.106,5.106,0,0,1,.492-2.277A3.612,3.612,0,0,1,42.32,8.934a3.914,3.914,0,0,1,2.059-.543,3.508,3.508,0,0,1,2.73,1.094,4.444,4.444,0,0,1,1,3.1v.922H42.723a2.1,2.1,0,0,0,.66,1.328,2,2,0,0,0,1.395.5,2.437,2.437,0,0,0,2.039-.945l1.109,1.242a3.389,3.389,0,0,1-1.375,1.121A4.511,4.511,0,0,1,44.629,17.156Zm-.258-6.945a1.411,1.411,0,0,0-1.09.455,2.357,2.357,0,0,0-.535,1.3h3.141v-.181a1.681,1.681,0,0,0-.406-1.165A1.456,1.456,0,0,0,44.371,10.211ZM60.98,12.852a5.07,5.07,0,0,1-.887,3.129A2.843,2.843,0,0,1,57.7,17.156a2.633,2.633,0,0,1-2.07-.891V20.25H53.371V8.547h2.094l.078.828a2.654,2.654,0,0,1,2.141-.984,2.862,2.862,0,0,1,2.43,1.156,5.207,5.207,0,0,1,.867,3.188Zm-2.258-.164a3.327,3.327,0,0,0-.418-1.82,1.361,1.361,0,0,0-1.215-.641,1.479,1.479,0,0,0-1.461.813V14.5a1.5,1.5,0,0,0,1.477.836Q58.723,15.336,58.723,12.688ZM67.277,17a2.507,2.507,0,0,1-.227-.758,2.732,2.732,0,0,1-2.133.914,3,3,0,0,1-2.059-.719,2.312,2.312,0,0,1-.816-1.812,2.389,2.389,0,0,1,1-2.062,4.915,4.915,0,0,1,2.879-.727h1.039v-.484a1.393,1.393,0,0,0-.3-.937,1.183,1.183,0,0,0-.949-.352,1.345,1.345,0,0,0-.895.273.929.929,0,0,0-.324.75H62.23a2.268,2.268,0,0,1,.453-1.359,3,3,0,0,1,1.281-.98,4.669,4.669,0,0,1,1.859-.355,3.689,3.689,0,0,1,2.48.785,2.747,2.747,0,0,1,.918,2.207v3.664a4.041,4.041,0,0,0,.336,1.82V17ZM65.41,15.43a1.945,1.945,0,0,0,.922-.223,1.462,1.462,0,0,0,.625-.6V13.156h-.844q-1.7,0-1.8,1.172l-.008.133a.9.9,0,0,0,.3.7A1.153,1.153,0,0,0,65.41,15.43Zm10.125-.766a.727.727,0,0,0-.41-.652,4.659,4.659,0,0,0-1.316-.426q-3.016-.633-3.016-2.562a2.323,2.323,0,0,1,.934-1.879,3.766,3.766,0,0,1,2.441-.754,4.053,4.053,0,0,1,2.574.758,2.388,2.388,0,0,1,.965,1.969H75.449a1.092,1.092,0,0,0-.312-.8A1.322,1.322,0,0,0,74.16,10a1.351,1.351,0,0,0-.883.258.814.814,0,0,0-.312.656.7.7,0,0,0,.355.605,3.657,3.657,0,0,0,1.2.4,9.8,9.8,0,0,1,1.422.379A2.336,2.336,0,0,1,77.73,14.57a2.2,2.2,0,0,1-.992,1.871,4.28,4.28,0,0,1-2.562.715,4.47,4.47,0,0,1-1.887-.379A3.166,3.166,0,0,1,71,15.738a2.414,2.414,0,0,1-.469-1.426h2.141a1.179,1.179,0,0,0,.445.922,1.766,1.766,0,0,0,1.109.32,1.635,1.635,0,0,0,.98-.246A.766.766,0,0,0,75.535,14.664ZM84.082,17a2.507,2.507,0,0,1-.227-.758,2.732,2.732,0,0,1-2.133.914,3,3,0,0,1-2.059-.719,2.312,2.312,0,0,1-.816-1.812,2.389,2.389,0,0,1,1-2.062,4.915,4.915,0,0,1,2.879-.727h1.039v-.484a1.393,1.393,0,0,0-.3-.937,1.183,1.183,0,0,0-.949-.352,1.345,1.345,0,0,0-.895.273.929.929,0,0,0-.324.75H79.035a2.268,2.268,0,0,1,.453-1.359,3,3,0,0,1,1.281-.98,4.669,4.669,0,0,1,1.859-.355,3.689,3.689,0,0,1,2.48.785,2.747,2.747,0,0,1,.918,2.207v3.664a4.041,4.041,0,0,0,.336,1.82V17Zm-1.867-1.57a1.945,1.945,0,0,0,.922-.223,1.462,1.462,0,0,0,.625-.6V13.156h-.844q-1.7,0-1.8,1.172l-.008.133a.9.9,0,0,0,.3.7A1.153,1.153,0,0,0,82.215,15.43Zm7.938-6.883v8.914a3.024,3.024,0,0,1-.742,2.176,2.821,2.821,0,0,1-2.141.777,4.591,4.591,0,0,1-1.117-.133V18.492a4.238,4.238,0,0,0,.711.07q1.023,0,1.023-1.086V8.547ZM87.707,6.359a1.112,1.112,0,0,1,.34-.836,1.47,1.47,0,0,1,1.852,0,1.112,1.112,0,0,1,.34.836,1.108,1.108,0,0,1-.348.844,1.448,1.448,0,0,1-1.836,0A1.108,1.108,0,0,1,87.707,6.359Zm8.1,10.8a4.15,4.15,0,0,1-3.027-1.141,4.054,4.054,0,0,1-1.168-3.039v-.219a5.106,5.106,0,0,1,.492-2.277A3.612,3.612,0,0,1,93.5,8.934a3.914,3.914,0,0,1,2.059-.543,3.508,3.508,0,0,1,2.73,1.094,4.444,4.444,0,0,1,1,3.1v.922H93.9a2.1,2.1,0,0,0,.66,1.328,2,2,0,0,0,1.395.5A2.437,2.437,0,0,0,98,14.391l1.109,1.242a3.389,3.389,0,0,1-1.375,1.121A4.511,4.511,0,0,1,95.809,17.156Zm-.258-6.945a1.411,1.411,0,0,0-1.09.455,2.357,2.357,0,0,0-.535,1.3h3.141v-.181a1.681,1.681,0,0,0-.406-1.165A1.456,1.456,0,0,0,95.551,10.211Zm9.766.453a6.134,6.134,0,0,0-.812-.062,1.654,1.654,0,0,0-1.68.867V17h-2.258V8.547H102.7l.063,1.008a2.092,2.092,0,0,1,1.883-1.164,2.366,2.366,0,0,1,.7.1Zm.453,2.031a5.013,5.013,0,0,1,.484-2.242,3.546,3.546,0,0,1,1.395-1.523,4.069,4.069,0,0,1,2.113-.539,3.849,3.849,0,0,1,2.793,1.047,4.2,4.2,0,0,1,1.207,2.844l.016.578a4.418,4.418,0,0,1-1.086,3.121,4.209,4.209,0,0,1-5.832,0,4.5,4.5,0,0,1-1.09-3.187Zm2.258.16a3.16,3.16,0,0,0,.453,1.843,1.628,1.628,0,0,0,2.578.008,3.457,3.457,0,0,0,.461-2.015,3.128,3.128,0,0,0-.461-1.831,1.5,1.5,0,0,0-1.3-.649,1.474,1.474,0,0,0-1.281.646A3.516,3.516,0,0,0,108.027,12.856Zm11.719,1.808a.727.727,0,0,0-.41-.652,4.659,4.659,0,0,0-1.316-.426Q115,12.953,115,11.023a2.323,2.323,0,0,1,.934-1.879,3.766,3.766,0,0,1,2.441-.754,4.053,4.053,0,0,1,2.574.758,2.388,2.388,0,0,1,.965,1.969H119.66a1.092,1.092,0,0,0-.312-.8,1.322,1.322,0,0,0-.977-.316,1.351,1.351,0,0,0-.883.258.814.814,0,0,0-.312.656.7.7,0,0,0,.355.605,3.657,3.657,0,0,0,1.2.4,9.8,9.8,0,0,1,1.422.379,2.336,2.336,0,0,1,1.789,2.273,2.2,2.2,0,0,1-.992,1.871,4.28,4.28,0,0,1-2.562.715,4.47,4.47,0,0,1-1.887-.379,3.166,3.166,0,0,1-1.293-1.039,2.414,2.414,0,0,1-.469-1.426h2.141a1.179,1.179,0,0,0,.445.922,1.766,1.766,0,0,0,1.109.32,1.635,1.635,0,0,0,.98-.246A.766.766,0,0,0,119.746,14.664Z" transform="translate(566 3229)" fill="#fff"/>
    <g id="Grupo_116050" data-name="Grupo 116050" transform="translate(386.513 2954.46)">
      <rect id="Rectángulo_42336" data-name="Rectángulo 42336" width="217.811" height="3.323" rx="1.661" transform="translate(146.487 148.326)" fill="#699dee"/>
      <path id="Trazado_237718" data-name="Trazado 237718" d="M443.338,408.664V460.78a2.98,2.98,0,0,1-3.124,2.792H333.267a3.347,3.347,0,0,1-1.869-.559,2.7,2.7,0,0,1-1.255-2.232V408.664a2.981,2.981,0,0,1,3.124-2.792H440.214A2.98,2.98,0,0,1,443.338,408.664Z" transform="translate(-181.901 -248.774)" fill="#dfecff"/>
      <rect id="Rectángulo_42337" data-name="Rectángulo 42337" width="113.59" height="17.521" rx="2" transform="translate(148.242 218.321)" fill="#cae0fc"/>
      <rect id="Rectángulo_42338" data-name="Rectángulo 42338" width="113.59" height="21.224" rx="4" transform="translate(148.242 234.599)" fill="#a6c3ed"/>
      <rect id="Rectángulo_42339" data-name="Rectángulo 42339" width="113.59" height="5.895" transform="translate(148.242 234.599)" fill="#8cb7ea"/>
      <rect id="Rectángulo_42340" data-name="Rectángulo 42340" width="99.387" height="17.521" rx="1" transform="translate(265.473 218.321)" fill="#cae0fc"/>
      <rect id="Rectángulo_42341" data-name="Rectángulo 42341" width="99.387" height="21.224" rx="2" transform="translate(265.473 234.599)" fill="#a6c3ed"/>
      <path id="Trazado_237719" data-name="Trazado 237719" d="M1753.842,408.5v52.437a2.78,2.78,0,0,1-2.895,2.631h-93.036a2.78,2.78,0,0,1-2.894-2.631V408.5a2.78,2.78,0,0,1,2.894-2.631h93.036A2.781,2.781,0,0,1,1753.842,408.5Z" transform="translate(-1389.544 -248.774)" fill="#dfecff"/>
      <rect id="Rectángulo_42342" data-name="Rectángulo 42342" width="99.577" height="5.895" transform="translate(265.283 234.599)" fill="#8cb7ea"/>
      <path id="Trazado_237720" data-name="Trazado 237720" d="M1066.927,408.664V460.78a2.714,2.714,0,0,1-2.612,2.792h-50.481l35.574-57.7h14.907A2.714,2.714,0,0,1,1066.927,408.664Z" transform="translate(-805.096 -248.774)" fill="#f0f8ff" opacity="0.6"/>
      <path id="Trazado_237721" data-name="Trazado 237721" d="M2268.954,408.5v52.437a2.78,2.78,0,0,1-2.895,2.631h-45.926l45.262-57.7h.664A2.78,2.78,0,0,1,2268.954,408.5Z" transform="translate(-1904.656 -248.774)" fill="#e9f3ff"/>
      <g id="Grupo_116035" data-name="Grupo 116035" transform="translate(267.546 220.589)">
        <rect id="Rectángulo_42343" data-name="Rectángulo 42343" width="22.283" height="12.606" transform="translate(72.913 0)" fill="#bbd9f9"/>
        <rect id="Rectángulo_42344" data-name="Rectángulo 42344" width="22.283" height="12.606" transform="translate(48.609 0)" fill="#bbd9f9"/>
        <rect id="Rectángulo_42345" data-name="Rectángulo 42345" width="22.283" height="12.606" transform="translate(24.304 0)" fill="#bbd9f9"/>
        <rect id="Rectángulo_42346" data-name="Rectángulo 42346" width="22.283" height="12.606" transform="translate(0 0)" fill="#bbd9f9"/>
      </g>
      <g id="Grupo_116036" data-name="Grupo 116036" transform="translate(150.901 220.589)">
        <rect id="Rectángulo_42347" data-name="Rectángulo 42347" width="22.283" height="12.606" transform="translate(85.957 0)" fill="#bbd9f9"/>
        <rect id="Rectángulo_42348" data-name="Rectángulo 42348" width="22.283" height="12.606" transform="translate(61.653 0)" fill="#bbd9f9"/>
        <rect id="Rectángulo_42349" data-name="Rectángulo 42349" width="22.283" height="12.606" transform="translate(37.348 0)" fill="#bbd9f9"/>
        <rect id="Rectángulo_42350" data-name="Rectángulo 42350" width="35.327" height="12.606" transform="translate(0 0)" fill="#bbd9f9"/>
      </g>
      <path id="Trazado_237722" data-name="Trazado 237722" d="M376.066,405.873,331.4,463.012a2.7,2.7,0,0,1-1.255-2.232V408.664a2.981,2.981,0,0,1,3.124-2.792Z" transform="translate(-181.901 -248.774)" fill="#e9f3ff"/>
      <g id="Grupo_116037" data-name="Grupo 116037" transform="translate(197.345 166.172)">
        <path id="Trazado_237723" data-name="Trazado 237723" d="M1196.937,512.309h-.441s-.692-2.377-.176-3.008,1.79-1.2,2.077-.674a7.134,7.134,0,0,1,.2,3.253C1198.392,512.655,1196.937,512.309,1196.937,512.309Z" transform="translate(-1168.606 -508.42)" fill="#ffb27d"/>
        <path id="Trazado_237724" data-name="Trazado 237724" d="M993.391,660.375c-2.171.258-3.816-.688-3.757-2.048a15.913,15.913,0,0,0,.424-2.65,6.063,6.063,0,0,0-.077-1.055l4.873-.084.029.478.2,3.312.064,1.053S995.562,660.118,993.391,660.375Z" transform="translate(-980.381 -641.609)" fill="#ffb27d"/>
        <path id="Trazado_237725" data-name="Trazado 237725" d="M999.547,662.211a3.558,3.558,0,0,1-1.11.175c-1.934,0-3.854-3.115-3.914-3.5l4.207-.084.612.1Z" transform="translate(-984.839 -645.492)" fill="#fca56b"/>
        <path id="Trazado_237726" data-name="Trazado 237726" d="M988.867,581.951s-5.389,1.089-6.015-2.278-1.743-5.493,1.67-6.33,4.323.323,4.806,1.4S990.253,581.581,988.867,581.951Z" transform="translate(-973.574 -567.337)" fill="#ffb27d"/>
        <path id="Trazado_237727" data-name="Trazado 237727" d="M963.23,1489.086a10.1,10.1,0,0,0-.677-2.547c-.466-.933-3.434-.339-3.434-.339s-.6.516-.732,2.891Z" transform="translate(-951.9 -1399.512)" fill="#233862"/>
        <path id="Trazado_237728" data-name="Trazado 237728" d="M1122.422,1471.473c-.7-.426-.215-3.426-.215-3.426s3.249-2.6,3.7-.609,3.087,2.884,4.59,3.127c1.037.168.972.614.953.908Z" transform="translate(-1101.077 -1381.896)" fill="#233862"/>
        <path id="Trazado_237729" data-name="Trazado 237729" d="M1002.011,1012.093a15,15,0,0,1,.238,1.755c.3,5.892,4.96,19.363,5.793,19.678,1.289.486,3.319-.548,4.381-.886a.911.911,0,0,0,.639-1.035c-2.306-10.6-3.154-25.872-3.463-34.912a41.012,41.012,0,0,0-.937-7.7s-11.36-3.031-11.427.8C997.175,993.191,1001,1006.5,1002.011,1012.093Z" transform="translate(-987.31 -945.435)" fill="#2b478b"/>
        <path id="Trazado_237730" data-name="Trazado 237730" d="M1002.011,1012.093l7.589-15.4a41.012,41.012,0,0,0-.937-7.7s-11.36-3.031-11.427.8C997.175,993.191,1001,1006.5,1002.011,1012.093Z" transform="translate(-987.31 -945.435)" fill="#233862"/>
        <path id="Trazado_237731" data-name="Trazado 237731" d="M948.513,995.676l-6.005,43.523a11.745,11.745,0,0,1-4.688.127s-1.758-23.148-1.612-28.744-1.262-14.974.321-16.009S948.513,995.676,948.513,995.676Z" transform="translate(-931.284 -951.299)" fill="#2b478b"/>
        <path id="Trazado_237732" data-name="Trazado 237732" d="M934.363,725.555a.9.9,0,0,0,.883.932l9.463.144,6.951.106c.326.006-.7-2.6-.724-19.578-.005-3.789-5.871-7.866-5.979-7.866l-.258-.137a2.035,2.035,0,0,1-1.927,1.777c-1.572.1-3.5-.679-3.5-1.585a4.216,4.216,0,0,0-.476.615,24.484,24.484,0,0,0-3.375,8.785c-.8,3.833-.49,8.957-1.064,15.569C934.313,724.8,934.375,725.221,934.363,725.555Z" transform="translate(-929.981 -682.281)" fill="#ffa412"/>
        <path id="Trazado_237733" data-name="Trazado 237733" d="M959.153,541.179s-1.316,7.624-1.663,8.14-7.35,4.85-7.35,4.85c-2.782-.06-3.17.865-3.17.865l.253.351a5.133,5.133,0,0,0-.633-.432h0s.151,5.045-1.375,6.529c0,0-2.141-1.653-4.918-6.359a29.723,29.723,0,0,0-3.243,9.285,26.281,26.281,0,0,0-.43,3.222c-.268,3.349-.782,14.56-.277,14.568a19.265,19.265,0,0,0,3.611,1.051,35.588,35.588,0,0,0,7,.7c4.6.029,6.341-1.556,6.341-1.556,1.659-1.2-.7-2.6-.724-19.578,0,0,.283-2.445.885-3.047s8.167-7.183,8.339-8.215.054-10.451.054-10.451A2.782,2.782,0,0,0,959.153,541.179Z" transform="translate(-931.614 -537.939)" fill="#739af0"/>
        <path id="Trazado_237734" data-name="Trazado 237734" d="M932.971,849.161a19.271,19.271,0,0,0,3.611,1.051,12.37,12.37,0,0,0,1.8-6.377c.148-3.666-2.108-7.611-3.589-9.786a.837.837,0,0,0-1.521.359l-.025.185C932.98,837.942,931.728,848.637,932.971,849.161Z" transform="translate(-928.24 -804.902)" fill="#4a75cb"/>
        <path id="Trazado_237735" data-name="Trazado 237735" d="M930.213,789.5l6.773,3.911a1.165,1.165,0,0,0,1.592-.427l5.8-10.041a1.165,1.165,0,0,0-.427-1.592l-6.773-3.91a1.165,1.165,0,0,0-1.592.427l-5.8,10.041A1.165,1.165,0,0,0,930.213,789.5Z" transform="translate(-925.688 -753.489)" fill="#b64c41"/>
        <path id="Trazado_237736" data-name="Trazado 237736" d="M903.3,716.85c-.154-.424-1.48-.224-2-.224s-1.851,1.242-1.881,1.271c-.391-.018-4.131-.2-6.911-.605a17.529,17.529,0,0,1-1.915-.369c-.639-.171,2.53-8.2,4.129-12.925.382-1.127.673-2.066.8-2.664,0,0-.279.045-.718.132-1.244.245-3.774.823-4.85,1.637-1.456,1.1-5.139,12.674-2.909,17.473a9,9,0,0,0,4.925.7,46.924,46.924,0,0,0,8.394-1.684,1.234,1.234,0,0,0,.223,0,8.537,8.537,0,0,0,1.787-.376A3.493,3.493,0,0,0,903.3,716.85Z" transform="translate(-886.231 -684.264)" fill="#ffb27d"/>
        <path id="Trazado_237737" data-name="Trazado 237737" d="M885.76,721.993a11.61,11.61,0,0,0,5.053.47,5.829,5.829,0,0,1,.535-3.985c-.731-.107-1.311-.271-1.915-.369-.332-.054,2.53-8.2,4.129-12.925.128-1.527.2-2.549.2-2.549l-.11.017c-1.244.245-3.774.823-4.85,1.637C887.341,705.389,883.53,717.194,885.76,721.993Z" transform="translate(-885.076 -685.45)" fill="#739af0"/>
        <path id="Trazado_237738" data-name="Trazado 237738" d="M976.567,703.818s-4.282-1.887-4.346-2.035a3.393,3.393,0,0,1,.509-1.632s-2.056.191-2.183-.064a12.554,12.554,0,0,1,.479-2.506,4,4,0,0,1,1.2-.625s.943,2.125,1.287,2.813A21.232,21.232,0,0,0,976.567,703.818Z" transform="translate(-962.968 -680.273)" fill="#4a75cb"/>
        <path id="Trazado_237739" data-name="Trazado 237739" d="M1039.781,702.065a14.281,14.281,0,0,1-1.017,3.731,12.737,12.737,0,0,0,2.427-2.067c.191-.509-.54-1.494-.54-1.494s1.335-.032,1.367-.477-1.5-2.411-1.5-2.411a1.055,1.055,0,0,0-.639-.218Z" transform="translate(-1025.165 -682.252)" fill="#4a75cb"/>
        <path id="Trazado_237740" data-name="Trazado 237740" d="M978.1,554.268a11.3,11.3,0,0,1-3.275-.886,4.994,4.994,0,0,0-3.843.374.88.88,0,0,1,.144-.354.791.791,0,0,0-.3.45c-.027.02-.039.034-.032.039a1.013,1.013,0,0,0-.492.032s.135-.019.183.067a.081.081,0,0,0,.022.024c-2.244,1.084-2.451,4.631-1.729,5.451a18,18,0,0,1,1.911,3.211,1.907,1.907,0,0,0,.222-1.394c-.158-.869.592-.869,1.54-1.264s.158-1.5.987-2.172,2.907-.182,3.831-.79C978.505,556.231,978.1,554.384,978.1,554.268Z" transform="translate(-961.028 -549.172)" fill="#233862"/>
        <path id="Trazado_237741" data-name="Trazado 237741" d="M1007.283,861.406a.565.565,0,1,1,.565.565A.565.565,0,0,1,1007.283,861.406Z" transform="translate(-996.47 -829.657)" fill="#ed6058"/>
      </g>
      <g id="Grupo_116040" data-name="Grupo 116040" transform="translate(316.718 166.711)">
        <path id="Trazado_237742" data-name="Trazado 237742" d="M2387.927,573.5a2.659,2.659,0,0,0-2.091.1c.445-.625,2.067-.421,2.067-.421-3.232-.688-3.907,1.379-3.962,1.572-2.344-2.116-6.1,2.394-6.1,2.394l5.386,7.14s.491-1.136,1.14-.781c1.012.553,2.969-1.684,2.344-4.628a7.8,7.8,0,0,0-.24-.875,1.744,1.744,0,0,0,.672.166c.589,0,1.479-1.5,1.6-2.007S2388.732,573.99,2387.927,573.5Z" transform="translate(-2365.128 -567.854)" fill="#233862"/>
        <path id="Trazado_237743" data-name="Trazado 237743" d="M2438.444,748.156c-.119.289-.637.546-1.382.731a12.532,12.532,0,0,1-6.546-.291c-2.2-.816-3.8-12.467-4.483-18.438-.237-2.083-.363-3.475-.363-3.475s1.266-1.982,6.167-1.321,5.4,2.313,5.835,5.286S2438.829,747.22,2438.444,748.156Z" transform="translate(-2408.724 -706.582)" fill="#466aa5"/>
        <path id="Trazado_237744" data-name="Trazado 237744" d="M2440.8,763.082a12.53,12.53,0,0,1-6.546-.291c-2.2-.816-3.8-12.467-4.483-18.438.581-2.055,1.041-3.407,1.041-3.407s6.153-.743,7.35,1.115C2439.232,743.723,2440.534,759.722,2440.8,763.082Z" transform="translate(-2412.461 -720.777)" fill="#2b478b"/>
        <path id="Trazado_237745" data-name="Trazado 237745" d="M2362.071,719.861c-1.686-3.78-2.492-4.849-2.52-6.038-.022-.94.441-1.955,1.342-4.443a9.273,9.273,0,0,0,.449-1.8c.712-4.8-2.061-9.982-3.785-10.335-.48-.127-1.293-1.859-1.283-4.651l-.216.042-3.63.719s.083,1.142.085,2.219c0,.9-.052,1.747-.255,1.854-.261.024-.416.039-.416.039s-3.027,4.2-3.281,8.113,2.424,5.608-.02,13.42C2346.045,726.981,2363,721.95,2362.071,719.861Z" transform="translate(-2338.191 -676.838)" fill="#d9935c"/>
        <path id="Trazado_237746" data-name="Trazado 237746" d="M2395.053,693.795s.083,1.142.085,2.219c2.031-.057,3.1-1.91,3.545-2.937Z" transform="translate(-2380.816 -677.276)" fill="#cb7d45"/>
        <path id="Trazado_237747" data-name="Trazado 237747" d="M2375.507,611.775a10.67,10.67,0,0,0,1.32-3.12c.183-1.027-.341-4.833-4.165-4.285a5.2,5.2,0,0,0-2.155.815c-.83.561-2.029,1.772-.689,5.093l.348,1.122Z" transform="translate(-2357.266 -596.37)" fill="#233862"/>
        <path id="Trazado_237748" data-name="Trazado 237748" d="M2370.9,629.174s4.806.079,4.809-2.915.626-5-2.442-5.177-3.666.965-3.91,1.964S2369.646,629.076,2370.9,629.174Z" transform="translate(-2357.338 -611.636)" fill="#d9935c"/>
        <path id="Trazado_237749" data-name="Trazado 237749" d="M2389.4,614.174s1.316,3.512,3.335,4.032a3.977,3.977,0,0,0,2.9-.022,5.718,5.718,0,0,1-1.87-3.379S2390.389,612.5,2389.4,614.174Z" transform="translate(-2375.66 -604.801)" fill="#233862"/>
        <path id="Trazado_237750" data-name="Trazado 237750" d="M2368.014,617.765a4.245,4.245,0,0,0-1.222,1.546c-.24.762-.347,2.332-.8,2.278,0,0-.991-2.387.123-3.738C2367.291,616.42,2368.014,617.765,2368.014,617.765Z" transform="translate(-2353.952 -608.107)" fill="#233862"/>
        <path id="Trazado_237751" data-name="Trazado 237751" d="M2355.537,1047.312a47.5,47.5,0,0,1-3.03,8.5l-1.585-.11a44.811,44.811,0,0,0,.732-8.693,36.388,36.388,0,0,0-1.844-11.562c-4.742-13.544-3.976-23.4-3.976-23.4l8.918,1.043.415.049c.037,4.1.143,9.656.235,14,.082,3.911.154,6.84.154,6.84C2357.273,1037.673,2356.65,1042.885,2355.537,1047.312Z" transform="translate(-2335.913 -968.02)" fill="#aa413e"/>
        <path id="Trazado_237752" data-name="Trazado 237752" d="M2405.439,1027.2c-.016.171-.034.34-.053.508a21.151,21.151,0,0,1-2.766,8.477l-.709.577s-.717-3.856-1.224-8.443c-.483-4.36-1.145-8.973-1.894-10.381-2.974-5.585-3.87-26.668-3.87-26.668l9.042-.448c.909,1.529,1.306,4.036,1.4,6.887.238,7.2-1.454,16.577-1.707,17.935a0,0,0,0,1,0,0,.474.474,0,0,0,.06.3A20.747,20.747,0,0,1,2405.439,1027.2Z" transform="translate(-2380.699 -948.674)" fill="#b64c41"/>
        <path id="Trazado_237753" data-name="Trazado 237753" d="M2391.02,615.156s.938,3.678,3.486,4.856c0,0-2.548-2.26-2.764-4.688S2391.02,615.156,2391.02,615.156Z" transform="translate(-2377.14 -605.379)" fill="#233862"/>
        <path id="Trazado_237754" data-name="Trazado 237754" d="M2304.53,1521.675l-.009.01h-.5a.889.889,0,0,1,.131-.01Z" transform="translate(-2297.843 -1432.557)" fill="#283250"/>
        <path id="Trazado_237755" data-name="Trazado 237755" d="M2462.074,771.941a3.338,3.338,0,0,1-.847-1.213c-1.118-2.782-2.406-8.178-2.832-9.171-.155-.362-.453-2.069-.842-4.268-.7-3.946-1.695-9.478-2.691-11.67a1.688,1.688,0,0,0-.912-.674,16.44,16.44,0,0,0-3.677-.8l1.212,5.247.355,1.539s1.079,3.8,1.915,6.907c.4,1.5.75,2.839.891,3.507.433,2.055,5.192,9.952,5.192,9.952h0s.144.1.313.577,1.515,3.029,2.091,3.029.7-.865.817-1.418S2462.53,772.229,2462.074,771.941Z" transform="translate(-2431.15 -723.822)" fill="#d9935c"/>
        <path id="Trazado_237756" data-name="Trazado 237756" d="M2244.595,533.886c-1.355-.8-6.691-5.091-7.035-6.526-.287-1.2-1.412-6.461-1.778-8.177a6.065,6.065,0,0,1,.106-1.989c.238-.485.426-1.419.034-1.827s-.947-1.083-1.439-.781-.3,3.178-.2,3.676c.025.115.048.245.068.377h-.008s.416,9.472.76,10.5,7.109,9.91,8.958,10.344l2.163-4.118A3.763,3.763,0,0,0,2244.595,533.886Z" transform="translate(-2234.161 -514.512)" fill="#d9935c"/>
        <path id="Trazado_237757" data-name="Trazado 237757" d="M2346.185,770.968a2.13,2.13,0,0,1-.056.723c-.192.605-.853.881-2.45.716-.976-.1-1.411-1.738-1.605-3.133q-.88,3-2.469,3.353c-1.549.344-9.36,1.294-9.871-2.419-.562-4.084,1.122-11.315,1.214-15.215a19.274,19.274,0,0,1-.283-3.613c.065-2.777.881-4.334,1.507-4.961a2.138,2.138,0,0,1,1.068-.344c.364-.062.869-.134,1.584-.228a2.69,2.69,0,0,1,.285-.022c-.132.236-1.9,2.915-1.763,3.6.145.721,6.419.072,6.852-.325s1.117-3.434,1.117-3.434a8.691,8.691,0,0,1,3.309,1.033l-.011.014a.922.922,0,0,1,.286.3c1.16,2.208,2.317,7.779,3.132,11.753a5.788,5.788,0,0,1-4.234.62C2344.495,763.968,2346.081,768.882,2346.185,770.968Z" transform="translate(-2321.172 -725.216)" fill="#f1a34f"/>
        <path id="Trazado_237758" data-name="Trazado 237758" d="M2464.814,1401.936c-.016.171-.034.34-.053.508a21.154,21.154,0,0,1-2.766,8.477l-.709.577s-.717-3.856-1.224-8.443A8.11,8.11,0,0,0,2464.814,1401.936Z" transform="translate(-2440.073 -1323.413)" fill="#d9935c"/>
        <path id="Trazado_237759" data-name="Trazado 237759" d="M2408.407,1407.473a47.5,47.5,0,0,1-3.03,8.5l-1.585-.11a44.809,44.809,0,0,0,.732-8.693A7.215,7.215,0,0,0,2408.407,1407.473Z" transform="translate(-2388.783 -1328.181)" fill="#d9935c"/>
        <g id="Grupo_116038" data-name="Grupo 116038" transform="translate(10.386 85.363)">
          <path id="Trazado_237760" data-name="Trazado 237760" d="M2358.659,1482.9h-1.012c-.339-.053-.589-.151-.937-.2a.937.937,0,0,0-.819.2l-.009.01h-4.3c-.108-.154,0-.512.1-.775a.612.612,0,0,1,.4-.368,4.636,4.636,0,0,0,2.177-.995c.463-.418,2.235-1.538,2.235-1.538l.01,0c.039,0,.224.058,1.031.739.417.351,1.127-.5,1.127-.5a1.013,1.013,0,0,1,.233.316,1.068,1.068,0,0,1,.092.66,4.285,4.285,0,0,0,.308,1.594c.1.295.185.5.185.5S2359.529,1482.795,2358.659,1482.9Z" transform="translate(-2351.537 -1479.236)" fill="#233862"/>
          <path id="Trazado_237761" data-name="Trazado 237761" d="M2409.975,1479.794a3.2,3.2,0,0,1-1.09.55c-.456.06-1.31-1.105-1.31-1.105l.01,0c.039,0,.224.058,1.031.739.417.351,1.127-.5,1.127-.5A1.013,1.013,0,0,1,2409.975,1479.794Z" transform="translate(-2402.616 -1479.236)" fill="#466aa5"/>
          <path id="Trazado_237762" data-name="Trazado 237762" d="M2358.659,1511.87h-1.012c-.339-.053-.589-.151-.937-.2a.938.938,0,0,0-.819.2l-.009.01h-4.3c-.108-.154,0-.512.1-.775.131-.116.167.5.24.6a19.167,19.167,0,0,0,3.7-.108,2.074,2.074,0,0,1,1.623-.2,3.908,3.908,0,0,0,2.049-.387c.1.3.185.5.185.5S2359.529,1511.761,2358.659,1511.87Z" transform="translate(-2351.537 -1508.202)" fill="#466aa5"/>
        </g>
        <g id="Grupo_116039" data-name="Grupo 116039" transform="translate(15.785 85.374)">
          <path id="Trazado_237763" data-name="Trazado 237763" d="M2419.68,1483.025h-1.012c-.339-.053-.589-.152-.937-.2a.937.937,0,0,0-.819.2l-.01.01h-4.3c-.108-.154,0-.512.1-.775a.61.61,0,0,1,.4-.368,4.638,4.638,0,0,0,2.177-.995c.463-.418,2.236-1.538,2.236-1.538l.009,0c.039,0,.224.058,1.031.739.417.351,1.127-.5,1.127-.5a1.007,1.007,0,0,1,.233.316,1.065,1.065,0,0,1,.092.66,4.28,4.28,0,0,0,.308,1.594c.1.3.185.5.185.5S2420.551,1482.916,2419.68,1483.025Z" transform="translate(-2412.559 -1479.357)" fill="#233862"/>
          <path id="Trazado_237764" data-name="Trazado 237764" d="M2471,1479.916a3.207,3.207,0,0,1-1.09.549c-.457.06-1.311-1.105-1.311-1.105l.01,0c.039,0,.224.058,1.031.739.417.351,1.127-.5,1.127-.5A1.011,1.011,0,0,1,2471,1479.916Z" transform="translate(-2463.638 -1479.357)" fill="#466aa5"/>
          <path id="Trazado_237765" data-name="Trazado 237765" d="M2419.68,1511.991h-1.012c-.339-.053-.589-.152-.937-.2a.937.937,0,0,0-.819.2l-.01.01h-4.3c-.108-.154,0-.512.1-.775.13-.116.167.5.239.6a19.191,19.191,0,0,0,3.7-.108,2.073,2.073,0,0,1,1.623-.2,3.906,3.906,0,0,0,2.049-.387c.1.3.185.5.185.5S2420.551,1511.882,2419.68,1511.991Z" transform="translate(-2412.559 -1508.323)" fill="#466aa5"/>
        </g>
        <path id="Trazado_237766" data-name="Trazado 237766" d="M2453.728,867.982c-1.073-.358-2.449-1.311-4.1-3.448-4.377-5.657-.372-12.306.165-12.43s1.548,4.3,1.548,4.3C2452.037,860.983,2453.624,865.9,2453.728,867.982Z" transform="translate(-2428.715 -822.231)" fill="#d86713" opacity="0.4"/>
        <path id="Trazado_237767" data-name="Trazado 237767" d="M2440.219,741.06a12.447,12.447,0,0,0-4.735,9.36,7.22,7.22,0,0,0,5.4,7.653l-.372-2.01a5.613,5.613,0,0,1-3.427-6.745,15.268,15.268,0,0,1,5.023-7.954Z" transform="translate(-2417.658 -721.014)" fill="#466aa5"/>
        <path id="Trazado_237768" data-name="Trazado 237768" d="M2308.945,715.4s-1.028-.289-4.871-3.205c0,0-.322,1.244-.679,2.284a4,4,0,0,1-1.319,1.951s3.078,3.008,3.482,4.437A15.347,15.347,0,0,1,2308.945,715.4Z" transform="translate(-2296.066 -694.701)" fill="#f1a34f"/>
        <path id="Trazado_237769" data-name="Trazado 237769" d="M2345.548,747.65l-.01.017c-.213.337-3.546,5.665-3.866,9.129a19.272,19.272,0,0,1-.283-3.613,25.036,25.036,0,0,1,3.387-5.467C2344.848,747.632,2345.548,747.65,2345.548,747.65Z" transform="translate(-2331.897 -727.02)" fill="#466aa5"/>
      </g>
      <g id="Grupo_116043" data-name="Grupo 116043" transform="translate(266.607 191.058)">
        <g id="Grupo_116042" data-name="Grupo 116042">
          <path id="Trazado_237770" data-name="Trazado 237770" d="M1973.789,803.157a8.6,8.6,0,0,1-1.1-2.826,9.1,9.1,0,0,0,1.561,3.069c3.432,1.545,10.471,7.407,10.559,8.716,0,0,1.531-3.892,1.564-3.919,0,0,3.086-5.536-1.949-7.624-2.559-1.061-2.84-2.9-3-4.514s-1.985-8.37-6.367-5.828a3.081,3.081,0,0,0-1.13-.11.93.93,0,0,1,.445.13,3.668,3.668,0,0,0-1.9.687C1970.914,792.185,1970.772,801.155,1973.789,803.157Z" transform="translate(-1944.526 -789.666)" fill="#b5453c"/>
          <path id="Trazado_237771" data-name="Trazado 237771" d="M1926.17,927.565a40.669,40.669,0,0,0-.981,5.214,14.606,14.606,0,0,1-.726,2.869c-.91,2.81-2.453,6.589-3.31,6.993-.454.214-.907.425-1.306.565-.708.25-1.25.28-1.336-.273-.135-.866,1.893-12.105,2.7-13.252S1926.17,927.565,1926.17,927.565Z" transform="translate(-1896.323 -915.363)" fill="#2e539e"/>
          <path id="Trazado_237772" data-name="Trazado 237772" d="M1921.021,1388.783a.7.7,0,0,1,.125.751.005.005,0,0,1,0,0,4.67,4.67,0,0,1-1.475,1.618c-.089.072-.168.137-.237.2l-.053.048-.041.037c-.649.6-.4.735-1.57,1.948-1.328,1.382-2.243,1.407-2.5,1.281-.22-.107.227-.84.722-1.664.024-.04.048-.08.072-.12.066-.109.131-.221.2-.331.581-.992.432-1.457.294-2.933-.112-1.2-1.866-6.7-1.866-6.7l2.546-.439s.767,4.38,1.611,5.055c.452.36.957.364,1.391.63l.09.057A3.346,3.346,0,0,1,1921.021,1388.783Z" transform="translate(-1892.843 -1330.026)" fill="#f7aa74"/>
          <path id="Trazado_237773" data-name="Trazado 237773" d="M1926.4,1447.349a.7.7,0,0,1,.125.751.005.005,0,0,1,0,0,5.41,5.41,0,0,1-1.478,1.613c-.088.073-.165.14-.234.2l-.053.048-.041.037c-.648.6-.4.735-1.57,1.948-1.328,1.382-2.243,1.407-2.5,1.281-.22-.107.227-.84.723-1.664a5.66,5.66,0,0,0,2.368-1.745c.8-1.021,1.333-2.332,1.878-3.092l.09.057A3.348,3.348,0,0,1,1926.4,1447.349Z" transform="translate(-1898.223 -1388.592)" fill="#c65447"/>
          <path id="Trazado_237774" data-name="Trazado 237774" d="M1675.475,1388.654c-.157.786-1.277.655-2.529.349s-.954.058-2.735-.14-2.321-.861-2.375-1.126c-.049-.235.832-.318,1.776-.427l.357-.043a7.709,7.709,0,0,0,2.814-1.386,11.311,11.311,0,0,0,2.285-2.715l2.443.193s-1.282,1.947-1.778,2.793a2.954,2.954,0,0,0-.24,1.664A3.132,3.132,0,0,1,1675.475,1388.654Z" transform="translate(-1667.834 -1330.651)" fill="#f7aa74"/>
          <path id="Trazado_237775" data-name="Trazado 237775" d="M1672.946,1431.688c-1.251-.306-.954.058-2.735-.14s-2.321-.861-2.375-1.126c-.049-.235.832-.318,1.776-.427l.009.018a5.022,5.022,0,0,0,2.551.793c1.208.029,2.488-.317,3.323-.3a3.131,3.131,0,0,1-.019.835C1675.318,1432.125,1674.2,1431.994,1672.946,1431.688Z" transform="translate(-1667.834 -1373.337)" fill="#c65447"/>
          <path id="Trazado_237776" data-name="Trazado 237776" d="M1859.979,1228.325l5.264,14.167a4.817,4.817,0,0,0,1.584-.145,6.819,6.819,0,0,0,1.531-.745s-1.306-13.6-3.7-16.433S1859.979,1228.325,1859.979,1228.325Z" transform="translate(-1842.977 -1185.941)" fill="#233862"/>
          <path id="Trazado_237777" data-name="Trazado 237777" d="M1765.618,1160.844s-15.127-5.115-18.5-4.026-13.5,21.241-13.5,21.241a1.957,1.957,0,0,0,.853.538,8.039,8.039,0,0,0,1.985.2s9.141-7.835,10.229-10.121,1.524-4.462,2.612-4.244,14.038,5.332,16.977,2.285a8.482,8.482,0,0,0,2.17-7.006Z" transform="translate(-1727.794 -1124.192)" fill="#2b478b"/>
          <path id="Trazado_237778" data-name="Trazado 237778" d="M2002.813,893.875a4.516,4.516,0,0,1-2.765.12c.178-.135.05-.953-.144-1.8-.012-.053-.024-.107-.037-.16-.225-.96-.513-1.906-.513-1.906l3.323-1.456.2-.087c.017.077.034.154.052.228.577,2.45,1.28,2.882,1.6,3.22C2004.956,892.5,2003.827,893.343,2002.813,893.875Z" transform="translate(-1970.02 -879.833)" fill="#f7aa74"/>
          <path id="Trazado_237779" data-name="Trazado 237779" d="M2002.926,888.814a4.286,4.286,0,0,1-3.084,3.118c-.226-.959-.489-1.8-.489-1.8l3.323-1.456.2-.087C2002.892,888.663,2002.909,888.74,2002.926,888.814Z" transform="translate(-1970.02 -879.833)" fill="#e89258"/>
          <path id="Trazado_237780" data-name="Trazado 237780" d="M1973.5,812.505a10.282,10.282,0,0,0,.782-3.167c.018-1-1.056-4.544-4.61-3.443a5,5,0,0,0-1.926,1.1c-.7.659-1.661,1.992.116,4.947l.5,1.014Z" transform="translate(-1940.391 -804.267)" fill="#b5453c"/>
          <path id="Trazado_237781" data-name="Trazado 237781" d="M1938.3,1010.926c-.91,2.81-2.453,6.589-3.31,6.993-.454.214-.907.425-1.306.565.108-2.24,4.386-8.333,4.386-8.333Z" transform="translate(-1910.157 -990.642)" fill="#104799"/>
          <path id="Trazado_237782" data-name="Trazado 237782" d="M1970.616,830.45s4.582-.653,4.132-3.5-.162-4.849-3.107-4.553-3.34,1.472-3.421,2.459S1969.413,830.546,1970.616,830.45Z" transform="translate(-1941.638 -819.474)" fill="#f7aa74"/>
          <path id="Trazado_237783" data-name="Trazado 237783" d="M1983.268,817.524s1.783,3.141,3.782,3.329a3.829,3.829,0,0,0,2.75-.459,5.506,5.506,0,0,1-2.29-2.929S1983.959,815.785,1983.268,817.524Z" transform="translate(-1955.357 -814.34)" fill="#b5453c"/>
          <path id="Trazado_237784" data-name="Trazado 237784" d="M1965.75,823.783a4.088,4.088,0,0,0-.928,1.656c-.112.761.023,2.27-.42,2.288,0,0-1.3-2.12-.449-3.573C1964.859,822.613,1965.75,823.783,1965.75,823.783Z" transform="translate(-1937.486 -820.377)" fill="#b5453c"/>
          <path id="Trazado_237785" data-name="Trazado 237785" d="M1976.4,948.471q0,.1,0,.194a1.865,1.865,0,0,1-.1.569c-.22.611-.841.822-1.688.78-.114-.005-.232-.015-.353-.029-1.956-.228-4.862-1.541-6.956-2.45-3.193-1.384-4.643-.083-5.66-.964a.746.746,0,0,1-.237-.366.905.905,0,0,1-.025-.1c-.209-1.128,1.151-3.686-.463-11.465-.64-3.084,3.857-9.935,3.857-9.935s.451,1.94,4.378-.278c.025-.014,1.073,2.309,2.543,5.1,1.621,3.075,3.174,6.789,2.717,8.7-.505,2.119.457,4.81,1.211,7.089A12.724,12.724,0,0,1,1976.4,948.471Z" transform="translate(-1934.931 -912.501)" fill="#2e539e"/>
          <path id="Trazado_237786" data-name="Trazado 237786" d="M1981.408,1055.05q0,.1,0,.194a1.865,1.865,0,0,1-.1.569c-.22.611-.841.822-1.688.78-.114-.005-.232-.015-.353-.029-1.956-.228-4.862-1.541-6.956-2.45-3.193-1.384-4.593-.113-5.687-.894-.3-.215-.232-.771-.274-.914,1.744-.964,6.073-.182,4.068-4.443-1.022-2.173,4.12-8.344,5.521-5.981,2.116,3.106,3.755,1.024,3.159,2.958-.649,2.107.558,4.775,1.534,7.054A12.714,12.714,0,0,1,1981.408,1055.05Z" transform="translate(-1939.938 -1019.08)" fill="#104799"/>
          <path id="Trazado_237787" data-name="Trazado 237787" d="M1918.576,1094.152l3.041,5.909,6.072-.287-2.88-6.311Z" transform="translate(-1896.39 -1066.583)" fill="#b64c41"/>
          <path id="Trazado_237788" data-name="Trazado 237788" d="M1899.186,1118.008s-.791,1.971-.477,2.811,3.342.863,3.342.863Z" transform="translate(-1878.213 -1088.955)" fill="#2e539e"/>
          <path id="Trazado_237789" data-name="Trazado 237789" d="M1882.918,1076.607l3.155,2.18,3.041,5.909-3.5-1.893Z" transform="translate(-1863.886 -1051.218)" fill="#aa413e"/>
          <g id="Grupo_116041" data-name="Grupo 116041" transform="translate(19.544 25.39)">
            <path id="Trazado_237790" data-name="Trazado 237790" d="M1888.707,1076.961l.384-.354,2.474,1.714-.215.466Z" transform="translate(-1888.707 -1076.607)" fill="#ccbcb2"/>
            <path id="Trazado_237791" data-name="Trazado 237791" d="M1918.576,1090.016l.215-.466,5.507-.624v.458Z" transform="translate(-1915.933 -1087.836)" fill="#efe5df"/>
            <path id="Trazado_237792" data-name="Trazado 237792" d="M1983.249,1088.926l.313.423-.313.035Z" transform="translate(-1974.884 -1087.836)" fill="#ccbcb2"/>
          </g>
          <path id="Trazado_237793" data-name="Trazado 237793" d="M1988.287,1132.043a2.789,2.789,0,0,0-1.659-1.1c-.938-.091-1.554.388-1.6.677a1.65,1.65,0,0,0,.845,1.482,13.35,13.35,0,0,0,2.732.36Z" transform="translate(-1956.953 -1100.734)" fill="#f7aa74"/>
          <path id="Trazado_237794" data-name="Trazado 237794" d="M1899.107,1131.807s.523-.982,1.306-1.056a1.346,1.346,0,0,1,1.407.691c.065.284-.031,1.256-.588,1.444C1898.656,1133.756,1899.107,1131.807,1899.107,1131.807Z" transform="translate(-1878.615 -1100.564)" fill="#f7aa74"/>
          <path id="Trazado_237795" data-name="Trazado 237795" d="M2021.471,924.426s3.181.362,4.487,2.183c1.838,2.563,5.012,17.162,2.923,18.62-2.462,1.718-10.624.167-10.624.167a3.145,3.145,0,0,1,.323-1.586c.387-.629,6.827-1.182,7.117-1.473s-3.609-9.876-3.609-10.747S2021.471,924.426,2021.471,924.426Z" transform="translate(-1987.246 -912.502)" fill="#2e539e"/>
        </g>
      </g>
      <g id="Grupo_116046" data-name="Grupo 116046" transform="translate(156.783 191.567)">
        <g id="Grupo_116045" data-name="Grupo 116045">
          <path id="Trazado_237796" data-name="Trazado 237796" d="M550.231,927.565s3.106.882,3.873,1.914.964,12.682,1.463,13.181c1.076,1.076,1.829,3.194,2.651,5.077,0,0,.2.347-.66.347s-3.789-2.853-4.055-4.069S550.231,927.565,550.231,927.565Z" transform="translate(-539.298 -915.871)" fill="#f7aa74"/>
          <path id="Trazado_237797" data-name="Trazado 237797" d="M516.795,1181.837c-.107-.023-.214-.049-.321-.073a5.166,5.166,0,0,1-2.443-1.626,5.263,5.263,0,0,1-.473-1.019h0s-2.066-9.675-4.272-16.9c-1.165-3.816-2.37-6.947-3.329-7.6l-.019-.013c-2.773-1.813-17.884-4.089-17.884-4.089s-3.113,5.844-1.124,9.469c.985,1.8,4.557,2.188,8.034,2.13,3.543-.059,6.987-.585,7.5-.57,1.009.03.954,2.25,1.456,4.72a28.652,28.652,0,0,0,3.026,5.829c2.177,3.569,4.724,7.324,4.747,7.358a3.988,3.988,0,0,1,.2.676c.091.568-.4,1.2-.468,1.7a3.445,3.445,0,0,0-.049.834c.081.8,1.107.763,2.266.568s.861.141,2.492.1,2.173-.656,2.243-.915C518.434,1182.187,517.642,1182.028,516.795,1181.837Z" transform="translate(-480.993 -1119.095)" fill="#f7aa74"/>
          <path id="Trazado_237798" data-name="Trazado 237798" d="M486.048,859.734s.7,1.206.473,1.777,1.141,1.57,1.692,1.273S486.048,859.734,486.048,859.734Z" transform="translate(-480.794 -854.042)" fill="#233862"/>
          <path id="Trazado_237799" data-name="Trazado 237799" d="M772.148,1505.83c1.159-.2.861.141,2.492.1s2.173-.656,2.243-.915c.063-.23-.729-.389-1.576-.579l-.009.017a4.255,4.255,0,0,1-2.376.568c-1.1-.076-2.232-.532-2.99-.591a3.443,3.443,0,0,0-.049.834C769.963,1506.059,770.989,1506.026,772.148,1505.83Z" transform="translate(-739.505 -1441.692)" fill="#c65447"/>
          <path id="Trazado_237800" data-name="Trazado 237800" d="M589.522,1203.072l-2.345,9.872a28.65,28.65,0,0,1-3.026-5.829c-.5-2.471-.447-4.69-1.456-4.72-.51-.016-3.953.51-7.5.57-.811-1.558-1.158-3.019-.714-4.2,1.276-3.391,7.394-3.7,11.708-3.3C587.152,1196.125,588.357,1199.256,589.522,1203.072Z" transform="translate(-561.228 -1159.944)" fill="#e89258"/>
          <path id="Trazado_237801" data-name="Trazado 237801" d="M479.343,1204.047c-.107-.023-.214-.049-.321-.074a5.166,5.166,0,0,1-2.443-1.626,1.189,1.189,0,0,1-.15-.513h0s2.529-22.719-.244-24.533-17.293-.777-17.293-.777l-2.991-1.643s-2.193,3.688-.2,7.314,14.52,1.529,15.53,1.56-.63,2.194.388,6.478c.582,2.449,2.82,12.106,2.82,12.106a9.856,9.856,0,0,1-.468,1.7,3.435,3.435,0,0,0-.049.834c.08.8,1.107.763,2.266.568s.861.14,2.492.1,2.173-.656,2.243-.915C480.982,1204.4,480.19,1204.238,479.343,1204.047Z" transform="translate(-452.369 -1141.305)" fill="#f7aa74"/>
          <path id="Trazado_237802" data-name="Trazado 237802" d="M672.374,1505.83c1.159-.2.861.141,2.492.1s2.173-.656,2.243-.915c.063-.23-.729-.389-1.576-.579l-.01.017a4.255,4.255,0,0,1-2.376.568c-1.1-.076-2.232-.532-2.989-.591a3.437,3.437,0,0,0-.049.834C670.188,1506.059,671.214,1506.026,672.374,1505.83Z" transform="translate(-648.559 -1441.692)" fill="#c65447"/>
          <path id="Trazado_237803" data-name="Trazado 237803" d="M500.776,896.028a4.516,4.516,0,0,0,2.706-.582c-.206-.086-.289-.909-.316-1.778,0-.055,0-.109,0-.164-.024-.985.015-1.974.015-1.974l-3.583-.569-.213-.034c0,.079.006.158.008.234.06,2.516-.511,3.112-.731,3.519C498.354,895.237,499.66,895.769,500.776,896.028Z" transform="translate(-492.247 -882.474)" fill="#f7aa74"/>
          <path id="Trazado_237804" data-name="Trazado 237804" d="M507.295,891.16a4.285,4.285,0,0,0,3.771,2.238c-.024-.985.017-1.868.017-1.868l-3.583-.569-.213-.034C507.29,891.005,507.293,891.084,507.295,891.16Z" transform="translate(-500.154 -882.474)" fill="#e89258"/>
          <path id="Trazado_237805" data-name="Trazado 237805" d="M486.091,810.112a10.277,10.277,0,0,1-1.557-2.867c-.271-.967-.126-4.663,3.59-4.5a5,5,0,0,1,2.142.579c.848.46,2.11,1.508,1.137,4.816l-.228,1.108Z" transform="translate(-479.334 -802.095)" fill="#233862"/>
          <path id="Trazado_237806" data-name="Trazado 237806" d="M502.519,825.418s-4.6.526-4.882-2.342-1.068-4.733,1.856-5.19,3.6.581,3.931,1.515S503.708,825.207,502.519,825.418Z" transform="translate(-491.074 -815.795)" fill="#f7aa74"/>
          <path id="Trazado_237807" data-name="Trazado 237807" d="M488.888,795.854c-1.721-.717-4.79-.717-6.511,1.176,0,0-.4,4.217,1.285,4.2s1.985-2.193,1.985-2.193,3.949-1.331,4.113-.021C489.759,799.017,490.609,796.571,488.888,795.854Z" transform="translate(-477.409 -795.411)" fill="#233862"/>
          <path id="Trazado_237808" data-name="Trazado 237808" d="M474.764,949.43a23.324,23.324,0,0,0-2.954-.855c-2.527-.627-6.04-1.384-8.167-1.694h0a55.474,55.474,0,0,1,1.028-10.417,8.563,8.563,0,0,0,.106-1.028,5,5,0,0,0,1.443-1.08s-1.162-5.593-1.764-6.469-3.872-1.914-3.872-1.914-.286,2.15-4.165-.152a39.49,39.49,0,0,0-2.756,4.97c-.6,1.144-.435,4.138-.145,6.643.223,1.927.516,3.565.584,3.849a7,7,0,0,1-.242,3.234h0l-.074-.022s-.447,1.443-.9,2.979l-.016.05c-.011.041-.024.083-.036.124a.069.069,0,0,0,0,.013c-.429,1.451-.846,2.936-.886,3.326-.165,1.626-.158,4.5,2.079,6.324,0,0,1.29-.051,7.1-.014,5.13.033,7.451.008,7.451.008s5.139-3.606,6-3.663,2.05-.176,2.05-.176S475.648,949.871,474.764,949.43Z" transform="translate(-449.649 -914.28)" fill="#b5453c"/>
          <path id="Trazado_237809" data-name="Trazado 237809" d="M584.83,1137.306l3.786-.4a18.98,18.98,0,0,1,1.052,3.628c-.105.531-.45.9-1.224,1.1s-4.41.823-4.41.823Z" transform="translate(-570.111 -1106.687)" fill="#739af0"/>
          <path id="Trazado_237810" data-name="Trazado 237810" d="M557.664,1117.573a10.354,10.354,0,0,0-2.235-.234,2.375,2.375,0,0,0-.905-1.442,1.2,1.2,0,0,0-1-.154c-.3.083-.651.374-.666,1.284a4.5,4.5,0,0,0,.026.542,12.121,12.121,0,0,0-1.277.29s-1.7,3.695-1.521,4.5c.125.548,1.808.846,2.991.774a.972.972,0,0,0,.913-1l-.117-4.158Zm-4.042-1.5a.848.848,0,0,1,.715.112,2.01,2.01,0,0,1,.736,1.156,14.557,14.557,0,0,0-1.844.17C553.174,1116.963,553.2,1116.2,553.622,1116.075Z" transform="translate(-539.158 -1087.356)" fill="#4a75cb"/>
          <g id="Grupo_116044" data-name="Grupo 116044" transform="translate(15.297 28.34)">
            <path id="Trazado_237811" data-name="Trazado 237811" d="M599.647,1118.01a4.923,4.923,0,0,1-.092-.982c.015-.91.37-1.2.666-1.284a1.2,1.2,0,0,1,1,.154,2.608,2.608,0,0,1,.986,1.836l-.34.052a2.308,2.308,0,0,0-.832-1.6.848.848,0,0,0-.715-.112c-.558.157-.422,1.431-.33,1.864Z" transform="translate(-599.554 -1115.697)" fill="#739af0"/>
          </g>
          <path id="Trazado_237812" data-name="Trazado 237812" d="M468.569,1075.832s-2.32.025-7.451-.008c-5.808-.037-7.1.014-7.1.014-2.237-1.824-2.244-4.7-2.079-6.324.04-.39.457-1.875.886-3.326a.07.07,0,0,1,0-.013c.012-.041.025-.083.036-.124l.016-.05c.454-1.536.9-2.979.9-2.979l.074.022a7,7,0,0,0,.242-3.234c-.068-.284-.361-1.922-.584-3.849l1.211-.11s3.246,5.394,3.131,8.262c0,.008,0,.015,0,.023a13.943,13.943,0,0,1-1.434,4.347c-.861,1.937-1.659,3.741-.939,4.537C456.768,1074.438,465.8,1073.266,468.569,1075.832Z" transform="translate(-449.649 -1032.805)" fill="#a83a35"/>
          <path id="Trazado_237813" data-name="Trazado 237813" d="M447.577,1026.666c-.031.28-1.064.194-1.6,0s-1.239-.019-1.743-.387a3.008,3.008,0,0,0-.818-.459c-5.723-2.023-8.99-3.988-9.708-5.249-.462-.812-.532-5.807-.04-9.979a28.429,28.429,0,0,0,4.4,2.495c-.316,2.056-.951,5.275-.876,5.469.087.225,4.592,4.116,6.11,5.423a4.7,4.7,0,0,0,1.621.717c.6.035,1.334-.051,1.829.572S447.609,1026.387,447.577,1026.666Z" transform="translate(-432.74 -991.552)" fill="#f7aa74"/>
          <path id="Trazado_237814" data-name="Trazado 237814" d="M437.853,931.18s-2.594.7-3.1,2.2-1.423,5.96-1.423,5.96.441,2.676,5.245,2.932l1.3-8.668Z" transform="translate(-432.741 -919.167)" fill="#b5453c"/>
          <path id="Trazado_237815" data-name="Trazado 237815" d="M433.562,796.965s-.85-1.262-3.327,0-3.643,6.758-3.557,8.313c.143,2.579.6,4.284,3.141,3.965s1.879,6.33,2.128,8.054,2.419,2.638,2.419,2.638a2.213,2.213,0,0,1,1.339-1.777c1.3-.631,2.189-3.528,1.386-5.077s-1.893-5.222-3.648-5.223c-1.256,0-1.827-4.646-.769-7.341A13.094,13.094,0,0,0,433.562,796.965Z" transform="translate(-426.673 -796.316)" fill="#233862"/>
          <path id="Trazado_237816" data-name="Trazado 237816" d="M634.817,1155.946s-1.01,1.365-.674,1.751,1,.589,1.313.294a1.836,1.836,0,0,0,.394-1.543C635.669,1156.152,634.817,1155.946,634.817,1155.946Z" transform="translate(-615.723 -1124.044)" fill="#f7aa74"/>
          <path id="Trazado_237817" data-name="Trazado 237817" d="M679.878,1188.066a4.226,4.226,0,0,0-2.427-4.9c-.128-.058-.238-.114-.332-.167a23.338,23.338,0,0,1,2.954.855c.884.441,1.855,4.037,1.855,4.037S680.738,1188.008,679.878,1188.066Z" transform="translate(-654.958 -1148.703)" fill="#a83a35"/>
        </g>
      </g>
      <path id="Trazado_237818" data-name="Trazado 237818" d="M1202.713,503.493s-.293.71.6,1.116,1.149.45,1.5.351.31-1.494.107-1.637S1203.078,502.425,1202.713,503.493Z" transform="translate(-977.22 -337.243)" fill="#ffb27d"/>
      <g id="Grupo_116047" data-name="Grupo 116047" transform="translate(157.853 147.992)">
        <path id="Trazado_237819" data-name="Trazado 237819" d="M1336.375,314.414v-7.126a.37.37,0,0,0,.123-.169,4.944,4.944,0,0,0-.03-3.963.46.46,0,0,0-.577-.162.354.354,0,0,0-.185.5,4.338,4.338,0,0,1-.029,3.406.326.326,0,0,0,0,.2.394.394,0,0,0-.013.1v7.215a31.8,31.8,0,0,0-1.09,3.449c-.644,2.568-.666,4.356-.065,5.313a1.73,1.73,0,0,0,1.507.82h.042a1.666,1.666,0,0,0,1.466-.759c.611-.933.594-2.724-.051-5.323A32.733,32.733,0,0,0,1336.375,314.414Zm.536,8.387a.943.943,0,0,1-.888.424,1,1,0,0,1-.9-.473c-.838-1.335.163-5.033.9-7.157C1336.751,317.75,1337.761,321.505,1336.912,322.8Z" transform="translate(-1254.849 -302.952)" fill="#f1a34f"/>
        <path id="Trazado_237820" data-name="Trazado 237820" d="M1809.579,313.905V307.1a.357.357,0,0,0,.123-.161,4.538,4.538,0,0,0-.03-3.787.472.472,0,0,0-.577-.155.332.332,0,0,0-.186.482,3.979,3.979,0,0,1-.03,3.255.3.3,0,0,0,0,.19.356.356,0,0,0-.013.092v6.895a29.365,29.365,0,0,0-1.09,3.3c-.644,2.454-.666,4.163-.065,5.077a1.751,1.751,0,0,0,1.507.784h.042a1.69,1.69,0,0,0,1.466-.725c.611-.891.594-2.6-.051-5.087A30.27,30.27,0,0,0,1809.579,313.905Zm.536,8.015a.958.958,0,0,1-.888.405,1.008,1.008,0,0,1-.9-.452c-.838-1.276.163-4.809.9-6.839C1809.954,317.093,1810.964,320.681,1810.115,321.92Z" transform="translate(-1686.181 -302.952)" fill="#f1a34f"/>
        <path id="Trazado_237821" data-name="Trazado 237821" d="M1931.7,313.905V307.1a.355.355,0,0,0,.123-.161,4.538,4.538,0,0,0-.029-3.787.472.472,0,0,0-.577-.155.332.332,0,0,0-.185.482,3.979,3.979,0,0,1-.03,3.255.3.3,0,0,0,0,.19.356.356,0,0,0-.013.092v6.895a29.392,29.392,0,0,0-1.09,3.3c-.644,2.454-.666,4.163-.065,5.077a1.751,1.751,0,0,0,1.507.784h.042a1.69,1.69,0,0,0,1.466-.725c.611-.891.594-2.6-.051-5.087A30.214,30.214,0,0,0,1931.7,313.905Zm.536,8.015a.959.959,0,0,1-.888.405,1.007,1.007,0,0,1-.9-.452c-.838-1.276.163-4.809.9-6.839C1932.073,317.093,1933.083,320.681,1932.235,321.92Z" transform="translate(-1797.495 -302.952)" fill="#f1a34f"/>
        <path id="Trazado_237822" data-name="Trazado 237822" d="M441.071,313.905V307.1a.355.355,0,0,0,.123-.161,4.537,4.537,0,0,0-.029-3.787.472.472,0,0,0-.577-.155.332.332,0,0,0-.185.482,3.98,3.98,0,0,1-.029,3.255.3.3,0,0,0,0,.19.353.353,0,0,0-.013.092v6.895a29.322,29.322,0,0,0-1.09,3.3c-.644,2.454-.666,4.163-.065,5.077a1.751,1.751,0,0,0,1.507.784h.042a1.69,1.69,0,0,0,1.466-.725c.611-.891.594-2.6-.051-5.087A30.293,30.293,0,0,0,441.071,313.905Zm.536,8.015a.958.958,0,0,1-.888.405,1.008,1.008,0,0,1-.9-.452c-.838-1.276.163-4.809.9-6.839C441.447,317.093,442.457,320.681,441.608,321.92Z" transform="translate(-438.765 -302.952)" fill="#f1a34f"/>
        <path id="Trazado_237823" data-name="Trazado 237823" d="M1196.458,313.905V307.1a.355.355,0,0,0,.123-.161,4.538,4.538,0,0,0-.029-3.787.472.472,0,0,0-.577-.155.332.332,0,0,0-.186.482,3.98,3.98,0,0,1-.029,3.255.3.3,0,0,0,0,.19.356.356,0,0,0-.013.092v6.895a29.374,29.374,0,0,0-1.09,3.3c-.644,2.454-.666,4.163-.065,5.077a1.751,1.751,0,0,0,1.507.784h.042a1.69,1.69,0,0,0,1.466-.725c.611-.891.594-2.6-.051-5.087A30.327,30.327,0,0,0,1196.458,313.905Zm.536,8.015a.958.958,0,0,1-.888.405,1.008,1.008,0,0,1-.9-.452c-.838-1.276.163-4.809.9-6.839C1196.833,317.093,1197.843,320.681,1196.994,321.92Z" transform="translate(-1127.312 -302.952)" fill="#f1a34f"/>
        <path id="Trazado_237824" data-name="Trazado 237824" d="M2222.268,317.25a30.2,30.2,0,0,0-1.093-3.344V307.1a.354.354,0,0,0,.123-.161,4.538,4.538,0,0,0-.029-3.787.472.472,0,0,0-.577-.155.332.332,0,0,0-.185.482,3.98,3.98,0,0,1-.029,3.255.3.3,0,0,0,0,.19.356.356,0,0,0-.013.092v6.895a29.263,29.263,0,0,0-1.09,3.3c-.644,2.454-.666,4.163-.065,5.077a1.751,1.751,0,0,0,1.507.784h.042a1.689,1.689,0,0,0,1.466-.725C2222.93,321.445,2222.913,319.734,2222.268,317.25Zm-.556,4.67a.959.959,0,0,1-.888.405,1.008,1.008,0,0,1-.9-.452c-.838-1.276.164-4.809.9-6.839C2221.551,317.093,2222.561,320.681,2221.712,321.92Z" transform="translate(-2061.358 -302.952)" fill="#f1a34f"/>
      </g>
      <g id="Grupo_116049" data-name="Grupo 116049" transform="translate(233.685 166.729)">
        <g id="Grupo_116048" data-name="Grupo 116048" transform="translate(13.738 18.739)">
          <path id="Trazado_237825" data-name="Trazado 237825" d="M1515.248,1025.342s-1.1,1.4-1.063,1.9a1.959,1.959,0,0,0,1.371,1.379c.608.094,1.075-1.124.933-2.437S1515.248,1025.342,1515.248,1025.342Z" transform="translate(-1508.596 -998.823)" fill="#ffb27d"/>
          <path id="Trazado_237826" data-name="Trazado 237826" d="M1455.838,726.487s7.2,13.268,6.893,14.559-3.061,2.486-4.23,2.189c-1.137-.289-7.6-9.774-7.467-10.179S1455.838,726.487,1455.838,726.487Z" transform="translate(-1451.032 -726.487)" fill="#e58638"/>
          <path id="Trazado_237827" data-name="Trazado 237827" d="M1521.915,897.4a95.9,95.9,0,0,0,3.01-12.23l-4.65-.416s-1.628,10.677-.787,12.842C1519.487,897.6,1521.335,899,1521.915,897.4Z" transform="translate(-1513.21 -870.752)" fill="#e58638"/>
        </g>
        <path id="Trazado_237828" data-name="Trazado 237828" d="M1339.111,518.972a8.976,8.976,0,0,1-.232-2.99,2.428,2.428,0,0,1,2.107-1.25c.69.136.61,1.963-.16,3.654S1339.111,518.972,1339.111,518.972Z" transform="translate(-1334.989 -514.715)" fill="#ffb27d"/>
        <path id="Trazado_237829" data-name="Trazado 237829" d="M1389.328,1469.38s-.215,3.52-.888,3.528H1380.8a1.4,1.4,0,0,1,1.271-1.261c1.238-.216,3.309-1.085,4.058-2.721C1386.914,1467.205,1389.328,1469.38,1389.328,1469.38Z" transform="translate(-1373.273 -1383.889)" fill="#163560"/>
        <path id="Trazado_237830" data-name="Trazado 237830" d="M1497.78,1470.416s-.18,2.907-.726,3.437h-7.794a1.386,1.386,0,0,1,1.259-1.171c1.238-.216,3.309-1.085,4.059-2.721C1495.367,1468.241,1497.78,1470.416,1497.78,1470.416Z" transform="translate(-1472.14 -1384.833)" fill="#163560"/>
        <path id="Trazado_237831" data-name="Trazado 237831" d="M1424.227,1010.058a139.726,139.726,0,0,0,5.238,19.652c4.13,12.571,4.693,18.015,4.693,18.015a10.116,10.116,0,0,0,2.284.2c.943-.088,2.147-.323,2.147-.323s.038-13.738-1.866-20.06-.411-22.789-.411-22.789Z" transform="translate(-1412.861 -961.39)" fill="#163560"/>
        <path id="Trazado_237832" data-name="Trazado 237832" d="M1399.824,1009.136a171.86,171.86,0,0,0,1.69,23.774c1.846,13.1.985,18.572.985,18.572a6.985,6.985,0,0,0,1.9.434,19.119,19.119,0,0,0,2.76-.2s2.643-13.108,1.885-19.666,3.619-22.5,3.619-22.5Z" transform="translate(-1390.614 -965.387)" fill="#1c468a"/>
        <path id="Trazado_237833" data-name="Trazado 237833" d="M1444.067,672.563l-2.086,1.545-3.014-.635c.042-.275.241-1.414.422-2.446.011-.061.022-.122.032-.181.155-.878.289-1.632.289-1.632l2.815-1.4,1.05-.523c0,.018-.081.974-.092,1.114A9.015,9.015,0,0,0,1444.067,672.563Z" transform="translate(-1426.296 -653.787)" fill="#ffb27d"/>
        <path id="Trazado_237834" data-name="Trazado 237834" d="M1427.316,706.917a28.562,28.562,0,0,1,4.539-1.074c.438.145.7.993.7.993l-6.6,1.492A3.276,3.276,0,0,1,1427.316,706.917Z" transform="translate(-1414.435 -688.92)" fill="#d67025"/>
        <path id="Trazado_237835" data-name="Trazado 237835" d="M1406.564,743.8c-.684,3.12-12.065,3.49-15,.658-.333-.323-.35-1.824-.224-3.849.173-2.774.613-6.529.871-9.573.11-1.3.187-2.466.2-3.374a24.133,24.133,0,0,1,.485-4.333,8.693,8.693,0,0,1,1.237-2.863,17.71,17.71,0,0,1,2.425-2.993s3.341-1.128,4.38-.823C1405.948,718.12,1407.248,740.678,1406.564,743.8Z" transform="translate(-1382.819 -698.732)" fill="#ee9849"/>
        <path id="Trazado_237836" data-name="Trazado 237836" d="M1447.617,673.829c-.618,1.183-2.922,2.206-3.883,2.582.011-.061.022-.122.032-.181.155-.878.289-1.632.289-1.632l2.815-1.4C1447.493,673.185,1447.872,673.342,1447.617,673.829Z" transform="translate(-1430.642 -659.171)" fill="#fca56b"/>
        <path id="Trazado_237837" data-name="Trazado 237837" d="M1425.365,601.079s5.079,1.584,6.017-1.594,2.225-5.114-.978-6.26-4.194-.12-4.765.865S1424.068,600.585,1425.365,601.079Z" transform="translate(-1413.319 -585.817)" fill="#ffb27d"/>
        <path id="Trazado_237838" data-name="Trazado 237838" d="M1434.08,574.771s.8,3.872,1.564,3.711,1.458-.28,1.346.835-1.173,2.4,1.185,2.6,5.746-5.882,5.1-7.033C1441.4,571.563,1431.379,570.72,1434.08,574.771Z" transform="translate(-1421.423 -566.978)" fill="#163560"/>
        <path id="Trazado_237839" data-name="Trazado 237839" d="M1406.553,766.281c-.789,1.712-2.228,3.889-4.62,4.6.11-1.3.187-2.466.2-3.374a24.133,24.133,0,0,1,.485-4.333,8.692,8.692,0,0,1,1.237-2.863,14.751,14.751,0,0,1,2.11,2A3.671,3.671,0,0,1,1406.553,766.281Z" transform="translate(-1392.539 -738.579)" fill="#e58638"/>
        <path id="Trazado_237840" data-name="Trazado 237840" d="M1311.953,557.982a5.368,5.368,0,0,0-3.09-1.5c-1.79-.24-8.109-2.806-8.338-3.627-.169-.605,1.446-10.761,1.464-10.537a2.155,2.155,0,0,0-2.477-.459s-4.405,11.875-3.656,13.463c1.151,2.438,14.737,10.545,15.008,10.677C1312.415,566.756,1311.953,557.982,1311.953,557.982Z" transform="translate(-1295.771 -539.244)" fill="#ee9849"/>
      </g>
    </g>
  </g>
</svg>
