<svg xmlns="http://www.w3.org/2000/svg" width="190" height="126.204" viewBox="0 0 190 126.204">
  <g id="Grupo_123200" data-name="Grupo 123200" transform="translate(-495 -3400.398)">
    <rect id="Rectángulo_42808" data-name="Rectángulo 42808" width="190" height="126.204" transform="translate(495 3400.398)" fill="#28acd3" opacity="0.25"/>
    <path id="Trazado_247660" data-name="Trazado 247660" d="M33.956,14.315h-2.1V19H29.219V6.2h4.755a5.375,5.375,0,0,1,3.5,1.011A3.488,3.488,0,0,1,38.7,10.07a3.937,3.937,0,0,1-.567,2.184,3.866,3.866,0,0,1-1.718,1.393l2.769,5.229V19h-2.83Zm-2.1-2.136h2.127a2.178,2.178,0,0,0,1.538-.505,1.806,1.806,0,0,0,.545-1.393,1.933,1.933,0,0,0-.514-1.424,2.137,2.137,0,0,0-1.578-.519H31.855Zm13.061,7a4.668,4.668,0,0,1-3.406-1.283A4.561,4.561,0,0,1,40.2,14.474v-.246a5.745,5.745,0,0,1,.554-2.562,4.064,4.064,0,0,1,1.569-1.74,4.4,4.4,0,0,1,2.316-.611,3.947,3.947,0,0,1,3.072,1.23,5,5,0,0,1,1.121,3.489v1.037H42.771a2.36,2.36,0,0,0,.743,1.494,2.245,2.245,0,0,0,1.569.563,2.742,2.742,0,0,0,2.294-1.063l1.248,1.4a3.813,3.813,0,0,1-1.547,1.261A5.075,5.075,0,0,1,44.916,19.176Zm-.29-7.813a1.587,1.587,0,0,0-1.226.512,2.651,2.651,0,0,0-.6,1.466h3.533v-.2a1.891,1.891,0,0,0-.457-1.311A1.638,1.638,0,0,0,44.626,11.362Zm9.6,5.766a1.666,1.666,0,0,0,1.143-.387,1.355,1.355,0,0,0,.457-1.028h2.382a3.258,3.258,0,0,1-.527,1.771,3.48,3.48,0,0,1-1.419,1.248,4.442,4.442,0,0,1-1.991.444,4.129,4.129,0,0,1-3.217-1.3A5.13,5.13,0,0,1,49.873,14.3v-.167a5.071,5.071,0,0,1,1.169-3.507,4.08,4.08,0,0,1,3.208-1.31,4,4,0,0,1,2.861,1.015,3.594,3.594,0,0,1,1.094,2.7H55.823a1.745,1.745,0,0,0-.457-1.206,1.7,1.7,0,0,0-2.5.183,3.749,3.749,0,0,0-.453,2.1v.264a3.8,3.8,0,0,0,.448,2.113A1.549,1.549,0,0,0,54.224,17.128ZM62.336,19H59.787V9.49h2.549Zm-2.7-11.971a1.251,1.251,0,0,1,.382-.94,1.648,1.648,0,0,1,2.079,0,1.244,1.244,0,0,1,.387.94,1.247,1.247,0,0,1-.391.949,1.629,1.629,0,0,1-2.065,0A1.247,1.247,0,0,1,59.638,7.029ZM73,14.333a5.758,5.758,0,0,1-.976,3.564A3.231,3.231,0,0,1,69.3,19.176a2.969,2.969,0,0,1-2.47-1.187L66.713,19H64.428V5.5h2.54v4.843a2.893,2.893,0,0,1,2.312-1.028,3.258,3.258,0,0,1,2.729,1.279,5.767,5.767,0,0,1,.989,3.6Zm-2.54-.185a3.783,3.783,0,0,0-.457-2.1,1.545,1.545,0,0,0-1.362-.664,1.676,1.676,0,0,0-1.67.993v3.753a1.7,1.7,0,0,0,1.688,1,1.568,1.568,0,0,0,1.617-1.213A6.257,6.257,0,0,0,70.457,14.148ZM77.242,19H74.693V9.49h2.549Zm-2.7-11.971a1.251,1.251,0,0,1,.382-.94,1.648,1.648,0,0,1,2.079,0,1.244,1.244,0,0,1,.387.94A1.247,1.247,0,0,1,77,7.979a1.629,1.629,0,0,1-2.065,0A1.247,1.247,0,0,1,74.544,7.029Zm10.134,4.843a6.9,6.9,0,0,0-.914-.07,1.86,1.86,0,0,0-1.89.976V19h-2.54V9.49h2.4l.07,1.134a2.354,2.354,0,0,1,2.118-1.31,2.662,2.662,0,0,1,.791.114Z" transform="translate(534 3493.898)" fill="#12263f"/>
    <g id="Grupo_117210" data-name="Grupo 117210" transform="translate(2869.297 -433.068)">
      <path id="Trazado_239528" data-name="Trazado 239528" d="M-2303.485,3858.539c0-2.555-.008-4.843.005-7.132a10.107,10.107,0,0,1,.117-1.779,5.008,5.008,0,0,1,4.649-4.085c.236-.013.472-.009.709-.009q28.14,0,56.281,0c2.832,0,5.021,1.611,5.287,4.25a59.014,59.014,0,0,1,.067,7.062,1.541,1.541,0,0,1-1.643,1.433,1.626,1.626,0,0,1-1.633-1.66c-.047-1.371-.017-2.745-.019-4.117,0-.478,0-.955,0-1.432-.01-1.607-.543-2.151-2.128-2.152q-7.977,0-15.954,0c-.26,0-.521.023-.91.041v1.078q0,7.519,0,15.037c0,.239,0,.478,0,.716a1.714,1.714,0,0,1-1.071,1.784,1.638,1.638,0,0,1-1.915-.526c-1.12-1.143-2.243-2.282-3.481-3.54-1.1,1.139-2.143,2.224-3.2,3.293-1.206,1.221-1.943,1.22-3.14.009-1.04-1.053-2.073-2.115-3.348-3.417-.69.8-1.307,1.554-1.959,2.271a19.338,19.338,0,0,1-1.572,1.575,1.619,1.619,0,0,1-2.75-1.013,6,6,0,0,1-.043-.981q0-7.608,0-15.216v-1.112h-.906q-7.977,0-15.954,0c-1.573,0-2.147.571-2.149,2.145-.005,3.4-.017,6.8.019,10.2a1.846,1.846,0,0,0,.469,1.153q3.342,3.458,6.767,6.835a2.19,2.19,0,0,0,1.305.529c2.736.173,5.5.113,8.207.458a17.242,17.242,0,0,1,8.069,3.479c2,1.483,3.994,2.975,5.967,4.494a5.371,5.371,0,0,1,2.2,6.039,5.214,5.214,0,0,1-4.921,3.958,1.178,1.178,0,0,0-.256.06,4.137,4.137,0,0,0-.306.311,17.8,17.8,0,0,1,1.431,1.149q2.036,1.994,4.019,4.042a4.884,4.884,0,0,1-.7,7.831.844.844,0,0,0-.306.681c1.006,4.574-1.976,7.475-6.405,6.21a.962.962,0,0,0-.219,0l-1.019,1.427c.311.026.555.064.8.064q16.618,0,33.237,0c1.579,0,2.119-.55,2.12-2.161q0-18.483,0-36.967a6.35,6.35,0,0,1,.042-1.07,1.628,1.628,0,0,1,1.7-1.389,1.633,1.633,0,0,1,1.582,1.519,7.365,7.365,0,0,1,.016.8q0,18.483,0,36.967c0,3.672-2,5.681-5.656,5.681q-28.007,0-56.015.009a5.366,5.366,0,0,1-3.96-1.467,5.148,5.148,0,0,1-1.53-3.875c.008-3.282.013-6.564-.012-9.846a2.147,2.147,0,0,0-.329-1.152,17.392,17.392,0,0,1-3.263-10.755,2.042,2.042,0,0,0-.673-1.641q-6.447-6.464-12.854-12.966a2.015,2.015,0,0,1-.267-2.708c.717-.7,1.689-.605,2.579.293,2.172,2.191,4.331,4.4,6.426,6.523l10.373-10.478c-1.228-1.229-2.571-2.563-3.9-3.909q-7.586-7.655-15.175-15.307a2.1,2.1,0,0,1-.685-1.65c.014-.644.189-1.205.775-1.352a3.648,3.648,0,0,1,1.661.1c.276.066.5.4.726.634q6.9,6.959,13.79,13.92C-2304.115,3857.948-2303.9,3858.145-2303.485,3858.539Zm14.653,14.626c-.975,0-1.951.035-2.924-.012a1.879,1.879,0,0,0-1.554.646c-2.947,3.014-5.866,6.06-8.916,8.963a4.734,4.734,0,0,0-1.6,3.964,13.972,13.972,0,0,0,3.771,9.581c4.242,4.4,8.58,8.715,12.887,13.055a1.491,1.491,0,0,0,2.266.176,1.551,1.551,0,0,0-.222-2.287c-1.454-1.484-2.932-2.944-4.384-4.431a1.693,1.693,0,0,1-.191-2.532,1.672,1.672,0,0,1,2.512.124c.79.762,1.557,1.549,2.33,2.33,1.483,1.5,2.958,3,4.446,4.494a1.5,1.5,0,0,0,2.263.172,1.5,1.5,0,0,0-.156-2.218c-.161-.175-.329-.343-.5-.511q-3.01-3.036-6.019-6.071c-1.045-1.055-1.195-2.015-.445-2.8s1.725-.662,2.766.381q1.7,1.7,3.386,3.414c1.775,1.793,3.539,3.6,5.326,5.378a1.444,1.444,0,0,0,2.133.1,1.526,1.526,0,0,0-.041-2.165c-.116-.135-.245-.259-.37-.386q-3.354-3.384-6.707-6.767c-.71-.717-1.439-1.417-2.108-2.172a1.6,1.6,0,0,1,.053-2.262,1.623,1.623,0,0,1,2.245-.1,5.7,5.7,0,0,1,.449.431l6.21,6.257c.167.169.327.346.5.5a1.467,1.467,0,0,0,2.074.084,1.486,1.486,0,0,0,0-2.159c-1.311-1.375-2.663-2.711-4-4.061q-4.26-4.3-8.516-8.612a2.955,2.955,0,0,1-.692-1.016,1.823,1.823,0,0,1,.581-2.1,1.844,1.844,0,0,1,2.377-.07c1.994,1.279,3.957,2.61,5.97,3.857a3.028,3.028,0,0,0,1.647.458,1.826,1.826,0,0,0,1.658-1.514,1.968,1.968,0,0,0-.787-2.208c-1.548-1.2-3.154-2.319-4.666-3.559A18.114,18.114,0,0,0-2288.833,3873.166Zm18.945-9.419c1.219-1.27,2.307-2.441,3.438-3.569a1.663,1.663,0,0,1,2.7.018c.512.518.958,1.1,1.433,1.659l.268-.207v-12.67h-15.679v12.687l.273.207c.41-.5.787-1.03,1.236-1.491,1.136-1.167,1.937-1.17,3.083-.013C-2272.078,3861.437-2271.048,3862.538-2269.887,3863.747Zm-25.887,7.568-3.2-3.224-10.16,10.261,3.232,3.226Zm-4.367,29.87c0,2.473-.023,4.82.012,7.166a1.567,1.567,0,0,0,1.576,1.613c2.329.031,4.658,0,6.987-.019.027,0,.054-.085.023-.034Z" transform="translate(0 0)" fill="#12263f"/>
      <path id="Trazado_239529" data-name="Trazado 239529" d="M-1963.989,4125.939c-1.747,0-3.494.012-5.24,0-1.217-.011-1.949-.679-1.939-1.722a1.7,1.7,0,0,1,1.882-1.7q5.332-.036,10.664,0a1.72,1.72,0,0,1,1.894,1.786,1.7,1.7,0,0,1-1.93,1.641C-1960.434,4125.949-1962.211,4125.939-1963.989,4125.939Z" transform="translate(-288.93 -229.508)" fill="#12263f"/>
      <path id="Trazado_239530" data-name="Trazado 239530" d="M-1946.491,4164.632c-1.163,0-2.327.018-3.49,0a1.725,1.725,0,0,1-1.884-1.7,1.705,1.705,0,0,1,1.846-1.744q3.627-.048,7.255,0a1.692,1.692,0,0,1,1.791,1.7,1.711,1.711,0,0,1-1.844,1.736C-1944.042,4164.651-1945.267,4164.632-1946.491,4164.632Z" transform="translate(-304.682 -261.556)" fill="#12263f"/>
      <path id="Trazado_239531" data-name="Trazado 239531" d="M-1859.005,3950.541a1.781,1.781,0,0,1-1.679-1.728,1.768,1.768,0,0,1,1.769-1.726,1.753,1.753,0,0,1,1.67,1.817A1.756,1.756,0,0,1-1859.005,3950.541Z" transform="translate(-379.093 -85.457)" fill="#12263f"/>
      <path id="Trazado_239532" data-name="Trazado 239532" d="M-1985.845,4163.03a1.707,1.707,0,0,1-1.672,1.722,1.684,1.684,0,0,1-1.735-1.739,1.7,1.7,0,0,1,1.707-1.687A1.727,1.727,0,0,1-1985.845,4163.03Z" transform="translate(-273.276 -261.69)" fill="#12263f"/>
    </g>
  </g>
</svg>
