<svg xmlns="http://www.w3.org/2000/svg" width="253.768" height="148" viewBox="0 0 253.768 148">
  <g id="Grupo_123162" data-name="Grupo 123162" transform="translate(-494.5 -4143.5)">
    <rect id="Rectángulo_42523" data-name="Rectángulo 42523" width="190" height="33" transform="translate(558.268 4214.5)" fill="#bffee3"/>
    <rect id="Rectángulo_42525" data-name="Rectángulo 42525" width="190" height="33" transform="translate(558.268 4258.5)" fill="#bffee3"/>
    <rect id="Rectángulo_42522" data-name="Rectángulo 42522" width="253" height="45" transform="translate(495 4143.5)" fill="#28acd3"/>
    <path id="Trazado_247619" data-name="Trazado 247619" d="M1.016,17V5.625h3.5A5.315,5.315,0,0,1,7.2,6.3,4.712,4.712,0,0,1,9.047,8.223a5.928,5.928,0,0,1,.664,2.832v.523a5.945,5.945,0,0,1-.652,2.82,4.672,4.672,0,0,1-1.84,1.914A5.355,5.355,0,0,1,4.539,17ZM3.359,7.523v7.594H4.492a2.545,2.545,0,0,0,2.1-.9,4.06,4.06,0,0,0,.742-2.57v-.6a4.124,4.124,0,0,0-.719-2.629,2.537,2.537,0,0,0-2.1-.895ZM10.914,12.7a5.013,5.013,0,0,1,.484-2.242A3.546,3.546,0,0,1,12.793,8.93a4.069,4.069,0,0,1,2.113-.539A3.849,3.849,0,0,1,17.7,9.438a4.2,4.2,0,0,1,1.207,2.844l.016.578a4.418,4.418,0,0,1-1.086,3.121,3.775,3.775,0,0,1-2.914,1.176A3.793,3.793,0,0,1,12,15.984a4.5,4.5,0,0,1-1.09-3.187Zm2.258.16a3.16,3.16,0,0,0,.453,1.843,1.628,1.628,0,0,0,2.578.008,3.457,3.457,0,0,0,.461-2.015A3.128,3.128,0,0,0,16.2,10.86a1.5,1.5,0,0,0-1.3-.649,1.474,1.474,0,0,0-1.281.646A3.516,3.516,0,0,0,13.172,12.856Zm11.719,1.808a.727.727,0,0,0-.41-.652,4.659,4.659,0,0,0-1.316-.426q-3.016-.633-3.016-2.562a2.323,2.323,0,0,1,.934-1.879,3.766,3.766,0,0,1,2.441-.754,4.053,4.053,0,0,1,2.574.758,2.388,2.388,0,0,1,.965,1.969H24.8a1.092,1.092,0,0,0-.312-.8A1.322,1.322,0,0,0,23.516,10a1.351,1.351,0,0,0-.883.258.814.814,0,0,0-.312.656.7.7,0,0,0,.355.605,3.657,3.657,0,0,0,1.2.4A9.8,9.8,0,0,1,25.3,12.3a2.336,2.336,0,0,1,1.789,2.273,2.2,2.2,0,0,1-.992,1.871,4.28,4.28,0,0,1-2.562.715,4.47,4.47,0,0,1-1.887-.379,3.166,3.166,0,0,1-1.293-1.039,2.414,2.414,0,0,1-.469-1.426h2.141a1.179,1.179,0,0,0,.445.922,1.766,1.766,0,0,0,1.109.32,1.635,1.635,0,0,0,.98-.246A.766.766,0,0,0,24.891,14.664Zm11.523,2.492a4.15,4.15,0,0,1-3.027-1.141,4.054,4.054,0,0,1-1.168-3.039v-.219a5.106,5.106,0,0,1,.492-2.277,3.612,3.612,0,0,1,1.395-1.547,3.914,3.914,0,0,1,2.059-.543,3.508,3.508,0,0,1,2.73,1.094,4.444,4.444,0,0,1,1,3.1v.922H34.508a2.1,2.1,0,0,0,.66,1.328,2,2,0,0,0,1.395.5,2.437,2.437,0,0,0,2.039-.945l1.109,1.242a3.389,3.389,0,0,1-1.375,1.121A4.511,4.511,0,0,1,36.414,17.156Zm-.258-6.945a1.411,1.411,0,0,0-1.09.455,2.357,2.357,0,0,0-.535,1.3h3.141v-.181a1.681,1.681,0,0,0-.406-1.165A1.456,1.456,0,0,0,36.156,10.211Zm7.406-1.664v8.914a3.024,3.024,0,0,1-.742,2.176,2.821,2.821,0,0,1-2.141.777,4.591,4.591,0,0,1-1.117-.133V18.492a4.238,4.238,0,0,0,.711.07q1.023,0,1.023-1.086V8.547ZM41.117,6.359a1.112,1.112,0,0,1,.34-.836,1.47,1.47,0,0,1,1.852,0,1.112,1.112,0,0,1,.34.836A1.108,1.108,0,0,1,43.3,7.2a1.448,1.448,0,0,1-1.836,0A1.108,1.108,0,0,1,41.117,6.359Zm8.1,10.8a4.15,4.15,0,0,1-3.027-1.141,4.054,4.054,0,0,1-1.168-3.039v-.219a5.106,5.106,0,0,1,.492-2.277A3.612,3.612,0,0,1,46.91,8.934a3.914,3.914,0,0,1,2.059-.543A3.508,3.508,0,0,1,51.7,9.484a4.444,4.444,0,0,1,1,3.1v.922H47.313a2.1,2.1,0,0,0,.66,1.328,2,2,0,0,0,1.395.5,2.437,2.437,0,0,0,2.039-.945l1.109,1.242a3.389,3.389,0,0,1-1.375,1.121A4.511,4.511,0,0,1,49.219,17.156Zm-.258-6.945a1.411,1.411,0,0,0-1.09.455,2.357,2.357,0,0,0-.535,1.3h3.141v-.181a1.681,1.681,0,0,0-.406-1.165A1.456,1.456,0,0,0,48.961,10.211Zm9.594,4.453a.727.727,0,0,0-.41-.652,4.659,4.659,0,0,0-1.316-.426q-3.016-.633-3.016-2.562a2.323,2.323,0,0,1,.934-1.879,3.766,3.766,0,0,1,2.441-.754,4.053,4.053,0,0,1,2.574.758,2.388,2.388,0,0,1,.965,1.969H58.469a1.092,1.092,0,0,0-.312-.8A1.322,1.322,0,0,0,57.18,10a1.351,1.351,0,0,0-.883.258.814.814,0,0,0-.312.656.7.7,0,0,0,.355.605,3.657,3.657,0,0,0,1.2.4,9.8,9.8,0,0,1,1.422.379A2.336,2.336,0,0,1,60.75,14.57a2.2,2.2,0,0,1-.992,1.871,4.28,4.28,0,0,1-2.562.715,4.47,4.47,0,0,1-1.887-.379,3.166,3.166,0,0,1-1.293-1.039,2.414,2.414,0,0,1-.469-1.426h2.141a1.179,1.179,0,0,0,.445.922,1.766,1.766,0,0,0,1.109.32,1.635,1.635,0,0,0,.98-.246A.766.766,0,0,0,58.555,14.664Z" transform="translate(587.268 4221.5)" fill="#12263f"/>
    <path id="Trazado_247620" data-name="Trazado 247620" d="M9.578,7.523H6.094V17H3.75V7.523H.313v-1.9H9.578Zm5.43,3.141A6.134,6.134,0,0,0,14.2,10.6a1.654,1.654,0,0,0-1.68.867V17H10.258V8.547h2.133l.063,1.008a2.092,2.092,0,0,1,1.883-1.164,2.366,2.366,0,0,1,.7.1Zm4.977,6.492a4.15,4.15,0,0,1-3.027-1.141,4.054,4.054,0,0,1-1.168-3.039v-.219a5.106,5.106,0,0,1,.492-2.277,3.612,3.612,0,0,1,1.395-1.547,3.914,3.914,0,0,1,2.059-.543,3.508,3.508,0,0,1,2.73,1.094,4.444,4.444,0,0,1,1,3.1v.922H18.078a2.1,2.1,0,0,0,.66,1.328,2,2,0,0,0,1.395.5,2.437,2.437,0,0,0,2.039-.945l1.109,1.242a3.389,3.389,0,0,1-1.375,1.121A4.511,4.511,0,0,1,19.984,17.156Zm-.258-6.945a1.411,1.411,0,0,0-1.09.455,2.357,2.357,0,0,0-.535,1.3h3.141v-.181a1.681,1.681,0,0,0-.406-1.165A1.456,1.456,0,0,0,19.727,10.211Zm9.594,4.453a.727.727,0,0,0-.41-.652,4.659,4.659,0,0,0-1.316-.426q-3.016-.633-3.016-2.562a2.323,2.323,0,0,1,.934-1.879,3.766,3.766,0,0,1,2.441-.754,4.053,4.053,0,0,1,2.574.758,2.388,2.388,0,0,1,.965,1.969H29.234a1.092,1.092,0,0,0-.312-.8A1.322,1.322,0,0,0,27.945,10a1.351,1.351,0,0,0-.883.258.814.814,0,0,0-.312.656.7.7,0,0,0,.355.605,3.657,3.657,0,0,0,1.2.4,9.8,9.8,0,0,1,1.422.379,2.336,2.336,0,0,1,1.789,2.273,2.2,2.2,0,0,1-.992,1.871,4.28,4.28,0,0,1-2.562.715,4.47,4.47,0,0,1-1.887-.379,3.166,3.166,0,0,1-1.293-1.039,2.414,2.414,0,0,1-.469-1.426h2.141a1.179,1.179,0,0,0,.445.922,1.766,1.766,0,0,0,1.109.32,1.635,1.635,0,0,0,.98-.246A.766.766,0,0,0,29.32,14.664Zm11.523,2.492a4.15,4.15,0,0,1-3.027-1.141,4.054,4.054,0,0,1-1.168-3.039v-.219a5.106,5.106,0,0,1,.492-2.277,3.612,3.612,0,0,1,1.395-1.547,3.914,3.914,0,0,1,2.059-.543,3.508,3.508,0,0,1,2.73,1.094,4.444,4.444,0,0,1,1,3.1v.922H38.938a2.1,2.1,0,0,0,.66,1.328,2,2,0,0,0,1.395.5,2.437,2.437,0,0,0,2.039-.945l1.109,1.242a3.389,3.389,0,0,1-1.375,1.121A4.511,4.511,0,0,1,40.844,17.156Zm-.258-6.945a1.411,1.411,0,0,0-1.09.455,2.357,2.357,0,0,0-.535,1.3H42.1v-.181a1.681,1.681,0,0,0-.406-1.165A1.456,1.456,0,0,0,40.586,10.211Zm7.406-1.664v8.914a3.024,3.024,0,0,1-.742,2.176,2.821,2.821,0,0,1-2.141.777,4.591,4.591,0,0,1-1.117-.133V18.492a4.238,4.238,0,0,0,.711.07q1.023,0,1.023-1.086V8.547ZM45.547,6.359a1.112,1.112,0,0,1,.34-.836,1.47,1.47,0,0,1,1.852,0,1.112,1.112,0,0,1,.34.836,1.108,1.108,0,0,1-.348.844,1.448,1.448,0,0,1-1.836,0A1.108,1.108,0,0,1,45.547,6.359Zm8.1,10.8a4.15,4.15,0,0,1-3.027-1.141,4.054,4.054,0,0,1-1.168-3.039v-.219a5.106,5.106,0,0,1,.492-2.277A3.612,3.612,0,0,1,51.34,8.934,3.914,3.914,0,0,1,53.4,8.391a3.508,3.508,0,0,1,2.73,1.094,4.444,4.444,0,0,1,1,3.1v.922H51.742a2.1,2.1,0,0,0,.66,1.328,2,2,0,0,0,1.395.5,2.437,2.437,0,0,0,2.039-.945l1.109,1.242a3.389,3.389,0,0,1-1.375,1.121A4.511,4.511,0,0,1,53.648,17.156Zm-.258-6.945a1.411,1.411,0,0,0-1.09.455,2.357,2.357,0,0,0-.535,1.3h3.141v-.181a1.681,1.681,0,0,0-.406-1.165A1.456,1.456,0,0,0,53.391,10.211Zm9.594,4.453a.727.727,0,0,0-.41-.652,4.659,4.659,0,0,0-1.316-.426q-3.016-.633-3.016-2.562a2.323,2.323,0,0,1,.934-1.879,3.766,3.766,0,0,1,2.441-.754,4.053,4.053,0,0,1,2.574.758,2.388,2.388,0,0,1,.965,1.969H62.9a1.092,1.092,0,0,0-.312-.8A1.322,1.322,0,0,0,61.609,10a1.351,1.351,0,0,0-.883.258.814.814,0,0,0-.312.656.7.7,0,0,0,.355.605,3.657,3.657,0,0,0,1.2.4,9.8,9.8,0,0,1,1.422.379A2.336,2.336,0,0,1,65.18,14.57a2.2,2.2,0,0,1-.992,1.871,4.28,4.28,0,0,1-2.562.715,4.47,4.47,0,0,1-1.887-.379,3.166,3.166,0,0,1-1.293-1.039,2.414,2.414,0,0,1-.469-1.426h2.141a1.179,1.179,0,0,0,.445.922,1.766,1.766,0,0,0,1.109.32,1.635,1.635,0,0,0,.98-.246A.766.766,0,0,0,62.984,14.664Z" transform="translate(587.268 4265.5)" fill="#12263f"/>
    <path id="Trazado_247618" data-name="Trazado 247618" d="M10.266,17H7.922L3.359,9.516V17H1.016V5.625H3.359l4.57,7.5v-7.5h2.336Zm6.961-.859a2.831,2.831,0,0,1-2.312,1.016,2.67,2.67,0,0,1-2.074-.781,3.335,3.335,0,0,1-.73-2.289V8.547h2.258v5.467q0,1.322,1.2,1.322a1.63,1.63,0,0,0,1.578-.8V8.547h2.266V17H17.289ZM16.219,5H18.68L16.516,7.422H14.68Zm7.016,3.547.07.945a2.971,2.971,0,0,1,2.43-1.1A2.255,2.255,0,0,1,27.977,9.68a2.9,2.9,0,0,1,2.539-1.289,2.521,2.521,0,0,1,2.047.8,3.681,3.681,0,0,1,.672,2.41V17H30.969V11.609a1.61,1.61,0,0,0-.281-1.051,1.246,1.246,0,0,0-.992-.332,1.409,1.409,0,0,0-1.406.969L28.3,17H26.039V11.617a1.59,1.59,0,0,0-.289-1.062,1.259,1.259,0,0,0-.984-.328,1.463,1.463,0,0,0-1.391.8V17H21.117V8.547Zm15.625,8.609a4.15,4.15,0,0,1-3.027-1.141,4.054,4.054,0,0,1-1.168-3.039v-.219a5.106,5.106,0,0,1,.492-2.277,3.612,3.612,0,0,1,1.395-1.547,3.914,3.914,0,0,1,2.059-.543,3.508,3.508,0,0,1,2.73,1.094,4.444,4.444,0,0,1,1,3.1v.922H36.953a2.1,2.1,0,0,0,.66,1.328,2,2,0,0,0,1.395.5,2.437,2.437,0,0,0,2.039-.945l1.109,1.242a3.389,3.389,0,0,1-1.375,1.121A4.511,4.511,0,0,1,38.859,17.156ZM38.6,10.211a1.411,1.411,0,0,0-1.09.455,2.357,2.357,0,0,0-.535,1.3h3.141v-.181a1.681,1.681,0,0,0-.406-1.165A1.456,1.456,0,0,0,38.6,10.211Zm9.766.453a6.134,6.134,0,0,0-.812-.062,1.654,1.654,0,0,0-1.68.867V17H43.617V8.547H45.75l.063,1.008A2.092,2.092,0,0,1,47.7,8.391a2.366,2.366,0,0,1,.7.1ZM48.82,12.7a5.013,5.013,0,0,1,.484-2.242A3.546,3.546,0,0,1,50.7,8.93a4.069,4.069,0,0,1,2.113-.539,3.849,3.849,0,0,1,2.793,1.047,4.2,4.2,0,0,1,1.207,2.844l.016.578a4.418,4.418,0,0,1-1.086,3.121,4.209,4.209,0,0,1-5.832,0A4.5,4.5,0,0,1,48.82,12.8Zm2.258.16a3.16,3.16,0,0,0,.453,1.843,1.628,1.628,0,0,0,2.578.008,3.457,3.457,0,0,0,.461-2.015,3.128,3.128,0,0,0-.461-1.831,1.5,1.5,0,0,0-1.3-.649,1.474,1.474,0,0,0-1.281.646A3.516,3.516,0,0,0,51.078,12.856Zm10.773-.145a5.094,5.094,0,0,1,.887-3.148,2.877,2.877,0,0,1,2.426-1.172,2.589,2.589,0,0,1,2.039.922V5h2.266V17H67.43l-.109-.9a2.657,2.657,0,0,1-2.172,1.055,2.869,2.869,0,0,1-2.395-1.176A5.258,5.258,0,0,1,61.852,12.711Zm2.258.168a3.337,3.337,0,0,0,.414,1.823,1.349,1.349,0,0,0,1.2.634,1.511,1.511,0,0,0,1.477-.884V11.111a1.489,1.489,0,0,0-1.461-.884Q64.109,10.227,64.109,12.879Zm11,4.277a4.15,4.15,0,0,1-3.027-1.141,4.054,4.054,0,0,1-1.168-3.039v-.219a5.106,5.106,0,0,1,.492-2.277A3.612,3.612,0,0,1,72.8,8.934a3.914,3.914,0,0,1,2.059-.543,3.508,3.508,0,0,1,2.73,1.094,4.444,4.444,0,0,1,1,3.1v.922H73.2a2.1,2.1,0,0,0,.66,1.328,2,2,0,0,0,1.395.5,2.437,2.437,0,0,0,2.039-.945l1.109,1.242a3.389,3.389,0,0,1-1.375,1.121A4.511,4.511,0,0,1,75.109,17.156Zm-.258-6.945a1.411,1.411,0,0,0-1.09.455,2.357,2.357,0,0,0-.535,1.3h3.141v-.181a1.681,1.681,0,0,0-.406-1.165A1.456,1.456,0,0,0,74.852,10.211ZM90.844,12.07h-4.5v3.047h5.281V17H84V5.625h7.609v1.9H86.344v2.711h4.5Zm4.4-3.523v8.914a3.024,3.024,0,0,1-.742,2.176,2.821,2.821,0,0,1-2.141.777,4.591,4.591,0,0,1-1.117-.133V18.492a4.238,4.238,0,0,0,.711.07q1.023,0,1.023-1.086V8.547ZM92.8,6.359a1.112,1.112,0,0,1,.34-.836,1.47,1.47,0,0,1,1.852,0,1.112,1.112,0,0,1,.34.836,1.108,1.108,0,0,1-.348.844,1.448,1.448,0,0,1-1.836,0A1.108,1.108,0,0,1,92.8,6.359Zm8.1,10.8a4.15,4.15,0,0,1-3.027-1.141A4.054,4.054,0,0,1,96.7,12.977v-.219A5.106,5.106,0,0,1,97.2,10.48,3.612,3.612,0,0,1,98.59,8.934a3.914,3.914,0,0,1,2.059-.543,3.508,3.508,0,0,1,2.73,1.094,4.444,4.444,0,0,1,1,3.1v.922H98.992a2.1,2.1,0,0,0,.66,1.328,2,2,0,0,0,1.395.5,2.437,2.437,0,0,0,2.039-.945l1.109,1.242a3.389,3.389,0,0,1-1.375,1.121A4.511,4.511,0,0,1,100.9,17.156Zm-.258-6.945a1.411,1.411,0,0,0-1.09.455,2.357,2.357,0,0,0-.535,1.3h3.141v-.181a1.681,1.681,0,0,0-.406-1.165A1.456,1.456,0,0,0,100.641,10.211Zm9.594,4.453a.727.727,0,0,0-.41-.652,4.659,4.659,0,0,0-1.316-.426q-3.016-.633-3.016-2.562a2.323,2.323,0,0,1,.934-1.879,3.766,3.766,0,0,1,2.441-.754,4.053,4.053,0,0,1,2.574.758,2.388,2.388,0,0,1,.965,1.969h-2.258a1.092,1.092,0,0,0-.312-.8,1.322,1.322,0,0,0-.977-.316,1.351,1.351,0,0,0-.883.258.814.814,0,0,0-.312.656.7.7,0,0,0,.355.605,3.657,3.657,0,0,0,1.2.4,9.8,9.8,0,0,1,1.422.379,2.336,2.336,0,0,1,1.789,2.273,2.2,2.2,0,0,1-.992,1.871,4.28,4.28,0,0,1-2.562.715,4.47,4.47,0,0,1-1.887-.379,3.166,3.166,0,0,1-1.293-1.039,2.414,2.414,0,0,1-.469-1.426h2.141a1.179,1.179,0,0,0,.445.922,1.766,1.766,0,0,0,1.109.32,1.635,1.635,0,0,0,.98-.246A.766.766,0,0,0,110.234,14.664Z" transform="translate(560 4156.5)" fill="#12263f"/>
    <g id="Grupo_97017" data-name="Grupo 97017" transform="translate(495 4190.94)">
      <path id="Sustracción_19" data-name="Sustracción 19" d="M7805.035,7559.246h-45.179c-4.513,0-8.184-4.924-8.184-10.977v-22.011a4.406,4.406,0,1,1,1.778.046v21.965c0,4.737,2.874,8.591,6.405,8.591h45.179v2.385Z" transform="translate(-7748.267 -7517.56)" fill="#12263f" stroke="rgba(0,0,0,0)" stroke-miterlimit="10" stroke-width="1"/>
      <g id="Grupo_97018" data-name="Grupo 97018" transform="translate(60.267 33.612) rotate(90)">
        <path id="Trazado_213022" data-name="Trazado 213022" d="M0,10.666,6.754,7.042l6.754,3.624L6.754,0Z" fill="#12263f"/>
      </g>
    </g>
    <g id="Grupo_116570" data-name="Grupo 116570" transform="translate(495 4234.94)">
      <path id="Sustracción_19-2" data-name="Sustracción 19" d="M7805.035,7559.246h-45.181c-4.511,0-8.182-4.925-8.182-10.979v-46.3h1.778v46.3c0,4.738,2.873,8.593,6.4,8.593h45.181v2.385Z" transform="translate(-7748.267 -7517.56)" fill="#12263f" stroke="rgba(0,0,0,0)" stroke-miterlimit="10" stroke-width="1"/>
      <g id="Grupo_97018-2" data-name="Grupo 97018" transform="translate(60.267 33.612) rotate(90)">
        <path id="Trazado_213022-2" data-name="Trazado 213022" d="M0,10.666,6.754,7.042l6.754,3.624L6.754,0Z" fill="#12263f"/>
      </g>
    </g>
  </g>
</svg>
