<svg xmlns="http://www.w3.org/2000/svg" width="294" height="159.5" viewBox="0 0 294 159.5">
  <g id="Grupo_123160" data-name="Grupo 123160" transform="translate(-809 -3473.5)">
    <rect id="Rectángulo_42330" data-name="Rectángulo 42330" width="294" height="159.5" transform="translate(809 3473.5)" fill="#28acd3" opacity="0.25"/>
    <circle id="Elipse_5478" data-name="Elipse 5478" cx="56.5" cy="56.5" r="56.5" transform="translate(900 3496.5)" fill="#fff"/>
    <g id="Elipse_5477" data-name="Elipse 5477" transform="translate(890 3486.5)" fill="none" stroke="#28acd3" stroke-width="3" stroke-dasharray="3 6">
      <circle cx="66.5" cy="66.5" r="66.5" stroke="none"/>
      <circle cx="66.5" cy="66.5" r="65" fill="none"/>
    </g>
    <path id="Trazado_247616" data-name="Trazado 247616" d="M52.98,69.078a6.014,6.014,0,0,0-2.344-5.1Q48.293,62.2,42.2,60.23a59.813,59.813,0,0,1-9.648-3.887q-9.688-5.234-9.687-14.1a13.734,13.734,0,0,1,2.6-8.223,16.944,16.944,0,0,1,7.461-5.645A28.082,28.082,0,0,1,43.84,26.344,25.561,25.561,0,0,1,54.7,28.551a17.291,17.291,0,0,1,7.4,6.23,16.3,16.3,0,0,1,2.637,9.141H53.02a7.669,7.669,0,0,0-2.461-6.074,10.116,10.116,0,0,0-6.914-2.168,10.808,10.808,0,0,0-6.68,1.816,5.729,5.729,0,0,0-2.383,4.785,5.487,5.487,0,0,0,2.793,4.648A31.555,31.555,0,0,0,45.6,50.445q10,3.008,14.57,7.461A14.859,14.859,0,0,1,64.738,69a13.687,13.687,0,0,1-5.586,11.582q-5.586,4.2-15.039,4.2a29.041,29.041,0,0,1-11.953-2.4A18.915,18.915,0,0,1,23.938,75.8a16.856,16.856,0,0,1-2.832-9.687H32.863q0,9.414,11.25,9.414a10.944,10.944,0,0,0,6.523-1.7A5.528,5.528,0,0,0,52.98,69.078Z" transform="translate(913 3504.5)" fill="#28acd3"/>
  </g>
</svg>
