<svg xmlns="http://www.w3.org/2000/svg" xmlns:xlink="http://www.w3.org/1999/xlink" width="295" height="93" viewBox="0 0 295 93">
  <defs>
    <linearGradient id="linear-gradient" x1="-30.146" y1="0.5" x2="-29.146" y2="0.5" gradientUnits="objectBoundingBox">
      <stop offset="0"/>
      <stop offset="0.998" stop-color="#666"/>
    </linearGradient>
    <linearGradient id="linear-gradient-2" x1="-706.248" y1="-0.279" x2="-706.248" y2="0.737" gradientUnits="objectBoundingBox">
      <stop offset="0" stop-color="#f2f2f2"/>
      <stop offset="1" stop-color="gray"/>
    </linearGradient>
    <linearGradient id="linear-gradient-3" x1="-677.278" y1="-0.279" x2="-677.278" y2="0.737" xlink:href="#linear-gradient-2"/>
    <linearGradient id="linear-gradient-4" x1="-648.307" y1="-0.279" x2="-648.307" y2="0.737" xlink:href="#linear-gradient-2"/>
    <radialGradient id="radial-gradient" cx="0.5" cy="0.5" r="0.5" gradientTransform="matrix(-0.707, -0.707, -0.707, 0.707, -27.829, -11.527)" gradientUnits="objectBoundingBox">
      <stop offset="0.484" stop-color="#4d4d4d"/>
      <stop offset="0.66" stop-color="#8f8f8f"/>
      <stop offset="0.818" stop-color="#c4c4c4"/>
      <stop offset="0.935" stop-color="#e5e5e5"/>
      <stop offset="1" stop-color="#f2f2f2"/>
    </radialGradient>
    <radialGradient id="radial-gradient-2" cx="0.5" cy="0.5" r="0.5" gradientTransform="matrix(-1, 0, 0, 1, -46.112, 0)" gradientUnits="objectBoundingBox">
      <stop offset="0" stop-color="gray"/>
      <stop offset="1" stop-color="#f2f2f2"/>
    </radialGradient>
    <linearGradient id="linear-gradient-5" x1="-39.094" y1="0.5" x2="-38.094" y2="0.5" gradientTransform="matrix(1, 0, 0, 1, 0, 0)" xlink:href="#radial-gradient-2"/>
    <radialGradient id="radial-gradient-3" cx="0.5" cy="0.5" r="0.5" gradientTransform="matrix(-0.707, -0.707, -0.707, 0.707, -56.561, -23.428)" xlink:href="#radial-gradient"/>
    <radialGradient id="radial-gradient-4" cx="0.5" cy="0.5" r="0.5" gradientTransform="matrix(-1, 0, 0, 1, -92.736, 0)" xlink:href="#radial-gradient-2"/>
    <linearGradient id="linear-gradient-6" x1="-77.768" y1="0.5" x2="-76.768" y2="0.5" gradientTransform="matrix(1, 0, 0, 1, 0, 0)" xlink:href="#radial-gradient-2"/>
    <radialGradient id="radial-gradient-5" cx="0.5" cy="0.5" r="0.5" gradientTransform="matrix(-0.707, -0.707, -0.707, 0.707, -62.644, -25.948)" xlink:href="#radial-gradient"/>
    <radialGradient id="radial-gradient-6" cx="0.5" cy="0.5" r="0.5" gradientTransform="matrix(-1, 0, 0, 1, -102.604, 0)" xlink:href="#radial-gradient-2"/>
    <linearGradient id="linear-gradient-7" x1="-85.955" y1="0.5" x2="-84.956" y2="0.5" gradientTransform="matrix(1, 0, 0, 1, 0, 0)" xlink:href="#radial-gradient-2"/>
  </defs>
  <g id="Grupo_123172" data-name="Grupo 123172" transform="translate(-810 -4829)">
    <rect id="Rectángulo_42531" data-name="Rectángulo 42531" width="295" height="93" transform="translate(810 4829)" fill="#28acd3" opacity="0.25"/>
    <g id="Grupo_122661" data-name="Grupo 122661" transform="translate(7518.452 11704.563)">
      <g id="Grupo_122489" data-name="Grupo 122489" transform="translate(-7785.657 -6933.91)">
        <path id="Trazado_247087" data-name="Trazado 247087" d="M1168.642,84.952h13.417v2.32h-15.738A2.321,2.321,0,0,1,1168.642,84.952Z" fill="#1ba2c1" stroke="#12263f" stroke-miterlimit="10" stroke-width="1"/>
        <g id="Grupo_122481" data-name="Grupo 122481">
          <path id="Trazado_247088" data-name="Trazado 247088" d="M1171.138,80.847h1.638a1.606,1.606,0,0,1,1.6,1.461l.239,2.644h-4.686v-2.9A1.21,1.21,0,0,1,1171.138,80.847Z" fill="#1ba2c1" stroke="#12263f" stroke-miterlimit="10" stroke-width="1"/>
          <rect id="Rectángulo_43455" data-name="Rectángulo 43455" width="0.871" height="2.643" transform="translate(1169.928 84.211) rotate(-180)" fill="#28acd3" stroke="#12263f" stroke-miterlimit="10" stroke-width="1"/>
        </g>
        <g id="Grupo_122482" data-name="Grupo 122482">
          <path id="Trazado_247089" data-name="Trazado 247089" d="M1219.4,123.255h-62v-5.433h62a2.716,2.716,0,0,1,2.716,2.716h0A2.716,2.716,0,0,1,1219.4,123.255Z" fill="#fff" stroke="#12263f" stroke-miterlimit="10" stroke-width="1"/>
          <g id="Rectángulo_43456" data-name="Rectángulo 43456" transform="translate(1187.551 119.424) rotate(-180)" fill="#12263f" stroke="#12263f" stroke-miterlimit="10" stroke-width="1">
            <rect width="24.341" height="1.673" stroke="none"/>
            <rect x="-0.5" y="-0.5" width="25.341" height="2.673" fill="none"/>
          </g>
        </g>
        <rect id="Rectángulo_43457" data-name="Rectángulo 43457" width="3.561" height="11.735" transform="translate(1137.367 129.625) rotate(-180)" fill="#fff" stroke="#12263f" stroke-miterlimit="10" stroke-width="1"/>
        <path id="Trazado_247090" data-name="Trazado 247090" d="M1137.367,101.548V117.6h26v.15h18.689V87.122h-15.148a2.857,2.857,0,0,0-.352.022,3.877,3.877,0,0,0-3.254,3.2l-1.594,8.467a3.418,3.418,0,0,1-3.35,2.741Z" fill="#28acd3" stroke="#12263f" stroke-miterlimit="10" stroke-width="1"/>
        <g id="Grupo_122483" data-name="Grupo 122483">
          <path id="Trazado_247091" data-name="Trazado 247091" d="M1135.745,106.906v6.38a.4.4,0,0,0,.4.4h10.806a.4.4,0,0,0,.2-.748l-10.806-6.38A.4.4,0,0,0,1135.745,106.906Z" fill="#fff"/>
          <rect id="Rectángulo_43458" data-name="Rectángulo 43458" width="0.42" height="5.757" transform="translate(1135.745 107.05)" fill="#fff"/>
          <path id="Trazado_247092" data-name="Trazado 247092" d="M1137.193,110.705a1.349,1.349,0,1,0,1.349-1.348A1.349,1.349,0,0,0,1137.193,110.705Z" fill="#fece16"/>
        </g>
        <path id="Rectángulo_43459" data-name="Rectángulo 43459" d="M0,0H2A0,0,0,0,1,2,0V0A2,2,0,0,1,0,2H0A0,0,0,0,1,0,2V0A0,0,0,0,1,0,0Z" transform="translate(1137.367 117.895) rotate(-180)" fill="#fff"/>
        <path id="Trazado_247093" data-name="Trazado 247093" d="M1177.92,110.639V91.913a1.826,1.826,0,0,0-1.826-1.825h-7.177A1.824,1.824,0,0,0,1167.2,91.3l-3.106,8.644a1.829,1.829,0,0,0-.108.617v10.082a1.826,1.826,0,0,0,1.826,1.826h10.283A1.827,1.827,0,0,0,1177.92,110.639Z" fill="#28acd3" stroke="#12263f" stroke-miterlimit="10" stroke-width="1"/>
        <rect id="Rectángulo_43460" data-name="Rectángulo 43460" width="0.41" height="15.152" transform="translate(1179.395 110.989) rotate(-180)" fill="#fff"/>
        <path id="Trazado_247094" data-name="Trazado 247094" d="M1168,99.233h7.2a1.2,1.2,0,0,0,.663-.2,1.166,1.166,0,0,0,.511-.964V93.207a1.173,1.173,0,0,0-1.174-1.174h-5.514a1.136,1.136,0,0,0-.558.145,1.149,1.149,0,0,0-.544.642l-1.692,4.859A1.169,1.169,0,0,0,1168,99.233Z" fill="url(#linear-gradient)"/>
        <rect id="Rectángulo_43461" data-name="Rectángulo 43461" width="1.018" height="8.823" rx="0.509" transform="translate(1166.316 91.428)" fill="#fff"/>
        <rect id="Rectángulo_43462" data-name="Rectángulo 43462" width="0.601" height="9.468" transform="translate(1133.806 128.125) rotate(-180)" fill="#fece16"/>
        <path id="Rectángulo_43463" data-name="Rectángulo 43463" d="M0,0H6.557a0,0,0,0,1,0,0V8.86a2.409,2.409,0,0,1-2.409,2.409H2.409A2.409,2.409,0,0,1,0,8.86V0A0,0,0,0,1,0,0Z" transform="translate(1187.551 117.751) rotate(-180)" fill="#12263f"/>
        <path id="Rectángulo_43464" data-name="Rectángulo 43464" d="M0,0H4.427a0,0,0,0,1,0,0V9.29a1.979,1.979,0,0,1-1.979,1.979H1.98A1.98,1.98,0,0,1,0,9.29V0A0,0,0,0,1,0,0Z" transform="translate(1186.486 106.564) rotate(-180)" fill="#12263f"/>
        <path id="Rectángulo_43465" data-name="Rectángulo 43465" d="M0,0H2.327a0,0,0,0,1,0,0V23.866A1.163,1.163,0,0,1,1.163,25.03h0A1.163,1.163,0,0,1,0,23.866V0A0,0,0,0,1,0,0Z" transform="translate(1185.436 95.377) rotate(-180)" fill="#12263f"/>
        <g id="Grupo_122484" data-name="Grupo 122484">
          <path id="Rectángulo_43466" data-name="Rectángulo 43466" d="M1.878,0H20.916a1.878,1.878,0,0,1,1.878,1.878V6.286a0,0,0,0,1,0,0H0a0,0,0,0,1,0,0V1.878A1.878,1.878,0,0,1,1.878,0Z" transform="translate(1212.551 124.19) rotate(-180)" fill="#12263f"/>
          <rect id="Rectángulo_43467" data-name="Rectángulo 43467" width="0.513" height="6.286" transform="translate(1209.093 124.19) rotate(-180)" fill="url(#linear-gradient-2)"/>
          <rect id="Rectángulo_43468" data-name="Rectángulo 43468" width="0.513" height="6.286" transform="translate(1201.666 124.19) rotate(-180)" fill="url(#linear-gradient-3)"/>
          <rect id="Rectángulo_43469" data-name="Rectángulo 43469" width="0.513" height="6.286" transform="translate(1194.24 124.19) rotate(-180)" fill="url(#linear-gradient-4)"/>
        </g>
        <path id="Rectángulo_43470" data-name="Rectángulo 43470" d="M0,0H1.749a0,0,0,0,1,0,0V14.234A1.749,1.749,0,0,1,0,15.983H0a0,0,0,0,1,0,0V0A0,0,0,0,1,0,0Z" transform="translate(1137.367 117.575) rotate(-180)" fill="#fff" stroke="#12263f" stroke-miterlimit="10" stroke-width="1"/>
        <g id="Grupo_122488" data-name="Grupo 122488">
          <g id="Grupo_122487" data-name="Grupo 122487">
            <g id="Grupo_122486" data-name="Grupo 122486">
              <circle id="Elipse_6053" data-name="Elipse 6053" cx="10.97" cy="10.97" r="10.97" transform="matrix(0.973, -0.23, 0.23, 0.973, 1135.016, 118.768)"/>
              <circle id="Elipse_6054" data-name="Elipse 6054" cx="7.094" cy="7.094" r="7.094" transform="translate(1138.296 126.924) rotate(-45)" fill="url(#radial-gradient)"/>
              <g id="Grupo_122485" data-name="Grupo 122485">
                <path id="Trazado_247095" data-name="Trazado 247095" d="M1143.206,126.924a5.122,5.122,0,1,0,5.122-5.122A5.123,5.123,0,0,0,1143.206,126.924Zm.918-1.792a.2.2,0,0,1,.114.251,4.418,4.418,0,0,0-.206.733.2.2,0,0,1-.191.159.156.156,0,0,1-.037,0,.2.2,0,0,1-.155-.228,4.8,4.8,0,0,1,.224-.8A.193.193,0,0,1,1144.124,125.132Zm2.057-2.015a4.33,4.33,0,0,0-.627.431.2.2,0,0,1-.274-.027.2.2,0,0,1,.026-.275,4.666,4.666,0,0,1,.683-.468.193.193,0,0,1,.265.073A.2.2,0,0,1,1146.181,123.117Zm1.588-.729a.192.192,0,0,1-.16.224,4.419,4.419,0,0,0-.736.191.215.215,0,0,1-.065.01.195.195,0,0,1-.065-.379,4.788,4.788,0,0,1,.8-.206A.2.2,0,0,1,1147.769,122.388Zm1.583.082a.2.2,0,0,1-.192.159l-.036,0a4.334,4.334,0,0,0-.756-.073.2.2,0,0,1,0-.39h0a4.9,4.9,0,0,1,.824.079A.2.2,0,0,1,1149.352,122.47Zm1.458.618a.2.2,0,0,1-.168.1.2.2,0,0,1-.1-.027,4.268,4.268,0,0,0-.685-.327.195.195,0,0,1,.137-.365,4.748,4.748,0,0,1,.748.356A.2.2,0,0,1,1150.81,123.088Zm1.161,1.078a.2.2,0,0,1-.125.044.2.2,0,0,1-.15-.07,4.2,4.2,0,0,0-.534-.541.2.2,0,0,1,.253-.3,4.758,4.758,0,0,1,.582.589A.2.2,0,0,1,1151.971,124.166Zm.842,1.159a.194.194,0,0,1-.117.249.194.194,0,0,1-.25-.118,4.326,4.326,0,0,0-.317-.691.2.2,0,1,1,.34-.192A4.612,4.612,0,0,1,1152.813,125.325Zm.08,1.808a.208.208,0,0,1-.195-.209,4.423,4.423,0,0,0-.061-.732.195.195,0,1,1,.384-.065,4.786,4.786,0,0,1,.067.8v.028A.184.184,0,0,1,1152.893,127.133Zm-.35,1.558a.194.194,0,0,1-.115-.25,4.541,4.541,0,0,0,.2-.735.2.2,0,1,1,.384.071,4.867,4.867,0,0,1-.22.8.192.192,0,0,1-.182.127A.181.181,0,0,1,1152.543,128.691Zm-.879,1.057a4.293,4.293,0,0,0,.439-.619.195.195,0,1,1,.337.2,4.663,4.663,0,0,1-.479.676.2.2,0,0,1-.148.068.191.191,0,0,1-.127-.046A.2.2,0,0,1,1151.664,129.748Zm-1.165.969a4.356,4.356,0,0,0,.624-.434.2.2,0,0,1,.25.3,4.862,4.862,0,0,1-.68.473.187.187,0,0,1-.1.025.195.195,0,0,1-.1-.364Zm-1.584.739a.2.2,0,0,1,.159-.225,4.144,4.144,0,0,0,.735-.194.2.2,0,0,1,.134.367,4.5,4.5,0,0,1-.8.211.194.194,0,0,1-.225-.159Zm-1.584-.073a.2.2,0,0,1,.227-.157,4.452,4.452,0,0,0,.758.068.2.2,0,0,1,0,.39h0a4.74,4.74,0,0,1-.825-.074A.2.2,0,0,1,1147.331,131.383Zm-1.462-.608a.2.2,0,0,1,.267-.071,4.39,4.39,0,0,0,.687.323.195.195,0,0,1-.067.378.2.2,0,0,1-.068-.011,4.688,4.688,0,0,1-.748-.353A.2.2,0,0,1,1145.869,130.775ZM1144.7,129.7a.2.2,0,0,1,.275.024,4.541,4.541,0,0,0,.537.539.2.2,0,0,1-.253.3,4.963,4.963,0,0,1-.583-.586A.2.2,0,0,1,1144.7,129.7Zm-.135-5.006a.192.192,0,0,1-.168.1.187.187,0,0,1-.1-.027.2.2,0,0,1-.069-.267,4.92,4.92,0,0,1,.483-.673.2.2,0,0,1,.3.255A4.477,4.477,0,0,0,1144.567,124.7Zm-.714,3.851a.2.2,0,1,1,.367-.133,4.339,4.339,0,0,0,.32.688.195.195,0,1,1-.337.2A4.571,4.571,0,0,1,1143.853,128.549Zm-.284-1.625v-.054a.195.195,0,1,1,.389,0v.054a4.429,4.429,0,0,0,.066.757.2.2,0,0,1-.384.068A4.732,4.732,0,0,1,1143.569,126.924Z" fill="url(#radial-gradient-2)"/>
              </g>
              <path id="Trazado_247096" data-name="Trazado 247096" d="M1145.242,126.924a3.087,3.087,0,1,0,3.086-3.087A3.087,3.087,0,0,0,1145.242,126.924Z" fill="url(#linear-gradient-5)"/>
            </g>
          </g>
          <path id="Trazado_247097" data-name="Trazado 247097" d="M1133.588,125.568h4.21a10.449,10.449,0,0,1,20.747,0h4.216a14.64,14.64,0,0,0-29.173,0Z" fill="#28acd3" stroke="#12263f" stroke-miterlimit="10" stroke-width="1"/>
        </g>
      </g>
      <path id="Trazado_247098" data-name="Trazado 247098" d="M1188.794,118.842h126.762c.527,0,.953-.587.953-1.312h0c0-.724-.426-1.311-.953-1.311H1188.794Z" transform="translate(-7785.657 -6933.91)"/>
      <path id="Trazado_247099" data-name="Trazado 247099" d="M1315.079,118.842h-94.735c3.675,0,6.825,3.121,8.117,7.541h86.618Z" transform="translate(-7785.657 -6933.91)" fill="#12263f"/>
      <path id="Trazado_247100" data-name="Trazado 247100" d="M1231.129,118.842l.066.046a10.008,10.008,0,0,1,1-.046Z" transform="translate(-7785.657 -6933.91)" fill="#b751bb"/>
      <g id="Grupo_122490" data-name="Grupo 122490" transform="translate(-7785.657 -6933.91)">
        <g id="Rectángulo_43471" data-name="Rectángulo 43471" transform="translate(1188.794 74.744)" fill="#fff" stroke="#12263f" stroke-miterlimit="10" stroke-width="2">
          <rect width="127.447" height="41.475" stroke="none"/>
          <rect x="1" y="1" width="125.447" height="39.475" fill="none"/>
        </g>
      </g>
      <g id="Grupo_122493" data-name="Grupo 122493" transform="translate(-7785.657 -6933.91)">
        <g id="Grupo_122492" data-name="Grupo 122492">
          <circle id="Elipse_6055" data-name="Elipse 6055" cx="10.97" cy="10.97" r="10.97" transform="matrix(0.973, -0.23, 0.23, 0.973, 1254.419, 118.768)"/>
          <circle id="Elipse_6056" data-name="Elipse 6056" cx="7.094" cy="7.094" r="7.094" transform="translate(1257.699 126.924) rotate(-45)" fill="url(#radial-gradient-3)"/>
          <g id="Grupo_122491" data-name="Grupo 122491">
            <path id="Trazado_247101" data-name="Trazado 247101" d="M1262.609,126.924a5.122,5.122,0,1,0,5.123-5.123A5.123,5.123,0,0,0,1262.609,126.924Zm.918-1.792a.2.2,0,0,1,.114.251,4.515,4.515,0,0,0-.206.733.194.194,0,0,1-.191.159.147.147,0,0,1-.036,0,.194.194,0,0,1-.155-.228,4.8,4.8,0,0,1,.223-.8A.194.194,0,0,1,1263.527,125.132Zm2.057-2.015a4.4,4.4,0,0,0-.627.43.191.191,0,0,1-.124.045.2.2,0,0,1-.123-.346,4.605,4.605,0,0,1,.682-.468.195.195,0,1,1,.192.339Zm1.589-.729a.194.194,0,0,1-.16.224,4.409,4.409,0,0,0-.737.191.214.214,0,0,1-.065.01.195.195,0,0,1-.065-.379,4.8,4.8,0,0,1,.8-.206A.2.2,0,0,1,1267.173,122.388Zm1.582.082a.2.2,0,0,1-.192.159l-.035,0a4.352,4.352,0,0,0-.757-.073.2.2,0,0,1,0-.39h0a4.927,4.927,0,0,1,.825.079A.2.2,0,0,1,1268.755,122.47Zm1.458.618a.194.194,0,0,1-.168.1.2.2,0,0,1-.1-.027,4.325,4.325,0,0,0-.686-.327.2.2,0,0,1-.114-.251.192.192,0,0,1,.251-.114,4.663,4.663,0,0,1,.748.356A.2.2,0,0,1,1270.213,123.088Zm1.161,1.078a.2.2,0,0,1-.275-.026,4.266,4.266,0,0,0-.533-.542.195.195,0,1,1,.252-.3,4.759,4.759,0,0,1,.582.589A.2.2,0,0,1,1271.374,124.166Zm.843,1.159a.2.2,0,0,1-.118.249.19.19,0,0,1-.066.011.193.193,0,0,1-.183-.129,4.493,4.493,0,0,0-.317-.691.2.2,0,0,1,.073-.266.2.2,0,0,1,.266.073A4.74,4.74,0,0,1,1272.217,125.325Zm.079,1.808a.208.208,0,0,1-.2-.209,4.32,4.32,0,0,0-.061-.732.195.195,0,1,1,.384-.065,4.672,4.672,0,0,1,.067.8v.028A.184.184,0,0,1,1272.3,127.133Zm-.35,1.558a.193.193,0,0,1-.115-.25,4.553,4.553,0,0,0,.2-.735.2.2,0,0,1,.385.071,4.979,4.979,0,0,1-.22.8.194.194,0,0,1-.183.127A.184.184,0,0,1,1271.946,128.691Zm-.879,1.057a4.292,4.292,0,0,0,.439-.619.195.195,0,1,1,.337.2,4.648,4.648,0,0,1-.478.676.2.2,0,0,1-.3-.253Zm-1.165.969a4.358,4.358,0,0,0,.625-.434.193.193,0,0,1,.274.025.2.2,0,0,1-.025.275,4.862,4.862,0,0,1-.68.473.2.2,0,0,1-.1.025.193.193,0,0,1-.169-.1A.2.2,0,0,1,1269.9,130.717Zm-1.584.739a.2.2,0,0,1,.159-.225,4.147,4.147,0,0,0,.735-.194.2.2,0,1,1,.134.367,4.5,4.5,0,0,1-.8.211.184.184,0,0,1-.033,0A.2.2,0,0,1,1268.318,131.456Zm-1.583-.073a.2.2,0,0,1,.226-.157,4.45,4.45,0,0,0,.758.068.2.2,0,0,1,0,.39h0a4.741,4.741,0,0,1-.825-.074A.2.2,0,0,1,1266.735,131.383Zm-1.463-.608a.2.2,0,0,1,.267-.071,4.4,4.4,0,0,0,.687.323.195.195,0,0,1-.067.378.2.2,0,0,1-.068-.011,4.732,4.732,0,0,1-.748-.353A.2.2,0,0,1,1265.272,130.775ZM1264.1,129.7a.2.2,0,0,1,.276.024,4.478,4.478,0,0,0,.536.539.195.195,0,0,1-.126.344.192.192,0,0,1-.126-.046,4.889,4.889,0,0,1-.584-.586A.2.2,0,0,1,1264.1,129.7Zm-.135-5.006a.192.192,0,0,1-.168.1.19.19,0,0,1-.1-.027.2.2,0,0,1-.069-.267,4.919,4.919,0,0,1,.483-.673.2.2,0,0,1,.3.255A4.413,4.413,0,0,0,1263.97,124.7Zm-.714,3.851a.2.2,0,0,1,.367-.133,4.339,4.339,0,0,0,.32.688.194.194,0,0,1-.071.266.181.181,0,0,1-.1.026.193.193,0,0,1-.169-.1A4.613,4.613,0,0,1,1263.256,128.549Zm-.284-1.625v-.054a.2.2,0,0,1,.39,0v.054a4.441,4.441,0,0,0,.065.757.194.194,0,0,1-.158.226.188.188,0,0,1-.034,0,.2.2,0,0,1-.192-.161A4.732,4.732,0,0,1,1262.972,126.924Z" fill="url(#radial-gradient-4)"/>
          </g>
          <path id="Trazado_247102" data-name="Trazado 247102" d="M1264.645,126.924a3.087,3.087,0,1,0,3.087-3.087A3.087,3.087,0,0,0,1264.645,126.924Z" fill="url(#linear-gradient-6)"/>
        </g>
      </g>
      <path id="Trazado_247104" data-name="Trazado 247104" d="M1306.452,126.186l.944,5.1-.3,1.628-1.427-1.241-2.241-5.489Z" transform="translate(-7785.657 -6933.91)" fill="#12263f"/>
      <g id="Grupo_122536" data-name="Grupo 122536" transform="translate(-7785.657 -6933.91)">
        <g id="Grupo_122535" data-name="Grupo 122535">
          <circle id="Elipse_6073" data-name="Elipse 6073" cx="10.97" cy="10.97" r="10.97" transform="translate(1279.698 118.768) rotate(-13.283)"/>
          <circle id="Elipse_6074" data-name="Elipse 6074" cx="7.094" cy="7.094" r="7.094" transform="translate(1282.978 126.924) rotate(-45)" fill="url(#radial-gradient-5)"/>
          <g id="Grupo_122534" data-name="Grupo 122534">
            <path id="Trazado_247149" data-name="Trazado 247149" d="M1287.888,126.924a5.123,5.123,0,1,0,5.123-5.123A5.124,5.124,0,0,0,1287.888,126.924Zm.918-1.792a.2.2,0,0,1,.114.251,4.515,4.515,0,0,0-.206.733.194.194,0,0,1-.191.159.146.146,0,0,1-.036,0,.194.194,0,0,1-.155-.228,4.7,4.7,0,0,1,.223-.8A.194.194,0,0,1,1288.806,125.132Zm2.057-2.015a4.4,4.4,0,0,0-.627.43.191.191,0,0,1-.124.045.2.2,0,0,1-.15-.071.194.194,0,0,1,.027-.275,4.605,4.605,0,0,1,.682-.468.195.195,0,1,1,.192.339Zm1.589-.729a.194.194,0,0,1-.16.224,4.405,4.405,0,0,0-.737.191.215.215,0,0,1-.065.01.2.2,0,0,1-.185-.13.2.2,0,0,1,.12-.249,4.815,4.815,0,0,1,.8-.206A.2.2,0,0,1,1292.452,122.388Zm1.582.082a.2.2,0,0,1-.192.159l-.035,0a4.354,4.354,0,0,0-.757-.073.2.2,0,0,1,0-.39h0a4.927,4.927,0,0,1,.825.079A.2.2,0,0,1,1294.034,122.47Zm1.458.618a.194.194,0,0,1-.168.1.2.2,0,0,1-.1-.027,4.315,4.315,0,0,0-.686-.327.2.2,0,0,1-.114-.251.192.192,0,0,1,.251-.114,4.661,4.661,0,0,1,.748.356A.2.2,0,0,1,1295.492,123.088Zm1.161,1.078a.2.2,0,0,1-.275-.026,4.267,4.267,0,0,0-.533-.542.195.195,0,1,1,.252-.3,4.758,4.758,0,0,1,.582.589A.2.2,0,0,1,1296.653,124.166Zm.843,1.159a.2.2,0,0,1-.118.249.191.191,0,0,1-.066.011.2.2,0,0,1-.184-.129,4.409,4.409,0,0,0-.316-.691.2.2,0,0,1,.073-.266.2.2,0,0,1,.266.073A4.751,4.751,0,0,1,1297.5,125.325Zm.079,1.808a.208.208,0,0,1-.195-.209,4.32,4.32,0,0,0-.061-.732.195.195,0,1,1,.384-.065,4.786,4.786,0,0,1,.067.8v.028A.184.184,0,0,1,1297.575,127.133Zm-.35,1.558a.194.194,0,0,1-.115-.25,4.541,4.541,0,0,0,.2-.735.2.2,0,0,1,.228-.157.2.2,0,0,1,.157.228,4.979,4.979,0,0,1-.22.8.193.193,0,0,1-.183.127A.181.181,0,0,1,1297.225,128.691Zm-.879,1.057a4.293,4.293,0,0,0,.439-.619.195.195,0,1,1,.337.2,4.657,4.657,0,0,1-.478.676.2.2,0,0,1-.3-.253Zm-1.165.969a4.365,4.365,0,0,0,.625-.434.193.193,0,0,1,.274.025.2.2,0,0,1-.025.275,4.862,4.862,0,0,1-.68.473.2.2,0,0,1-.1.025.193.193,0,0,1-.169-.1A.2.2,0,0,1,1295.181,130.717Zm-1.584.739a.2.2,0,0,1,.159-.225,4.144,4.144,0,0,0,.735-.194.2.2,0,1,1,.134.367,4.5,4.5,0,0,1-.8.211.184.184,0,0,1-.033,0A.2.2,0,0,1,1293.6,131.456Zm-1.583-.073a.194.194,0,0,1,.226-.157,4.452,4.452,0,0,0,.758.068.2.2,0,0,1,0,.39h0a4.74,4.74,0,0,1-.825-.074A.2.2,0,0,1,1292.014,131.383Zm-1.463-.608a.2.2,0,0,1,.267-.071,4.385,4.385,0,0,0,.687.323.195.195,0,0,1-.067.378.2.2,0,0,1-.068-.011,4.688,4.688,0,0,1-.748-.353A.2.2,0,0,1,1290.551,130.775Zm-1.167-1.071a.2.2,0,0,1,.276.024,4.46,4.46,0,0,0,.536.539.195.195,0,0,1-.126.344.192.192,0,0,1-.126-.046,4.9,4.9,0,0,1-.584-.586A.2.2,0,0,1,1289.384,129.7Zm-.135-5.006a.192.192,0,0,1-.168.1.189.189,0,0,1-.1-.027.2.2,0,0,1-.069-.267,4.92,4.92,0,0,1,.483-.673.2.2,0,0,1,.3.255A4.4,4.4,0,0,0,1289.249,124.7Zm-.714,3.851a.2.2,0,1,1,.367-.133,4.339,4.339,0,0,0,.32.688.194.194,0,0,1-.071.266.184.184,0,0,1-.1.026.192.192,0,0,1-.169-.1A4.6,4.6,0,0,1,1288.535,128.549Zm-.284-1.625v-.054a.2.2,0,0,1,.39,0v.054a4.428,4.428,0,0,0,.065.757.2.2,0,0,1-.384.068A4.732,4.732,0,0,1,1288.251,126.924Z" fill="url(#radial-gradient-6)"/>
          </g>
          <path id="Trazado_247150" data-name="Trazado 247150" d="M1289.924,126.924a3.087,3.087,0,1,0,3.087-3.087A3.087,3.087,0,0,0,1289.924,126.924Z" fill="url(#linear-gradient-7)"/>
        </g>
      </g>
    </g>
  </g>
</svg>
