<svg xmlns="http://www.w3.org/2000/svg" xmlns:xlink="http://www.w3.org/1999/xlink" width="295" height="93" viewBox="0 0 295 93">
  <defs>
    <linearGradient id="linear-gradient" x1="-191.345" y1="0.5" x2="-190.345" y2="0.5" gradientUnits="objectBoundingBox">
      <stop offset="0"/>
      <stop offset="0.998" stop-color="#666"/>
    </linearGradient>
    <radialGradient id="radial-gradient" cx="0.5" cy="0.5" r="0.5" gradientTransform="matrix(-0.707, -0.707, -0.707, 0.707, -213.027, -88.239)" gradientUnits="objectBoundingBox">
      <stop offset="0.484" stop-color="#4d4d4d"/>
      <stop offset="0.66" stop-color="#8f8f8f"/>
      <stop offset="0.818" stop-color="#c4c4c4"/>
      <stop offset="0.935" stop-color="#e5e5e5"/>
      <stop offset="1" stop-color="#f2f2f2"/>
    </radialGradient>
    <radialGradient id="radial-gradient-2" cx="0.5" cy="0.5" r="0.5" gradientTransform="matrix(-1, 0, 0, 1, -346.605, 0)" gradientUnits="objectBoundingBox">
      <stop offset="0" stop-color="gray"/>
      <stop offset="1" stop-color="#f2f2f2"/>
    </radialGradient>
    <linearGradient id="linear-gradient-2" x1="-288.406" y1="0.5" x2="-287.406" y2="0.5" gradientTransform="matrix(1, 0, 0, 1, 0, 0)" xlink:href="#radial-gradient-2"/>
    <radialGradient id="radial-gradient-3" cx="0.5" cy="0.5" r="0.5" gradientTransform="matrix(-0.982, -0.189, -0.189, 0.982, -270.389, -25.827)" xlink:href="#radial-gradient"/>
    <radialGradient id="radial-gradient-4" cx="0.5" cy="0.5" r="0.5" gradientTransform="matrix(-1, 0, 0, 1, -378.407, 0)" xlink:href="#radial-gradient-2"/>
    <linearGradient id="linear-gradient-3" x1="-314.792" y1="0.5" x2="-313.792" y2="0.5" gradientTransform="matrix(1, 0, 0, 1, 0, 0)" xlink:href="#radial-gradient-2"/>
    <radialGradient id="radial-gradient-5" cx="0.5" cy="0.5" r="0.5" gradientTransform="matrix(-0.982, -0.189, -0.189, 0.982, -303.993, -29.037)" xlink:href="#radial-gradient"/>
    <radialGradient id="radial-gradient-6" cx="0.5" cy="0.5" r="0.5" gradientTransform="matrix(-1, 0, 0, 1, -425.364, 0)" xlink:href="#radial-gradient-2"/>
    <linearGradient id="linear-gradient-4" x1="-353.766" y1="0.5" x2="-352.766" y2="0.5" gradientTransform="matrix(1, 0, 0, 1, 0, 0)" xlink:href="#radial-gradient-2"/>
  </defs>
  <g id="Grupo_123181" data-name="Grupo 123181" transform="translate(-810 -5674)">
    <rect id="Rectángulo_42542" data-name="Rectángulo 42542" width="295" height="93" transform="translate(810 5674)" fill="#28acd3" opacity="0.25"/>
    <g id="Grupo_122570" data-name="Grupo 122570" transform="translate(-1065.842 5703.935)">
      <path id="Trazado_247169" data-name="Trazado 247169" d="M1977.538,29.658h20.59a2.9,2.9,0,0,0,.155-1.311h0a2.9,2.9,0,0,0-.155-1.311h-20.59Z"/>
      <path id="Trazado_247170" data-name="Trazado 247170" d="M2098.092,29.659h34.493c.143,0,.259-.823.259-1.839h0c0-1.017-.116-1.84-.259-1.84h-34.493Z"/>
      <path id="Trazado_247171" data-name="Trazado 247171" d="M1982.418,28.072h10.9a5.348,5.348,0,0,0,.082-1.312h0a5.336,5.336,0,0,0-.082-1.311h-10.9Z" fill="#12263f"/>
      <g id="Grupo_122562" data-name="Grupo 122562">
        <path id="Trazado_247172" data-name="Trazado 247172" d="M1938.279-3.977H1951.7v2.32h-15.737A2.319,2.319,0,0,1,1938.279-3.977Z" fill="#1ba2c1" stroke="#12263f" stroke-miterlimit="10" stroke-width="1"/>
        <g id="Grupo_122554" data-name="Grupo 122554">
          <path id="Trazado_247173" data-name="Trazado 247173" d="M1940.775-8.082h1.638a1.6,1.6,0,0,1,1.6,1.461l.239,2.644h-4.686v-2.9A1.21,1.21,0,0,1,1940.775-8.082Z" fill="#1ba2c1" stroke="#12263f" stroke-miterlimit="10" stroke-width="1"/>
          <rect id="Rectángulo_43524" data-name="Rectángulo 43524" width="0.871" height="2.643" transform="translate(1939.565 -4.718) rotate(-180)" fill="#28acd3" stroke="#12263f" stroke-miterlimit="10" stroke-width="1"/>
        </g>
        <g id="Grupo_122555" data-name="Grupo 122555">
          <path id="Trazado_247174" data-name="Trazado 247174" d="M2012.164,34.326h-85.128V28.893h85.128c2.06,0,3.73,1.216,3.73,2.716h0C2015.894,33.109,2014.224,34.326,2012.164,34.326Z" fill="#fff" stroke="#12263f" stroke-miterlimit="10" stroke-width="1"/>
          <g id="Rectángulo_43525" data-name="Rectángulo 43525" transform="translate(1968.437 30.495) rotate(-180)" fill="#12263f" stroke="#12263f" stroke-miterlimit="10" stroke-width="1">
            <rect width="33.422" height="1.673" stroke="none"/>
            <rect x="-0.5" y="-0.5" width="34.422" height="2.673" fill="none"/>
          </g>
        </g>
        <rect id="Rectángulo_43526" data-name="Rectángulo 43526" width="3.561" height="11.735" transform="translate(1907.004 40.696) rotate(-180)" fill="#fff" stroke="#12263f" stroke-miterlimit="10" stroke-width="1"/>
        <path id="Trazado_247175" data-name="Trazado 247175" d="M1907,12.619V28.671h26v.151h27.052V-1.808h-23.511a3.051,3.051,0,0,0-.352.022,3.879,3.879,0,0,0-3.255,3.2l-1.593,8.467A3.421,3.421,0,0,1,1928,12.619Z" fill="#28acd3" stroke="#12263f" stroke-miterlimit="10" stroke-width="1"/>
        <g id="Grupo_122556" data-name="Grupo 122556">
          <path id="Trazado_247176" data-name="Trazado 247176" d="M1905.382,17.976v6.38a.4.4,0,0,0,.4.4h10.807a.4.4,0,0,0,.2-.747l-10.807-6.381A.4.4,0,0,0,1905.382,17.976Z" fill="#fff"/>
          <rect id="Rectángulo_43527" data-name="Rectángulo 43527" width="0.42" height="5.757" transform="translate(1905.382 18.12)" fill="#fff"/>
          <path id="Trazado_247177" data-name="Trazado 247177" d="M1906.831,21.776a1.348,1.348,0,1,0,1.348-1.349A1.347,1.347,0,0,0,1906.831,21.776Z" fill="#fece16"/>
        </g>
        <path id="Rectángulo_43528" data-name="Rectángulo 43528" d="M0,0H2A0,0,0,0,1,2,0V0A2,2,0,0,1,0,2H0A0,0,0,0,1,0,2V0A0,0,0,0,1,0,0Z" transform="translate(1907.004 28.965) rotate(180)" fill="#fff"/>
        <path id="Trazado_247178" data-name="Trazado 247178" d="M1947.557,21.709V2.984a1.825,1.825,0,0,0-1.826-1.826h-7.177a1.825,1.825,0,0,0-1.718,1.208l-3.106,8.645a1.827,1.827,0,0,0-.108.617V21.709a1.826,1.826,0,0,0,1.826,1.826h10.283A1.825,1.825,0,0,0,1947.557,21.709Z" fill="#28acd3" stroke="#12263f" stroke-miterlimit="10" stroke-width="1"/>
        <rect id="Rectángulo_43529" data-name="Rectángulo 43529" width="0.41" height="15.152" transform="translate(1949.032 22.06) rotate(-180)" fill="#fff"/>
        <path id="Trazado_247179" data-name="Trazado 247179" d="M1937.638,10.3h7.2a1.2,1.2,0,0,0,.662-.2,1.166,1.166,0,0,0,.511-.964V4.278a1.172,1.172,0,0,0-1.173-1.174h-5.515a1.138,1.138,0,0,0-.558.144,1.155,1.155,0,0,0-.544.643l-1.692,4.859A1.17,1.17,0,0,0,1937.638,10.3Z" fill="url(#linear-gradient)"/>
        <rect id="Rectángulo_43530" data-name="Rectángulo 43530" width="1.018" height="8.823" rx="0.509" transform="translate(1935.953 2.499)" fill="#fff"/>
        <rect id="Rectángulo_43531" data-name="Rectángulo 43531" width="0.601" height="9.468" transform="translate(1903.443 39.195) rotate(-180)" fill="#fece16"/>
        <g id="Rectángulo_43532" data-name="Rectángulo 43532" transform="translate(1963.721 27.574) rotate(-180)" fill="#12263f" stroke="#010102" stroke-miterlimit="10" stroke-width="1">
          <path d="M0,0H9.819a0,0,0,0,1,0,0V9.187A2.409,2.409,0,0,1,7.41,11.6h-5A2.409,2.409,0,0,1,0,9.187V0A0,0,0,0,1,0,0Z" stroke="none"/>
          <path d="M0-.5H9.819a.5.5,0,0,1,.5.5V9.187A2.909,2.909,0,0,1,7.41,12.1h-5A2.909,2.909,0,0,1-.5,9.187V0A.5.5,0,0,1,0-.5Z" fill="none"/>
        </g>
        <g id="Rectángulo_43533" data-name="Rectángulo 43533" transform="translate(1962.126 17.31) rotate(-180)" fill="#12263f" stroke="#010102" stroke-miterlimit="10" stroke-width="1">
          <path d="M0,0H6.629a0,0,0,0,1,0,0V9.617A1.979,1.979,0,0,1,4.65,11.6H1.98A1.98,1.98,0,0,1,0,9.617V0A0,0,0,0,1,0,0Z" stroke="none"/>
          <path d="M0-.5H6.629a.5.5,0,0,1,.5.5V9.617A2.479,2.479,0,0,1,4.65,12.1H1.98A2.48,2.48,0,0,1-.5,9.617V0A.5.5,0,0,1,0-.5Z" fill="none"/>
        </g>
        <g id="Rectángulo_43534" data-name="Rectángulo 43534" transform="translate(1960.553 5.82) rotate(-180)" fill="#12263f" stroke="#010102" stroke-miterlimit="10" stroke-width="1">
          <path d="M0,0H3.484a0,0,0,0,1,0,0V24.592a1.163,1.163,0,0,1-1.163,1.163H1.163A1.163,1.163,0,0,1,0,24.592V0A0,0,0,0,1,0,0Z" stroke="none"/>
          <path d="M0-.5H3.484a.5.5,0,0,1,.5.5V24.592a1.663,1.663,0,0,1-1.663,1.663H1.163A1.663,1.663,0,0,1-.5,24.592V0A.5.5,0,0,1,0-.5Z" fill="none"/>
        </g>
        <g id="Grupo_122557" data-name="Grupo 122557">
          <g id="Rectángulo_43535" data-name="Rectángulo 43535" transform="translate(1982.188 35.261) rotate(-180)" fill="#12263f" stroke="#010102" stroke-miterlimit="10" stroke-width="1">
            <path d="M1.878,0H20.916a1.878,1.878,0,0,1,1.878,1.878V6.286a0,0,0,0,1,0,0H0a0,0,0,0,1,0,0V1.878A1.878,1.878,0,0,1,1.878,0Z" stroke="none"/>
            <path d="M1.878-.5H20.916a2.378,2.378,0,0,1,2.378,2.378V6.286a.5.5,0,0,1-.5.5H0a.5.5,0,0,1-.5-.5V1.878A2.378,2.378,0,0,1,1.878-.5Z" fill="none"/>
          </g>
          <g id="Rectángulo_43536" data-name="Rectángulo 43536" transform="translate(1978.73 35.261) rotate(-180)" fill="#12263f" stroke="#010102" stroke-miterlimit="10" stroke-width="1">
            <rect width="0.513" height="6.286" stroke="none"/>
            <rect x="-0.5" y="-0.5" width="1.513" height="7.286" fill="none"/>
          </g>
          <g id="Rectángulo_43537" data-name="Rectángulo 43537" transform="translate(1971.303 35.261) rotate(-180)" fill="#12263f" stroke="#010102" stroke-miterlimit="10" stroke-width="1">
            <rect width="0.513" height="6.286" stroke="none"/>
            <rect x="-0.5" y="-0.5" width="1.513" height="7.286" fill="none"/>
          </g>
          <g id="Rectángulo_43538" data-name="Rectángulo 43538" transform="translate(1963.877 35.261) rotate(-180)" fill="#12263f" stroke="#010102" stroke-miterlimit="10" stroke-width="1">
            <rect width="0.513" height="6.286" stroke="none"/>
            <rect x="-0.5" y="-0.5" width="1.513" height="7.286" fill="none"/>
          </g>
        </g>
        <path id="Rectángulo_43539" data-name="Rectángulo 43539" d="M0,0H1.749a0,0,0,0,1,0,0V14.234A1.749,1.749,0,0,1,0,15.983H0a0,0,0,0,1,0,0V0A0,0,0,0,1,0,0Z" transform="translate(1907.005 28.645) rotate(-180)" fill="#fff" stroke="#12263f" stroke-miterlimit="10" stroke-width="1"/>
        <g id="Grupo_122561" data-name="Grupo 122561">
          <g id="Grupo_122560" data-name="Grupo 122560">
            <g id="Grupo_122559" data-name="Grupo 122559">
              <circle id="Elipse_6081" data-name="Elipse 6081" cx="10.97" cy="10.97" r="10.97" transform="matrix(0.973, -0.23, 0.23, 0.973, 1904.653, 29.839)"/>
              <circle id="Elipse_6082" data-name="Elipse 6082" cx="7.094" cy="7.094" r="7.094" transform="translate(1907.933 37.994) rotate(-45)" fill="url(#radial-gradient)"/>
              <g id="Grupo_122558" data-name="Grupo 122558">
                <path id="Trazado_247180" data-name="Trazado 247180" d="M1912.843,37.994a5.122,5.122,0,1,0,5.123-5.122A5.123,5.123,0,0,0,1912.843,37.994Zm.918-1.792a.2.2,0,0,1,.114.251,4.568,4.568,0,0,0-.206.734.194.194,0,0,1-.191.158.217.217,0,0,1-.036,0,.194.194,0,0,1-.155-.228,4.808,4.808,0,0,1,.223-.8A.194.194,0,0,1,1913.761,36.2Zm2.057-2.014a4.322,4.322,0,0,0-.627.43.2.2,0,0,1-.124.044.195.195,0,0,1-.123-.345,4.611,4.611,0,0,1,.682-.469.2.2,0,0,1,.192.34Zm1.589-.729a.194.194,0,0,1-.16.224,4.311,4.311,0,0,0-.737.19.211.211,0,0,1-.065.011.195.195,0,0,1-.065-.379,4.709,4.709,0,0,1,.8-.206A.2.2,0,0,1,1917.407,33.459Zm1.582.081a.2.2,0,0,1-.192.159l-.035,0a4.442,4.442,0,0,0-.757-.074.195.195,0,0,1,0-.389h0a4.823,4.823,0,0,1,.825.078A.2.2,0,0,1,1918.989,33.54Zm1.458.618a.192.192,0,0,1-.168.095.2.2,0,0,1-.1-.026,4.244,4.244,0,0,0-.686-.328.195.195,0,1,1,.137-.365,4.672,4.672,0,0,1,.748.357A.194.194,0,0,1,1920.447,34.158Zm1.161,1.078a.2.2,0,0,1-.275-.026,4.258,4.258,0,0,0-.533-.541.2.2,0,1,1,.252-.3,4.776,4.776,0,0,1,.582.59A.2.2,0,0,1,1921.608,35.236Zm.843,1.159a.2.2,0,0,1-.118.25.218.218,0,0,1-.066.011.193.193,0,0,1-.183-.129,4.461,4.461,0,0,0-.317-.692.195.195,0,1,1,.339-.192A4.74,4.74,0,0,1,1922.451,36.4Zm.079,1.808a.208.208,0,0,1-.2-.209,4.33,4.33,0,0,0-.061-.731.194.194,0,0,1,.159-.225.192.192,0,0,1,.225.159,4.681,4.681,0,0,1,.067.8v.028A.184.184,0,0,1,1922.53,38.2Zm-.349,1.558a.193.193,0,0,1-.116-.25,4.514,4.514,0,0,0,.2-.735.2.2,0,1,1,.385.071,4.95,4.95,0,0,1-.22.8.194.194,0,0,1-.183.127A.176.176,0,0,1,1922.181,39.761Zm-.88,1.057a4.238,4.238,0,0,0,.439-.619.2.2,0,0,1,.338.2,4.731,4.731,0,0,1-.479.676.2.2,0,1,1-.3-.253Zm-1.165.969a4.286,4.286,0,0,0,.625-.434.195.195,0,0,1,.249.3,4.869,4.869,0,0,1-.68.474.2.2,0,0,1-.1.025.2.2,0,0,1-.169-.1A.2.2,0,0,1,1920.136,41.787Zm-1.584.74a.2.2,0,0,1,.159-.226,4.23,4.23,0,0,0,.735-.193.194.194,0,0,1,.251.116.2.2,0,0,1-.117.251,4.678,4.678,0,0,1-.8.211.183.183,0,0,1-.033,0A.194.194,0,0,1,1918.552,42.527Zm-1.583-.073a.2.2,0,0,1,.227-.158,4.43,4.43,0,0,0,.757.069.195.195,0,0,1,0,.389h0a4.838,4.838,0,0,1-.825-.073A.2.2,0,0,1,1916.969,42.454Zm-1.463-.609a.2.2,0,0,1,.267-.071,4.185,4.185,0,0,0,.688.323.2.2,0,0,1-.068.379.2.2,0,0,1-.068-.012,4.811,4.811,0,0,1-.748-.352A.2.2,0,0,1,1915.506,41.845Zm-1.167-1.071a.2.2,0,0,1,.276.025,4.478,4.478,0,0,0,.536.539.2.2,0,0,1,.023.275.2.2,0,0,1-.149.069.192.192,0,0,1-.126-.046,5.05,5.05,0,0,1-.584-.586A.2.2,0,0,1,1914.339,40.774Zm-.135-5.006a.193.193,0,0,1-.168.1.2.2,0,0,1-.1-.027.2.2,0,0,1-.069-.268,4.931,4.931,0,0,1,.483-.672.194.194,0,0,1,.276-.021.2.2,0,0,1,.021.275A4.412,4.412,0,0,0,1914.2,35.768Zm-.714,3.851a.2.2,0,0,1,.367-.133,4.338,4.338,0,0,0,.32.688.2.2,0,0,1-.07.267.2.2,0,0,1-.1.026.2.2,0,0,1-.169-.1A4.663,4.663,0,0,1,1913.49,39.619Zm-.284-1.625v-.053a.195.195,0,1,1,.39,0v.053a4.356,4.356,0,0,0,.066.758.2.2,0,0,1-.159.226.19.19,0,0,1-.034,0,.2.2,0,0,1-.192-.161A4.731,4.731,0,0,1,1913.206,37.994Z" fill="url(#radial-gradient-2)"/>
              </g>
              <path id="Trazado_247181" data-name="Trazado 247181" d="M1914.879,37.995a3.087,3.087,0,1,0,3.087-3.087A3.087,3.087,0,0,0,1914.879,37.995Z" fill="url(#linear-gradient-2)"/>
            </g>
          </g>
          <path id="Trazado_247182" data-name="Trazado 247182" d="M1903.225,36.638h4.21a10.449,10.449,0,0,1,20.747,0h4.217a14.641,14.641,0,0,0-29.174,0Z" fill="#28acd3" stroke="#12263f" stroke-miterlimit="10" stroke-width="1"/>
        </g>
      </g>
      <path id="Trazado_247183" data-name="Trazado 247183" d="M2133.242,29.912h-35.187c1.365,0,2.535,3.121,3.015,7.54h32.172Z" fill="#12263f"/>
      <path id="Trazado_247184" data-name="Trazado 247184" d="M2000.766,29.912l.066.046a10.018,10.018,0,0,1,1-.046Z" fill="#b751bb"/>
      <g id="Grupo_122563" data-name="Grupo 122563">
        <g id="Rectángulo_43540" data-name="Rectángulo 43540" transform="translate(1972.485 -15.238)" fill="#fff" stroke="#12263f" stroke-miterlimit="10" stroke-width="2">
          <rect width="171.792" height="41.475" stroke="none"/>
          <rect x="1" y="1" width="169.792" height="39.475" fill="none"/>
        </g>
      </g>
      <g id="Grupo_122566" data-name="Grupo 122566">
        <g id="Grupo_122565" data-name="Grupo 122565">
          <circle id="Elipse_6083" data-name="Elipse 6083" cx="10.97" cy="10.97" r="10.97" transform="matrix(0.784, -0.62, 0.62, 0.784, 1983.894, 36.198)"/>
          <circle id="Elipse_6084" data-name="Elipse 6084" cx="7.094" cy="7.094" r="7.094" transform="matrix(0.982, -0.189, 0.189, 0.982, 1991.11, 32.371)" fill="url(#radial-gradient-3)"/>
          <g id="Grupo_122564" data-name="Grupo 122564">
            <path id="Trazado_247185" data-name="Trazado 247185" d="M1994.3,37.994a5.122,5.122,0,1,0,5.122-5.122A5.122,5.122,0,0,0,1994.3,37.994Zm.918-1.792a.2.2,0,0,1,.114.251,4.457,4.457,0,0,0-.206.734.2.2,0,0,1-.192.158.217.217,0,0,1-.036,0,.2.2,0,0,1-.155-.228,4.81,4.81,0,0,1,.224-.8A.193.193,0,0,1,1995.215,36.2Zm2.057-2.014a4.269,4.269,0,0,0-.627.43.2.2,0,0,1-.124.044.195.195,0,0,1-.124-.345,4.663,4.663,0,0,1,.682-.469.2.2,0,0,1,.193.34Zm1.588-.729a.193.193,0,0,1-.16.224,4.334,4.334,0,0,0-.737.19.206.206,0,0,1-.065.011.195.195,0,0,1-.064-.379,4.675,4.675,0,0,1,.8-.206A.2.2,0,0,1,1998.86,33.459Zm1.583.081a.2.2,0,0,1-.192.159l-.036,0a4.431,4.431,0,0,0-.756-.074.195.195,0,0,1,0-.389h0a4.8,4.8,0,0,1,.824.078A.2.2,0,0,1,2000.443,33.54Zm1.458.618a.193.193,0,0,1-.168.095.2.2,0,0,1-.1-.026,4.234,4.234,0,0,0-.685-.328.195.195,0,1,1,.136-.365,4.589,4.589,0,0,1,.748.357A.2.2,0,0,1,2001.9,34.158Zm1.161,1.078a.2.2,0,0,1-.125.044.194.194,0,0,1-.15-.07,4.332,4.332,0,0,0-.534-.541.2.2,0,0,1,.253-.3,4.846,4.846,0,0,1,.582.59A.2.2,0,0,1,2003.062,35.236Zm.842,1.159a.2.2,0,0,1-.118.25.212.212,0,0,1-.065.011.194.194,0,0,1-.184-.129,4.372,4.372,0,0,0-.317-.692.2.2,0,0,1,.074-.266.2.2,0,0,1,.266.074A4.65,4.65,0,0,1,2003.9,36.4Zm.08,1.808a.207.207,0,0,1-.2-.209,4.433,4.433,0,0,0-.061-.731.195.195,0,0,1,.384-.066,4.8,4.8,0,0,1,.067.8v.028A.184.184,0,0,1,2003.984,38.2Zm-.35,1.558a.194.194,0,0,1-.115-.25,4.526,4.526,0,0,0,.2-.735.194.194,0,0,1,.227-.157.2.2,0,0,1,.157.228,4.852,4.852,0,0,1-.22.8.192.192,0,0,1-.182.127A.18.18,0,0,1,2003.634,39.761Zm-.88,1.057a4.1,4.1,0,0,0,.439-.619.2.2,0,0,1,.338.2,4.731,4.731,0,0,1-.479.676.2.2,0,0,1-.149.069.192.192,0,0,1-.126-.046A.2.2,0,0,1,2002.754,40.818Zm-1.164.969a4.27,4.27,0,0,0,.624-.434.2.2,0,0,1,.25.3,4.875,4.875,0,0,1-.68.474.2.2,0,1,1-.194-.34Zm-1.584.74a.2.2,0,0,1,.159-.226,4.256,4.256,0,0,0,.735-.193.193.193,0,0,1,.25.116.2.2,0,0,1-.117.251,4.641,4.641,0,0,1-.8.211.188.188,0,0,1-.033,0A.193.193,0,0,1,2000.006,42.527Zm-1.584-.073a.2.2,0,0,1,.227-.158,4.451,4.451,0,0,0,.758.069.195.195,0,0,1,0,.389h0a4.84,4.84,0,0,1-.825-.073A.2.2,0,0,1,1998.422,42.454Zm-1.462-.609a.2.2,0,0,1,.267-.071,4.216,4.216,0,0,0,.687.323.2.2,0,1,1-.135.367,4.771,4.771,0,0,1-.748-.352A.2.2,0,0,1,1996.96,41.845Zm-1.167-1.071a.2.2,0,0,1,.275.025,4.416,4.416,0,0,0,.537.539.2.2,0,0,1-.253.3,5.031,5.031,0,0,1-.583-.586A.2.2,0,0,1,1995.793,40.774Zm-.135-5.006a.193.193,0,0,1-.168.1.2.2,0,0,1-.1-.027.2.2,0,0,1-.068-.268,4.839,4.839,0,0,1,.483-.672.192.192,0,0,1,.275-.021.2.2,0,0,1,.021.275A4.486,4.486,0,0,0,1995.658,35.768Zm-.714,3.851a.2.2,0,0,1,.116-.25.2.2,0,0,1,.251.117,4.254,4.254,0,0,0,.32.688.195.195,0,0,1-.169.293.2.2,0,0,1-.169-.1A4.659,4.659,0,0,1,1994.944,39.619Zm-.284-1.625v-.053a.194.194,0,1,1,.389,0v.053a4.453,4.453,0,0,0,.066.758.2.2,0,0,1-.158.226.2.2,0,0,1-.034,0,.193.193,0,0,1-.192-.161A4.731,4.731,0,0,1,1994.66,37.994Z" fill="url(#radial-gradient-4)"/>
          </g>
          <path id="Trazado_247186" data-name="Trazado 247186" d="M1996.332,37.995a3.087,3.087,0,1,0,3.087-3.087A3.087,3.087,0,0,0,1996.332,37.995Z" fill="url(#linear-gradient-3)"/>
        </g>
      </g>
      <g id="Grupo_122569" data-name="Grupo 122569">
        <g id="Grupo_122568" data-name="Grupo 122568">
          <circle id="Elipse_6085" data-name="Elipse 6085" cx="10.97" cy="10.97" r="10.97" transform="matrix(0.784, -0.62, 0.62, 0.784, 2104.182, 36.198)"/>
          <circle id="Elipse_6086" data-name="Elipse 6086" cx="7.094" cy="7.094" r="7.094" transform="translate(2111.398 32.371) rotate(-10.912)" fill="url(#radial-gradient-5)"/>
          <g id="Grupo_122567" data-name="Grupo 122567">
            <path id="Trazado_247187" data-name="Trazado 247187" d="M2114.585,37.994a5.123,5.123,0,1,0,5.122-5.122A5.122,5.122,0,0,0,2114.585,37.994Zm.918-1.792a.2.2,0,0,1,.114.251,4.482,4.482,0,0,0-.206.734.2.2,0,0,1-.192.158.217.217,0,0,1-.036,0,.194.194,0,0,1-.155-.228,4.819,4.819,0,0,1,.223-.8A.2.2,0,0,1,2115.5,36.2Zm2.057-2.014a4.263,4.263,0,0,0-.627.43.2.2,0,0,1-.124.044.194.194,0,0,1-.124-.345,4.655,4.655,0,0,1,.682-.469.2.2,0,0,1,.193.34Zm1.588-.729a.193.193,0,0,1-.16.224,4.336,4.336,0,0,0-.737.19.206.206,0,0,1-.065.011.2.2,0,0,1-.065-.379,4.7,4.7,0,0,1,.8-.206A.2.2,0,0,1,2119.148,33.459Zm1.583.081a.2.2,0,0,1-.192.159l-.036,0a4.43,4.43,0,0,0-.756-.074.195.195,0,1,1,0-.389h0a4.8,4.8,0,0,1,.824.078A.2.2,0,0,1,2120.731,33.54Zm1.458.618a.2.2,0,0,1-.168.095.2.2,0,0,1-.1-.026,4.222,4.222,0,0,0-.685-.328.195.195,0,1,1,.136-.365,4.594,4.594,0,0,1,.748.357A.2.2,0,0,1,2122.189,34.158Zm1.161,1.078a.2.2,0,0,1-.125.044.2.2,0,0,1-.151-.07,4.258,4.258,0,0,0-.533-.541.2.2,0,0,1,.253-.3,4.846,4.846,0,0,1,.582.59A.2.2,0,0,1,2123.35,35.236Zm.842,1.159a.2.2,0,0,1-.118.25.211.211,0,0,1-.065.011.194.194,0,0,1-.184-.129,4.371,4.371,0,0,0-.317-.692.2.2,0,0,1,.074-.266.2.2,0,0,1,.266.074A4.714,4.714,0,0,1,2124.192,36.4Zm.08,1.808a.207.207,0,0,1-.2-.209,4.446,4.446,0,0,0-.061-.731.195.195,0,1,1,.384-.066,4.769,4.769,0,0,1,.067.8v.028A.184.184,0,0,1,2124.272,38.2Zm-.35,1.558a.194.194,0,0,1-.115-.25,4.514,4.514,0,0,0,.2-.735.194.194,0,0,1,.227-.157.2.2,0,0,1,.157.228,4.852,4.852,0,0,1-.22.8.192.192,0,0,1-.182.127A.18.18,0,0,1,2123.922,39.761Zm-.88,1.057a4.1,4.1,0,0,0,.439-.619.2.2,0,0,1,.338.2,4.76,4.76,0,0,1-.479.676.2.2,0,0,1-.149.069.193.193,0,0,1-.126-.046A.2.2,0,0,1,2123.042,40.818Zm-1.164.969a4.277,4.277,0,0,0,.624-.434.2.2,0,0,1,.25.3,4.861,4.861,0,0,1-.68.474.2.2,0,1,1-.194-.34Zm-1.584.74a.2.2,0,0,1,.159-.226,4.255,4.255,0,0,0,.735-.193.193.193,0,0,1,.25.116.2.2,0,0,1-.117.251,4.644,4.644,0,0,1-.8.211.188.188,0,0,1-.033,0A.193.193,0,0,1,2120.294,42.527Zm-1.584-.073a.2.2,0,0,1,.227-.158,4.452,4.452,0,0,0,.758.069.195.195,0,0,1,0,.389h0a4.84,4.84,0,0,1-.825-.073A.2.2,0,0,1,2118.71,42.454Zm-1.462-.609a.2.2,0,0,1,.267-.071,4.222,4.222,0,0,0,.687.323.2.2,0,0,1-.068.379.2.2,0,0,1-.067-.012,4.768,4.768,0,0,1-.748-.352A.2.2,0,0,1,2117.248,41.845Zm-1.167-1.071a.2.2,0,0,1,.275.025,4.417,4.417,0,0,0,.537.539.2.2,0,0,1-.126.344.2.2,0,0,1-.127-.046,5.05,5.05,0,0,1-.583-.586A.2.2,0,0,1,2116.081,40.774Zm-.135-5.006a.2.2,0,0,1-.168.1.2.2,0,0,1-.1-.027.2.2,0,0,1-.068-.268,4.838,4.838,0,0,1,.483-.672.192.192,0,0,1,.275-.021.2.2,0,0,1,.021.275A4.485,4.485,0,0,0,2115.946,35.768Zm-.714,3.851a.2.2,0,0,1,.116-.25.2.2,0,0,1,.251.117,4.253,4.253,0,0,0,.32.688.2.2,0,0,1-.338.2A4.659,4.659,0,0,1,2115.232,39.619Zm-.284-1.625v-.053a.194.194,0,1,1,.389,0v.053a4.453,4.453,0,0,0,.066.758.2.2,0,0,1-.158.226.2.2,0,0,1-.034,0,.193.193,0,0,1-.192-.161A4.72,4.72,0,0,1,2114.948,37.994Z" fill="url(#radial-gradient-6)"/>
          </g>
          <path id="Trazado_247188" data-name="Trazado 247188" d="M2116.62,37.995a3.087,3.087,0,1,0,3.087-3.087A3.087,3.087,0,0,0,2116.62,37.995Z" fill="url(#linear-gradient-4)"/>
        </g>
      </g>
      <rect id="Rectángulo_43541" data-name="Rectángulo 43541" width="4.363" height="7.486" transform="translate(2024.582 25.98)" fill="#fff" stroke="#12263f" stroke-miterlimit="10" stroke-width="1"/>
      <path id="Trazado_247189" data-name="Trazado 247189" d="M2133.2,37.364l.944,5.1-.3,1.628-1.427-1.241-2.241-5.489Z" fill="#12263f"/>
    </g>
  </g>
</svg>
