<svg xmlns="http://www.w3.org/2000/svg" xmlns:xlink="http://www.w3.org/1999/xlink" width="295" height="93" viewBox="0 0 295 93">
  <defs>
    <linearGradient id="linear-gradient" x1="-191.345" y1="0.5" x2="-190.345" y2="0.5" gradientUnits="objectBoundingBox">
      <stop offset="0"/>
      <stop offset="0.998" stop-color="#666"/>
    </linearGradient>
    <radialGradient id="radial-gradient" cx="0.5" cy="0.5" r="0.5" gradientTransform="matrix(-0.707, -0.707, -0.707, 0.707, -213.027, -88.239)" gradientUnits="objectBoundingBox">
      <stop offset="0.484" stop-color="#4d4d4d"/>
      <stop offset="0.66" stop-color="#8f8f8f"/>
      <stop offset="0.818" stop-color="#c4c4c4"/>
      <stop offset="0.935" stop-color="#e5e5e5"/>
      <stop offset="1" stop-color="#f2f2f2"/>
    </radialGradient>
    <radialGradient id="radial-gradient-2" cx="0.5" cy="0.5" r="0.5" gradientTransform="matrix(-1, 0, 0, 1, -346.605, 0)" gradientUnits="objectBoundingBox">
      <stop offset="0" stop-color="gray"/>
      <stop offset="1" stop-color="#f2f2f2"/>
    </radialGradient>
    <linearGradient id="linear-gradient-2" x1="-288.406" y1="0.5" x2="-287.406" y2="0.5" gradientTransform="matrix(1, 0, 0, 1, 0, 0)" xlink:href="#radial-gradient-2"/>
    <radialGradient id="radial-gradient-3" cx="0.5" cy="0.5" r="0.5" gradientTransform="matrix(-0.982, -0.189, -0.189, 0.982, -270.389, -25.827)" xlink:href="#radial-gradient"/>
    <radialGradient id="radial-gradient-4" cx="0.5" cy="0.5" r="0.5" gradientTransform="matrix(-1, 0, 0, 1, -378.408, 0)" xlink:href="#radial-gradient-2"/>
    <linearGradient id="linear-gradient-3" x1="-314.792" y1="0.5" x2="-313.792" y2="0.5" gradientTransform="matrix(1, 0, 0, 1, 0, 0)" xlink:href="#radial-gradient-2"/>
    <radialGradient id="radial-gradient-5" cx="0.5" cy="0.5" r="0.5" gradientTransform="matrix(-0.982, -0.189, -0.189, 0.982, -297.788, -28.444)" xlink:href="#radial-gradient"/>
    <radialGradient id="radial-gradient-6" cx="0.5" cy="0.5" r="0.5" gradientTransform="matrix(-1, 0, 0, 1, -416.707, 0)" xlink:href="#radial-gradient-2"/>
    <linearGradient id="linear-gradient-4" x1="-346.611" y1="0.5" x2="-345.611" y2="0.5" gradientTransform="matrix(1, 0, 0, 1, 0, 0)" xlink:href="#radial-gradient-2"/>
    <radialGradient id="radial-gradient-7" cx="0.5" cy="0.5" r="0.5" gradientTransform="matrix(-0.982, -0.189, -0.189, 0.982, -303.993, -29.037)" xlink:href="#radial-gradient"/>
    <radialGradient id="radial-gradient-8" cx="0.5" cy="0.5" r="0.5" gradientTransform="matrix(-1, 0, 0, 1, -425.365, 0)" xlink:href="#radial-gradient-2"/>
    <linearGradient id="linear-gradient-5" x1="-353.766" y1="0.5" x2="-352.766" y2="0.5" gradientTransform="matrix(1, 0, 0, 1, 0, 0)" xlink:href="#radial-gradient-2"/>
  </defs>
  <g id="Grupo_123182" data-name="Grupo 123182" transform="translate(-810 -5788)">
    <rect id="Rectángulo_42543" data-name="Rectángulo 42543" width="295" height="93" transform="translate(810 5788)" fill="#28acd3" opacity="0.25"/>
    <g id="Grupo_122659" data-name="Grupo 122659" transform="translate(-1065.842 5698.784)">
      <path id="Trazado_247268" data-name="Trazado 247268" d="M1977.538,148.809h20.59a2.9,2.9,0,0,0,.155-1.311h0a2.9,2.9,0,0,0-.155-1.312h-20.59Z"/>
      <path id="Trazado_247269" data-name="Trazado 247269" d="M2083.544,148.811h51.3c.213,0,.385-.588.385-1.312h0c0-.724-.172-1.311-.385-1.311h-51.3Z"/>
      <path id="Trazado_247270" data-name="Trazado 247270" d="M1982.418,147.222h10.9a5.336,5.336,0,0,0,.082-1.311h0a5.341,5.341,0,0,0-.082-1.312h-10.9Z" fill="#12263f"/>
      <g id="Grupo_122648" data-name="Grupo 122648">
        <path id="Trazado_247271" data-name="Trazado 247271" d="M1938.279,115.173H1951.7v2.32h-15.737A2.32,2.32,0,0,1,1938.279,115.173Z" fill="#1ba2c1" stroke="#12263f" stroke-miterlimit="10" stroke-width="1"/>
        <g id="Grupo_122640" data-name="Grupo 122640">
          <path id="Trazado_247272" data-name="Trazado 247272" d="M1940.775,111.068h1.638a1.606,1.606,0,0,1,1.6,1.461l.239,2.644h-4.686v-2.895A1.21,1.21,0,0,1,1940.775,111.068Z" fill="#1ba2c1" stroke="#12263f" stroke-miterlimit="10" stroke-width="1"/>
          <rect id="Rectángulo_43596" data-name="Rectángulo 43596" width="0.871" height="2.643" transform="translate(1939.565 114.432) rotate(-180)" fill="#28acd3" stroke="#12263f" stroke-miterlimit="10" stroke-width="1"/>
        </g>
        <g id="Grupo_122641" data-name="Grupo 122641">
          <path id="Trazado_247273" data-name="Trazado 247273" d="M2012.164,153.476h-85.128v-5.433h85.128c2.06,0,3.73,1.217,3.73,2.717h0C2015.894,152.26,2014.224,153.476,2012.164,153.476Z" fill="#fff" stroke="#12263f" stroke-miterlimit="10" stroke-width="1"/>
          <g id="Rectángulo_43597" data-name="Rectángulo 43597" transform="translate(1968.437 149.646) rotate(-180)" fill="#12263f" stroke="#12263f" stroke-miterlimit="10" stroke-width="1">
            <rect width="33.422" height="1.673" stroke="none"/>
            <rect x="-0.5" y="-0.5" width="34.422" height="2.673" fill="none"/>
          </g>
        </g>
        <rect id="Rectángulo_43598" data-name="Rectángulo 43598" width="3.561" height="11.735" transform="translate(1907.004 159.846) rotate(-180)" fill="#fff" stroke="#12263f" stroke-miterlimit="10" stroke-width="1"/>
        <path id="Trazado_247274" data-name="Trazado 247274" d="M1907,131.769v16.053h26v.15h27.052V117.343h-23.511a2.843,2.843,0,0,0-.352.022,3.878,3.878,0,0,0-3.255,3.2l-1.593,8.467a3.42,3.42,0,0,1-3.351,2.741Z" fill="#28acd3" stroke="#12263f" stroke-miterlimit="10" stroke-width="1"/>
        <g id="Grupo_122642" data-name="Grupo 122642">
          <path id="Trazado_247275" data-name="Trazado 247275" d="M1905.382,137.127v6.38a.4.4,0,0,0,.4.4h10.807a.4.4,0,0,0,.2-.748l-10.807-6.38A.4.4,0,0,0,1905.382,137.127Z" fill="#fff"/>
          <rect id="Rectángulo_43599" data-name="Rectángulo 43599" width="0.42" height="5.757" transform="translate(1905.382 137.271)" fill="#fff"/>
          <path id="Trazado_247276" data-name="Trazado 247276" d="M1906.831,140.926a1.348,1.348,0,1,0,1.348-1.348A1.348,1.348,0,0,0,1906.831,140.926Z" fill="#fece16"/>
        </g>
        <path id="Rectángulo_43600" data-name="Rectángulo 43600" d="M0,0H2A0,0,0,0,1,2,0V0A2,2,0,0,1,0,2H0A0,0,0,0,1,0,2V0A0,0,0,0,1,0,0Z" transform="translate(1907.004 148.116) rotate(180)" fill="#fff"/>
        <path id="Trazado_247277" data-name="Trazado 247277" d="M1947.557,140.86V122.134a1.825,1.825,0,0,0-1.826-1.825h-7.177a1.825,1.825,0,0,0-1.718,1.208l-3.106,8.644a1.832,1.832,0,0,0-.108.617V140.86a1.827,1.827,0,0,0,1.826,1.826h10.283A1.826,1.826,0,0,0,1947.557,140.86Z" fill="#28acd3" stroke="#12263f" stroke-miterlimit="10" stroke-width="1"/>
        <rect id="Rectángulo_43601" data-name="Rectángulo 43601" width="0.41" height="15.152" transform="translate(1949.032 141.21) rotate(-180)" fill="#fff"/>
        <path id="Trazado_247278" data-name="Trazado 247278" d="M1937.638,129.454h7.2a1.193,1.193,0,0,0,.662-.2,1.166,1.166,0,0,0,.511-.964v-4.859a1.172,1.172,0,0,0-1.173-1.174h-5.515a1.139,1.139,0,0,0-.558.145,1.153,1.153,0,0,0-.544.642l-1.692,4.859A1.169,1.169,0,0,0,1937.638,129.454Z" fill="url(#linear-gradient)"/>
        <rect id="Rectángulo_43602" data-name="Rectángulo 43602" width="1.018" height="8.823" rx="0.509" transform="translate(1935.953 121.649)" fill="#fff"/>
        <rect id="Rectángulo_43603" data-name="Rectángulo 43603" width="0.601" height="9.468" transform="translate(1903.443 158.346) rotate(-180)" fill="#fece16"/>
        <g id="Rectángulo_43604" data-name="Rectángulo 43604" transform="translate(1963.721 146.724) rotate(-180)" fill="#12263f" stroke="#010102" stroke-miterlimit="10" stroke-width="1">
          <path d="M0,0H9.819a0,0,0,0,1,0,0V9.187A2.409,2.409,0,0,1,7.41,11.6h-5A2.409,2.409,0,0,1,0,9.187V0A0,0,0,0,1,0,0Z" stroke="none"/>
          <path d="M0-.5H9.819a.5.5,0,0,1,.5.5V9.187A2.909,2.909,0,0,1,7.41,12.1h-5A2.909,2.909,0,0,1-.5,9.187V0A.5.5,0,0,1,0-.5Z" fill="none"/>
        </g>
        <g id="Rectángulo_43605" data-name="Rectángulo 43605" transform="translate(1962.126 136.461) rotate(-180)" fill="#12263f" stroke="#010102" stroke-miterlimit="10" stroke-width="1">
          <path d="M0,0H6.629a0,0,0,0,1,0,0V9.617A1.979,1.979,0,0,1,4.65,11.6H1.98A1.98,1.98,0,0,1,0,9.617V0A0,0,0,0,1,0,0Z" stroke="none"/>
          <path d="M0-.5H6.629a.5.5,0,0,1,.5.5V9.617A2.479,2.479,0,0,1,4.65,12.1H1.98A2.48,2.48,0,0,1-.5,9.617V0A.5.5,0,0,1,0-.5Z" fill="none"/>
        </g>
        <g id="Rectángulo_43606" data-name="Rectángulo 43606" transform="translate(1960.553 124.971) rotate(-180)" fill="#12263f" stroke="#010102" stroke-miterlimit="10" stroke-width="1">
          <path d="M0,0H3.484a0,0,0,0,1,0,0V24.592a1.163,1.163,0,0,1-1.163,1.163H1.163A1.163,1.163,0,0,1,0,24.592V0A0,0,0,0,1,0,0Z" stroke="none"/>
          <path d="M0-.5H3.484a.5.5,0,0,1,.5.5V24.592a1.663,1.663,0,0,1-1.663,1.663H1.163A1.663,1.663,0,0,1-.5,24.592V0A.5.5,0,0,1,0-.5Z" fill="none"/>
        </g>
        <g id="Grupo_122643" data-name="Grupo 122643">
          <g id="Rectángulo_43607" data-name="Rectángulo 43607" transform="translate(1982.188 154.411) rotate(-180)" fill="#12263f" stroke="#010102" stroke-miterlimit="10" stroke-width="1">
            <path d="M1.878,0H20.916a1.878,1.878,0,0,1,1.878,1.878V6.286a0,0,0,0,1,0,0H0a0,0,0,0,1,0,0V1.878A1.878,1.878,0,0,1,1.878,0Z" stroke="none"/>
            <path d="M1.878-.5H20.916a2.378,2.378,0,0,1,2.378,2.378V6.286a.5.5,0,0,1-.5.5H0a.5.5,0,0,1-.5-.5V1.878A2.378,2.378,0,0,1,1.878-.5Z" fill="none"/>
          </g>
          <g id="Rectángulo_43608" data-name="Rectángulo 43608" transform="translate(1978.73 154.411) rotate(-180)" fill="#12263f" stroke="#010102" stroke-miterlimit="10" stroke-width="1">
            <rect width="0.513" height="6.286" stroke="none"/>
            <rect x="-0.5" y="-0.5" width="1.513" height="7.286" fill="none"/>
          </g>
          <g id="Rectángulo_43609" data-name="Rectángulo 43609" transform="translate(1971.303 154.411) rotate(-180)" fill="#12263f" stroke="#010102" stroke-miterlimit="10" stroke-width="1">
            <rect width="0.513" height="6.286" stroke="none"/>
            <rect x="-0.5" y="-0.5" width="1.513" height="7.286" fill="none"/>
          </g>
          <g id="Rectángulo_43610" data-name="Rectángulo 43610" transform="translate(1963.877 154.411) rotate(-180)" fill="#12263f" stroke="#010102" stroke-miterlimit="10" stroke-width="1">
            <rect width="0.513" height="6.286" stroke="none"/>
            <rect x="-0.5" y="-0.5" width="1.513" height="7.286" fill="none"/>
          </g>
        </g>
        <path id="Rectángulo_43611" data-name="Rectángulo 43611" d="M0,0H1.749a0,0,0,0,1,0,0V14.234A1.749,1.749,0,0,1,0,15.983H0a0,0,0,0,1,0,0V0A0,0,0,0,1,0,0Z" transform="translate(1907.005 147.796) rotate(180)" fill="#fff" stroke="#12263f" stroke-miterlimit="10" stroke-width="1"/>
        <g id="Grupo_122647" data-name="Grupo 122647">
          <g id="Grupo_122646" data-name="Grupo 122646">
            <g id="Grupo_122645" data-name="Grupo 122645">
              <circle id="Elipse_6117" data-name="Elipse 6117" cx="10.97" cy="10.97" r="10.97" transform="matrix(0.973, -0.23, 0.23, 0.973, 1904.653, 148.989)"/>
              <circle id="Elipse_6118" data-name="Elipse 6118" cx="7.094" cy="7.094" r="7.094" transform="translate(1907.933 157.145) rotate(-45)" fill="url(#radial-gradient)"/>
              <g id="Grupo_122644" data-name="Grupo 122644">
                <path id="Trazado_247279" data-name="Trazado 247279" d="M1912.843,157.145a5.122,5.122,0,1,0,5.123-5.122A5.123,5.123,0,0,0,1912.843,157.145Zm.918-1.792a.2.2,0,0,1,.114.251,4.527,4.527,0,0,0-.206.733.194.194,0,0,1-.191.159.147.147,0,0,1-.036,0,.194.194,0,0,1-.155-.228,4.8,4.8,0,0,1,.223-.8A.194.194,0,0,1,1913.761,155.353Zm2.057-2.015a4.328,4.328,0,0,0-.627.431.2.2,0,0,1-.247-.3,4.606,4.606,0,0,1,.682-.468.195.195,0,1,1,.192.339Zm1.589-.729a.193.193,0,0,1-.16.224,4.409,4.409,0,0,0-.737.191.209.209,0,0,1-.065.01.2.2,0,0,1-.185-.129.2.2,0,0,1,.12-.25,4.8,4.8,0,0,1,.8-.206A.2.2,0,0,1,1917.407,152.609Zm1.582.082a.2.2,0,0,1-.192.159l-.035,0a4.342,4.342,0,0,0-.757-.073.2.2,0,0,1,0-.39h0a4.926,4.926,0,0,1,.825.079A.2.2,0,0,1,1918.989,152.691Zm1.458.618a.2.2,0,0,1-.168.1.2.2,0,0,1-.1-.027,4.326,4.326,0,0,0-.686-.327.2.2,0,0,1-.114-.251.193.193,0,0,1,.251-.114,4.754,4.754,0,0,1,.748.356A.2.2,0,0,1,1920.447,153.309Zm1.161,1.078a.2.2,0,0,1-.275-.026,4.193,4.193,0,0,0-.533-.541.2.2,0,1,1,.252-.3,4.769,4.769,0,0,1,.582.589A.2.2,0,0,1,1921.608,154.387Zm.843,1.159a.2.2,0,0,1-.118.249.192.192,0,0,1-.066.012.2.2,0,0,1-.183-.129,4.462,4.462,0,0,0-.317-.692.195.195,0,1,1,.339-.192A4.7,4.7,0,0,1,1922.451,155.546Zm.079,1.808a.208.208,0,0,1-.2-.209,4.333,4.333,0,0,0-.061-.732.195.195,0,1,1,.384-.065,4.672,4.672,0,0,1,.067.8v.028A.184.184,0,0,1,1922.53,157.354Zm-.349,1.558a.193.193,0,0,1-.116-.25,4.542,4.542,0,0,0,.2-.735.2.2,0,0,1,.385.071,4.978,4.978,0,0,1-.22.8.194.194,0,0,1-.183.127A.176.176,0,0,1,1922.181,158.912Zm-.88,1.057a4.292,4.292,0,0,0,.439-.619.2.2,0,0,1,.338.2,4.731,4.731,0,0,1-.479.676.2.2,0,0,1-.149.068.191.191,0,0,1-.127-.046A.2.2,0,0,1,1921.3,159.969Zm-1.165.969a4.364,4.364,0,0,0,.625-.434.195.195,0,0,1,.249.3,4.862,4.862,0,0,1-.68.473.187.187,0,0,1-.1.025.193.193,0,0,1-.169-.1A.2.2,0,0,1,1920.136,160.938Zm-1.584.739a.2.2,0,0,1,.159-.225,4.144,4.144,0,0,0,.735-.194.2.2,0,1,1,.134.367,4.5,4.5,0,0,1-.8.211.184.184,0,0,1-.033,0A.2.2,0,0,1,1918.552,161.677Zm-1.583-.073a.2.2,0,0,1,.227-.157,4.429,4.429,0,0,0,.757.068.2.2,0,0,1,0,.39h0a4.738,4.738,0,0,1-.825-.074A.2.2,0,0,1,1916.969,161.6Zm-1.463-.608a.2.2,0,0,1,.267-.071,4.357,4.357,0,0,0,.688.323.2.2,0,0,1-.068.378.2.2,0,0,1-.068-.011,4.726,4.726,0,0,1-.748-.353A.2.2,0,0,1,1915.506,161Zm-1.167-1.071a.2.2,0,0,1,.276.024,4.559,4.559,0,0,0,.536.54.194.194,0,0,1-.126.343.192.192,0,0,1-.126-.046,4.973,4.973,0,0,1-.584-.586A.2.2,0,0,1,1914.339,159.925Zm-.135-5.006a.192.192,0,0,1-.168.1.19.19,0,0,1-.1-.027.2.2,0,0,1-.069-.267,5,5,0,0,1,.483-.673.2.2,0,0,1,.3.255A4.412,4.412,0,0,0,1914.2,154.919Zm-.714,3.851a.2.2,0,0,1,.367-.133,4.338,4.338,0,0,0,.32.688.2.2,0,0,1-.07.267.2.2,0,0,1-.1.026.2.2,0,0,1-.169-.1A4.663,4.663,0,0,1,1913.49,158.77Zm-.284-1.625v-.054a.195.195,0,1,1,.39,0v.054a4.344,4.344,0,0,0,.066.757.2.2,0,0,1-.159.226.189.189,0,0,1-.034,0,.2.2,0,0,1-.192-.161A4.732,4.732,0,0,1,1913.206,157.145Z" fill="url(#radial-gradient-2)"/>
              </g>
              <path id="Trazado_247280" data-name="Trazado 247280" d="M1914.879,157.145a3.087,3.087,0,1,0,3.087-3.087A3.087,3.087,0,0,0,1914.879,157.145Z" fill="url(#linear-gradient-2)"/>
            </g>
          </g>
          <path id="Trazado_247281" data-name="Trazado 247281" d="M1903.225,155.789h4.21a10.449,10.449,0,0,1,20.747,0h4.217a14.64,14.64,0,0,0-29.174,0Z" fill="#28acd3" stroke="#12263f" stroke-miterlimit="10" stroke-width="1"/>
        </g>
      </g>
      <path id="Trazado_247282" data-name="Trazado 247282" d="M2135.228,149.062h-51.74c2.007,0,3.728,3.122,4.433,7.541h47.307Z" fill="#12263f"/>
      <path id="Trazado_247283" data-name="Trazado 247283" d="M2000.766,149.063l.066.046a10.021,10.021,0,0,1,1-.046Z" fill="#b751bb"/>
      <g id="Grupo_122649" data-name="Grupo 122649">
        <g id="Rectángulo_43612" data-name="Rectángulo 43612" transform="translate(1972.485 103.913)" fill="#fff" stroke="#12263f" stroke-miterlimit="10" stroke-width="2">
          <rect width="171.792" height="41.475" stroke="none"/>
          <rect x="1" y="1" width="169.792" height="39.475" fill="none"/>
        </g>
      </g>
      <g id="Grupo_122652" data-name="Grupo 122652">
        <g id="Grupo_122651" data-name="Grupo 122651">
          <circle id="Elipse_6119" data-name="Elipse 6119" cx="10.97" cy="10.97" r="10.97" transform="matrix(0.784, -0.62, 0.62, 0.784, 1983.894, 155.349)"/>
          <circle id="Elipse_6120" data-name="Elipse 6120" cx="7.094" cy="7.094" r="7.094" transform="matrix(0.982, -0.189, 0.189, 0.982, 1991.11, 151.522)" fill="url(#radial-gradient-3)"/>
          <g id="Grupo_122650" data-name="Grupo 122650">
            <path id="Trazado_247284" data-name="Trazado 247284" d="M1994.3,157.145a5.122,5.122,0,1,0,5.122-5.122A5.123,5.123,0,0,0,1994.3,157.145Zm.918-1.792a.2.2,0,0,1,.114.251,4.418,4.418,0,0,0-.206.733.2.2,0,0,1-.192.159.147.147,0,0,1-.036,0,.2.2,0,0,1-.155-.228,4.8,4.8,0,0,1,.224-.8A.193.193,0,0,1,1995.215,155.353Zm2.057-2.015a4.275,4.275,0,0,0-.627.431.2.2,0,0,1-.275-.027.2.2,0,0,1,.027-.275,4.658,4.658,0,0,1,.682-.468.2.2,0,0,1,.193.339Zm1.588-.729a.193.193,0,0,1-.16.224,4.434,4.434,0,0,0-.737.191.205.205,0,0,1-.065.01.2.2,0,0,1-.184-.129.2.2,0,0,1,.12-.25,4.768,4.768,0,0,1,.8-.206A.2.2,0,0,1,1998.86,152.609Zm1.583.082a.2.2,0,0,1-.192.159l-.036,0a4.331,4.331,0,0,0-.756-.073.2.2,0,0,1,0-.39h0a4.9,4.9,0,0,1,.824.079A.2.2,0,0,1,2000.443,152.691Zm1.458.618a.2.2,0,0,1-.168.1.2.2,0,0,1-.1-.027,4.315,4.315,0,0,0-.685-.327.195.195,0,1,1,.136-.365,4.668,4.668,0,0,1,.748.356A.2.2,0,0,1,2001.9,153.309Zm1.161,1.078a.2.2,0,0,1-.125.044.194.194,0,0,1-.15-.07,4.264,4.264,0,0,0-.534-.541.2.2,0,1,1,.253-.3,4.838,4.838,0,0,1,.582.589A.2.2,0,0,1,2003.062,154.387Zm.842,1.159a.194.194,0,0,1-.118.249.187.187,0,0,1-.065.012.2.2,0,0,1-.184-.129,4.372,4.372,0,0,0-.317-.692.2.2,0,0,1,.074-.266.2.2,0,0,1,.266.074A4.611,4.611,0,0,1,2003.9,155.546Zm.08,1.808a.208.208,0,0,1-.2-.209,4.436,4.436,0,0,0-.061-.732.195.195,0,1,1,.384-.065,4.786,4.786,0,0,1,.067.8v.028A.184.184,0,0,1,2003.984,157.354Zm-.35,1.558a.194.194,0,0,1-.115-.25,4.554,4.554,0,0,0,.2-.735.194.194,0,0,1,.227-.157.2.2,0,0,1,.157.228,4.879,4.879,0,0,1-.22.8.192.192,0,0,1-.182.127A.18.18,0,0,1,2003.634,158.912Zm-.88,1.057a4.145,4.145,0,0,0,.439-.619.2.2,0,0,1,.338.2,4.731,4.731,0,0,1-.479.676.2.2,0,0,1-.149.068.187.187,0,0,1-.126-.046A.2.2,0,0,1,2002.754,159.969Zm-1.164.969a4.348,4.348,0,0,0,.624-.434.2.2,0,1,1,.25.3,4.868,4.868,0,0,1-.68.473.188.188,0,0,1-.1.025.195.195,0,0,1-.1-.364Zm-1.584.739a.2.2,0,0,1,.159-.225,4.169,4.169,0,0,0,.735-.194.2.2,0,1,1,.133.367,4.467,4.467,0,0,1-.8.211l-.033,0A.193.193,0,0,1,2000.006,161.677Zm-1.584-.073a.2.2,0,0,1,.227-.157,4.45,4.45,0,0,0,.758.068.2.2,0,0,1,0,.39h0a4.739,4.739,0,0,1-.825-.074A.2.2,0,0,1,1998.422,161.6ZM1996.96,161a.2.2,0,0,1,.267-.071,4.39,4.39,0,0,0,.687.323.2.2,0,0,1,.116.251.2.2,0,0,1-.183.127.2.2,0,0,1-.068-.011,4.687,4.687,0,0,1-.748-.353A.194.194,0,0,1,1996.96,161Zm-1.167-1.071a.2.2,0,0,1,.275.024,4.5,4.5,0,0,0,.537.54.2.2,0,0,1-.253.3,4.954,4.954,0,0,1-.583-.586A.2.2,0,0,1,1995.793,159.925Zm-.135-5.006a.2.2,0,0,1-.268.068.2.2,0,0,1-.068-.267,4.909,4.909,0,0,1,.483-.673.2.2,0,0,1,.3.255A4.486,4.486,0,0,0,1995.658,154.919Zm-.714,3.851a.2.2,0,1,1,.367-.133,4.253,4.253,0,0,0,.32.688.195.195,0,0,1-.169.293.2.2,0,0,1-.169-.1A4.658,4.658,0,0,1,1994.944,158.77Zm-.284-1.625v-.054a.194.194,0,1,1,.389,0v.054a4.441,4.441,0,0,0,.066.757.2.2,0,0,1-.158.226l-.034,0a.194.194,0,0,1-.192-.161A4.732,4.732,0,0,1,1994.66,157.145Z" fill="url(#radial-gradient-4)"/>
          </g>
          <path id="Trazado_247285" data-name="Trazado 247285" d="M1996.332,157.145a3.087,3.087,0,1,0,3.087-3.087A3.087,3.087,0,0,0,1996.332,157.145Z" fill="url(#linear-gradient-3)"/>
        </g>
      </g>
      <g id="Grupo_122655" data-name="Grupo 122655">
        <g id="Grupo_122654" data-name="Grupo 122654">
          <circle id="Elipse_6121" data-name="Elipse 6121" cx="10.97" cy="10.97" r="10.97" transform="matrix(0.784, -0.62, 0.62, 0.784, 2081.969, 155.349)"/>
          <circle id="Elipse_6122" data-name="Elipse 6122" cx="7.094" cy="7.094" r="7.094" transform="translate(2089.185 151.522) rotate(-10.912)" fill="url(#radial-gradient-5)"/>
          <g id="Grupo_122653" data-name="Grupo 122653">
            <path id="Trazado_247286" data-name="Trazado 247286" d="M2092.372,157.145a5.122,5.122,0,1,0,5.122-5.122A5.123,5.123,0,0,0,2092.372,157.145Zm.918-1.792a.2.2,0,0,1,.114.251,4.515,4.515,0,0,0-.206.733.2.2,0,0,1-.191.159.157.157,0,0,1-.037,0,.2.2,0,0,1-.155-.228,4.788,4.788,0,0,1,.224-.8A.193.193,0,0,1,2093.29,155.353Zm2.057-2.015a4.334,4.334,0,0,0-.627.431.2.2,0,0,1-.274-.027.2.2,0,0,1,.026-.275,4.675,4.675,0,0,1,.683-.468.193.193,0,0,1,.265.073A.2.2,0,0,1,2095.347,153.338Zm1.589-.729a.193.193,0,0,1-.161.224,4.422,4.422,0,0,0-.736.191.214.214,0,0,1-.065.01.195.195,0,0,1-.065-.379,4.792,4.792,0,0,1,.8-.206A.2.2,0,0,1,2096.936,152.609Zm1.582.082a.2.2,0,0,1-.192.159l-.036,0a4.332,4.332,0,0,0-.756-.073.2.2,0,0,1,0-.39h0a4.906,4.906,0,0,1,.824.079A.2.2,0,0,1,2098.518,152.691Zm1.458.618a.2.2,0,0,1-.267.068,4.326,4.326,0,0,0-.686-.327.195.195,0,1,1,.137-.365,4.744,4.744,0,0,1,.748.356A.2.2,0,0,1,2099.976,153.309Zm1.161,1.078a.2.2,0,0,1-.125.044.2.2,0,0,1-.15-.07,4.2,4.2,0,0,0-.534-.541.2.2,0,0,1,.253-.3,4.769,4.769,0,0,1,.582.589A.2.2,0,0,1,2101.137,154.387Zm.842,1.159a.194.194,0,0,1-.117.249.194.194,0,0,1-.25-.117,4.287,4.287,0,0,0-.317-.692.2.2,0,0,1,.34-.192A4.611,4.611,0,0,1,2101.979,155.546Zm.08,1.808a.208.208,0,0,1-.2-.209,4.423,4.423,0,0,0-.061-.732.195.195,0,1,1,.384-.065,4.786,4.786,0,0,1,.067.8v.028A.184.184,0,0,1,2102.059,157.354Zm-.35,1.558a.194.194,0,0,1-.115-.25,4.542,4.542,0,0,0,.2-.735.2.2,0,1,1,.384.071,4.879,4.879,0,0,1-.22.8.192.192,0,0,1-.182.127A.181.181,0,0,1,2101.709,158.912Zm-.879,1.057a4.292,4.292,0,0,0,.439-.619.195.195,0,1,1,.337.2,4.645,4.645,0,0,1-.479.676.2.2,0,1,1-.3-.253Zm-1.165.969a4.355,4.355,0,0,0,.624-.434.2.2,0,0,1,.25.3,4.87,4.87,0,0,1-.68.473.187.187,0,0,1-.1.025.195.195,0,0,1-.1-.364Zm-1.584.739a.2.2,0,0,1,.159-.225,4.168,4.168,0,0,0,.735-.194.2.2,0,0,1,.134.367,4.5,4.5,0,0,1-.8.211l-.033,0A.194.194,0,0,1,2098.081,161.677Zm-1.584-.073a.2.2,0,0,1,.227-.157,4.448,4.448,0,0,0,.758.068.2.2,0,0,1,0,.39h0a4.736,4.736,0,0,1-.825-.074A.2.2,0,0,1,2096.5,161.6Zm-1.462-.608a.2.2,0,0,1,.267-.071,4.386,4.386,0,0,0,.687.323.195.195,0,0,1-.067.378.2.2,0,0,1-.068-.011,4.687,4.687,0,0,1-.748-.353A.2.2,0,0,1,2095.035,161Zm-1.167-1.071a.2.2,0,0,1,.275.024,4.643,4.643,0,0,0,.537.54.2.2,0,0,1-.253.3,4.973,4.973,0,0,1-.583-.586A.2.2,0,0,1,2093.868,159.925Zm-.135-5.006a.192.192,0,0,1-.168.1.187.187,0,0,1-.1-.027.2.2,0,0,1-.069-.267,4.929,4.929,0,0,1,.483-.673.2.2,0,0,1,.3.255A4.487,4.487,0,0,0,2093.733,154.919Zm-.714,3.851a.2.2,0,1,1,.367-.133,4.339,4.339,0,0,0,.32.688.195.195,0,1,1-.337.2A4.58,4.58,0,0,1,2093.019,158.77Zm-.284-1.625v-.054a.194.194,0,1,1,.389,0v.054a4.441,4.441,0,0,0,.066.757.2.2,0,0,1-.384.068A4.743,4.743,0,0,1,2092.735,157.145Z" fill="url(#radial-gradient-6)"/>
          </g>
          <path id="Trazado_247287" data-name="Trazado 247287" d="M2094.408,157.145a3.087,3.087,0,1,0,3.086-3.087A3.087,3.087,0,0,0,2094.408,157.145Z" fill="url(#linear-gradient-4)"/>
        </g>
      </g>
      <g id="Grupo_122658" data-name="Grupo 122658">
        <g id="Grupo_122657" data-name="Grupo 122657">
          <circle id="Elipse_6123" data-name="Elipse 6123" cx="10.97" cy="10.97" r="10.97" transform="matrix(0.784, -0.62, 0.62, 0.784, 2104.182, 155.349)"/>
          <circle id="Elipse_6124" data-name="Elipse 6124" cx="7.094" cy="7.094" r="7.094" transform="translate(2111.398 151.522) rotate(-10.912)" fill="url(#radial-gradient-7)"/>
          <g id="Grupo_122656" data-name="Grupo 122656">
            <path id="Trazado_247288" data-name="Trazado 247288" d="M2114.585,157.145a5.123,5.123,0,1,0,5.122-5.122A5.123,5.123,0,0,0,2114.585,157.145Zm.918-1.792a.194.194,0,0,1,.114.251,4.442,4.442,0,0,0-.206.733.2.2,0,0,1-.192.159.147.147,0,0,1-.036,0,.194.194,0,0,1-.155-.228,4.808,4.808,0,0,1,.223-.8A.2.2,0,0,1,2115.5,155.353Zm2.057-2.015a4.269,4.269,0,0,0-.627.431.2.2,0,0,1-.275-.027.2.2,0,0,1,.027-.275,4.65,4.65,0,0,1,.682-.468.2.2,0,1,1,.193.339Zm1.588-.729a.193.193,0,0,1-.16.224,4.435,4.435,0,0,0-.737.191.2.2,0,0,1-.065.01.2.2,0,0,1-.184-.129.2.2,0,0,1,.119-.25,4.8,4.8,0,0,1,.8-.206A.2.2,0,0,1,2119.148,152.609Zm1.583.082a.2.2,0,0,1-.192.159.22.22,0,0,1-.036,0,4.329,4.329,0,0,0-.756-.073.2.2,0,0,1,0-.39h0a4.9,4.9,0,0,1,.824.079A.2.2,0,0,1,2120.731,152.691Zm1.458.618a.2.2,0,0,1-.168.1.2.2,0,0,1-.1-.027,4.3,4.3,0,0,0-.685-.327.195.195,0,1,1,.136-.365,4.673,4.673,0,0,1,.748.356A.2.2,0,0,1,2122.189,153.309Zm1.161,1.078a.2.2,0,0,1-.125.044.2.2,0,0,1-.151-.07,4.193,4.193,0,0,0-.533-.541.2.2,0,0,1,.253-.3,4.838,4.838,0,0,1,.582.589A.2.2,0,0,1,2123.35,154.387Zm.842,1.159a.194.194,0,0,1-.118.249.186.186,0,0,1-.065.012.2.2,0,0,1-.184-.129,4.372,4.372,0,0,0-.317-.692.2.2,0,0,1,.074-.266.2.2,0,0,1,.266.074A4.674,4.674,0,0,1,2124.192,155.546Zm.08,1.808a.208.208,0,0,1-.2-.209,4.45,4.45,0,0,0-.061-.732.195.195,0,1,1,.384-.065,4.76,4.76,0,0,1,.067.8v.028A.184.184,0,0,1,2124.272,157.354Zm-.35,1.558a.194.194,0,0,1-.115-.25,4.542,4.542,0,0,0,.2-.735.194.194,0,0,1,.227-.157.2.2,0,0,1,.157.228,4.879,4.879,0,0,1-.22.8.192.192,0,0,1-.182.127A.18.18,0,0,1,2123.922,158.912Zm-.88,1.057a4.145,4.145,0,0,0,.439-.619.2.2,0,0,1,.338.2,4.76,4.76,0,0,1-.479.676.2.2,0,0,1-.149.068.187.187,0,0,1-.126-.046A.2.2,0,0,1,2123.042,159.969Zm-1.164.969a4.355,4.355,0,0,0,.624-.434.2.2,0,1,1,.25.3,4.853,4.853,0,0,1-.68.473.187.187,0,0,1-.1.025.195.195,0,0,1-.1-.364Zm-1.584.739a.194.194,0,0,1,.159-.225,4.168,4.168,0,0,0,.735-.194.2.2,0,0,1,.133.367,4.469,4.469,0,0,1-.8.211l-.033,0A.194.194,0,0,1,2120.294,161.677Zm-1.584-.073a.2.2,0,0,1,.227-.157,4.451,4.451,0,0,0,.758.068.2.2,0,0,1,0,.39h0a4.739,4.739,0,0,1-.825-.074A.2.2,0,0,1,2118.71,161.6Zm-1.462-.608a.2.2,0,0,1,.267-.071,4.4,4.4,0,0,0,.687.323.2.2,0,0,1,.116.251.2.2,0,0,1-.184.127.2.2,0,0,1-.067-.011,4.684,4.684,0,0,1-.748-.353A.194.194,0,0,1,2117.248,161Zm-1.167-1.071a.2.2,0,0,1,.275.024,4.5,4.5,0,0,0,.537.54.195.195,0,0,1-.126.343.2.2,0,0,1-.127-.046,4.973,4.973,0,0,1-.583-.586A.2.2,0,0,1,2116.081,159.925Zm-.135-5.006a.194.194,0,0,1-.168.1.19.19,0,0,1-.1-.027.2.2,0,0,1-.068-.267,4.908,4.908,0,0,1,.483-.673.2.2,0,0,1,.3.255A4.485,4.485,0,0,0,2115.946,154.919Zm-.714,3.851a.2.2,0,1,1,.367-.133,4.253,4.253,0,0,0,.32.688.2.2,0,0,1-.338.2A4.659,4.659,0,0,1,2115.232,158.77Zm-.284-1.625v-.054a.194.194,0,1,1,.389,0v.054a4.441,4.441,0,0,0,.066.757.2.2,0,0,1-.158.226l-.034,0a.194.194,0,0,1-.192-.161A4.72,4.72,0,0,1,2114.948,157.145Z" fill="url(#radial-gradient-8)"/>
          </g>
          <path id="Trazado_247289" data-name="Trazado 247289" d="M2116.62,157.145a3.087,3.087,0,1,0,3.087-3.087A3.087,3.087,0,0,0,2116.62,157.145Z" fill="url(#linear-gradient-5)"/>
        </g>
      </g>
      <rect id="Rectángulo_43613" data-name="Rectángulo 43613" width="4.363" height="7.486" transform="translate(2024.582 145.131)" fill="#fff" stroke="#12263f" stroke-miterlimit="10" stroke-width="1"/>
      <path id="Trazado_247290" data-name="Trazado 247290" d="M2133.294,156.253l.944,5.1-.3,1.628-1.427-1.241-2.241-5.489Z" fill="#12263f"/>
    </g>
  </g>
</svg>
